<svg id="Layer_1" data-name="Layer 1" xmlns="http://www.w3.org/2000/svg" xmlns:xlink="http://www.w3.org/1999/xlink" width="184.86mm" height="140.05mm" viewBox="0 0 524 397"><defs><style>.cls-1,.cls-4,.cls-5,.cls-8,.cls-9{fill:none;}.cls-2{clip-path:url(#clip-path);}.cls-3{fill:#fff;}.cls-4{stroke:#fff;}.cls-4,.cls-5,.cls-8,.cls-9{stroke-linejoin:round;stroke-width:0.5px;}.cls-5,.cls-8,.cls-9{stroke:#000;}.cls-6{font-size:10px;}.cls-10,.cls-6{fill:#231f20;font-family:Helvetica, Helvetica;}.cls-7{clip-path:url(#clip-path-2);}.cls-8{stroke-dasharray:6;}.cls-9{stroke-dasharray:0.5 4;}.cls-10{font-size:8px;}</style><clipPath id="clip-path"><rect class="cls-1" x="6" width="511.83" height="388.17"/></clipPath><clipPath id="clip-path-2"><rect class="cls-1" x="57.17" y="9.67" width="446.92" height="352.08"/></clipPath></defs><title>Artboard 1</title><g class="cls-2"><rect class="cls-3" x="-17.83" y="-22.75" width="576.75" height="432.08"/></g><rect class="cls-3" x="57.17" y="9.67" width="446.83" height="352"/><polyline class="cls-4" points="57.17 361.67 57.17 9.67 504 9.67 504 361.67 57.17 361.67"/><path class="cls-5" d="M57.17,361.67H504M57.17,9.67H504m-446.83,352V9.67M504,361.67V9.67m-446.83,352H504m-446.83,0V9.67m0,352v-4.5m0-347.5v4.5"/><text class="cls-6" transform="translate(41.67 373.83)">−0.02</text><path class="cls-5" d="M113,361.67v-4.5m0-347.5v4.5"/><text class="cls-6" transform="translate(94.67 373.83)">−0.015</text><path class="cls-5" d="M168.92,361.67v-4.5m0-347.5v4.5"/><text class="cls-6" transform="translate(153.42 373.83)">−0.01</text><path class="cls-5" d="M224.75,361.67v-4.5m0-347.5v4.5"/><text class="cls-6" transform="translate(206.42 373.83)">−0.005</text><path class="cls-5" d="M280.58,361.67v-4.5m0-347.5v4.5"/><text class="cls-6" transform="translate(277.83 373.83)">0</text><path class="cls-5" d="M336.42,361.67v-4.5m0-347.5v4.5"/><text class="cls-6" transform="translate(323.92 373.83)">0.005</text><path class="cls-5" d="M392.33,361.67v-4.5m0-347.5v4.5"/><text class="cls-6" transform="translate(382.67 373.83)">0.01</text><path class="cls-5" d="M448.17,361.67v-4.5m0-347.5v4.5"/><text class="cls-6" transform="translate(435.67 373.83)">0.015</text><path class="cls-5" d="M504,361.67v-4.5m0-347.5v4.5"/><text class="cls-6" transform="translate(494.33 373.83)">0.02</text><path class="cls-5" d="M57.17,361.67h4.5m442.33,0h-4.5"/><text class="cls-6" transform="translate(29 365.34)">−0.01</text><path class="cls-5" d="M57.17,326.5h4.5m442.33,0h-4.5"/><text class="cls-6" transform="translate(23.42 330.16)">−0.008</text><path class="cls-5" d="M57.17,291.25h4.5m442.33,0h-4.5"/><text class="cls-6" transform="translate(23.42 294.91)">−0.006</text><path class="cls-5" d="M57.17,256.08h4.5m442.33,0h-4.5"/><text class="cls-6" transform="translate(23.42 259.74)">−0.004</text><path class="cls-5" d="M57.17,220.83h4.5m442.33,0h-4.5"/><text class="cls-6" transform="translate(23.42 224.5)">−0.002</text><path class="cls-5" d="M57.17,185.67h4.5m442.33,0h-4.5"/><text class="cls-6" transform="translate(48.75 189.34)">0</text><path class="cls-5" d="M57.17,150.5h4.5m442.33,0h-4.5"/><text class="cls-6" transform="translate(29.25 154.17)">0.002</text><path class="cls-5" d="M57.17,115.25h4.5m442.33,0h-4.5"/><text class="cls-6" transform="translate(29.25 118.91)">0.004</text><path class="cls-5" d="M57.17,80.08h4.5m442.33,0h-4.5"/><text class="cls-6" transform="translate(29.25 83.75)">0.006</text><path class="cls-5" d="M57.17,44.83h4.5m442.33,0h-4.5"/><text class="cls-6" transform="translate(29.25 48.49)">0.008</text><path class="cls-5" d="M57.17,9.67h4.5M504,9.67h-4.5"/><text class="cls-6" transform="translate(34.83 13.33)">0.01</text><path class="cls-5" d="M57.17,361.67H504M57.17,9.67H504m-446.83,352V9.67M504,361.67V9.67"/><g class="cls-7"><polyline class="cls-5" points="57.17 185.67 68.33 185.67 79.5 185.67 90.67 185.67 101.83 185.67 113 185.67 124.17 185.67 135.33 185.67 146.5 185.67 157.67 185.67 168.92 185.67 180.08 185.67 191.25 185.75 202.42 186 213.58 187.58 224.75 196.17 235.92 220.83 247.08 232.17 258.25 220.25 269.42 203.25 280.58 185.67 291.75 168.08 302.92 151.08 314.08 139.17 325.25 150.5 336.42 175.17 347.58 183.75 358.75 185.33 369.92 185.58 381.08 185.67 392.33 185.67 403.5 185.67 414.67 185.67 425.83 185.67 437 185.67 448.17 185.67 459.33 185.67 470.5 185.67 481.67 185.67 492.83 185.67 504 185.67"/><polyline class="cls-8" points="57.17 273.67 68.33 278.33 79.5 283.42 90.67 289.17 101.83 295.67 113 303 124.17 311.42 135.33 321.08 146.5 332.33 157.67 345.67 168.92 361.67 180.08 344.08 191.25 326.5 202.42 308.83 213.58 291.25 224.75 273.67 235.92 256.08 247.08 238.5 258.25 220.83 269.42 203.25 280.58 185.67 291.75 168.08 302.92 150.5 314.08 132.83 325.25 115.25 336.42 97.67 347.58 80.08 358.75 62.5 369.92 44.83 381.08 27.25 392.33 9.67 403.5 25.67 414.67 39 425.83 50.25 437 59.92 448.17 68.33 459.33 75.67 470.5 82.17 481.67 87.92 492.83 93 504 97.67"/><polyline class="cls-9" points="57.17 256.08 68.33 256.08 79.5 256.08 90.67 256.08 101.83 256.08 113 256.08 124.17 256.08 135.33 256.08 146.5 256.08 157.67 256.08 168.92 256.08 180.08 256.08 191.25 256.08 202.42 256.08 213.58 256.08 224.75 256.08 235.92 256.08 247.08 238.5 258.25 220.83 269.42 203.25 280.58 185.67 291.75 168.08 302.92 150.5 314.08 132.83 325.25 115.25 336.42 115.25 347.58 115.25 358.75 115.25 369.92 115.25 381.08 115.25 392.33 115.25 403.5 115.25 414.67 115.25 425.83 115.25 437 115.25 448.17 115.25 459.33 115.25 470.5 115.25 481.67 115.25 492.83 115.25 504 115.25"/></g><text class="cls-6" transform="translate(263.08 385.75)">Slope </text><text class="cls-6" transform="translate(291.43 385.75)">S</text><text class="cls-6" transform="translate(18.83 242.58) rotate(-90)">Effective slope </text><text class="cls-6" transform="translate(18.83 174.77) rotate(-90)">S</text><text class="cls-10" transform="translate(13.83 168.67) rotate(-90)">*</text><text class="cls-6" transform="translate(18.83 165.58) rotate(-90)"><tspan xml:space="preserve"> = f(S) S</tspan></text><rect class="cls-3" x="62.17" y="14.67" width="185.42" height="43.83"/><polyline class="cls-4" points="62.17 58.5 62.17 14.67 247.58 14.67 247.58 58.5 62.17 58.5"/><path class="cls-5" d="M62.17,58.5H247.58M62.17,14.67H247.58M62.17,58.5V14.67M247.58,58.5V14.67M62.17,58.5H247.58m-185.42,0V14.67m0,43.83H247.58M62.17,14.67H247.58M62.17,58.5V14.67M247.58,58.5V14.67"/><text class="cls-6" transform="translate(89.92 20)"><tspan xml:space="preserve">DM95   {1+tanh[ (S</tspan></text><text class="cls-10" transform="translate(174.67 25)">c</text><text class="cls-6" transform="translate(178.67 20)">−|S|)/S</text><text class="cls-10" transform="translate(209.08 25)">d</text><text class="cls-6" transform="translate(213.5 20)"><tspan xml:space="preserve"> ] }/2 S</tspan></text><text class="cls-6" transform="translate(89.92 34.17)">GKW91 (S</text><text class="cls-10" transform="translate(137.67 39.17)">ma</text><text class="cls-10" transform="translate(148.78 39.17)">x</text><text class="cls-6" transform="translate(152.75 34.17)">/|S|)</text><text class="cls-10" transform="translate(170.67 29.17)">2</text><text class="cls-6" transform="translate(175.08 34.17)"><tspan xml:space="preserve"> S                </tspan></text><text class="cls-6" transform="translate(89.92 50.16)"><tspan xml:space="preserve">Cox Slope Clipping                     </tspan></text><line class="cls-5" x1="67.75" y1="22.83" x2="84.42" y2="22.83"/><line class="cls-8" x1="67.75" y1="36.75" x2="84.42" y2="36.75"/><line class="cls-9" x1="67.75" y1="50.75" x2="84.42" y2="50.75"/></svg>