<svg id="Layer_1" data-name="Layer 1" xmlns="http://www.w3.org/2000/svg" xmlns:xlink="http://www.w3.org/1999/xlink" viewBox="0 0 513 305"><defs><style>.cls-1,.cls-16,.cls-19,.cls-2,.cls-3,.cls-4,.cls-6{fill:none;}.cls-1{clip-rule:evenodd;}.cls-11,.cls-2,.cls-7{fill-rule:evenodd;}.cls-11,.cls-16,.cls-3,.cls-4,.cls-6,.cls-7{stroke:#000;stroke-miterlimit:10;}.cls-11,.cls-16,.cls-3{stroke-width:0.45px;}.cls-4{stroke-width:2.7px;}.cls-5{clip-path:url(#clip-path);}.cls-6,.cls-7{stroke-width:0.9px;}.cls-8{clip-path:url(#clip-path-2);}.cls-9{clip-path:url(#clip-path-3);}.cls-10{clip-path:url(#clip-path-5);}.cls-12{clip-path:url(#clip-path-6);}.cls-13{clip-path:url(#clip-path-7);}.cls-14{clip-path:url(#clip-path-8);}.cls-15{clip-path:url(#clip-path-9);}.cls-16{stroke-dasharray:3.6;}.cls-17{clip-path:url(#clip-path-10);}.cls-18{clip-path:url(#clip-path-11);}</style><clipPath id="clip-path" transform="translate(-22.5 -239.5)"><path class="cls-1" d="M40.68,255.61H547.4v269.5H40.68Zm139.15,250v-5H167.78l10.08,2.52-10.08,2.52ZM131.32,452h-5v12.05L128.8,454l2.52,10.08Z"/></clipPath><clipPath id="clip-path-2" transform="translate(-22.5 -239.5)"><path class="cls-1" d="M40.68,255.61H547.4v269.5H40.68Zm249.4,115.78h5V359.34l-2.52,10.08-2.52-10.08Zm5-39.06h-5v12.05l2.52-10.08,2.52,10.08Z"/></clipPath><clipPath id="clip-path-3" transform="translate(-22.5 -239.5)"><path class="cls-1" d="M40.68,255.61H547.4v269.5H40.68Zm306.1,78h5v-12l-2.52,10.08-2.52-10.08Zm5-39.06h-5v12.05l2.52-10.08,2.52,10.08Z"/></clipPath><clipPath id="clip-path-5" transform="translate(-22.5 -239.5)"><path class="cls-1" d="M40.68,255.61H547.4v269.5H40.68Zm245,81.76,2-1.55-3.86-5,2.1,4.78-4.12-3.23Z"/></clipPath><clipPath id="clip-path-6" transform="translate(-22.5 -239.5)"><path class="cls-1" d="M40.68,255.61H547.4v269.5H40.68Zm302.66,44,.5-2.47L337.62,296l4.71,2.22-5.21.21Z"/></clipPath><clipPath id="clip-path-7" transform="translate(-22.5 -239.5)"><path class="cls-1" d="M40.68,255.61H547.4v269.5H40.68Zm362.8,96.88h5V340.44L406,350.52l-2.52-10.08Zm5-39.06h-5v12.05L406,315.4l2.52,10.08Z"/></clipPath><clipPath id="clip-path-8" transform="translate(-22.5 -239.5)"><path class="cls-1" d="M40.68,255.61H547.4v269.5H40.68Zm362.8,197.68h5V441.24L406,451.32l-2.52-10.08Zm5-39.06h-5v12L406,416.2l2.52,10.08Z"/></clipPath><clipPath id="clip-path-9" transform="translate(-22.5 -239.5)"><path class="cls-1" d="M40.68,255.61H547.4v269.5H40.68Zm362.8,159.88h5V403.44L406,413.52l-2.52-10.08Zm5-64.26h-5v12L406,353.2l2.52,10.08Z"/></clipPath><clipPath id="clip-path-10" transform="translate(-22.5 -239.5)"><path class="cls-1" d="M40.68,255.61H547.4v269.5H40.68Zm186.4,153.58h5V397.14l-2.52,10.08-2.52-10.08Zm5-39.06h-5v12.05l2.52-10.08,2.52,10.08Z"/></clipPath><clipPath id="clip-path-11" transform="translate(-22.5 -239.5)"><path class="cls-1" d="M40.68,255.61H547.4v269.5H40.68ZM179.83,443.84h5v-12l-2.52,10.08-2.52-10.08Zm5-39.06h-5v12.05l2.52-10.08,2.52,10.08Z"/></clipPath></defs><title>gridschematicnew</title><path d="M336.84,378.19a6.71,6.71,0,0,1,5-2q4.08,0,6,2.7a5.81,5.81,0,0,1,1.12,3h-3.41a4.71,4.71,0,0,0-.83-1.77,3.37,3.37,0,0,0-2.71-1.06,3.32,3.32,0,0,0-2.87,1.5,7.35,7.35,0,0,0-1.05,4.25,6.42,6.42,0,0,0,1.11,4.11,3.48,3.48,0,0,0,2.82,1.37,3.2,3.2,0,0,0,2.68-1.18,5.23,5.23,0,0,0,.84-1.89h3.39a7.33,7.33,0,0,1-2.24,4.34,6.49,6.49,0,0,1-4.62,1.67,6.93,6.93,0,0,1-5.48-2.26,9.08,9.08,0,0,1-2-6.22A9,9,0,0,1,336.84,378.19Z" transform="translate(-22.5 -239.5)"/><path class="cls-3" d="M166.6,282.56v207.9M217,282.56v207.9m50.4-207.9v207.9m0-207.9v207.9m50.4-207.9v207.9m50.4-207.9v207.9" transform="translate(-22.5 -239.5)"/><polyline class="cls-4" points="370.9 74.56 345.7 74.56 295.3 74.56 295.3 112.36 244.9 112.36 244.9 150.16 194.5 150.16 194.5 187.96 144.1 187.96 144.1 225.76 118.9 225.76"/><line class="cls-3" x1="118.9" y1="112.36" x2="374.05" y2="112.36"/><g class="cls-5"><polyline class="cls-6" points="106.3 213.16 106.3 263.56 156.7 263.56"/></g><polygon class="cls-7" points="108.82 224.58 106.3 214.5 103.78 224.58 108.82 224.58 108.82 224.58"/><polygon class="cls-7" points="145.28 266.08 155.36 263.56 145.28 261.04 145.28 266.08 145.28 266.08"/><path class="cls-3" d="M267.4,282.56v207.9m-126-37.8h252" transform="translate(-22.5 -239.5)"/><g class="cls-8"><line class="cls-6" x1="270.1" y1="93.46" x2="270.1" y2="131.26"/></g><polygon class="cls-7" points="272.62 104.88 270.1 94.8 267.58 104.88 272.62 104.88 272.62 104.88"/><polygon class="cls-7" points="267.58 119.83 270.1 129.91 272.62 119.83 267.58 119.83 267.58 119.83"/><g class="cls-9"><line class="cls-6" x1="326.8" y1="55.66" x2="326.8" y2="93.46"/></g><polygon class="cls-7" points="329.32 67.08 326.8 57 324.28 67.08 329.32 67.08 329.32 67.08"/><polygon class="cls-7" points="324.28 82.03 326.8 92.11 329.32 82.03 324.28 82.03 324.28 82.03"/><g class="cls-8"><line class="cls-6" x1="270.1" y1="93.46" x2="270.1" y2="131.26"/></g><polygon class="cls-7" points="272.62 104.88 270.1 94.8 267.58 104.88 272.62 104.88 272.62 104.88"/><polygon class="cls-7" points="267.58 119.83 270.1 129.91 272.62 119.83 267.58 119.83 267.58 119.83"/><g class="cls-10"><line class="cls-3" x1="219.7" y1="39.91" x2="263.8" y2="96.61"/></g><polygon class="cls-11" points="259.26 92.83 263.38 96.06 261.28 91.28 259.26 92.83 259.26 92.83"/><g class="cls-12"><line class="cls-3" x1="226" y1="39.91" x2="320.5" y2="58.81"/></g><polygon class="cls-11" points="314.62 58.89 319.83 58.68 315.12 56.46 314.62 58.89 314.62 58.89"/><g class="cls-13"><line class="cls-6" x1="383.5" y1="74.56" x2="383.5" y2="112.36"/></g><polygon class="cls-7" points="386.02 85.98 383.5 75.9 380.98 85.98 386.02 85.98 386.02 85.98"/><polygon class="cls-7" points="380.98 99.94 383.5 110.02 386.02 99.94 380.98 99.94 380.98 99.94"/><g class="cls-14"><line class="cls-6" x1="383.5" y1="175.36" x2="383.5" y2="213.16"/></g><polygon class="cls-7" points="386.02 186.78 383.5 176.7 380.98 186.78 386.02 186.78 386.02 186.78"/><polygon class="cls-7" points="380.98 201.74 383.5 211.81 386.02 201.74 380.98 201.74 380.98 201.74"/><g class="cls-15"><line class="cls-6" x1="383.5" y1="112.36" x2="383.5" y2="175.36"/></g><polygon class="cls-7" points="386.02 123.78 383.5 113.7 380.98 123.78 386.02 123.78 386.02 123.78"/><polygon class="cls-7" points="380.98 163.94 383.5 174.01 386.02 163.94 380.98 163.94 380.98 163.94"/><line class="cls-16" x1="295.3" y1="175.36" x2="377.2" y2="175.36"/><g class="cls-17"><line class="cls-6" x1="207.1" y1="131.26" x2="207.1" y2="169.06"/></g><polygon class="cls-7" points="209.62 142.68 207.1 132.6 204.58 142.68 209.62 142.68 209.62 142.68"/><polygon class="cls-7" points="204.58 157.63 207.1 167.72 209.62 157.63 204.58 157.63 204.58 157.63"/><g class="cls-18"><line class="cls-6" x1="159.85" y1="165.91" x2="159.85" y2="203.71"/></g><polygon class="cls-7" points="162.37 177.33 159.85 167.25 157.33 177.33 162.37 177.33 162.37 177.33"/><polygon class="cls-7" points="157.33 192.28 159.85 202.37 162.37 192.28 157.33 192.28 157.33 192.28"/><path d="M151.12,525.11l4.12-6.11-3.94-5.94h3.86l2,3.5,2-3.5h3.75l-4,5.88,4.12,6.17h-3.93l-2.08-3.63-2.1,3.63Z" transform="translate(-22.5 -239.5)"/><path d="M107.54,474.66v-2.57h9.54v2.62l-5.92,6.86h6.13v2.59H107.12V481.7l6-7Z" transform="translate(-22.5 -239.5)"/><path d="M236.77,428H240l1.83,8.69,1.89-8.69H247l-3.5,12.07h-3.25l-1.89-8.79-1.92,8.79h-3.28L229.76,428h3.38l1.89,8.66Z" transform="translate(-22.5 -239.5)"/><path d="M253.5,432.72a5.47,5.47,0,0,0,1.26-.28,1,1,0,0,0,.68-.9,1.06,1.06,0,0,0-.53-1,3.23,3.23,0,0,0-1.53-.28,2,2,0,0,0-1.6.55,2.17,2.17,0,0,0-.45,1.11h-3.05a4.65,4.65,0,0,1,.89-2.6c.84-1.07,2.28-1.6,4.32-1.6a7.61,7.61,0,0,1,3.53.79,3,3,0,0,1,1.55,3V437c0,.39,0,.85,0,1.4a1.78,1.78,0,0,0,.19.84,1,1,0,0,0,.47.36v.47h-3.44a4.06,4.06,0,0,1-.2-.69c0-.21-.06-.45-.09-.73a6.38,6.38,0,0,1-1.51,1.21,4.6,4.6,0,0,1-2.32.59,4,4,0,0,1-2.72-.94,3.32,3.32,0,0,1-1.08-2.65,3.45,3.45,0,0,1,1.73-3.23,7.76,7.76,0,0,1,2.79-.77Zm1.92,1.47a3.19,3.19,0,0,1-.61.31,6.77,6.77,0,0,1-.84.21l-.72.13a4.63,4.63,0,0,0-1.45.44,1.43,1.43,0,0,0-.75,1.34,1.38,1.38,0,0,0,.46,1.16,1.71,1.71,0,0,0,1.1.36,3.36,3.36,0,0,0,1.91-.59,2.54,2.54,0,0,0,.9-2.19Z" transform="translate(-22.5 -239.5)"/><path d="M260.09,430.35V428.1h1.68v-3.37h3.12v3.37h2v2.25h-2v6.38a1.46,1.46,0,0,0,.19.92,2.11,2.11,0,0,0,1.15.18h.31l.31,0v2.36l-1.49.06a4,4,0,0,1-3.06-.78,2.32,2.32,0,0,1-.53-1.67v-7.43Z" transform="translate(-22.5 -239.5)"/><path d="M276.75,428.23a5,5,0,0,1,2.08,1.79,5.79,5.79,0,0,1,1,2.49,15.46,15.46,0,0,1,.11,2.4h-8.79a2.89,2.89,0,0,0,1.26,2.55,3.22,3.22,0,0,0,1.74.45,2.44,2.44,0,0,0,2.4-1.38h3.22a3.9,3.9,0,0,1-1.17,2.18,5.87,5.87,0,0,1-4.54,1.76,6.6,6.6,0,0,1-4.25-1.49q-1.84-1.49-1.84-4.83a6.54,6.54,0,0,1,1.66-4.81,5.85,5.85,0,0,1,4.32-1.67A7,7,0,0,1,276.75,428.23ZM272,431a3.35,3.35,0,0,0-.84,1.87h5.44a2.65,2.65,0,0,0-.84-1.91,2.78,2.78,0,0,0-1.87-.65A2.52,2.52,0,0,0,272,431Z" transform="translate(-22.5 -239.5)"/><path d="M288.2,427.71h.27V431c-.2,0-.38,0-.53,0h-.38a2.62,2.62,0,0,0-2.56,1.24,4.9,4.9,0,0,0-.36,2.15v5.77h-3.18V428h3v2.1a6.72,6.72,0,0,1,1.28-1.65,3.47,3.47,0,0,1,2.3-.74Z" transform="translate(-22.5 -239.5)"/><path d="M333.65,322.94h3.85l5.78,16.32h-3.7l-1.08-3.36h-6l-1.1,3.36h-3.57Zm-.23,10.15h4.18l-2.06-6.42Z" transform="translate(-22.5 -239.5)"/><path d="M171,335.2h-3.2v-2.91H171Zm-3.2,1.44H171v12.07h-3.2Z" transform="translate(-22.5 -239.5)"/><path d="M181.29,341a2.73,2.73,0,0,0-.45-1.22,1.91,1.91,0,0,0-1.65-.73A2.18,2.18,0,0,0,177,340.6a6.53,6.53,0,0,0-.31,2.23A6,6,0,0,0,177,345a2.11,2.11,0,0,0,2.13,1.5,1.89,1.89,0,0,0,1.58-.6,2.88,2.88,0,0,0,.56-1.55h3.22a5.28,5.28,0,0,1-1,2.73,5.06,5.06,0,0,1-4.4,2.07,5.17,5.17,0,0,1-4.29-1.73,8.23,8.23,0,0,1,.15-9.31,5.28,5.28,0,0,1,4.19-1.73,6.33,6.33,0,0,1,3.72,1,4.76,4.76,0,0,1,1.71,3.6Z" transform="translate(-22.5 -239.5)"/><path d="M194.55,336.88a4.93,4.93,0,0,1,2.09,1.79,6.06,6.06,0,0,1,1,2.49,14.51,14.51,0,0,1,.1,2.4h-8.79a2.9,2.9,0,0,0,1.27,2.55,3.22,3.22,0,0,0,1.74.45,2.68,2.68,0,0,0,1.75-.55,2.82,2.82,0,0,0,.65-.83h3.22a4,4,0,0,1-1.17,2.18,5.88,5.88,0,0,1-4.54,1.76,6.56,6.56,0,0,1-4.25-1.49q-1.85-1.49-1.85-4.83A6.54,6.54,0,0,1,187.4,338a5.84,5.84,0,0,1,4.31-1.67A7,7,0,0,1,194.55,336.88Zm-4.72,2.73a3.28,3.28,0,0,0-.84,1.87h5.44a2.65,2.65,0,0,0-.84-1.91,2.8,2.8,0,0,0-1.87-.65A2.52,2.52,0,0,0,189.83,339.61Z" transform="translate(-22.5 -239.5)"/><path d="M208.05,344.86a2.11,2.11,0,0,0,.43,1.19,3,3,0,0,0,2.18.63,3.42,3.42,0,0,0,1.49-.27.93.93,0,0,0,.11-1.64,18.43,18.43,0,0,0-3.3-1,6.69,6.69,0,0,1-2.9-1.27,2.76,2.76,0,0,1-.85-2.17,3.75,3.75,0,0,1,1.32-2.87,5.3,5.3,0,0,1,3.7-1.2,6.81,6.81,0,0,1,3.69.9,3.86,3.86,0,0,1,1.64,3.12H212.4a1.89,1.89,0,0,0-.34-1,2.17,2.17,0,0,0-1.78-.64,2.58,2.58,0,0,0-1.47.32.93.93,0,0,0-.44.75.82.82,0,0,0,.47.79,20.07,20.07,0,0,0,3.29.87,6.18,6.18,0,0,1,2.83,1.34,3.07,3.07,0,0,1,.93,2.28,3.65,3.65,0,0,1-1.34,2.92,8,8,0,0,1-8.34-.06,3.89,3.89,0,0,1-1.36-3.06Z" transform="translate(-22.5 -239.5)"/><path d="M226.89,336.71a3.39,3.39,0,0,1,1.49,1.18,3.05,3.05,0,0,1,.61,1.39,18,18,0,0,1,.11,2.34v7.09h-3.22v-7.35a3.28,3.28,0,0,0-.33-1.58,1.66,1.66,0,0,0-1.63-.84,2.22,2.22,0,0,0-1.88.84,3.84,3.84,0,0,0-.65,2.39v6.54h-3.15V332.44h3.15v5.76a3.94,3.94,0,0,1,1.59-1.47,4.56,4.56,0,0,1,1.89-.41A5.09,5.09,0,0,1,226.89,336.71Z" transform="translate(-22.5 -239.5)"/><path d="M239.94,336.88a5,5,0,0,1,2.08,1.79,5.79,5.79,0,0,1,1,2.49,15.46,15.46,0,0,1,.11,2.4H234.3a2.89,2.89,0,0,0,1.26,2.55,3.22,3.22,0,0,0,1.74.45,2.44,2.44,0,0,0,2.4-1.38h3.22a3.9,3.9,0,0,1-1.17,2.18,5.87,5.87,0,0,1-4.54,1.76,6.58,6.58,0,0,1-4.25-1.49q-1.85-1.49-1.84-4.83a6.54,6.54,0,0,1,1.66-4.81,5.85,5.85,0,0,1,4.32-1.67A7,7,0,0,1,239.94,336.88Zm-4.73,2.73a3.35,3.35,0,0,0-.84,1.87h5.44a2.65,2.65,0,0,0-.84-1.91,2.78,2.78,0,0,0-1.87-.65A2.52,2.52,0,0,0,235.21,339.61Z" transform="translate(-22.5 -239.5)"/><path d="M247.91,348.71h-3.16V332.39h3.16Z" transform="translate(-22.5 -239.5)"/><path d="M256,332.24l.66.05v2.57a7.46,7.46,0,0,0-.89-.05.91.91,0,0,0-1.1.92v1h2.07V339h-2.07v9.73h-3.13V339h-1.78v-2.23h1.73V336a4.08,4.08,0,0,1,.65-2.66c.46-.73,1.57-1.09,3.32-1.09Z" transform="translate(-22.5 -239.5)"/><path d="M158.72,259.6h-3.2v-2.91h3.2Zm-3.2,1.44h3.2v12.07h-3.2Z" transform="translate(-22.5 -239.5)"/><path d="M169,265.37a2.73,2.73,0,0,0-.45-1.22,1.91,1.91,0,0,0-1.65-.73A2.18,2.18,0,0,0,164.7,265a6.53,6.53,0,0,0-.31,2.23,6,6,0,0,0,.31,2.14,2.11,2.11,0,0,0,2.13,1.5,1.89,1.89,0,0,0,1.58-.6,2.88,2.88,0,0,0,.56-1.55h3.22a5.28,5.28,0,0,1-1,2.73,5.06,5.06,0,0,1-4.4,2.07,5.17,5.17,0,0,1-4.29-1.73,8.23,8.23,0,0,1,.15-9.31,5.29,5.29,0,0,1,4.19-1.73,6.33,6.33,0,0,1,3.72,1,4.76,4.76,0,0,1,1.71,3.6Z" transform="translate(-22.5 -239.5)"/><path d="M182.25,261.28a4.93,4.93,0,0,1,2.09,1.79,6.06,6.06,0,0,1,1,2.49,14.51,14.51,0,0,1,.1,2.4h-8.79a2.9,2.9,0,0,0,1.27,2.55,3.22,3.22,0,0,0,1.74.45,2.68,2.68,0,0,0,1.75-.55,2.82,2.82,0,0,0,.65-.83h3.22a3.9,3.9,0,0,1-1.17,2.18,5.87,5.87,0,0,1-4.54,1.76,6.56,6.56,0,0,1-4.25-1.49q-1.84-1.48-1.84-4.83a6.54,6.54,0,0,1,1.66-4.81,5.84,5.84,0,0,1,4.31-1.67A7,7,0,0,1,182.25,261.28ZM177.53,264a3.35,3.35,0,0,0-.84,1.87h5.44a2.65,2.65,0,0,0-.84-1.91,2.8,2.8,0,0,0-1.87-.65A2.52,2.52,0,0,0,177.53,264Z" transform="translate(-22.5 -239.5)"/><path d="M198.33,265.66v2.89h-12v-2.89Z" transform="translate(-22.5 -239.5)"/><path d="M210.31,271.63a6.64,6.64,0,0,1-9.28,0,7,7,0,0,1-1.53-4.54,7.05,7.05,0,0,1,1.53-4.53,6.59,6.59,0,0,1,9.28,0,7.05,7.05,0,0,1,1.53,4.53A7,7,0,0,1,210.31,271.63Zm-2.52-1.74a4.62,4.62,0,0,0,.74-2.8,4.57,4.57,0,0,0-.74-2.79,2.8,2.8,0,0,0-4.26,0,4.5,4.5,0,0,0-.75,2.79,4.55,4.55,0,0,0,.75,2.8,2.8,2.8,0,0,0,4.26,0Z" transform="translate(-22.5 -239.5)"/><path d="M221.32,265.37a2.85,2.85,0,0,0-.45-1.22,1.92,1.92,0,0,0-1.66-.73A2.2,2.2,0,0,0,217,265a6.79,6.79,0,0,0-.31,2.23,6.25,6.25,0,0,0,.31,2.14,2.12,2.12,0,0,0,2.14,1.5,1.86,1.86,0,0,0,1.57-.6,3,3,0,0,0,.57-1.55h3.22a5.28,5.28,0,0,1-1,2.73,5.07,5.07,0,0,1-4.4,2.07,5.14,5.14,0,0,1-4.29-1.73,7,7,0,0,1-1.38-4.48,7.08,7.08,0,0,1,1.52-4.83,5.29,5.29,0,0,1,4.19-1.73,6.29,6.29,0,0,1,3.72,1,4.7,4.7,0,0,1,1.71,3.6Z" transform="translate(-22.5 -239.5)"/><path d="M234.58,261.28a5,5,0,0,1,2.09,1.79,6.06,6.06,0,0,1,1,2.49,15.71,15.71,0,0,1,.1,2.4h-8.79a2.91,2.91,0,0,0,1.26,2.55,3.22,3.22,0,0,0,1.74.45,2.66,2.66,0,0,0,1.75-.55,2.53,2.53,0,0,0,.65-.83h3.23a4,4,0,0,1-1.17,2.18,5.91,5.91,0,0,1-4.55,1.76A6.6,6.6,0,0,1,227.6,272q-1.84-1.48-1.84-4.83a6.54,6.54,0,0,1,1.66-4.81,5.85,5.85,0,0,1,4.32-1.67A7,7,0,0,1,234.58,261.28ZM229.86,264a3.22,3.22,0,0,0-.84,1.87h5.43a2.58,2.58,0,0,0-.84-1.91,2.76,2.76,0,0,0-1.87-.65A2.48,2.48,0,0,0,229.86,264Z" transform="translate(-22.5 -239.5)"/><path d="M244.11,265.77a5.22,5.22,0,0,0,1.26-.28,1,1,0,0,0,.68-.9,1.06,1.06,0,0,0-.52-1,3.3,3.3,0,0,0-1.54-.28,2,2,0,0,0-1.6.55,2.36,2.36,0,0,0-.45,1.11h-3a4.57,4.57,0,0,1,.88-2.6c.84-1.07,2.28-1.6,4.32-1.6a7.63,7.63,0,0,1,3.54.79,3,3,0,0,1,1.54,3V270c0,.39,0,.85,0,1.4a1.8,1.8,0,0,0,.18.84,1.09,1.09,0,0,0,.47.36v.47h-3.43a2.8,2.8,0,0,1-.2-.69,6.32,6.32,0,0,1-.09-.73,6.64,6.64,0,0,1-1.52,1.21,4.56,4.56,0,0,1-2.31.59,4,4,0,0,1-2.73-.94,3.34,3.34,0,0,1-1.07-2.65,3.41,3.41,0,0,1,1.73-3.22,7.62,7.62,0,0,1,2.79-.78Zm1.93,1.47a2.87,2.87,0,0,1-.61.3,5.36,5.36,0,0,1-.85.22l-.72.13a4.73,4.73,0,0,0-1.45.44,1.43,1.43,0,0,0-.75,1.34,1.41,1.41,0,0,0,.46,1.16,1.72,1.72,0,0,0,1.11.36,3.33,3.33,0,0,0,1.9-.59,2.54,2.54,0,0,0,.91-2.19Z" transform="translate(-22.5 -239.5)"/><path d="M261.67,261.73a4,4,0,0,1,1.19,3.25v8.13h-3.23v-7.34a3.32,3.32,0,0,0-.26-1.46,1.77,1.77,0,0,0-1.76-.93,2.16,2.16,0,0,0-2.18,1.36,4.61,4.61,0,0,0-.31,1.84v6.53H252V261.06H255v1.76a5.22,5.22,0,0,1,1.15-1.34,3.92,3.92,0,0,1,2.45-.73A4.63,4.63,0,0,1,261.67,261.73Z" transform="translate(-22.5 -239.5)"/><path d="M275.34,259.6h-3.2v-2.91h3.2Zm-3.2,1.44h3.2v12.07h-3.2Z" transform="translate(-22.5 -239.5)"/><path d="M288.13,261.73a4,4,0,0,1,1.19,3.25v8.13h-3.24v-7.34a3.33,3.33,0,0,0-.25-1.46,1.77,1.77,0,0,0-1.76-.93,2.19,2.19,0,0,0-2.19,1.36,4.81,4.81,0,0,0-.3,1.84v6.53h-3.16V261.06h3.06v1.76a5.21,5.21,0,0,1,1.14-1.34,4,4,0,0,1,2.46-.73A4.65,4.65,0,0,1,288.13,261.73Z" transform="translate(-22.5 -239.5)"/><path d="M291,263.4v-2.25h1.68v-3.37h3.13v3.37h2v2.25h-2v6.38a1.48,1.48,0,0,0,.18.92,2.13,2.13,0,0,0,1.16.18h.3l.32,0v2.36l-1.5.06a4,4,0,0,1-3.06-.78,2.32,2.32,0,0,1-.53-1.67V263.4Z" transform="translate(-22.5 -239.5)"/><path d="M307.67,261.28a4.91,4.91,0,0,1,2.08,1.79,5.94,5.94,0,0,1,1,2.49,15.71,15.71,0,0,1,.1,2.4H302a2.91,2.91,0,0,0,1.26,2.55A3.22,3.22,0,0,0,305,271a2.66,2.66,0,0,0,1.75-.55,2.53,2.53,0,0,0,.65-.83h3.23a4,4,0,0,1-1.17,2.18,5.91,5.91,0,0,1-4.55,1.76,6.6,6.6,0,0,1-4.25-1.49q-1.85-1.48-1.84-4.83a6.54,6.54,0,0,1,1.66-4.81,5.85,5.85,0,0,1,4.32-1.67A7,7,0,0,1,307.67,261.28ZM303,264a3.22,3.22,0,0,0-.84,1.87h5.43a2.58,2.58,0,0,0-.84-1.91,2.76,2.76,0,0,0-1.87-.65A2.48,2.48,0,0,0,303,264Z" transform="translate(-22.5 -239.5)"/><path d="M319.12,260.76h.27V264c-.2,0-.37,0-.53-.05h-.37a2.6,2.6,0,0,0-2.56,1.24,4.74,4.74,0,0,0-.37,2.15v5.77h-3.18V261h3v2.1a6.73,6.73,0,0,1,1.27-1.65,3.49,3.49,0,0,1,2.3-.74Z" transform="translate(-22.5 -239.5)"/><path d="M326,265.77a5.22,5.22,0,0,0,1.26-.28.94.94,0,0,0,.68-.9,1.06,1.06,0,0,0-.52-1,3.29,3.29,0,0,0-1.53-.28,2,2,0,0,0-1.61.55,2.26,2.26,0,0,0-.44,1.11h-3.05a4.57,4.57,0,0,1,.89-2.6c.84-1.07,2.28-1.6,4.32-1.6a7.61,7.61,0,0,1,3.53.79,3,3,0,0,1,1.55,3V270c0,.39,0,.85,0,1.4a1.78,1.78,0,0,0,.19.84,1.06,1.06,0,0,0,.46.36v.47h-3.43a4.06,4.06,0,0,1-.2-.69c0-.21-.06-.45-.09-.73a6.38,6.38,0,0,1-1.51,1.21,4.6,4.6,0,0,1-2.32.59,4,4,0,0,1-2.72-.94,3.32,3.32,0,0,1-1.08-2.65,3.43,3.43,0,0,1,1.73-3.22,7.62,7.62,0,0,1,2.79-.78Zm1.93,1.47a2.65,2.65,0,0,1-.61.3,5.09,5.09,0,0,1-.85.22l-.71.13a4.81,4.81,0,0,0-1.46.44,1.44,1.44,0,0,0-.74,1.34,1.4,1.4,0,0,0,.45,1.16,1.76,1.76,0,0,0,1.11.36,3.36,3.36,0,0,0,1.91-.59,2.54,2.54,0,0,0,.9-2.19Z" transform="translate(-22.5 -239.5)"/><path d="M341.08,265.37a2.74,2.74,0,0,0-.46-1.22,1.9,1.9,0,0,0-1.65-.73,2.18,2.18,0,0,0-2.19,1.58,6.53,6.53,0,0,0-.31,2.23,6,6,0,0,0,.31,2.14,2.11,2.11,0,0,0,2.13,1.5,1.89,1.89,0,0,0,1.58-.6,2.88,2.88,0,0,0,.56-1.55h3.23a5.36,5.36,0,0,1-1,2.73,5.08,5.08,0,0,1-4.41,2.07,5.17,5.17,0,0,1-4.29-1.73,7,7,0,0,1-1.37-4.48,7.08,7.08,0,0,1,1.52-4.83,5.29,5.29,0,0,1,4.19-1.73,6.33,6.33,0,0,1,3.72,1,4.76,4.76,0,0,1,1.71,3.6Z" transform="translate(-22.5 -239.5)"/><path d="M345.23,263.4v-2.25h1.68v-3.37H350v3.37h2v2.25h-2v6.38a1.48,1.48,0,0,0,.18.92,2.13,2.13,0,0,0,1.16.18h.3l.32,0v2.36l-1.5.06a4,4,0,0,1-3.06-.78,2.32,2.32,0,0,1-.53-1.67V263.4Z" transform="translate(-22.5 -239.5)"/><path d="M357.27,259.6h-3.2v-2.91h3.2Zm-3.2,1.44h3.2v12.07h-3.2Z" transform="translate(-22.5 -239.5)"/><path d="M370.39,271.63a6.64,6.64,0,0,1-9.28,0,7,7,0,0,1-1.53-4.54,7.05,7.05,0,0,1,1.53-4.53,6.59,6.59,0,0,1,9.28,0,7.05,7.05,0,0,1,1.53,4.53A7,7,0,0,1,370.39,271.63Zm-2.52-1.74a4.62,4.62,0,0,0,.74-2.8,4.57,4.57,0,0,0-.74-2.79,2.8,2.8,0,0,0-4.26,0,4.5,4.5,0,0,0-.75,2.79,4.55,4.55,0,0,0,.75,2.8,2.8,2.8,0,0,0,4.26,0Z" transform="translate(-22.5 -239.5)"/><path d="M383.91,261.73A4,4,0,0,1,385.1,265v8.13h-3.24v-7.34a3.33,3.33,0,0,0-.25-1.46,1.77,1.77,0,0,0-1.76-.93,2.19,2.19,0,0,0-2.19,1.36,4.81,4.81,0,0,0-.3,1.84v6.53H374.2V261.06h3.06v1.76a5.21,5.21,0,0,1,1.14-1.34,4,4,0,0,1,2.46-.73A4.65,4.65,0,0,1,383.91,261.73Z" transform="translate(-22.5 -239.5)"/><path d="M45.3,326.66H42.14V310.34H45.3Z" transform="translate(-22.5 -239.5)"/><path d="M53.16,319.32a5.47,5.47,0,0,0,1.26-.28,1,1,0,0,0,.68-.9,1.06,1.06,0,0,0-.53-1,3.23,3.23,0,0,0-1.53-.28,2,2,0,0,0-1.6.55A2.17,2.17,0,0,0,51,318.5H47.94a4.65,4.65,0,0,1,.89-2.6c.84-1.07,2.28-1.6,4.32-1.6a7.61,7.61,0,0,1,3.53.79,3,3,0,0,1,1.55,3v5.54c0,.39,0,.85,0,1.4a1.78,1.78,0,0,0,.19.84,1,1,0,0,0,.47.36v.47H55.47a4.06,4.06,0,0,1-.2-.69c0-.21-.06-.45-.08-.73a6.64,6.64,0,0,1-1.52,1.21,4.6,4.6,0,0,1-2.32.59,4,4,0,0,1-2.72-.94,3.32,3.32,0,0,1-1.08-2.65,3.43,3.43,0,0,1,1.73-3.22,7.55,7.55,0,0,1,2.79-.78Zm1.92,1.47a2.65,2.65,0,0,1-.61.3,5.2,5.2,0,0,1-.84.22l-.72.13a4.63,4.63,0,0,0-1.45.44,1.43,1.43,0,0,0-.75,1.34,1.38,1.38,0,0,0,.46,1.16,1.71,1.71,0,0,0,1.1.36,3.36,3.36,0,0,0,1.91-.59,2.54,2.54,0,0,0,.9-2.19Z" transform="translate(-22.5 -239.5)"/><path d="M61.46,329l.4,0a5.16,5.16,0,0,0,.89,0,1.54,1.54,0,0,0,.71-.25,1.78,1.78,0,0,0,.51-.79,2,2,0,0,0,.21-.73l-4.44-12.6h3.51l2.64,8.9,2.49-8.9h3.35L67.6,326.46a16.89,16.89,0,0,1-1.9,4.26,3.62,3.62,0,0,1-2.8.82h-.67l-.77,0Z" transform="translate(-22.5 -239.5)"/><path d="M81.47,314.83a5,5,0,0,1,2.08,1.79,5.79,5.79,0,0,1,1,2.49,15.46,15.46,0,0,1,.11,2.4H75.83a2.91,2.91,0,0,0,1.26,2.55,3.22,3.22,0,0,0,1.74.45,2.44,2.44,0,0,0,2.4-1.38h3.22a3.9,3.9,0,0,1-1.17,2.18,5.87,5.87,0,0,1-4.54,1.76,6.6,6.6,0,0,1-4.25-1.49q-1.84-1.49-1.84-4.83a6.54,6.54,0,0,1,1.66-4.81,5.85,5.85,0,0,1,4.32-1.67A7,7,0,0,1,81.47,314.83Zm-4.72,2.73a3.29,3.29,0,0,0-.85,1.87h5.44a2.65,2.65,0,0,0-.84-1.91,2.78,2.78,0,0,0-1.87-.65A2.48,2.48,0,0,0,76.75,317.56Z" transform="translate(-22.5 -239.5)"/><path d="M92.92,314.31h.27v3.24c-.2,0-.38,0-.53-.05h-.38a2.59,2.59,0,0,0-2.55,1.24,4.74,4.74,0,0,0-.37,2.15v5.77H86.18V314.59h3v2.1A7,7,0,0,1,90.47,315a3.49,3.49,0,0,1,2.3-.74Z" transform="translate(-22.5 -239.5)"/><path d="M101.31,310.39h3.1v8.81l4-4.56h3.92l-4.32,4.5,4.49,7.52h-3.84l-2.92-5.16-1.31,1.36v3.8h-3.1Z" transform="translate(-22.5 -239.5)"/><path d="M45.3,414.86H42.14V398.54H45.3Z" transform="translate(-22.5 -239.5)"/><path d="M53.16,407.52a5.47,5.47,0,0,0,1.26-.28,1,1,0,0,0,.68-.9,1.06,1.06,0,0,0-.53-1A3.23,3.23,0,0,0,53,405a2,2,0,0,0-1.6.55A2.17,2.17,0,0,0,51,406.7H47.94a4.65,4.65,0,0,1,.89-2.6c.84-1.07,2.28-1.6,4.32-1.6a7.61,7.61,0,0,1,3.53.79,3,3,0,0,1,1.55,3v5.54c0,.39,0,.85,0,1.4a1.78,1.78,0,0,0,.19.84,1,1,0,0,0,.47.36v.47H55.47a4.06,4.06,0,0,1-.2-.69c0-.21-.06-.46-.08-.73a6.64,6.64,0,0,1-1.52,1.21,4.6,4.6,0,0,1-2.32.59,4,4,0,0,1-2.72-.94,3.32,3.32,0,0,1-1.08-2.65,3.45,3.45,0,0,1,1.73-3.23,7.76,7.76,0,0,1,2.79-.77ZM55.08,409a2.65,2.65,0,0,1-.61.3,5.2,5.2,0,0,1-.84.22l-.72.13a4.63,4.63,0,0,0-1.45.44,1.43,1.43,0,0,0-.75,1.34,1.38,1.38,0,0,0,.46,1.16,1.71,1.71,0,0,0,1.1.36,3.36,3.36,0,0,0,1.91-.59,2.54,2.54,0,0,0,.9-2.19Z" transform="translate(-22.5 -239.5)"/><path d="M61.46,417.17l.4,0a5.16,5.16,0,0,0,.89,0,1.54,1.54,0,0,0,.71-.25,1.78,1.78,0,0,0,.51-.79,2,2,0,0,0,.21-.73l-4.44-12.6h3.51l2.64,8.9,2.49-8.9h3.35L67.6,414.66a16.89,16.89,0,0,1-1.9,4.26,3.62,3.62,0,0,1-2.8.82h-.67l-.77,0Z" transform="translate(-22.5 -239.5)"/><path d="M81.47,403a5,5,0,0,1,2.08,1.79,5.79,5.79,0,0,1,1,2.49,15.46,15.46,0,0,1,.11,2.4H75.83a2.91,2.91,0,0,0,1.26,2.55,3.22,3.22,0,0,0,1.74.45,2.44,2.44,0,0,0,2.4-1.38h3.22a3.9,3.9,0,0,1-1.17,2.18,5.87,5.87,0,0,1-4.54,1.76,6.6,6.6,0,0,1-4.25-1.49q-1.84-1.48-1.84-4.83a6.54,6.54,0,0,1,1.66-4.81,5.85,5.85,0,0,1,4.32-1.67A7,7,0,0,1,81.47,403Zm-4.72,2.73a3.29,3.29,0,0,0-.85,1.87h5.44a2.65,2.65,0,0,0-.84-1.91,2.78,2.78,0,0,0-1.87-.65A2.48,2.48,0,0,0,76.75,405.76Z" transform="translate(-22.5 -239.5)"/><path d="M92.92,402.51h.27v3.24c-.2,0-.38,0-.53-.05h-.38a2.59,2.59,0,0,0-2.55,1.24,4.74,4.74,0,0,0-.37,2.15v5.77H86.18V402.79h3v2.1a7,7,0,0,1,1.28-1.65,3.49,3.49,0,0,1,2.3-.74Z" transform="translate(-22.5 -239.5)"/><path d="M101.31,398.59h3.1v8.81l4-4.56h3.92l-4.32,4.5,4.49,7.52h-3.84l-2.92-5.16-1.31,1.36v3.8h-3.1Z" transform="translate(-22.5 -239.5)"/><path d="M113.29,410.3v-2.89h4.54v-4.54h2.91v4.54h4.54v2.89h-4.54v4.56h-2.91V410.3Z" transform="translate(-22.5 -239.5)"/><path d="M127.3,403.79v-2.15a14.66,14.66,0,0,0,2.09-.2,2.91,2.91,0,0,0,1.54-.84,2.74,2.74,0,0,0,.62-1.16,2.6,2.6,0,0,0,.12-.64h2.64v16.06h-3.23V403.79Z" transform="translate(-22.5 -239.5)"/><path d="M191.13,397.11h1.55v4.95h4.95v1.55h-4.95v4.95h-1.55v-4.95h-4.95v-1.55h4.95Z" transform="translate(-22.5 -239.5)"/><path d="M241.52,397.11h1.55v4.95h5v1.55h-5v4.95h-1.55v-4.95h-5v-1.55h5Z" transform="translate(-22.5 -239.5)"/><path d="M291.91,397.11h1.55v4.95h5v1.55h-5v4.95h-1.55v-4.95h-5v-1.55h5Z" transform="translate(-22.5 -239.5)"/><path d="M191.13,397.11h1.55v4.95h4.95v1.55h-4.95v4.95h-1.55v-4.95h-4.95v-1.55h4.95Z" transform="translate(-22.5 -239.5)"/><path d="M342.33,397.11h1.55v4.95h4.95v1.55h-4.95v4.95h-1.55v-4.95h-4.95v-1.55h4.95Z" transform="translate(-22.5 -239.5)"/><path d="M300.2,378.22a4.18,4.18,0,0,1,.75,2.5,3.62,3.62,0,0,1-.76,2.4,3.82,3.82,0,0,1-1.24.93,3.65,3.65,0,0,1,1.89,1.44,4.34,4.34,0,0,1,.63,2.39,4.7,4.7,0,0,1-.73,2.6,4.45,4.45,0,0,1-1.15,1.29,4.52,4.52,0,0,1-1.85.82,11,11,0,0,1-2.3.22h-7.36V376.49H296C298,376.52,299.37,377.1,300.2,378.22Zm-8.86,1.1v3.6h4a3.27,3.27,0,0,0,1.72-.4,1.56,1.56,0,0,0,.67-1.44,1.46,1.46,0,0,0-.88-1.5,6.17,6.17,0,0,0-1.93-.26Zm0,6.3V390h4a3.86,3.86,0,0,0,1.65-.28,2.06,2.06,0,0,0,1.08-2,1.76,1.76,0,0,0-1-1.75,4.12,4.12,0,0,0-1.63-.28Z" transform="translate(-22.5 -239.5)"/><path d="M431.8,339.11H419.74L425.53,325H426Zm-10.57-.94h7.83l-3.9-9.64Z" transform="translate(-22.5 -239.5)"/><path d="M440.12,330.37,434,337.58a4.68,4.68,0,0,1,1,.32,3.31,3.31,0,0,1,1.16,1l.63.82a1.9,1.9,0,0,0,.52.5,1.08,1.08,0,0,0,.64.2.77.77,0,0,0,.42-.1.3.3,0,0,0,.17-.24,1.31,1.31,0,0,0-.15-.37,1.4,1.4,0,0,1-.14-.57.59.59,0,0,1,.22-.49.8.8,0,0,1,.49-.16.65.65,0,0,1,.56.23.92.92,0,0,1,.19.6,1.4,1.4,0,0,1-.58,1,2.11,2.11,0,0,1-1.41.49,2.62,2.62,0,0,1-.92-.16c-.18-.07-.39-.18-.64-.31l-1.24-.7a9.34,9.34,0,0,0-1-.48,2.17,2.17,0,0,0-.79-.15,1.17,1.17,0,0,0-.45.08,4,4,0,0,0-.47.31l-.22-.2,6.53-7.82h-3.06a1.81,1.81,0,0,0-1.05.25,2.19,2.19,0,0,0-.65,1l-.34-.08.66-2.43h6Z" transform="translate(-22.5 -239.5)"/><path d="M440.49,346.11l2-7.26s0-.07,0-.1a.34.34,0,0,0,0-.1c0-.18,0-.29-.15-.32a2.15,2.15,0,0,0-.66,0v-.2l.66-.09.5-.07.41-.09.4-.08v.06l-1.61,5.61c.9-.71,1.51-1.21,1.83-1.49s.48-.5.48-.65a.17.17,0,0,0-.13-.18,3.37,3.37,0,0,0-.55-.05v-.2H446v.2a1.54,1.54,0,0,0-.82.29c-.25.18-.87.69-1.85,1.54.52,1.29.85,2.06,1,2.33s.27.39.4.39.24-.08.37-.25a6,6,0,0,0,.36-.59l.18.13a5.3,5.3,0,0,1-.66,1,.87.87,0,0,1-.67.33.62.62,0,0,1-.44-.2,3.6,3.6,0,0,1-.54-.92c-.09-.19-.19-.43-.31-.71s-.24-.61-.37-1l-.63.46-.55,2.19Z" transform="translate(-22.5 -239.5)"/><path d="M448.55,325.36l1.07-.15.71-.1,1.32-.26.14,0c.08,0,.13.09.13.15l-2.55,9.16a24.79,24.79,0,0,1,2.09-2.79,3.84,3.84,0,0,1,2.59-1.52,1.61,1.61,0,0,1,.94.32,1.26,1.26,0,0,1,.45,1.12,3.64,3.64,0,0,1-.05.5,4.31,4.31,0,0,1-.13.54l-1.36,4.92c0,.13-.07.26-.1.39a1.48,1.48,0,0,0,0,.34.41.41,0,0,0,.08.27.36.36,0,0,0,.24.08,1.16,1.16,0,0,0,.75-.44c.17-.18.51-.59,1-1.21l.27.25a11.05,11.05,0,0,1-1.22,1.56,2.61,2.61,0,0,1-1.79.87,1,1,0,0,1-.69-.26,1,1,0,0,1-.28-.74,2,2,0,0,1,0-.25,1.58,1.58,0,0,1,.06-.26l1.54-6a.85.85,0,0,0,0-.17,1.09,1.09,0,0,0,0-.18.54.54,0,0,0-.15-.4.64.64,0,0,0-.42-.14,2.82,2.82,0,0,0-1.72,1.1,14.59,14.59,0,0,0-1.75,2.25,7.59,7.59,0,0,0-.74,1.53c-.17.48-.49,1.58-1,3.3h-1.59l3.44-12.44a1,1,0,0,0,0-.22,1.09,1.09,0,0,0,0-.18c0-.29-.09-.47-.28-.52a3.63,3.63,0,0,0-1.1-.05Z" transform="translate(-22.5 -239.5)"/><path d="M456.73,346.11l2-7.26s0-.07,0-.1,0-.07,0-.1,0-.29-.15-.32a2.15,2.15,0,0,0-.66,0v-.2l.66-.09.5-.07.41-.09.4-.08v.06l-1.61,5.61c.9-.71,1.51-1.21,1.83-1.49s.48-.5.48-.65a.17.17,0,0,0-.13-.18,3.37,3.37,0,0,0-.55-.05v-.2h2.24v.2a1.54,1.54,0,0,0-.82.29c-.25.18-.87.69-1.85,1.54.52,1.29.85,2.06,1,2.33s.27.39.4.39a.47.47,0,0,0,.36-.25,4.27,4.27,0,0,0,.37-.59l.18.13a5.3,5.3,0,0,1-.66,1,.87.87,0,0,1-.67.33.66.66,0,0,1-.45-.2,4,4,0,0,1-.53-.92c-.09-.19-.19-.43-.31-.71s-.24-.61-.37-1l-.63.46-.55,2.19Z" transform="translate(-22.5 -239.5)"/><path d="M430.8,383.78H418.74l5.79-14.11H425Zm-10.57-.94h7.83l-3.9-9.64Z" transform="translate(-22.5 -239.5)"/><path d="M439.12,375,433,382.25a4.68,4.68,0,0,1,1,.32,3.31,3.31,0,0,1,1.16,1l.63.82a2.06,2.06,0,0,0,.52.5,1.15,1.15,0,0,0,.64.2.77.77,0,0,0,.42-.1.3.3,0,0,0,.17-.24,1.32,1.32,0,0,0-.15-.38,1.4,1.4,0,0,1-.14-.56.57.57,0,0,1,.22-.49.81.81,0,0,1,.49-.17.66.66,0,0,1,.56.24.89.89,0,0,1,.19.59,1.42,1.42,0,0,1-.58,1.05,2.11,2.11,0,0,1-1.41.49,2.42,2.42,0,0,1-.92-.17,5.15,5.15,0,0,1-.64-.31l-1.24-.69a7.71,7.71,0,0,0-1-.48,2.17,2.17,0,0,0-.79-.15,1,1,0,0,0-.45.08,3,3,0,0,0-.47.31l-.22-.2,6.53-7.82h-3.06a1.9,1.9,0,0,0-1.05.24,2.29,2.29,0,0,0-.65,1l-.34-.08.66-2.43h6Z" transform="translate(-22.5 -239.5)"/><path d="M439.49,390.77l2-7.25s0-.07,0-.1a.41.41,0,0,0,0-.11c0-.17,0-.28-.15-.31a2.39,2.39,0,0,0-.66-.05v-.19l.66-.09.5-.08.41-.09.4-.07v.06l-1.61,5.6c.9-.7,1.51-1.2,1.83-1.49s.48-.49.48-.64a.17.17,0,0,0-.13-.18,3.37,3.37,0,0,0-.55,0v-.2H445v.2a1.46,1.46,0,0,0-.82.29c-.25.17-.87.69-1.85,1.53.52,1.29.85,2.07,1,2.33s.27.4.4.4.24-.09.37-.25.2-.31.36-.59l.18.13a5.65,5.65,0,0,1-.66,1,.87.87,0,0,1-.67.33.62.62,0,0,1-.44-.2,3.54,3.54,0,0,1-.54-.93c-.09-.18-.19-.42-.31-.7s-.24-.61-.37-1l-.63.46-.55,2.18Z" transform="translate(-22.5 -239.5)"/><path d="M448.77,372.24a10.47,10.47,0,0,1,3.1-2.65l.19.34a9.24,9.24,0,0,0-2.36,2.55,11.5,11.5,0,0,0-1.24,5.76,17.29,17.29,0,0,0,.47,4.4,7.61,7.61,0,0,0,3.13,4.54l-.27.34a8.59,8.59,0,0,1-2.72-2.37,10.08,10.08,0,0,1-2.43-6.64A9.83,9.83,0,0,1,448.77,372.24Z" transform="translate(-22.5 -239.5)"/><path d="M459.45,369.77a.84.84,0,0,1,0,.12v12.34c0,.53.14.86.42,1a4.42,4.42,0,0,0,1.58.25v.29h-5.8v-.31a3.29,3.29,0,0,0,1.62-.34c.25-.18.38-.58.38-1.2v-9.49a1.83,1.83,0,0,0-.12-.75.54.54,0,0,0-.54-.26,2.27,2.27,0,0,0-.69.15c-.28.1-.55.21-.79.32v-.29l3.76-1.92h.12A.15.15,0,0,1,459.45,369.77Z" transform="translate(-22.5 -239.5)"/><path d="M470.25,378.44h4.62l-.3,1.31H470Z" transform="translate(-22.5 -239.5)"/><path d="M483.67,370l1.08-.15.71-.11,1.31-.25a.44.44,0,0,1,.15,0q.12.06.12.15l-2.54,9.16a23.18,23.18,0,0,1,2.08-2.79,3.86,3.86,0,0,1,2.6-1.52,1.6,1.6,0,0,1,.93.31,1.29,1.29,0,0,1,.45,1.13,4,4,0,0,1-.05.5,3.61,3.61,0,0,1-.12.54L489,381.89c0,.14-.08.27-.11.4a2.23,2.23,0,0,0,0,.34.34.34,0,0,0,.09.26.29.29,0,0,0,.23.09,1.2,1.2,0,0,0,.75-.44c.18-.19.51-.59,1-1.21l.26.24a9.41,9.41,0,0,1-1.22,1.56,2.59,2.59,0,0,1-1.79.87,1,1,0,0,1-.69-.25,1,1,0,0,1-.27-.74,2,2,0,0,1,0-.25,1.38,1.38,0,0,1,.06-.26l1.55-6,0-.17a1.1,1.1,0,0,0,0-.18.51.51,0,0,0-.16-.4.55.55,0,0,0-.41-.14c-.46,0-1,.36-1.73,1.1a14.26,14.26,0,0,0-1.75,2.25,8.16,8.16,0,0,0-.74,1.53q-.25.72-1,3.3h-1.6L485,371.34c0-.09,0-.16,0-.22a1.15,1.15,0,0,0,0-.18c0-.29-.1-.47-.29-.53a4.13,4.13,0,0,0-1.1,0Z" transform="translate(-22.5 -239.5)"/><path d="M491.85,390.77l2-7.25a.36.36,0,0,0,0-.1.41.41,0,0,0,0-.11c0-.17-.05-.28-.15-.31a2.35,2.35,0,0,0-.66-.05v-.19l.67-.09.49-.08.42-.09.39-.07,0,.06-1.62,5.6c.9-.7,1.52-1.2,1.84-1.49s.47-.49.47-.64a.17.17,0,0,0-.13-.18,3.23,3.23,0,0,0-.55,0v-.2h2.24v.2a1.48,1.48,0,0,0-.82.29c-.25.17-.87.69-1.85,1.53.53,1.29.85,2.07,1,2.33s.26.4.39.4.24-.09.37-.25.2-.31.36-.59l.19.13a5.11,5.11,0,0,1-.67,1,.86.86,0,0,1-.67.33.62.62,0,0,1-.44-.2,3.6,3.6,0,0,1-.53-.93c-.09-.18-.2-.42-.32-.7s-.24-.61-.37-1l-.63.46-.55,2.18Z" transform="translate(-22.5 -239.5)"/><path d="M503.31,381.5a10,10,0,0,1-3.33,5,8.63,8.63,0,0,1-1.5,1l-.2-.34a8.58,8.58,0,0,0,2.31-2.45,11.55,11.55,0,0,0,1.29-5.85,16.4,16.4,0,0,0-.59-4.81,7.7,7.7,0,0,0-3-4.14l.27-.34a9.9,9.9,0,0,1,3,2.73,10.11,10.11,0,0,1,2.15,6.29A10.46,10.46,0,0,1,503.31,381.5Z" transform="translate(-22.5 -239.5)"/><path d="M428.13,437.45H416.08l5.79-14.11h.46Zm-10.57-.95h7.84l-3.91-9.64Z" transform="translate(-22.5 -239.5)"/><path d="M436.45,428.7l-6.08,7.22a4.06,4.06,0,0,1,1,.32,3.13,3.13,0,0,1,1.16,1l.63.82a2.2,2.2,0,0,0,.52.49,1.1,1.1,0,0,0,.65.21.87.87,0,0,0,.42-.1.29.29,0,0,0,.16-.25,1.51,1.51,0,0,0-.14-.37,1.28,1.28,0,0,1-.15-.57.56.56,0,0,1,.23-.48.76.76,0,0,1,.48-.17.69.69,0,0,1,.57.24.92.92,0,0,1,.18.59,1.39,1.39,0,0,1-.58,1.05,2.16,2.16,0,0,1-1.41.49,2.67,2.67,0,0,1-.92-.17,5.15,5.15,0,0,1-.64-.31l-1.24-.69a7.37,7.37,0,0,0-1-.49,2.12,2.12,0,0,0-.78-.15,1,1,0,0,0-.45.09,2.46,2.46,0,0,0-.48.3l-.22-.19,6.54-7.83h-3.06a1.9,1.9,0,0,0-1.06.25,2.23,2.23,0,0,0-.65,1l-.34-.09.66-2.43h6Z" transform="translate(-22.5 -239.5)"/><path d="M436.82,444.44l2-7.25a.43.43,0,0,0,0-.11.34.34,0,0,0,0-.1c0-.18-.05-.28-.15-.32a2.49,2.49,0,0,0-.66,0v-.2l.67-.08.49-.08.42-.09.39-.08,0,.06-1.62,5.61c.9-.71,1.52-1.2,1.83-1.49s.48-.5.48-.64a.16.16,0,0,0-.13-.18,3,3,0,0,0-.55-.06v-.19h2.24v.19a1.66,1.66,0,0,0-.82.29c-.25.18-.87.69-1.85,1.54.53,1.29.85,2.07,1,2.33s.26.39.39.39.24-.08.37-.25.2-.3.36-.58l.19.12a5.24,5.24,0,0,1-.67,1,.88.88,0,0,1-.67.32.58.58,0,0,1-.44-.2,3.67,3.67,0,0,1-.53-.92c-.09-.19-.2-.42-.32-.71s-.24-.6-.37-1l-.63.46-.55,2.19Z" transform="translate(-22.5 -239.5)"/><path d="M446,438.26h.84v2.67h2.67v.84h-2.67v2.67H446v-2.67h-2.67v-.84H446Z" transform="translate(-22.5 -239.5)"/><path d="M453.56,436.27v7.27c0,.3.08.5.25.58a2.22,2.22,0,0,0,.92.15v.17h-3.38v-.18a1.86,1.86,0,0,0,.94-.2c.15-.1.23-.34.23-.7v-5.53a1,1,0,0,0-.08-.44c0-.1-.15-.15-.31-.15a1.22,1.22,0,0,0-.4.09l-.46.18v-.17l2.19-1.11h.07Z" transform="translate(-22.5 -239.5)"/><path d="M460.4,432.1H465l-.3,1.32h-4.61Z" transform="translate(-22.5 -239.5)"/><path d="M483.83,437.45H471.78l5.79-14.11H478Zm-10.57-.95h7.84l-3.91-9.64Z" transform="translate(-22.5 -239.5)"/><path d="M492.15,428.7l-6.08,7.22a4.06,4.06,0,0,1,1,.32,3.13,3.13,0,0,1,1.16,1l.63.82a2.2,2.2,0,0,0,.52.49,1.12,1.12,0,0,0,.65.21.87.87,0,0,0,.42-.1.29.29,0,0,0,.16-.25,1.51,1.51,0,0,0-.14-.37,1.26,1.26,0,0,1-.14-.57.55.55,0,0,1,.22-.48.76.76,0,0,1,.48-.17.68.68,0,0,1,.57.24.92.92,0,0,1,.18.59,1.39,1.39,0,0,1-.58,1.05,2.12,2.12,0,0,1-1.41.49,2.67,2.67,0,0,1-.92-.17,5.15,5.15,0,0,1-.64-.31L487,438a7.37,7.37,0,0,0-1-.49,2.08,2.08,0,0,0-.78-.15,1,1,0,0,0-.45.09,2.18,2.18,0,0,0-.47.3l-.23-.19,6.54-7.83h-3.06a1.85,1.85,0,0,0-1.05.25,2.15,2.15,0,0,0-.66,1l-.33-.09.65-2.43h6Z" transform="translate(-22.5 -239.5)"/><path d="M492.52,444.44l2-7.25a.43.43,0,0,0,0-.11.34.34,0,0,0,0-.1c0-.18-.05-.28-.15-.32a2.45,2.45,0,0,0-.65,0v-.2l.66-.08.49-.08.42-.09.4-.08v.06l-1.62,5.61c.91-.71,1.52-1.2,1.84-1.49s.47-.5.47-.64a.16.16,0,0,0-.12-.18,3.16,3.16,0,0,0-.56-.06v-.19H498v.19a1.66,1.66,0,0,0-.82.29c-.25.18-.86.69-1.84,1.54.52,1.29.85,2.07,1,2.33s.26.39.4.39.23-.08.36-.25a5,5,0,0,0,.36-.58l.19.12a5.24,5.24,0,0,1-.67,1,.87.87,0,0,1-.66.32.59.59,0,0,1-.45-.2,3.67,3.67,0,0,1-.53-.92c-.09-.19-.2-.42-.31-.71s-.25-.6-.38-1l-.63.46-.55,2.19Z" transform="translate(-22.5 -239.5)"/><path d="M500.28,423.7l1.07-.15.71-.11,1.31-.26.15,0a.18.18,0,0,1,.12.16l-2.54,9.15a25,25,0,0,1,2.08-2.79,3.86,3.86,0,0,1,2.6-1.51,1.62,1.62,0,0,1,.94.31,1.27,1.27,0,0,1,.45,1.12,3.64,3.64,0,0,1-.05.5,5,5,0,0,1-.13.55l-1.36,4.91c0,.14-.07.27-.1.39a1.56,1.56,0,0,0,0,.35.4.4,0,0,0,.08.26.3.3,0,0,0,.24.09,1.16,1.16,0,0,0,.74-.44c.18-.19.51-.59,1-1.21l.27.24a11.05,11.05,0,0,1-1.22,1.56,2.61,2.61,0,0,1-1.8.87.91.91,0,0,1-1-1,1.81,1.81,0,0,1,0-.25c0-.08,0-.17.05-.27l1.55-6c0-.06,0-.12,0-.17a1.09,1.09,0,0,0,0-.18.52.52,0,0,0-.15-.4.6.6,0,0,0-.42-.15c-.45,0-1,.37-1.72,1.11a14.34,14.34,0,0,0-1.76,2.25,8.31,8.31,0,0,0-.73,1.52c-.17.48-.49,1.58-1,3.31h-1.59L501.61,425a1.24,1.24,0,0,0,0-.23,1,1,0,0,0,0-.17c0-.3-.09-.47-.28-.53a4,4,0,0,0-1.1-.05Z" transform="translate(-22.5 -239.5)"/><path d="M508.46,444.44l2-7.25a.43.43,0,0,1,0-.11s0-.07,0-.1c0-.18-.05-.28-.16-.32a2.45,2.45,0,0,0-.65,0v-.2l.66-.08.5-.08.41-.09.4-.08v.06l-1.62,5.61c.91-.71,1.52-1.2,1.84-1.49s.48-.5.48-.64a.16.16,0,0,0-.13-.18,3.13,3.13,0,0,0-.55-.06v-.19h2.24v.19a1.62,1.62,0,0,0-.82.29c-.25.18-.87.69-1.85,1.54.52,1.29.85,2.07,1,2.33s.26.39.4.39a.49.49,0,0,0,.36-.25,4.68,4.68,0,0,0,.37-.58l.18.12a5.8,5.8,0,0,1-.66,1,.89.89,0,0,1-.67.32.6.6,0,0,1-.45-.2,3.67,3.67,0,0,1-.53-.92c-.09-.19-.19-.42-.31-.71s-.24-.6-.37-1l-.63.46-.55,2.19Z" transform="translate(-22.5 -239.5)"/><rect class="cls-19" width="513" height="305"/></svg>