<?xml version="1.0" encoding="UTF-8" standalone="no"?>
<svg
   xmlns:dc="http://purl.org/dc/elements/1.1/"
   xmlns:cc="http://creativecommons.org/ns#"
   xmlns:rdf="http://www.w3.org/1999/02/22-rdf-syntax-ns#"
   xmlns:svg="http://www.w3.org/2000/svg"
   xmlns="http://www.w3.org/2000/svg"
   viewBox="0 0 781.40002 732.23999"
   height="732.23999"
   width="781.40002"
   xml:space="preserve"
   id="svg2"
   version="1.1"><metadata
     id="metadata8"><rdf:RDF><cc:Work
         rdf:about=""><dc:format>image/svg+xml</dc:format><dc:type
           rdf:resource="http://purl.org/dc/dcmitype/StillImage" /></cc:Work></rdf:RDF></metadata><defs
     id="defs6" /><g
     transform="matrix(1.3333333,0,0,-1.3333333,0,732.24)"
     id="g10"><g
       transform="scale(0.1)"
       id="g12"><path
         id="path14"
         style="fill:#ffffff;fill-opacity:1;fill-rule:nonzero;stroke:none"
         d="m 1677.72,4117.82 h -655.21 v 636.56 h 655.21 v -636.56" /><path
         id="path16"
         style="fill:none;stroke:#231f20;stroke-width:20;stroke-linecap:butt;stroke-linejoin:miter;stroke-miterlimit:10;stroke-dasharray:none;stroke-opacity:1"
         d="m 1677.72,4117.82 h -655.21 v 636.56 h 655.21 z" /><path
         id="path18"
         style="fill:#ffffff;fill-opacity:1;fill-rule:nonzero;stroke:none"
         d="m 2327.67,4117.82 h -655.19 v 636.56 h 655.19 v -636.56" /><path
         id="path20"
         style="fill:none;stroke:#231f20;stroke-width:20;stroke-linecap:butt;stroke-linejoin:miter;stroke-miterlimit:10;stroke-dasharray:none;stroke-opacity:1"
         d="m 2327.67,4117.82 h -655.19 v 636.56 h 655.19 z" /><path
         id="path22"
         style="fill:#ffffff;fill-opacity:1;fill-rule:nonzero;stroke:none"
         d="m 1681.65,3486.16 h -655.22 v 636.56 h 655.22 v -636.56" /><path
         id="path24"
         style="fill:none;stroke:#231f20;stroke-width:20;stroke-linecap:butt;stroke-linejoin:miter;stroke-miterlimit:10;stroke-dasharray:none;stroke-opacity:1"
         d="m 1681.65,3486.16 h -655.22 v 636.56 h 655.22 z" /><path
         id="path26"
         style="fill:#bdbcbc;fill-opacity:1;fill-rule:nonzero;stroke:none"
         d="m 2331.6,3486.16 h -655.19 v 636.56 h 655.19 v -636.56" /><path
         id="path28"
         style="fill:none;stroke:#231f20;stroke-width:20;stroke-linecap:butt;stroke-linejoin:miter;stroke-miterlimit:10;stroke-dasharray:none;stroke-opacity:1"
         d="m 2331.6,3486.16 h -655.19 v 636.56 h 655.19 z" /><path
         id="path30"
         style="fill:#bdbcbc;fill-opacity:1;fill-rule:nonzero;stroke:none"
         d="m 1682.48,2853.41 h -655.21 v 636.56 h 655.21 v -636.56" /><path
         id="path32"
         style="fill:none;stroke:#231f20;stroke-width:20;stroke-linecap:butt;stroke-linejoin:miter;stroke-miterlimit:10;stroke-dasharray:none;stroke-opacity:1"
         d="m 1682.48,2853.41 h -655.21 v 636.56 h 655.21 z" /><path
         id="path34"
         style="fill:#bdbcbc;fill-opacity:1;fill-rule:nonzero;stroke:none"
         d="m 2332.43,2853.41 h -655.18 v 636.56 h 655.18 v -636.56" /><path
         id="path36"
         style="fill:none;stroke:#231f20;stroke-width:20;stroke-linecap:butt;stroke-linejoin:miter;stroke-miterlimit:10;stroke-dasharray:none;stroke-opacity:1"
         d="m 2332.43,2853.41 h -655.18 v 636.56 h 655.18 z" /><path
         id="path38"
         style="fill:#ffffff;fill-opacity:1;fill-rule:nonzero;stroke:none"
         d="m 1686.41,2221.75 h -655.22 v 636.55 h 655.22 v -636.55" /><path
         id="path40"
         style="fill:none;stroke:#231f20;stroke-width:20;stroke-linecap:butt;stroke-linejoin:miter;stroke-miterlimit:10;stroke-dasharray:none;stroke-opacity:1"
         d="m 1686.41,2221.75 h -655.22 v 636.55 h 655.22 z" /><path
         id="path42"
         style="fill:#bdbcbc;fill-opacity:1;fill-rule:nonzero;stroke:none"
         d="m 2336.37,2221.75 h -655.2 v 636.55 h 655.2 v -636.55" /><path
         id="path44"
         style="fill:none;stroke:#231f20;stroke-width:20;stroke-linecap:butt;stroke-linejoin:miter;stroke-miterlimit:10;stroke-dasharray:none;stroke-opacity:1"
         d="m 2336.37,2221.75 h -655.2 v 636.55 h 655.2 z" /><path
         id="path46"
         style="fill:#ffffff;fill-opacity:1;fill-rule:nonzero;stroke:none"
         d="m 1690.82,1590.28 h -655.21 v 636.55 h 655.21 v -636.55" /><path
         id="path48"
         style="fill:none;stroke:#231f20;stroke-width:20;stroke-linecap:butt;stroke-linejoin:miter;stroke-miterlimit:10;stroke-dasharray:none;stroke-opacity:1"
         d="m 1690.82,1590.28 h -655.21 v 636.55 h 655.21 z" /><path
         id="path50"
         style="fill:#ffffff;fill-opacity:1;fill-rule:nonzero;stroke:none"
         d="m 2340.77,1590.28 h -655.2 v 636.55 h 655.2 v -636.55" /><path
         id="path52"
         style="fill:none;stroke:#231f20;stroke-width:20;stroke-linecap:butt;stroke-linejoin:miter;stroke-miterlimit:10;stroke-dasharray:none;stroke-opacity:1"
         d="m 2340.77,1590.28 h -655.2 v 636.55 h 655.2 z" /><path
         id="path54"
         style="fill:#bdbcbc;fill-opacity:1;fill-rule:nonzero;stroke:none"
         d="M 2985.51,4119.73 H 2330.3 v 636.56 h 655.21 v -636.56" /><path
         id="path56"
         style="fill:none;stroke:#231f20;stroke-width:20;stroke-linecap:butt;stroke-linejoin:miter;stroke-miterlimit:10;stroke-dasharray:none;stroke-opacity:1"
         d="M 2985.51,4119.73 H 2330.3 v 636.56 h 655.21 z" /><path
         id="path58"
         style="fill:#bdbcbc;fill-opacity:1;fill-rule:nonzero;stroke:none"
         d="m 3635.46,4119.73 h -655.21 v 636.56 h 655.21 v -636.56" /><path
         id="path60"
         style="fill:none;stroke:#231f20;stroke-width:20;stroke-linecap:butt;stroke-linejoin:miter;stroke-miterlimit:10;stroke-dasharray:none;stroke-opacity:1"
         d="m 3635.46,4119.73 h -655.21 v 636.56 h 655.21 z" /><path
         id="path62"
         style="fill:#bdbcbc;fill-opacity:1;fill-rule:nonzero;stroke:none"
         d="m 2989.43,3488.08 h -655.2 v 636.55 h 655.2 v -636.55" /><path
         id="path64"
         style="fill:none;stroke:#231f20;stroke-width:20;stroke-linecap:butt;stroke-linejoin:miter;stroke-miterlimit:10;stroke-dasharray:none;stroke-opacity:1"
         d="m 2989.43,3488.08 h -655.2 v 636.55 h 655.2 z" /><path
         id="path66"
         style="fill:#bdbcbc;fill-opacity:1;fill-rule:nonzero;stroke:none"
         d="m 3639.41,3488.08 h -655.23 v 636.55 h 655.23 v -636.55" /><path
         id="path68"
         style="fill:none;stroke:#231f20;stroke-width:20;stroke-linecap:butt;stroke-linejoin:miter;stroke-miterlimit:10;stroke-dasharray:none;stroke-opacity:1"
         d="m 3639.41,3488.08 h -655.23 v 636.55 h 655.23 z" /><path
         id="path70"
         style="fill:#ffffff;fill-opacity:1;fill-rule:nonzero;stroke:none"
         d="m 4287.43,4114.63 h -655.21 v 636.58 h 655.21 v -636.58" /><path
         id="path72"
         style="fill:none;stroke:#231f20;stroke-width:20;stroke-linecap:butt;stroke-linejoin:miter;stroke-miterlimit:10;stroke-dasharray:none;stroke-opacity:1"
         d="m 4287.43,4114.63 h -655.21 v 636.58 h 655.21 z" /><path
         id="path74"
         style="fill:#ffffff;fill-opacity:1;fill-rule:nonzero;stroke:none"
         d="m 4937.38,4114.63 h -655.19 v 636.58 h 655.19 v -636.58" /><path
         id="path76"
         style="fill:none;stroke:#231f20;stroke-width:20;stroke-linecap:butt;stroke-linejoin:miter;stroke-miterlimit:10;stroke-dasharray:none;stroke-opacity:1"
         d="m 4937.38,4114.63 h -655.19 v 636.58 h 655.19 z" /><path
         id="path78"
         style="fill:#bdbcbc;fill-opacity:1;fill-rule:nonzero;stroke:none"
         d="m 4291.35,3482.99 h -655.21 v 636.55 h 655.21 v -636.55" /><path
         id="path80"
         style="fill:none;stroke:#231f20;stroke-width:20;stroke-linecap:butt;stroke-linejoin:miter;stroke-miterlimit:10;stroke-dasharray:none;stroke-opacity:1"
         d="m 4291.35,3482.99 h -655.21 v 636.55 h 655.21 z" /><path
         id="path82"
         style="fill:#ffffff;fill-opacity:1;fill-rule:nonzero;stroke:none"
         d="m 4941.32,3482.99 h -655.2 v 636.55 h 655.2 v -636.55" /><path
         id="path84"
         style="fill:none;stroke:#231f20;stroke-width:20;stroke-linecap:butt;stroke-linejoin:miter;stroke-miterlimit:10;stroke-dasharray:none;stroke-opacity:1"
         d="m 4941.32,3482.99 h -655.2 v 636.55 h 655.2 z" /><path
         id="path86"
         style="fill:#bdbcbc;fill-opacity:1;fill-rule:nonzero;stroke:none"
         d="m 2990.25,2855.32 h -655.19 v 636.56 h 655.19 v -636.56" /><path
         id="path88"
         style="fill:none;stroke:#231f20;stroke-width:20;stroke-linecap:butt;stroke-linejoin:miter;stroke-miterlimit:10;stroke-dasharray:none;stroke-opacity:1"
         d="m 2990.25,2855.32 h -655.19 v 636.56 h 655.19 z" /><path
         id="path90"
         style="fill:#bdbcbc;fill-opacity:1;fill-rule:nonzero;stroke:none"
         d="m 3640.23,2855.32 h -655.2 v 636.56 h 655.2 v -636.56" /><path
         id="path92"
         style="fill:none;stroke:#231f20;stroke-width:20;stroke-linecap:butt;stroke-linejoin:miter;stroke-miterlimit:10;stroke-dasharray:none;stroke-opacity:1"
         d="m 3640.23,2855.32 h -655.2 v 636.56 h 655.2 z" /><path
         id="path94"
         style="fill:#bdbcbc;fill-opacity:1;fill-rule:nonzero;stroke:none"
         d="m 2994.18,2223.64 h -655.19 v 636.57 h 655.19 v -636.57" /><path
         id="path96"
         style="fill:none;stroke:#231f20;stroke-width:20;stroke-linecap:butt;stroke-linejoin:miter;stroke-miterlimit:10;stroke-dasharray:none;stroke-opacity:1"
         d="m 2994.18,2223.64 h -655.19 v 636.57 h 655.19 z" /><path
         id="path98"
         style="fill:#bdbcbc;fill-opacity:1;fill-rule:nonzero;stroke:none"
         d="m 3644.17,2223.64 h -655.21 v 636.57 h 655.21 v -636.57" /><path
         id="path100"
         style="fill:none;stroke:#231f20;stroke-width:20;stroke-linecap:butt;stroke-linejoin:miter;stroke-miterlimit:10;stroke-dasharray:none;stroke-opacity:1"
         d="m 3644.17,2223.64 h -655.21 v 636.57 h 655.21 z" /><path
         id="path102"
         style="fill:#bdbcbc;fill-opacity:1;fill-rule:nonzero;stroke:none"
         d="m 4292.19,2850.22 h -655.2 v 636.58 h 655.2 v -636.58" /><path
         id="path104"
         style="fill:none;stroke:#231f20;stroke-width:20;stroke-linecap:butt;stroke-linejoin:miter;stroke-miterlimit:10;stroke-dasharray:none;stroke-opacity:1"
         d="m 4292.19,2850.22 h -655.2 v 636.58 h 655.2 z" /><path
         id="path106"
         style="fill:#bdbcbc;fill-opacity:1;fill-rule:nonzero;stroke:none"
         d="m 4942.14,2850.22 h -655.18 v 636.58 h 655.18 v -636.58" /><path
         id="path108"
         style="fill:none;stroke:#231f20;stroke-width:20;stroke-linecap:butt;stroke-linejoin:miter;stroke-miterlimit:10;stroke-dasharray:none;stroke-opacity:1"
         d="m 4942.14,2850.22 h -655.18 v 636.58 h 655.18 z" /><path
         id="path110"
         style="fill:#bdbcbc;fill-opacity:1;fill-rule:nonzero;stroke:none"
         d="M 4296.12,2218.59 H 3640.9 v 636.53 h 655.22 v -636.53" /><path
         id="path112"
         style="fill:none;stroke:#231f20;stroke-width:20;stroke-linecap:butt;stroke-linejoin:miter;stroke-miterlimit:10;stroke-dasharray:none;stroke-opacity:1"
         d="M 4296.12,2218.59 H 3640.9 v 636.53 h 655.22 z" /><path
         id="path114"
         style="fill:#bdbcbc;fill-opacity:1;fill-rule:nonzero;stroke:none"
         d="m 4946.08,2218.59 h -655.2 v 636.53 h 655.2 v -636.53" /><path
         id="path116"
         style="fill:none;stroke:#231f20;stroke-width:20;stroke-linecap:butt;stroke-linejoin:miter;stroke-miterlimit:10;stroke-dasharray:none;stroke-opacity:1"
         d="m 4946.08,2218.59 h -655.2 v 636.53 h 655.2 z" /><path
         id="path118"
         style="fill:#bdbcbc;fill-opacity:1;fill-rule:nonzero;stroke:none"
         d="m 2998.61,1592.19 h -655.2 v 636.54 h 655.2 v -636.54" /><path
         id="path120"
         style="fill:none;stroke:#231f20;stroke-width:20;stroke-linecap:butt;stroke-linejoin:miter;stroke-miterlimit:10;stroke-dasharray:none;stroke-opacity:1"
         d="m 2998.61,1592.19 h -655.2 v 636.54 h 655.2 z" /><path
         id="path122"
         style="fill:#bdbcbc;fill-opacity:1;fill-rule:nonzero;stroke:none"
         d="m 3648.56,1592.19 h -655.19 v 636.54 h 655.19 v -636.54" /><path
         id="path124"
         style="fill:none;stroke:#231f20;stroke-width:20;stroke-linecap:butt;stroke-linejoin:miter;stroke-miterlimit:10;stroke-dasharray:none;stroke-opacity:1"
         d="m 3648.56,1592.19 h -655.19 v 636.54 h 655.19 z" /><path
         id="path126"
         style="fill:#bdbcbc;fill-opacity:1;fill-rule:nonzero;stroke:none"
         d="M 4300.51,1587.1 H 3645.3 v 636.54 h 655.21 V 1587.1" /><path
         id="path128"
         style="fill:none;stroke:#231f20;stroke-width:20;stroke-linecap:butt;stroke-linejoin:miter;stroke-miterlimit:10;stroke-dasharray:none;stroke-opacity:1"
         d="M 4300.51,1587.1 H 3645.3 v 636.54 h 655.21 z" /><path
         id="path130"
         style="fill:#bdbcbc;fill-opacity:1;fill-rule:nonzero;stroke:none"
         d="m 4950.48,1587.1 h -655.21 v 636.54 h 655.21 V 1587.1" /><path
         id="path132"
         style="fill:none;stroke:#231f20;stroke-width:20;stroke-linecap:butt;stroke-linejoin:miter;stroke-miterlimit:10;stroke-dasharray:none;stroke-opacity:1"
         d="m 4950.48,1587.1 h -655.21 v 636.54 h 655.21 z" /><path
         id="path134"
         style="fill:none;stroke:#231f20;stroke-width:20;stroke-linecap:butt;stroke-linejoin:miter;stroke-miterlimit:10;stroke-dasharray:none;stroke-opacity:1"
         d="M 4999.23,1658.39 4887.38,1525.58" /><path
         id="path136"
         style="fill:none;stroke:#231f20;stroke-width:20;stroke-linecap:butt;stroke-linejoin:miter;stroke-miterlimit:10;stroke-dasharray:none;stroke-opacity:1"
         d="M 4884.84,1648.34 5001.78,1521.3" /><path
         id="path138"
         style="fill:none;stroke:#231f20;stroke-width:20;stroke-linecap:butt;stroke-linejoin:miter;stroke-miterlimit:10;stroke-dasharray:none;stroke-opacity:1"
         d="M 3049.23,1648.39 2937.38,1515.58" /><path
         id="path140"
         style="fill:none;stroke:#231f20;stroke-width:20;stroke-linecap:butt;stroke-linejoin:miter;stroke-miterlimit:10;stroke-dasharray:none;stroke-opacity:1"
         d="M 2934.84,1638.34 3051.78,1511.3" /><path
         id="path142"
         style="fill:none;stroke:#231f20;stroke-width:20;stroke-linecap:butt;stroke-linejoin:miter;stroke-miterlimit:10;stroke-dasharray:none;stroke-opacity:1"
         d="M 2409.23,1658.39 2297.38,1525.58" /><path
         id="path144"
         style="fill:none;stroke:#231f20;stroke-width:20;stroke-linecap:butt;stroke-linejoin:miter;stroke-miterlimit:10;stroke-dasharray:none;stroke-opacity:1"
         d="M 2294.84,1648.34 2411.78,1521.3" /><path
         id="path146"
         style="fill:none;stroke:#231f20;stroke-width:20;stroke-linecap:butt;stroke-linejoin:miter;stroke-miterlimit:10;stroke-dasharray:none;stroke-opacity:1"
         d="M 4353.1,1657.75 4241.25,1524.93" /><path
         id="path148"
         style="fill:none;stroke:#231f20;stroke-width:20;stroke-linecap:butt;stroke-linejoin:miter;stroke-miterlimit:10;stroke-dasharray:none;stroke-opacity:1"
         d="m 4238.71,1647.7 116.94,-127.04" /><path
         id="path150"
         style="fill:none;stroke:#231f20;stroke-width:20;stroke-linecap:butt;stroke-linejoin:miter;stroke-miterlimit:10;stroke-dasharray:none;stroke-opacity:1"
         d="M 3713.1,1647.75 3601.25,1514.93" /><path
         id="path152"
         style="fill:none;stroke:#231f20;stroke-width:20;stroke-linecap:butt;stroke-linejoin:miter;stroke-miterlimit:10;stroke-dasharray:none;stroke-opacity:1"
         d="m 3598.71,1637.7 116.94,-127.04" /><path
         id="path154"
         style="fill:none;stroke:#231f20;stroke-width:20;stroke-linecap:butt;stroke-linejoin:miter;stroke-miterlimit:10;stroke-dasharray:none;stroke-opacity:1"
         d="M 2399.23,2288.39 2287.38,2155.58" /><path
         id="path156"
         style="fill:none;stroke:#231f20;stroke-width:20;stroke-linecap:butt;stroke-linejoin:miter;stroke-miterlimit:10;stroke-dasharray:none;stroke-opacity:1"
         d="M 2284.84,2278.34 2401.78,2151.3" /><path
         id="path158"
         style="fill:none;stroke:#231f20;stroke-width:20;stroke-linecap:butt;stroke-linejoin:miter;stroke-miterlimit:10;stroke-dasharray:none;stroke-opacity:1"
         d="M 1739.23,2288.39 1627.38,2155.58" /><path
         id="path160"
         style="fill:none;stroke:#231f20;stroke-width:20;stroke-linecap:butt;stroke-linejoin:miter;stroke-miterlimit:10;stroke-dasharray:none;stroke-opacity:1"
         d="M 1624.84,2278.34 1741.78,2151.3" /><path
         id="path162"
         style="fill:none;stroke:#231f20;stroke-width:20;stroke-linecap:butt;stroke-linejoin:miter;stroke-miterlimit:10;stroke-dasharray:none;stroke-opacity:1"
         d="M 1739.23,2928.39 1627.38,2795.58" /><path
         id="path164"
         style="fill:none;stroke:#231f20;stroke-width:20;stroke-linecap:butt;stroke-linejoin:miter;stroke-miterlimit:10;stroke-dasharray:none;stroke-opacity:1"
         d="M 1624.84,2918.34 1741.78,2791.3" /><path
         id="path166"
         style="fill:none;stroke:#231f20;stroke-width:20;stroke-linecap:butt;stroke-linejoin:miter;stroke-miterlimit:10;stroke-dasharray:none;stroke-opacity:1"
         d="M 1735.49,3566.76 1623.63,3433.95" /><path
         id="path168"
         style="fill:none;stroke:#231f20;stroke-width:20;stroke-linecap:butt;stroke-linejoin:miter;stroke-miterlimit:10;stroke-dasharray:none;stroke-opacity:1"
         d="m 1621.09,3556.71 116.95,-127.04" /><path
         id="path170"
         style="fill:none;stroke:#231f20;stroke-width:20;stroke-linecap:butt;stroke-linejoin:miter;stroke-miterlimit:10;stroke-dasharray:none;stroke-opacity:1"
         d="M 1079.23,2928.39 967.379,2795.58" /><path
         id="path172"
         style="fill:none;stroke:#231f20;stroke-width:20;stroke-linecap:butt;stroke-linejoin:miter;stroke-miterlimit:10;stroke-dasharray:none;stroke-opacity:1"
         d="M 964.84,2918.34 1081.78,2791.3" /><path
         id="path174"
         style="fill:none;stroke:#231f20;stroke-width:20;stroke-linecap:butt;stroke-linejoin:miter;stroke-miterlimit:10;stroke-dasharray:none;stroke-opacity:1"
         d="M 1079.23,3558.39 967.379,3425.58" /><path
         id="path176"
         style="fill:none;stroke:#231f20;stroke-width:20;stroke-linecap:butt;stroke-linejoin:miter;stroke-miterlimit:10;stroke-dasharray:none;stroke-opacity:1"
         d="M 964.84,3548.34 1081.78,3421.3" /><path
         id="path178"
         style="fill:none;stroke:#231f20;stroke-width:20;stroke-linecap:butt;stroke-linejoin:miter;stroke-miterlimit:10;stroke-dasharray:none;stroke-opacity:1"
         d="M 2389.23,4198.39 2277.38,4065.58" /><path
         id="path180"
         style="fill:none;stroke:#231f20;stroke-width:20;stroke-linecap:butt;stroke-linejoin:miter;stroke-miterlimit:10;stroke-dasharray:none;stroke-opacity:1"
         d="M 2274.84,4188.34 2391.78,4061.3" /><path
         id="path182"
         style="fill:none;stroke:#231f20;stroke-width:20;stroke-linecap:butt;stroke-linejoin:miter;stroke-miterlimit:10;stroke-dasharray:none;stroke-opacity:1"
         d="M 1729.23,4198.39 1617.38,4065.58" /><path
         id="path184"
         style="fill:none;stroke:#231f20;stroke-width:20;stroke-linecap:butt;stroke-linejoin:miter;stroke-miterlimit:10;stroke-dasharray:none;stroke-opacity:1"
         d="M 1614.84,4188.34 1731.78,4061.3" /><path
         id="path186"
         style="fill:none;stroke:#231f20;stroke-width:20;stroke-linecap:butt;stroke-linejoin:miter;stroke-miterlimit:10;stroke-dasharray:none;stroke-opacity:1"
         d="m 2403.06,4754.53 c 0,-35.63 -32.5,-64.51 -72.58,-64.51 -40.08,0 -72.58,28.88 -72.58,64.51 0,35.63 32.5,64.51 72.58,64.51 40.08,0 72.58,-28.88 72.58,-64.51 z" /><path
         id="path188"
         style="fill:none;stroke:#231f20;stroke-width:20;stroke-linecap:butt;stroke-linejoin:miter;stroke-miterlimit:10;stroke-dasharray:none;stroke-opacity:1"
         d="m 3053.06,4764.53 c 0,-35.63 -32.5,-64.51 -72.58,-64.51 -40.08,0 -72.58,28.88 -72.58,64.51 0,35.63 32.5,64.51 72.58,64.51 40.08,0 72.58,-28.88 72.58,-64.51 z" /><path
         id="path190"
         style="fill:none;stroke:#231f20;stroke-width:20;stroke-linecap:butt;stroke-linejoin:miter;stroke-miterlimit:10;stroke-dasharray:none;stroke-opacity:1"
         d="m 3703.06,4754.53 c 0,-35.63 -32.5,-64.51 -72.58,-64.51 -40.08,0 -72.57,28.88 -72.57,64.51 0,35.63 32.49,64.51 72.57,64.51 40.08,0 72.58,-28.88 72.58,-64.51 z" /><path
         id="path192"
         style="fill:none;stroke:#231f20;stroke-width:20;stroke-linecap:butt;stroke-linejoin:miter;stroke-miterlimit:10;stroke-dasharray:none;stroke-opacity:1"
         d="m 3698.23,4055.49 h -137.1 v 129.03 h 137.1 z" /><path
         id="path194"
         style="fill:none;stroke:#231f20;stroke-width:20;stroke-linecap:butt;stroke-linejoin:miter;stroke-miterlimit:10;stroke-dasharray:none;stroke-opacity:1"
         d="m 4348.23,3425.49 h -137.1 v 129.03 h 137.1 z" /><path
         id="path196"
         style="fill:none;stroke:#231f20;stroke-width:20;stroke-linecap:butt;stroke-linejoin:miter;stroke-miterlimit:10;stroke-dasharray:none;stroke-opacity:1"
         d="m 4348.23,4055.49 h -137.1 v 129.03 h 137.1 z" /><path
         id="path198"
         style="fill:none;stroke:#231f20;stroke-width:20;stroke-linecap:butt;stroke-linejoin:miter;stroke-miterlimit:10;stroke-dasharray:none;stroke-opacity:1"
         d="m 4988.23,2795.49 h -137.1 v 129.03 h 137.1 z" /><path
         id="path200"
         style="fill:none;stroke:#231f20;stroke-width:20;stroke-linecap:butt;stroke-linejoin:miter;stroke-miterlimit:10;stroke-dasharray:none;stroke-opacity:1"
         d="m 4988.23,3425.49 h -137.1 v 129.03 h 137.1 z" /><path
         id="path202"
         style="fill:none;stroke:#231f20;stroke-width:20;stroke-linecap:butt;stroke-linejoin:miter;stroke-miterlimit:10;stroke-dasharray:none;stroke-opacity:1"
         d="m 4988.23,2165.49 h -137.1 v 129.03 h 137.1 z" /><path
         id="path204"
         style="fill:none;stroke:#231f20;stroke-width:20;stroke-linecap:butt;stroke-linejoin:miter;stroke-miterlimit:10;stroke-dasharray:none;stroke-opacity:1"
         d="m 4988.23,2795.49 h -137.1 v 129.03 h 137.1 z" /><path
         id="path206"
         style="fill:none;stroke:#231f20;stroke-width:10;stroke-linecap:butt;stroke-linejoin:miter;stroke-miterlimit:10;stroke-dasharray:none;stroke-opacity:1"
         d="m 2734.35,5228.4 -137.09,-454" /><path
         id="path208"
         style="fill:none;stroke:#231f20;stroke-width:10;stroke-linecap:butt;stroke-linejoin:miter;stroke-miterlimit:10;stroke-dasharray:none;stroke-opacity:1"
         d="m 2734.35,5228.4 637.1,-459.68" /><path
         id="path210"
         style="fill:none;stroke:#231f20;stroke-width:10;stroke-linecap:butt;stroke-linejoin:miter;stroke-miterlimit:10;stroke-dasharray:none;stroke-opacity:1"
         d="M 5518.55,5099.36 3637.57,4405.81" /><path
         id="path212"
         style="fill:none;stroke:#231f20;stroke-width:10;stroke-linecap:butt;stroke-linejoin:miter;stroke-miterlimit:10;stroke-dasharray:none;stroke-opacity:1"
         d="M 5518.55,5099.36 3935.96,4131.62" /><path
         id="path214"
         style="fill:none;stroke:#231f20;stroke-width:10;stroke-linecap:butt;stroke-linejoin:miter;stroke-miterlimit:10;stroke-dasharray:none;stroke-opacity:1"
         d="M 5518.55,5099.36 4306.93,3792.91" /><path
         id="path216"
         style="fill:none;stroke:#231f20;stroke-width:10;stroke-linecap:butt;stroke-linejoin:miter;stroke-miterlimit:10;stroke-dasharray:none;stroke-opacity:1"
         d="M 5518.55,5099.36 4685.96,3510.65" /><path
         id="path218"
         style="fill:none;stroke:#231f20;stroke-width:10;stroke-linecap:butt;stroke-linejoin:miter;stroke-miterlimit:10;stroke-dasharray:none;stroke-opacity:1"
         d="m 5016.61,3478.46 c 308.1,6.54 281.69,-258.26 257.04,-391 -32.35,-174.19 2.88,-372.47 18.38,-546.25 25.86,-4.15 52.31,-6.19 79.41,-6.1" /><path
         id="path220"
         style="fill:none;stroke:#231f20;stroke-width:10;stroke-linecap:butt;stroke-linejoin:miter;stroke-miterlimit:10;stroke-dasharray:none;stroke-opacity:1"
         d="m 5019.51,1589.15 c 308.11,-6.53 281.69,258.27 257.05,391.01 -32.35,174.2 2.88,372.47 18.37,546.23 25.86,4.16 52.32,6.22 79.42,6.13" /><path
         id="path222"
         style="fill:none;stroke:#231f20;stroke-width:10;stroke-linecap:butt;stroke-linejoin:miter;stroke-miterlimit:10;stroke-dasharray:none;stroke-opacity:1"
         d="M 5518.55,5099.36 5371.44,2535.11" /><path
         id="path224"
         style="fill:none;stroke:#231f20;stroke-width:10;stroke-linecap:butt;stroke-linejoin:miter;stroke-miterlimit:10;stroke-dasharray:none;stroke-opacity:1"
         d="m 1034.5,1472.68 c -13.55,-172.61 534.91,-157.8 809.85,-144 360.81,18.12 771.49,-1.62 1131.42,-10.3 8.61,-14.48 12.82,-29.3 12.66,-44.49" /><path
         id="path226"
         style="fill:none;stroke:#231f20;stroke-width:10;stroke-linecap:butt;stroke-linejoin:miter;stroke-miterlimit:10;stroke-dasharray:none;stroke-opacity:1"
         d="m 4947.74,1471.06 c 13.51,-172.62 -534.91,-157.81 -809.88,-144.01 -360.82,18.12 -771.46,-1.62 -1131.39,-10.29 -8.61,-14.49 -12.87,-29.32 -12.71,-44.5" /><path
         id="path228"
         style="fill:none;stroke:#231f20;stroke-width:10;stroke-linecap:butt;stroke-linejoin:miter;stroke-miterlimit:10;stroke-dasharray:none;stroke-opacity:1"
         d="m 929.02,4667.27 c -308.106,10.5 -281.692,-414.78 -257.043,-627.96 32.343,-279.78 -2.879,-598.22 -18.379,-877.3 -25.86,-6.68 -52.313,-9.95 -79.414,-9.82" /><path
         id="path230"
         style="fill:none;stroke:#231f20;stroke-width:10;stroke-linecap:butt;stroke-linejoin:miter;stroke-miterlimit:10;stroke-dasharray:none;stroke-opacity:1"
         d="m 926.117,1632.94 c -308.113,-10.48 -281.687,414.77 -257.051,627.99 32.344,279.78 -2.878,598.18 -18.367,877.27 -25.859,6.68 -52.324,9.98 -79.426,9.85" /><g
         transform="scale(10)"
         id="g232"><text
           id="text236"
           style="font-variant:normal;font-weight:normal;font-size:24px;font-family:MyriadPro;-inkscape-font-specification:MyriadPro-Regular;writing-mode:lr-tb;fill:#231f20;fill-opacity:1;fill-rule:nonzero;stroke:none"
           transform="matrix(1,0,0,-1,146.08,528.968)"><tspan
             id="tspan234"
             y="0"
             x="0 15.791499 28.967499 34.054901 41.998901 53.566315 66.886314 80.301338 92.32534 105.54895 113.49295 119.10819 130.67619 136.33929 141.42729 150.93129 158.87529 166.48369 178.50711 188.01111">No tangential stress</tspan></text>
</g><path
         id="path238"
         style="fill:none;stroke:#231f20;stroke-width:2.5;stroke-linecap:butt;stroke-linejoin:miter;stroke-miterlimit:4;stroke-dasharray:none;stroke-opacity:1"
         d="m 1498.71,5289.68 v 69.11 c 0,26.86 -0.24,46.3 -1.44,66.69 l 0.72,0.25 c 7.92,-17.52 18.72,-36 30,-53.98 l 51.34,-82.07 h 21.11 v 161.72 h -19.67 v -67.65 c 0,-25.21 0.48,-44.88 2.41,-66.47 l -0.74,-0.24 c -7.44,16.55 -17.03,33.58 -28.78,52.55 l -51.59,81.81 h -23.03 v -161.72 z m 186.71,118.53 c -31.9,0 -57.58,-22.79 -57.58,-61.42 0,-36.72 24.47,-59.75 55.66,-59.75 27.83,0 57.83,18.72 57.83,61.67 0,35.27 -22.56,59.5 -55.91,59.5 z m -0.48,-15.84 c 24.95,0 34.79,-24.7 34.79,-44.37 0,-26.16 -15.12,-45.11 -35.26,-45.11 -20.64,0 -35.03,19.18 -35.03,44.62 0,21.83 10.79,44.86 35.5,44.86 z m 138.72,35.03 v -21.59 h -18 v -16.08 h 18 v -63.34 c 0,-13.68 2.41,-23.99 8.16,-30.47 5.05,-5.52 12.95,-8.88 22.8,-8.88 8.15,0 14.64,1.44 18.72,2.88 l -0.97,16.08 c -3.11,-0.96 -6.47,-1.44 -12.24,-1.44 -11.75,0 -15.83,8.15 -15.83,22.56 v 62.61 h 30.24 v 16.08 h -30.24 v 27.84 z m 156.23,-66.45 c 0,23.03 -8.64,47.26 -44.14,47.26 -14.64,0 -28.79,-4.07 -38.39,-10.07 l 4.8,-14.16 c 8.16,5.52 19.44,8.64 30.47,8.64 23.75,0.24 26.39,-17.28 26.39,-26.64 v -2.39 c -44.88,0.23 -69.83,-15.13 -69.83,-43.19 0,-16.79 12,-33.36 35.52,-33.36 16.56,0 29.03,8.16 35.51,17.28 h 0.72 l 1.67,-14.64 h 18.97 c -1.2,7.93 -1.69,17.75 -1.69,27.83 z m -20.39,-32.16 c 0,-1.92 -0.25,-4.31 -0.96,-6.72 -3.36,-9.84 -13.19,-19.43 -28.55,-19.43 -10.56,0 -19.67,6.23 -19.67,20.15 0,22.57 26.15,26.64 49.18,26.16 z m 54.48,-39.11 h 21.11 v 69.83 c 0,3.6 0.49,7.19 1.44,9.83 3.85,11.77 14.64,21.59 28.31,21.59 19.93,0 26.88,-15.59 26.88,-34.31 v -66.94 h 21.12 v 69.11 c 0,39.83 -24.95,49.42 -41.03,49.42 -19.2,0 -32.64,-10.79 -38.39,-21.59 h -0.48 l -1.21,19.19 h -18.7 c 0.72,-9.6 0.95,-19.19 0.95,-31.42 z m 232.54,84.46 c 0,13.92 0.25,23.51 0.96,31.67 h -18.71 l -0.72,-17.52 h -0.49 c -5.28,9.61 -16.08,19.92 -36.23,19.92 -26.86,0 -52.53,-22.07 -52.53,-61.42 0,-32.15 20.62,-56.62 49.42,-56.62 18,0 30.7,8.64 36.95,19.44 h 0.47 v -12.72 c 0,-29.52 -15.83,-40.8 -37.42,-40.8 -14.39,0 -26.39,4.33 -34.08,9.36 l -5.28,-16.31 c 9.36,-6.24 24.72,-9.6 38.64,-9.6 14.64,0 30.95,3.6 42.47,13.91 11.03,10.33 16.55,26.39 16.55,53.26 z m -21.11,-35.03 c 0,-3.6 -0.49,-7.68 -1.68,-11.27 -4.32,-13.44 -16.07,-21.59 -29.28,-21.59 -22.54,0 -34.31,18.95 -34.31,41.75 0,26.86 14.41,43.9 34.55,43.9 15.61,0 25.69,-10.08 29.51,-22.56 0.97,-2.64 1.21,-5.75 1.21,-9.36 z m 149.25,4.79 c 0.49,2.41 0.74,5.53 0.74,9.85 0,21.36 -9.85,54.46 -48,54.46 -33.83,0 -54.45,-27.35 -54.45,-62.39 0,-35.03 21.34,-58.78 57.09,-58.78 18.48,0 31.44,4.08 38.87,7.44 l -3.84,15.13 c -7.67,-3.36 -17.03,-6 -32.14,-6 -21.36,0 -39.36,11.75 -39.84,40.29 z m -81.32,15.13 c 1.67,14.64 10.79,34.06 32.39,34.06 23.75,0 29.51,-20.88 29.26,-34.06 z m 108.25,-69.35 h 21.11 v 69.83 c 0,3.6 0.48,7.19 1.43,9.83 3.85,11.77 14.64,21.59 28.32,21.59 19.92,0 26.87,-15.59 26.87,-34.31 v -66.94 h 21.13 v 69.11 c 0,39.83 -24.96,49.42 -41.04,49.42 -19.2,0 -32.64,-10.79 -38.39,-21.59 h -0.48 l -1.2,19.19 h -18.71 c 0.72,-9.6 0.96,-19.19 0.96,-31.42 z m 137.02,137.72 v -21.59 h -18 v -16.08 h 18 v -63.34 c 0,-13.68 2.41,-23.99 8.16,-30.47 5.05,-5.52 12.95,-8.88 22.8,-8.88 8.15,0 14.64,1.44 18.72,2.88 l -0.97,16.08 c -3.11,-0.96 -6.47,-1.44 -12.24,-1.44 -11.75,0 -15.83,8.15 -15.83,22.56 v 62.61 h 30.24 v 16.08 h -30.24 v 27.84 z m 95.77,-137.72 v 116.13 h -21.11 v -116.13 z m -10.55,161.96 c -7.92,0 -13.2,-6 -13.2,-13.19 0,-7.2 5.04,-12.97 12.71,-12.97 8.39,0 13.44,5.77 13.44,12.97 0,7.44 -5.28,13.19 -12.95,13.19 z m 127.16,-90.69 c 0,23.03 -8.64,47.26 -44.14,47.26 -14.64,0 -28.8,-4.07 -38.39,-10.07 l 4.8,-14.16 c 8.15,5.52 19.44,8.64 30.47,8.64 23.75,0.24 26.39,-17.28 26.39,-26.64 v -2.39 c -44.88,0.23 -69.83,-15.13 -69.83,-43.19 0,-16.79 12,-33.36 35.51,-33.36 16.57,0 29.04,8.16 35.52,17.28 h 0.72 l 1.67,-14.64 h 18.97 c -1.2,7.93 -1.69,17.75 -1.69,27.83 z m -20.39,-32.16 c 0,-1.92 -0.25,-4.31 -0.97,-6.72 -3.36,-9.84 -13.18,-19.43 -28.54,-19.43 -10.57,0 -19.68,6.23 -19.68,20.15 0,22.57 26.16,26.64 49.19,26.16 z m 54.5,-39.11 h 21.11 v 170.36 h -21.11 z m 99.58,5.52 c 8.16,-4.8 19.93,-8.16 32.64,-8.16 27.11,0 43.19,14.39 43.19,35.03 0,17.29 -10.56,27.36 -30.47,34.8 -15.12,6 -21.84,10.31 -21.84,19.91 0,8.64 6.72,15.84 19.2,15.84 10.8,0 19.19,-4.08 23.75,-6.97 l 5.03,15.36 c -6.23,4.08 -16.54,7.2 -28.31,7.2 -24.7,0 -40.06,-15.35 -40.06,-34.07 0,-13.91 9.83,-25.19 30.95,-32.86 15.36,-5.77 21.35,-11.05 21.35,-21.13 0,-9.83 -7.19,-17.26 -22.32,-17.26 -10.54,0 -21.59,4.31 -28.06,8.15 z m 107.76,132.2 v -21.59 h -18 v -16.08 h 18 v -63.34 c 0,-13.68 2.41,-23.99 8.16,-30.47 5.04,-5.52 12.95,-8.88 22.79,-8.88 8.16,0 14.65,1.44 18.72,2.88 l -0.97,16.08 c -3.1,-0.96 -6.46,-1.44 -12.23,-1.44 -11.75,0 -15.83,8.15 -15.83,22.56 v 62.61 h 30.24 v 16.08 h -30.24 v 27.84 z m 74.66,-137.72 h 21.11 v 61.91 c 0,3.36 0.25,6.95 0.72,9.83 2.89,15.84 13.43,26.87 28.31,26.87 2.89,0 5.05,0 7.2,-0.47 v 19.91 c -1.92,0.25 -3.59,0.48 -5.75,0.48 -14.15,0 -27.12,-9.84 -32.4,-25.43 h -0.72 l -0.96,23.03 h -18.47 c 0.72,-10.8 0.96,-22.55 0.96,-36.22 z m 169.4,54.22 c 0.49,2.41 0.74,5.53 0.74,9.85 0,21.36 -9.85,54.46 -48,54.46 -33.83,0 -54.45,-27.35 -54.45,-62.39 0,-35.03 21.34,-58.78 57.09,-58.78 18.48,0 31.44,4.08 38.87,7.44 l -3.84,15.13 c -7.67,-3.36 -17.03,-6 -32.14,-6 -21.36,0 -39.36,11.75 -39.84,40.29 z m -81.32,15.13 c 1.67,14.64 10.79,34.06 32.39,34.06 23.75,0 29.51,-20.88 29.26,-34.06 z m 100.3,-63.83 c 8.16,-4.8 19.93,-8.16 32.65,-8.16 27.1,0 43.18,14.39 43.18,35.03 0,17.29 -10.56,27.36 -30.47,34.8 -15.12,6 -21.84,10.31 -21.84,19.91 0,8.64 6.72,15.84 19.2,15.84 10.8,0 19.19,-4.08 23.75,-6.97 l 5.03,15.36 c -6.23,4.08 -16.54,7.2 -28.31,7.2 -24.7,0 -40.06,-15.35 -40.06,-34.07 0,-13.91 9.83,-25.19 30.95,-32.86 15.36,-5.77 21.35,-11.05 21.35,-21.13 0,-9.83 -7.19,-17.26 -22.32,-17.26 -10.54,0 -21.59,4.31 -28.06,8.15 z m 95.04,0 c 8.16,-4.8 19.93,-8.16 32.64,-8.16 27.11,0 43.19,14.39 43.19,35.03 0,17.29 -10.56,27.36 -30.47,34.8 -15.12,6 -21.84,10.31 -21.84,19.91 0,8.64 6.72,15.84 19.2,15.84 10.8,0 19.19,-4.08 23.75,-6.97 l 5.03,15.36 c -6.23,4.08 -16.54,7.2 -28.31,7.2 -24.7,0 -40.06,-15.35 -40.06,-34.07 0,-13.91 9.83,-25.19 30.95,-32.86 15.36,-5.77 21.35,-11.05 21.35,-21.13 0,-9.83 -7.19,-17.26 -22.32,-17.26 -10.54,0 -21.59,4.31 -28.06,8.15 z" /><g
         transform="scale(10)"
         id="g240"><text
           id="text244"
           style="font-variant:normal;font-weight:normal;font-size:24px;font-family:MyriadPro;-inkscape-font-specification:MyriadPro-Regular;writing-mode:lr-tb;fill:#231f20;fill-opacity:1;fill-rule:nonzero;stroke:none"
           transform="matrix(1,0,0,-1,395.823,514.033)"><tspan
             id="tspan242"
             y="0"
             x="0 13.752 25.32 30.983999 42.527023 48.143024 61.463024 74.877998 79.965996 86.973999 94.582397 107.7584 120.98201 128.92601 134.01401 143.51801 151.46138 159.06978 171.09314 180.59714">Calving front stress</tspan></text>
</g><path
         id="path246"
         style="fill:none;stroke:#231f20;stroke-width:2.5;stroke-linecap:butt;stroke-linejoin:miter;stroke-miterlimit:4;stroke-dasharray:none;stroke-opacity:1"
         d="m 4085.15,5162.16 c -8.39,-4.08 -21.34,-6.72 -34.31,-6.72 -39.11,0 -61.89,25.2 -61.89,65.03 0,42.47 25.19,66.71 63.09,66.71 13.44,0 24.72,-2.88 32.39,-6.72 l 5.28,17.03 c -5.51,2.87 -18.46,7.2 -38.39,7.2 -50.14,0 -84.45,-34.08 -84.45,-84.94 0,-53.26 34.06,-82.06 79.66,-82.06 19.67,0 35.26,3.85 42.7,7.67 z m 109.69,49.44 c 0,23.03 -8.64,47.26 -44.14,47.26 -14.64,0 -28.79,-4.07 -38.39,-10.07 l 4.8,-14.16 c 8.16,5.51 19.44,8.64 30.47,8.64 23.75,0.23 26.39,-17.28 26.39,-26.64 v -2.39 c -44.88,0.23 -69.83,-15.13 -69.83,-43.19 0,-16.8 12,-33.36 35.52,-33.36 16.56,0 29.03,8.16 35.51,17.28 h 0.72 l 1.67,-14.64 h 18.97 c -1.2,7.92 -1.69,17.75 -1.69,27.83 z m -20.39,-32.16 c 0,-1.92 -0.25,-4.31 -0.97,-6.72 -3.35,-9.84 -13.18,-19.43 -28.54,-19.43 -10.56,0 -19.67,6.23 -19.67,20.15 0,22.56 26.15,26.64 49.18,26.16 z m 54.5,-39.11 h 21.1 v 170.36 h -21.1 z m 42.25,116.13 44.14,-116.13 h 20.15 l 45.6,116.13 h -22.08 l -22.56,-65.02 c -3.83,-10.8 -7.19,-20.39 -9.83,-30 h -0.72 c -2.41,9.61 -5.52,19.2 -9.36,30 l -22.8,65.02 z m 150.93,-116.13 v 116.13 h -21.11 v -116.13 z m -10.55,161.96 c -7.92,0 -13.2,-6 -13.2,-13.19 0,-7.21 5.04,-12.97 12.71,-12.97 8.39,0 13.44,5.76 13.44,12.97 0,7.44 -5.28,13.19 -12.95,13.19 z m 45.6,-161.96 h 21.11 v 69.83 c 0,3.59 0.48,7.19 1.43,9.83 3.85,11.76 14.64,21.59 28.32,21.59 19.92,0 26.87,-15.59 26.87,-34.31 v -66.94 h 21.13 v 69.11 c 0,39.83 -24.96,49.42 -41.04,49.42 -19.2,0 -32.64,-10.79 -38.39,-21.59 h -0.48 l -1.2,19.19 h -18.71 c 0.72,-9.6 0.96,-19.19 0.96,-31.42 z m 232.52,84.46 c 0,13.92 0.25,23.51 0.97,31.67 h -18.72 l -0.72,-17.52 h -0.48 c -5.28,9.61 -16.08,19.92 -36.23,19.92 -26.86,0 -52.54,-22.07 -52.54,-61.42 0,-32.15 20.63,-56.62 49.43,-56.62 18,0 30.7,8.64 36.95,19.43 h 0.47 v -12.71 c 0,-29.52 -15.83,-40.8 -37.42,-40.8 -14.39,0 -26.39,4.33 -34.08,9.36 l -5.28,-16.31 c 9.36,-6.24 24.72,-9.6 38.64,-9.6 14.64,0 30.95,3.6 42.47,13.91 11.03,10.33 16.54,26.39 16.54,53.26 z m -21.11,-35.04 c 0,-3.59 -0.48,-7.67 -1.67,-11.26 -4.33,-13.44 -16.08,-21.6 -29.28,-21.6 -22.55,0 -34.31,18.96 -34.31,41.75 0,26.86 14.4,43.91 34.55,43.91 15.6,0 25.68,-10.08 29.51,-22.56 0.97,-2.64 1.2,-5.75 1.2,-9.36 z m 129.85,-49.42 v 100.05 h 28.08 v 16.08 h -28.08 v 6.25 c 0,17.98 4.56,33.58 22.56,33.58 6.23,0 10.31,-1.19 13.44,-2.65 l 2.87,16.33 c -4.08,1.67 -10.31,3.36 -18,3.36 -9.83,0 -20.39,-3.12 -28.31,-10.79 -9.59,-9.36 -13.44,-24.24 -13.44,-40.57 v -5.51 h -16.08 v -16.08 h 16.08 v -100.05 z m 47.04,0 h 21.11 v 61.91 c 0,3.36 0.25,6.95 0.72,9.83 2.89,15.84 13.44,26.87 28.32,26.87 2.89,0 5.04,0 7.2,-0.47 v 19.91 c -1.92,0.25 -3.6,0.48 -5.75,0.48 -14.16,0 -27.13,-9.84 -32.41,-25.43 h -0.72 l -0.95,23.03 h -18.47 c 0.72,-10.8 0.95,-22.55 0.95,-36.22 z m 125.27,118.53 c -31.9,0 -57.57,-22.79 -57.57,-61.42 0,-36.72 24.46,-59.75 55.65,-59.75 27.83,0 57.83,18.72 57.83,61.67 0,35.27 -22.56,59.5 -55.91,59.5 z m -0.48,-15.84 c 24.95,0 34.8,-24.7 34.8,-44.38 0,-26.15 -15.13,-45.1 -35.27,-45.1 -20.64,0 -35.03,19.18 -35.03,44.62 0,21.83 10.8,44.86 35.5,44.86 z m 83.05,-102.69 h 21.11 v 69.83 c 0,3.59 0.49,7.19 1.44,9.83 3.84,11.76 14.64,21.59 28.31,21.59 19.93,0 26.88,-15.59 26.88,-34.31 v -66.94 h 21.12 v 69.11 c 0,39.83 -24.95,49.42 -41.03,49.42 -19.2,0 -32.64,-10.79 -38.39,-21.59 h -0.48 l -1.21,19.19 h -18.7 c 0.72,-9.6 0.95,-19.19 0.95,-31.42 z m 137.04,137.72 v -21.59 h -18 v -16.08 h 18 v -63.34 c 0,-13.68 2.41,-23.99 8.16,-30.47 5.05,-5.52 12.95,-8.88 22.8,-8.88 8.15,0 14.64,1.44 18.72,2.88 l -0.97,16.07 c -3.11,-0.95 -6.47,-1.43 -12.24,-1.43 -11.75,0 -15.83,8.15 -15.83,22.56 v 62.61 h 30.24 v 16.08 H 5211 v 27.84 z m 117.6,-132.2 c 8.16,-4.8 19.93,-8.16 32.65,-8.16 27.1,0 43.18,14.39 43.18,35.03 0,17.28 -10.56,27.36 -30.47,34.8 -15.12,6 -21.84,10.31 -21.84,19.91 0,8.64 6.72,15.84 19.2,15.84 10.8,0 19.19,-4.08 23.75,-6.97 l 5.03,15.36 c -6.23,4.08 -16.54,7.2 -28.31,7.2 -24.7,0 -40.06,-15.36 -40.06,-34.07 0,-13.91 9.83,-25.19 30.95,-32.86 15.36,-5.77 21.35,-11.05 21.35,-21.13 0,-9.83 -7.19,-17.26 -22.32,-17.26 -10.54,0 -21.59,4.31 -28.06,8.15 z m 107.76,132.2 v -21.59 h -18 v -16.08 h 18 v -63.34 c 0,-13.68 2.41,-23.99 8.16,-30.47 5.05,-5.52 12.95,-8.88 22.8,-8.88 8.15,0 14.64,1.44 18.71,2.88 l -0.96,16.07 c -3.11,-0.95 -6.47,-1.43 -12.24,-1.43 -11.75,0 -15.83,8.15 -15.83,22.56 v 62.61 h 30.24 v 16.08 h -30.24 v 27.84 z m 74.64,-137.72 h 21.1 v 61.91 c 0,3.36 0.25,6.95 0.72,9.83 2.89,15.84 13.44,26.87 28.32,26.87 2.89,0 5.04,0 7.2,-0.47 v 19.91 c -1.92,0.25 -3.59,0.48 -5.75,0.48 -14.16,0 -27.13,-9.84 -32.41,-25.43 h -0.72 l -0.95,23.03 h -18.47 c 0.72,-10.8 0.96,-22.55 0.96,-36.22 z m 169.41,54.22 c 0.49,2.41 0.74,5.53 0.74,9.84 0,21.36 -9.85,54.47 -48,54.47 -33.83,0 -54.46,-27.36 -54.46,-62.39 0,-35.03 21.35,-58.78 57.1,-58.78 18.48,0 31.44,4.08 38.87,7.44 l -3.84,15.12 c -7.67,-3.36 -17.03,-6 -32.14,-6 -21.36,0 -39.36,11.75 -39.84,40.3 z m -81.32,15.13 c 1.67,14.64 10.79,34.06 32.39,34.06 23.75,0 29.51,-20.88 29.26,-34.06 z m 100.3,-63.83 c 8.16,-4.8 19.93,-8.16 32.64,-8.16 27.11,0 43.19,14.39 43.19,35.03 0,17.28 -10.56,27.36 -30.47,34.8 -15.12,6 -21.84,10.31 -21.84,19.91 0,8.64 6.72,15.84 19.2,15.84 10.8,0 19.19,-4.08 23.75,-6.97 l 5.03,15.36 c -6.23,4.08 -16.54,7.2 -28.31,7.2 -24.7,0 -40.06,-15.36 -40.06,-34.07 0,-13.91 9.83,-25.19 30.95,-32.86 15.36,-5.77 21.35,-11.05 21.35,-21.13 0,-9.83 -7.19,-17.26 -22.32,-17.26 -10.54,0 -21.59,4.31 -28.06,8.15 z m 95.04,0 c 8.16,-4.8 19.92,-8.16 32.64,-8.16 27.11,0 43.19,14.39 43.19,35.03 0,17.28 -10.56,27.36 -30.47,34.8 -15.12,6 -21.84,10.31 -21.84,19.91 0,8.64 6.72,15.84 19.2,15.84 10.8,0 19.19,-4.08 23.75,-6.97 l 5.03,15.36 c -6.23,4.08 -16.54,7.2 -28.31,7.2 -24.7,0 -40.06,-15.36 -40.06,-34.07 0,-13.91 9.83,-25.19 30.95,-32.86 15.36,-5.77 21.34,-11.05 21.34,-21.13 0,-9.83 -7.18,-17.26 -22.31,-17.26 -10.54,0 -21.59,4.31 -28.06,8.15 z" /><g
         transform="scale(10)"
         id="g248"><text
           id="text252"
           style="font-variant:normal;font-weight:normal;font-size:24px;font-family:MyriadPro;-inkscape-font-specification:MyriadPro-Regular;writing-mode:lr-tb;fill:#231f20;fill-opacity:1;fill-rule:nonzero;stroke:none"
           transform="matrix(1,0,0,-1,233.306,105.84)"><tspan
             id="tspan250"
             y="0"
             x="0 15.792 28.968 34.055412 43.559414 49.223415 54.839413 68.494705 76.726143 90.046143 103.22215 108.31014 120.86214 133.86995">No slip/no ﬂow</tspan></text>
</g><path
         id="path254"
         style="fill:none;stroke:#231f20;stroke-width:2.5;stroke-linecap:butt;stroke-linejoin:miter;stroke-miterlimit:4;stroke-dasharray:none;stroke-opacity:1"
         d="m 2370.96,1058.4 v 69.11 c 0,26.86 -0.23,46.3 -1.43,66.69 l 0.72,0.25 c 7.92,-17.52 18.71,-36 30,-53.99 l 51.34,-82.06 h 21.11 v 161.72 h -19.67 v -67.66 c 0,-25.2 0.48,-44.87 2.4,-66.46 l -0.73,-0.24 c -7.44,16.55 -17.03,33.58 -28.78,52.55 l -51.6,81.81 h -23.03 V 1058.4 Z m 186.72,118.53 c -31.9,0 -57.57,-22.79 -57.57,-61.42 0,-36.72 24.46,-59.75 55.65,-59.75 27.83,0 57.83,18.72 57.83,61.67 0,35.27 -22.56,59.5 -55.91,59.5 z m -0.48,-15.84 c 24.95,0 34.8,-24.7 34.8,-44.38 0,-26.15 -15.13,-45.1 -35.27,-45.1 -20.64,0 -35.03,19.18 -35.03,44.62 0,21.83 10.8,44.86 35.5,44.86 z m 126,-97.17 c 8.16,-4.8 19.93,-8.16 32.64,-8.16 27.11,0 43.19,14.39 43.19,35.03 0,17.28 -10.56,27.36 -30.47,34.8 -15.12,6 -21.84,10.31 -21.84,19.91 0,8.64 6.72,15.84 19.2,15.84 10.8,0 19.19,-4.08 23.75,-6.97 l 5.03,15.36 c -6.23,4.08 -16.54,7.2 -28.31,7.2 -24.7,0 -40.06,-15.36 -40.06,-34.07 0,-13.91 9.83,-25.19 30.95,-32.86 15.36,-5.77 21.35,-11.05 21.35,-21.13 0,-9.83 -7.19,-17.26 -22.32,-17.26 -10.54,0 -21.59,4.31 -28.06,8.15 z m 102.96,-5.52 h 21.11 v 170.36 h -21.11 z m 77.75,0 v 116.13 H 2842.8 V 1058.4 Z m -10.54,161.96 c -7.92,0 -13.21,-6 -13.21,-13.19 0,-7.21 5.05,-12.97 12.72,-12.97 8.39,0 13.44,5.76 13.44,12.97 0,7.44 -5.28,13.19 -12.95,13.19 z m 45.61,-209.46 h 20.87 v 63.1 h 0.49 c 6.95,-11.52 20.39,-18.24 35.75,-18.24 27.34,0 53.01,20.64 53.01,62.39 0,35.03 -21.11,58.78 -49.42,58.78 -18.95,0 -32.88,-8.15 -41.27,-22.31 h -0.48 l -1.2,19.91 h -18.71 c 0.47,-11.03 0.96,-23.03 0.96,-37.91 z m 20.87,114.92 c 0,2.64 0.72,5.77 1.44,8.39 3.84,15.85 17.51,25.93 31.91,25.93 22.32,0 34.56,-19.93 34.56,-42.96 0,-26.62 -12.97,-44.86 -35.28,-44.86 -15.11,0 -27.83,10.08 -31.68,24.71 -0.71,2.64 -0.95,5.53 -0.95,8.64 z m 113.99,-76.78 67.19,173.96 h -16.55 l -66.7,-173.96 z m 84,9.36 h 21.11 v 69.83 c 0,3.59 0.48,7.19 1.43,9.83 3.85,11.76 14.64,21.59 28.32,21.59 19.92,0 26.87,-15.59 26.87,-34.31 v -66.94 h 21.13 v 69.11 c 0,39.83 -24.96,49.42 -41.04,49.42 -19.2,0 -32.64,-10.79 -38.39,-21.59 h -0.48 l -1.2,19.19 h -18.71 c 0.72,-9.6 0.96,-19.19 0.96,-31.42 z m 182.39,118.53 c -31.9,0 -57.57,-22.79 -57.57,-61.42 0,-36.72 24.47,-59.75 55.65,-59.75 27.83,0 57.83,18.72 57.83,61.67 0,35.27 -22.56,59.5 -55.91,59.5 z m -0.48,-15.84 c 24.95,0 34.8,-24.7 34.8,-44.38 0,-26.15 -15.13,-45.1 -35.27,-45.1 -20.64,0 -35.03,19.18 -35.03,44.62 0,21.83 10.8,44.86 35.5,44.86 z m 156.96,-102.69 v 100.05 h 27.11 v 16.08 h -27.11 v 6 c 0,18.48 7.44,34.54 29.29,34.54 8.15,0 13.67,-1.18 17.26,-3.11 V 1058.4 h 21.13 v 165.31 c -8.89,4.8 -21.36,7.69 -34.8,7.69 -16.31,0 -28.31,-4.08 -37.44,-11.76 -10.79,-9.36 -16.31,-23.75 -16.31,-40.07 v -5.04 h -16.08 v -16.08 h 16.08 V 1058.4 Z m 151.68,118.53 c -31.91,0 -57.58,-22.79 -57.58,-61.42 0,-36.72 24.47,-59.75 55.66,-59.75 27.83,0 57.83,18.72 57.83,61.67 0,35.27 -22.57,59.5 -55.91,59.5 z m -0.48,-15.84 c 24.95,0 34.79,-24.7 34.79,-44.38 0,-26.15 -15.12,-45.1 -35.26,-45.1 -20.64,0 -35.03,19.18 -35.03,44.62 0,21.83 10.79,44.86 35.5,44.86 z m 68.16,13.44 35.04,-116.13 h 19.2 l 18.72,55.19 c 4.08,12.47 7.67,24.47 10.54,38.39 h 0.49 c 2.87,-13.67 6.23,-25.2 10.31,-38.16 l 17.77,-55.42 h 19.18 l 37.44,116.13 h -20.87 l -16.57,-58.3 c -3.84,-13.67 -6.95,-25.92 -8.87,-37.67 h -0.72 c -2.64,11.75 -6,24 -10.31,37.9 l -18,58.07 h -17.75 l -18.97,-59.27 c -3.83,-12.47 -7.67,-24.95 -10.31,-36.7 h -0.72 c -2.16,12 -5.28,24 -8.39,36.95 l -15.61,59.02 z" /><g
         transform="scale(10)"
         id="g256"><text
           id="text260"
           style="font-variant:normal;font-weight:normal;font-size:24px;font-family:MyriadPro;-inkscape-font-specification:MyriadPro-Regular;writing-mode:lr-tb;fill:#231f20;fill-opacity:1;fill-rule:nonzero;stroke:none"
           transform="matrix(1,0,0,-1,0.273828,322.581)"><tspan
             id="tspan258"
             y="0"
             x="0 15.792 28.968 34.055397 43.559399 49.2234 54.839397">No slip</tspan></text>
</g><path
         id="path262"
         style="fill:none;stroke:#231f20;stroke-width:2.5;stroke-linecap:butt;stroke-linejoin:miter;stroke-miterlimit:4;stroke-dasharray:none;stroke-opacity:1"
         d="m 40.6445,3225.81 v 69.11 c 0,26.86 -0.2343,46.3 -1.4375,66.69 l 0.7188,0.25 c 7.9219,-17.52 18.7187,-36 30,-53.98 l 51.3442,-82.07 h 21.109 v 161.72 h -19.672 v -67.65 c 0,-25.21 0.484,-44.88 2.406,-66.47 l -0.734,-0.24 c -7.438,16.55 -17.031,33.58 -28.7813,52.55 l -51.5938,81.81 H 20.9727 v -161.72 z m 186.7105,118.53 c -31.906,0 -57.578,-22.79 -57.578,-61.42 0,-36.72 24.469,-59.75 55.657,-59.75 27.828,0 57.828,18.72 57.828,61.67 0,35.27 -22.563,59.5 -55.907,59.5 z m -0.484,-15.84 c 24.953,0 34.797,-24.7 34.797,-44.37 0,-26.16 -15.125,-45.11 -35.266,-45.11 -20.64,0 -35.031,19.18 -35.031,44.62 0,21.83 10.797,44.86 35.5,44.86 z m 126.016,-97.17 c 8.156,-4.8 19.922,-8.16 32.64,-8.16 27.11,0 43.188,14.39 43.188,35.03 0,17.28 -10.563,27.36 -30.469,34.8 -15.125,6 -21.844,10.31 -21.844,19.91 0,8.64 6.719,15.84 19.203,15.84 10.797,0 19.188,-4.08 23.75,-6.97 l 5.032,15.36 c -6.235,4.08 -16.547,7.2 -28.313,7.2 -24.703,0 -40.062,-15.36 -40.062,-34.07 0,-13.91 9.828,-25.19 30.953,-32.86 15.359,-5.77 21.344,-11.05 21.344,-21.13 0,-9.83 -7.188,-17.26 -22.313,-17.26 -10.547,0 -21.594,4.31 -28.062,8.15 z m 102.961,-5.52 h 21.109 v 170.36 h -21.109 z m 77.75,0 v 116.13 h -21.11 v -116.13 z m -10.547,161.96 c -7.922,0 -13.203,-6 -13.203,-13.19 0,-7.2 5.047,-12.97 12.718,-12.97 8.391,0 13.438,5.77 13.438,12.97 0,7.44 -5.281,13.19 -12.953,13.19 z m 45.597,-209.46 h 20.875 v 63.1 h 0.485 c 6.953,-11.52 20.39,-18.24 35.75,-18.24 27.344,0 53.015,20.64 53.015,62.39 0,35.03 -21.109,58.78 -49.421,58.78 -18.954,0 -32.875,-8.15 -41.266,-22.31 h -0.484 l -1.204,19.91 h -18.703 c 0.469,-11.03 0.953,-23.03 0.953,-37.91 z m 20.875,114.92 c 0,2.65 0.719,5.77 1.438,8.4 3.844,15.84 17.516,25.92 31.906,25.92 22.328,0 34.563,-19.92 34.563,-42.96 0,-26.62 -12.969,-44.86 -35.282,-44.86 -15.109,0 -27.828,10.08 -31.671,24.71 -0.719,2.64 -0.954,5.53 -0.954,8.64 z" /><g
         transform="scale(10)"
         id="g264"><text
           id="text268"
           style="font-variant:normal;font-weight:normal;font-size:24px;font-family:MyriadPro;-inkscape-font-specification:MyriadPro-Regular;writing-mode:lr-tb;fill:#231f20;fill-opacity:1;fill-rule:nonzero;stroke:none"
           transform="matrix(1,0,0,-1,0.273828,293.782)"><tspan
             id="tspan266"
             y="0"
             x="0 8.2320004 21.551302 34.727303 39.8153 52.367302 65.376099">/no ﬂow</tspan></text>
</g><path
         id="path270"
         style="fill:none;stroke:#231f20;stroke-width:2.5;stroke-linecap:butt;stroke-linejoin:miter;stroke-miterlimit:4;stroke-dasharray:none;stroke-opacity:1"
         d="m 18.5664,2928.46 67.1875,173.95 H 69.207 L 2.50391,2928.46 Z m 84.0076,9.36 h 21.11 v 69.83 c 0,3.59 0.484,7.19 1.437,9.83 3.844,11.76 14.641,21.59 28.313,21.59 19.921,0 26.875,-15.59 26.875,-34.31 v -66.94 h 21.125 v 69.11 c 0,39.83 -24.954,49.42 -41.032,49.42 -19.203,0 -32.64,-10.8 -38.39,-21.59 h -0.485 l -1.203,19.19 h -18.703 c 0.719,-9.6 0.953,-19.19 0.953,-31.43 z m 182.383,118.53 c -31.906,0 -57.578,-22.8 -57.578,-61.42 0,-36.72 24.469,-59.75 55.656,-59.75 27.828,0 57.828,18.72 57.828,61.67 0,35.27 -22.562,59.5 -55.906,59.5 z m -0.484,-15.84 c 24.953,0 34.797,-24.71 34.797,-44.38 0,-26.15 -15.125,-45.11 -35.266,-45.11 -20.641,0 -35.031,19.19 -35.031,44.63 0,21.83 10.797,44.86 35.5,44.86 z m 156.965,-102.69 v 100.05 h 27.109 v 16.08 h -27.109 v 6 c 0,18.48 7.437,34.54 29.281,34.54 8.156,0 13.672,-1.19 17.265,-3.11 v -153.56 h 21.125 v 165.31 c -8.89,4.8 -21.359,7.69 -34.796,7.69 -16.313,0 -28.313,-4.08 -37.438,-11.77 -10.797,-9.35 -16.312,-23.75 -16.312,-40.06 v -5.04 h -16.079 v -16.08 h 16.079 v -100.05 z m 151.675,118.53 c -31.906,0 -57.578,-22.8 -57.578,-61.42 0,-36.72 24.469,-59.75 55.656,-59.75 27.829,0 57.829,18.72 57.829,61.67 0,35.27 -22.563,59.5 -55.907,59.5 z m -0.484,-15.84 c 24.953,0 34.797,-24.71 34.797,-44.38 0,-26.15 -15.125,-45.11 -35.266,-45.11 -20.64,0 -35.031,19.19 -35.031,44.63 0,21.83 10.797,44.86 35.5,44.86 z m 68.176,13.44 35.031,-116.13 h 19.203 l 18.719,55.19 c 4.078,12.47 7.672,24.47 10.547,38.39 h 0.484 c 2.875,-13.67 6.234,-25.2 10.313,-38.16 l 17.765,-55.42 h 19.188 l 37.437,116.13 h -20.875 l -16.562,-58.3 c -3.844,-13.67 -6.953,-25.92 -8.875,-37.67 h -0.719 c -2.641,11.75 -6,24 -10.313,37.9 l -18,58.07 h -17.75 l -18.968,-59.27 c -3.828,-12.47 -7.672,-24.95 -10.313,-36.7 h -0.719 c -2.156,12 -5.281,24 -8.39,36.95 l -15.61,59.02 z" /><path
         id="path272"
         style="fill:#bdbcbc;fill-opacity:1;fill-rule:nonzero;stroke:none"
         d="M 1007.4,450.859 H 753.762 v 282.18 H 1007.4 v -282.18" /><path
         id="path274"
         style="fill:none;stroke:#231f20;stroke-width:20;stroke-linecap:butt;stroke-linejoin:miter;stroke-miterlimit:10;stroke-dasharray:none;stroke-opacity:1"
         d="M 1007.4,450.859 H 753.762 v 282.18 H 1007.4 Z" /><path
         id="path276"
         style="fill:#ffffff;fill-opacity:1;fill-rule:nonzero;stroke:none"
         d="M 1006.35,115.109 H 752.699 v 282.18 h 253.651 v -282.18" /><path
         id="path278"
         style="fill:none;stroke:#231f20;stroke-width:20;stroke-linecap:butt;stroke-linejoin:miter;stroke-miterlimit:10;stroke-dasharray:none;stroke-opacity:1"
         d="M 1006.35,115.109 H 752.699 v 282.18 h 253.651 z" /><path
         id="path280"
         style="fill:none;stroke:#231f20;stroke-width:20;stroke-linecap:butt;stroke-linejoin:miter;stroke-miterlimit:10;stroke-dasharray:none;stroke-opacity:1"
         d="M 177.898,5220 H 403.977" /><path
         id="path282"
         style="fill:#231f20;fill-opacity:1;fill-rule:nonzero;stroke:none"
         d="m 524.68,5220 c -56.797,-21.07 -127.27,-57.03 -170.95,-95.11 l 34.407,95.11 -34.407,95.1 c 43.68,-38.08 114.153,-74.04 170.95,-95.1" /><path
         id="path284"
         style="fill:none;stroke:#231f20;stroke-width:20;stroke-linecap:butt;stroke-linejoin:miter;stroke-miterlimit:10;stroke-dasharray:none;stroke-opacity:1"
         d="M 177.734,5215.01 V 4988.93" /><path
         id="path286"
         style="fill:#231f20;fill-opacity:1;fill-rule:nonzero;stroke:none"
         d="m 177.734,4868.23 c -21.074,56.79 -57.031,127.26 -95.1168,170.94 l 95.1168,-34.4 95.098,34.4 c -38.086,-43.68 -74.043,-114.15 -95.098,-170.94" /><g
         transform="scale(10)"
         id="g288"><text
           id="text298"
           style="font-variant:normal;font-weight:normal;font-size:24px;font-family:MyriadPro;-inkscape-font-specification:MyriadPro-Regular;writing-mode:lr-tb;fill:#231f20;fill-opacity:1;fill-rule:nonzero;stroke:none"
           transform="matrix(1,0,0,-1,51.6289,515.582)"><tspan
             id="tspan290"
             y="0"
             x="0">X</tspan><tspan
             id="tspan292"
             y="48.161301"
             x="-39.742199">Y</tspan><tspan
             id="tspan294"
             y="464.87131"
             x="53.484001 66.804001 86.82 98.388 107.892 119.148 124.23518 138.53918 143.62659">hmask = 1</tspan><tspan
             id="tspan296"
             y="498.22519"
             x="53.225018 66.545013 86.561012 98.129013 107.63302 118.88902 123.9762 138.2802 143.3676">hmask = 0</tspan></text>
</g><path
         id="path300"
         style="fill:none;stroke:#231f20;stroke-width:20;stroke-linecap:butt;stroke-linejoin:miter;stroke-miterlimit:10;stroke-dasharray:none;stroke-opacity:1"
         d="M 3029.88,817.102 2918.02,684.289" /><path
         id="path302"
         style="fill:none;stroke:#231f20;stroke-width:20;stroke-linecap:butt;stroke-linejoin:miter;stroke-miterlimit:10;stroke-dasharray:none;stroke-opacity:1"
         d="M 2915.48,807.051 3032.43,680.012" /><path
         id="path304"
         style="fill:none;stroke:#231f20;stroke-width:20;stroke-linecap:butt;stroke-linejoin:miter;stroke-miterlimit:10;stroke-dasharray:none;stroke-opacity:1"
         d="M 3037.09,370 H 2900 v 129.039 h 137.09 z" /><path
         id="path306"
         style="fill:none;stroke:#231f20;stroke-width:20;stroke-linecap:butt;stroke-linejoin:miter;stroke-miterlimit:10;stroke-dasharray:none;stroke-opacity:1"
         d="m 3036.93,134.52 c 0,-35.6177 -32.5,-64.5083 -72.58,-64.5083 -40.09,0 -72.58,28.8906 -72.58,64.5083 0,35.632 32.49,64.523 72.58,64.523 40.08,0 72.58,-28.891 72.58,-64.523 z" /><g
         transform="scale(10)"
         id="g308"><text
           id="text316"
           style="font-variant:normal;font-weight:normal;font-size:24px;font-family:MyriadPro;-inkscape-font-specification:MyriadPro-Regular;writing-mode:lr-tb;fill:#231f20;fill-opacity:1;fill-rule:nonzero;stroke:none"
           transform="matrix(1,0,0,-1,330.791,67.743)"><tspan
             id="tspan310"
             y="0"
             x="0 13.224 33.240002 44.807999 54.312 65.568001 70.655998 84.959999 90.047997 101.592 121.608 133.17599 142.67999 153.936 159.024 173.328 178.416">umask = vmask = 0</tspan><tspan
             id="tspan312"
             y="30.9039"
             x="0.032031301 13.256031 33.27203 44.840031 54.344032 65.600029 70.688034 84.992035 90.080032 102.39203 107.36003 112.44803 123.99203 144.00803 155.57603 165.08003 176.33603 181.42403 195.72803 200.81602 213.12749">umask = 1, vmask = 1 </tspan><tspan
             id="tspan314"
             y="61.743"
             x="-0.4519527 12.772047 32.788048 44.356049 53.860046 65.116051 70.204048 84.508049 89.596046 101.90805 106.87605 111.96405 123.50805 143.52405 155.09204 164.59605 175.85205 180.94005 195.24405 200.33205">umask = 1, vmask = 0</tspan></text>
</g></g></g></svg>