<svg id="Layer_1" data-name="Layer 1" xmlns="http://www.w3.org/2000/svg" xmlns:xlink="http://www.w3.org/1999/xlink" width="170.86mm" height="137.58mm" viewBox="0 0 484.34 390"><defs><style>.cls-1,.cls-11,.cls-14,.cls-4,.cls-5,.cls-8,.cls-9{fill:none;}.cls-2{clip-path:url(#clip-path);}.cls-3{fill:#fff;}.cls-4{stroke:#fff;}.cls-11,.cls-14,.cls-4,.cls-5,.cls-8,.cls-9{stroke-linejoin:round;}.cls-11,.cls-4,.cls-5{stroke-width:0.5px;}.cls-11,.cls-5{stroke:#000;}.cls-6{font-size:10px;}.cls-10,.cls-12,.cls-13,.cls-6{fill:#231f20;}.cls-12,.cls-13,.cls-6{font-family:Helvetica, Helvetica;}.cls-7{clip-path:url(#clip-path-10);}.cls-8{stroke:#ed2024;}.cls-14,.cls-8,.cls-9{stroke-width:2px;}.cls-9{stroke:#6abd45;}.cls-10{font-size:14px;font-family:Helvetica-Bold, Helvetica;font-weight:700;}.cls-11{stroke-dasharray:6;}.cls-12{font-size:8px;}.cls-13{font-size:6px;}.cls-14{stroke:#3953a4;}</style><clipPath id="clip-path"><rect class="cls-1" x="6" y="7" width="478.33" height="373.92"/></clipPath><clipPath id="clip-path-10"><rect class="cls-1" x="25.59" y="16.58" width="446.42" height="352.25"/></clipPath></defs><title>Artboard 1</title><g class="cls-2"><rect class="cls-3" x="-49.33" y="-15.83" width="576.08" height="432.17"/></g><rect class="cls-3" x="25.59" y="16.58" width="446.33" height="352.17"/><polyline class="cls-4" points="25.59 368.75 25.59 16.58 471.92 16.58 471.92 368.75 25.59 368.75"/><path class="cls-5" d="M25.59,368.75H471.92m-446.33,0V16.58m0,352.17v-4.5"/><g class="cls-2"><text class="cls-6" transform="translate(22.84 380.83)">0</text></g><line class="cls-5" x1="89.34" y1="368.75" x2="89.34" y2="364.25"/><text class="cls-6" transform="translate(81 380.83)">1</text><g class="cls-2"><text class="cls-6" transform="translate(86.56 380.83)">00</text></g><line class="cls-5" x1="153.09" y1="368.75" x2="153.09" y2="364.25"/><text class="cls-6" transform="translate(144.75 380.83)">2</text><g class="cls-2"><text class="cls-6" transform="translate(150.31 380.83)">00</text></g><line class="cls-5" x1="216.84" y1="368.75" x2="216.84" y2="364.25"/><g class="cls-2"><text class="cls-6" transform="translate(208.5 380.83)">300</text></g><line class="cls-5" x1="280.59" y1="368.75" x2="280.59" y2="364.25"/><text class="cls-6" transform="translate(272.25 380.83)">4</text><g class="cls-2"><text class="cls-6" transform="translate(277.81 380.83)">00</text></g><line class="cls-5" x1="344.34" y1="368.75" x2="344.34" y2="364.25"/><g class="cls-2"><text class="cls-6" transform="translate(336 380.83)">500</text></g><line class="cls-5" x1="408.09" y1="368.75" x2="408.09" y2="364.25"/><g class="cls-2"><text class="cls-6" transform="translate(399.75 380.83)">600</text></g><line class="cls-5" x1="471.92" y1="368.75" x2="471.92" y2="364.25"/><text class="cls-6" transform="translate(463.59 380.83)">7</text><g class="cls-2"><text class="cls-6" transform="translate(469.15 380.83)">00</text></g><line class="cls-5" x1="25.59" y1="368.75" x2="30" y2="368.75"/><text class="cls-6" transform="translate(17.17 372.42)">0</text><line class="cls-5" x1="25.59" y1="310" x2="30" y2="310"/><text class="cls-6" transform="translate(6 313.67)">100</text><line class="cls-5" x1="25.59" y1="251.33" x2="30" y2="251.33"/><text class="cls-6" transform="translate(6 254.99)">200</text><line class="cls-5" x1="25.59" y1="192.67" x2="30" y2="192.67"/><text class="cls-6" transform="translate(6 196.33)">300</text><line class="cls-5" x1="25.59" y1="133.92" x2="30" y2="133.92"/><text class="cls-6" transform="translate(6 137.58)">400</text><line class="cls-5" x1="25.59" y1="75.25" x2="30" y2="75.25"/><text class="cls-6" transform="translate(6 78.91)">500</text><line class="cls-5" x1="25.59" y1="16.58" x2="30" y2="16.58"/><text class="cls-6" transform="translate(6 20.25)">600</text><g class="cls-7"><path class="cls-8" d="M26.17,368.08H82.92m0-210.67H26.17"/><path class="cls-9" d="M82.92,368.08V157.42m-56.75,0V368.08"/></g><text class="cls-10" transform="translate(54.59 267.92)">f1</text><g class="cls-7"><polyline class="cls-11" points="26.17 368.08 82.92 368.08 82.92 315.92 26.17 315.92 26.17 368.08"/></g><text class="cls-6" transform="translate(54.59 345.5)">t1</text><text class="cls-12" transform="translate(29.76 341.24)">f5</text><text class="cls-13" transform="translate(36.42 345.25)">n</text><text class="cls-12" transform="translate(54.59 360.74)">f6</text><text class="cls-13" transform="translate(61.26 364.75)">n</text><text class="cls-12" transform="translate(73.34 341.24)">f2</text><text class="cls-13" transform="translate(80.01 345.25)">w</text><g class="cls-7"><polyline class="cls-11" points="26.17 315.33 82.92 315.33 82.92 263.08 26.17 263.08 26.17 315.33"/></g><text class="cls-6" transform="translate(54.59 292.66)">t2</text><text class="cls-12" transform="translate(29.76 288.41)">f5</text><text class="cls-13" transform="translate(36.42 292.42)">n</text><text class="cls-12" transform="translate(73.34 288.41)">f2</text><text class="cls-13" transform="translate(80.01 292.42)">w</text><g class="cls-7"><polyline class="cls-11" points="26.17 262.5 82.92 262.5 82.92 210.25 26.17 210.25 26.17 262.5"/></g><text class="cls-6" transform="translate(54.59 239.83)">t3</text><text class="cls-12" transform="translate(29.76 235.58)">f5</text><text class="cls-13" transform="translate(36.42 239.58)">n</text><text class="cls-12" transform="translate(73.34 235.58)">f2</text><text class="cls-13" transform="translate(80.01 239.58)">w</text><g class="cls-7"><polyline class="cls-11" points="26.17 209.67 82.92 209.67 82.92 157.42 26.17 157.42 26.17 209.67"/></g><text class="cls-6" transform="translate(54.59 186.99)">t4</text><text class="cls-12" transform="translate(29.76 182.75)">f5</text><text class="cls-13" transform="translate(36.42 186.75)">n</text><text class="cls-12" transform="translate(54.59 165.5)">f3</text><text class="cls-13" transform="translate(61.26 169.5)">w</text><text class="cls-12" transform="translate(73.34 182.75)">f2</text><text class="cls-13" transform="translate(80.01 186.75)">w</text><g class="cls-7"><path class="cls-14" d="M83.59,368.08h56.75m0-210.67H83.59"/><path class="cls-9" d="M140.34,368.08V157.42m-56.75,0V368.08"/></g><text class="cls-10" transform="translate(111.92 267.92)">f2</text><g class="cls-7"><polyline class="cls-11" points="83.59 368.08 140.34 368.08 140.34 315.92 83.59 315.92 83.59 368.08"/></g><text class="cls-6" transform="translate(111.92 345.5)">t5</text><text class="cls-12" transform="translate(87.17 341.24)">f1</text><text class="cls-13" transform="translate(93.84 345.25)">e</text><text class="cls-12" transform="translate(111.92 360.74)">f6</text><text class="cls-13" transform="translate(118.59 364.75)">e</text><text class="cls-12" transform="translate(130.76 341.24)">f4</text><text class="cls-13" transform="translate(137.42 345.25)">s</text><polyline class="cls-11" points="83.59 315.33 140.34 315.33 140.34 263.08 83.59 263.08 83.59 315.33"/><text class="cls-6" transform="translate(111.92 292.66)">t6</text><text class="cls-12" transform="translate(87.17 288.41)">f1</text><text class="cls-13" transform="translate(93.84 292.42)">e</text><text class="cls-12" transform="translate(130.76 288.41)">f4</text><text class="cls-13" transform="translate(137.42 292.42)">s</text><polyline class="cls-11" points="83.59 262.5 140.34 262.5 140.34 210.25 83.59 210.25 83.59 262.5"/><text class="cls-6" transform="translate(111.92 239.83)">t7</text><text class="cls-12" transform="translate(87.17 235.58)">f1</text><text class="cls-13" transform="translate(93.84 239.58)">e</text><text class="cls-12" transform="translate(130.76 235.58)">f4</text><text class="cls-13" transform="translate(137.42 239.58)">s</text><polyline class="cls-11" points="83.59 209.67 140.34 209.67 140.34 157.42 83.59 157.42 83.59 209.67"/><text class="cls-6" transform="translate(111.92 186.99)">t8</text><text class="cls-12" transform="translate(87.17 182.75)">f1</text><text class="cls-13" transform="translate(93.84 186.75)">e</text><text class="cls-12" transform="translate(111.92 165.5)">f3</text><text class="cls-13" transform="translate(118.59 169.5)">s</text><text class="cls-12" transform="translate(130.76 182.75)">f4</text><text class="cls-13" transform="translate(137.42 186.75)">s</text><path class="cls-14" d="M83.59,156.83h56.75m0-52.25H83.59"/><path class="cls-8" d="M140.34,156.83V104.58m-56.75,0v52.25"/><text class="cls-10" transform="translate(102.51 135.83)">f3</text><polyline class="cls-11" points="83.59 156.83 140.34 156.83 140.34 104.58 83.59 104.58 83.59 156.83"/><text class="cls-6" transform="translate(115.5 134.17)">t9</text><text class="cls-12" transform="translate(87.17 129.92)">f1</text><text class="cls-13" transform="translate(93.84 133.92)">n</text><text class="cls-12" transform="translate(111.92 112.66)">f5</text><text class="cls-13" transform="translate(118.59 116.67)">w</text><text class="cls-12" transform="translate(111.92 149.49)">f2</text><text class="cls-13" transform="translate(118.59 153.5)">n</text><text class="cls-12" transform="translate(130.76 129.92)">f4</text><text class="cls-13" transform="translate(137.42 133.92)">w</text><path class="cls-9" d="M140.92,156.83H369.84m0-52.25H140.92"/><path class="cls-8" d="M369.84,156.83V104.58m-228.92,0v52.25"/><text class="cls-10" transform="translate(255.42 135.83)">f4</text><polyline class="cls-11" points="140.92 156.83 197.67 156.83 197.67 104.58 140.92 104.58 140.92 156.83"/><text class="cls-6" transform="translate(169.34 134.17)">t1</text><text class="cls-6" transform="translate(177.67 134.17)">0</text><text class="cls-12" transform="translate(144.51 129.92)">f3</text><text class="cls-13" transform="translate(151.17 133.92)">e</text><text class="cls-12" transform="translate(169.34 112.66)">f5</text><text class="cls-13" transform="translate(176 116.67)">s</text><text class="cls-12" transform="translate(169.34 149.49)">f2</text><text class="cls-13" transform="translate(176 153.5)">e</text><polyline class="cls-11" points="198.34 156.83 255.09 156.83 255.09 104.58 198.34 104.58 198.34 156.83"/><text class="cls-6" transform="translate(226.75 134.17)">t1</text><text class="cls-6" transform="translate(235.09 134.17)">1</text><text class="cls-12" transform="translate(226.75 112.66)">f5</text><text class="cls-13" transform="translate(233.42 116.67)">s</text><text class="cls-12" transform="translate(226.75 149.49)">f2</text><text class="cls-13" transform="translate(233.42 153.5)">e</text><polyline class="cls-11" points="255.75 156.83 312.5 156.83 312.5 104.58 255.75 104.58 255.75 156.83"/><text class="cls-6" transform="translate(284.09 134.17)">t1</text><text class="cls-6" transform="translate(292.43 134.17)">2</text><text class="cls-12" transform="translate(284.09 112.66)">f5</text><text class="cls-13" transform="translate(290.75 116.67)">s</text><text class="cls-12" transform="translate(284.09 149.49)">f2</text><text class="cls-13" transform="translate(290.75 153.5)">e</text><polyline class="cls-11" points="313.09 156.83 369.84 156.83 369.84 104.58 313.09 104.58 313.09 156.83"/><text class="cls-6" transform="translate(341.5 134.17)">t1</text><text class="cls-6" transform="translate(349.84 134.17)">3</text><text class="cls-12" transform="translate(341.5 112.66)">f5</text><text class="cls-13" transform="translate(348.17 116.67)">s</text><text class="cls-12" transform="translate(341.5 149.49)">f2</text><text class="cls-13" transform="translate(348.17 153.5)">e</text><text class="cls-12" transform="translate(360.34 129.92)">f6</text><text class="cls-13" transform="translate(367 133.92)">s</text><path class="cls-9" d="M140.92,104H369.84m0-52.25H140.92"/><path class="cls-14" d="M369.84,104V51.75m-228.92,0V104"/><text class="cls-10" transform="translate(255.42 83.08)">f5</text><polyline class="cls-11" points="140.92 104 197.67 104 197.67 51.75 140.92 51.75 140.92 104"/><text class="cls-6" transform="translate(169.34 81.41)">t1</text><text class="cls-6" transform="translate(177.67 81.41)">4</text><text class="cls-12" transform="translate(144.51 77.16)">f3</text><text class="cls-13" transform="translate(151.17 81.17)">n</text><text class="cls-12" transform="translate(169.34 59.83)">f1</text><text class="cls-13" transform="translate(176 63.83)">w</text><text class="cls-12" transform="translate(169.34 96.67)">f4</text><text class="cls-13" transform="translate(176 100.67)">n</text><polyline class="cls-11" points="198.34 104 255.09 104 255.09 51.75 198.34 51.75 198.34 104"/><text class="cls-6" transform="translate(226.75 81.41)">t1</text><text class="cls-6" transform="translate(235.09 81.41)">5</text><text class="cls-12" transform="translate(226.75 59.83)">f1</text><text class="cls-13" transform="translate(233.42 63.83)">w</text><text class="cls-12" transform="translate(226.75 96.67)">f4</text><text class="cls-13" transform="translate(233.42 100.67)">n</text><polyline class="cls-11" points="255.75 104 312.5 104 312.5 51.75 255.75 51.75 255.75 104"/><text class="cls-6" transform="translate(284.09 81.41)">t1</text><text class="cls-6" transform="translate(292.43 81.41)">6</text><text class="cls-12" transform="translate(284.09 59.83)">f1</text><text class="cls-13" transform="translate(290.75 63.83)">w</text><text class="cls-12" transform="translate(284.09 96.67)">f4</text><text class="cls-13" transform="translate(290.75 100.67)">n</text><polyline class="cls-11" points="313.09 104 369.84 104 369.84 51.75 313.09 51.75 313.09 104"/><text class="cls-6" transform="translate(341.5 81.41)">t1</text><text class="cls-6" transform="translate(349.84 81.41)">7</text><text class="cls-12" transform="translate(341.5 59.83)">f1</text><text class="cls-13" transform="translate(348.17 63.83)">w</text><text class="cls-12" transform="translate(341.5 96.67)">f4</text><text class="cls-13" transform="translate(348.17 100.67)">n</text><text class="cls-12" transform="translate(360.34 77.16)">f6</text><text class="cls-13" transform="translate(367 81.17)">w</text><path class="cls-8" d="M370.5,104h56.75m0-52.25H370.5"/><path class="cls-14" d="M427.25,104V51.75m-56.75,0V104"/><text class="cls-10" transform="translate(389.42 83.08)">f6</text><polyline class="cls-11" points="370.5 104 427.25 104 427.25 51.75 370.5 51.75 370.5 104"/><text class="cls-6" transform="translate(402.42 81.41)">t1</text><text class="cls-6" transform="translate(410.77 81.41)">8</text><text class="cls-12" transform="translate(374.09 77.16)">f5</text><text class="cls-13" transform="translate(380.75 81.17)">e</text><text class="cls-12" transform="translate(398.84 59.83)">f1</text><text class="cls-13" transform="translate(405.5 63.83)">s</text><text class="cls-12" transform="translate(398.84 96.67)">f4</text><text class="cls-13" transform="translate(405.5 100.67)">e</text><text class="cls-12" transform="translate(417.67 77.16)">f2</text><text class="cls-13" transform="translate(424.34 81.17)">s</text></svg>