<svg id="Layer_1" data-name="Layer 1" xmlns="http://www.w3.org/2000/svg" xmlns:xlink="http://www.w3.org/1999/xlink" width="172.51mm" height="136.52mm" viewBox="0 0 489 387"><defs><style>.cls-1,.cls-11,.cls-14,.cls-4,.cls-5,.cls-8,.cls-9{fill:none;}.cls-2{clip-path:url(#clip-path);}.cls-3{fill:#fff;}.cls-4{stroke:#fff;}.cls-11,.cls-14,.cls-4,.cls-5,.cls-8,.cls-9{stroke-linejoin:round;}.cls-11,.cls-4,.cls-5{stroke-width:0.5px;}.cls-11,.cls-5{stroke:#000;}.cls-6{font-size:10px;}.cls-10,.cls-12,.cls-13,.cls-6{fill:#231f20;}.cls-12,.cls-13,.cls-6{font-family:Helvetica, Helvetica;}.cls-7{clip-path:url(#clip-path-10);}.cls-8{stroke:#ed2024;}.cls-14,.cls-8,.cls-9{stroke-width:2px;}.cls-9{stroke:#6abd45;}.cls-10{font-size:14px;font-family:Helvetica-Bold, Helvetica;font-weight:700;}.cls-11{stroke-dasharray:6;}.cls-12{font-size:8px;}.cls-13{font-size:6px;}.cls-14{stroke:#3953a4;}</style><clipPath id="clip-path"><rect class="cls-1" x="6" y="5" width="478.33" height="373.92"/></clipPath><clipPath id="clip-path-10"><rect class="cls-1" x="25.59" y="14.58" width="446.42" height="352.25"/></clipPath></defs><title>Artboard 1</title><g class="cls-2"><rect class="cls-3" x="-49.33" y="-17.83" width="576.08" height="432.17"/></g><rect class="cls-3" x="25.59" y="14.58" width="446.25" height="352.17"/><polyline class="cls-4" points="25.59 366.75 25.59 14.58 471.84 14.58 471.84 366.75 25.59 366.75"/><path class="cls-5" d="M25.59,366.75H471.84m-446.25,0V14.58m0,352.17v-4.5"/><g class="cls-2"><text class="cls-6" transform="translate(22.84 378.83)">0</text></g><line class="cls-5" x1="89.34" y1="366.75" x2="89.34" y2="362.25"/><text class="cls-6" transform="translate(83.84 378.83)">2</text><g class="cls-2"><text class="cls-6" transform="translate(89.4 378.83)">0</text></g><line class="cls-5" x1="153.09" y1="366.75" x2="153.09" y2="362.25"/><text class="cls-6" transform="translate(147.59 378.83)">4</text><g class="cls-2"><text class="cls-6" transform="translate(153.15 378.83)">0</text></g><line class="cls-5" x1="216.84" y1="366.75" x2="216.84" y2="362.25"/><g class="cls-2"><text class="cls-6" transform="translate(211.34 378.83)">60</text></g><line class="cls-5" x1="280.59" y1="366.75" x2="280.59" y2="362.25"/><g class="cls-2"><text class="cls-6" transform="translate(275.09 378.83)">80</text></g><line class="cls-5" x1="344.34" y1="366.75" x2="344.34" y2="362.25"/><text class="cls-6" transform="translate(336 378.83)">1</text><g class="cls-2"><text class="cls-6" transform="translate(341.56 378.83)">00</text></g><line class="cls-5" x1="408.09" y1="366.75" x2="408.09" y2="362.25"/><text class="cls-6" transform="translate(399.75 378.83)">12</text><g class="cls-2"><text class="cls-6" transform="translate(410.88 378.83)">0</text></g><line class="cls-5" x1="471.92" y1="366.75" x2="471.92" y2="362.25"/><text class="cls-6" transform="translate(463.59 378.83)">14</text><g class="cls-2"><text class="cls-6" transform="translate(474.7 378.83)">0</text></g><line class="cls-5" x1="25.59" y1="366.75" x2="30" y2="366.75"/><text class="cls-6" transform="translate(17.17 370.42)">0</text><line class="cls-5" x1="25.59" y1="331.5" x2="30" y2="331.5"/><text class="cls-6" transform="translate(11.59 335.16)">10</text><line class="cls-5" x1="25.59" y1="296.25" x2="30" y2="296.25"/><text class="cls-6" transform="translate(11.59 299.92)">20</text><line class="cls-5" x1="25.59" y1="261.08" x2="30" y2="261.08"/><text class="cls-6" transform="translate(11.59 264.75)">30</text><line class="cls-5" x1="25.59" y1="225.83" x2="30" y2="225.83"/><text class="cls-6" transform="translate(11.59 229.5)">40</text><line class="cls-5" x1="25.59" y1="190.67" x2="30" y2="190.67"/><text class="cls-6" transform="translate(11.59 194.33)">50</text><line class="cls-5" x1="25.59" y1="155.42" x2="30" y2="155.42"/><text class="cls-6" transform="translate(11.59 159.08)">60</text><line class="cls-5" x1="25.59" y1="120.17" x2="30" y2="120.17"/><text class="cls-6" transform="translate(11.59 123.83)">70</text><line class="cls-5" x1="25.59" y1="85" x2="30" y2="85"/><text class="cls-6" transform="translate(11.59 88.67)">80</text><line class="cls-5" x1="25.59" y1="49.75" x2="30" y2="49.75"/><text class="cls-6" transform="translate(11.59 53.42)">90</text><line class="cls-5" x1="25.59" y1="14.58" x2="30" y2="14.58"/><text class="cls-6" transform="translate(6 18.25)">100</text><g class="cls-7"><path class="cls-8" d="M28.75,363.17h98.83m0-109.17H28.75"/><path class="cls-9" d="M127.59,363.17V254m-98.83,0V363.17"/></g><text class="cls-10" transform="translate(61.67 313.75)">f1</text><polyline class="cls-11" points="28.75 363.17 127.59 363.17 127.59 254 28.75 254 28.75 363.17"/><text class="cls-6" transform="translate(84.34 312.09)">t1</text><text class="cls-12" transform="translate(35.09 307.83)">f5</text><text class="cls-13" transform="translate(41.75 311.83)">n</text><text class="cls-12" transform="translate(78.17 272.09)">f3</text><text class="cls-13" transform="translate(84.84 276.08)">w</text><text class="cls-12" transform="translate(78.17 348.34)">f6</text><text class="cls-13" transform="translate(84.84 352.33)">n</text><text class="cls-12" transform="translate(110.59 307.83)">f2</text><text class="cls-13" transform="translate(117.25 311.83)">w</text><g class="cls-7"><path class="cls-14" d="M130.75,363.17h98.83m0-109.17H130.75"/><path class="cls-9" d="M229.59,363.17V254m-98.83,0V363.17"/></g><text class="cls-10" transform="translate(163.67 313.75)">f2</text><polyline class="cls-11" points="130.75 363.17 229.59 363.17 229.59 254 130.75 254 130.75 363.17"/><text class="cls-6" transform="translate(186.34 312.09)">t2</text><text class="cls-12" transform="translate(137.17 307.83)">f1</text><text class="cls-13" transform="translate(143.84 311.83)">e</text><text class="cls-12" transform="translate(180.17 272.09)">f3</text><text class="cls-13" transform="translate(186.84 276.08)">s</text><text class="cls-12" transform="translate(180.17 348.34)">f6</text><text class="cls-13" transform="translate(186.84 352.33)">e</text><text class="cls-12" transform="translate(212.59 307.83)">f4</text><text class="cls-13" transform="translate(219.25 311.83)">s</text><path class="cls-14" d="M130.75,250.5h98.83m0-109.17H130.75"/><path class="cls-8" d="M229.59,250.5V141.33m-98.83,0V250.5"/><text class="cls-10" transform="translate(163.67 201.08)">f3</text><polyline class="cls-11" points="130.75 250.5 229.59 250.5 229.59 141.33 130.75 141.33 130.75 250.5"/><text class="cls-6" transform="translate(186.34 199.41)">t3</text><text class="cls-12" transform="translate(137.17 195.16)">f1</text><text class="cls-13" transform="translate(143.84 199.17)">n</text><text class="cls-12" transform="translate(180.17 159.33)">f5</text><text class="cls-13" transform="translate(186.84 163.34)">w</text><text class="cls-12" transform="translate(180.17 235.66)">f2</text><text class="cls-13" transform="translate(186.84 239.67)">n</text><text class="cls-12" transform="translate(212.59 195.16)">f4</text><text class="cls-13" transform="translate(219.25 199.17)">w</text><path class="cls-9" d="M232.75,250.5h98.83m0-109.17H232.75"/><path class="cls-8" d="M331.59,250.5V141.33m-98.83,0V250.5"/><text class="cls-10" transform="translate(265.76 201.08)">f4</text><polyline class="cls-11" points="232.75 250.5 331.59 250.5 331.59 141.33 232.75 141.33 232.75 250.5"/><text class="cls-6" transform="translate(288.34 199.41)">t4</text><text class="cls-12" transform="translate(239.17 195.16)">f3</text><text class="cls-13" transform="translate(245.84 199.17)">e</text><text class="cls-12" transform="translate(282.17 159.33)">f5</text><text class="cls-13" transform="translate(288.84 163.34)">s</text><text class="cls-12" transform="translate(282.17 235.66)">f2</text><text class="cls-13" transform="translate(288.84 239.67)">e</text><text class="cls-12" transform="translate(314.59 195.16)">f6</text><text class="cls-13" transform="translate(321.26 199.17)">s</text><path class="cls-9" d="M232.75,137.83h98.83m0-109.17H232.75"/><path class="cls-14" d="M331.59,137.83V28.67m-98.83,0V137.83"/><text class="cls-10" transform="translate(265.76 88.42)">f5</text><polyline class="cls-11" points="232.75 137.83 331.59 137.83 331.59 28.67 232.75 28.67 232.75 137.83"/><text class="cls-6" transform="translate(288.34 86.74)">t5</text><text class="cls-12" transform="translate(239.17 82.49)">f3</text><text class="cls-13" transform="translate(245.84 86.5)">n</text><text class="cls-12" transform="translate(282.17 46.67)">f1</text><text class="cls-13" transform="translate(288.84 50.67)">w</text><text class="cls-12" transform="translate(282.17 122.99)">f4</text><text class="cls-13" transform="translate(288.84 127)">n</text><text class="cls-12" transform="translate(314.59 82.49)">f6</text><text class="cls-13" transform="translate(321.26 86.5)">w</text><path class="cls-8" d="M334.75,137.83h98.83m0-109.17H334.75"/><path class="cls-14" d="M433.59,137.83V28.67m-98.83,0V137.83"/><text class="cls-10" transform="translate(367.75 88.42)">f6</text><polyline class="cls-11" points="334.75 137.83 433.59 137.83 433.59 28.67 334.75 28.67 334.75 137.83"/><text class="cls-6" transform="translate(390.42 86.74)">t6</text><text class="cls-12" transform="translate(341.17 82.49)">f5</text><text class="cls-13" transform="translate(347.84 86.5)">e</text><text class="cls-12" transform="translate(384.17 46.67)">f1</text><text class="cls-13" transform="translate(390.84 50.67)">s</text><text class="cls-12" transform="translate(384.17 122.99)">f4</text><text class="cls-13" transform="translate(390.84 127)">e</text><text class="cls-12" transform="translate(416.59 82.49)">f2</text><text class="cls-13" transform="translate(423.25 86.5)">s</text></svg>