<?xml version="1.0" encoding="UTF-8" standalone="no"?>
<svg
   xmlns:dc="http://purl.org/dc/elements/1.1/"
   xmlns:cc="http://creativecommons.org/ns#"
   xmlns:rdf="http://www.w3.org/1999/02/22-rdf-syntax-ns#"
   xmlns:svg="http://www.w3.org/2000/svg"
   xmlns="http://www.w3.org/2000/svg"
   viewBox="0 0 641.44 635.58667"
   height="635.58667"
   width="641.44"
   xml:space="preserve"
   id="svg2"
   version="1.1"><metadata
     id="metadata8"><rdf:RDF><cc:Work
         rdf:about=""><dc:format>image/svg+xml</dc:format><dc:type
           rdf:resource="http://purl.org/dc/dcmitype/StillImage" /></cc:Work></rdf:RDF></metadata><defs
     id="defs6" /><g
     transform="matrix(1.3333333,0,0,-1.3333333,0,635.58667)"
     id="g10"><g
       transform="scale(0.1)"
       id="g12"><path
         id="path14"
         style="fill:none;stroke:#231f20;stroke-width:20;stroke-linecap:butt;stroke-linejoin:miter;stroke-miterlimit:10;stroke-dasharray:none;stroke-opacity:1"
         d="M 0,3881.88 H 4630" /><path
         id="path16"
         style="fill:none;stroke:#231f20;stroke-width:20;stroke-linecap:butt;stroke-linejoin:miter;stroke-miterlimit:10;stroke-dasharray:none;stroke-opacity:1"
         d="M 0,1331.88 H 4630" /><path
         id="path18"
         style="fill:none;stroke:#231f20;stroke-width:20;stroke-linecap:butt;stroke-linejoin:miter;stroke-miterlimit:10;stroke-dasharray:none;stroke-opacity:1"
         d="M 925,136.879 V 4766.88" /><path
         id="path20"
         style="fill:none;stroke:#231f20;stroke-width:20;stroke-linecap:butt;stroke-linejoin:miter;stroke-miterlimit:10;stroke-dasharray:none;stroke-opacity:1"
         d="M 3605,106.879 V 4736.88" /><path
         id="path22"
         style="fill:#231f20;fill-opacity:1;fill-rule:nonzero;stroke:none"
         d="m 1000,1351.88 c 0,-49.71 -33.578,-90 -75,-90 -41.422,0 -75,40.29 -75,90 0,49.71 33.578,90 75,90 41.422,0 75,-40.29 75,-90" /><path
         id="path24"
         style="fill:none;stroke:#231f20;stroke-width:20;stroke-linecap:butt;stroke-linejoin:miter;stroke-miterlimit:10;stroke-dasharray:none;stroke-opacity:1"
         d="m 1000,1351.88 c 0,-49.71 -33.578,-90 -75,-90 -41.422,0 -75,40.29 -75,90 0,49.71 33.578,90 75,90 41.422,0 75,-40.29 75,-90 z" /><path
         id="path26"
         style="fill:#231f20;fill-opacity:1;fill-rule:nonzero;stroke:none"
         d="m 2310,2641.88 c 0,-49.71 -33.57,-90 -75,-90 -41.42,0 -75,40.29 -75,90 0,49.71 33.58,90 75,90 41.43,0 75,-40.29 75,-90" /><path
         id="path28"
         style="fill:none;stroke:#231f20;stroke-width:20;stroke-linecap:butt;stroke-linejoin:miter;stroke-miterlimit:10;stroke-dasharray:none;stroke-opacity:1"
         d="m 2310,2641.88 c 0,-49.71 -33.57,-90 -75,-90 -41.42,0 -75,40.29 -75,90 0,49.71 33.58,90 75,90 41.43,0 75,-40.29 75,-90 z" /><g
         transform="scale(10)"
         id="g30"><text
           id="text34"
           style="font-variant:normal;font-weight:normal;font-size:24px;font-family:MyriadPro;-inkscape-font-specification:MyriadPro-Regular;writing-mode:lr-tb;fill:#231f20;fill-opacity:1;fill-rule:nonzero;stroke:none"
           transform="matrix(1,0,0,-1,242,301.188)"><tspan
             id="tspan32"
             y="0"
             x="0">h</tspan></text>
<text
           id="text38"
           style="font-variant:normal;font-weight:normal;font-size:20.98800087px;font-family:MyriadPro;-inkscape-font-specification:MyriadPro-Regular;writing-mode:lr-tb;fill:#231f20;fill-opacity:1;fill-rule:nonzero;stroke:none"
           transform="matrix(1,0,0,-1,255.3199,289.2001)"><tspan
             id="tspan36"
             y="0"
             x="0 4.9101667 9.2546825">i,j</tspan></text>
<text
           id="text42"
           style="font-variant:normal;font-weight:normal;font-size:24px;font-family:MyriadPro;-inkscape-font-specification:MyriadPro-Regular;writing-mode:lr-tb;fill:#231f20;fill-opacity:1;fill-rule:nonzero;stroke:none"
           transform="matrix(1,0,0,-1,242,259.188)"><tspan
             id="tspan40"
             y="0"
             x="0 13.32 33.335999 44.903416 54.407413">hmask</tspan></text>
<text
           id="text46"
           style="font-variant:normal;font-weight:normal;font-size:20.98800087px;font-family:MyriadPro;-inkscape-font-specification:MyriadPro-Regular;writing-mode:lr-tb;fill:#231f20;fill-opacity:1;fill-rule:nonzero;stroke:none"
           transform="matrix(1,0,0,-1,307.6629,247.2001)"><tspan
             id="tspan44"
             y="0"
             x="0 4.9111919 9.2557077">i,j</tspan></text>
<text
           id="text50"
           style="font-variant:normal;font-weight:normal;font-size:24px;font-family:MyriadPro;-inkscape-font-specification:MyriadPro-Regular;writing-mode:lr-tb;fill:#231f20;fill-opacity:1;fill-rule:nonzero;stroke:none"
           transform="matrix(1,0,0,-1,242,215.988)"><tspan
             id="tspan48"
             y="0"
             x="0 11.568 19.175425 31.198814">area</tspan></text>
<text
           id="text54"
           style="font-variant:normal;font-weight:normal;font-size:20.98800087px;font-family:MyriadPro;-inkscape-font-specification:MyriadPro-Regular;writing-mode:lr-tb;fill:#231f20;fill-opacity:1;fill-rule:nonzero;stroke:none"
           transform="matrix(1,0,0,-1,284.768,204.0001)"><tspan
             id="tspan52"
             y="0"
             x="0 4.9111919 9.2549515">i,j</tspan></text>
<text
           id="text58"
           style="font-variant:normal;font-weight:normal;font-size:24px;font-family:MyriadPro;-inkscape-font-specification:MyriadPro-Regular;writing-mode:lr-tb;fill:#231f20;fill-opacity:1;fill-rule:nonzero;stroke:none"
           transform="matrix(1,0,0,-1,105,104.188)"><tspan
             id="tspan56"
             y="0"
             x="0">u</tspan></text>
<text
           id="text62"
           style="font-variant:normal;font-weight:normal;font-size:20.98800087px;font-family:MyriadPro;-inkscape-font-specification:MyriadPro-Regular;writing-mode:lr-tb;fill:#231f20;fill-opacity:1;fill-rule:nonzero;stroke:none"
           transform="matrix(1,0,0,-1,118.2238,92.2001)"><tspan
             id="tspan60"
             y="0"
             x="0 4.9111919 9.2557077">i,j</tspan></text>
<text
           id="text66"
           style="font-variant:normal;font-weight:normal;font-size:24px;font-family:MyriadPro;-inkscape-font-specification:MyriadPro-Regular;writing-mode:lr-tb;fill:#231f20;fill-opacity:1;fill-rule:nonzero;stroke:none"
           transform="matrix(1,0,0,-1,132.5789,104.188)"><tspan
             id="tspan64"
             y="0"
             x="0 4.9679999 10.056477">, v</tspan></text>
<text
           id="text70"
           style="font-variant:normal;font-weight:normal;font-size:20.98800087px;font-family:MyriadPro;-inkscape-font-specification:MyriadPro-Regular;writing-mode:lr-tb;fill:#231f20;fill-opacity:1;fill-rule:nonzero;stroke:none"
           transform="matrix(1,0,0,-1,154.1789,92.2001)"><tspan
             id="tspan68"
             y="0"
             x="0 4.9101543 9.2546701">i,j</tspan></text>
<text
           id="text74"
           style="font-variant:normal;font-weight:normal;font-size:24px;font-family:MyriadPro;-inkscape-font-specification:MyriadPro-Regular;writing-mode:lr-tb;fill:#231f20;fill-opacity:1;fill-rule:nonzero;stroke:none"
           transform="matrix(1,0,0,-1,106,62.188)"><tspan
             id="tspan72"
             y="0"
             x="0 13.224 33.240597 44.808014 54.312012">umask</tspan></text>
<text
           id="text78"
           style="font-variant:normal;font-weight:normal;font-size:20.98800087px;font-family:MyriadPro;-inkscape-font-specification:MyriadPro-Regular;writing-mode:lr-tb;fill:#231f20;fill-opacity:1;fill-rule:nonzero;stroke:none"
           transform="matrix(1,0,0,-1,171.5672,50.2001)"><tspan
             id="tspan76"
             y="0"
             x="0 4.9111919 9.2557077">i,j</tspan></text>
<text
           id="text82"
           style="font-variant:normal;font-weight:normal;font-size:24px;font-family:MyriadPro;-inkscape-font-specification:MyriadPro-Regular;writing-mode:lr-tb;fill:#231f20;fill-opacity:1;fill-rule:nonzero;stroke:none"
           transform="matrix(1,0,0,-1,185.9231,62.188)"><tspan
             id="tspan80"
             y="0"
             x="0 4.9679999 10.056087 21.599085 41.615696 53.183109 62.687111">, vmask</tspan></text>
<text
           id="text86"
           style="font-variant:normal;font-weight:normal;font-size:20.98800087px;font-family:MyriadPro;-inkscape-font-specification:MyriadPro-Regular;writing-mode:lr-tb;fill:#231f20;fill-opacity:1;fill-rule:nonzero;stroke:none"
           transform="matrix(1,0,0,-1,259.8649,50.2001)"><tspan
             id="tspan84"
             y="0"
             x="0 4.9111919 9.2557077">i,j</tspan></text>
<text
           id="text90"
           style="font-variant:normal;font-weight:normal;font-size:24px;font-family:MyriadPro;-inkscape-font-specification:MyriadPro-Regular;writing-mode:lr-tb;fill:#231f20;fill-opacity:1;fill-rule:nonzero;stroke:none"
           transform="matrix(1,0,0,-1,370.9999,103.188)"><tspan
             id="tspan88"
             y="0"
             x="0">u</tspan></text>
<text
           id="text94"
           style="font-variant:normal;font-weight:normal;font-size:20.98800087px;font-family:MyriadPro;-inkscape-font-specification:MyriadPro-Regular;writing-mode:lr-tb;fill:#231f20;fill-opacity:1;fill-rule:nonzero;stroke:none"
           transform="matrix(1,0,0,-1,384.2237,91.2001)"><tspan
             id="tspan92"
             y="0"
             x="0 4.9111919 17.42004 28.186884 32.530083">i+1,j</tspan></text>
<text
           id="text98"
           style="font-variant:normal;font-weight:normal;font-size:24px;font-family:MyriadPro;-inkscape-font-specification:MyriadPro-Regular;writing-mode:lr-tb;fill:#231f20;fill-opacity:1;fill-rule:nonzero;stroke:none"
           transform="matrix(1,0,0,-1,421.8538,103.188)"><tspan
             id="tspan96"
             y="0"
             x="0 4.9679999 10.056477">, v</tspan></text>
<text
           id="text102"
           style="font-variant:normal;font-weight:normal;font-size:20.98800087px;font-family:MyriadPro;-inkscape-font-specification:MyriadPro-Regular;writing-mode:lr-tb;fill:#231f20;fill-opacity:1;fill-rule:nonzero;stroke:none"
           transform="matrix(1,0,0,-1,443.453,91.2001)"><tspan
             id="tspan100"
             y="0"
             x="0 4.9111919 17.42004 28.186884 32.530865">i+1,j</tspan></text>
<text
           id="text106"
           style="font-variant:normal;font-weight:normal;font-size:24px;font-family:MyriadPro;-inkscape-font-specification:MyriadPro-Regular;writing-mode:lr-tb;fill:#231f20;fill-opacity:1;fill-rule:nonzero;stroke:none"
           transform="matrix(1,0,0,-1,371.9999,61.188)"><tspan
             id="tspan104"
             y="0"
             x="0 13.224 33.240612 44.808025 54.312023">umask</tspan></text>
<text
           id="text110"
           style="font-variant:normal;font-weight:normal;font-size:20.98800087px;font-family:MyriadPro;-inkscape-font-specification:MyriadPro-Regular;writing-mode:lr-tb;fill:#231f20;fill-opacity:1;fill-rule:nonzero;stroke:none"
           transform="matrix(1,0,0,-1,437.5671,49.2001)"><tspan
             id="tspan108"
             y="0"
             x="0 4.9111919 17.42004 28.186884 32.530865">i+1,j</tspan></text>
<text
           id="text114"
           style="font-variant:normal;font-weight:normal;font-size:24px;font-family:MyriadPro;-inkscape-font-specification:MyriadPro-Regular;writing-mode:lr-tb;fill:#231f20;fill-opacity:1;fill-rule:nonzero;stroke:none"
           transform="matrix(1,0,0,-1,372,17.988)"><tspan
             id="tspan112"
             y="0"
             x="0 11.544 31.559999 43.127998 52.632">vmask</tspan></text>
<text
           id="text118"
           style="font-variant:normal;font-weight:normal;font-size:20.98800087px;font-family:MyriadPro;-inkscape-font-specification:MyriadPro-Regular;writing-mode:lr-tb;fill:#231f20;fill-opacity:1;fill-rule:nonzero;stroke:none"
           transform="matrix(1,0,0,-1,435.8879,6.0001)"><tspan
             id="tspan116"
             y="0"
             x="0 4.9111919 17.419014 28.185858 32.530376">i+1,j</tspan></text>
</g><path
         id="path120"
         style="fill:#231f20;fill-opacity:1;fill-rule:nonzero;stroke:none"
         d="m 3695,1341.88 c 0,-49.71 -33.57,-90 -75,-90 -41.43,0 -75,40.29 -75,90 0,49.71 33.57,90 75,90 41.43,0 75,-40.29 75,-90" /><path
         id="path122"
         style="fill:none;stroke:#231f20;stroke-width:20;stroke-linecap:butt;stroke-linejoin:miter;stroke-miterlimit:10;stroke-dasharray:none;stroke-opacity:1"
         d="m 3695,1341.88 c 0,-49.71 -33.57,-90 -75,-90 -41.43,0 -75,40.29 -75,90 0,49.71 33.57,90 75,90 41.43,0 75,-40.29 75,-90 z" /></g></g></svg>