<svg id="Layer_1" data-name="Layer 1" xmlns="http://www.w3.org/2000/svg" viewBox="0 0 556.67 276"><defs><style>.cls-1{fill:none;stroke:#000;stroke-miterlimit:10;stroke-width:3px;}</style></defs><title>mitgcm_goals</title><path d="M109.18,34l2.28,9.89.5,2.75.5-2.7,2-9.95h3.81l2.05,9.89.53,2.75.53-2.65,2.3-10h3.67l-4.86,17.27H119l-2.09-10.1-.61-3.34-.61,3.34-2.09,10.1h-3.35L105.35,34Z"/><path d="M132.43,37H129V33.88h3.39ZM129,38.48h3.39V51.26H129Z"/><path d="M142.44,38.69a4.06,4.06,0,0,1,1.46,1.41V34h3.39V51.26H144V49.49a4.71,4.71,0,0,1-1.63,1.65,4.57,4.57,0,0,1-2.27.52,4.75,4.75,0,0,1-3.77-1.81,7,7,0,0,1-1.53-4.65,8,8,0,0,1,1.51-5.14,4.9,4.9,0,0,1,4-1.87A4.12,4.12,0,0,1,142.44,38.69Zm.82,9.1a4.66,4.66,0,0,0,.74-2.73,4.19,4.19,0,0,0-1.18-3.35,2.55,2.55,0,0,0-1.69-.61A2.35,2.35,0,0,0,139,42.2a6,6,0,0,0,0,5.58,2.36,2.36,0,0,0,2.12,1.06A2.47,2.47,0,0,0,143.26,47.79Z"/><path d="M158.65,38.74a5.19,5.19,0,0,1,2.21,1.89,6.27,6.27,0,0,1,1,2.64,16.32,16.32,0,0,1,.11,2.54h-9.3A3.06,3.06,0,0,0,154,48.5a3.39,3.39,0,0,0,1.84.48,2.59,2.59,0,0,0,2.54-1.46h3.41a4.17,4.17,0,0,1-1.24,2.31,6.21,6.21,0,0,1-4.81,1.86,7,7,0,0,1-4.5-1.57q-1.95-1.57-1.95-5.11a6.92,6.92,0,0,1,1.76-5.09,6.16,6.16,0,0,1,4.57-1.77A7.28,7.28,0,0,1,158.65,38.74Zm-5,2.89a3.47,3.47,0,0,0-.89,2h5.75a2.79,2.79,0,0,0-.89-2,2.93,2.93,0,0,0-2-.69A2.65,2.65,0,0,0,153.66,41.63Z"/><path d="M177.44,38.18l.29,0v3.42l-.56,0h-.4a2.77,2.77,0,0,0-2.71,1.31,5.11,5.11,0,0,0-.39,2.27v6.11h-3.36V38.48h3.19v2.23A7.06,7.06,0,0,1,174.84,39a3.67,3.67,0,0,1,2.44-.79Z"/><path d="M184.74,43.49a5.29,5.29,0,0,0,1.33-.29,1,1,0,0,0,.72-.95,1.12,1.12,0,0,0-.55-1.08,3.49,3.49,0,0,0-1.62-.3,2.13,2.13,0,0,0-1.7.59,2.41,2.41,0,0,0-.48,1.17h-3.22a4.89,4.89,0,0,1,.94-2.75q1.33-1.69,4.57-1.69a8.14,8.14,0,0,1,3.74.83,3.19,3.19,0,0,1,1.64,3.14V48q0,.61,0,1.48a1.86,1.86,0,0,0,.2.89,1.2,1.2,0,0,0,.49.39v.49H187.2a3.72,3.72,0,0,1-.21-.73q-.06-.34-.09-.77a6.9,6.9,0,0,1-1.6,1.28,4.85,4.85,0,0,1-2.45.62,4.23,4.23,0,0,1-2.88-1,3.52,3.52,0,0,1-1.14-2.81,3.64,3.64,0,0,1,1.83-3.41,8.17,8.17,0,0,1,3-.82Zm2,1.56a3.7,3.7,0,0,1-.65.32,5.5,5.5,0,0,1-.9.23l-.76.14a5,5,0,0,0-1.54.46,1.52,1.52,0,0,0-.79,1.42,1.48,1.48,0,0,0,.48,1.24,1.83,1.83,0,0,0,1.17.38,3.49,3.49,0,0,0,2-.63,2.68,2.68,0,0,0,1-2.31Z"/><path d="M203.33,39.21a4.23,4.23,0,0,1,1.25,3.44v8.6h-3.42V43.49a3.57,3.57,0,0,0-.27-1.55A1.88,1.88,0,0,0,199,41a2.31,2.31,0,0,0-2.31,1.44,5,5,0,0,0-.33,1.95v6.91h-3.34V38.51h3.23v1.86A5.66,5.66,0,0,1,197.5,39a4.2,4.2,0,0,1,2.6-.77A4.9,4.9,0,0,1,203.33,39.21Z"/><path d="M214,38.47a4,4,0,0,1,2,1.85V38.48h3.26V50.6a6.79,6.79,0,0,1-.83,3.73q-1.43,2.16-5.48,2.16a7.47,7.47,0,0,1-4-1,3.55,3.55,0,0,1-1.71-2.87h3.63a1.5,1.5,0,0,0,.46.84,2.82,2.82,0,0,0,1.82.46,2.44,2.44,0,0,0,2.41-1.21,6.11,6.11,0,0,0,.4-2.6v-.82a4.07,4.07,0,0,1-1,1.23,4.15,4.15,0,0,1-2.59.76,4.9,4.9,0,0,1-3.93-1.73,7,7,0,0,1-1.47-4.68,7.9,7.9,0,0,1,1.42-4.79,4.68,4.68,0,0,1,4-1.94A4.39,4.39,0,0,1,214,38.47Zm1.14,9.16a4.11,4.11,0,0,0,.81-2.82,4.32,4.32,0,0,0-.76-2.77,2.49,2.49,0,0,0-2-.95,2.41,2.41,0,0,0-2.42,1.65,5.88,5.88,0,0,0-.35,2.17,5,5,0,0,0,.37,2,2.43,2.43,0,0,0,2.43,1.62A2.57,2.57,0,0,0,215.15,47.63Z"/><path d="M230.68,38.74a5.19,5.19,0,0,1,2.21,1.89,6.27,6.27,0,0,1,1,2.64,16.32,16.32,0,0,1,.11,2.54h-9.3A3.06,3.06,0,0,0,226,48.5a3.39,3.39,0,0,0,1.84.48,2.59,2.59,0,0,0,2.54-1.46h3.41a4.17,4.17,0,0,1-1.24,2.31,6.21,6.21,0,0,1-4.81,1.86,7,7,0,0,1-4.5-1.57q-1.95-1.57-1.95-5.11a6.92,6.92,0,0,1,1.76-5.09,6.16,6.16,0,0,1,4.57-1.77A7.28,7.28,0,0,1,230.68,38.74Zm-5,2.89a3.47,3.47,0,0,0-.89,2h5.75a2.79,2.79,0,0,0-.89-2,2.93,2.93,0,0,0-2-.69A2.65,2.65,0,0,0,225.68,41.63Z"/><path d="M253,49.69a7,7,0,0,1-9.82,0,7.92,7.92,0,0,1,0-9.6,7,7,0,0,1,9.82,0,7.92,7.92,0,0,1,0,9.6Zm-2.67-1.85a4.84,4.84,0,0,0,.79-3,4.81,4.81,0,0,0-.79-3,3,3,0,0,0-4.51,0,4.79,4.79,0,0,0-.79,3,4.81,4.81,0,0,0,.79,3,3,3,0,0,0,4.51,0Z"/><path d="M262.31,33.82l.7.05V36.6q-.28,0-.94-.05a1.09,1.09,0,0,0-.91.29,1.06,1.06,0,0,0-.25.69V38.6h2.19V41h-2.19v10.3h-3.32V41h-1.87V38.6h1.83v-.82a4.32,4.32,0,0,1,.69-2.82q.73-1.15,3.5-1.15Z"/><path d="M270.38,41V38.6h1.78V35h3.3V38.6h2.07V41h-2.07v6.75a1.52,1.52,0,0,0,.2,1,2.19,2.19,0,0,0,1.22.19h.32l.33,0v2.5l-1.58.06q-2.37.08-3.23-.82a2.44,2.44,0,0,1-.56-1.77V41Z"/><path d="M284.74,43.49a5.28,5.28,0,0,0,1.33-.29,1,1,0,0,0,.72-.95,1.12,1.12,0,0,0-.55-1.08,3.49,3.49,0,0,0-1.62-.3,2.13,2.13,0,0,0-1.7.59,2.42,2.42,0,0,0-.47,1.17h-3.22a4.89,4.89,0,0,1,.94-2.75q1.33-1.69,4.57-1.69a8.15,8.15,0,0,1,3.74.83,3.19,3.19,0,0,1,1.64,3.14V48q0,.61,0,1.48a1.86,1.86,0,0,0,.2.89,1.2,1.2,0,0,0,.49.39v.49h-3.63a3.72,3.72,0,0,1-.21-.73q-.06-.34-.09-.77a6.89,6.89,0,0,1-1.6,1.28,4.84,4.84,0,0,1-2.45.62,4.23,4.23,0,0,1-2.88-1,3.52,3.52,0,0,1-1.14-2.81,3.64,3.64,0,0,1,1.83-3.41,8.17,8.17,0,0,1,3-.82Zm2,1.56a3.7,3.7,0,0,1-.65.32,5.46,5.46,0,0,1-.9.23l-.76.14a5,5,0,0,0-1.54.46,1.52,1.52,0,0,0-.79,1.42,1.48,1.48,0,0,0,.48,1.24,1.83,1.83,0,0,0,1.17.38,3.49,3.49,0,0,0,2-.63,2.68,2.68,0,0,0,1-2.31Z"/><path d="M300.12,38.18l.29,0v3.42l-.56,0h-.4a2.77,2.77,0,0,0-2.71,1.31,5.11,5.11,0,0,0-.39,2.27v6.11H293V38.48h3.19v2.23A7.06,7.06,0,0,1,297.53,39a3.67,3.67,0,0,1,2.44-.79Z"/><path d="M308.69,38.47a4,4,0,0,1,2,1.85V38.48h3.26V50.6a6.79,6.79,0,0,1-.83,3.73q-1.43,2.16-5.48,2.16a7.47,7.47,0,0,1-4-1,3.55,3.55,0,0,1-1.71-2.87h3.63a1.5,1.5,0,0,0,.46.84,2.82,2.82,0,0,0,1.82.46,2.44,2.44,0,0,0,2.41-1.21,6.11,6.11,0,0,0,.4-2.6v-.82a4.07,4.07,0,0,1-1,1.23,4.15,4.15,0,0,1-2.59.76,4.9,4.9,0,0,1-3.93-1.73,7,7,0,0,1-1.47-4.68A7.9,7.9,0,0,1,303,40.12a4.68,4.68,0,0,1,4-1.94A4.38,4.38,0,0,1,308.69,38.47Zm1.14,9.16a4.11,4.11,0,0,0,.8-2.82,4.32,4.32,0,0,0-.76-2.77,2.49,2.49,0,0,0-2-.95,2.41,2.41,0,0,0-2.42,1.65,5.9,5.9,0,0,0-.35,2.17,5,5,0,0,0,.37,2,2.43,2.43,0,0,0,2.43,1.62A2.57,2.57,0,0,0,309.82,47.63Z"/><path d="M325.35,38.74a5.19,5.19,0,0,1,2.21,1.89,6.27,6.27,0,0,1,1,2.64,16.21,16.21,0,0,1,.11,2.54h-9.3a3.06,3.06,0,0,0,1.34,2.7,3.39,3.39,0,0,0,1.84.48,2.82,2.82,0,0,0,1.85-.59,2.79,2.79,0,0,0,.69-.88h3.41a4.17,4.17,0,0,1-1.24,2.31,6.21,6.21,0,0,1-4.81,1.86,7,7,0,0,1-4.5-1.57Q316,48.55,316,45a6.91,6.91,0,0,1,1.76-5.09,6.16,6.16,0,0,1,4.57-1.77A7.28,7.28,0,0,1,325.35,38.74Zm-5,2.89a3.47,3.47,0,0,0-.89,2h5.75a2.79,2.79,0,0,0-.89-2,2.93,2.93,0,0,0-2-.69A2.65,2.65,0,0,0,320.35,41.63Z"/><path d="M329.06,41V38.6h1.78V35h3.3V38.6h2.07V41h-2.07v6.75a1.52,1.52,0,0,0,.2,1,2.19,2.19,0,0,0,1.22.19h.32l.33,0v2.5l-1.58.06q-2.37.08-3.23-.82a2.44,2.44,0,0,1-.56-1.77V41Z"/><path d="M354.21,38.55a3.75,3.75,0,0,1,1.58,1.25,3.35,3.35,0,0,1,.64,1.47,18.14,18.14,0,0,1,.12,2.47v7.51h-3.41V43.48a3.44,3.44,0,0,0-.35-1.67,1.75,1.75,0,0,0-1.72-.89,2.36,2.36,0,0,0-2,.89,4.08,4.08,0,0,0-.68,2.53v6.92h-3.34V34h3.34v6.09a4.09,4.09,0,0,1,1.67-1.55,4.72,4.72,0,0,1,2-.44A5.4,5.4,0,0,1,354.21,38.55Z"/><path d="M364.75,43.49a5.3,5.3,0,0,0,1.33-.29,1,1,0,0,0,.72-.95,1.12,1.12,0,0,0-.55-1.08,3.49,3.49,0,0,0-1.62-.3,2.13,2.13,0,0,0-1.7.59,2.42,2.42,0,0,0-.47,1.17h-3.22a4.89,4.89,0,0,1,.94-2.75q1.33-1.69,4.57-1.69a8.15,8.15,0,0,1,3.74.83,3.19,3.19,0,0,1,1.64,3.14V48q0,.61,0,1.48a1.86,1.86,0,0,0,.2.89,1.2,1.2,0,0,0,.49.39v.49h-3.63a3.72,3.72,0,0,1-.21-.73q-.06-.34-.09-.77A6.89,6.89,0,0,1,365.3,51a4.84,4.84,0,0,1-2.45.62,4.23,4.23,0,0,1-2.88-1,3.52,3.52,0,0,1-1.14-2.81,3.64,3.64,0,0,1,1.83-3.41,8.17,8.17,0,0,1,3-.82Zm2,1.56a3.7,3.7,0,0,1-.65.32,5.46,5.46,0,0,1-.9.23l-.76.14a5,5,0,0,0-1.54.46,1.52,1.52,0,0,0-.79,1.42,1.48,1.48,0,0,0,.48,1.24,1.83,1.83,0,0,0,1.17.38,3.49,3.49,0,0,0,2-.63,2.68,2.68,0,0,0,1-2.31Z"/><path d="M380.14,38.18l.29,0v3.42l-.56,0h-.4a2.77,2.77,0,0,0-2.71,1.31,5.11,5.11,0,0,0-.39,2.27v6.11H373V38.48h3.19v2.23A7.06,7.06,0,0,1,377.54,39a3.67,3.67,0,0,1,2.44-.79Z"/><path d="M389.16,38.69a4.06,4.06,0,0,1,1.46,1.41V34H394V51.26h-3.25V49.49a4.71,4.71,0,0,1-1.63,1.65,4.57,4.57,0,0,1-2.27.52,4.75,4.75,0,0,1-3.77-1.81,7,7,0,0,1-1.53-4.65,8,8,0,0,1,1.51-5.14,4.9,4.9,0,0,1,4-1.87A4.12,4.12,0,0,1,389.16,38.69Zm.82,9.1a4.66,4.66,0,0,0,.74-2.73,4.19,4.19,0,0,0-1.18-3.35,2.55,2.55,0,0,0-1.69-.61,2.35,2.35,0,0,0-2.15,1.11,6,6,0,0,0,0,5.58,2.36,2.36,0,0,0,2.12,1.06A2.47,2.47,0,0,0,390,47.79Z"/><path d="M403.07,38.48h3.39l1.95,9.2,2-9.2h3.48l-3.7,12.77h-3.43l-2-9.3-2,9.3h-3.47l-3.59-12.77h3.59l2,9.16Z"/><path d="M420.77,43.49a5.3,5.3,0,0,0,1.33-.29,1,1,0,0,0,.72-.95,1.12,1.12,0,0,0-.55-1.08,3.49,3.49,0,0,0-1.62-.3,2.13,2.13,0,0,0-1.7.59,2.41,2.41,0,0,0-.48,1.17h-3.22a4.89,4.89,0,0,1,.94-2.75q1.33-1.69,4.57-1.69a8.15,8.15,0,0,1,3.74.83,3.19,3.19,0,0,1,1.64,3.14V48q0,.61,0,1.48a1.86,1.86,0,0,0,.2.89,1.2,1.2,0,0,0,.49.39v.49h-3.63a3.72,3.72,0,0,1-.21-.73q-.06-.34-.09-.77a6.89,6.89,0,0,1-1.6,1.28,4.84,4.84,0,0,1-2.45.62,4.23,4.23,0,0,1-2.88-1,3.52,3.52,0,0,1-1.14-2.81,3.64,3.64,0,0,1,1.83-3.41,8.17,8.17,0,0,1,3-.82Zm2,1.56a3.7,3.7,0,0,1-.65.32,5.46,5.46,0,0,1-.9.23l-.76.14a5,5,0,0,0-1.54.46,1.52,1.52,0,0,0-.79,1.42,1.48,1.48,0,0,0,.48,1.24,1.83,1.83,0,0,0,1.17.38,3.49,3.49,0,0,0,2-.63,2.68,2.68,0,0,0,1-2.31Z"/><path d="M436.15,38.18l.29,0v3.42l-.56,0h-.4a2.77,2.77,0,0,0-2.71,1.31,5.11,5.11,0,0,0-.39,2.27v6.11H429V38.48h3.19v2.23A7.06,7.06,0,0,1,433.56,39a3.67,3.67,0,0,1,2.44-.79Z"/><path d="M446.72,38.74a5.19,5.19,0,0,1,2.21,1.89,6.29,6.29,0,0,1,1,2.64,16.34,16.34,0,0,1,.11,2.54h-9.3a3.06,3.06,0,0,0,1.34,2.7,3.39,3.39,0,0,0,1.84.48,2.82,2.82,0,0,0,1.85-.59,2.79,2.79,0,0,0,.69-.88h3.41a4.17,4.17,0,0,1-1.24,2.31,6.21,6.21,0,0,1-4.81,1.86,7,7,0,0,1-4.5-1.57q-1.95-1.57-1.95-5.11a6.92,6.92,0,0,1,1.76-5.09,6.16,6.16,0,0,1,4.57-1.77A7.27,7.27,0,0,1,446.72,38.74Zm-5,2.89a3.47,3.47,0,0,0-.89,2h5.75a2.79,2.79,0,0,0-.89-2,2.93,2.93,0,0,0-2-.69A2.65,2.65,0,0,0,441.73,41.63Z"/><path d="M105,53.66V52.48H450.19v1.18Z"/><path d="M27.69,87h6a5.64,5.64,0,0,1,4.76,2.2A8.2,8.2,0,0,1,40,94.34a10.27,10.27,0,0,1-.89,4.34,5.49,5.49,0,0,1-5.39,3.42h-6Zm5.62,13.32a5.4,5.4,0,0,0,1.66-.22,3.68,3.68,0,0,0,1.91-1.54,6.4,6.4,0,0,0,.85-2.34,9.13,9.13,0,0,0,.15-1.58,7.48,7.48,0,0,0-1.09-4.35,4,4,0,0,0-3.5-1.55H29.75v11.57Z"/><path d="M49.3,91.42A4.16,4.16,0,0,1,51,92.84a4.92,4.92,0,0,1,.73,1.94,12.78,12.78,0,0,1,.16,2.42h-8a4.75,4.75,0,0,0,.78,2.69,2.61,2.61,0,0,0,2.27,1,2.92,2.92,0,0,0,2.29-1,3.26,3.26,0,0,0,.68-1.29h1.81a3.83,3.83,0,0,1-.48,1.35,4.87,4.87,0,0,1-.9,1.21,4.26,4.26,0,0,1-2.07,1.11,6.23,6.23,0,0,1-1.5.16A4.58,4.58,0,0,1,43.31,101a5.83,5.83,0,0,1-1.42-4.18,6.34,6.34,0,0,1,1.43-4.3,4.69,4.69,0,0,1,3.73-1.65A5,5,0,0,1,49.3,91.42ZM50,95.73a4.82,4.82,0,0,0-.52-1.92,2.65,2.65,0,0,0-2.51-1.33,2.77,2.77,0,0,0-2.11.92,3.48,3.48,0,0,0-.9,2.33Z"/><path d="M55.3,98.65a2.65,2.65,0,0,0,.47,1.42,3,3,0,0,0,2.47.89,3.71,3.71,0,0,0,1.84-.45,1.48,1.48,0,0,0,.8-1.38,1.18,1.18,0,0,0-.64-1.08,7.64,7.64,0,0,0-1.6-.52l-1.49-.37a7.34,7.34,0,0,1-2.1-.78,2.32,2.32,0,0,1-1.21-2.07A3.15,3.15,0,0,1,55,91.79a4.58,4.58,0,0,1,3.06-1,4.27,4.27,0,0,1,3.63,1.46,3.13,3.13,0,0,1,.68,2H60.59a2.09,2.09,0,0,0-.45-1.13,2.93,2.93,0,0,0-2.26-.72,2.76,2.76,0,0,0-1.62.4,1.24,1.24,0,0,0-.55,1.05A1.29,1.29,0,0,0,56.43,95a4.4,4.4,0,0,0,1.23.45l1.24.3a9.73,9.73,0,0,1,2.72.93,2.47,2.47,0,0,1,1.08,2.23,3.37,3.37,0,0,1-1.13,2.53,4.83,4.83,0,0,1-3.43,1.07,4.64,4.64,0,0,1-3.51-1.11,4.18,4.18,0,0,1-1.11-2.75Z"/><path d="M64.66,87h1.77v8.75l4.73-4.66h2.36L69.3,95.2l4.46,6.9H71.4l-3.45-5.59L66.43,98v4.12H64.66Z"/><path d="M76.3,98.65a2.65,2.65,0,0,0,.47,1.42,3,3,0,0,0,2.47.89,3.71,3.71,0,0,0,1.84-.45,1.48,1.48,0,0,0,.8-1.38,1.18,1.18,0,0,0-.64-1.08,7.64,7.64,0,0,0-1.6-.52l-1.49-.37a7.34,7.34,0,0,1-2.1-.78,2.32,2.32,0,0,1-1.21-2.07A3.15,3.15,0,0,1,76,91.79a4.58,4.58,0,0,1,3.06-1,4.27,4.27,0,0,1,3.63,1.46,3.13,3.13,0,0,1,.68,2H81.59a2.09,2.09,0,0,0-.45-1.13,2.93,2.93,0,0,0-2.26-.72,2.76,2.76,0,0,0-1.62.4,1.24,1.24,0,0,0-.55,1.05A1.29,1.29,0,0,0,77.43,95a4.4,4.4,0,0,0,1.23.45l1.24.3a9.73,9.73,0,0,1,2.72.93,2.47,2.47,0,0,1,1.08,2.23,3.37,3.37,0,0,1-1.13,2.53,4.83,4.83,0,0,1-3.43,1.07,4.64,4.64,0,0,1-3.51-1.11,4.18,4.18,0,0,1-1.11-2.75Z"/><path d="M85.7,87h1.88v2.09H85.7Zm0,4.13h1.88V102.1H85.7Z"/><path d="M96.4,91.46a5,5,0,0,1,1.11,1.08V87h1.77V102.1H97.62v-1.53A4,4,0,0,1,96.1,102a4.34,4.34,0,0,1-2,.45,4.07,4.07,0,0,1-3.17-1.54,6.05,6.05,0,0,1-1.34-4.11,7.11,7.11,0,0,1,1.22-4.16,4,4,0,0,1,3.49-1.76A3.88,3.88,0,0,1,96.4,91.46Zm-4.12,8.23a2.61,2.61,0,0,0,2.39,1.19,2.51,2.51,0,0,0,2.1-1.1,5.23,5.23,0,0,0,.82-3.16,4.7,4.7,0,0,0-.85-3.08,2.64,2.64,0,0,0-2.09-1,2.76,2.76,0,0,0-2.25,1.07,4.9,4.9,0,0,0-.86,3.14A5.46,5.46,0,0,0,92.28,99.69Z"/><path d="M108.83,91.42a4.16,4.16,0,0,1,1.66,1.42,4.92,4.92,0,0,1,.73,1.94,12.78,12.78,0,0,1,.16,2.42h-8a4.75,4.75,0,0,0,.78,2.69,2.61,2.61,0,0,0,2.27,1,2.92,2.92,0,0,0,2.29-1,3.26,3.26,0,0,0,.68-1.29h1.81a3.83,3.83,0,0,1-.48,1.35,4.87,4.87,0,0,1-.9,1.21,4.26,4.26,0,0,1-2.07,1.11,6.23,6.23,0,0,1-1.5.16,4.58,4.58,0,0,1-3.45-1.49,5.83,5.83,0,0,1-1.42-4.18,6.34,6.34,0,0,1,1.43-4.3,4.69,4.69,0,0,1,3.73-1.65A5,5,0,0,1,108.83,91.42Zm.66,4.31a4.82,4.82,0,0,0-.52-1.92,2.65,2.65,0,0,0-2.51-1.33,2.77,2.77,0,0,0-2.11.92,3.48,3.48,0,0,0-.9,2.33Z"/><path d="M126.81,91.7a4.32,4.32,0,0,1,1.4,3.11h-1.79a3.32,3.32,0,0,0-.75-1.69,2.37,2.37,0,0,0-1.88-.67,2.59,2.59,0,0,0-2.52,1.72,6.83,6.83,0,0,0-.49,2.75,5.18,5.18,0,0,0,.7,2.78,2.71,2.71,0,0,0,4,.43,3.84,3.84,0,0,0,.93-1.92h1.79a4.34,4.34,0,0,1-4.69,4.2,4.2,4.2,0,0,1-3.44-1.57,6,6,0,0,1-1.28-3.93,6.62,6.62,0,0,1,1.4-4.5,4.54,4.54,0,0,1,3.58-1.61A4.79,4.79,0,0,1,126.81,91.7Z"/><path d="M130.11,87H132V102.1h-1.85Z"/><path d="M136.57,91.12v7.29a3.14,3.14,0,0,0,.26,1.37,1.8,1.8,0,0,0,1.79,1A2.53,2.53,0,0,0,141.17,99a7,7,0,0,0,.37-2.53V91.12h1.85v11h-1.74l0-1.62a3.7,3.7,0,0,1-.88,1.06,3.8,3.8,0,0,1-2.52.86,3.23,3.23,0,0,1-3.14-1.57,4.75,4.75,0,0,1-.45-2.25V91.12Z"/><path d="M147.5,98.65a2.65,2.65,0,0,0,.47,1.42,3,3,0,0,0,2.47.89,3.71,3.71,0,0,0,1.84-.45,1.48,1.48,0,0,0,.8-1.38,1.18,1.18,0,0,0-.64-1.08,7.64,7.64,0,0,0-1.6-.52l-1.49-.37a7.34,7.34,0,0,1-2.1-.78A2.32,2.32,0,0,1,146,94.32a3.15,3.15,0,0,1,1.14-2.52,4.58,4.58,0,0,1,3.06-1,4.27,4.27,0,0,1,3.63,1.46,3.13,3.13,0,0,1,.68,2h-1.74a2.09,2.09,0,0,0-.45-1.13,2.93,2.93,0,0,0-2.26-.72,2.76,2.76,0,0,0-1.62.4,1.24,1.24,0,0,0-.55,1.05,1.29,1.29,0,0,0,.72,1.14,4.4,4.4,0,0,0,1.23.45l1.24.3a9.73,9.73,0,0,1,2.72.93,2.47,2.47,0,0,1,1.08,2.23,3.37,3.37,0,0,1-1.13,2.53,4.83,4.83,0,0,1-3.43,1.07,4.64,4.64,0,0,1-3.51-1.11,4.18,4.18,0,0,1-1.11-2.75Z"/><path d="M157.27,88.05h1.87v3.07h1.75v1.51h-1.75v7.17a.78.78,0,0,0,.39.77,1.66,1.66,0,0,0,.72.11h.29l.36,0v1.47a4.12,4.12,0,0,1-.66.13,6.28,6.28,0,0,1-.74,0,2,2,0,0,1-1.75-.66,2.94,2.94,0,0,1-.46-1.72V92.62h-1.49V91.12h1.49Z"/><path d="M169.52,91.42a4.16,4.16,0,0,1,1.66,1.42,4.92,4.92,0,0,1,.73,1.94,12.78,12.78,0,0,1,.16,2.42h-8a4.75,4.75,0,0,0,.78,2.69,2.61,2.61,0,0,0,2.27,1,2.92,2.92,0,0,0,2.29-1,3.26,3.26,0,0,0,.68-1.29h1.81a3.83,3.83,0,0,1-.48,1.35,4.87,4.87,0,0,1-.9,1.21,4.26,4.26,0,0,1-2.07,1.11,6.23,6.23,0,0,1-1.5.16,4.58,4.58,0,0,1-3.45-1.49,5.83,5.83,0,0,1-1.42-4.18,6.34,6.34,0,0,1,1.43-4.3,4.69,4.69,0,0,1,3.73-1.65A5,5,0,0,1,169.52,91.42Zm.66,4.31a4.82,4.82,0,0,0-.52-1.92,2.65,2.65,0,0,0-2.51-1.33,2.77,2.77,0,0,0-2.11.92,3.48,3.48,0,0,0-.9,2.33Z"/><path d="M174.47,91.12h1.75V93a4.2,4.2,0,0,1,1.06-1.35,2.74,2.74,0,0,1,1.94-.79h.17l.42,0v1.95l-.3,0h-.3a2.64,2.64,0,0,0-2.14.9,3.13,3.13,0,0,0-.75,2.07v6.32h-1.85Z"/><path d="M182.51,98.65a2.65,2.65,0,0,0,.47,1.42,3,3,0,0,0,2.47.89,3.71,3.71,0,0,0,1.84-.45,1.48,1.48,0,0,0,.8-1.38,1.18,1.18,0,0,0-.64-1.08,7.64,7.64,0,0,0-1.6-.52l-1.49-.37a7.34,7.34,0,0,1-2.1-.78A2.32,2.32,0,0,1,181,94.32a3.15,3.15,0,0,1,1.14-2.52,4.58,4.58,0,0,1,3.06-1,4.27,4.27,0,0,1,3.63,1.46,3.13,3.13,0,0,1,.68,2H187.8a2.09,2.09,0,0,0-.45-1.13,2.93,2.93,0,0,0-2.26-.72,2.76,2.76,0,0,0-1.62.4,1.24,1.24,0,0,0-.55,1.05,1.29,1.29,0,0,0,.72,1.14,4.4,4.4,0,0,0,1.23.45l1.24.3a9.73,9.73,0,0,1,2.72.93,2.47,2.47,0,0,1,1.08,2.23,3.37,3.37,0,0,1-1.13,2.53,4.83,4.83,0,0,1-3.43,1.07,4.64,4.64,0,0,1-3.51-1.11,4.18,4.18,0,0,1-1.11-2.75Z"/><line class="cls-1" x1="214.76" y1="95" x2="338.2" y2="95"/><polygon points="216.95 102.48 204 95 216.95 87.52 216.95 102.48"/><polygon points="336.01 102.48 348.96 95 336.01 87.52 336.01 102.48"/><path d="M376.55,83v1.79h-5.08V98.1h-2.06V84.83h-5.08V83Z"/><path d="M382.64,87.42a4.16,4.16,0,0,1,1.66,1.42,4.91,4.91,0,0,1,.73,1.94,12.68,12.68,0,0,1,.16,2.42h-8a4.75,4.75,0,0,0,.78,2.69,2.61,2.61,0,0,0,2.27,1,2.92,2.92,0,0,0,2.29-1,3.27,3.27,0,0,0,.68-1.29H385a3.83,3.83,0,0,1-.48,1.35,4.87,4.87,0,0,1-.9,1.21,4.26,4.26,0,0,1-2.07,1.11,6.23,6.23,0,0,1-1.5.16A4.58,4.58,0,0,1,376.64,97a5.83,5.83,0,0,1-1.42-4.18,6.34,6.34,0,0,1,1.43-4.3,4.7,4.7,0,0,1,3.73-1.65A5,5,0,0,1,382.64,87.42Zm.66,4.31a4.82,4.82,0,0,0-.52-1.92,2.65,2.65,0,0,0-2.51-1.33,2.78,2.78,0,0,0-2.12.92,3.48,3.48,0,0,0-.9,2.33Z"/><path d="M387.58,87.12h1.75V89a4.18,4.18,0,0,1,1.06-1.35,2.74,2.74,0,0,1,1.94-.79h.17l.42,0v1.95l-.3,0h-.3a2.64,2.64,0,0,0-2.14.9,3.14,3.14,0,0,0-.75,2.07V98.1h-1.85Z"/><path d="M400.41,91.45a1,1,0,0,0,.85-.53,1.64,1.64,0,0,0,.12-.71,1.51,1.51,0,0,0-.67-1.37,3.58,3.58,0,0,0-1.92-.43,2.43,2.43,0,0,0-2,.78,2.6,2.6,0,0,0-.44,1.29h-1.72a3.18,3.18,0,0,1,1.32-2.83,5.39,5.39,0,0,1,2.93-.8,6,6,0,0,1,3.14.74,2.5,2.5,0,0,1,1.2,2.3v6.33a.8.8,0,0,0,.12.46.57.57,0,0,0,.5.17l.28,0,.33,0v1.36a5.14,5.14,0,0,1-.66.15,4.8,4.8,0,0,1-.62,0,1.52,1.52,0,0,1-1.38-.68,2.61,2.61,0,0,1-.32-1,4.69,4.69,0,0,1-1.62,1.28,5,5,0,0,1-2.33.54,3.47,3.47,0,0,1-2.5-.93,3.07,3.07,0,0,1-1-2.32,3,3,0,0,1,1-2.37,4.54,4.54,0,0,1,2.5-1Zm-3.89,5a2.17,2.17,0,0,0,1.38.46,4.22,4.22,0,0,0,1.89-.45A2.53,2.53,0,0,0,401.33,94V92.52a3.14,3.14,0,0,1-.87.36,7.29,7.29,0,0,1-1,.21l-1.12.14a4.32,4.32,0,0,0-1.51.42,1.63,1.63,0,0,0-.86,1.53A1.51,1.51,0,0,0,396.53,96.44Z"/><path d="M407.3,94.65a2.63,2.63,0,0,0,.47,1.42,3,3,0,0,0,2.47.89,3.71,3.71,0,0,0,1.84-.45,1.48,1.48,0,0,0,.8-1.38,1.18,1.18,0,0,0-.64-1.08,7.61,7.61,0,0,0-1.6-.52l-1.49-.37a7.34,7.34,0,0,1-2.11-.78,2.32,2.32,0,0,1-1.21-2.07A3.15,3.15,0,0,1,407,87.79a4.58,4.58,0,0,1,3.06-1,4.27,4.27,0,0,1,3.63,1.46,3.13,3.13,0,0,1,.68,2h-1.74a2.09,2.09,0,0,0-.45-1.13,2.93,2.93,0,0,0-2.26-.72,2.75,2.75,0,0,0-1.62.4,1.24,1.24,0,0,0-.55,1.05,1.29,1.29,0,0,0,.72,1.14,4.39,4.39,0,0,0,1.23.45l1.24.3a9.73,9.73,0,0,1,2.72.93,2.47,2.47,0,0,1,1.08,2.23,3.37,3.37,0,0,1-1.13,2.53,4.83,4.83,0,0,1-3.43,1.07,4.64,4.64,0,0,1-3.51-1.11,4.18,4.18,0,0,1-1.11-2.75Z"/><path d="M424,87.7a4.32,4.32,0,0,1,1.4,3.11h-1.79a3.31,3.31,0,0,0-.75-1.69,2.37,2.37,0,0,0-1.88-.67,2.59,2.59,0,0,0-2.52,1.72,6.83,6.83,0,0,0-.49,2.75,5.18,5.18,0,0,0,.7,2.78,2.71,2.71,0,0,0,4,.43,3.84,3.84,0,0,0,.93-1.92h1.79a4.34,4.34,0,0,1-4.69,4.2,4.2,4.2,0,0,1-3.44-1.57A6,6,0,0,1,416,92.91a6.62,6.62,0,0,1,1.4-4.5,4.54,4.54,0,0,1,3.58-1.61A4.79,4.79,0,0,1,424,87.7Z"/><path d="M433.09,91.45a1,1,0,0,0,.85-.53,1.64,1.64,0,0,0,.12-.71,1.51,1.51,0,0,0-.67-1.37,3.58,3.58,0,0,0-1.92-.43,2.43,2.43,0,0,0-2,.78,2.59,2.59,0,0,0-.44,1.29h-1.72a3.18,3.18,0,0,1,1.32-2.83,5.39,5.39,0,0,1,2.93-.8,6,6,0,0,1,3.14.74,2.51,2.51,0,0,1,1.2,2.3v6.33a.81.81,0,0,0,.12.46.57.57,0,0,0,.5.17l.28,0,.33,0v1.36a5.14,5.14,0,0,1-.66.15,4.8,4.8,0,0,1-.62,0,1.52,1.52,0,0,1-1.38-.68,2.63,2.63,0,0,1-.32-1,4.69,4.69,0,0,1-1.62,1.28,5,5,0,0,1-2.33.54,3.47,3.47,0,0,1-2.5-.93,3.08,3.08,0,0,1-1-2.32,3,3,0,0,1,1-2.37,4.54,4.54,0,0,1,2.5-1Zm-3.89,5a2.17,2.17,0,0,0,1.38.46,4.21,4.21,0,0,0,1.89-.45A2.54,2.54,0,0,0,434,94V92.52a3.15,3.15,0,0,1-.87.36,7.28,7.28,0,0,1-1,.21l-1.12.14a4.32,4.32,0,0,0-1.51.42,1.63,1.63,0,0,0-.86,1.53A1.51,1.51,0,0,0,429.21,96.44Z"/><path d="M438.94,83h1.85V98.1h-1.85Z"/><path d="M450.33,87.42A4.16,4.16,0,0,1,452,88.84a4.93,4.93,0,0,1,.73,1.94,12.89,12.89,0,0,1,.16,2.42h-8a4.74,4.74,0,0,0,.78,2.69,2.61,2.61,0,0,0,2.27,1,2.91,2.91,0,0,0,2.29-1,3.25,3.25,0,0,0,.68-1.29h1.82a3.83,3.83,0,0,1-.48,1.35,4.87,4.87,0,0,1-.9,1.21,4.26,4.26,0,0,1-2.07,1.11,6.23,6.23,0,0,1-1.5.16A4.58,4.58,0,0,1,444.34,97a5.83,5.83,0,0,1-1.42-4.18,6.34,6.34,0,0,1,1.43-4.3,4.69,4.69,0,0,1,3.73-1.65A5,5,0,0,1,450.33,87.42Zm.66,4.31a4.82,4.82,0,0,0-.52-1.92A2.65,2.65,0,0,0,448,88.48a2.77,2.77,0,0,0-2.11.92,3.48,3.48,0,0,0-.91,2.33Z"/><path d="M461.26,83h2.92l4.33,12.74L472.81,83h2.9V98.1h-1.95V89.21q0-.46,0-1.53t0-2.29l-4.3,12.7h-2l-4.34-12.7v.46q0,.55,0,1.69t0,1.67V98.1h-1.95Z"/><path d="M479,83h6.74A4.57,4.57,0,0,1,489,84.17a4.11,4.11,0,0,1,1.23,3.18,4.63,4.63,0,0,1-1.1,3.07,4.13,4.13,0,0,1-3.36,1.31H481V98.1h-2Zm7.91,2.07a4.38,4.38,0,0,0-1.84-.32h-4V90h4a3.83,3.83,0,0,0,2.21-.58,2.32,2.32,0,0,0,.85-2.06A2.27,2.27,0,0,0,486.91,85.11Z"/><path d="M493,83h6.74A4.57,4.57,0,0,1,503,84.17a4.11,4.11,0,0,1,1.23,3.18,4.63,4.63,0,0,1-1.1,3.07,4.14,4.14,0,0,1-3.36,1.31H495V98.1h-2Zm7.92,2.07a4.38,4.38,0,0,0-1.84-.32h-4V90h4a3.83,3.83,0,0,0,2.21-.58,2.32,2.32,0,0,0,.85-2.06A2.27,2.27,0,0,0,500.92,85.11Z"/><path d="M365.79,108.24h6.74a4.57,4.57,0,0,1,3.23,1.13,4.11,4.11,0,0,1,1.23,3.18,4.63,4.63,0,0,1-1.1,3.07,4.13,4.13,0,0,1-3.36,1.31h-4.7v6.37h-2Zm7.91,2.07a4.38,4.38,0,0,0-1.84-.32h-4v5.22h4a3.83,3.83,0,0,0,2.21-.58,2.32,2.32,0,0,0,.85-2.06A2.27,2.27,0,0,0,373.71,110.31Z"/><path d="M380.8,108.24l4.33,12.83,4.28-12.83h2.29l-5.5,15.06H384l-5.49-15.06Z"/><path d="M393.81,108.24h6.74a4.57,4.57,0,0,1,3.23,1.13,4.11,4.11,0,0,1,1.23,3.18,4.63,4.63,0,0,1-1.1,3.07,4.13,4.13,0,0,1-3.36,1.31h-4.7v6.37h-2Zm7.91,2.07a4.38,4.38,0,0,0-1.84-.32h-4v5.22h4a3.83,3.83,0,0,0,2.21-.58,2.32,2.32,0,0,0,.85-2.06A2.27,2.27,0,0,0,401.72,110.31Z"/><path d="M420.09,112.9a4.33,4.33,0,0,1,1.4,3.11H419.7a3.32,3.32,0,0,0-.75-1.69,2.37,2.37,0,0,0-1.88-.67,2.59,2.59,0,0,0-2.52,1.72,6.83,6.83,0,0,0-.49,2.75,5.18,5.18,0,0,0,.7,2.78,2.71,2.71,0,0,0,4,.43,3.84,3.84,0,0,0,.93-1.92h1.79a4.34,4.34,0,0,1-4.69,4.2,4.2,4.2,0,0,1-3.43-1.57,6,6,0,0,1-1.28-3.93,6.62,6.62,0,0,1,1.41-4.5,4.54,4.54,0,0,1,3.58-1.61A4.79,4.79,0,0,1,420.09,112.9Z"/><path d="M423.39,108.24h1.85V123.3h-1.85Z"/><path d="M429.85,112.32v7.29a3.15,3.15,0,0,0,.26,1.37,1.8,1.8,0,0,0,1.79,1,2.53,2.53,0,0,0,2.56-1.72,7,7,0,0,0,.37-2.53v-5.39h1.85v11h-1.74l0-1.62a3.71,3.71,0,0,1-.88,1.06,3.8,3.8,0,0,1-2.51.86,3.23,3.23,0,0,1-3.14-1.57,4.76,4.76,0,0,1-.45-2.25v-7.46Z"/><path d="M440.78,119.85a2.65,2.65,0,0,0,.47,1.42,3,3,0,0,0,2.47.89,3.71,3.71,0,0,0,1.84-.45,1.48,1.48,0,0,0,.79-1.38,1.18,1.18,0,0,0-.64-1.08,7.63,7.63,0,0,0-1.6-.52l-1.49-.37a7.35,7.35,0,0,1-2.11-.78,2.32,2.32,0,0,1-1.21-2.07,3.15,3.15,0,0,1,1.14-2.52,4.58,4.58,0,0,1,3.06-1,4.27,4.27,0,0,1,3.63,1.46,3.14,3.14,0,0,1,.68,2h-1.74a2.09,2.09,0,0,0-.45-1.13,2.93,2.93,0,0,0-2.26-.72,2.75,2.75,0,0,0-1.62.4,1.24,1.24,0,0,0-.55,1.05,1.29,1.29,0,0,0,.72,1.14,4.39,4.39,0,0,0,1.23.45l1.24.3a9.72,9.72,0,0,1,2.72.93,2.47,2.47,0,0,1,1.08,2.23,3.37,3.37,0,0,1-1.13,2.53,4.84,4.84,0,0,1-3.43,1.07,4.64,4.64,0,0,1-3.51-1.11,4.17,4.17,0,0,1-1.11-2.75Z"/><path d="M450.55,109.25h1.87v3.07h1.75v1.51h-1.75V121a.78.78,0,0,0,.39.77,1.66,1.66,0,0,0,.72.11h.29l.36,0v1.47a4.13,4.13,0,0,1-.66.13,6.29,6.29,0,0,1-.74,0,2,2,0,0,1-1.75-.66,2.94,2.94,0,0,1-.46-1.72v-7.27h-1.49v-1.51h1.49Z"/><path d="M462.8,112.62a4.16,4.16,0,0,1,1.66,1.42,4.93,4.93,0,0,1,.73,1.94,12.89,12.89,0,0,1,.16,2.42h-8a4.74,4.74,0,0,0,.78,2.69,2.61,2.61,0,0,0,2.27,1,2.91,2.91,0,0,0,2.29-1,3.25,3.25,0,0,0,.68-1.29h1.82a3.83,3.83,0,0,1-.48,1.35,4.87,4.87,0,0,1-.9,1.21,4.26,4.26,0,0,1-2.07,1.11,6.23,6.23,0,0,1-1.5.16,4.58,4.58,0,0,1-3.45-1.49,5.83,5.83,0,0,1-1.42-4.18,6.34,6.34,0,0,1,1.43-4.3,4.69,4.69,0,0,1,3.73-1.65A5,5,0,0,1,462.8,112.62Zm.66,4.31a4.82,4.82,0,0,0-.52-1.92,2.65,2.65,0,0,0-2.51-1.33,2.77,2.77,0,0,0-2.11.92,3.48,3.48,0,0,0-.91,2.33Z"/><path d="M467.75,112.32h1.75v1.9a4.21,4.21,0,0,1,1.06-1.35,2.74,2.74,0,0,1,1.94-.79h.17l.42,0v1.95l-.3,0h-.3a2.63,2.63,0,0,0-2.14.9,3.13,3.13,0,0,0-.75,2.07v6.32h-1.85Z"/><path d="M475.79,119.85a2.64,2.64,0,0,0,.47,1.42,3,3,0,0,0,2.47.89,3.71,3.71,0,0,0,1.84-.45,1.48,1.48,0,0,0,.8-1.38,1.18,1.18,0,0,0-.64-1.08,7.64,7.64,0,0,0-1.61-.52l-1.49-.37a7.33,7.33,0,0,1-2.1-.78,2.32,2.32,0,0,1-1.21-2.07,3.15,3.15,0,0,1,1.14-2.52,4.58,4.58,0,0,1,3.06-1,4.28,4.28,0,0,1,3.63,1.46,3.13,3.13,0,0,1,.68,2h-1.74a2.09,2.09,0,0,0-.45-1.13,2.93,2.93,0,0,0-2.26-.72,2.76,2.76,0,0,0-1.62.4,1.24,1.24,0,0,0-.55,1.05,1.29,1.29,0,0,0,.72,1.14,4.41,4.41,0,0,0,1.23.45l1.24.3a9.75,9.75,0,0,1,2.72.93,2.47,2.47,0,0,1,1.08,2.23,3.37,3.37,0,0,1-1.13,2.53,4.83,4.83,0,0,1-3.43,1.07,4.64,4.64,0,0,1-3.51-1.11,4.19,4.19,0,0,1-1.11-2.75Z"/><path d="M132.18,152l2.28,9.89.5,2.75.5-2.7,2-9.95h3.81l2.05,9.89.53,2.75.53-2.65,2.3-10h3.67l-4.86,17.27H142l-2.09-10.1-.61-3.34-.61,3.34-2.09,10.1h-3.35L128.35,152Z"/><path d="M155.43,155H152v-3.08h3.39ZM152,156.48h3.39v12.77H152Z"/><path d="M165.44,156.69a4.06,4.06,0,0,1,1.46,1.41V152h3.39v17.25H167v-1.77a4.71,4.71,0,0,1-1.63,1.65,4.57,4.57,0,0,1-2.27.52,4.75,4.75,0,0,1-3.77-1.81,7,7,0,0,1-1.53-4.65,8,8,0,0,1,1.51-5.14,4.9,4.9,0,0,1,4-1.87A4.12,4.12,0,0,1,165.44,156.69Zm.82,9.1a4.66,4.66,0,0,0,.74-2.73,4.19,4.19,0,0,0-1.18-3.35,2.55,2.55,0,0,0-1.69-.61A2.35,2.35,0,0,0,162,160.2a6,6,0,0,0,0,5.58,2.36,2.36,0,0,0,2.12,1.06A2.47,2.47,0,0,0,166.26,165.79Z"/><path d="M181.65,156.74a5.19,5.19,0,0,1,2.21,1.89,6.27,6.27,0,0,1,1,2.64,16.32,16.32,0,0,1,.11,2.54h-9.3a3.06,3.06,0,0,0,1.34,2.7,3.39,3.39,0,0,0,1.84.48,2.59,2.59,0,0,0,2.54-1.46h3.41a4.17,4.17,0,0,1-1.24,2.31,6.21,6.21,0,0,1-4.81,1.86,7,7,0,0,1-4.5-1.57q-1.95-1.57-1.95-5.11a6.92,6.92,0,0,1,1.76-5.09,6.16,6.16,0,0,1,4.57-1.77A7.28,7.28,0,0,1,181.65,156.74Zm-5,2.89a3.47,3.47,0,0,0-.89,2h5.75a2.79,2.79,0,0,0-.89-2,2.93,2.93,0,0,0-2-.69A2.65,2.65,0,0,0,176.66,159.63Z"/><path d="M195.93,165.18a2.23,2.23,0,0,0,.46,1.27,3.11,3.11,0,0,0,2.31.67,3.53,3.53,0,0,0,1.57-.29,1,1,0,0,0,.11-1.73,19.15,19.15,0,0,0-3.49-1,7.26,7.26,0,0,1-3.07-1.35,2.92,2.92,0,0,1-.89-2.3,4,4,0,0,1,1.39-3,5.6,5.6,0,0,1,3.92-1.27,7.2,7.2,0,0,1,3.9,1,4.09,4.09,0,0,1,1.73,3.3h-3.34a2,2,0,0,0-.36-1,2.3,2.3,0,0,0-1.88-.68,2.71,2.71,0,0,0-1.56.34,1,1,0,0,0-.46.8.87.87,0,0,0,.49.83,21.38,21.38,0,0,0,3.49.93,6.4,6.4,0,0,1,3,1.42,3.22,3.22,0,0,1,1,2.4,3.88,3.88,0,0,1-1.42,3.1,8.5,8.5,0,0,1-8.83-.07,4.13,4.13,0,0,1-1.44-3.24Z"/><path d="M217.43,157.85a6.81,6.81,0,0,1,1.56,4.85,7.66,7.66,0,0,1-1.53,5.14,5,5,0,0,1-3.93,1.77,4.12,4.12,0,0,1-2.55-.76,4.92,4.92,0,0,1-1.08-1.23v6.66h-3.3v-17.8h3.2v1.89a5.38,5.38,0,0,1,1.16-1.31,4.26,4.26,0,0,1,2.67-.86A5.05,5.05,0,0,1,217.43,157.85Zm-2.56,2.4a2.38,2.38,0,0,0-2.21-1.14,2.51,2.51,0,0,0-2.52,1.72,6.46,6.46,0,0,0-.36,2.32,3.68,3.68,0,0,0,1.19,3.13,2.74,2.74,0,0,0,1.68.53,2.44,2.44,0,0,0,2.15-1.08,5.65,5.65,0,0,0,.06-5.48Z"/><path d="M226.41,161.49a5.29,5.29,0,0,0,1.33-.29,1,1,0,0,0,.72-.95,1.12,1.12,0,0,0-.55-1.08,3.49,3.49,0,0,0-1.62-.3,2.13,2.13,0,0,0-1.7.59,2.41,2.41,0,0,0-.48,1.17h-3.22a4.89,4.89,0,0,1,.94-2.75q1.33-1.69,4.57-1.69a8.14,8.14,0,0,1,3.74.83,3.19,3.19,0,0,1,1.64,3.14V166q0,.61,0,1.48a1.86,1.86,0,0,0,.2.89,1.2,1.2,0,0,0,.49.39v.49h-3.63a3.72,3.72,0,0,1-.21-.73q-.06-.34-.09-.77A6.9,6.9,0,0,1,227,169a4.85,4.85,0,0,1-2.45.62,4.23,4.23,0,0,1-2.88-1,3.52,3.52,0,0,1-1.14-2.81,3.64,3.64,0,0,1,1.83-3.41,8.17,8.17,0,0,1,3-.82Zm2,1.56a3.7,3.7,0,0,1-.65.32,5.5,5.5,0,0,1-.9.23l-.76.14a5,5,0,0,0-1.54.46,1.52,1.52,0,0,0-.79,1.42,1.48,1.48,0,0,0,.48,1.24,1.83,1.83,0,0,0,1.17.38,3.49,3.49,0,0,0,2-.63,2.68,2.68,0,0,0,1-2.31Z"/><path d="M245,157.21a4.23,4.23,0,0,1,1.25,3.44v8.6h-3.42v-7.77a3.57,3.57,0,0,0-.27-1.55,1.88,1.88,0,0,0-1.86-1,2.31,2.31,0,0,0-2.31,1.44,5,5,0,0,0-.33,1.95v6.91h-3.34V156.51H238v1.86a5.66,5.66,0,0,1,1.21-1.42,4.2,4.2,0,0,1,2.6-.77A4.9,4.9,0,0,1,245,157.21Z"/><path d="M266.68,167.69a7,7,0,0,1-9.82,0,7.92,7.92,0,0,1,0-9.6,7,7,0,0,1,9.82,0,7.92,7.92,0,0,1,0,9.6ZM264,165.85a6,6,0,0,0,0-5.92,3,3,0,0,0-4.51,0,5.92,5.92,0,0,0,0,5.92,3,3,0,0,0,4.51,0Z"/><path d="M276,151.82l.7.05v2.72q-.28,0-.94-.05a1.09,1.09,0,0,0-.91.29,1.06,1.06,0,0,0-.25.69v1.08h2.19V159h-2.19v10.3h-3.32V159h-1.87V156.6h1.83v-.82a4.32,4.32,0,0,1,.69-2.82q.73-1.15,3.5-1.15Z"/><path d="M290.41,161.49a5.28,5.28,0,0,0,1.33-.29,1,1,0,0,0,.72-.95,1.12,1.12,0,0,0-.55-1.08,3.49,3.49,0,0,0-1.62-.3,2.13,2.13,0,0,0-1.7.59,2.42,2.42,0,0,0-.47,1.17h-3.22a4.89,4.89,0,0,1,.94-2.75q1.33-1.69,4.57-1.69a8.15,8.15,0,0,1,3.74.83,3.19,3.19,0,0,1,1.64,3.14V166q0,.61,0,1.48a1.86,1.86,0,0,0,.2.89,1.2,1.2,0,0,0,.49.39v.49h-3.63a3.72,3.72,0,0,1-.21-.73q-.06-.34-.09-.77A6.89,6.89,0,0,1,291,169a4.84,4.84,0,0,1-2.45.62,4.23,4.23,0,0,1-2.88-1,3.52,3.52,0,0,1-1.14-2.81,3.64,3.64,0,0,1,1.83-3.41,8.17,8.17,0,0,1,3-.82Zm2,1.56a3.7,3.7,0,0,1-.65.32,5.46,5.46,0,0,1-.9.23l-.76.14a5,5,0,0,0-1.54.46,1.52,1.52,0,0,0-.79,1.42,1.48,1.48,0,0,0,.48,1.24,1.83,1.83,0,0,0,1.17.38,3.49,3.49,0,0,0,2-.63,2.68,2.68,0,0,0,1-2.31Z"/><path d="M309.44,157.85a6.81,6.81,0,0,1,1.56,4.85,7.66,7.66,0,0,1-1.53,5.14,5,5,0,0,1-3.93,1.77,4.12,4.12,0,0,1-2.55-.76,4.92,4.92,0,0,1-1.08-1.23v6.66h-3.3v-17.8h3.2v1.89a5.36,5.36,0,0,1,1.16-1.31,4.26,4.26,0,0,1,2.67-.86A5.05,5.05,0,0,1,309.44,157.85Zm-2.56,2.4a2.38,2.38,0,0,0-2.21-1.14,2.51,2.51,0,0,0-2.52,1.72,6.46,6.46,0,0,0-.36,2.32,3.68,3.68,0,0,0,1.2,3.13,2.74,2.74,0,0,0,1.68.53,2.44,2.44,0,0,0,2.15-1.08,5.65,5.65,0,0,0,.06-5.48Z"/><path d="M324.1,157.85a6.81,6.81,0,0,1,1.56,4.85,7.66,7.66,0,0,1-1.53,5.14,5,5,0,0,1-3.93,1.77,4.12,4.12,0,0,1-2.55-.76,4.92,4.92,0,0,1-1.08-1.23v6.66h-3.3v-17.8h3.2v1.89a5.36,5.36,0,0,1,1.16-1.31,4.26,4.26,0,0,1,2.67-.86A5.05,5.05,0,0,1,324.1,157.85Zm-2.56,2.4a2.38,2.38,0,0,0-2.21-1.14,2.51,2.51,0,0,0-2.52,1.72,6.46,6.46,0,0,0-.36,2.32,3.68,3.68,0,0,0,1.2,3.13,2.74,2.74,0,0,0,1.68.53,2.44,2.44,0,0,0,2.15-1.08,5.65,5.65,0,0,0,.06-5.48Z"/><path d="M331.43,169.26h-3.34V152h3.34Z"/><path d="M338.12,155h-3.39v-3.08h3.39Zm-3.39,1.52h3.39v12.77h-3.39Z"/><path d="M349,161.06a3,3,0,0,0-.48-1.29,2,2,0,0,0-1.75-.77,2.3,2.3,0,0,0-2.31,1.68,7,7,0,0,0-.33,2.36,6.39,6.39,0,0,0,.33,2.26,2.23,2.23,0,0,0,2.25,1.59,2,2,0,0,0,1.67-.63,3.14,3.14,0,0,0,.6-1.64h3.41a5.58,5.58,0,0,1-1.1,2.88,5.36,5.36,0,0,1-4.66,2.19,5.45,5.45,0,0,1-4.54-1.83,7.38,7.38,0,0,1-1.46-4.74,7.49,7.49,0,0,1,1.61-5.11,5.59,5.59,0,0,1,4.43-1.83,6.68,6.68,0,0,1,3.94,1.08,5,5,0,0,1,1.81,3.81Z"/><path d="M359.76,161.49a5.28,5.28,0,0,0,1.33-.29,1,1,0,0,0,.72-.95,1.12,1.12,0,0,0-.55-1.08,3.49,3.49,0,0,0-1.62-.3,2.13,2.13,0,0,0-1.7.59,2.42,2.42,0,0,0-.47,1.17h-3.22a4.89,4.89,0,0,1,.94-2.75q1.33-1.69,4.57-1.69a8.15,8.15,0,0,1,3.74.83,3.19,3.19,0,0,1,1.64,3.14V166q0,.61,0,1.48a1.86,1.86,0,0,0,.2.89,1.2,1.2,0,0,0,.49.39v.49h-3.63a3.72,3.72,0,0,1-.21-.73q-.06-.34-.09-.77a6.89,6.89,0,0,1-1.6,1.28,4.84,4.84,0,0,1-2.45.62,4.23,4.23,0,0,1-2.88-1,3.52,3.52,0,0,1-1.14-2.81,3.64,3.64,0,0,1,1.83-3.41,8.17,8.17,0,0,1,3-.82Zm2,1.56a3.7,3.7,0,0,1-.65.32,5.46,5.46,0,0,1-.9.23l-.76.14a5,5,0,0,0-1.54.46,1.52,1.52,0,0,0-.79,1.42,1.48,1.48,0,0,0,.48,1.24,1.83,1.83,0,0,0,1.17.38,3.49,3.49,0,0,0,2-.63,2.68,2.68,0,0,0,1-2.31Z"/><path d="M366.73,159V156.6h1.78V153h3.3v3.56h2.07V159h-2.07v6.75a1.52,1.52,0,0,0,.2,1,2.19,2.19,0,0,0,1.22.19h.32l.33,0v2.5l-1.58.06q-2.37.08-3.23-.82a2.44,2.44,0,0,1-.56-1.77V159Z"/><path d="M379.47,155h-3.39v-3.08h3.39Zm-3.39,1.52h3.39v12.77h-3.39Z"/><path d="M393.36,167.69a7,7,0,0,1-9.82,0,7.92,7.92,0,0,1,0-9.6,7,7,0,0,1,9.82,0,7.92,7.92,0,0,1,0,9.6Zm-2.67-1.85a6,6,0,0,0,0-5.92,3,3,0,0,0-4.51,0,5.92,5.92,0,0,0,0,5.92,3,3,0,0,0,4.51,0Z"/><path d="M407.67,157.21a4.22,4.22,0,0,1,1.25,3.44v8.6H405.5v-7.77a3.56,3.56,0,0,0-.27-1.55,1.88,1.88,0,0,0-1.86-1,2.31,2.31,0,0,0-2.31,1.44,5,5,0,0,0-.33,1.95v6.91h-3.34V156.51h3.23v1.86a5.65,5.65,0,0,1,1.21-1.42,4.2,4.2,0,0,1,2.6-.77A4.89,4.89,0,0,1,407.67,157.21Z"/><path d="M414.62,165.18a2.22,2.22,0,0,0,.46,1.27,3.12,3.12,0,0,0,2.31.67,3.53,3.53,0,0,0,1.57-.29,1,1,0,0,0,.11-1.73,19.14,19.14,0,0,0-3.49-1,7.26,7.26,0,0,1-3.07-1.35,2.92,2.92,0,0,1-.89-2.3,4,4,0,0,1,1.39-3,5.6,5.6,0,0,1,3.92-1.27,7.2,7.2,0,0,1,3.9,1,4.09,4.09,0,0,1,1.73,3.3h-3.34a2,2,0,0,0-.36-1,2.3,2.3,0,0,0-1.88-.68,2.71,2.71,0,0,0-1.56.34,1,1,0,0,0-.46.8.87.87,0,0,0,.49.83,21.33,21.33,0,0,0,3.49.93,6.39,6.39,0,0,1,3,1.42,3.22,3.22,0,0,1,1,2.4,3.88,3.88,0,0,1-1.42,3.1,8.5,8.5,0,0,1-8.83-.07,4.13,4.13,0,0,1-1.44-3.24Z"/><path d="M128,171.66v-1.18H423.82v1.18Z"/><path d="M44.79,207h6.74a4.57,4.57,0,0,1,3.23,1.13A4.11,4.11,0,0,1,56,211.35a4.63,4.63,0,0,1-1.1,3.07,4.14,4.14,0,0,1-3.36,1.31h-4.7v6.37h-2Zm7.91,2.07a4.38,4.38,0,0,0-1.84-.32h-4V214h4a3.83,3.83,0,0,0,2.21-.58,2.32,2.32,0,0,0,.85-2.06A2.27,2.27,0,0,0,52.71,209.11Z"/><path d="M58.41,211.12h1.75V213a4.2,4.2,0,0,1,1.06-1.35,2.74,2.74,0,0,1,1.94-.79h.17l.42,0v1.95l-.3,0h-.3a2.64,2.64,0,0,0-2.14.9,3.13,3.13,0,0,0-.75,2.07v6.32H58.41Z"/><path d="M73.31,212.21a5.54,5.54,0,0,1,1.46,4.16,7.17,7.17,0,0,1-1.28,4.38,4.63,4.63,0,0,1-4,1.73A4.48,4.48,0,0,1,65.93,221a6.07,6.07,0,0,1-1.32-4.11,6.57,6.57,0,0,1,1.4-4.41,4.67,4.67,0,0,1,3.75-1.64A4.92,4.92,0,0,1,73.31,212.21Zm-1.15,7.3a7,7,0,0,0,.67-3.09,5.54,5.54,0,0,0-.49-2.5,2.73,2.73,0,0,0-2.66-1.52,2.61,2.61,0,0,0-2.43,1.29,6,6,0,0,0-.76,3.11,5.24,5.24,0,0,0,.76,2.92,2.67,2.67,0,0,0,2.41,1.17A2.51,2.51,0,0,0,72.16,219.51Z"/><path d="M84.29,211.7a4.32,4.32,0,0,1,1.4,3.11H83.89a3.32,3.32,0,0,0-.75-1.69,2.37,2.37,0,0,0-1.88-.67,2.59,2.59,0,0,0-2.52,1.72,6.83,6.83,0,0,0-.49,2.75,5.18,5.18,0,0,0,.7,2.78,2.71,2.71,0,0,0,4,.43,3.84,3.84,0,0,0,.93-1.92h1.79a4.34,4.34,0,0,1-4.69,4.2,4.2,4.2,0,0,1-3.44-1.57,6,6,0,0,1-1.28-3.93,6.62,6.62,0,0,1,1.4-4.5,4.54,4.54,0,0,1,3.58-1.61A4.79,4.79,0,0,1,84.29,211.7Z"/><path d="M94.32,211.42A4.16,4.16,0,0,1,96,212.84a4.92,4.92,0,0,1,.73,1.94,12.78,12.78,0,0,1,.16,2.42h-8a4.75,4.75,0,0,0,.78,2.69,2.61,2.61,0,0,0,2.27,1,2.92,2.92,0,0,0,2.29-1,3.26,3.26,0,0,0,.68-1.29h1.81a3.83,3.83,0,0,1-.48,1.35,4.87,4.87,0,0,1-.9,1.21,4.26,4.26,0,0,1-2.07,1.11,6.23,6.23,0,0,1-1.5.16A4.58,4.58,0,0,1,88.32,221a5.83,5.83,0,0,1-1.42-4.18,6.34,6.34,0,0,1,1.43-4.3,4.69,4.69,0,0,1,3.73-1.65A5,5,0,0,1,94.32,211.42Zm.66,4.31a4.82,4.82,0,0,0-.52-1.92,2.65,2.65,0,0,0-2.51-1.33,2.77,2.77,0,0,0-2.11.92,3.48,3.48,0,0,0-.9,2.33Z"/><path d="M100.31,218.65a2.65,2.65,0,0,0,.47,1.42,3,3,0,0,0,2.47.89,3.71,3.71,0,0,0,1.84-.45,1.48,1.48,0,0,0,.8-1.38,1.18,1.18,0,0,0-.64-1.08,7.64,7.64,0,0,0-1.6-.52l-1.49-.37a7.34,7.34,0,0,1-2.1-.78,2.32,2.32,0,0,1-1.21-2.07,3.15,3.15,0,0,1,1.14-2.52,4.58,4.58,0,0,1,3.06-1,4.27,4.27,0,0,1,3.63,1.46,3.13,3.13,0,0,1,.68,2H105.6a2.09,2.09,0,0,0-.45-1.13,2.93,2.93,0,0,0-2.26-.72,2.76,2.76,0,0,0-1.62.4,1.24,1.24,0,0,0-.55,1.05,1.29,1.29,0,0,0,.72,1.14,4.4,4.4,0,0,0,1.23.45l1.24.3a9.73,9.73,0,0,1,2.72.93,2.47,2.47,0,0,1,1.08,2.23,3.37,3.37,0,0,1-1.13,2.53,4.83,4.83,0,0,1-3.43,1.07,4.64,4.64,0,0,1-3.51-1.11,4.18,4.18,0,0,1-1.11-2.75Z"/><path d="M110.81,218.65a2.65,2.65,0,0,0,.47,1.42,3,3,0,0,0,2.47.89,3.71,3.71,0,0,0,1.84-.45,1.48,1.48,0,0,0,.8-1.38,1.18,1.18,0,0,0-.64-1.08,7.64,7.64,0,0,0-1.6-.52l-1.49-.37a7.34,7.34,0,0,1-2.1-.78,2.32,2.32,0,0,1-1.21-2.07,3.15,3.15,0,0,1,1.14-2.52,4.58,4.58,0,0,1,3.06-1,4.27,4.27,0,0,1,3.63,1.46,3.13,3.13,0,0,1,.68,2H116.1a2.09,2.09,0,0,0-.45-1.13,2.93,2.93,0,0,0-2.26-.72,2.76,2.76,0,0,0-1.62.4,1.24,1.24,0,0,0-.55,1.05,1.29,1.29,0,0,0,.72,1.14,4.4,4.4,0,0,0,1.23.45l1.24.3a9.73,9.73,0,0,1,2.72.93,2.47,2.47,0,0,1,1.08,2.23,3.37,3.37,0,0,1-1.13,2.53,4.83,4.83,0,0,1-3.43,1.07,4.64,4.64,0,0,1-3.51-1.11,4.18,4.18,0,0,1-1.11-2.75Z"/><path d="M127.14,218.65a2.65,2.65,0,0,0,.47,1.42,3,3,0,0,0,2.47.89,3.71,3.71,0,0,0,1.84-.45,1.48,1.48,0,0,0,.8-1.38,1.18,1.18,0,0,0-.64-1.08,7.64,7.64,0,0,0-1.6-.52l-1.49-.37a7.34,7.34,0,0,1-2.1-.78,2.32,2.32,0,0,1-1.21-2.07,3.15,3.15,0,0,1,1.14-2.52,4.58,4.58,0,0,1,3.06-1,4.27,4.27,0,0,1,3.63,1.46,3.13,3.13,0,0,1,.68,2h-1.74a2.09,2.09,0,0,0-.45-1.13,2.93,2.93,0,0,0-2.26-.72,2.76,2.76,0,0,0-1.62.4,1.24,1.24,0,0,0-.55,1.05,1.29,1.29,0,0,0,.72,1.14,4.4,4.4,0,0,0,1.23.45l1.24.3a9.73,9.73,0,0,1,2.72.93,2.47,2.47,0,0,1,1.08,2.23,3.37,3.37,0,0,1-1.13,2.53,4.83,4.83,0,0,1-3.43,1.07,4.64,4.64,0,0,1-3.51-1.11,4.18,4.18,0,0,1-1.11-2.75Z"/><path d="M136.92,208.05h1.87v3.07h1.75v1.51h-1.75v7.17a.78.78,0,0,0,.39.77,1.66,1.66,0,0,0,.72.11h.29l.36,0v1.47a4.12,4.12,0,0,1-.66.13,6.28,6.28,0,0,1-.74,0,2,2,0,0,1-1.75-.66,2.94,2.94,0,0,1-.46-1.72v-7.27h-1.49v-1.51h1.49Z"/><path d="M144.23,211.12v7.29a3.14,3.14,0,0,0,.26,1.37,1.8,1.8,0,0,0,1.79,1,2.53,2.53,0,0,0,2.56-1.72,7,7,0,0,0,.37-2.53v-5.39H151v11H149.3l0-1.62a3.7,3.7,0,0,1-.88,1.06,3.8,3.8,0,0,1-2.52.86,3.23,3.23,0,0,1-3.14-1.57,4.75,4.75,0,0,1-.45-2.25v-7.46Z"/><path d="M160.09,211.46a5,5,0,0,1,1.11,1.08V207H163V222.1h-1.66v-1.53A4,4,0,0,1,159.8,222a4.34,4.34,0,0,1-2,.45,4.07,4.07,0,0,1-3.17-1.54,6.05,6.05,0,0,1-1.34-4.11,7.11,7.11,0,0,1,1.22-4.16,4,4,0,0,1,3.49-1.76A3.88,3.88,0,0,1,160.09,211.46ZM156,219.69a2.61,2.61,0,0,0,2.39,1.19,2.51,2.51,0,0,0,2.1-1.1,5.23,5.23,0,0,0,.82-3.16,4.7,4.7,0,0,0-.85-3.08,2.64,2.64,0,0,0-2.09-1,2.76,2.76,0,0,0-2.25,1.07,4.9,4.9,0,0,0-.86,3.14A5.46,5.46,0,0,0,156,219.69Z"/><path d="M165.74,207h1.88v2.09h-1.88Zm0,4.13h1.88V222.1h-1.88Z"/><path d="M177.19,211.42a4.16,4.16,0,0,1,1.66,1.42,4.92,4.92,0,0,1,.73,1.94,12.78,12.78,0,0,1,.16,2.42h-8a4.75,4.75,0,0,0,.78,2.69,2.61,2.61,0,0,0,2.27,1,2.92,2.92,0,0,0,2.29-1,3.26,3.26,0,0,0,.68-1.29h1.81a3.83,3.83,0,0,1-.48,1.35,4.87,4.87,0,0,1-.9,1.21,4.26,4.26,0,0,1-2.07,1.11,6.23,6.23,0,0,1-1.5.16A4.58,4.58,0,0,1,171.2,221a5.83,5.83,0,0,1-1.42-4.18,6.34,6.34,0,0,1,1.43-4.3,4.69,4.69,0,0,1,3.73-1.65A5,5,0,0,1,177.19,211.42Zm.66,4.31a4.82,4.82,0,0,0-.52-1.92,2.65,2.65,0,0,0-2.51-1.33,2.77,2.77,0,0,0-2.11.92,3.48,3.48,0,0,0-.9,2.33Z"/><path d="M183.18,218.65a2.65,2.65,0,0,0,.47,1.42,3,3,0,0,0,2.47.89,3.71,3.71,0,0,0,1.84-.45,1.48,1.48,0,0,0,.8-1.38,1.18,1.18,0,0,0-.64-1.08,7.64,7.64,0,0,0-1.6-.52l-1.49-.37a7.34,7.34,0,0,1-2.1-.78,2.32,2.32,0,0,1-1.21-2.07,3.15,3.15,0,0,1,1.14-2.52,4.58,4.58,0,0,1,3.06-1,4.27,4.27,0,0,1,3.63,1.46,3.13,3.13,0,0,1,.68,2h-1.74a2.09,2.09,0,0,0-.45-1.13,2.93,2.93,0,0,0-2.26-.72,2.76,2.76,0,0,0-1.62.4,1.24,1.24,0,0,0-.55,1.05,1.29,1.29,0,0,0,.72,1.14,4.4,4.4,0,0,0,1.23.45l1.24.3a9.73,9.73,0,0,1,2.72.93,2.47,2.47,0,0,1,1.08,2.23,3.37,3.37,0,0,1-1.13,2.53,4.83,4.83,0,0,1-3.43,1.07,4.64,4.64,0,0,1-3.51-1.11,4.18,4.18,0,0,1-1.11-2.75Z"/><line class="cls-1" x1="214.76" y1="215" x2="338.36" y2="215.03"/><polygon points="216.95 222.48 204 215 216.96 207.52 216.95 222.48"/><polygon points="336.17 222.51 349.13 215.03 336.18 207.55 336.17 222.51"/><path d="M376.25,204.13a5.35,5.35,0,0,1,1.73,3.42h-2a3.79,3.79,0,0,0-4.11-3.16,4.43,4.43,0,0,0-3.53,1.56,7.23,7.23,0,0,0-1.34,4.8,7.07,7.07,0,0,0,1.21,4.29,4.21,4.21,0,0,0,3.62,1.65,3.81,3.81,0,0,0,3.38-1.73,6.68,6.68,0,0,0,.92-2.4h2a6.84,6.84,0,0,1-1.74,4,6.17,6.17,0,0,1-4.78,1.94,6.27,6.27,0,0,1-4.36-1.59q-2.32-2.1-2.32-6.5a8.36,8.36,0,0,1,1.74-5.47,6.33,6.33,0,0,1,5.2-2.32A6.06,6.06,0,0,1,376.25,204.13Z"/><path d="M388.48,208.21a5.54,5.54,0,0,1,1.46,4.16,7.17,7.17,0,0,1-1.28,4.38,4.63,4.63,0,0,1-4,1.73,4.48,4.48,0,0,1-3.57-1.53,6.07,6.07,0,0,1-1.32-4.11,6.57,6.57,0,0,1,1.4-4.41,4.67,4.67,0,0,1,3.75-1.64A4.92,4.92,0,0,1,388.48,208.21Zm-1.15,7.3a7,7,0,0,0,.67-3.09,5.55,5.55,0,0,0-.49-2.5,2.73,2.73,0,0,0-2.66-1.52,2.61,2.61,0,0,0-2.43,1.29,6,6,0,0,0-.76,3.11,5.24,5.24,0,0,0,.76,2.92,2.67,2.67,0,0,0,2.41,1.17A2.51,2.51,0,0,0,387.33,215.51Z"/><path d="M394,207.12v7.29a3.15,3.15,0,0,0,.26,1.37,1.8,1.8,0,0,0,1.79,1,2.53,2.53,0,0,0,2.56-1.72,7,7,0,0,0,.37-2.53v-5.39h1.85v11h-1.74l0-1.62a3.71,3.71,0,0,1-.88,1.06,3.8,3.8,0,0,1-2.51.86,3.23,3.23,0,0,1-3.14-1.57,4.76,4.76,0,0,1-.45-2.25v-7.46Z"/><path d="M403.72,207.17h1.8v1.46a4.48,4.48,0,0,1,1.21-1.16,3.91,3.91,0,0,1,2.2-.62,4.14,4.14,0,0,1,3.18,1.43,5.85,5.85,0,0,1,1.31,4.09q0,3.59-1.88,5.13a4.27,4.27,0,0,1-2.78,1,3.78,3.78,0,0,1-2.09-.54,4.82,4.82,0,0,1-1.1-1.06v5.61h-1.85Zm6.94,8.61a5.14,5.14,0,0,0,.86-3.24,6,6,0,0,0-.38-2.26,2.79,2.79,0,0,0-5.27.1,7.57,7.57,0,0,0-.38,2.6,5.5,5.5,0,0,0,.38,2.16,2.8,2.8,0,0,0,4.79.62Z"/><path d="M415.61,203h1.85V218.1h-1.85Z"/><path d="M427,207.42a4.16,4.16,0,0,1,1.66,1.42,4.93,4.93,0,0,1,.73,1.94,12.78,12.78,0,0,1,.16,2.42h-8a4.74,4.74,0,0,0,.78,2.69,2.61,2.61,0,0,0,2.27,1,2.92,2.92,0,0,0,2.29-1,3.25,3.25,0,0,0,.68-1.29h1.82a3.85,3.85,0,0,1-.48,1.35,4.89,4.89,0,0,1-.9,1.21,4.26,4.26,0,0,1-2.07,1.11,6.23,6.23,0,0,1-1.5.16A4.58,4.58,0,0,1,421,217a5.82,5.82,0,0,1-1.42-4.18,6.34,6.34,0,0,1,1.43-4.3,4.69,4.69,0,0,1,3.73-1.65A5,5,0,0,1,427,207.42Zm.66,4.31a4.82,4.82,0,0,0-.52-1.92,2.65,2.65,0,0,0-2.51-1.33,2.77,2.77,0,0,0-2.12.92,3.48,3.48,0,0,0-.9,2.33Z"/><path d="M437.94,207.46a5,5,0,0,1,1.11,1.08V203h1.77V218.1h-1.66v-1.53a4,4,0,0,1-1.52,1.47,4.34,4.34,0,0,1-2,.45,4.07,4.07,0,0,1-3.17-1.54,6.05,6.05,0,0,1-1.34-4.11,7.11,7.11,0,0,1,1.22-4.16,4,4,0,0,1,3.49-1.76A3.89,3.89,0,0,1,437.94,207.46Zm-4.12,8.23a2.61,2.61,0,0,0,2.39,1.19,2.51,2.51,0,0,0,2.1-1.1,5.23,5.23,0,0,0,.82-3.16,4.7,4.7,0,0,0-.85-3.08,2.64,2.64,0,0,0-2.09-1,2.76,2.76,0,0,0-2.25,1.07,4.91,4.91,0,0,0-.86,3.14A5.47,5.47,0,0,0,433.81,215.69Z"/><path d="M456.67,207.7a4.32,4.32,0,0,1,1.4,3.11h-1.79a3.32,3.32,0,0,0-.75-1.69,2.36,2.36,0,0,0-1.88-.67,2.59,2.59,0,0,0-2.52,1.72,6.83,6.83,0,0,0-.49,2.75,5.18,5.18,0,0,0,.7,2.78,2.71,2.71,0,0,0,4,.43,3.84,3.84,0,0,0,.93-1.92h1.79a4.34,4.34,0,0,1-4.69,4.2,4.2,4.2,0,0,1-3.43-1.57,6,6,0,0,1-1.28-3.93,6.63,6.63,0,0,1,1.41-4.5,4.54,4.54,0,0,1,3.58-1.61A4.79,4.79,0,0,1,456.67,207.7Z"/><path d="M460,203h1.85V218.1H460Z"/><path d="M464.58,203h1.88v2.09h-1.88Zm0,4.13h1.88V218.1h-1.88Z"/><path d="M469.25,207.12h1.83v1.56a6.13,6.13,0,0,1,1.19-1.18,3.58,3.58,0,0,1,2.07-.63,3.26,3.26,0,0,1,2.11.65,3.38,3.38,0,0,1,.82,1.09,4,4,0,0,1,1.45-1.31,4,4,0,0,1,1.87-.43,3.05,3.05,0,0,1,3,1.6,5.23,5.23,0,0,1,.43,2.32v7.31H482.1v-7.63a1.78,1.78,0,0,0-.55-1.51,2.17,2.17,0,0,0-1.34-.41,2.65,2.65,0,0,0-1.87.73,3.2,3.2,0,0,0-.78,2.43v6.39h-1.88v-7.17a3.72,3.72,0,0,0-.27-1.63,1.63,1.63,0,0,0-1.57-.77,2.7,2.7,0,0,0-1.9.81,4,4,0,0,0-.86,2.93v5.82h-1.85Z"/><path d="M492.63,211.45a1,1,0,0,0,.85-.53,1.64,1.64,0,0,0,.12-.71,1.51,1.51,0,0,0-.67-1.37,3.58,3.58,0,0,0-1.92-.43,2.43,2.43,0,0,0-2,.78,2.6,2.6,0,0,0-.44,1.29H486.8a3.18,3.18,0,0,1,1.32-2.83,5.38,5.38,0,0,1,2.93-.8,6,6,0,0,1,3.14.74,2.51,2.51,0,0,1,1.2,2.3v6.33a.81.81,0,0,0,.12.46.57.57,0,0,0,.5.17l.28,0,.33,0v1.36a5.14,5.14,0,0,1-.66.15,4.8,4.8,0,0,1-.62,0,1.52,1.52,0,0,1-1.38-.68,2.6,2.6,0,0,1-.32-1,4.7,4.7,0,0,1-1.62,1.28,5,5,0,0,1-2.33.54,3.47,3.47,0,0,1-2.5-.93,3.08,3.08,0,0,1-1-2.32,3,3,0,0,1,1-2.37,4.55,4.55,0,0,1,2.5-1Zm-3.89,5a2.17,2.17,0,0,0,1.38.46,4.21,4.21,0,0,0,1.89-.45,2.54,2.54,0,0,0,1.54-2.45v-1.48a3.15,3.15,0,0,1-.87.36,7.28,7.28,0,0,1-1,.21l-1.12.14a4.31,4.31,0,0,0-1.51.42,1.63,1.63,0,0,0-.86,1.53A1.52,1.52,0,0,0,488.74,216.44Z"/><path d="M498.79,204.05h1.87v3.07h1.75v1.51h-1.75v7.17a.78.78,0,0,0,.39.77,1.66,1.66,0,0,0,.72.11H502l.36,0v1.47a4.13,4.13,0,0,1-.66.13,6.29,6.29,0,0,1-.74,0,2,2,0,0,1-1.75-.66,2.94,2.94,0,0,1-.46-1.72v-7.27H497.3v-1.51h1.49Z"/><path d="M511,207.42a4.16,4.16,0,0,1,1.66,1.42,4.93,4.93,0,0,1,.73,1.94,12.89,12.89,0,0,1,.16,2.42h-8a4.74,4.74,0,0,0,.78,2.69,2.61,2.61,0,0,0,2.27,1,2.91,2.91,0,0,0,2.29-1,3.25,3.25,0,0,0,.68-1.29h1.82A3.83,3.83,0,0,1,513,216a4.87,4.87,0,0,1-.9,1.21,4.26,4.26,0,0,1-2.07,1.11,6.23,6.23,0,0,1-1.5.16A4.58,4.58,0,0,1,505,217a5.83,5.83,0,0,1-1.42-4.18,6.34,6.34,0,0,1,1.43-4.3,4.69,4.69,0,0,1,3.73-1.65A5,5,0,0,1,511,207.42Zm.66,4.31a4.82,4.82,0,0,0-.52-1.92,2.65,2.65,0,0,0-2.51-1.33,2.77,2.77,0,0,0-2.11.92,3.48,3.48,0,0,0-.91,2.33Z"/><path d="M372.14,232.62A4.16,4.16,0,0,1,373.8,234a4.91,4.91,0,0,1,.73,1.94,12.68,12.68,0,0,1,.16,2.42h-8a4.75,4.75,0,0,0,.78,2.69,2.61,2.61,0,0,0,2.27,1,2.92,2.92,0,0,0,2.29-1,3.27,3.27,0,0,0,.68-1.29h1.81a3.83,3.83,0,0,1-.48,1.35,4.87,4.87,0,0,1-.9,1.21,4.26,4.26,0,0,1-2.07,1.11,6.23,6.23,0,0,1-1.5.16,4.58,4.58,0,0,1-3.45-1.49,5.83,5.83,0,0,1-1.42-4.18,6.34,6.34,0,0,1,1.43-4.3,4.7,4.7,0,0,1,3.73-1.65A5,5,0,0,1,372.14,232.62Zm.66,4.31a4.82,4.82,0,0,0-.52-1.92,2.65,2.65,0,0,0-2.51-1.33,2.78,2.78,0,0,0-2.12.92,3.48,3.48,0,0,0-.9,2.33Z"/><path d="M376,232.32h2.39l2.52,3.87,2.55-3.87,2.25.05-3.7,5.3,3.87,5.63H383.5l-2.73-4.12-2.65,4.12h-2.34l3.87-5.63Z"/><path d="M387.38,232.37h1.8v1.46a4.49,4.49,0,0,1,1.21-1.16,3.91,3.91,0,0,1,2.2-.62,4.14,4.14,0,0,1,3.18,1.43,5.85,5.85,0,0,1,1.31,4.09q0,3.59-1.88,5.13a4.27,4.27,0,0,1-2.78,1,3.78,3.78,0,0,1-2.09-.54,4.78,4.78,0,0,1-1.1-1.06v5.61h-1.85Zm6.94,8.61a5.14,5.14,0,0,0,.86-3.24,6,6,0,0,0-.38-2.26,2.79,2.79,0,0,0-5.27.1,7.57,7.57,0,0,0-.38,2.6,5.5,5.5,0,0,0,.38,2.16,2.8,2.8,0,0,0,4.79.62Z"/><path d="M406,232.62a4.16,4.16,0,0,1,1.66,1.42,4.93,4.93,0,0,1,.73,1.94,12.89,12.89,0,0,1,.16,2.42h-8a4.74,4.74,0,0,0,.78,2.69,2.61,2.61,0,0,0,2.27,1,2.91,2.91,0,0,0,2.29-1,3.25,3.25,0,0,0,.68-1.29h1.82a3.83,3.83,0,0,1-.48,1.35,4.87,4.87,0,0,1-.9,1.21,4.26,4.26,0,0,1-2.07,1.11,6.23,6.23,0,0,1-1.5.16A4.58,4.58,0,0,1,400,242.2a5.83,5.83,0,0,1-1.42-4.18,6.34,6.34,0,0,1,1.43-4.3,4.69,4.69,0,0,1,3.73-1.65A5,5,0,0,1,406,232.62Zm.66,4.31a4.82,4.82,0,0,0-.52-1.92,2.65,2.65,0,0,0-2.51-1.33,2.77,2.77,0,0,0-2.11.92,3.48,3.48,0,0,0-.91,2.33Z"/><path d="M410.94,232.32h1.75v1.9a4.21,4.21,0,0,1,1.06-1.35,2.74,2.74,0,0,1,1.94-.79h.17l.42,0v1.95l-.3,0h-.3a2.63,2.63,0,0,0-2.14.9,3.13,3.13,0,0,0-.75,2.07v6.32h-1.85Z"/><path d="M417.88,228.24h1.88v2.09h-1.88Zm0,4.13h1.88V243.3h-1.88Z"/><path d="M422.55,232.32h1.83v1.56a6.13,6.13,0,0,1,1.19-1.18,3.58,3.58,0,0,1,2.07-.63,3.26,3.26,0,0,1,2.11.65,3.38,3.38,0,0,1,.82,1.09A4,4,0,0,1,432,232.5a4,4,0,0,1,1.87-.43,3.05,3.05,0,0,1,3,1.6,5.23,5.23,0,0,1,.43,2.32v7.31h-1.92v-7.63a1.78,1.78,0,0,0-.55-1.51,2.17,2.17,0,0,0-1.34-.41,2.65,2.65,0,0,0-1.87.73,3.2,3.2,0,0,0-.79,2.43v6.39H429v-7.17a3.72,3.72,0,0,0-.27-1.63,1.62,1.62,0,0,0-1.57-.77,2.71,2.71,0,0,0-1.9.81,4,4,0,0,0-.86,2.93v5.82h-1.85Z"/><path d="M446.83,232.62a4.16,4.16,0,0,1,1.66,1.42,4.91,4.91,0,0,1,.73,1.94,12.68,12.68,0,0,1,.16,2.42h-8a4.75,4.75,0,0,0,.78,2.69,2.61,2.61,0,0,0,2.27,1,2.92,2.92,0,0,0,2.29-1,3.27,3.27,0,0,0,.68-1.29h1.81a3.83,3.83,0,0,1-.48,1.35,4.87,4.87,0,0,1-.9,1.21,4.26,4.26,0,0,1-2.07,1.11,6.23,6.23,0,0,1-1.5.16,4.58,4.58,0,0,1-3.45-1.49,5.83,5.83,0,0,1-1.42-4.18,6.34,6.34,0,0,1,1.43-4.3,4.7,4.7,0,0,1,3.73-1.65A5,5,0,0,1,446.83,232.62Zm.66,4.31A4.82,4.82,0,0,0,447,235a2.65,2.65,0,0,0-2.51-1.33,2.78,2.78,0,0,0-2.12.92,3.48,3.48,0,0,0-.9,2.33Z"/><path d="M451.72,232.32h1.75v1.56a4.91,4.91,0,0,1,1.65-1.38,4.4,4.4,0,0,1,1.94-.42,3.2,3.2,0,0,1,3.16,1.63,5.79,5.79,0,0,1,.45,2.55v7H458.8v-6.92a3.75,3.75,0,0,0-.3-1.62,1.8,1.8,0,0,0-1.78-1,3.64,3.64,0,0,0-1.08.13,2.77,2.77,0,0,0-1.33.9,2.7,2.7,0,0,0-.6,1.12,7.46,7.46,0,0,0-.14,1.66v5.75h-1.85Z"/><path d="M463.77,229.25h1.87v3.07h1.75v1.51h-1.75V241a.78.78,0,0,0,.39.77,1.66,1.66,0,0,0,.72.11H467l.36,0v1.47a4.16,4.16,0,0,1-.66.13,6.28,6.28,0,0,1-.74,0,2,2,0,0,1-1.75-.66,2.93,2.93,0,0,1-.46-1.72v-7.27h-1.49v-1.51h1.49Z"/><path d="M470.33,239.85a2.64,2.64,0,0,0,.47,1.42,3,3,0,0,0,2.47.89,3.71,3.71,0,0,0,1.84-.45,1.48,1.48,0,0,0,.8-1.38,1.18,1.18,0,0,0-.64-1.08,7.64,7.64,0,0,0-1.61-.52l-1.49-.37a7.33,7.33,0,0,1-2.1-.78,2.32,2.32,0,0,1-1.21-2.07A3.15,3.15,0,0,1,470,233a4.58,4.58,0,0,1,3.06-1,4.28,4.28,0,0,1,3.63,1.46,3.13,3.13,0,0,1,.68,2h-1.74a2.09,2.09,0,0,0-.45-1.13,2.93,2.93,0,0,0-2.26-.72,2.76,2.76,0,0,0-1.62.4,1.24,1.24,0,0,0-.55,1.05,1.29,1.29,0,0,0,.72,1.14,4.41,4.41,0,0,0,1.23.45l1.24.3a9.75,9.75,0,0,1,2.72.93,2.47,2.47,0,0,1,1.08,2.23,3.37,3.37,0,0,1-1.13,2.53,4.83,4.83,0,0,1-3.43,1.07,4.64,4.64,0,0,1-3.51-1.11,4.19,4.19,0,0,1-1.11-2.75Z"/><rect class="cls-1" x="11.33" y="6.67" width="531.33" height="262.67"/></svg>