<svg id="Layer_1" data-name="Layer 1" xmlns="http://www.w3.org/2000/svg" xmlns:xlink="http://www.w3.org/1999/xlink" width="168.75mm" height="135.47mm" viewBox="0 0 478.33 384"><defs><style>.cls-1,.cls-11,.cls-14,.cls-4,.cls-5,.cls-8,.cls-9{fill:none;}.cls-2{clip-path:url(#clip-path);}.cls-3{fill:#fff;}.cls-4{stroke:#fff;}.cls-11,.cls-14,.cls-4,.cls-5,.cls-8,.cls-9{stroke-linejoin:round;}.cls-11,.cls-4,.cls-5{stroke-width:0.5px;}.cls-11,.cls-5{stroke:#000;}.cls-6{font-size:10px;}.cls-10,.cls-12,.cls-13,.cls-6{fill:#231f20;}.cls-12,.cls-13,.cls-6{font-family:Helvetica, Helvetica;}.cls-7{clip-path:url(#clip-path-10);}.cls-8{stroke:#ed2024;}.cls-14,.cls-8,.cls-9{stroke-width:2px;}.cls-9{stroke:#6abd45;}.cls-10{font-size:14px;font-family:Helvetica-Bold, Helvetica;font-weight:700;}.cls-11{stroke-dasharray:6;}.cls-12{font-size:8px;}.cls-13{font-size:6px;}.cls-14{stroke:#3953a4;}.cls-15{fill:#ed2024;fill-rule:evenodd;}</style><clipPath id="clip-path"><rect class="cls-1" y="6" width="478.33" height="373.92"/></clipPath><clipPath id="clip-path-10"><rect class="cls-1" x="19.58" y="15.58" width="446.42" height="352.25"/></clipPath></defs><title>Artboard 1</title><g class="cls-2"><rect class="cls-3" x="-55.33" y="-16.83" width="576.08" height="432.17"/></g><rect class="cls-3" x="19.58" y="15.58" width="446.25" height="352.17"/><polyline class="cls-4" points="19.58 367.75 19.58 15.58 465.83 15.58 465.83 367.75 19.58 367.75"/><path class="cls-5" d="M19.58,367.75H465.83m-446.25,0V15.58m0,352.17v-4.5"/><g class="cls-2"><text class="cls-6" transform="translate(16.83 379.83)">0</text></g><line class="cls-5" x1="83.33" y1="367.75" x2="83.33" y2="363.25"/><text class="cls-6" transform="translate(77.83 379.83)">2</text><g class="cls-2"><text class="cls-6" transform="translate(83.39 379.83)">0</text></g><line class="cls-5" x1="147.08" y1="367.75" x2="147.08" y2="363.25"/><text class="cls-6" transform="translate(141.58 379.83)">4</text><g class="cls-2"><text class="cls-6" transform="translate(147.14 379.83)">0</text></g><line class="cls-5" x1="210.83" y1="367.75" x2="210.83" y2="363.25"/><g class="cls-2"><text class="cls-6" transform="translate(205.33 379.83)">60</text></g><line class="cls-5" x1="274.58" y1="367.75" x2="274.58" y2="363.25"/><g class="cls-2"><text class="cls-6" transform="translate(269.08 379.83)">80</text></g><line class="cls-5" x1="338.33" y1="367.75" x2="338.33" y2="363.25"/><text class="cls-6" transform="translate(330 379.83)">1</text><g class="cls-2"><text class="cls-6" transform="translate(335.56 379.83)">00</text></g><line class="cls-5" x1="402.08" y1="367.75" x2="402.08" y2="363.25"/><text class="cls-6" transform="translate(393.75 379.83)">12</text><g class="cls-2"><text class="cls-6" transform="translate(404.87 379.83)">0</text></g><line class="cls-5" x1="465.92" y1="367.75" x2="465.92" y2="363.25"/><text class="cls-6" transform="translate(457.58 379.83)">14</text><g class="cls-2"><text class="cls-6" transform="translate(468.7 379.83)">0</text></g><line class="cls-5" x1="19.58" y1="367.75" x2="24" y2="367.75"/><text class="cls-6" transform="translate(11.17 371.42)">0</text><line class="cls-5" x1="19.58" y1="332.5" x2="24" y2="332.5"/><text class="cls-6" transform="translate(5.58 336.16)">10</text><line class="cls-5" x1="19.58" y1="297.25" x2="24" y2="297.25"/><text class="cls-6" transform="translate(5.58 300.92)">20</text><line class="cls-5" x1="19.58" y1="262.08" x2="24" y2="262.08"/><text class="cls-6" transform="translate(5.58 265.75)">30</text><line class="cls-5" x1="19.58" y1="226.83" x2="24" y2="226.83"/><text class="cls-6" transform="translate(5.58 230.5)">40</text><line class="cls-5" x1="19.58" y1="191.67" x2="24" y2="191.67"/><text class="cls-6" transform="translate(5.58 195.33)">50</text><line class="cls-5" x1="19.58" y1="156.42" x2="24" y2="156.42"/><text class="cls-6" transform="translate(5.58 160.08)">60</text><line class="cls-5" x1="19.58" y1="121.17" x2="24" y2="121.17"/><text class="cls-6" transform="translate(5.58 124.83)">70</text><line class="cls-5" x1="19.58" y1="86" x2="24" y2="86"/><text class="cls-6" transform="translate(5.58 89.67)">80</text><line class="cls-5" x1="19.58" y1="50.75" x2="24" y2="50.75"/><text class="cls-6" transform="translate(5.58 54.42)">90</text><line class="cls-5" x1="19.58" y1="15.58" x2="24" y2="15.58"/><text class="cls-6" transform="translate(0 19.25)">100</text><g class="cls-7"><path class="cls-8" d="M22.75,364.17h98.83m0-109.17H22.75"/><path class="cls-9" d="M121.58,364.17V255m-98.83,0V364.17"/></g><text class="cls-10" transform="translate(72.17 314.75)">f1</text><polyline class="cls-11" points="22.75 364.17 70.58 364.17 70.58 339.5 22.75 339.5 22.75 364.17"/><text class="cls-6" transform="translate(46.67 355.33)">t1</text><text class="cls-12" transform="translate(25.92 351.08)">f5</text><text class="cls-13" transform="translate(32.58 355.09)">n</text><text class="cls-12" transform="translate(46.67 359.91)">f6</text><text class="cls-13" transform="translate(53.33 363.92)">n</text><polyline class="cls-11" points="73.75 364.17 121.58 364.17 121.58 339.5 73.75 339.5 73.75 364.17"/><text class="cls-6" transform="translate(97.67 355.33)">t2</text><text class="cls-12" transform="translate(97.67 359.91)">f6</text><text class="cls-13" transform="translate(104.33 363.92)">n</text><text class="cls-12" transform="translate(113.08 351.08)">f2</text><text class="cls-13" transform="translate(119.75 355.09)">w</text><polyline class="cls-11" points="22.75 336 70.58 336 70.58 311.33 22.75 311.33 22.75 336"/><text class="cls-6" transform="translate(46.67 327.17)">t3</text><text class="cls-12" transform="translate(25.92 322.91)">f5</text><text class="cls-13" transform="translate(32.58 326.92)">n</text><polyline class="cls-11" points="73.75 336 121.58 336 121.58 311.33 73.75 311.33 73.75 336"/><text class="cls-6" transform="translate(97.67 327.17)">t4</text><text class="cls-12" transform="translate(113.08 322.91)">f2</text><text class="cls-13" transform="translate(119.75 326.92)">w</text><polyline class="cls-11" points="22.75 307.83 70.58 307.83 70.58 283.17 22.75 283.17 22.75 307.83"/><text class="cls-6" transform="translate(46.67 298.99)">t5</text><text class="cls-12" transform="translate(25.92 294.74)">f5</text><text class="cls-13" transform="translate(32.58 298.75)">n</text><polyline class="cls-11" points="73.75 307.83 121.58 307.83 121.58 283.17 73.75 283.17 73.75 307.83"/><text class="cls-6" transform="translate(97.67 298.99)">t6</text><text class="cls-12" transform="translate(113.08 294.74)">f2</text><text class="cls-13" transform="translate(119.75 298.75)">w</text><polyline class="cls-11" points="22.75 279.67 70.58 279.67 70.58 255 22.75 255 22.75 279.67"/><text class="cls-6" transform="translate(46.67 270.83)">t7</text><text class="cls-12" transform="translate(25.92 266.58)">f5</text><text class="cls-13" transform="translate(32.58 270.59)">n</text><text class="cls-12" transform="translate(46.67 258.99)">f3</text><text class="cls-13" transform="translate(53.33 263)">w</text><polyline class="cls-11" points="73.75 279.67 121.58 279.67 121.58 255 73.75 255 73.75 279.67"/><text class="cls-6" transform="translate(97.67 270.83)">t8</text><text class="cls-12" transform="translate(97.67 258.99)">f3</text><text class="cls-13" transform="translate(104.33 263)">w</text><text class="cls-12" transform="translate(113.08 266.58)">f2</text><text class="cls-13" transform="translate(119.75 270.59)">w</text><g class="cls-7"><path class="cls-14" d="M124.75,364.17h98.83m0-109.17H124.75"/><path class="cls-9" d="M223.58,364.17V255m-98.83,0V364.17"/></g><text class="cls-10" transform="translate(174.17 314.75)">f2</text><polyline class="cls-11" points="124.75 364.17 172.58 364.17 172.58 339.5 124.75 339.5 124.75 364.17"/><text class="cls-6" transform="translate(148.67 355.33)">t9</text><text class="cls-12" transform="translate(127.92 351.08)">f1</text><text class="cls-13" transform="translate(134.58 355.09)">e</text><text class="cls-12" transform="translate(148.67 359.91)">f6</text><text class="cls-13" transform="translate(155.33 363.92)">e</text><polyline class="cls-11" points="175.75 364.17 223.58 364.17 223.58 339.5 175.75 339.5 175.75 364.17"/><text class="cls-6" transform="translate(199.67 355.33)">t1</text><text class="cls-6" transform="translate(208 355.33)">0</text><text class="cls-12" transform="translate(199.67 359.91)">f6</text><text class="cls-13" transform="translate(206.33 363.92)">e</text><text class="cls-12" transform="translate(215.08 351.08)">f4</text><text class="cls-13" transform="translate(221.75 355.09)">s</text><polyline class="cls-11" points="124.75 336 172.58 336 172.58 311.33 124.75 311.33 124.75 336"/><text class="cls-6" transform="translate(148.67 327.17)">t1</text><text class="cls-6" transform="translate(157.01 327.17)">1</text><text class="cls-12" transform="translate(127.92 322.91)">f1</text><text class="cls-13" transform="translate(134.58 326.92)">e</text><polygon class="cls-15" points="124.75 336 172.58 336 172.58 311.33 124.75 311.33 124.75 336 124.75 336"/><polyline class="cls-5" points="124.75 336 172.58 336 172.58 311.33 124.75 311.33 124.75 336 124.75 336"/><polyline class="cls-11" points="175.75 336 223.58 336 223.58 311.33 175.75 311.33 175.75 336"/><text class="cls-6" transform="translate(199.67 327.17)">t1</text><text class="cls-6" transform="translate(208 327.17)">2</text><text class="cls-12" transform="translate(215.08 322.91)">f4</text><text class="cls-13" transform="translate(221.75 326.92)">s</text><polygon class="cls-15" points="175.75 336 223.58 336 223.58 311.33 175.75 311.33 175.75 336 175.75 336"/><polyline class="cls-5" points="175.75 336 223.58 336 223.58 311.33 175.75 311.33 175.75 336 175.75 336"/><polyline class="cls-11" points="124.75 307.83 172.58 307.83 172.58 283.17 124.75 283.17 124.75 307.83"/><text class="cls-6" transform="translate(148.67 298.99)">t1</text><text class="cls-6" transform="translate(157.01 298.99)">3</text><text class="cls-12" transform="translate(127.92 294.74)">f1</text><text class="cls-13" transform="translate(134.58 298.75)">e</text><polygon class="cls-15" points="124.75 307.83 172.58 307.83 172.58 283.17 124.75 283.17 124.75 307.83 124.75 307.83"/><polyline class="cls-5" points="124.75 307.83 172.58 307.83 172.58 283.17 124.75 283.17 124.75 307.83 124.75 307.83"/><polyline class="cls-11" points="175.75 307.83 223.58 307.83 223.58 283.17 175.75 283.17 175.75 307.83"/><text class="cls-6" transform="translate(199.67 298.99)">t1</text><text class="cls-6" transform="translate(208 298.99)">4</text><text class="cls-12" transform="translate(215.08 294.74)">f4</text><text class="cls-13" transform="translate(221.75 298.75)">s</text><polygon class="cls-15" points="175.75 307.83 223.58 307.83 223.58 283.17 175.75 283.17 175.75 307.83 175.75 307.83"/><polyline class="cls-5" points="175.75 307.83 223.58 307.83 223.58 283.17 175.75 283.17 175.75 307.83 175.75 307.83"/><polyline class="cls-11" points="124.75 279.67 172.58 279.67 172.58 255 124.75 255 124.75 279.67"/><text class="cls-6" transform="translate(148.67 270.83)">t1</text><text class="cls-6" transform="translate(157.01 270.83)">5</text><text class="cls-12" transform="translate(127.92 266.58)">f1</text><text class="cls-13" transform="translate(134.58 270.59)">e</text><text class="cls-12" transform="translate(148.67 258.99)">f3</text><text class="cls-13" transform="translate(155.33 263)">s</text><polyline class="cls-11" points="175.75 279.67 223.58 279.67 223.58 255 175.75 255 175.75 279.67"/><text class="cls-6" transform="translate(199.67 270.83)">t1</text><text class="cls-6" transform="translate(208 270.83)">6</text><text class="cls-12" transform="translate(199.67 258.99)">f3</text><text class="cls-13" transform="translate(206.33 263)">s</text><text class="cls-12" transform="translate(215.08 266.58)">f4</text><text class="cls-13" transform="translate(221.75 270.59)">s</text><path class="cls-14" d="M124.75,251.5h98.83m0-109.17H124.75"/><path class="cls-8" d="M223.58,251.5V142.33m-98.83,0V251.5"/><text class="cls-10" transform="translate(174.17 202.08)">f3</text><polyline class="cls-11" points="124.75 251.5 172.58 251.5 172.58 226.83 124.75 226.83 124.75 251.5"/><text class="cls-6" transform="translate(148.67 242.67)">t1</text><text class="cls-6" transform="translate(157.01 242.67)">7</text><text class="cls-12" transform="translate(127.92 238.42)">f1</text><text class="cls-13" transform="translate(134.58 242.42)">n</text><text class="cls-12" transform="translate(148.67 247.24)">f2</text><text class="cls-13" transform="translate(155.33 251.25)">n</text><polyline class="cls-11" points="175.75 251.5 223.58 251.5 223.58 226.83 175.75 226.83 175.75 251.5"/><text class="cls-6" transform="translate(199.67 242.67)">t1</text><text class="cls-6" transform="translate(208 242.67)">8</text><text class="cls-12" transform="translate(199.67 247.24)">f2</text><text class="cls-13" transform="translate(206.33 251.25)">n</text><text class="cls-12" transform="translate(215.08 238.42)">f4</text><text class="cls-13" transform="translate(221.75 242.42)">w</text><polyline class="cls-11" points="124.75 223.33 172.58 223.33 172.58 198.67 124.75 198.67 124.75 223.33"/><text class="cls-6" transform="translate(148.67 214.5)">t1</text><text class="cls-6" transform="translate(157.01 214.5)">9</text><text class="cls-12" transform="translate(127.92 210.24)">f1</text><text class="cls-13" transform="translate(134.58 214.25)">n</text><polyline class="cls-11" points="175.75 223.33 223.58 223.33 223.58 198.67 175.75 198.67 175.75 223.33"/><text class="cls-6" transform="translate(199.67 214.5)">t2</text><text class="cls-6" transform="translate(208 214.5)">0</text><text class="cls-12" transform="translate(215.08 210.24)">f4</text><text class="cls-13" transform="translate(221.75 214.25)">w</text><polyline class="cls-11" points="124.75 195.17 172.58 195.17 172.58 170.5 124.75 170.5 124.75 195.17"/><text class="cls-6" transform="translate(148.67 186.33)">t2</text><text class="cls-6" transform="translate(157.01 186.33)">1</text><text class="cls-12" transform="translate(127.92 182.08)">f1</text><text class="cls-13" transform="translate(134.58 186.08)">n</text><polyline class="cls-11" points="175.75 195.17 223.58 195.17 223.58 170.5 175.75 170.5 175.75 195.17"/><text class="cls-6" transform="translate(199.67 186.33)">t2</text><text class="cls-6" transform="translate(208 186.33)">2</text><text class="cls-12" transform="translate(215.08 182.08)">f4</text><text class="cls-13" transform="translate(221.75 186.08)">w</text><polyline class="cls-11" points="124.75 167 172.58 167 172.58 142.33 124.75 142.33 124.75 167"/><text class="cls-6" transform="translate(148.67 158.17)">t2</text><text class="cls-6" transform="translate(157.01 158.17)">3</text><text class="cls-12" transform="translate(127.92 153.92)">f1</text><text class="cls-13" transform="translate(134.58 157.92)">n</text><text class="cls-12" transform="translate(148.67 146.25)">f5</text><text class="cls-13" transform="translate(155.33 150.25)">w</text><polyline class="cls-11" points="175.75 167 223.58 167 223.58 142.33 175.75 142.33 175.75 167"/><text class="cls-6" transform="translate(199.67 158.17)">t2</text><text class="cls-6" transform="translate(208 158.17)">4</text><text class="cls-12" transform="translate(199.67 146.25)">f5</text><text class="cls-13" transform="translate(206.33 150.25)">w</text><text class="cls-12" transform="translate(215.08 153.92)">f4</text><text class="cls-13" transform="translate(221.75 157.92)">w</text><path class="cls-9" d="M226.75,251.5h98.83m0-109.17H226.75"/><path class="cls-8" d="M325.58,251.5V142.33m-98.83,0V251.5"/><text class="cls-10" transform="translate(276.17 202.08)">f4</text><polyline class="cls-11" points="226.75 251.5 274.58 251.5 274.58 226.83 226.75 226.83 226.75 251.5"/><text class="cls-6" transform="translate(250.67 242.67)">t2</text><text class="cls-6" transform="translate(259 242.67)">5</text><text class="cls-12" transform="translate(229.92 238.42)">f3</text><text class="cls-13" transform="translate(236.58 242.42)">e</text><text class="cls-12" transform="translate(250.67 247.24)">f2</text><text class="cls-13" transform="translate(257.33 251.25)">e</text><polyline class="cls-11" points="277.75 251.5 325.58 251.5 325.58 226.83 277.75 226.83 277.75 251.5"/><text class="cls-6" transform="translate(301.67 242.67)">t2</text><text class="cls-6" transform="translate(310 242.67)">6</text><text class="cls-12" transform="translate(301.67 247.24)">f2</text><text class="cls-13" transform="translate(308.33 251.25)">e</text><text class="cls-12" transform="translate(317.09 238.42)">f6</text><text class="cls-13" transform="translate(323.75 242.42)">s</text><polyline class="cls-11" points="226.75 223.33 274.58 223.33 274.58 198.67 226.75 198.67 226.75 223.33"/><text class="cls-6" transform="translate(250.67 214.5)">t2</text><text class="cls-6" transform="translate(259 214.5)">7</text><text class="cls-12" transform="translate(229.92 210.24)">f3</text><text class="cls-13" transform="translate(236.58 214.25)">e</text><polyline class="cls-11" points="277.75 223.33 325.58 223.33 325.58 198.67 277.75 198.67 277.75 223.33"/><text class="cls-6" transform="translate(301.67 214.5)">t2</text><text class="cls-6" transform="translate(310 214.5)">8</text><text class="cls-12" transform="translate(317.09 210.24)">f6</text><text class="cls-13" transform="translate(323.75 214.25)">s</text><polyline class="cls-11" points="226.75 195.17 274.58 195.17 274.58 170.5 226.75 170.5 226.75 195.17"/><text class="cls-6" transform="translate(250.67 186.33)">t2</text><text class="cls-6" transform="translate(259 186.33)">9</text><text class="cls-12" transform="translate(229.92 182.08)">f3</text><text class="cls-13" transform="translate(236.58 186.08)">e</text><polyline class="cls-11" points="277.75 195.17 325.58 195.17 325.58 170.5 277.75 170.5 277.75 195.17"/><text class="cls-6" transform="translate(301.67 186.33)">t3</text><text class="cls-6" transform="translate(310 186.33)">0</text><text class="cls-12" transform="translate(317.09 182.08)">f6</text><text class="cls-13" transform="translate(323.75 186.08)">s</text><polyline class="cls-11" points="226.75 167 274.58 167 274.58 142.33 226.75 142.33 226.75 167"/><text class="cls-6" transform="translate(250.67 158.17)">t3</text><text class="cls-6" transform="translate(259 158.17)">1</text><text class="cls-12" transform="translate(229.92 153.92)">f3</text><text class="cls-13" transform="translate(236.58 157.92)">e</text><text class="cls-12" transform="translate(250.67 146.25)">f5</text><text class="cls-13" transform="translate(257.33 150.25)">s</text><polyline class="cls-11" points="277.75 167 325.58 167 325.58 142.33 277.75 142.33 277.75 167"/><text class="cls-6" transform="translate(301.67 158.17)">t3</text><text class="cls-6" transform="translate(310 158.17)">2</text><text class="cls-12" transform="translate(301.67 146.25)">f5</text><text class="cls-13" transform="translate(308.33 150.25)">s</text><text class="cls-12" transform="translate(317.09 153.92)">f6</text><text class="cls-13" transform="translate(323.75 157.92)">s</text><path class="cls-9" d="M226.75,138.83h98.83m0-109.17H226.75"/><path class="cls-14" d="M325.58,138.83V29.67m-98.83,0V138.83"/><text class="cls-10" transform="translate(276.17 89.42)">f5</text><polyline class="cls-11" points="226.75 138.83 274.58 138.83 274.58 114.17 226.75 114.17 226.75 138.83"/><text class="cls-6" transform="translate(250.67 130)">t3</text><text class="cls-6" transform="translate(259 130)">3</text><text class="cls-12" transform="translate(229.92 125.75)">f3</text><text class="cls-13" transform="translate(236.58 129.75)">n</text><text class="cls-12" transform="translate(250.67 134.5)">f4</text><text class="cls-13" transform="translate(257.33 138.5)">n</text><polyline class="cls-11" points="277.75 138.83 325.58 138.83 325.58 114.17 277.75 114.17 277.75 138.83"/><text class="cls-6" transform="translate(301.67 130)">t3</text><text class="cls-6" transform="translate(310 130)">4</text><text class="cls-12" transform="translate(301.67 134.5)">f4</text><text class="cls-13" transform="translate(308.33 138.5)">n</text><text class="cls-12" transform="translate(317.09 125.75)">f6</text><text class="cls-13" transform="translate(323.75 129.75)">w</text><polyline class="cls-11" points="226.75 110.67 274.58 110.67 274.58 86 226.75 86 226.75 110.67"/><text class="cls-6" transform="translate(250.67 101.84)">t3</text><text class="cls-6" transform="translate(259 101.84)">5</text><text class="cls-12" transform="translate(229.92 97.58)">f3</text><text class="cls-13" transform="translate(236.58 101.58)">n</text><polyline class="cls-11" points="277.75 110.67 325.58 110.67 325.58 86 277.75 86 277.75 110.67"/><text class="cls-6" transform="translate(301.67 101.84)">t3</text><text class="cls-6" transform="translate(310 101.84)">6</text><text class="cls-12" transform="translate(317.09 97.58)">f6</text><text class="cls-13" transform="translate(323.75 101.58)">w</text><polyline class="cls-11" points="226.75 82.42 274.58 82.42 274.58 57.83 226.75 57.83 226.75 82.42"/><text class="cls-6" transform="translate(250.67 73.66)">t3</text><text class="cls-6" transform="translate(259 73.66)">7</text><text class="cls-12" transform="translate(229.92 69.42)">f3</text><text class="cls-13" transform="translate(236.58 73.42)">n</text><polyline class="cls-11" points="277.75 82.42 325.58 82.42 325.58 57.83 277.75 57.83 277.75 82.42"/><text class="cls-6" transform="translate(301.67 73.66)">t3</text><text class="cls-6" transform="translate(310 73.66)">8</text><text class="cls-12" transform="translate(317.09 69.42)">f6</text><text class="cls-13" transform="translate(323.75 73.42)">w</text><polyline class="cls-11" points="226.75 54.25 274.58 54.25 274.58 29.67 226.75 29.67 226.75 54.25"/><text class="cls-6" transform="translate(250.67 45.41)">t3</text><text class="cls-6" transform="translate(259 45.41)">9</text><text class="cls-12" transform="translate(229.92 41.16)">f3</text><text class="cls-13" transform="translate(236.58 45.17)">n</text><text class="cls-12" transform="translate(250.67 33.58)">f1</text><text class="cls-13" transform="translate(257.33 37.59)">w</text><polyline class="cls-11" points="277.75 54.25 325.58 54.25 325.58 29.67 277.75 29.67 277.75 54.25"/><text class="cls-6" transform="translate(301.67 45.41)">t4</text><text class="cls-6" transform="translate(310 45.41)">0</text><text class="cls-12" transform="translate(301.67 33.58)">f1</text><text class="cls-13" transform="translate(308.33 37.59)">w</text><text class="cls-12" transform="translate(317.09 41.16)">f6</text><text class="cls-13" transform="translate(323.75 45.17)">w</text><path class="cls-8" d="M328.75,138.83h98.83m0-109.17H328.75"/><path class="cls-14" d="M427.58,138.83V29.67m-98.83,0V138.83"/><text class="cls-10" transform="translate(378.17 89.42)">f6</text><polyline class="cls-11" points="328.75 138.83 376.58 138.83 376.58 114.17 328.75 114.17 328.75 138.83"/><text class="cls-6" transform="translate(352.67 130)">t4</text><text class="cls-6" transform="translate(361.01 130)">1</text><text class="cls-12" transform="translate(332 125.75)">f5</text><text class="cls-13" transform="translate(338.67 129.75)">e</text><text class="cls-12" transform="translate(352.67 134.5)">f4</text><text class="cls-13" transform="translate(359.33 138.5)">e</text><polyline class="cls-11" points="379.83 138.83 427.58 138.83 427.58 114.17 379.83 114.17 379.83 138.83"/><text class="cls-6" transform="translate(403.67 130)">t4</text><text class="cls-6" transform="translate(412.01 130)">2</text><text class="cls-12" transform="translate(403.67 134.5)">f4</text><text class="cls-13" transform="translate(410.33 138.5)">e</text><text class="cls-12" transform="translate(419.08 125.75)">f2</text><text class="cls-13" transform="translate(425.75 129.75)">s</text><polyline class="cls-11" points="328.75 110.67 376.58 110.67 376.58 86 328.75 86 328.75 110.67"/><text class="cls-6" transform="translate(352.67 101.84)">t4</text><text class="cls-6" transform="translate(361.01 101.84)">3</text><text class="cls-12" transform="translate(332 97.58)">f5</text><text class="cls-13" transform="translate(338.67 101.58)">e</text><polyline class="cls-11" points="379.83 110.67 427.58 110.67 427.58 86 379.83 86 379.83 110.67"/><text class="cls-6" transform="translate(403.67 101.84)">t4</text><text class="cls-6" transform="translate(412.01 101.84)">4</text><text class="cls-12" transform="translate(419.08 97.58)">f2</text><text class="cls-13" transform="translate(425.75 101.58)">s</text><polyline class="cls-11" points="328.75 82.42 376.58 82.42 376.58 57.83 328.75 57.83 328.75 82.42"/><text class="cls-6" transform="translate(352.67 73.66)">t4</text><text class="cls-6" transform="translate(361.01 73.66)">5</text><text class="cls-12" transform="translate(332 69.42)">f5</text><text class="cls-13" transform="translate(338.67 73.42)">e</text><polyline class="cls-11" points="379.83 82.42 427.58 82.42 427.58 57.83 379.83 57.83 379.83 82.42"/><text class="cls-6" transform="translate(403.67 73.66)">t4</text><text class="cls-6" transform="translate(412.01 73.66)">6</text><text class="cls-12" transform="translate(419.08 69.42)">f2</text><text class="cls-13" transform="translate(425.75 73.42)">s</text><polyline class="cls-11" points="328.75 54.25 376.58 54.25 376.58 29.67 328.75 29.67 328.75 54.25"/><text class="cls-6" transform="translate(352.67 45.41)">t4</text><text class="cls-6" transform="translate(361.01 45.41)">7</text><text class="cls-12" transform="translate(332 41.16)">f5</text><text class="cls-13" transform="translate(338.67 45.17)">e</text><text class="cls-12" transform="translate(352.67 33.58)">f1</text><text class="cls-13" transform="translate(359.33 37.59)">s</text><polyline class="cls-11" points="379.83 54.25 427.58 54.25 427.58 29.67 379.83 29.67 379.83 54.25"/><text class="cls-6" transform="translate(403.67 45.41)">t4</text><text class="cls-6" transform="translate(412.01 45.41)">8</text><text class="cls-12" transform="translate(403.67 33.58)">f1</text><text class="cls-13" transform="translate(410.33 37.59)">s</text><text class="cls-12" transform="translate(419.08 41.16)">f2</text><text class="cls-13" transform="translate(425.75 45.17)">s</text></svg>