<svg id="Layer_1" data-name="Layer 1" xmlns="http://www.w3.org/2000/svg" xmlns:xlink="http://www.w3.org/1999/xlink" width="174.42mm" height="140.41mm" viewBox="0 0 494.42 398"><defs><style>.cls-1,.cls-4,.cls-5,.cls-9{fill:none;}.cls-2{clip-path:url(#clip-path);}.cls-3{fill:#fff;}.cls-4{stroke:#fff;}.cls-4,.cls-5,.cls-9{stroke-linejoin:round;stroke-width:0.5px;}.cls-5,.cls-9{stroke:#000;}.cls-6{font-size:10px;}.cls-10,.cls-6,.cls-7{fill:#231f20;font-family:Helvetica, Helvetica;}.cls-7{font-size:6.67px;}.cls-8{clip-path:url(#clip-path-2);}.cls-9{stroke-dasharray:6;}.cls-10{font-size:8px;}</style><clipPath id="clip-path"><rect class="cls-1" width="494.42" height="391.25"/></clipPath><clipPath id="clip-path-2"><rect class="cls-1" x="34.17" y="9.67" width="446.92" height="352.08"/></clipPath></defs><title>Artboard 1</title><g class="cls-2"><rect class="cls-3" x="-40.83" y="-22.75" width="576.75" height="432.08"/></g><rect class="cls-3" x="34.17" y="9.67" width="446.83" height="352"/><polyline class="cls-4" points="34.17 361.67 34.17 9.67 481 9.67 481 361.67 34.17 361.67"/><path class="cls-5" d="M34.17,361.67H481M34.17,9.67H481m-446.83,352V9.67M481,361.67V9.67m-446.83,352H481m-446.83,0V9.67m0,352v-2.25m0-349.75v2.25m0,349.75v-4.5m0-347.5v4.5"/><text class="cls-6" transform="translate(24.83 376.92)">10</text><text class="cls-7" transform="translate(35.92 370.75)">−4</text><path class="cls-5" d="M79,361.67v-2.25M79,9.67v2.25m26.25,349.75v-2.25m0-349.75v2.25m18.58,349.75v-2.25m0-349.75v2.25m14.42,349.75v-2.25m0-349.75v2.25m11.83,349.75v-2.25m0-349.75v2.25M160,361.67v-2.25M160,9.67v2.25m8.67,349.75v-2.25m0-349.75v2.25m7.67,349.75v-2.25m0-349.75v2.25m6.75,349.75v-2.25m0-349.75v2.25m0,349.75v-4.5m0-347.5v4.5"/><text class="cls-6" transform="translate(173.75 376.92)">10</text><text class="cls-7" transform="translate(184.83 370.75)">−3</text><path class="cls-5" d="M227.92,361.67v-2.25m0-349.75v2.25m26.25,349.75v-2.25m0-349.75v2.25m18.58,349.75v-2.25m0-349.75v2.25m14.5,349.75v-2.25m0-349.75v2.25M299,361.67v-2.25M299,9.67v2.25m10,349.75v-2.25M309,9.67v2.25m8.58,349.75v-2.25m0-349.75v2.25m7.67,349.75v-2.25m0-349.75v2.25m6.83,349.75v-2.25m0-349.75v2.25m0,349.75v-4.5m0-347.5v4.5"/><text class="cls-6" transform="translate(322.75 376.92)">10</text><text class="cls-7" transform="translate(333.83 370.75)">−2</text><path class="cls-5" d="M376.92,361.67v-2.25m0-349.75v2.25m26.17,349.75v-2.25m0-349.75v2.25m18.67,349.75v-2.25m0-349.75v2.25m14.42,349.75v-2.25m0-349.75v2.25m11.75,349.75v-2.25m0-349.75v2.25m10,349.75v-2.25m0-349.75v2.25m8.67,349.75v-2.25m0-349.75v2.25m7.58,349.75v-2.25m0-349.75v2.25M481,361.67v-2.25M481,9.67v2.25m0,349.75v-4.5m0-347.5v4.5"/><text class="cls-6" transform="translate(471.67 376.92)">10</text><text class="cls-7" transform="translate(482.75 370.75)">−1</text><path class="cls-5" d="M34.17,361.67h4.5m442.33,0h-4.5"/><text class="cls-6" transform="translate(25.75 365.33)">0</text><path class="cls-5" d="M34.17,326.5h4.5m442.33,0h-4.5"/><text class="cls-6" transform="translate(17.42 330.16)">0.</text><text class="cls-6" transform="translate(25.75 330.16)">1</text><path class="cls-5" d="M34.17,291.25h4.5m442.33,0h-4.5"/><text class="cls-6" transform="translate(17.42 294.91)">0.</text><text class="cls-6" transform="translate(25.75 294.91)">2</text><path class="cls-5" d="M34.17,256.08h4.5m442.33,0h-4.5"/><text class="cls-6" transform="translate(17.42 259.75)">0.</text><text class="cls-6" transform="translate(25.75 259.75)">3</text><path class="cls-5" d="M34.17,220.83h4.5m442.33,0h-4.5"/><text class="cls-6" transform="translate(17.42 224.5)">0.</text><text class="cls-6" transform="translate(25.75 224.5)">4</text><path class="cls-5" d="M34.17,185.67h4.5m442.33,0h-4.5"/><text class="cls-6" transform="translate(17.42 189.34)">0.</text><text class="cls-6" transform="translate(25.75 189.34)">5</text><path class="cls-5" d="M34.17,150.5h4.5m442.33,0h-4.5"/><text class="cls-6" transform="translate(17.42 154.16)">0.</text><text class="cls-6" transform="translate(25.75 154.16)">6</text><path class="cls-5" d="M34.17,115.25h4.5m442.33,0h-4.5"/><text class="cls-6" transform="translate(17.42 118.91)">0.</text><text class="cls-6" transform="translate(25.75 118.91)">7</text><path class="cls-5" d="M34.17,80.08h4.5m442.33,0h-4.5"/><text class="cls-6" transform="translate(17.42 83.74)">0.</text><text class="cls-6" transform="translate(25.75 83.74)">8</text><path class="cls-5" d="M34.17,44.83h4.5m442.33,0h-4.5"/><text class="cls-6" transform="translate(17.42 48.5)">0.</text><text class="cls-6" transform="translate(25.75 48.5)">9</text><path class="cls-5" d="M34.17,9.67h4.5M481,9.67h-4.5"/><text class="cls-6" transform="translate(25.75 13.34)">1</text><path class="cls-5" d="M34.17,361.67H481M34.17,9.67H481m-446.83,352V9.67M481,361.67V9.67"/><g class="cls-8"><polyline class="cls-5" points="34.17 9.83 189.25 10.75 231.08 17.33 256.33 59.58 274.42 203.17 288.5 326.58 300.08 356.5 309.92 360.92 318.42 361.58 325.92 361.67 332.67 361.67 338.83 361.67 344.42 361.67 349.5 361.67 354.25 361.67 358.75 361.67 362.83 361.67 366.75 361.67 370.42 361.67 373.92 361.67 377.25 361.67 380.33 361.67 383.33 361.67 386.25 361.67 388.92 361.67 391.58 361.67 394.08 361.67 396.58 361.67 398.92 361.67 401.17 361.67 403.33 361.67 405.42 361.67 407.5 361.67 409.5 361.67 411.42 361.67 413.25 361.67 415.08 361.67 416.83 361.67 418.58 361.67 420.25 361.67 421.92 361.67 423.5 361.67 425 361.67 426.58 361.67 428 361.67 429.5 361.67 430.92 361.67 432.33 361.67 433.67 361.67 435 361.67 436.33 361.67 437.58 361.67 438.83 361.67 440.08 361.67 441.25 361.67 442.42 361.67 443.58 361.67 444.75 361.67 445.92 361.67 447 361.67 448.08 361.67 449.17 361.67 450.17 361.67 451.25 361.67 452.25 361.67 453.25 361.67 454.25 361.67 455.17 361.67 456.17 361.67 457.08 361.67 458 361.67 458.92 361.67 459.83 361.67 460.75 361.67 461.58 361.67 462.5 361.67 463.33 361.67 464.17 361.67 465 361.67 465.83 361.67 466.67 361.67 467.42 361.67 468.25 361.67 469 361.67 469.83 361.67 470.58 361.67 471.33 361.67 472.08 361.67 472.83 361.67 473.5 361.67 474.25 361.67 475 361.67 475.67 361.67 476.42 361.67 477.08 361.67 477.75 361.67 478.42 361.67 479.08 361.67 479.75 361.67 480.42 361.67"/><polyline class="cls-9" points="34.17 9.67 189.25 9.67 231.08 9.67 256.33 9.67 274.42 9.67 288.5 9.67 300.08 9.67 309.92 9.67 318.42 9.67 325.92 9.67 332.67 16.58 338.83 76 344.42 121.25 349.5 156.58 354.25 184.58 358.75 207.25 362.83 225.83 366.75 241.25 370.42 254.25 373.92 265.17 377.25 274.5 380.33 282.58 383.33 289.58 386.25 295.67 388.92 301.08 391.58 305.83 394.08 310 396.58 313.75 398.92 317.08 401.17 320.08 403.33 322.83 405.42 325.25 407.5 327.5 409.5 329.5 411.42 331.42 413.25 333.08 415.08 334.67 416.83 336.08 418.58 337.42 420.25 338.67 421.92 339.75 423.5 340.83 425 341.83 426.58 342.75 428 343.58 429.5 344.33 430.92 345.08 432.33 345.83 433.67 346.42 435 347.08 436.33 347.67 437.58 348.17 438.83 348.67 440.08 349.17 441.25 349.67 442.42 350.08 443.58 350.5 444.75 350.83 445.92 351.25 447 351.58 448.08 351.92 449.17 352.25 450.17 352.5 451.25 352.83 452.25 353.08 453.25 353.33 454.25 353.58 455.17 353.83 456.17 354.08 457.08 354.33 458 354.5 458.92 354.67 459.83 354.92 460.75 355.08 461.58 355.25 462.5 355.42 463.33 355.58 464.17 355.75 465 355.92 465.83 356 466.67 356.17 467.42 356.33 468.25 356.42 469 356.58 469.83 356.67 470.58 356.83 471.33 356.92 472.08 357 472.83 357.17 473.5 357.25 474.25 357.33 475 357.42 475.67 357.5 476.42 357.58 477.08 357.67 477.75 357.75 478.42 357.83 479.08 357.92 479.75 358 480.42 358.08"/></g><text class="cls-6" transform="translate(237.5 388.84)">Slope |S</text><text class="cls-6" transform="translate(275.13 388.84)">|</text><text class="cls-6" transform="translate(12.84 212.99) rotate(-90)">Taper f</text><text class="cls-10" transform="translate(7.84 182.59) rotate(-90)">n</text><text class="cls-6" transform="translate(12.84 178.16) rotate(-90)"><tspan xml:space="preserve"> f(S</tspan></text><text class="cls-6" transform="translate(12.84 162.6) rotate(-90)">)</text><rect class="cls-3" x="39.17" y="324.08" width="176" height="32.58"/><polyline class="cls-4" points="39.17 356.67 39.17 324.08 215.17 324.08 215.17 356.67 39.17 356.67"/><path class="cls-5" d="M39.17,356.67h176m-176-32.58h176m-176,32.58V324.08m176,32.58V324.08m-176,32.58h176m-176,0V324.08m0,32.58h176m-176-32.58h176m-176,32.58V324.08m176,32.58V324.08"/><text class="cls-6" transform="translate(66.92 329.59)"><tspan xml:space="preserve">DM95   {1+tanh[ (S</tspan></text><text class="cls-10" transform="translate(151.67 334.59)">c</text><text class="cls-6" transform="translate(155.67 329.59)">−|S|)/S</text><text class="cls-10" transform="translate(186.08 334.59)">d</text><text class="cls-6" transform="translate(190.5 329.59)"><tspan xml:space="preserve"> ] }/2</tspan></text><text class="cls-6" transform="translate(66.92 343.74)">GKW91 (S</text><text class="cls-10" transform="translate(114.67 348.74)">ma</text><text class="cls-10" transform="translate(125.78 348.74)">x</text><text class="cls-6" transform="translate(129.75 343.74)">/|S|)</text><text class="cls-10" transform="translate(147.67 338.74)">2</text><text class="cls-6" transform="translate(152.08 343.74)"><tspan xml:space="preserve">                </tspan></text><line class="cls-5" x1="44.75" y1="333.08" x2="61.42" y2="333.08"/><line class="cls-9" x1="44.75" y1="348.17" x2="61.42" y2="348.17"/></svg>