<svg id="Layer_1" data-name="Layer 1" xmlns="http://www.w3.org/2000/svg" width="210mm" height="172.86mm" viewBox="0 0 595.28 490"><defs><style>.cls-1,.cls-3{fill-rule:evenodd;}.cls-2,.cls-4{fill:none;stroke-miterlimit:10;stroke-width:0.28px;}.cls-2{stroke:#000;}.cls-3{fill:#bfbfbf;}.cls-4{stroke:#bfbfbf;}</style></defs><title>Artboard 1</title><polygon class="cls-1" points="7.39 432.24 587.83 432.24 587.83 435.07 7.39 435.07 7.39 432.24 7.39 432.24"/><polygon class="cls-1" points="7.42 301.63 587.86 301.63 587.86 304.46 7.42 304.46 7.42 301.63 7.42 301.63"/><polygon class="cls-1" points="6.14 168.43 586.58 168.43 586.58 171.27 6.14 171.27 6.14 168.43 6.14 168.43"/><polygon class="cls-1" points="7.45 45.55 587.89 45.55 587.89 48.39 7.45 48.39 7.45 45.55 7.45 45.55"/><path class="cls-2" d="M6.14,47V433.66M589.13,47V433.69M205.55,45.75V432.41M411.31,48.33V435"/><polygon class="cls-3" points="7.42 366.4 204.27 366.4 204.27 432.36 7.42 432.36 7.42 366.4 7.42 366.4"/><polyline class="cls-4" points="105.84 432.36 7.42 432.36 7.42 366.4 204.27 366.4 204.27 432.36 105.84 432.36"/><polygon class="cls-3" points="206.85 255.19 410.03 255.19 410.03 432.36 206.85 432.36 206.85 255.19 206.85 255.19"/><polyline class="cls-4" points="308.43 432.36 206.85 432.36 206.85 255.19 410.03 255.19 410.03 432.36 308.43 432.36"/><polygon class="cls-3" points="412.64 138.8 587.86 138.8 587.86 432.75 412.64 432.75 412.64 138.8 412.64 138.8"/><polyline class="cls-4" points="500.23 432.75 412.64 432.75 412.64 138.8 587.86 138.8 587.86 432.75 500.23 432.75"/><path class="cls-2" d="M7.42,354.78H204.27M7.42,340.56H204.27M8.67,321.18H205.52M8.67,266.86H205.52M8.67,216.43H205.52M7.39,111.68H204.24m1.3,130.59H410M206.82,221.59H411.31M206.85,198.32H411.33M206.82,128.48H411.31M205.58,85.81H410.06m1.25,40.06H587.86M411.31,106.5H587.86M411.31,79.33H587.86"/><polygon class="cls-1" points="23.3 6 28 6 28.69 6.71 32.03 16.99 32.03 18.35 32.71 17.67 34.07 12.86 35.41 6.71 36.09 6 41.48 6 42.13 6.71 41.48 7.39 40.11 7.39 39.43 8.07 39.43 21.78 40.79 22.46 41.48 22.46 42.13 23.14 41.48 23.82 34.73 23.82 34.07 23.14 34.73 22.46 36.09 21.78 36.77 21.78 36.77 10.14 36.09 10.82 36.09 12.18 34.73 16.99 32.71 23.14 32.03 23.82 31.38 23.82 30.7 23.14 30.02 20.39 27.32 11.5 26.64 10.82 26.64 21.78 28 22.46 28.69 22.46 29.34 23.14 28.69 23.82 22.62 23.82 21.94 23.14 22.62 22.46 23.95 21.78 24.63 21.78 24.63 8.07 23.95 7.39 23.3 7.39 22.62 6.71 23.3 6"/><path class="cls-1" d="M49.22,12.18h2l1.33.68,2,2.07.68,1.36v3.43L54.6,21.1l-2,2-1.33.68h-2l-1.33-.68-2-2-.68-1.39V16.28l.68-1.36,2-2.07Zm0,2.07h2l.65.68.68,1.36v3.43l-.68,1.39-.65.68h-2l-.65-.68-.68-1.39V16.28l.68-1.36Z"/><path class="cls-1" d="M65.95,6h.65l.68.71V22.46H68l.68.68-.68.68H65.27l-.68-.68v-.68l-1.33,1.36h-2l-2.69-1.36-.65-.68-.68-1.39V16.28l.68-1.36,2-2.07,1.33-.68h2l1.33,1.39V8.07H63.9l-.65-.68.65-.68Zm-4.74,8.24h2l.65.68.68,1.36v3.43L63.9,21.1l-.65.68h-2l-.65-.68-.68-1.39V16.28l.68-1.36Z"/><path class="cls-1" d="M73.57,6.71h.68l1.33,1.36v.68l-1.33,1.39h-.68L72.21,8.75V8.07Zm0,5.47h1.33l.68.68v9.6h1.36l.65.68-.65.68H71.56l-.68-.68.68-.68h1.33V14.24H71.56l-.68-.68.68-.71Z"/><polygon class="cls-1" points="83.27 6 86.65 6 87.98 7.39 87.98 8.75 86.65 10.14 85.29 8.75 85.29 7.39 83.95 7.39 82.59 8.75 82.59 12.18 84.63 12.18 85.29 12.86 84.63 13.56 82.59 13.56 82.59 22.46 84.63 22.46 85.29 23.14 84.63 23.82 78.56 23.82 77.89 23.14 78.56 22.46 79.9 22.46 79.9 13.56 78.56 13.56 77.89 12.86 78.56 12.18 79.9 12.18 80.58 8.75 80.58 8.07 81.94 6.71 83.27 6"/><path class="cls-1" d="M89.17,6.71h.68l1.33,1.36v.68l-1.33,1.39h-.68L87.81,8.75V8.07Zm0,5.47H90.5l.68.68v9.6h1.36l.65.68-.65.68H87.16l-.68-.68.68-.68h1.33V14.24H87.16l-.68-.68.68-.71Z"/><path class="cls-1" d="M98.19,12.18h2.69l1.36.68,1.33,1.39.68,1.36v2.07l-.68.68H96.86v1.36l.68,1.39.65.68h2.69l1.36-.68,1.33-1.39.68.68v.71l-2,2-1.36.68H97.54l-1.36-.68-1.33-1.36-.68-1.39V16.28l.68-1.36,2-2.07Zm0,2.07h2l1.33,1.36V17H96.86V15.6Z"/><path class="cls-1" d="M114.92,6h.65l.68.71V22.46h.68l.68.68-.68.68h-2.69l-.68-.68v-.68l-1.33,1.36h-2l-2.69-1.36-.65-.68-.68-1.39V16.28l.68-1.36,2-2.07,1.33-.68h2l1.33,1.39V8.07h-.68l-.65-.68.65-.68Zm-4.74,8.24h2l.65.68.68,1.36v3.43l-.68,1.39-.65.68h-2l-.65-.68-.68-1.39V16.28l.68-1.36Z"/><path class="cls-1" d="M127.25,6h9.41l1.36.71,2.69,2.72v3.43L138,15.6l-1.36.68H132v5.5l1.33.68H134l.68.68-.68.68h-6.72l-.68-.68.68-.68,1.33-.68h.68V8.07l-1.36-.68h-.65l-.68-.68ZM132,8.07h3.37l1.33.68.68.68.68,1.39v.68l-.68,1.36-.68.71-1.33.68H132Z"/><polygon class="cls-1" points="147.36 6 148.04 6 148.72 6.71 148.72 9.43 149.37 9.43 149.37 8.75 150.05 8.07 151.41 8.07 152.07 8.75 152.07 9.43 150.73 10.82 150.05 10.82 149.37 11.5 150.05 11.5 151.41 12.18 152.07 12.86 152.07 13.56 151.41 14.24 150.05 14.24 149.37 13.56 149.37 12.86 148.72 12.86 148.72 15.61 148.04 16.29 147.36 16.29 146.68 15.61 146.68 12.86 146.03 12.86 144.67 14.24 143.99 14.24 143.33 13.56 143.33 12.86 144.67 11.5 145.35 11.5 145.35 10.82 144.67 10.82 143.33 9.43 143.33 8.75 143.99 8.07 144.67 8.07 146.03 9.43 146.68 9.43 146.68 6.71 147.36 6"/><path class="cls-1" d="M161.82,6h9.41l2,.71,2,2,1.33,2.75v6.86l-.68,1.36-1.33,2.07-1.36,1.36-2,.68h-9.41l-.68-.68.68-.68h.65l1.36-.68V8.07h-.68l-1.33-.68-.68-.68Zm4.71,2.07h4l1.36.68.68.68.65,2.07V19l-.65,1.36-.68.71-1.36.68h-4Z"/><path class="cls-1" d="M182.58,6.71h.68l1.33,1.36v.68l-1.33,1.39h-.68l-1.36-1.39V8.07Zm0,5.47h1.33l.68.68v9.6H186l.65.68-.65.68h-5.39l-.68-.68.68-.68h1.33V14.24h-1.33l-.68-.68.68-.71Z"/><polygon class="cls-1" points="190.94 12.18 194.97 12.18 195.65 12.86 195.65 16.29 194.97 16.99 193.64 15.61 193.64 14.93 192.96 14.24 190.94 14.24 190.26 14.93 190.26 15.61 191.6 16.29 193.64 16.99 194.29 16.99 196.33 19.03 196.33 21.78 194.97 23.14 193.64 23.82 190.94 23.82 190.26 23.14 189.58 23.14 188.9 23.82 188.25 23.14 188.25 19.71 188.9 19.03 190.26 20.39 190.26 21.1 190.94 21.78 193.64 21.78 194.29 21.1 194.29 20.39 193.64 19.71 191.6 19.03 190.26 19.03 188.25 16.99 188.25 14.24 189.58 12.86 190.94 12.18"/><polygon class="cls-1" points="202.63 12.18 204.67 12.18 206 12.86 207.36 14.24 207.36 15.61 206 16.99 205.32 16.99 203.99 15.61 203.99 14.93 204.67 14.24 202.63 14.24 201.97 14.93 201.29 16.29 201.29 19.71 201.97 21.1 202.63 21.78 204.67 21.78 206.68 19.71 207.36 20.39 207.36 21.1 204.67 23.82 201.97 23.82 200.61 23.14 199.93 22.46 199.93 21.78 199.28 20.39 198.6 19.71 198.6 16.29 199.28 14.93 201.29 12.86 202.63 12.18"/><polygon class="cls-1" points="211.19 12.18 212.55 12.18 213.21 12.86 213.21 13.56 213.88 12.86 215.25 12.18 217.26 12.18 218.59 13.56 218.59 14.93 217.26 16.29 216.58 16.29 215.25 14.93 215.25 14.24 214.57 14.24 213.88 14.93 213.21 16.29 213.21 22.46 214.57 22.46 215.25 23.14 214.57 23.82 209.18 23.82 208.5 23.14 209.18 22.46 210.51 22.46 210.51 14.24 209.18 14.24 208.5 13.56 209.18 12.86 211.19 12.18"/><path class="cls-1" d="M224,12.18h2.69l1.36.68,1.33,1.39.68,1.36v2.07l-.68.68h-6.72v1.36l.68,1.39.65.68h2.69l1.36-.68,1.33-1.39.68.68v.71l-2,2-1.36.68h-3.35L222,23.14l-1.33-1.36L220,20.39V16.28l.68-1.36,2-2.07Zm0,2.07h2l1.33,1.36V17h-4.71V15.6Z"/><polygon class="cls-1" points="235.35 7.39 236 8.07 236 12.18 238.7 12.18 239.38 12.86 238.7 13.56 236 13.56 236 21.1 236.68 21.78 237.37 21.78 238.04 21.1 238.7 19.71 238.7 19.03 239.38 18.35 240.06 19.03 240.06 21.1 239.38 22.46 238.04 23.82 235.35 23.82 233.31 21.78 233.31 13.56 231.98 13.56 231.3 12.86 231.98 12.18 232.66 12.18 233.31 11.5 234.67 8.75 234.67 8.07 235.35 7.39"/><path class="cls-1" d="M244,6.71h.68L246,8.07v.68l-1.33,1.39H244l-1.36-1.39V8.07Zm0,5.47h1.33l.68.68v9.6h1.36l.65.68-.65.68H242l-.68-.68.68-.68h1.33V14.24H242l-.68-.68.68-.71Z"/><polygon class="cls-1" points="250.13 12.18 257.56 12.18 258.21 12.86 258.21 13.56 256.87 14.93 252.82 21.1 252.17 22.46 254.18 22.46 255.51 21.78 256.87 20.39 256.87 19.71 257.56 19.03 258.21 19.71 258.21 23.14 257.56 23.82 249.47 23.82 248.79 23.14 248.79 22.46 251.49 18.35 252.82 16.99 254.18 14.93 254.86 13.56 252.82 13.56 251.49 14.93 250.81 16.29 250.13 16.99 249.47 16.29 249.47 12.86 250.13 12.18"/><path class="cls-1" d="M263.68,12.18H267l1.36.68,1.33,1.39V21.1l.68.68.68-.68.68.68v.68l-1.36,1.36h-1.33l-1.36-1.36H267l-1.33.68-.68.68h-2.69l-2-2V19.71l2-2H263l4-1.39V14.92l-.65-.68h-2l-2,2h-.68L261,15.6V14.24l1.33-1.39ZM265,18.35h2v2l-.65.71-1.36.68h-1.33L263,21.1V19.71l.68-.68Z"/><polygon class="cls-1" points="277.12 7.39 277.77 8.07 277.77 12.18 280.47 12.18 281.15 12.86 280.47 13.56 277.77 13.56 277.77 21.1 278.45 21.78 279.13 21.78 279.81 21.1 280.47 19.71 280.47 19.03 281.15 18.35 281.83 19.03 281.83 21.1 281.15 22.46 279.81 23.82 277.12 23.82 275.08 21.78 275.08 13.56 273.75 13.56 273.07 12.86 273.75 12.18 274.43 12.18 275.08 11.5 276.44 8.75 276.44 8.07 277.12 7.39"/><path class="cls-1" d="M285.8,6.71h.68l1.33,1.36v.68l-1.33,1.39h-.68l-1.36-1.39V8.07Zm0,5.47h1.33l.68.68v9.6h1.36l.65.68-.65.68h-5.39l-.68-.68.68-.68h1.33V14.24h-1.33l-.68-.68.68-.71Z"/><path class="cls-1" d="M294.59,12.18h2l1.33.68,2,2.07.68,1.36v3.43L300,21.1l-2,2-1.33.68h-2l-1.33-.68-2-2-.68-1.39V16.28l.68-1.36,2-2.07Zm0,2.07h2l.65.68.68,1.36v3.43l-.68,1.39-.65.68h-2l-.65-.68-.68-1.39V16.28l.68-1.36Z"/><polygon class="cls-1" points="304.57 12.18 305.93 12.18 306.58 12.86 306.58 13.56 307.26 12.86 308.63 12.18 310.64 12.18 311.97 12.86 312.65 13.56 313.33 14.93 313.33 22.46 314.67 22.46 315.35 23.14 314.67 23.82 309.96 23.82 309.28 23.14 309.96 22.46 310.64 22.46 310.64 14.93 309.96 14.24 308.63 14.24 306.58 16.29 306.58 22.46 307.26 22.46 307.94 23.14 307.26 23.82 302.56 23.82 301.88 23.14 302.56 22.46 303.89 22.46 303.89 14.24 302.56 14.24 301.88 13.56 302.56 12.86 304.57 12.18"/><polygon class="cls-1" points="328.65 6 332.02 6 333.35 7.39 333.35 8.75 332.02 10.14 330.66 8.75 330.66 7.39 329.33 7.39 327.96 8.75 327.96 12.18 330.01 12.18 330.66 12.86 330.01 13.56 327.96 13.56 327.96 22.46 330.01 22.46 330.66 23.14 330.01 23.82 323.94 23.82 323.26 23.14 323.94 22.46 325.27 22.46 325.27 13.56 323.94 13.56 323.26 12.86 323.94 12.18 325.27 12.18 325.95 8.75 325.95 8.07 327.31 6.71 328.65 6"/><path class="cls-1" d="M335.88,12.18h2l1.33.68,2,2.07.68,1.36v3.43l-.68,1.39-2,2-1.33.68h-2l-1.33-.68-2-2-.68-1.39V16.28l.68-1.36,2-2.07Zm0,2.07h2l.65.68.68,1.36v3.43l-.68,1.39-.65.68h-2l-.65-.68-.68-1.39V16.28l.68-1.36Z"/><polygon class="cls-1" points="345.86 12.18 347.22 12.18 347.87 12.86 347.87 13.56 348.55 12.86 349.91 12.18 351.93 12.18 353.26 13.56 353.26 14.93 351.93 16.29 351.25 16.29 349.91 14.93 349.91 14.24 349.23 14.24 348.55 14.93 347.87 16.29 347.87 22.46 349.23 22.46 349.91 23.14 349.23 23.82 343.85 23.82 343.17 23.14 343.85 22.46 345.18 22.46 345.18 14.24 343.85 14.24 343.17 13.56 343.85 12.86 345.86 12.18"/><polygon class="cls-1" points="362.05 6 368.77 6 369.45 6.71 368.77 7.39 368.09 7.39 366.76 8.07 366.76 13.56 373.48 13.56 373.48 8.07 372.83 8.07 371.46 7.39 370.78 6.71 371.46 6 378.19 6 378.87 6.71 378.19 7.39 377.53 7.39 376.17 8.07 376.17 21.78 376.85 21.78 378.19 22.46 378.87 23.14 378.19 23.82 371.46 23.82 370.78 23.14 371.46 22.46 372.15 22.46 373.48 21.78 373.48 15.61 366.76 15.61 366.76 21.78 367.44 21.78 368.77 22.46 369.45 23.14 368.77 23.82 362.05 23.82 361.37 23.14 362.05 22.46 362.7 22.46 364.06 21.78 364.06 8.07 363.38 8.07 362.05 7.39 361.37 6.71 362.05 6"/><path class="cls-1" d="M384,6.71h.68L386,8.07v.68l-1.33,1.39H384l-1.36-1.39V8.07Zm0,5.47h1.33l.68.68v9.6h1.36l.65.68-.65.68H382l-.68-.68.68-.68h1.33V14.24H382l-.68-.68.68-.71Z"/><path class="cls-1" d="M392.79,12.18h2l.65.68h.68l.68-.68h2.69l.68.68v1.39l-.68.68h-.68l-.68-.68v-.68l-.65.68.65.68v2.75l-2,2-1.33.68h-2l-.65-.68-.68.68v.71h4.71l1.36.68,2,2v2.07l-2,2.07-2,.68h-3.35l-2-.68-1.33-1.39V25.21l1.33-1.39v-.68l-.65-.68V14.92l2-2.07Zm0,2.07h2l.65.68v2.75l-.65.68h-2l-.65-.68V14.92Zm-.65,9.58h3.35l1.36.71v1.36l-1.36.68h-2.69l-1.33-.68V24.53Z"/><polygon class="cls-1" points="404.42 6 405.1 6 405.75 6.71 405.75 13.56 406.43 12.86 407.79 12.18 409.12 12.18 410.48 12.86 411.82 14.24 412.5 15.61 412.5 22.46 413.83 22.46 414.51 23.14 413.83 23.82 408.44 23.82 407.79 23.14 408.44 22.46 409.8 22.46 409.8 15.61 408.44 14.24 407.11 14.24 405.75 15.61 405.75 22.46 406.43 22.46 407.11 23.14 406.43 23.82 401.72 23.82 401.04 23.14 401.72 22.46 403.06 22.46 403.06 8.07 401.72 8.07 401.04 7.39 401.72 6.71 404.42 6"/><polygon class="cls-1" points="423.75 6 436.54 6 437.23 6.71 437.23 12.18 436.54 12.86 435.86 12.18 435.86 11.5 434.53 8.75 433.17 8.07 428.46 8.07 428.46 13.56 429.8 13.56 431.16 12.86 431.84 12.18 431.84 10.82 432.49 10.14 433.17 10.82 433.17 18.35 432.49 19.03 431.84 18.35 431.16 16.99 429.8 15.61 428.46 15.61 428.46 21.78 433.17 21.78 434.53 21.1 435.18 20.39 435.18 19.71 435.86 17.67 436.54 16.99 437.23 17.67 437.23 23.14 436.54 23.82 423.75 23.82 423.07 23.14 423.75 22.46 424.41 22.46 425.77 21.78 425.77 8.07 425.09 8.07 423.75 7.39 423.07 6.71 423.75 6"/><polygon class="cls-1" points="442.39 12.18 443.75 12.18 444.4 12.86 444.4 13.56 445.08 12.86 446.44 12.18 448.45 12.18 449.79 12.86 450.47 13.56 451.15 14.93 451.15 22.46 452.48 22.46 453.16 23.14 452.48 23.82 447.77 23.82 447.09 23.14 447.77 22.46 448.45 22.46 448.45 14.93 447.77 14.24 446.44 14.24 444.4 16.29 444.4 22.46 445.08 22.46 445.76 23.14 445.08 23.82 440.37 23.82 439.69 23.14 440.37 22.46 441.7 22.46 441.7 14.24 440.37 14.24 439.69 13.56 440.37 12.86 442.39 12.18"/><path class="cls-1" d="M463.77,6h.65l.68.71V22.46h.68l.68.68-.68.68h-2.69l-.68-.68v-.68l-1.33,1.36h-2l-2.69-1.36-.65-.68L455,20.39V16.28l.68-1.36,2-2.07,1.33-.68h2l1.33,1.39V8.07h-.68l-.65-.68.65-.68ZM459,14.24h2l.65.68.68,1.36v3.43l-.68,1.39-.65.68h-2l-.65-.68-.68-1.39V16.28l.68-1.36Z"/><path class="cls-1" d="M476.36,6h9.41l1.36.71,2.69,2.72v3.43l-2.69,2.75-1.36.68h-4.71v5.5l1.33.68h.68l.68.68-.68.68h-6.72l-.68-.68.68-.68,1.33-.68h.68V8.07L477,7.39h-.65l-.68-.68Zm4.71,2.07h3.37l1.33.68.68.68.68,1.39v.68l-.68,1.36-.68.71-1.33.68h-3.37Z"/><polygon class="cls-1" points="494.19 6 494.88 6 495.53 6.71 495.53 13.56 496.21 12.86 497.57 12.18 498.9 12.18 500.26 12.86 501.6 14.24 502.28 15.61 502.28 22.46 503.61 22.46 504.29 23.14 503.61 23.82 498.22 23.82 497.57 23.14 498.22 22.46 499.58 22.46 499.58 15.61 498.22 14.24 496.89 14.24 495.53 15.61 495.53 22.46 496.21 22.46 496.89 23.14 496.21 23.82 491.5 23.82 490.82 23.14 491.5 22.46 492.83 22.46 492.83 8.07 491.5 8.07 490.82 7.39 491.5 6.71 494.19 6"/><polygon class="cls-1" points="506.84 12.18 511.55 12.18 512.23 12.86 511.55 13.56 510.87 13.56 510.87 14.93 511.55 15.61 512.23 16.99 512.23 18.35 512.88 19.03 513.56 18.35 513.56 17.67 514.24 15.61 514.92 14.93 514.92 13.56 514.24 13.56 513.56 12.86 514.24 12.18 518.27 12.18 518.95 12.86 518.27 13.56 517.62 13.56 516.94 14.24 515.58 16.99 512.23 25.89 510.19 27.96 508.86 28.64 507.49 28.64 506.16 27.25 506.16 25.89 507.49 24.53 508.17 24.53 509.54 25.89 508.86 26.57 509.54 26.57 510.19 25.89 511.55 23.14 511.55 22.46 510.87 21.78 509.54 19.03 508.86 16.99 507.49 14.24 506.16 12.86 506.84 12.18"/><polygon class="cls-1" points="522.49 12.18 526.52 12.18 527.2 12.86 527.2 16.29 526.52 16.99 525.19 15.61 525.19 14.93 524.51 14.24 522.49 14.24 521.81 14.93 521.81 15.61 523.15 16.29 525.19 16.99 525.84 16.99 527.88 19.03 527.88 21.78 526.52 23.14 525.19 23.82 522.49 23.82 521.81 23.14 521.13 23.14 520.45 23.82 519.8 23.14 519.8 19.71 520.45 19.03 521.81 20.39 521.81 21.1 522.49 21.78 525.19 21.78 525.84 21.1 525.84 20.39 525.19 19.71 523.15 19.03 521.81 19.03 519.8 16.99 519.8 14.24 521.13 12.86 522.49 12.18"/><path class="cls-1" d="M532.87,6.71h.68l1.33,1.36v.68l-1.33,1.39h-.68l-1.36-1.39V8.07Zm0,5.47h1.33l.68.68v9.6h1.36l.65.68-.65.68h-5.39l-.68-.68.68-.68h1.33V14.24h-1.33l-.68-.68.68-.71Z"/><polygon class="cls-1" points="541.86 12.18 543.9 12.18 545.24 12.86 546.6 14.24 546.6 15.61 545.24 16.99 544.56 16.99 543.22 15.61 543.22 14.93 543.9 14.24 541.86 14.24 541.21 14.93 540.53 16.29 540.53 19.71 541.21 21.1 541.86 21.78 543.9 21.78 545.92 19.71 546.6 20.39 546.6 21.1 543.9 23.82 541.21 23.82 539.85 23.14 539.17 22.46 539.17 21.78 538.52 20.39 537.84 19.71 537.84 16.29 538.52 14.93 540.53 12.86 541.86 12.18"/><polygon class="cls-1" points="551.79 12.18 555.81 12.18 556.49 12.86 556.49 16.29 555.81 16.99 554.48 15.61 554.48 14.93 553.8 14.24 551.79 14.24 551.11 14.93 551.11 15.61 552.44 16.29 554.48 16.99 555.13 16.99 557.17 19.03 557.17 21.78 555.81 23.14 554.48 23.82 551.79 23.82 551.11 23.14 550.43 23.14 549.75 23.82 549.09 23.14 549.09 19.71 549.75 19.03 551.11 20.39 551.11 21.1 551.79 21.78 554.48 21.78 555.13 21.1 555.13 20.39 554.48 19.71 552.44 19.03 551.11 19.03 549.09 16.99 549.09 14.24 550.43 12.86 551.79 12.18"/><path class="cls-1" d="M20.32,449.75H26l1.19.42,1.22,1.25.82,1.64v4.11l-.43.82L28,459.24l-.82.79-1.19.42H20.32l-.4-.42.4-.4h.4l.82-.4V451h-.4l-.82-.4-.4-.43ZM23.16,451h2.41l.82.43.4.4.4,1.25v4.5l-.4.82-.4.43-.82.42H23.16Z"/><path class="cls-1" d="M32.71,453.46h2l.82.42.77.82v4.11l.4.42.43-.42.4.42v.4l-.82.82h-.77l-.79-.82h-.43l-.77.4-.4.42H31.92l-1.19-1.22V458l1.19-1.22h.4l2.35-.85v-.82l-.37-.4H33.11l-1.19,1.22h-.4l-.4-.4v-.82l.79-.82Zm.79,3.71h1.16v1.22l-.37.43-.79.42h-.79l-.4-.42V458l.4-.43Z"/><polygon class="cls-1" points="39.49 453.46 40.2 453.46 40.57 453.89 40.57 454.31 40.94 453.89 41.65 453.46 42.72 453.46 43.43 454.31 43.43 455.11 42.72 455.93 42.35 455.93 41.65 455.11 41.65 454.71 41.28 454.71 40.94 455.11 40.57 455.93 40.57 459.64 41.28 459.64 41.65 460.04 41.28 460.46 38.41 460.46 38.04 460.04 38.41 459.64 39.12 459.64 39.12 454.71 38.41 454.71 38.04 454.31 38.41 453.89 39.49 453.46"/><polygon class="cls-1" points="46.01 449.75 46.35 449.75 46.66 450.18 46.66 456.35 48.02 454.71 48.02 454.31 47.69 454.31 47.34 453.89 47.69 453.46 50.04 453.46 50.38 453.89 50.04 454.31 49.36 454.71 49.05 454.71 48.02 455.93 48.02 456.35 49.36 458.39 50.38 459.64 50.72 459.64 51.06 460.04 50.72 460.46 48.37 460.46 48.02 460.04 48.37 459.64 48.71 459.64 48.37 458.82 47 457.18 46.66 457.57 46.66 459.64 47 459.64 47.34 460.04 47 460.46 44.65 460.46 44.31 460.04 44.65 459.64 45.33 459.64 45.33 451 44.65 451 44.31 450.6 44.65 450.18 46.01 449.75"/><polygon class="cls-1" points="58.43 453.46 60.59 453.46 60.96 453.89 60.96 455.93 60.59 456.35 59.88 455.53 59.88 455.11 59.51 454.71 58.43 454.71 58.09 455.11 58.09 455.53 58.8 455.93 59.88 456.35 60.22 456.35 61.32 457.57 61.32 459.24 60.59 460.04 59.88 460.46 58.43 460.46 58.09 460.04 57.72 460.04 57.35 460.46 57.01 460.04 57.01 458 57.35 457.57 58.09 458.39 58.09 458.82 58.43 459.24 59.88 459.24 60.22 458.82 60.22 458.39 59.88 458 58.8 457.57 58.09 457.57 57.01 456.35 57.01 454.71 57.72 453.89 58.43 453.46"/><path class="cls-1" d="M65.66,453.46h1.28l.82.42L69,455.11l.43.82V458l-.43.82L67.76,460l-.82.42H65.66l-.85-.42-1.25-1.22-.43-.82v-2.07l.43-.82,1.25-1.22Zm0,1.25h1.28l.4.4.43.82V458l-.43.82-.4.42H65.66l-.43-.42-.43-.82v-2.07l.43-.82Z"/><polygon class="cls-1" points="71.65 449.75 71.96 449.75 72.24 450.18 72.24 459.64 72.87 459.64 73.18 460.04 72.87 460.46 70.43 460.46 70.11 460.04 70.43 459.64 71.02 459.64 71.02 451.42 70.43 451.42 70.11 451 70.43 450.6 71.65 449.75"/><path class="cls-1" d="M75.79,450.18h.34l.65.82v.43l-.65.82h-.34l-.68-.82V451Zm0,3.29h.65l.34.42v5.75h.68l.34.4-.34.42H74.77l-.34-.42.34-.4h.68v-4.93h-.68l-.34-.4.34-.43Z"/><path class="cls-1" d="M84.35,449.75h.4l.43.42v9.46h.4l.43.4-.43.42H83.92l-.4-.42v-.4l-.82.82H81.46l-1.64-.82-.4-.4-.43-.85v-2.46l.43-.82,1.22-1.22.82-.42h1.25l.82.85V451H83.1l-.4-.4.4-.43Zm-2.89,5h1.25l.4.4.43.82V458l-.43.82-.4.42H81.46l-.4-.42-.43-.82v-2.07l.43-.82Z"/><polygon class="cls-1" points="92.29 449.75 92.6 449.75 92.89 450.18 92.89 459.64 93.51 459.64 93.82 460.04 93.51 460.46 91.07 460.46 90.76 460.04 91.07 459.64 91.67 459.64 91.67 451.42 91.07 451.42 90.76 451 91.07 450.6 92.29 449.75"/><path class="cls-1" d="M96.43,450.18h.34l.65.82v.43l-.65.82h-.34l-.68-.82V451Zm0,3.29h.65l.34.42v5.75h.68l.34.4-.34.42H95.41l-.34-.42.34-.4h.68v-4.93h-.68l-.34-.4.34-.43Z"/><polygon class="cls-1" points="100.54 453.46 101.34 453.46 101.7 453.89 101.7 454.31 102.1 453.89 102.9 453.46 104.06 453.46 104.82 453.89 105.22 454.31 105.62 455.11 105.62 459.64 106.38 459.64 106.78 460.04 106.38 460.46 103.66 460.46 103.26 460.04 103.66 459.64 104.06 459.64 104.06 455.11 103.66 454.71 102.9 454.71 101.7 455.93 101.7 459.64 102.1 459.64 102.5 460.04 102.1 460.46 99.38 460.46 98.98 460.04 99.38 459.64 100.14 459.64 100.14 454.71 99.38 454.71 98.98 454.31 99.38 453.89 100.54 453.46"/><path class="cls-1" d="M110.3,453.46h1.5l.77.42.77.82.37.82v1.25l-.37.4h-3.8V458l.4.82.37.42h1.5l.77-.42.77-.82.37.4v.43L112.57,460l-.77.42h-1.87l-.77-.42-.74-.79-.4-.85v-2.46l.4-.82,1.11-1.22Zm0,1.25h1.13l.77.82v.82h-2.67v-.82Z"/><polygon class="cls-1" points="116.79 453.46 118.95 453.46 119.31 453.89 119.31 455.93 118.95 456.35 118.24 455.53 118.24 455.11 117.87 454.71 116.79 454.71 116.45 455.11 116.45 455.53 117.16 455.93 118.24 456.35 118.58 456.35 119.68 457.57 119.68 459.24 118.95 460.04 118.24 460.46 116.79 460.46 116.45 460.04 116.08 460.04 115.71 460.46 115.37 460.04 115.37 458 115.71 457.57 116.45 458.39 116.45 458.82 116.79 459.24 118.24 459.24 118.58 458.82 118.58 458.39 118.24 458 117.16 457.57 116.45 457.57 115.37 456.35 115.37 454.71 116.08 453.89 116.79 453.46"/><polygon class="cls-1" points="126.4 453.46 127.11 453.46 127.48 453.89 127.48 454.31 127.85 453.89 128.56 453.46 129.64 453.46 130.34 454.31 130.34 455.11 129.64 455.93 129.27 455.93 128.56 455.11 128.56 454.71 128.19 454.71 127.85 455.11 127.48 455.93 127.48 459.64 128.19 459.64 128.56 460.04 128.19 460.46 125.33 460.46 124.96 460.04 125.33 459.64 126.03 459.64 126.03 454.71 125.33 454.71 124.96 454.31 125.33 453.89 126.4 453.46"/><path class="cls-1" d="M133.83,453.46h1.5l.77.42.77.82.37.82v1.25l-.37.4h-3.8V458l.4.82.37.42h1.5l.77-.42.77-.82.37.4v.43L136.1,460l-.77.42h-1.87l-.77-.42-.74-.79-.4-.85v-2.46l.4-.82,1.11-1.22Zm0,1.25H135l.77.82v.82h-2.67v-.82Z"/><path class="cls-1" d="M140.1,453.46h.4l.37.42v.43l.79-.85h1.56l.77.42.79.82.4.82V458l-.4.4-.4.85v.4l-.4.4-.77.42h-1.56l-.79-.82v2.46l.4.4h.4l.4.42-.4.42h-2.72l-.4-.42.77-.82v-7.39h-.37l-.4-.4.4-.43Zm1.56,1.25h1.16l.79.82V458l-.4.82-.4.42h-1.16l-.4-.42-.4-.82v-2.07l.4-.82Z"/><polygon class="cls-1" points="147.53 453.46 148.24 453.46 148.61 453.89 148.61 454.31 148.98 453.89 149.69 453.46 150.76 453.46 151.47 454.31 151.47 455.11 150.76 455.93 150.39 455.93 149.69 455.11 149.69 454.71 149.32 454.71 148.98 455.11 148.61 455.93 148.61 459.64 149.32 459.64 149.69 460.04 149.32 460.46 146.45 460.46 146.08 460.04 146.45 459.64 147.16 459.64 147.16 454.71 146.45 454.71 146.08 454.31 146.45 453.89 147.53 453.46"/><path class="cls-1" d="M155,453.46h1.5l.77.42.77.82.37.82v1.25l-.37.4h-3.8V458l.4.82.37.42h1.5l.77-.42L158,458l.37.4v.43L157.23,460l-.77.42h-1.87l-.77-.42-.74-.79-.4-.85v-2.46l.4-.82,1.11-1.22Zm0,1.25h1.13l.77.82v.82h-2.67v-.82Z"/><polygon class="cls-1" points="161.45 453.46 163.61 453.46 163.98 453.89 163.98 455.93 163.61 456.35 162.9 455.53 162.9 455.11 162.53 454.71 161.45 454.71 161.11 455.11 161.11 455.53 161.82 455.93 162.9 456.35 163.24 456.35 164.34 457.57 164.34 459.24 163.61 460.04 162.9 460.46 161.45 460.46 161.11 460.04 160.74 460.04 160.38 460.46 160.03 460.04 160.03 458 160.38 457.57 161.11 458.39 161.11 458.82 161.45 459.24 162.9 459.24 163.24 458.82 163.24 458.39 162.9 458 161.82 457.57 161.11 457.57 160.03 456.35 160.03 454.71 160.74 453.89 161.45 453.46"/><path class="cls-1" d="M168.4,453.46h1.5l.77.42.77.82.37.82v1.25l-.37.4h-3.8V458l.4.82.37.42h1.5l.77-.42.77-.82.37.4v.43L170.67,460l-.77.42H168l-.77-.42-.74-.79-.4-.85v-2.46l.4-.82,1.11-1.22Zm0,1.25h1.13l.77.82v.82h-2.67v-.82Z"/><polygon class="cls-1" points="174.27 453.46 175.06 453.46 175.43 453.89 175.43 454.31 175.83 453.89 176.62 453.46 177.79 453.46 178.55 453.89 178.95 454.31 179.35 455.11 179.35 459.64 180.11 459.64 180.51 460.04 180.11 460.46 177.39 460.46 176.99 460.04 177.39 459.64 177.79 459.64 177.79 455.11 177.39 454.71 176.62 454.71 175.43 455.93 175.43 459.64 175.83 459.64 176.23 460.04 175.83 460.46 173.11 460.46 172.71 460.04 173.11 459.64 173.87 459.64 173.87 454.71 173.11 454.71 172.71 454.31 173.11 453.89 174.27 453.46"/><polygon class="cls-1" points="183.06 450.6 183.37 451 183.37 453.46 184.59 453.46 184.9 453.89 184.59 454.31 183.37 454.31 183.37 458.82 183.69 459.24 184 459.24 184.31 458.82 184.59 458 184.59 457.57 184.9 457.18 185.25 457.57 185.25 458.82 184.9 459.64 184.31 460.46 183.06 460.46 182.13 459.24 182.13 454.31 181.5 454.31 181.19 453.89 181.5 453.46 181.81 453.46 182.13 453.07 182.75 451.42 182.75 451 183.06 450.6"/><path class="cls-1" d="M193.13,453.46h1.5l.77.42.77.82.37.82v1.25l-.37.4h-3.8V458l.4.82.37.42h1.5l.77-.42.77-.82.37.4v.43L195.4,460l-.77.42h-1.87L192,460l-.74-.79-.4-.85v-2.46l.4-.82,1.11-1.22Zm0,1.25h1.13l.77.82v.82h-2.67v-.82Z"/><polygon class="cls-1" points="198.2 453.46 200.67 453.46 201.04 453.89 200.67 454.31 200.3 454.31 201.04 455.93 201.38 455.53 201.72 454.71 201.72 454.31 201.38 454.31 201.04 453.89 201.38 453.46 203.51 453.46 203.88 453.89 203.51 454.31 203.14 454.31 202.46 455.11 201.72 456.35 201.72 456.78 202.09 457.57 202.8 458.39 203.88 460.04 203.51 460.46 201.38 460.46 201.04 460.04 201.38 459.64 201.72 459.64 201.04 458 200.67 458 200.3 458.39 199.96 459.24 199.96 459.64 200.3 459.64 200.67 460.04 200.3 460.46 198.2 460.46 197.84 460.04 200.3 457.18 199.96 456.35 199.25 455.11 198.54 454.31 198.2 454.31 197.84 453.89 198.2 453.46"/><path class="cls-1" d="M206.63,450.18H207l.65.82v.43l-.65.82h-.34l-.68-.82V451Zm0,3.29h.65l.34.42v5.75h.68l.34.4-.34.42H205.6l-.34-.42.34-.4h.68v-4.93h-.68l-.34-.4.34-.43Z"/><polygon class="cls-1" points="211.39 453.46 213.54 453.46 213.91 453.89 213.91 455.93 213.54 456.35 212.84 455.53 212.84 455.11 212.47 454.71 211.39 454.71 211.05 455.11 211.05 455.53 211.76 455.93 212.84 456.35 213.18 456.35 214.28 457.57 214.28 459.24 213.54 460.04 212.84 460.46 211.39 460.46 211.05 460.04 210.68 460.04 210.31 460.46 209.97 460.04 209.97 458 210.31 457.57 211.05 458.39 211.05 458.82 211.39 459.24 212.84 459.24 213.18 458.82 213.18 458.39 212.84 458 211.76 457.57 211.05 457.57 209.97 456.35 209.97 454.71 210.68 453.89 211.39 453.46"/><polygon class="cls-1" points="217.63 450.6 217.94 451 217.94 453.46 219.16 453.46 219.47 453.89 219.16 454.31 217.94 454.31 217.94 458.82 218.25 459.24 218.56 459.24 218.88 458.82 219.16 458 219.16 457.57 219.47 457.18 219.81 457.57 219.81 458.82 219.47 459.64 218.88 460.46 217.63 460.46 216.69 459.24 216.69 454.31 216.07 454.31 215.76 453.89 216.07 453.46 216.38 453.46 216.69 453.07 217.32 451.42 217.32 451 217.63 450.6"/><path class="cls-1" d="M223,450.18h.34l.65.82v.43l-.65.82H223l-.68-.82V451Zm0,3.29h.65l.34.42v5.75h.68l.34.4-.34.42h-2.69l-.34-.42.34-.4h.68v-4.93h-.68l-.34-.4.34-.43Z"/><polygon class="cls-1" points="227.07 453.46 227.87 453.46 228.23 453.89 228.23 454.31 228.63 453.89 229.43 453.46 230.59 453.46 231.35 453.89 231.75 454.31 232.15 455.11 232.15 459.64 232.91 459.64 233.31 460.04 232.91 460.46 230.19 460.46 229.79 460.04 230.19 459.64 230.59 459.64 230.59 455.11 230.19 454.71 229.43 454.71 228.23 455.93 228.23 459.64 228.63 459.64 229.03 460.04 228.63 460.46 225.91 460.46 225.51 460.04 225.91 459.64 226.67 459.64 226.67 454.71 225.91 454.71 225.51 454.31 225.91 453.89 227.07 453.46"/><path class="cls-1" d="M236.94,453.46h1.3l.43.42h.45l.43-.42h1.76l.43.42v.82l-.43.4h-.45l-.43-.4v-.4l-.43.4.43.4v1.67l-1.3,1.22-.88.4h-1.3l-.43-.4-.45.4v.43h3.06l.88.42,1.3,1.22v1.25l-1.3,1.22-1.33.42h-2.16l-1.33-.42-.85-.82v-.82l.85-.82V460l-.4-.4v-4.53l1.28-1.22Zm0,1.25h1.3l.43.4v1.67l-.43.4h-1.3l-.43-.4v-1.67Zm-.43,5.75h2.16l.88.42v.82l-.88.4h-1.73l-.88-.4v-.82Z"/><path class="cls-1" d="M246,449.75h5.13l.74.42,1.47,1.64v2.07l-1.47,1.64-.74.4h-2.55v3.31l.71.4h.37l.37.4-.37.42H246l-.37-.42.37-.4.74-.4h.37V451l-.74-.4H246l-.37-.43Zm2.58,1.25h1.84l.71.43.37.4.37.82v.42l-.37.82-.37.43-.71.4h-1.84Z"/><polygon class="cls-1" points="257.75 449.75 258.15 449.75 258.55 450.18 258.55 451.82 258.92 451.82 258.92 451.42 259.34 451 260.13 451 260.5 451.42 260.5 451.82 259.74 452.64 259.34 452.64 258.92 453.07 259.34 453.07 260.13 453.46 260.5 453.89 260.5 454.31 260.13 454.71 259.34 454.71 258.92 454.31 258.92 453.89 258.55 453.89 258.55 455.53 258.15 455.93 257.75 455.93 257.36 455.53 257.36 453.89 256.96 453.89 256.17 454.71 255.77 454.71 255.37 454.31 255.37 453.89 256.17 453.07 256.56 453.07 256.56 452.64 256.17 452.64 255.37 451.82 255.37 451.42 255.77 451 256.17 451 256.96 451.82 257.36 451.82 257.36 450.18 257.75 449.75"/><polygon class="cls-1" points="267.31 449.75 267.62 449.75 267.9 450.18 267.9 459.64 268.53 459.64 268.84 460.04 268.53 460.46 266.09 460.46 265.78 460.04 266.09 459.64 266.69 459.64 266.69 451.42 266.09 451.42 265.78 451 266.09 450.6 267.31 449.75"/><path class="cls-1" d="M272.61,453.46h1.5l.77.42.77.82.37.82v1.25l-.37.4h-3.8V458l.4.82.37.42h1.5l.77-.42.77-.82.37.4v.43L274.88,460l-.77.42h-1.87l-.77-.42-.74-.79-.4-.85v-2.46l.4-.82,1.11-1.22Zm0,1.25h1.13l.77.82v.82h-2.67v-.82Z"/><polygon class="cls-1" points="277.29 453.46 280.33 453.46 280.78 453.89 280.33 454.31 279.9 454.31 279.9 454.71 280.33 455.11 280.78 456.35 280.78 457.18 281.2 457.57 281.63 457.18 281.63 456.78 282.08 455.53 282.51 455.11 282.51 454.31 282.08 454.31 281.63 453.89 282.08 453.46 284.27 453.46 284.69 453.89 283.81 454.71 282.51 458 282.08 459.24 281.63 460.04 281.2 460.46 280.78 460.46 280.33 460.04 280.33 459.64 279.02 456.78 278.14 455.11 276.84 453.89 277.29 453.46"/><path class="cls-1" d="M287,453.46h1.5l.77.42.77.82.37.82v1.25l-.37.4h-3.8V458l.4.82.37.42h1.5l.77-.42.77-.82.37.4v.43L289.29,460l-.77.42h-1.87l-.77-.42-.74-.79-.4-.85v-2.46l.4-.82,1.11-1.22Zm0,1.25h1.13l.77.82v.82h-2.67v-.82Z"/><polygon class="cls-1" points="293.23 449.75 293.54 449.75 293.82 450.18 293.82 459.64 294.45 459.64 294.76 460.04 294.45 460.46 292.01 460.46 291.7 460.04 292.01 459.64 292.6 459.64 292.6 451.42 292.01 451.42 291.7 451 292.01 450.6 293.23 449.75"/><polygon class="cls-1" points="297.82 453.46 299.98 453.46 300.35 453.89 300.35 455.93 299.98 456.35 299.27 455.53 299.27 455.11 298.9 454.71 297.82 454.71 297.48 455.11 297.48 455.53 298.19 455.93 299.27 456.35 299.61 456.35 300.71 457.57 300.71 459.24 299.98 460.04 299.27 460.46 297.82 460.46 297.48 460.04 297.11 460.04 296.74 460.46 296.4 460.04 296.4 458 296.74 457.57 297.48 458.39 297.48 458.82 297.82 459.24 299.27 459.24 299.61 458.82 299.61 458.39 299.27 458 298.19 457.57 297.48 457.57 296.4 456.35 296.4 454.71 297.11 453.89 297.82 453.46"/><polygon class="cls-1" points="303.61 458.39 304.37 458.39 305.11 459.24 305.11 460.89 304.37 462.11 304 462.5 303.24 462.93 302.87 462.5 302.87 462.11 304 460.89 304 460.46 303.61 460.46 302.87 459.64 302.87 459.24 303.61 458.39"/><polygon class="cls-1" points="311.72 449.75 312.03 449.75 312.31 450.18 312.31 459.64 312.94 459.64 313.25 460.04 312.94 460.46 310.5 460.46 310.19 460.04 310.5 459.64 311.09 459.64 311.09 451.42 310.5 451.42 310.19 451 310.5 450.6 311.72 449.75"/><path class="cls-1" d="M315.89,450.18h.34l.65.82v.43l-.65.82h-.34l-.68-.82V451Zm0,3.29h.65l.34.42v5.75h.68l.34.4-.34.42h-2.69l-.34-.42.34-.4h.68v-4.93h-.68l-.34-.4.34-.43Z"/><path class="cls-1" d="M321.67,453.46H323l.43.42h.45l.43-.42H326l.43.42v.82l-.43.4h-.45l-.43-.4v-.4l-.43.4.43.4v1.67l-1.3,1.22-.88.4h-1.3l-.43-.4-.45.4v.43h3.06l.88.42,1.3,1.22v1.25l-1.3,1.22-1.33.42h-2.16l-1.33-.42-.85-.82v-.82l.85-.82V460l-.4-.4v-4.53l1.28-1.22Zm0,1.25H323l.43.4v1.67l-.43.4h-1.3l-.43-.4v-1.67Zm-.43,5.75h2.16l.88.42v.82l-.88.4h-1.73l-.88-.4v-.82Z"/><polygon class="cls-1" points="327.99 449.75 328.36 449.75 328.73 450.18 328.73 454.31 329.1 453.89 329.87 453.46 330.6 453.46 331.34 453.89 332.08 454.71 332.45 455.53 332.45 459.64 333.18 459.64 333.55 460.04 333.18 460.46 330.2 460.46 329.87 460.04 330.2 459.64 330.97 459.64 330.97 455.53 330.2 454.71 329.5 454.71 328.73 455.53 328.73 459.64 329.1 459.64 329.5 460.04 329.1 460.46 326.52 460.46 326.15 460.04 326.52 459.64 327.26 459.64 327.26 451 326.52 451 326.15 450.6 326.52 450.18 327.99 449.75"/><polygon class="cls-1" points="336.47 450.6 336.78 451 336.78 453.46 338 453.46 338.32 453.89 338 454.31 336.78 454.31 336.78 458.82 337.1 459.24 337.41 459.24 337.72 458.82 338 458 338 457.57 338.32 457.18 338.66 457.57 338.66 458.82 338.32 459.64 337.72 460.46 336.47 460.46 335.54 459.24 335.54 454.31 334.91 454.31 334.6 453.89 334.91 453.46 335.23 453.46 335.54 453.07 336.16 451.42 336.16 451 336.47 450.6"/><polygon class="cls-1" points="346.06 453.46 348.21 453.46 348.58 453.89 348.58 455.93 348.21 456.35 347.5 455.53 347.5 455.11 347.13 454.71 346.06 454.71 345.72 455.11 345.72 455.53 346.43 455.93 347.5 456.35 347.84 456.35 348.95 457.57 348.95 459.24 348.21 460.04 347.5 460.46 346.06 460.46 345.72 460.04 345.35 460.04 344.98 460.46 344.64 460.04 344.64 458 344.98 457.57 345.72 458.39 345.72 458.82 346.06 459.24 347.5 459.24 347.84 458.82 347.84 458.39 347.5 458 346.43 457.57 345.72 457.57 344.64 456.35 344.64 454.71 345.35 453.89 346.06 453.46"/><path class="cls-1" d="M353.29,453.46h1.28l.82.42,1.28,1.22.43.82V458l-.43.82L355.39,460l-.82.42h-1.28l-.85-.42-1.25-1.22-.43-.82v-2.07l.43-.82,1.25-1.22Zm0,1.25h1.28l.4.4.43.82V458l-.43.82-.4.42h-1.28l-.43-.42-.43-.82v-2.07l.43-.82Z"/><polygon class="cls-1" points="359.27 449.75 359.58 449.75 359.87 450.18 359.87 459.64 360.49 459.64 360.8 460.04 360.49 460.46 358.05 460.46 357.74 460.04 358.05 459.64 358.65 459.64 358.65 451.42 358.05 451.42 357.74 451 358.05 450.6 359.27 449.75"/><path class="cls-1" d="M363.41,450.18h.34l.65.82v.43l-.65.82h-.34l-.68-.82V451Zm0,3.29h.65l.34.42v5.75h.68l.34.4-.34.42h-2.69l-.34-.42.34-.4h.68v-4.93h-.68l-.34-.4.34-.43Z"/><path class="cls-1" d="M371.72,449.75h.4l.43.42v9.46h.4l.43.4-.43.42h-1.64l-.4-.42v-.4l-.82.82h-1.25l-1.64-.82-.4-.4-.43-.85v-2.46l.43-.82,1.22-1.22.82-.42h1.25l.82.85V451h-.43l-.4-.4.4-.43Zm-2.89,5h1.25l.4.4.43.82V458l-.43.82-.4.42h-1.25l-.4-.42L368,458v-2.07l.43-.82Z"/><polygon class="cls-1" points="379.92 449.75 380.23 449.75 380.51 450.18 380.51 459.64 381.13 459.64 381.45 460.04 381.13 460.46 378.7 460.46 378.38 460.04 378.7 459.64 379.29 459.64 379.29 451.42 378.7 451.42 378.38 451 378.7 450.6 379.92 449.75"/><path class="cls-1" d="M384.06,450.18h.34l.65.82v.43l-.65.82h-.34l-.68-.82V451Zm0,3.29h.65l.34.42v5.75h.68l.34.4-.34.42H383l-.34-.42.34-.4h.68v-4.93H383l-.34-.4.34-.43Z"/><polygon class="cls-1" points="388.2 453.46 388.99 453.46 389.36 453.89 389.36 454.31 389.75 453.89 390.55 453.46 391.71 453.46 392.48 453.89 392.87 454.31 393.27 455.11 393.27 459.64 394.04 459.64 394.43 460.04 394.04 460.46 391.31 460.46 390.92 460.04 391.31 459.64 391.71 459.64 391.71 455.11 391.31 454.71 390.55 454.71 389.36 455.93 389.36 459.64 389.75 459.64 390.15 460.04 389.75 460.46 387.03 460.46 386.64 460.04 387.03 459.64 387.8 459.64 387.8 454.71 387.03 454.71 386.64 454.31 387.03 453.89 388.2 453.46"/><path class="cls-1" d="M397.92,453.46h1.5l.77.42.77.82.37.82v1.25l-.37.4h-3.8V458l.4.82.37.42h1.5l.77-.42L401,458l.37.4v.43L400.19,460l-.77.42h-1.87l-.77-.42-.74-.79-.4-.85v-2.46l.4-.82,1.11-1.22Zm0,1.25h1.13l.77.82v.82h-2.67v-.82Z"/><polygon class="cls-1" points="404.42 453.46 406.57 453.46 406.94 453.89 406.94 455.93 406.57 456.35 405.86 455.53 405.86 455.11 405.49 454.71 404.42 454.71 404.08 455.11 404.08 455.53 404.78 455.93 405.86 456.35 406.2 456.35 407.31 457.57 407.31 459.24 406.57 460.04 405.86 460.46 404.42 460.46 404.08 460.04 403.71 460.04 403.34 460.46 403 460.04 403 458 403.34 457.57 404.08 458.39 404.08 458.82 404.42 459.24 405.86 459.24 406.2 458.82 406.2 458.39 405.86 458 404.78 457.57 404.08 457.57 403 456.35 403 454.71 403.71 453.89 404.42 453.46"/><path class="cls-1" d="M414.94,453.46h2l.82.42.77.82v4.11l.4.42.43-.42.4.42v.4l-.82.82h-.77l-.79-.82h-.43l-.77.4-.4.42h-1.59L413,459.24V458l1.19-1.22h.4l2.35-.85v-.82l-.37-.4h-1.19l-1.19,1.22h-.4l-.4-.4v-.82l.79-.82Zm.79,3.71h1.16v1.22l-.37.43-.79.42h-.79l-.4-.42V458l.4-.43Z"/><polygon class="cls-1" points="421.71 453.46 422.42 453.46 422.79 453.89 422.79 454.31 423.16 453.89 423.87 453.46 424.95 453.46 425.65 454.31 425.65 455.11 424.95 455.93 424.58 455.93 423.87 455.11 423.87 454.71 423.5 454.71 423.16 455.11 422.79 455.93 422.79 459.64 423.5 459.64 423.87 460.04 423.5 460.46 420.64 460.46 420.27 460.04 420.64 459.64 421.35 459.64 421.35 454.71 420.64 454.71 420.27 454.31 420.64 453.89 421.71 453.46"/><path class="cls-1" d="M429.14,453.46h1.5l.77.42.77.82.37.82v1.25l-.37.4h-3.8V458l.4.82.37.42h1.5l.77-.42.77-.82.37.4v.43L431.41,460l-.77.42h-1.87L428,460l-.74-.79-.4-.85v-2.46l.4-.82,1.11-1.22Zm0,1.25h1.13l.77.82v.82h-2.67v-.82Z"/><polygon class="cls-1" points="439.24 450.6 439.55 451 439.55 453.46 440.77 453.46 441.08 453.89 440.77 454.31 439.55 454.31 439.55 458.82 439.86 459.24 440.17 459.24 440.49 458.82 440.77 458 440.77 457.57 441.08 457.18 441.42 457.57 441.42 458.82 441.08 459.64 440.49 460.46 439.24 460.46 438.3 459.24 438.3 454.31 437.68 454.31 437.37 453.89 437.68 453.46 437.99 453.46 438.3 453.07 438.93 451.42 438.93 451 439.24 450.6"/><polygon class="cls-1" points="444.43 449.75 444.8 449.75 445.17 450.18 445.17 454.31 445.53 453.89 446.3 453.46 447.04 453.46 447.77 453.89 448.51 454.71 448.88 455.53 448.88 459.64 449.62 459.64 449.99 460.04 449.62 460.46 446.64 460.46 446.3 460.04 446.64 459.64 447.4 459.64 447.4 455.53 446.64 454.71 445.93 454.71 445.17 455.53 445.17 459.64 445.53 459.64 445.93 460.04 445.53 460.46 442.95 460.46 442.58 460.04 442.95 459.64 443.69 459.64 443.69 451 442.95 451 442.58 450.6 442.95 450.18 444.43 449.75"/><path class="cls-1" d="M453.87,453.46h1.5l.77.42.77.82.37.82v1.25l-.37.4h-3.8V458l.4.82.37.42h1.5l.77-.42.77-.82.37.4v.43L456.14,460l-.77.42H453.5l-.77-.42-.74-.79-.4-.85v-2.46l.4-.82,1.11-1.22Zm0,1.25H455l.77.82v.82H453.1v-.82Z"/><path class="cls-1" d="M464.39,453.46h2l.82.42.77.82v4.11l.4.42.43-.42.4.42v.4l-.82.82h-.77l-.79-.82h-.43l-.77.4-.4.42H463.6l-1.19-1.22V458l1.19-1.22h.4l2.35-.85v-.82l-.37-.4h-1.19l-1.19,1.22h-.4l-.4-.4v-.82l.79-.82Zm.79,3.71h1.16v1.22l-.37.43-.79.42h-.79l-.4-.42V458l.4-.43Z"/><path class="cls-1" d="M475.45,449.75h.4l.43.42v9.46h.4l.43.4-.43.42H475l-.4-.42v-.4l-.82.82h-1.25l-1.64-.82-.4-.4-.43-.85v-2.46l.43-.82,1.22-1.22.82-.42h1.25l.82.85V451h-.43l-.4-.4.4-.43Zm-2.89,5h1.25l.4.4.43.82V458l-.43.82-.4.42h-1.25l-.4-.42-.43-.82v-2.07l.43-.82Z"/><path class="cls-1" d="M483.36,449.75h.4l.43.42v9.46h.4l.43.4-.43.42h-1.64l-.4-.42v-.4l-.82.82h-1.25l-1.64-.82-.4-.4-.43-.85v-2.46l.43-.82,1.22-1.22.82-.42h1.25l.82.85V451h-.43l-.4-.4.4-.43Zm-2.89,5h1.25l.4.4.43.82V458l-.43.82-.4.42h-1.25l-.4-.42-.43-.82v-2.07l.43-.82Z"/><path class="cls-1" d="M487.53,450.18h.34l.65.82v.43l-.65.82h-.34l-.68-.82V451Zm0,3.29h.65l.34.42v5.75h.68l.34.4-.34.42h-2.69l-.34-.42.34-.4h.68v-4.93h-.68l-.34-.4.34-.43Z"/><polygon class="cls-1" points="492.07 450.6 492.38 451 492.38 453.46 493.6 453.46 493.91 453.89 493.6 454.31 492.38 454.31 492.38 458.82 492.69 459.24 493 459.24 493.31 458.82 493.6 458 493.6 457.57 493.91 457.18 494.25 457.57 494.25 458.82 493.91 459.64 493.31 460.46 492.07 460.46 491.13 459.24 491.13 454.31 490.51 454.31 490.2 453.89 490.51 453.46 490.82 453.46 491.13 453.07 491.75 451.42 491.75 451 492.07 450.6"/><path class="cls-1" d="M497.37,450.18h.34l.65.82v.43l-.65.82h-.34l-.68-.82V451Zm0,3.29H498l.34.42v5.75H499l.34.4-.34.42h-2.69L496,460l.34-.4H497v-4.93h-.68l-.34-.4.34-.43Z"/><path class="cls-1" d="M502.87,453.46h1.28l.82.42,1.28,1.22.43.82V458l-.43.82L505,460l-.82.42h-1.28L502,460l-1.25-1.22-.43-.82v-2.07l.43-.82,1.25-1.22Zm0,1.25h1.28l.4.4.43.82V458l-.43.82-.4.42h-1.28l-.43-.42L502,458v-2.07l.43-.82Z"/><polygon class="cls-1" points="508.46 453.46 509.25 453.46 509.62 453.89 509.62 454.31 510.02 453.89 510.81 453.46 511.97 453.46 512.74 453.89 513.14 454.31 513.53 455.11 513.53 459.64 514.3 459.64 514.7 460.04 514.3 460.46 511.58 460.46 511.18 460.04 511.58 459.64 511.97 459.64 511.97 455.11 511.58 454.71 510.81 454.71 509.62 455.93 509.62 459.64 510.02 459.64 510.41 460.04 510.02 460.46 507.3 460.46 506.9 460.04 507.3 459.64 508.06 459.64 508.06 454.71 507.3 454.71 506.9 454.31 507.3 453.89 508.46 453.46"/><polygon class="cls-1" points="521.08 449.75 521.39 449.75 521.67 450.18 521.67 459.64 522.3 459.64 522.61 460.04 522.3 460.46 519.86 460.46 519.54 460.04 519.86 459.64 520.45 459.64 520.45 451.42 519.86 451.42 519.54 451 519.86 450.6 521.08 449.75"/><path class="cls-1" d="M526.38,453.46h1.5l.77.42.77.82.37.82v1.25l-.37.4h-3.8V458l.4.82.37.42h1.5l.77-.42.77-.82.37.4v.43L528.65,460l-.77.42H526l-.77-.42-.74-.79-.4-.85v-2.46l.4-.82,1.11-1.22Zm0,1.25h1.13l.77.82v.82h-2.67v-.82Z"/><polygon class="cls-1" points="531.09 453.46 534.12 453.46 534.57 453.89 534.12 454.31 533.7 454.31 533.7 454.71 534.12 455.11 534.57 456.35 534.57 457.18 535 457.57 535.42 457.18 535.42 456.78 535.88 455.53 536.3 455.11 536.3 454.31 535.88 454.31 535.42 453.89 535.88 453.46 538.06 453.46 538.49 453.89 537.61 454.71 536.3 458 535.88 459.24 535.42 460.04 535 460.46 534.57 460.46 534.12 460.04 534.12 459.64 532.82 456.78 531.94 455.11 530.63 453.89 531.09 453.46"/><path class="cls-1" d="M540.78,453.46h1.5l.77.42.77.82.37.82v1.25l-.37.4H540V458l.4.82.37.42h1.5l.77-.42.77-.82.37.4v.43L543.05,460l-.77.42h-1.87l-.77-.42-.74-.79-.4-.85v-2.46l.4-.82,1.11-1.22Zm0,1.25h1.13l.77.82v.82H540v-.82Z"/><polygon class="cls-1" points="547.02 449.75 547.34 449.75 547.62 450.18 547.62 459.64 548.24 459.64 548.55 460.04 548.24 460.46 545.8 460.46 545.49 460.04 545.8 459.64 546.4 459.64 546.4 451.42 545.8 451.42 545.49 451 545.8 450.6 547.02 449.75"/><polygon class="cls-1" points="551.59 453.46 553.74 453.46 554.11 453.89 554.11 455.93 553.74 456.35 553.03 455.53 553.03 455.11 552.67 454.71 551.59 454.71 551.25 455.11 551.25 455.53 551.96 455.93 553.03 456.35 553.38 456.35 554.48 457.57 554.48 459.24 553.74 460.04 553.03 460.46 551.59 460.46 551.25 460.04 550.88 460.04 550.51 460.46 550.17 460.04 550.17 458 550.51 457.57 551.25 458.39 551.25 458.82 551.59 459.24 553.03 459.24 553.38 458.82 553.38 458.39 553.03 458 551.96 457.57 551.25 457.57 550.17 456.35 550.17 454.71 550.88 453.89 551.59 453.46"/><path class="cls-1" d="M21.91,470h2l.82.42.77.82v4.11l.4.42.43-.42.4.42v.4l-.82.82h-.77l-.79-.82h-.43l-.77.4-.4.42H21.11l-1.19-1.22v-1.25l1.19-1.22h.4l2.35-.85v-.82l-.37-.4H22.31l-1.19,1.22h-.4l-.4-.4v-.82l.79-.82Zm.79,3.71h1.16V475l-.37.43-.79.42h-.79l-.4-.42v-.82l.4-.43Z"/><path class="cls-1" d="M33,466.33h.4l.43.42v9.46h.4l.43.4-.43.42H32.54l-.4-.42v-.4l-.82.82H30.08l-1.64-.82-.4-.4-.43-.85V472.5l.43-.82,1.22-1.22.82-.42h1.25l.82.85v-3.31h-.43l-.4-.4.4-.42Zm-2.89,5h1.25l.4.4.43.82v2.07l-.43.82-.4.42H30.08l-.4-.42-.43-.82V472.5l.43-.82Z"/><path class="cls-1" d="M40.88,466.33h.4l.43.42v9.46h.4l.43.4-.43.42H40.45l-.4-.42v-.4l-.82.82H38l-1.64-.82-.4-.4-.43-.85V472.5l.43-.82,1.22-1.22L38,470h1.25l.82.85v-3.31h-.43l-.4-.4.4-.42Zm-2.89,5h1.25l.4.4.43.82v2.07l-.43.82-.4.42H38l-.4-.42-.43-.82V472.5l.43-.82Z"/><path class="cls-1" d="M45.73,470h1.5l.77.42.77.82.37.82v1.25l-.37.4H45v.82l.4.82.37.42h1.5l.77-.42.77-.82.37.4v.43L48,476.61l-.77.42H45.36l-.77-.42-.74-.79-.4-.85V472.5l.4-.82L45,470.46Zm0,1.25h1.13l.77.82v.82H45v-.82Z"/><path class="cls-1" d="M55.77,466.33h.4l.43.42v9.46H57l.43.4L57,477H55.34l-.4-.42v-.4l-.82.82H52.87l-1.64-.82-.4-.4-.43-.85V472.5l.43-.82,1.22-1.22.82-.42h1.25l.82.85v-3.31h-.43l-.4-.4.4-.42Zm-2.89,5h1.25l.4.4.43.82v2.07l-.43.82-.4.42H52.87l-.4-.42-.43-.82V472.5l.43-.82Z"/><path class="cls-1" d="M64.42,470h2l.82.42.77.82v4.11l.4.42.43-.42.4.42v.4l-.82.82h-.77l-.79-.82h-.43l-.77.4-.4.42H63.62l-1.19-1.22v-1.25l1.19-1.22H64l2.35-.85v-.82l-.37-.4H64.81l-1.19,1.22h-.4l-.4-.4v-.82l.79-.82Zm.79,3.71h1.16V475l-.37.43-.79.42h-.79l-.4-.42v-.82l.4-.43Z"/><polygon class="cls-1" points="71.67 467.18 71.99 467.57 71.99 470.04 73.21 470.04 73.52 470.46 73.21 470.89 71.99 470.89 71.99 475.39 72.3 475.82 72.61 475.82 72.92 475.39 73.21 474.57 73.21 474.15 73.52 473.75 73.86 474.15 73.86 475.39 73.52 476.21 72.92 477.04 71.67 477.04 70.74 475.82 70.74 470.89 70.11 470.89 69.8 470.46 70.11 470.04 70.43 470.04 70.74 469.64 71.36 468 71.36 467.57 71.67 467.18"/><path class="cls-1" d="M81.74,470h1.5l.77.42.77.82.37.82v1.25l-.37.4H81v.82l.4.82.37.42h1.5l.77-.42.77-.82.37.4v.43L84,476.61l-.77.42H81.37l-.77-.42-.74-.79-.4-.85V472.5l.4-.82L81,470.46Zm0,1.25h1.13l.77.82v.82H81v-.82Z"/><path class="cls-1" d="M88.41,470h2l.82.42.77.82v4.11l.4.42.43-.42.4.42v.4l-.82.82h-.77l-.79-.82h-.43l-.77.4-.4.42H87.61l-1.19-1.22v-1.25l1.19-1.22H88l2.35-.85v-.82l-.37-.4H88.8l-1.19,1.22h-.4l-.4-.4v-.82l.79-.82Zm.79,3.71h1.16V475l-.37.43-.79.42h-.79l-.4-.42v-.82l.4-.43Z"/><polygon class="cls-1" points="96.69 470.04 98.02 470.04 98.87 470.46 99.75 471.29 99.75 472.11 98.87 472.93 98.42 472.93 97.56 472.11 97.56 471.68 98.02 471.29 96.69 471.29 96.29 471.68 95.83 472.5 95.83 474.57 96.29 475.39 96.69 475.82 98.02 475.82 99.29 474.57 99.75 474.97 99.75 475.39 98.02 477.04 96.29 477.04 95.41 476.61 94.96 476.21 94.96 475.82 94.53 474.97 94.11 474.57 94.11 472.5 94.53 471.68 95.83 470.46 96.69 470.04"/><polygon class="cls-1" points="102.82 466.33 103.19 466.33 103.56 466.75 103.56 470.89 103.92 470.46 104.69 470.04 105.43 470.04 106.16 470.46 106.9 471.29 107.27 472.11 107.27 476.21 108.01 476.21 108.38 476.61 108.01 477.04 105.03 477.04 104.69 476.61 105.03 476.21 105.8 476.21 105.8 472.11 105.03 471.29 104.32 471.29 103.56 472.11 103.56 476.21 103.92 476.21 104.32 476.61 103.92 477.04 101.34 477.04 100.97 476.61 101.34 476.21 102.08 476.21 102.08 467.57 101.34 467.57 100.97 467.18 101.34 466.75 102.82 466.33"/><path class="cls-1" d="M115.73,470H117l.43.42h.45l.43-.42h1.76l.43.42v.82l-.43.4h-.45l-.43-.4v-.4l-.43.4.43.4v1.67l-1.3,1.22-.88.4h-1.3l-.43-.4-.45.4v.43h3.06l.88.42,1.3,1.22v1.25l-1.3,1.22-1.33.42h-2.16L114,479.5l-.85-.82v-.82L114,477v-.42l-.4-.4v-4.53l1.28-1.22Zm0,1.25H117l.43.4v1.67l-.43.4h-1.3l-.43-.4v-1.67Zm-.43,5.75h2.16l.88.43v.82l-.88.4h-1.73l-.88-.4v-.82Z"/><polygon class="cls-1" points="121.63 470.04 122.34 470.04 122.71 470.46 122.71 470.89 123.08 470.46 123.79 470.04 124.86 470.04 125.57 470.89 125.57 471.68 124.86 472.5 124.5 472.5 123.79 471.68 123.79 471.29 123.42 471.29 123.08 471.68 122.71 472.5 122.71 476.21 123.42 476.21 123.79 476.61 123.42 477.04 120.55 477.04 120.18 476.61 120.55 476.21 121.26 476.21 121.26 471.29 120.55 471.29 120.18 470.89 120.55 470.46 121.63 470.04"/><path class="cls-1" d="M128.15,466.75h.34l.65.82V468l-.65.82h-.34l-.68-.82v-.43Zm0,3.29h.65l.34.42v5.75h.68l.34.4-.34.42h-2.69l-.34-.42.34-.4h.68v-4.93h-.68l-.34-.4.34-.43Z"/><path class="cls-1" d="M136.49,466.33h.4l.43.42v9.46h.4l.43.4-.43.42h-1.64l-.4-.42v-.4l-.82.82H133.6l-1.64-.82-.4-.4-.43-.85V472.5l.43-.82,1.22-1.22.82-.42h1.25l.82.85v-3.31h-.43l-.4-.4.4-.42Zm-2.89,5h1.25l.4.4.43.82v2.07l-.43.82-.4.42H133.6l-.4-.42-.43-.82V472.5l.43-.82Z"/><polygon class="cls-1" points="145.48 470.04 146.81 470.04 147.66 470.46 148.54 471.29 148.54 472.11 147.66 472.93 147.21 472.93 146.36 472.11 146.36 471.68 146.81 471.29 145.48 471.29 145.08 471.68 144.63 472.5 144.63 474.57 145.08 475.39 145.48 475.82 146.81 475.82 148.09 474.57 148.54 474.97 148.54 475.39 146.81 477.04 145.08 477.04 144.2 476.61 143.75 476.21 143.75 475.82 143.32 474.97 142.9 474.57 142.9 472.5 143.32 471.68 144.63 470.46 145.48 470.04"/><path class="cls-1" d="M151.41,470h1.5l.77.42.77.82.37.82v1.25l-.37.4h-3.8v.82l.4.82.37.42h1.5l.77-.42.77-.82.37.4v.43l-1.13,1.22-.77.42H151l-.77-.42-.74-.79-.4-.85V472.5l.4-.82,1.11-1.22Zm0,1.25h1.13l.77.82v.82h-2.67v-.82Z"/><polygon class="cls-1" points="157.62 466.33 157.93 466.33 158.21 466.75 158.21 476.21 158.84 476.21 159.15 476.61 158.84 477.04 156.4 477.04 156.08 476.61 156.4 476.21 156.99 476.21 156.99 468 156.4 468 156.08 467.57 156.4 467.18 157.62 466.33"/><polygon class="cls-1" points="161.95 466.33 162.27 466.33 162.55 466.75 162.55 476.21 163.17 476.21 163.49 476.61 163.17 477.04 160.74 477.04 160.42 476.61 160.74 476.21 161.33 476.21 161.33 468 160.74 468 160.42 467.57 160.74 467.18 161.95 466.33"/><polygon class="cls-1" points="166.09 474.97 166.49 474.97 167.23 475.82 167.23 476.21 166.49 477.04 166.09 477.04 165.36 476.21 165.36 475.82 166.09 474.97"/></svg>