<svg id="Layer_1" data-name="Layer 1" xmlns="http://www.w3.org/2000/svg" viewBox="0 0 243 220"><defs><style>.cls-1{fill:#fff;}.cls-2,.cls-3{fill:none;stroke:#000;stroke-miterlimit:10;stroke-width:0.45px;}.cls-3{stroke-dasharray:3.6;}</style></defs><title>cgrid3d</title><rect class="cls-1" width="243" height="220"/><path class="cls-2" d="M195,333l85.5-36h135L366,333Zm171,0V495H195V333Zm0,162,49.5-36V297" transform="translate(-184 -286)"/><path class="cls-3" d="M415.5,459h-135V297M195,495l85.5-36" transform="translate(-184 -286)"/><path d="M242.79,387.86v5.63a2.3,2.3,0,0,0,.17,1,1.21,1.21,0,0,0,1.2.67,2,2,0,0,0,1.17-.4,3.43,3.43,0,0,0,.66-.61v-4.82a1.12,1.12,0,0,0-.26-.89,2,2,0,0,0-1.05-.25v-.29h2.84V394a1.19,1.19,0,0,0,.22.82,1.24,1.24,0,0,0,.91.2v.25l-.71.2-.76.24-1,.38a0,0,0,0,1-.05,0,.42.42,0,0,1,0-.09v-1.42a5.94,5.94,0,0,1-1.09,1.05,2.7,2.7,0,0,1-1.58.53,2.26,2.26,0,0,1-1.44-.55,2.16,2.16,0,0,1-.69-1.8v-4.57a1.15,1.15,0,0,0-.3-.93,1.81,1.81,0,0,0-.83-.21v-.25Z" transform="translate(-184 -286)"/><path d="M290,403.39v.35a3,3,0,0,0-.84.18.49.49,0,0,0-.25.5,1.17,1.17,0,0,0,.05.35q.05.17.18.49l2.4,5.74,2-5.07q.15-.38.28-.79a2.26,2.26,0,0,0,.13-.63.66.66,0,0,0-.42-.64,2.38,2.38,0,0,0-.69-.14v-.35h3.24v.35a1.06,1.06,0,0,0-.81.37,7.87,7.87,0,0,0-.71,1.5l-3.3,8.23a1.71,1.71,0,0,1-.15.3.18.18,0,0,1-.16.08.23.23,0,0,1-.19-.13,3.56,3.56,0,0,1-.17-.33l-3.5-8.36a3.36,3.36,0,0,0-.9-1.38,1.82,1.82,0,0,0-.83-.27v-.35Z" transform="translate(-184 -286)"/><path d="M347,379.65v.25a2.08,2.08,0,0,0-.58.13.34.34,0,0,0-.17.35.82.82,0,0,0,0,.24c0,.08.06.19.12.34l1.66,4,1.41-3.51c.07-.17.13-.36.19-.55a1.57,1.57,0,0,0,.09-.44.46.46,0,0,0-.29-.44,1.64,1.64,0,0,0-.47-.1v-.25h2.25v.25a.73.73,0,0,0-.56.26,5.43,5.43,0,0,0-.5,1l-2.29,5.7a1.18,1.18,0,0,1-.1.21.13.13,0,0,1-.11.06.16.16,0,0,1-.13-.09l-.12-.23L345,381a2.32,2.32,0,0,0-.62-1,1.26,1.26,0,0,0-.58-.19v-.25Z" transform="translate(-184 -286)"/><path d="M391.29,387.86v5.63a2.3,2.3,0,0,0,.17,1,1.21,1.21,0,0,0,1.2.67,2,2,0,0,0,1.17-.4,3.43,3.43,0,0,0,.66-.61v-4.82a1.12,1.12,0,0,0-.26-.89,2,2,0,0,0-1.05-.25v-.29H396V394a1.19,1.19,0,0,0,.22.82,1.23,1.23,0,0,0,.91.2v.25l-.71.2-.76.24-1,.38a0,0,0,0,1-.05,0,.42.42,0,0,1,0-.09v-1.42a5.94,5.94,0,0,1-1.09,1.05,2.7,2.7,0,0,1-1.58.53,2.26,2.26,0,0,1-1.44-.55,2.16,2.16,0,0,1-.69-1.8v-4.57a1.15,1.15,0,0,0-.3-.93,1.81,1.81,0,0,0-.83-.21v-.25Z" transform="translate(-184 -286)"/><path d="M324.87,311.58a2.8,2.8,0,0,0-.78.18.46.46,0,0,0-.25.46,1.41,1.41,0,0,0,.06.39q.06.2.15.47l1.6,4.16,1.56-3.8a6.68,6.68,0,0,0,.23-.65,2.27,2.27,0,0,0,.12-.6.46.46,0,0,0-.2-.44,1.69,1.69,0,0,0-.59-.17v-.25H329v.25a.61.61,0,0,0-.36.21,3.58,3.58,0,0,0-.4.79l-2.81,6.93-.06.11a.09.09,0,0,1-.08,0,.3.3,0,0,1-.12-.1L323,314.26l-2.15,5.3a.23.23,0,0,1,0,.07.1.1,0,0,1-.08,0,.29.29,0,0,1-.12-.09L318,313.1a8.67,8.67,0,0,0-.57-1.27.81.81,0,0,0-.55-.25v-.25h3.26v.25a1.71,1.71,0,0,0-.62.15.48.48,0,0,0-.22.47,5.47,5.47,0,0,0,.36,1.26q.21.56.54,1.37l1,2.46,1.55-3.33,0-.1a2.28,2.28,0,0,0-.19-.66q-.19-.48-.36-.86a1.3,1.3,0,0,0-.4-.56,1.28,1.28,0,0,0-.63-.19v-.25h3.67Z" transform="translate(-184 -286)"/><path d="M324.87,473.58a2.79,2.79,0,0,0-.78.18.46.46,0,0,0-.25.46,1.41,1.41,0,0,0,.06.39q.06.2.15.47l1.6,4.16,1.56-3.8a6.61,6.61,0,0,0,.23-.65,2.26,2.26,0,0,0,.12-.6.46.46,0,0,0-.2-.44,1.69,1.69,0,0,0-.59-.17v-.25H329v.25a.61.61,0,0,0-.36.21,3.58,3.58,0,0,0-.4.79l-2.81,6.93-.06.11a.09.09,0,0,1-.08,0,.3.3,0,0,1-.12-.09L323,476.26l-2.15,5.3a.25.25,0,0,1,0,.08.11.11,0,0,1-.08,0,.29.29,0,0,1-.12-.09L318,475.1a8.74,8.74,0,0,0-.57-1.27.81.81,0,0,0-.55-.25v-.25h3.26v.25a1.71,1.71,0,0,0-.62.15.48.48,0,0,0-.22.47,5.46,5.46,0,0,0,.36,1.26q.21.56.54,1.37l1,2.46,1.55-3.33,0-.1a2.29,2.29,0,0,0-.19-.66q-.19-.48-.36-.86a1.3,1.3,0,0,0-.4-.56,1.29,1.29,0,0,0-.63-.19v-.25h3.67Z" transform="translate(-184 -286)"/></svg>