<svg id="Layer_1" data-name="Layer 1" xmlns="http://www.w3.org/2000/svg" xmlns:xlink="http://www.w3.org/1999/xlink" viewBox="0 0 393 293"><defs><style>.cls-1,.cls-3,.cls-5{fill:none;}.cls-1{clip-rule:evenodd;}.cls-2{fill:#fff;}.cls-3,.cls-5{stroke:#000;stroke-miterlimit:10;}.cls-3{stroke-width:0.45px;}.cls-4{fill:#bfbfbf;fill-rule:evenodd;}.cls-5{stroke-width:0.9px;}.cls-6{clip-path:url(#clip-path);}.cls-7{clip-path:url(#clip-path-2);}.cls-8{clip-path:url(#clip-path-3);}.cls-9{clip-path:url(#clip-path-4);}</style><clipPath id="clip-path" transform="translate(-109 -250)"><path class="cls-1" d="M109,250V543H502V250ZM211.9,423.9h7.2v-8.64l-3.6,7.2-3.6-7.2Zm7.2-37.8h-7.2v8.64l3.6-7.2,3.6,7.2Z"/></clipPath><clipPath id="clip-path-2" transform="translate(-109 -250)"><path class="cls-1" d="M109,250V543H502V250ZM279.4,473.4h7.2v-8.64L283,472l-3.6-7.2Zm7.2-87.3h-7.2v8.64l3.6-7.2,3.6,7.2Z"/></clipPath><clipPath id="clip-path-3" transform="translate(-109 -250)"><path class="cls-1" d="M109,250V543H502V250ZM454.9,531.9h7.2v-8.64l-3.6,7.2-3.6-7.2Zm7.2-145.8h-7.2v8.64l3.6-7.2,3.6,7.2Z"/></clipPath><clipPath id="clip-path-4" transform="translate(-109 -250)"><path class="cls-1" d="M109,250V543H502V250Zm359.4,82.1v-7.2h-8.64l7.2,3.6-7.2,3.6Zm-55.8-58.5h-7.2v8.64L409,275l3.6,7.2Z"/></clipPath></defs><title>vgrid-xz</title><rect class="cls-2" width="393" height="293"/><path d="M221.17,409.23a1.69,1.69,0,0,0,1-.39,2.34,2.34,0,0,0,.25-1.35v-9.28a1.73,1.73,0,0,0-.14-.8q-.14-.26-.68-.26h-.21l-.23,0v-.35l1-.3.87-.26L224,396l0,.07V402a6.31,6.31,0,0,1,1.08-1,3.2,3.2,0,0,1,1.84-.58,2.12,2.12,0,0,1,2.14,1.32,4.55,4.55,0,0,1,.31,1.83v3.94a2.46,2.46,0,0,0,.24,1.33,1.43,1.43,0,0,0,1,.41v.27h-4.19v-.27a1.81,1.81,0,0,0,1.08-.4,2.35,2.35,0,0,0,.24-1.34v-3.92a3.18,3.18,0,0,0-.31-1.52,1.22,1.22,0,0,0-1.18-.58,2.37,2.37,0,0,0-1.46.54q-.71.54-.71.71v4.77a2.28,2.28,0,0,0,.25,1.35,1.88,1.88,0,0,0,1.07.39v.27h-4.26Z" transform="translate(-109 -250)"/><path d="M236.27,411a1.82,1.82,0,0,0-.5.11.29.29,0,0,0-.16.3.9.9,0,0,0,0,.25c0,.09.06.19.1.3l1,2.67,1-2.44c0-.11.09-.24.15-.42a1.45,1.45,0,0,0,.08-.39.3.3,0,0,0-.13-.28,1.09,1.09,0,0,0-.38-.11v-.16h1.43V411a.39.39,0,0,0-.23.13,2.31,2.31,0,0,0-.25.51l-1.8,4.45,0,.07a.06.06,0,0,1-.05,0,.19.19,0,0,1-.08-.06l-1.38-3.41-1.38,3.4,0,0,0,0-.08-.06L231.86,412a5.59,5.59,0,0,0-.37-.81.52.52,0,0,0-.35-.16v-.16h2.09V411a1.09,1.09,0,0,0-.4.09.31.31,0,0,0-.14.3,3.52,3.52,0,0,0,.23.81q.14.36.35.88l.65,1.58,1-2.13v-.07a1.46,1.46,0,0,0-.12-.42c-.08-.21-.16-.39-.23-.55a.84.84,0,0,0-.26-.36.82.82,0,0,0-.4-.12v-.16h2.35Z" transform="translate(-109 -250)"/><path d="M251,409.5H239.65l5.46-13.3h.44Zm-10-.89h7.39l-3.68-9.09Z" transform="translate(-109 -250)"/><path d="M251.44,409.18a2.34,2.34,0,0,0,1.18-.31,1.3,1.3,0,0,0,.29-1V403.5a3.73,3.73,0,0,0-.18-1.37.65.65,0,0,0-.65-.41l-.26,0-.33.06v-.32l1.13-.4.8-.29q.48-.18,1-.42s.07,0,.08,0a.87.87,0,0,1,0,.2v1.58a7.4,7.4,0,0,1,1.2-1.34,1.85,1.85,0,0,1,1.2-.48,1.12,1.12,0,0,1,.8.29,1,1,0,0,1,.07,1.41.76.76,0,0,1-.59.27,1.11,1.11,0,0,1-.74-.34,1,1,0,0,0-.58-.34q-.34,0-.83.55a1.68,1.68,0,0,0-.49,1.13v4.36a1.44,1.44,0,0,0,.39,1.16,1.93,1.93,0,0,0,1.29.3v.32h-4.77Z" transform="translate(-109 -250)"/><path d="M258.17,415.94a1.21,1.21,0,0,0,.79-.22,1.23,1.23,0,0,0,.19-.82v-3.62h-1v-.38h1a4.11,4.11,0,0,1,.24-1.5,1.69,1.69,0,0,1,1.7-1.18,2,2,0,0,1,.89.2.6.6,0,0,1,.39.53.48.48,0,0,1-.13.33.43.43,0,0,1-.33.15.42.42,0,0,1-.28-.1,1.63,1.63,0,0,1-.28-.35l-.1-.15a.83.83,0,0,0-.19-.2.48.48,0,0,0-.3-.08.57.57,0,0,0-.58.42,1.73,1.73,0,0,0-.08.59v1.33h1.4v.38h-1.4v3.62a1.27,1.27,0,0,0,.17.81,1.57,1.57,0,0,0,.9.23v.16h-3Z" transform="translate(-109 -250)"/><path class="cls-3" d="M121,279H445M121,387H445M121,531H445M211,261V531M355,261V531" transform="translate(-109 -250)"/><polyline class="cls-4" points="12 281 12 173 102 173 102 227 246 227 246 281"/><polyline class="cls-5" points="12 173 102 173 102 227 246 227 246 281 336 281"/><g class="cls-6"><line class="cls-3" x1="106.5" y1="137" x2="106.5" y2="173"/></g><path class="cls-3" d="M219.1,394.74l-3.6-7.2-3.6,7.2m0,20.52,3.6,7.2,3.6-7.2" transform="translate(-109 -250)"/><g class="cls-7"><line class="cls-3" x1="174" y1="137" x2="174" y2="222.5"/></g><path class="cls-3" d="M286.6,394.74l-3.6-7.2-3.6,7.2m0,70L283,472l3.6-7.2" transform="translate(-109 -250)"/><g class="cls-8"><line class="cls-3" x1="349.5" y1="137" x2="349.5" y2="281"/></g><path class="cls-3" d="M462.1,394.74l-3.6-7.2-3.6,7.2m0,128.52,3.6,7.2,3.6-7.2" transform="translate(-109 -250)"/><rect class="cls-2" x="282" y="11" width="99" height="81"/><g class="cls-9"><polyline class="cls-3" points="300 24.5 300 78.5 358.5 78.5"/></g><path class="cls-3" d="M412.6,282.24,409,275l-3.6,7.2m54.36,49.86,7.2-3.6-7.2-3.6" transform="translate(-109 -250)"/><path d="M466.75,312.23v.22a1.65,1.65,0,0,0-.51.08.3.3,0,0,0-.21.31,2.92,2.92,0,0,0,.42.85l.57.88q.46-.63.68-1a2.08,2.08,0,0,0,.39-.76.27.27,0,0,0-.17-.28,1.52,1.52,0,0,0-.47-.09v-.22H470v.22a1.9,1.9,0,0,0-.75.22,1.57,1.57,0,0,0-.56.49l-1.34,1.93,2.07,3.19a2.82,2.82,0,0,0,.68.8,1.26,1.26,0,0,0,.64.2v.22h-3.27v-.22l.23,0a.57.57,0,0,0,.3-.11.29.29,0,0,0,.12-.24,2,2,0,0,0-.3-.66c-.09-.17-.23-.4-.42-.7l-.39-.6-.44-.66-1.29,2a5.24,5.24,0,0,0-.29.47.5.5,0,0,0-.05.2.19.19,0,0,0,.12.2,2.93,2.93,0,0,0,.53.1v.22h-2.34v-.22a1.86,1.86,0,0,0,.63-.22,2.47,2.47,0,0,0,.55-.62l1.8-2.68-1.47-2.3a4.05,4.05,0,0,0-.63-.81,1.76,1.76,0,0,0-.76-.18v-.22Z" transform="translate(-109 -250)"/><path d="M413.57,278.74a1.91,1.91,0,0,0,1-.26,1.06,1.06,0,0,0,.24-.83v-3.57a3.05,3.05,0,0,0-.15-1.12.53.53,0,0,0-.53-.34l-.21,0-.27.05v-.26l.92-.32.65-.24c.26-.1.53-.21.81-.34,0,0,.06,0,.07,0a.66.66,0,0,1,0,.17V273a6,6,0,0,1,1-1.1,1.51,1.51,0,0,1,1-.4.91.91,0,0,1,.66.24.86.86,0,0,1,.06,1.15.62.62,0,0,1-.49.22.9.9,0,0,1-.6-.28.86.86,0,0,0-.48-.28c-.18,0-.41.15-.68.45a1.37,1.37,0,0,0-.4.92v3.57a1.18,1.18,0,0,0,.32.95,1.59,1.59,0,0,0,1.05.25V279h-3.9Z" transform="translate(-109 -250)"/><path d="M289.17,437.23a1.69,1.69,0,0,0,1-.39,2.34,2.34,0,0,0,.25-1.35v-9.28a1.73,1.73,0,0,0-.14-.8q-.14-.26-.68-.26h-.21l-.23,0v-.35l1-.3.87-.26L292,424l0,.07V430a6.31,6.31,0,0,1,1.08-1,3.2,3.2,0,0,1,1.84-.58,2.12,2.12,0,0,1,2.14,1.32,4.55,4.55,0,0,1,.31,1.83v3.94a2.46,2.46,0,0,0,.24,1.33,1.43,1.43,0,0,0,1,.41v.27h-4.19v-.27a1.81,1.81,0,0,0,1.08-.4,2.35,2.35,0,0,0,.24-1.34v-3.92a3.18,3.18,0,0,0-.31-1.52,1.22,1.22,0,0,0-1.18-.58,2.37,2.37,0,0,0-1.46.54q-.71.54-.71.71v4.77a2.28,2.28,0,0,0,.25,1.35,1.88,1.88,0,0,0,1.07.39v.27h-4.26Z" transform="translate(-109 -250)"/><path d="M303,439.14a1,1,0,0,1,.51.79.54.54,0,0,1-.13.35.48.48,0,0,1-.4.16.5.5,0,0,1-.35-.14.78.78,0,0,1-.22-.39l-.07-.27a.69.69,0,0,0-.25-.42.91.91,0,0,0-.49-.12,1.34,1.34,0,0,0-1.08.56,2.35,2.35,0,0,0-.44,1.49,2.55,2.55,0,0,0,.49,1.53,1.54,1.54,0,0,0,1.32.68,1.57,1.57,0,0,0,1-.38,3.57,3.57,0,0,0,.59-.7l.16.1a4.46,4.46,0,0,1-.68,1.07,2.07,2.07,0,0,1-1.58.76,2.11,2.11,0,0,1-1.56-.69,2.58,2.58,0,0,1-.68-1.88,2.94,2.94,0,0,1,.74-2,2.38,2.38,0,0,1,1.87-.84A2,2,0,0,1,303,439.14Z" transform="translate(-109 -250)"/><path d="M315.81,437.5H304.44l5.46-13.3h.43Zm-10-.89h7.39l-3.68-9.09Z" transform="translate(-109 -250)"/><path d="M316.22,437.18a2.34,2.34,0,0,0,1.18-.31,1.3,1.3,0,0,0,.29-1V431.5a3.74,3.74,0,0,0-.18-1.37.65.65,0,0,0-.65-.41l-.26,0-.33.06v-.32l1.13-.4.8-.29q.48-.18,1-.42s.07,0,.08,0a.89.89,0,0,1,0,.2v1.58a7.41,7.41,0,0,1,1.2-1.34,1.85,1.85,0,0,1,1.2-.48,1.12,1.12,0,0,1,.8.29,1,1,0,0,1,.07,1.41.76.76,0,0,1-.6.27,1.11,1.11,0,0,1-.74-.34,1,1,0,0,0-.59-.34q-.34,0-.83.55a1.68,1.68,0,0,0-.49,1.13v4.36a1.44,1.44,0,0,0,.39,1.16,1.93,1.93,0,0,0,1.29.3v.32h-4.77Z" transform="translate(-109 -250)"/><path d="M323,443.94a1.21,1.21,0,0,0,.79-.22,1.23,1.23,0,0,0,.19-.82v-3.62h-1v-.38h1a4.11,4.11,0,0,1,.24-1.5,1.69,1.69,0,0,1,1.7-1.18,2,2,0,0,1,.89.2.6.6,0,0,1,.39.53.48.48,0,0,1-.13.33.43.43,0,0,1-.33.15.42.42,0,0,1-.28-.1,1.63,1.63,0,0,1-.28-.35l-.1-.15a.81.81,0,0,0-.18-.2.49.49,0,0,0-.3-.08.57.57,0,0,0-.58.42,1.74,1.74,0,0,0-.08.59v1.33h1.4v.38h-1.4v3.62a1.28,1.28,0,0,0,.17.81,1.57,1.57,0,0,0,.9.23v.16h-3Z" transform="translate(-109 -250)"/><path d="M474.79,464.5H463.42l5.46-13.3h.43Zm-10-.89h7.39l-3.68-9.09Z" transform="translate(-109 -250)"/><path d="M475.2,464.18a2.35,2.35,0,0,0,1.18-.31,1.3,1.3,0,0,0,.29-1V458.5a3.72,3.72,0,0,0-.18-1.37.65.65,0,0,0-.65-.41l-.26,0-.33.06v-.32l1.13-.4.8-.29q.48-.18,1-.42s.07,0,.08,0a.87.87,0,0,1,0,.2v1.58a7.41,7.41,0,0,1,1.2-1.34,1.85,1.85,0,0,1,1.2-.48,1.12,1.12,0,0,1,.8.29,1,1,0,0,1,.07,1.41.76.76,0,0,1-.59.27,1.11,1.11,0,0,1-.74-.34,1,1,0,0,0-.58-.34q-.34,0-.83.55a1.68,1.68,0,0,0-.49,1.13v4.36a1.44,1.44,0,0,0,.39,1.16,1.93,1.93,0,0,0,1.29.3v.32H475.2Z" transform="translate(-109 -250)"/><path d="M481.93,470.94a1.21,1.21,0,0,0,.79-.22,1.23,1.23,0,0,0,.19-.82v-3.62h-1v-.38h1a4.11,4.11,0,0,1,.24-1.5,1.69,1.69,0,0,1,1.7-1.18,2,2,0,0,1,.89.2.6.6,0,0,1,.39.53.48.48,0,0,1-.13.33.43.43,0,0,1-.33.15.42.42,0,0,1-.28-.1,1.63,1.63,0,0,1-.28-.35l-.1-.15a.81.81,0,0,0-.18-.2.49.49,0,0,0-.3-.08.57.57,0,0,0-.58.42,1.74,1.74,0,0,0-.08.59v1.33h1.4v.38h-1.4v3.62a1.28,1.28,0,0,0,.17.81,1.57,1.57,0,0,0,.9.23v.16h-3Z" transform="translate(-109 -250)"/></svg>