<svg id="Layer_1" data-name="Layer 1" xmlns="http://www.w3.org/2000/svg" xmlns:xlink="http://www.w3.org/1999/xlink" viewBox="0 0 744.08 437.8"><defs><style>.cls-1,.cls-10,.cls-11,.cls-15,.cls-2,.cls-9{fill:none;}.cls-2{clip-rule:evenodd;}.cls-3,.cls-8{fill:#87cfff;}.cls-15,.cls-16,.cls-3,.cls-4,.cls-9{stroke:#000;}.cls-10,.cls-11,.cls-15,.cls-16,.cls-3,.cls-4,.cls-6,.cls-8,.cls-9{stroke-miterlimit:10;}.cls-15,.cls-16,.cls-3,.cls-4,.cls-6{stroke-width:2.7px;}.cls-4,.cls-6{fill:#00008f;}.cls-13,.cls-5{font-size:21.6px;font-family:Verdana-Bold, Verdana;font-weight:700;}.cls-5{fill:#fff;}.cls-11,.cls-6{stroke:#00008f;}.cls-16,.cls-6,.cls-8{fill-rule:evenodd;}.cls-7{clip-path:url(#clip-path);}.cls-10,.cls-8{stroke:#87cfff;}.cls-10,.cls-11,.cls-8,.cls-9{stroke-width:2px;}.cls-12{font-size:36px;font-family:Verdana, Verdana;}.cls-14{clip-path:url(#clip-path-2);}.cls-17{clip-path:url(#clip-path-3);}.cls-18{clip-path:url(#clip-path-4);}.cls-19{clip-path:url(#clip-path-5);}</style><clipPath id="clip-path" transform="translate(66.16 -197.48)"><rect class="cls-1" x="-66" y="196" width="744" height="401"/></clipPath><clipPath id="clip-path-2" transform="translate(66.16 -197.48)"><path class="cls-2" d="M-66,196V597H678V196ZM439.16,519l3.6-.42-2-16.92-.66,9.18-2.88-8.76Z"/></clipPath><clipPath id="clip-path-3" transform="translate(66.16 -197.48)"><path class="cls-2" d="M-66,196V597H678V196ZM169,518.56l3.6.42,2-16.92-2.82,8.76-.72-9.18Z"/></clipPath><clipPath id="clip-path-4" transform="translate(66.16 -197.48)"><path class="cls-2" d="M-66,196V597H678V196ZM169.16,518.92l3.54-.3-1.2-17-1.14,9.12-2.46-8.88Z"/></clipPath><clipPath id="clip-path-5" transform="translate(66.16 -197.48)"><path class="cls-2" d="M-66,196V597H678V196ZM439,518.62l3.54.3,1.26-17-2.4,8.88-1.2-9.12Z"/></clipPath></defs><title>onemodel</title><rect class="cls-3" x="147.06" y="320.42" width="166.5" height="76.5"/><rect class="cls-4" x="430.56" y="320.42" width="166.5" height="76.5"/><text class="cls-5" transform="translate(152.67 356.42)">Atmospheric<tspan x="40.32" y="25.92">Model</tspan></text><polygon class="cls-6" points="506.4 304.16 507.6 313.28 510 304.4 508.08 306.08 506.4 304.16 506.4 304.16"/><g class="cls-7"><polygon class="cls-8" points="234.06 304.4 236.52 313.28 237.66 304.16 235.98 306.08 234.06 304.4 234.06 304.4"/><path class="cls-9" d="M485.88,286.2c0,48.42-79.62,87.72-177.72,87.72s-177.72-39.3-177.72-87.72,79.62-87.72,177.72-87.72,177.72,39.3,177.72,87.72Z" transform="translate(66.16 -197.48)"/><path class="cls-10" d="M134.28,358.08c0,27.16-44.67,49.2-99.72,49.2s-99.72-22-99.72-49.2,44.67-49.2,99.72-49.2,99.72,22,99.72,49.2Z" transform="translate(66.16 -197.48)"/><path class="cls-11" d="M676.92,358.08c0,27.16-44.67,49.2-99.72,49.2s-99.72-22-99.72-49.2,44.67-49.2,99.72-49.2,99.72,22,99.72,49.2Z" transform="translate(66.16 -197.48)"/></g><text class="cls-12" transform="translate(213.57 102.42)">Dynamical Kernel</text><text class="cls-13" transform="translate(25.03 155.42)">Atmospheric<tspan x="30.89" y="25.92">Physics</tspan></text><text x="66.16" y="-197.48"></text><g class="cls-14"><path class="cls-15" d="M337.32,373.87A172.34,172.34,0,0,1,440.91,518" transform="translate(66.16 -197.48)"/></g><polygon class="cls-16" points="503.34 304.58 506.22 313.34 506.88 304.16 505.32 306.14 503.34 304.58 503.34 304.58"/><g class="cls-17"><path class="cls-15" d="M274.48,373.87A172.34,172.34,0,0,0,170.89,518" transform="translate(66.16 -197.48)"/></g><polygon class="cls-16" points="237.18 304.16 237.9 313.34 240.72 304.58 238.74 306.14 237.18 304.16 237.18 304.16"/><text class="cls-13" transform="translate(602.8 157.42)">Ocean<tspan x="-7.88" y="25.92">Physics</tspan></text><text class="cls-5" transform="translate(478.44 353.42)">Ocean<tspan x="1.55" y="25.92">Model</tspan></text><g class="cls-18"><path class="cls-10" d="M90,400.94A129.07,129.07,0,0,1,170.9,518" transform="translate(66.16 -197.48)"/></g><g class="cls-19"><path class="cls-11" d="M521.8,400.94A129.07,129.07,0,0,0,440.9,518" transform="translate(66.16 -197.48)"/></g><text x="66.16" y="-197.48"></text></svg>