<svg id="Layer_1" data-name="Layer 1" xmlns="http://www.w3.org/2000/svg" viewBox="0 0 506.8 441.46"><defs><style>.cls-1{font-size:36px;font-family:MSTT319c623cc2o204073S00, MSTT319c623cc2o204073S00;letter-spacing:0em;}.cls-2,.cls-4{fill:#0c9;}.cls-2,.cls-3,.cls-5{stroke:#000;stroke-width:0.72px;}.cls-2{stroke-miterlimit:10;}.cls-3,.cls-5{fill:none;stroke-linejoin:round;}.cls-3{stroke-linecap:round;}.cls-6{fill-rule:evenodd;}.cls-20,.cls-7,.cls-8,.cls-9{font-size:24px;}.cls-20,.cls-7,.cls-9{font-family:MSTT319c623cc2o114040S00, MSTT319c623cc2o114040S00;}.cls-8{font-family:MSTT3185ae213ao122060S00, MSTT3185ae213ao122060S00;}.cls-9{letter-spacing:0em;}.cls-10{font-size:14px;font-family:Helvetica, Helvetica;}.cls-11{letter-spacing:1.85em;}.cls-12{letter-spacing:0.97em;}.cls-13{letter-spacing:0.13em;}.cls-14{letter-spacing:2.28em;}.cls-15{letter-spacing:1.8em;}.cls-16{letter-spacing:0.68em;}.cls-17{letter-spacing:0.41em;}.cls-18{letter-spacing:1.72em;}.cls-19{letter-spacing:-0.15em;}.cls-20{letter-spacing:0em;}</style></defs><title>vertcoord</title><text class="cls-1" transform="translate(96.01 30.13)">z-p Isomorphism</text><rect class="cls-2" x="145.2" y="395.01" width="48.24" height="12.24"/><rect class="cls-2" x="193.2" y="383.01" width="48.24" height="24.24"/><rect class="cls-2" x="241.2" y="329.01" width="48.24" height="78.24"/><rect class="cls-2" x="289.2" y="281.01" width="48.24" height="126.24"/><rect class="cls-2" x="337.2" y="281.01" width="48.24" height="126.24"/><path class="cls-3" d="M163.4,455.08v126m48-120v120m48-126v126m48-132v132m48-126v126m48-126v126m48-126v126" transform="translate(-66.2 -174.07)"/><rect class="cls-4" x="289.2" y="233.01" width="48" height="12"/><rect x="288.96" y="233.01" width="0.72" height="2.88"/><rect x="288.96" y="238.05" width="0.72" height="2.88"/><polygon points="289.68 243.09 288.96 243.09 288.96 245.01 288.96 245.25 289.2 245.49 290.16 245.49 290.16 244.77 289.2 244.77 289.2 245.01 289.68 245.01 289.68 243.09 289.68 243.09"/><rect x="292.32" y="244.77" width="2.88" height="0.72"/><rect x="297.36" y="244.77" width="2.88" height="0.72"/><rect x="302.4" y="244.77" width="2.88" height="0.72"/><rect x="307.44" y="244.77" width="2.88" height="0.72"/><rect x="312.48" y="244.77" width="2.88" height="0.72"/><rect x="317.52" y="244.77" width="2.88" height="0.72"/><rect x="322.56" y="244.77" width="2.88" height="0.72"/><rect x="327.6" y="244.77" width="2.88" height="0.72"/><rect x="332.64" y="244.77" width="2.88" height="0.72"/><rect x="336.96" y="241.65" width="0.72" height="2.88"/><rect x="336.96" y="236.61" width="0.72" height="2.88"/><polygon points="336.96 234.45 337.68 234.45 337.68 233.01 337.68 232.77 337.2 232.77 335.76 232.77 335.76 233.49 337.2 233.49 337.2 233.01 336.96 233.01 336.96 234.45 336.96 234.45"/><rect x="330.72" y="232.77" width="2.88" height="0.72"/><rect x="325.68" y="232.77" width="2.88" height="0.72"/><rect x="320.64" y="232.77" width="2.88" height="0.72"/><rect x="315.6" y="232.77" width="2.88" height="0.72"/><rect x="310.56" y="232.77" width="2.88" height="0.72"/><rect x="305.52" y="232.77" width="2.88" height="0.72"/><rect x="300.48" y="232.77" width="2.88" height="0.72"/><rect x="295.44" y="232.77" width="2.88" height="0.72"/><rect x="290.4" y="232.77" width="2.88" height="0.72"/><rect class="cls-4" x="337.2" y="215.01" width="48" height="30"/><rect x="336.96" y="215.01" width="0.72" height="2.88"/><rect x="336.96" y="220.05" width="0.72" height="2.88"/><rect x="336.96" y="225.09" width="0.72" height="2.88"/><rect x="336.96" y="230.13" width="0.72" height="2.88"/><rect x="336.96" y="235.17" width="0.72" height="2.88"/><rect x="336.96" y="240.21" width="0.72" height="2.88"/><rect x="337.44" y="244.77" width="2.88" height="0.72"/><rect x="342.48" y="244.77" width="2.88" height="0.72"/><rect x="347.52" y="244.77" width="2.88" height="0.72"/><rect x="352.56" y="244.77" width="2.88" height="0.72"/><rect x="357.6" y="244.77" width="2.88" height="0.72"/><rect x="362.64" y="244.77" width="2.88" height="0.72"/><rect x="367.68" y="244.77" width="2.88" height="0.72"/><rect x="372.72" y="244.77" width="2.88" height="0.72"/><rect x="377.76" y="244.77" width="2.88" height="0.72"/><polygon points="382.8 244.77 382.8 245.49 385.2 245.49 385.44 245.49 385.68 245.01 385.68 244.53 384.96 244.53 384.96 245.01 385.2 245.01 385.2 244.77 382.8 244.77 382.8 244.77"/><rect x="384.96" y="239.49" width="0.72" height="2.88"/><rect x="384.96" y="234.45" width="0.72" height="2.88"/><rect x="384.96" y="229.41" width="0.72" height="2.88"/><rect x="384.96" y="224.37" width="0.72" height="2.88"/><rect x="384.96" y="219.33" width="0.72" height="2.88"/><polygon points="384.96 217.17 385.68 217.17 385.68 215.01 385.68 214.77 385.2 214.77 384.48 214.77 384.48 215.49 385.2 215.49 385.2 215.01 384.96 215.01 384.96 217.17 384.96 217.17"/><rect x="379.44" y="214.77" width="2.88" height="0.72"/><rect x="374.4" y="214.77" width="2.88" height="0.72"/><rect x="369.36" y="214.77" width="2.88" height="0.72"/><rect x="364.32" y="214.77" width="2.88" height="0.72"/><rect x="359.28" y="214.77" width="2.88" height="0.72"/><rect x="354.24" y="214.77" width="2.88" height="0.72"/><rect x="349.2" y="214.77" width="2.88" height="0.72"/><rect x="344.16" y="214.77" width="2.88" height="0.72"/><rect x="339.12" y="214.77" width="2.88" height="0.72"/><path class="cls-5" d="M115.4,581.08h336m-336-36h336m-336-30h336m-336-24h336m-336-18h336" transform="translate(-66.2 -174.07)"/><polygon points="49.44 280.77 49.2 280.77 48.96 281.01 49.2 281.49 51.84 281.49 52.08 281.49 52.32 281.25 52.32 281.01 52.08 280.77 49.44 280.77 49.44 280.77"/><polygon points="54.24 280.77 54 280.77 53.76 281.01 53.76 281.25 54 281.49 56.88 281.49 57.12 281.49 57.36 281.25 57.36 281.01 57.12 280.77 54.24 280.77 54.24 280.77"/><polygon points="59.28 280.77 59.04 280.77 58.8 281.01 58.8 281.25 59.04 281.49 61.92 281.49 62.16 281.49 62.4 281.25 62.4 281.01 62.16 280.77 59.28 280.77 59.28 280.77"/><polygon points="64.32 280.77 64.08 280.77 63.84 281.01 63.84 281.25 64.08 281.49 66.96 281.49 67.2 281.49 67.44 281.25 67.44 281.01 67.2 280.77 64.32 280.77 64.32 280.77"/><polygon points="69.36 280.77 69.12 280.77 68.88 281.01 68.88 281.25 69.12 281.49 72 281.49 72.24 281.49 72.48 281.25 72.48 281.01 72.24 280.77 69.36 280.77 69.36 280.77"/><polygon points="74.4 280.77 74.16 280.77 73.92 281.01 73.92 281.25 74.16 281.49 77.04 281.49 77.28 281.49 77.52 281.25 77.52 281.01 77.28 280.77 74.4 280.77 74.4 280.77"/><polygon points="79.44 280.77 79.2 280.77 78.96 281.01 78.96 281.25 79.2 281.49 82.08 281.49 82.32 281.49 82.56 281.25 82.56 281.01 82.32 280.77 79.44 280.77 79.44 280.77"/><polygon points="84.48 280.77 84.24 280.77 84 281.01 84 281.25 84.24 281.49 87.12 281.49 87.36 281.49 87.6 281.25 87.6 281.01 87.36 280.77 84.48 280.77 84.48 280.77"/><polygon points="89.52 280.77 89.28 280.77 89.04 281.01 89.04 281.25 89.28 281.49 92.16 281.49 92.4 281.49 92.64 281.25 92.64 281.01 92.4 280.77 89.52 280.77 89.52 280.77"/><polygon points="94.56 280.77 94.32 280.77 94.08 281.01 94.08 281.25 94.32 281.49 97.2 281.49 97.44 281.49 97.68 281.25 97.68 281.01 97.44 280.77 94.56 280.77 94.56 280.77"/><polygon points="99.6 280.77 99.36 280.77 99.12 281.01 99.12 281.25 99.36 281.49 102.24 281.49 102.48 281.49 102.72 281.25 102.72 281.01 102.48 280.77 99.6 280.77 99.6 280.77"/><polygon points="104.64 280.77 104.4 280.77 104.16 281.01 104.16 281.25 104.4 281.49 107.28 281.49 107.52 281.49 107.76 281.25 107.76 281.01 107.52 280.77 104.64 280.77 104.64 280.77"/><polygon points="109.68 280.77 109.44 280.77 109.2 281.01 109.2 281.25 109.44 281.49 112.32 281.49 112.56 281.49 112.8 281.25 112.8 281.01 112.56 280.77 109.68 280.77 109.68 280.77"/><polygon points="114.72 280.77 114.48 280.77 114.24 281.01 114.24 281.25 114.48 281.49 117.36 281.49 117.6 281.49 117.84 281.25 117.84 281.01 117.6 280.77 114.72 280.77 114.72 280.77"/><polygon points="119.76 280.77 119.52 280.77 119.28 281.01 119.28 281.25 119.52 281.49 122.4 281.49 122.64 281.49 122.88 281.25 122.88 281.01 122.64 280.77 119.76 280.77 119.76 280.77"/><polygon points="124.8 280.77 124.56 280.77 124.32 281.01 124.32 281.25 124.56 281.49 127.44 281.49 127.68 281.49 127.92 281.25 127.92 281.01 127.68 280.77 124.8 280.77 124.8 280.77"/><polygon points="129.84 280.77 129.6 280.77 129.36 281.01 129.36 281.25 129.6 281.49 132.48 281.49 132.72 281.49 132.96 281.25 132.96 281.01 132.72 280.77 129.84 280.77 129.84 280.77"/><polygon points="134.88 280.77 134.64 280.77 134.4 281.01 134.4 281.25 134.64 281.49 137.52 281.49 137.76 281.49 138 281.25 138 281.01 137.76 280.77 134.88 280.77 134.88 280.77"/><polygon points="139.92 280.77 139.68 280.77 139.44 281.01 139.44 281.25 139.68 281.49 142.56 281.49 142.8 281.49 143.04 281.25 143.04 281.01 142.8 280.77 139.92 280.77 139.92 280.77"/><polygon points="144.96 280.77 144.72 280.77 144.48 281.01 144.48 281.25 144.72 281.49 147.6 281.49 147.84 281.49 148.08 281.25 148.08 281.01 147.84 280.77 144.96 280.77 144.96 280.77"/><polygon points="150 280.77 149.76 280.77 149.52 281.01 149.52 281.25 149.76 281.49 152.64 281.49 152.88 281.49 153.12 281.25 153.12 281.01 152.88 280.77 150 280.77 150 280.77"/><polygon points="155.04 280.77 154.8 280.77 154.56 281.01 154.56 281.25 154.8 281.49 157.68 281.49 157.92 281.49 158.16 281.25 158.16 281.01 157.92 280.77 155.04 280.77 155.04 280.77"/><polygon points="160.08 280.77 159.84 280.77 159.6 281.01 159.6 281.25 159.84 281.49 162.72 281.49 162.96 281.49 163.2 281.25 163.2 281.01 162.96 280.77 160.08 280.77 160.08 280.77"/><polygon points="165.12 280.77 164.88 280.77 164.64 281.01 164.64 281.25 164.88 281.49 167.76 281.49 168 281.49 168.24 281.25 168.24 281.01 168 280.77 165.12 280.77 165.12 280.77"/><polygon points="170.16 280.77 169.92 280.77 169.68 281.01 169.68 281.25 169.92 281.49 172.8 281.49 173.04 281.49 173.28 281.25 173.28 281.01 173.04 280.77 170.16 280.77 170.16 280.77"/><polygon points="175.2 280.77 174.96 280.77 174.72 281.01 174.72 281.25 174.96 281.49 177.84 281.49 178.08 281.49 178.32 281.25 178.32 281.01 178.08 280.77 175.2 280.77 175.2 280.77"/><polygon points="180.24 280.77 180 280.77 179.76 281.01 179.76 281.25 180 281.49 182.88 281.49 183.12 281.49 183.36 281.25 183.36 281.01 183.12 280.77 180.24 280.77 180.24 280.77"/><polygon points="185.28 280.77 185.04 280.77 184.8 281.01 184.8 281.25 185.04 281.49 187.92 281.49 188.16 281.49 188.4 281.25 188.4 281.01 188.16 280.77 185.28 280.77 185.28 280.77"/><polygon points="190.32 280.77 190.08 280.77 189.84 281.01 189.84 281.25 190.08 281.49 192.96 281.49 193.2 281.49 193.44 281.25 193.44 281.01 193.2 280.77 190.32 280.77 190.32 280.77"/><polygon points="195.36 280.77 195.12 280.77 194.88 281.01 194.88 281.25 195.12 281.49 198 281.49 198.24 281.49 198.48 281.25 198.48 281.01 198.24 280.77 195.36 280.77 195.36 280.77"/><polygon points="200.4 280.77 200.16 280.77 199.92 281.01 199.92 281.25 200.16 281.49 203.04 281.49 203.28 281.49 203.52 281.25 203.52 281.01 203.28 280.77 200.4 280.77 200.4 280.77"/><polygon points="205.44 280.77 205.2 280.77 204.96 281.01 204.96 281.25 205.2 281.49 208.08 281.49 208.32 281.49 208.56 281.25 208.56 281.01 208.32 280.77 205.44 280.77 205.44 280.77"/><polygon points="210.48 280.77 210.24 280.77 210 281.01 210 281.25 210.24 281.49 213.12 281.49 213.36 281.49 213.6 281.25 213.6 281.01 213.36 280.77 210.48 280.77 210.48 280.77"/><polygon points="215.52 280.77 215.28 280.77 215.04 281.01 215.04 281.25 215.28 281.49 218.16 281.49 218.4 281.49 218.64 281.25 218.64 281.01 218.4 280.77 215.52 280.77 215.52 280.77"/><polygon points="220.56 280.77 220.32 280.77 220.08 281.01 220.08 281.25 220.32 281.49 223.2 281.49 223.44 281.49 223.68 281.25 223.68 281.01 223.44 280.77 220.56 280.77 220.56 280.77"/><polygon points="225.6 280.77 225.36 280.77 225.12 281.01 225.12 281.25 225.36 281.49 228.24 281.49 228.48 281.49 228.72 281.25 228.72 281.01 228.48 280.77 225.6 280.77 225.6 280.77"/><polygon points="230.64 280.77 230.4 280.77 230.16 281.01 230.16 281.25 230.4 281.49 233.28 281.49 233.52 281.49 233.76 281.25 233.76 281.01 233.52 280.77 230.64 280.77 230.64 280.77"/><polygon points="235.68 280.77 235.44 280.77 235.2 281.01 235.2 281.25 235.44 281.49 238.32 281.49 238.56 281.49 238.8 281.25 238.8 281.01 238.56 280.77 235.68 280.77 235.68 280.77"/><polygon points="240.72 280.77 240.48 280.77 240.24 281.01 240.24 281.25 240.48 281.49 243.36 281.49 243.6 281.49 243.84 281.25 243.84 281.01 243.6 280.77 240.72 280.77 240.72 280.77"/><polygon points="245.76 280.77 245.52 280.77 245.28 281.01 245.28 281.25 245.52 281.49 248.4 281.49 248.64 281.49 248.88 281.25 248.88 281.01 248.64 280.77 245.76 280.77 245.76 280.77"/><polygon points="250.8 280.77 250.56 280.77 250.32 281.01 250.32 281.25 250.56 281.49 253.44 281.49 253.68 281.49 253.92 281.25 253.92 281.01 253.68 280.77 250.8 280.77 250.8 280.77"/><polygon points="255.84 280.77 255.6 280.77 255.36 281.01 255.36 281.25 255.6 281.49 258.48 281.49 258.72 281.49 258.96 281.25 258.96 281.01 258.72 280.77 255.84 280.77 255.84 280.77"/><polygon points="260.88 280.77 260.64 280.77 260.4 281.01 260.4 281.25 260.64 281.49 263.52 281.49 263.76 281.49 264 281.25 264 281.01 263.76 280.77 260.88 280.77 260.88 280.77"/><polygon points="265.92 280.77 265.68 280.77 265.44 281.01 265.44 281.25 265.68 281.49 268.56 281.49 268.8 281.49 269.04 281.25 269.04 281.01 268.8 280.77 265.92 280.77 265.92 280.77"/><polygon points="270.96 280.77 270.72 280.77 270.48 281.01 270.48 281.25 270.72 281.49 273.6 281.49 273.84 281.49 274.08 281.25 274.08 281.01 273.84 280.77 270.96 280.77 270.96 280.77"/><polygon points="276 280.77 275.76 280.77 275.52 281.01 275.52 281.25 275.76 281.49 278.64 281.49 278.88 281.49 279.12 281.25 279.12 281.01 278.88 280.77 276 280.77 276 280.77"/><polygon points="281.04 280.77 280.8 280.77 280.56 281.01 280.56 281.25 280.8 281.49 283.68 281.49 283.92 281.49 284.16 281.25 284.16 281.01 283.92 280.77 281.04 280.77 281.04 280.77"/><polygon points="286.08 280.77 285.84 280.77 285.6 281.01 285.6 281.25 285.84 281.49 288.72 281.49 288.96 281.49 289.2 281.25 289.2 281.01 288.96 280.77 286.08 280.77 286.08 280.77"/><polygon points="291.12 280.77 290.88 280.77 290.64 281.01 290.64 281.25 290.88 281.49 293.76 281.49 294 281.49 294.24 281.25 294.24 281.01 294 280.77 291.12 280.77 291.12 280.77"/><polygon points="296.16 280.77 295.92 280.77 295.68 281.01 295.68 281.25 295.92 281.49 298.8 281.49 299.04 281.49 299.28 281.25 299.28 281.01 299.04 280.77 296.16 280.77 296.16 280.77"/><polygon points="301.2 280.77 300.96 280.77 300.72 281.01 300.72 281.25 300.96 281.49 303.84 281.49 304.08 281.49 304.32 281.25 304.32 281.01 304.08 280.77 301.2 280.77 301.2 280.77"/><polygon points="306.24 280.77 306 280.77 305.76 281.01 305.76 281.25 306 281.49 308.88 281.49 309.12 281.49 309.36 281.25 309.36 281.01 309.12 280.77 306.24 280.77 306.24 280.77"/><polygon points="311.28 280.77 311.04 280.77 310.8 281.01 310.8 281.25 311.04 281.49 313.92 281.49 314.16 281.49 314.4 281.25 314.4 281.01 314.16 280.77 311.28 280.77 311.28 280.77"/><polygon points="316.32 280.77 316.08 280.77 315.84 281.01 315.84 281.25 316.08 281.49 318.96 281.49 319.2 281.49 319.44 281.25 319.44 281.01 319.2 280.77 316.32 280.77 316.32 280.77"/><polygon points="321.36 280.77 321.12 280.77 320.88 281.01 320.88 281.25 321.12 281.49 324 281.49 324.24 281.49 324.48 281.25 324.48 281.01 324.24 280.77 321.36 280.77 321.36 280.77"/><polygon points="326.4 280.77 326.16 280.77 325.92 281.01 325.92 281.25 326.16 281.49 329.04 281.49 329.28 281.49 329.52 281.25 329.52 281.01 329.28 280.77 326.4 280.77 326.4 280.77"/><polygon points="331.44 280.77 331.2 280.77 330.96 281.01 330.96 281.25 331.2 281.49 334.08 281.49 334.32 281.49 334.56 281.25 334.56 281.01 334.32 280.77 331.44 280.77 331.44 280.77"/><polygon points="336.48 280.77 336.24 280.77 336 281.01 336 281.25 336.24 281.49 339.12 281.49 339.36 281.49 339.6 281.25 339.6 281.01 339.36 280.77 336.48 280.77 336.48 280.77"/><polygon points="341.52 280.77 341.28 280.77 341.04 281.01 341.04 281.25 341.28 281.49 344.16 281.49 344.4 281.49 344.64 281.25 344.64 281.01 344.4 280.77 341.52 280.77 341.52 280.77"/><polygon points="346.56 280.77 346.32 280.77 346.08 281.01 346.08 281.25 346.32 281.49 349.2 281.49 349.44 281.49 349.68 281.25 349.68 281.01 349.44 280.77 346.56 280.77 346.56 280.77"/><polygon points="351.6 280.77 351.36 280.77 351.12 281.01 351.12 281.25 351.36 281.49 354.24 281.49 354.48 281.49 354.72 281.25 354.72 281.01 354.48 280.77 351.6 280.77 351.6 280.77"/><polygon points="356.64 280.77 356.4 280.77 356.16 281.01 356.16 281.25 356.4 281.49 359.28 281.49 359.52 281.49 359.76 281.25 359.76 281.01 359.52 280.77 356.64 280.77 356.64 280.77"/><polygon points="361.68 280.77 361.44 280.77 361.2 281.01 361.2 281.25 361.44 281.49 364.32 281.49 364.56 281.49 364.8 281.25 364.8 281.01 364.56 280.77 361.68 280.77 361.68 280.77"/><polygon points="366.72 280.77 366.48 280.77 366.24 281.01 366.24 281.25 366.48 281.49 369.36 281.49 369.6 281.49 369.84 281.25 369.84 281.01 369.6 280.77 366.72 280.77 366.72 280.77"/><polygon points="371.76 280.77 371.52 280.77 371.28 281.01 371.28 281.25 371.52 281.49 374.4 281.49 374.64 281.49 374.88 281.25 374.88 281.01 374.64 280.77 371.76 280.77 371.76 280.77"/><polygon points="376.8 280.77 376.56 280.77 376.32 281.01 376.32 281.25 376.56 281.49 379.44 281.49 379.68 281.49 379.92 281.25 379.92 281.01 379.68 280.77 376.8 280.77 376.8 280.77"/><polygon points="381.84 280.77 381.6 280.77 381.36 281.01 381.36 281.25 381.6 281.49 384.48 281.49 384.72 281.49 384.96 281.25 384.96 281.01 384.72 280.77 381.84 280.77 381.84 280.77"/><line class="cls-5" x1="49.2" y1="275.01" x2="49.2" y2="407.01"/><polygon points="49.44 244.77 49.2 244.77 48.96 245.01 49.2 245.49 51.84 245.49 52.08 245.49 52.32 245.25 52.32 245.01 52.08 244.77 49.44 244.77 49.44 244.77"/><polygon points="54.24 244.77 54 244.77 53.76 245.01 53.76 245.25 54 245.49 56.88 245.49 57.12 245.49 57.36 245.25 57.36 245.01 57.12 244.77 54.24 244.77 54.24 244.77"/><polygon points="59.28 244.77 59.04 244.77 58.8 245.01 58.8 245.25 59.04 245.49 61.92 245.49 62.16 245.49 62.4 245.25 62.4 245.01 62.16 244.77 59.28 244.77 59.28 244.77"/><polygon points="64.32 244.77 64.08 244.77 63.84 245.01 63.84 245.25 64.08 245.49 66.96 245.49 67.2 245.49 67.44 245.25 67.44 245.01 67.2 244.77 64.32 244.77 64.32 244.77"/><polygon points="69.36 244.77 69.12 244.77 68.88 245.01 68.88 245.25 69.12 245.49 72 245.49 72.24 245.49 72.48 245.25 72.48 245.01 72.24 244.77 69.36 244.77 69.36 244.77"/><polygon points="74.4 244.77 74.16 244.77 73.92 245.01 73.92 245.25 74.16 245.49 77.04 245.49 77.28 245.49 77.52 245.25 77.52 245.01 77.28 244.77 74.4 244.77 74.4 244.77"/><polygon points="79.44 244.77 79.2 244.77 78.96 245.01 78.96 245.25 79.2 245.49 82.08 245.49 82.32 245.49 82.56 245.25 82.56 245.01 82.32 244.77 79.44 244.77 79.44 244.77"/><polygon points="84.48 244.77 84.24 244.77 84 245.01 84 245.25 84.24 245.49 87.12 245.49 87.36 245.49 87.6 245.25 87.6 245.01 87.36 244.77 84.48 244.77 84.48 244.77"/><polygon points="89.52 244.77 89.28 244.77 89.04 245.01 89.04 245.25 89.28 245.49 92.16 245.49 92.4 245.49 92.64 245.25 92.64 245.01 92.4 244.77 89.52 244.77 89.52 244.77"/><polygon points="94.56 244.77 94.32 244.77 94.08 245.01 94.08 245.25 94.32 245.49 97.2 245.49 97.44 245.49 97.68 245.25 97.68 245.01 97.44 244.77 94.56 244.77 94.56 244.77"/><polygon points="99.6 244.77 99.36 244.77 99.12 245.01 99.12 245.25 99.36 245.49 102.24 245.49 102.48 245.49 102.72 245.25 102.72 245.01 102.48 244.77 99.6 244.77 99.6 244.77"/><polygon points="104.64 244.77 104.4 244.77 104.16 245.01 104.16 245.25 104.4 245.49 107.28 245.49 107.52 245.49 107.76 245.25 107.76 245.01 107.52 244.77 104.64 244.77 104.64 244.77"/><polygon points="109.68 244.77 109.44 244.77 109.2 245.01 109.2 245.25 109.44 245.49 112.32 245.49 112.56 245.49 112.8 245.25 112.8 245.01 112.56 244.77 109.68 244.77 109.68 244.77"/><polygon points="114.72 244.77 114.48 244.77 114.24 245.01 114.24 245.25 114.48 245.49 117.36 245.49 117.6 245.49 117.84 245.25 117.84 245.01 117.6 244.77 114.72 244.77 114.72 244.77"/><polygon points="119.76 244.77 119.52 244.77 119.28 245.01 119.28 245.25 119.52 245.49 122.4 245.49 122.64 245.49 122.88 245.25 122.88 245.01 122.64 244.77 119.76 244.77 119.76 244.77"/><polygon points="124.8 244.77 124.56 244.77 124.32 245.01 124.32 245.25 124.56 245.49 127.44 245.49 127.68 245.49 127.92 245.25 127.92 245.01 127.68 244.77 124.8 244.77 124.8 244.77"/><polygon points="129.84 244.77 129.6 244.77 129.36 245.01 129.36 245.25 129.6 245.49 132.48 245.49 132.72 245.49 132.96 245.25 132.96 245.01 132.72 244.77 129.84 244.77 129.84 244.77"/><polygon points="134.88 244.77 134.64 244.77 134.4 245.01 134.4 245.25 134.64 245.49 137.52 245.49 137.76 245.49 138 245.25 138 245.01 137.76 244.77 134.88 244.77 134.88 244.77"/><polygon points="139.92 244.77 139.68 244.77 139.44 245.01 139.44 245.25 139.68 245.49 142.56 245.49 142.8 245.49 143.04 245.25 143.04 245.01 142.8 244.77 139.92 244.77 139.92 244.77"/><polygon points="144.96 244.77 144.72 244.77 144.48 245.01 144.48 245.25 144.72 245.49 147.6 245.49 147.84 245.49 148.08 245.25 148.08 245.01 147.84 244.77 144.96 244.77 144.96 244.77"/><polygon points="150 244.77 149.76 244.77 149.52 245.01 149.52 245.25 149.76 245.49 152.64 245.49 152.88 245.49 153.12 245.25 153.12 245.01 152.88 244.77 150 244.77 150 244.77"/><polygon points="155.04 244.77 154.8 244.77 154.56 245.01 154.56 245.25 154.8 245.49 157.68 245.49 157.92 245.49 158.16 245.25 158.16 245.01 157.92 244.77 155.04 244.77 155.04 244.77"/><polygon points="160.08 244.77 159.84 244.77 159.6 245.01 159.6 245.25 159.84 245.49 162.72 245.49 162.96 245.49 163.2 245.25 163.2 245.01 162.96 244.77 160.08 244.77 160.08 244.77"/><polygon points="165.12 244.77 164.88 244.77 164.64 245.01 164.64 245.25 164.88 245.49 167.76 245.49 168 245.49 168.24 245.25 168.24 245.01 168 244.77 165.12 244.77 165.12 244.77"/><polygon points="170.16 244.77 169.92 244.77 169.68 245.01 169.68 245.25 169.92 245.49 172.8 245.49 173.04 245.49 173.28 245.25 173.28 245.01 173.04 244.77 170.16 244.77 170.16 244.77"/><polygon points="175.2 244.77 174.96 244.77 174.72 245.01 174.72 245.25 174.96 245.49 177.84 245.49 178.08 245.49 178.32 245.25 178.32 245.01 178.08 244.77 175.2 244.77 175.2 244.77"/><polygon points="180.24 244.77 180 244.77 179.76 245.01 179.76 245.25 180 245.49 182.88 245.49 183.12 245.49 183.36 245.25 183.36 245.01 183.12 244.77 180.24 244.77 180.24 244.77"/><polygon points="185.28 244.77 185.04 244.77 184.8 245.01 184.8 245.25 185.04 245.49 187.92 245.49 188.16 245.49 188.4 245.25 188.4 245.01 188.16 244.77 185.28 244.77 185.28 244.77"/><polygon points="190.32 244.77 190.08 244.77 189.84 245.01 189.84 245.25 190.08 245.49 192.96 245.49 193.2 245.49 193.44 245.25 193.44 245.01 193.2 244.77 190.32 244.77 190.32 244.77"/><polygon points="195.36 244.77 195.12 244.77 194.88 245.01 194.88 245.25 195.12 245.49 198 245.49 198.24 245.49 198.48 245.25 198.48 245.01 198.24 244.77 195.36 244.77 195.36 244.77"/><polygon points="200.4 244.77 200.16 244.77 199.92 245.01 199.92 245.25 200.16 245.49 203.04 245.49 203.28 245.49 203.52 245.25 203.52 245.01 203.28 244.77 200.4 244.77 200.4 244.77"/><polygon points="205.44 244.77 205.2 244.77 204.96 245.01 204.96 245.25 205.2 245.49 208.08 245.49 208.32 245.49 208.56 245.25 208.56 245.01 208.32 244.77 205.44 244.77 205.44 244.77"/><polygon points="210.48 244.77 210.24 244.77 210 245.01 210 245.25 210.24 245.49 213.12 245.49 213.36 245.49 213.6 245.25 213.6 245.01 213.36 244.77 210.48 244.77 210.48 244.77"/><polygon points="215.52 244.77 215.28 244.77 215.04 245.01 215.04 245.25 215.28 245.49 218.16 245.49 218.4 245.49 218.64 245.25 218.64 245.01 218.4 244.77 215.52 244.77 215.52 244.77"/><polygon points="220.56 244.77 220.32 244.77 220.08 245.01 220.08 245.25 220.32 245.49 223.2 245.49 223.44 245.49 223.68 245.25 223.68 245.01 223.44 244.77 220.56 244.77 220.56 244.77"/><polygon points="225.6 244.77 225.36 244.77 225.12 245.01 225.12 245.25 225.36 245.49 228.24 245.49 228.48 245.49 228.72 245.25 228.72 245.01 228.48 244.77 225.6 244.77 225.6 244.77"/><polygon points="230.64 244.77 230.4 244.77 230.16 245.01 230.16 245.25 230.4 245.49 233.28 245.49 233.52 245.49 233.76 245.25 233.76 245.01 233.52 244.77 230.64 244.77 230.64 244.77"/><polygon points="235.68 244.77 235.44 244.77 235.2 245.01 235.2 245.25 235.44 245.49 238.32 245.49 238.56 245.49 238.8 245.25 238.8 245.01 238.56 244.77 235.68 244.77 235.68 244.77"/><polygon points="240.72 244.77 240.48 244.77 240.24 245.01 240.24 245.25 240.48 245.49 243.36 245.49 243.6 245.49 243.84 245.25 243.84 245.01 243.6 244.77 240.72 244.77 240.72 244.77"/><polygon points="245.76 244.77 245.52 244.77 245.28 245.01 245.28 245.25 245.52 245.49 248.4 245.49 248.64 245.49 248.88 245.25 248.88 245.01 248.64 244.77 245.76 244.77 245.76 244.77"/><polygon points="250.8 244.77 250.56 244.77 250.32 245.01 250.32 245.25 250.56 245.49 253.44 245.49 253.68 245.49 253.92 245.25 253.92 245.01 253.68 244.77 250.8 244.77 250.8 244.77"/><polygon points="255.84 244.77 255.6 244.77 255.36 245.01 255.36 245.25 255.6 245.49 258.48 245.49 258.72 245.49 258.96 245.25 258.96 245.01 258.72 244.77 255.84 244.77 255.84 244.77"/><polygon points="260.88 244.77 260.64 244.77 260.4 245.01 260.4 245.25 260.64 245.49 263.52 245.49 263.76 245.49 264 245.25 264 245.01 263.76 244.77 260.88 244.77 260.88 244.77"/><polygon points="265.92 244.77 265.68 244.77 265.44 245.01 265.44 245.25 265.68 245.49 268.56 245.49 268.8 245.49 269.04 245.25 269.04 245.01 268.8 244.77 265.92 244.77 265.92 244.77"/><polygon points="270.96 244.77 270.72 244.77 270.48 245.01 270.48 245.25 270.72 245.49 273.6 245.49 273.84 245.49 274.08 245.25 274.08 245.01 273.84 244.77 270.96 244.77 270.96 244.77"/><polygon points="276 244.77 275.76 244.77 275.52 245.01 275.52 245.25 275.76 245.49 278.64 245.49 278.88 245.49 279.12 245.25 279.12 245.01 278.88 244.77 276 244.77 276 244.77"/><polygon points="281.04 244.77 280.8 244.77 280.56 245.01 280.56 245.25 280.8 245.49 283.68 245.49 283.92 245.49 284.16 245.25 284.16 245.01 283.92 244.77 281.04 244.77 281.04 244.77"/><polygon points="286.08 244.77 285.84 244.77 285.6 245.01 285.6 245.25 285.84 245.49 288.72 245.49 288.96 245.49 289.2 245.25 289.2 245.01 288.96 244.77 286.08 244.77 286.08 244.77"/><polygon points="291.12 244.77 290.88 244.77 290.64 245.01 290.64 245.25 290.88 245.49 293.76 245.49 294 245.49 294.24 245.25 294.24 245.01 294 244.77 291.12 244.77 291.12 244.77"/><polygon points="296.16 244.77 295.92 244.77 295.68 245.01 295.68 245.25 295.92 245.49 298.8 245.49 299.04 245.49 299.28 245.25 299.28 245.01 299.04 244.77 296.16 244.77 296.16 244.77"/><polygon points="301.2 244.77 300.96 244.77 300.72 245.01 300.72 245.25 300.96 245.49 303.84 245.49 304.08 245.49 304.32 245.25 304.32 245.01 304.08 244.77 301.2 244.77 301.2 244.77"/><polygon points="306.24 244.77 306 244.77 305.76 245.01 305.76 245.25 306 245.49 308.88 245.49 309.12 245.49 309.36 245.25 309.36 245.01 309.12 244.77 306.24 244.77 306.24 244.77"/><polygon points="311.28 244.77 311.04 244.77 310.8 245.01 310.8 245.25 311.04 245.49 313.92 245.49 314.16 245.49 314.4 245.25 314.4 245.01 314.16 244.77 311.28 244.77 311.28 244.77"/><polygon points="316.32 244.77 316.08 244.77 315.84 245.01 315.84 245.25 316.08 245.49 318.96 245.49 319.2 245.49 319.44 245.25 319.44 245.01 319.2 244.77 316.32 244.77 316.32 244.77"/><polygon points="321.36 244.77 321.12 244.77 320.88 245.01 320.88 245.25 321.12 245.49 324 245.49 324.24 245.49 324.48 245.25 324.48 245.01 324.24 244.77 321.36 244.77 321.36 244.77"/><polygon points="326.4 244.77 326.16 244.77 325.92 245.01 325.92 245.25 326.16 245.49 329.04 245.49 329.28 245.49 329.52 245.25 329.52 245.01 329.28 244.77 326.4 244.77 326.4 244.77"/><polygon points="331.44 244.77 331.2 244.77 330.96 245.01 330.96 245.25 331.2 245.49 334.08 245.49 334.32 245.49 334.56 245.25 334.56 245.01 334.32 244.77 331.44 244.77 331.44 244.77"/><polygon points="336.48 244.77 336.24 244.77 336 245.01 336 245.25 336.24 245.49 339.12 245.49 339.36 245.49 339.6 245.25 339.6 245.01 339.36 244.77 336.48 244.77 336.48 244.77"/><polygon points="341.52 244.77 341.28 244.77 341.04 245.01 341.04 245.25 341.28 245.49 344.16 245.49 344.4 245.49 344.64 245.25 344.64 245.01 344.4 244.77 341.52 244.77 341.52 244.77"/><polygon points="346.56 244.77 346.32 244.77 346.08 245.01 346.08 245.25 346.32 245.49 349.2 245.49 349.44 245.49 349.68 245.25 349.68 245.01 349.44 244.77 346.56 244.77 346.56 244.77"/><polygon points="351.6 244.77 351.36 244.77 351.12 245.01 351.12 245.25 351.36 245.49 354.24 245.49 354.48 245.49 354.72 245.25 354.72 245.01 354.48 244.77 351.6 244.77 351.6 244.77"/><polygon points="356.64 244.77 356.4 244.77 356.16 245.01 356.16 245.25 356.4 245.49 359.28 245.49 359.52 245.49 359.76 245.25 359.76 245.01 359.52 244.77 356.64 244.77 356.64 244.77"/><polygon points="361.68 244.77 361.44 244.77 361.2 245.01 361.2 245.25 361.44 245.49 364.32 245.49 364.56 245.49 364.8 245.25 364.8 245.01 364.56 244.77 361.68 244.77 361.68 244.77"/><polygon points="366.72 244.77 366.48 244.77 366.24 245.01 366.24 245.25 366.48 245.49 369.36 245.49 369.6 245.49 369.84 245.25 369.84 245.01 369.6 244.77 366.72 244.77 366.72 244.77"/><polygon points="371.76 244.77 371.52 244.77 371.28 245.01 371.28 245.25 371.52 245.49 374.4 245.49 374.64 245.49 374.88 245.25 374.88 245.01 374.64 244.77 371.76 244.77 371.76 244.77"/><polygon points="376.8 244.77 376.56 244.77 376.32 245.01 376.32 245.25 376.56 245.49 379.44 245.49 379.68 245.49 379.92 245.25 379.92 245.01 379.68 244.77 376.8 244.77 376.8 244.77"/><polygon points="381.84 244.77 381.6 244.77 381.36 245.01 381.36 245.25 381.6 245.49 384.48 245.49 384.72 245.49 384.96 245.25 384.96 245.01 384.72 244.77 381.84 244.77 381.84 244.77"/><path class="cls-5" d="M115.4,401.08h336m-336-18h336m-336-30h336m-336-30h336m-336-30h336m-336,0v132m48-132v132m48-132v126m48-126v120m48-120v120m48-120v126m48-126v126m48-126v126" transform="translate(-66.2 -174.07)"/><rect x="235.2" y="274.89" width="12.24" height="0.24"/><rect x="230.88" y="275.13" width="19.68" height="0.24"/><rect x="229.2" y="275.37" width="23.76" height="0.24"/><rect x="49.2" y="275.61" width="4.8" height="0.24"/><rect x="226.8" y="275.61" width="8.64" height="0.24"/><rect x="247.2" y="275.61" width="6.96" height="0.24"/><rect x="48.96" y="275.85" width="11.28" height="0.24"/><rect x="225.12" y="275.85" width="6" height="0.24"/><rect x="250.32" y="275.85" width="6.96" height="0.24"/><rect x="49.2" y="276.09" width="15.84" height="0.24"/><rect x="223.44" y="276.09" width="6" height="0.24"/><rect x="252.72" y="276.09" width="6.96" height="0.24"/><rect x="53.76" y="276.33" width="13.2" height="0.24"/><rect x="221.52" y="276.33" width="5.52" height="0.24"/><rect x="253.92" y="276.33" width="6.96" height="0.24"/><rect x="60" y="276.57" width="10.32" height="0.24"/><rect x="219.84" y="276.57" width="5.52" height="0.24"/><rect x="257.04" y="276.57" width="6.24" height="0.24"/><rect x="64.8" y="276.81" width="7.68" height="0.24"/><rect x="218.16" y="276.81" width="5.52" height="0.24"/><rect x="259.44" y="276.81" width="5.52" height="0.24"/><rect x="66.72" y="277.05" width="6.72" height="0.24"/><rect x="217.2" y="277.05" width="4.56" height="0.24"/><rect x="260.64" y="277.05" width="6" height="0.24"/><rect x="70.08" y="277.29" width="6.24" height="0.24"/><rect x="215.04" y="277.29" width="5.04" height="0.24"/><rect x="263.04" y="277.29" width="4.56" height="0.24"/><rect x="72.24" y="277.53" width="5.76" height="0.24"/><rect x="213.6" y="277.53" width="4.8" height="0.24"/><rect x="264.72" y="277.53" width="5.04" height="0.24"/><rect x="73.2" y="277.77" width="5.52" height="0.24"/><rect x="212.16" y="277.77" width="5.28" height="0.24"/><rect x="266.4" y="277.77" width="5.04" height="0.24"/><rect x="76.08" y="278.01" width="5.04" height="0.24"/><rect x="210.48" y="278.01" width="4.8" height="0.24"/><rect x="267.36" y="278.01" width="5.52" height="0.24"/><rect x="77.76" y="278.25" width="5.28" height="0.24"/><rect x="209.04" y="278.25" width="4.8" height="0.24"/><rect x="269.52" y="278.25" width="4.32" height="0.24"/><rect x="78.48" y="278.49" width="5.52" height="0.24"/><rect x="207.6" y="278.49" width="4.8" height="0.24"/><rect x="271.2" y="278.49" width="4.56" height="0.24"/><rect x="80.88" y="278.73" width="5.04" height="0.24"/><rect x="206.16" y="278.73" width="4.56" height="0.24"/><rect x="272.64" y="278.73" width="4.56" height="0.24"/><rect x="82.8" y="278.97" width="3.84" height="0.24"/><rect x="205.2" y="278.97" width="4.08" height="0.24"/><rect x="273.6" y="278.97" width="5.04" height="0.24"/><rect x="83.76" y="279.21" width="4.32" height="0.24"/><rect x="203.04" y="279.21" width="4.8" height="0.24"/><rect x="275.52" y="279.21" width="4.08" height="0.24"/><rect x="85.68" y="279.45" width="3.36" height="0.24"/><rect x="201.6" y="279.45" width="4.8" height="0.24"/><rect x="276.96" y="279.45" width="4.32" height="0.24"/><rect x="86.4" y="279.69" width="3.36" height="0.24"/><rect x="200.16" y="279.69" width="5.28" height="0.24"/><rect x="278.4" y="279.69" width="3.6" height="0.24"/><rect x="87.84" y="279.93" width="4.32" height="0.24"/><rect x="198.48" y="279.93" width="4.8" height="0.24"/><rect x="279.36" y="279.93" width="4.08" height="0.24"/><rect x="88.8" y="280.17" width="4.32" height="0.24"/><rect x="197.04" y="280.17" width="4.8" height="0.24"/><rect x="281.04" y="280.17" width="3.12" height="0.24"/><rect x="89.52" y="280.41" width="5.52" height="0.24"/><rect x="195.6" y="280.41" width="4.8" height="0.24"/><rect x="281.76" y="280.41" width="4.56" height="0.24"/><rect x="91.92" y="280.65" width="4.56" height="0.24"/><rect x="194.16" y="280.65" width="4.56" height="0.24"/><rect x="283.2" y="280.65" width="4.32" height="0.24"/><rect x="92.88" y="280.89" width="4.56" height="0.24"/><rect x="193.2" y="280.89" width="4.08" height="0.24"/><rect x="283.92" y="280.89" width="4.08" height="0.24"/><rect x="94.8" y="281.13" width="6" height="0.24"/><rect x="190.8" y="281.13" width="5.04" height="0.24"/><rect x="286.08" y="281.13" width="1.92" height="0.24"/><rect x="96.24" y="281.37" width="6" height="0.24"/><rect x="189.12" y="281.37" width="5.28" height="0.24"/><rect x="287.28" y="281.37" width="0.48" height="0.24"/><rect x="97.2" y="281.61" width="6.96" height="0.24"/><rect x="187.44" y="281.61" width="6" height="0.24"/><rect x="100.56" y="281.85" width="5.04" height="0.24"/><rect x="185.52" y="281.85" width="5.52" height="0.24"/><rect x="102" y="282.09" width="5.04" height="0.24"/><rect x="183.84" y="282.09" width="5.52" height="0.24"/><rect x="103.92" y="282.33" width="3.84" height="0.24"/><rect x="182.16" y="282.33" width="5.52" height="0.24"/><rect x="105.36" y="282.57" width="4.32" height="0.24"/><rect x="181.2" y="282.57" width="4.56" height="0.24"/><rect x="106.8" y="282.81" width="4.32" height="0.24"/><rect x="179.04" y="282.81" width="5.04" height="0.24"/><rect x="107.52" y="283.05" width="5.04" height="0.24"/><rect x="177.6" y="283.05" width="4.8" height="0.24"/><rect x="109.44" y="283.29" width="4.08" height="0.24"/><rect x="176.16" y="283.29" width="5.28" height="0.24"/><rect x="110.88" y="283.53" width="5.04" height="0.24"/><rect x="174.48" y="283.53" width="4.8" height="0.24"/><rect x="112.32" y="283.77" width="5.04" height="0.24"/><rect x="173.04" y="283.77" width="4.8" height="0.24"/><rect x="113.28" y="284.01" width="5.76" height="0.24"/><rect x="171.6" y="284.01" width="4.8" height="0.24"/><rect x="115.68" y="284.25" width="4.32" height="0.24"/><rect x="170.16" y="284.25" width="4.56" height="0.24"/><rect x="117.12" y="284.49" width="5.04" height="0.24"/><rect x="169.2" y="284.49" width="4.08" height="0.24"/><rect x="118.8" y="284.73" width="5.04" height="0.24"/><rect x="166.8" y="284.73" width="5.04" height="0.24"/><rect x="119.76" y="284.97" width="5.52" height="0.24"/><rect x="165.12" y="284.97" width="5.28" height="0.24"/><rect x="121.92" y="285.21" width="4.32" height="0.24"/><rect x="163.44" y="285.21" width="6" height="0.24"/><rect x="123.6" y="285.45" width="5.76" height="0.24"/><rect x="161.52" y="285.45" width="5.52" height="0.24"/><rect x="125.04" y="285.69" width="6.48" height="0.24"/><rect x="159.84" y="285.69" width="5.52" height="0.24"/><rect x="126" y="285.93" width="6.72" height="0.24"/><rect x="158.16" y="285.93" width="5.52" height="0.24"/><rect x="129.12" y="286.17" width="6.72" height="0.24"/><rect x="157.2" y="286.17" width="4.56" height="0.24"/><rect x="131.28" y="286.41" width="6.72" height="0.24"/><rect x="152.88" y="286.41" width="7.2" height="0.24"/><rect x="132.48" y="286.65" width="6.72" height="0.24"/><rect x="151.2" y="286.65" width="7.2" height="0.24"/><rect x="135.6" y="286.89" width="21.84" height="0.24"/><rect x="137.76" y="287.13" width="15.36" height="0.24"/><rect x="139.2" y="287.37" width="12.24" height="0.24"/><line class="cls-5" x1="19.2" y1="365.01" x2="19.2" y2="312.21"/><polygon class="cls-6" points="23.28 312.69 19.2 305.01 15.36 312.69 23.28 312.69 23.28 312.69"/><line class="cls-5" x1="19.2" y1="143.01" x2="19.2" y2="201.81"/><polygon class="cls-6" points="15.12 201.33 19.2 209.01 23.04 201.33 15.12 201.33 15.12 201.33"/><text class="cls-7" transform="translate(1.43 337.65)">z</text><text class="cls-7" transform="translate(0 175.66)">p</text><text class="cls-8" transform="translate(170.64 98.13)">ω</text><text class="cls-9" transform="translate(187.2 98.13)">=0</text><line class="cls-5" x1="289.2" y1="245.01" x2="385.2" y2="245.01"/><rect x="247.44" y="238.65" width="38.16" height="0.24"/><rect x="205.44" y="238.89" width="84" height="0.24"/><rect x="199.68" y="239.13" width="89.76" height="0.24"/><rect x="195.6" y="239.37" width="52.08" height="0.24"/><rect x="285.36" y="239.37" width="3.84" height="0.24"/><rect x="193.44" y="239.61" width="12.24" height="0.24"/><rect x="189.12" y="239.85" width="10.8" height="0.24"/><rect x="186" y="240.09" width="9.84" height="0.24"/><rect x="183.12" y="240.33" width="10.56" height="0.24"/><rect x="181.44" y="240.57" width="7.92" height="0.24"/><rect x="177.84" y="240.81" width="8.4" height="0.24"/><rect x="175.44" y="241.05" width="7.92" height="0.24"/><rect x="173.04" y="241.29" width="8.64" height="0.24"/><rect x="170.64" y="241.53" width="7.44" height="0.24"/><rect x="169.2" y="241.77" width="6.48" height="0.24"/><rect x="166.56" y="242.01" width="6.72" height="0.24"/><rect x="164.64" y="242.25" width="6.24" height="0.24"/><rect x="162.96" y="242.49" width="6.48" height="0.24"/><rect x="161.04" y="242.73" width="5.76" height="0.24"/><rect x="159.12" y="242.97" width="5.76" height="0.24"/><rect x="157.44" y="243.21" width="5.76" height="0.24"/><rect x="155.52" y="243.45" width="5.76" height="0.24"/><rect x="153.6" y="243.69" width="5.76" height="0.24"/><rect x="151.68" y="243.93" width="6" height="0.24"/><rect x="150" y="244.17" width="5.76" height="0.24"/><rect x="148.08" y="244.41" width="5.76" height="0.24"/><rect x="146.16" y="244.65" width="5.76" height="0.24"/><rect x="145.2" y="244.89" width="5.04" height="0.24"/><rect x="142.32" y="245.13" width="6" height="0.24"/><rect x="140.4" y="245.37" width="6" height="0.24"/><rect x="138.24" y="245.61" width="7.2" height="0.24"/><rect x="136.32" y="245.85" width="6.24" height="0.24"/><rect x="134.4" y="246.09" width="6.24" height="0.24"/><rect x="133.2" y="246.33" width="5.28" height="0.24"/><rect x="130.32" y="246.57" width="6.24" height="0.24"/><rect x="128.4" y="246.81" width="6.24" height="0.24"/><rect x="126.24" y="247.05" width="7.2" height="0.24"/><rect x="124.32" y="247.29" width="6.24" height="0.24"/><rect x="122.4" y="247.53" width="6.24" height="0.24"/><rect x="121.2" y="247.77" width="5.28" height="0.24"/><rect x="118.8" y="248.01" width="5.76" height="0.24"/><rect x="117.12" y="248.25" width="5.52" height="0.24"/><rect x="115.44" y="248.49" width="6" height="0.24"/><rect x="113.52" y="248.73" width="5.52" height="0.24"/><rect x="111.84" y="248.97" width="5.52" height="0.24"/><rect x="110.16" y="249.21" width="5.52" height="0.24"/><rect x="109.2" y="249.45" width="4.56" height="0.24"/><rect x="105.84" y="249.69" width="6.24" height="0.24"/><rect x="103.44" y="249.93" width="6.96" height="0.24"/><rect x="101.04" y="250.17" width="8.4" height="0.24"/><rect x="98.64" y="250.41" width="7.44" height="0.24"/><rect x="97.2" y="250.65" width="6.48" height="0.24"/><rect x="49.44" y="250.89" width="14.64" height="0.24"/><rect x="84" y="250.89" width="17.28" height="0.24"/><rect x="49.2" y="251.13" width="49.68" height="0.24"/><rect x="49.44" y="251.37" width="48" height="0.24"/><rect x="63.84" y="251.61" width="20.4" height="0.24"/><line class="cls-5" x1="169.2" y1="347.01" x2="169.2" y2="336.21"/><polygon class="cls-6" points="173.28 336.69 169.2 329.01 165.36 336.69 173.28 336.69 173.28 336.69"/><line class="cls-5" x1="169.2" y1="173.01" x2="169.2" y2="183.81"/><polygon class="cls-6" points="165.12 183.33 169.2 191.01 173.04 183.33 165.12 183.33 165.12 183.33"/><rect x="217.2" y="93.21" width="0.24" height="0.24"/><rect x="216.96" y="93.45" width="1.2" height="0.24"/><rect x="217.2" y="93.69" width="1.44" height="0.24"/><rect x="217.2" y="93.93" width="2.64" height="0.24"/><rect x="217.92" y="94.17" width="2.4" height="0.24"/><rect x="218.4" y="94.41" width="3.36" height="0.24"/><rect x="219.6" y="94.65" width="2.88" height="0.24"/><rect x="220.08" y="94.89" width="3.36" height="0.24"/><rect x="221.52" y="95.13" width="2.64" height="0.24"/><rect x="222.24" y="95.37" width="2.4" height="0.24"/><rect x="223.2" y="95.61" width="2.4" height="0.24"/><rect x="223.92" y="95.85" width="2.4" height="0.24"/><rect x="224.4" y="96.09" width="2.4" height="0.24"/><rect x="225.36" y="96.33" width="2.16" height="0.24"/><rect x="226.08" y="96.57" width="2.16" height="0.24"/><rect x="226.56" y="96.81" width="2.4" height="0.24"/><rect x="227.28" y="97.05" width="2.16" height="0.24"/><rect x="228" y="97.29" width="1.92" height="0.24"/><rect x="228.72" y="97.53" width="1.68" height="0.24"/><rect x="229.2" y="97.77" width="1.68" height="0.24"/><rect x="229.68" y="98.01" width="1.68" height="0.24"/><rect x="230.16" y="98.25" width="1.68" height="0.24"/><rect x="230.64" y="98.49" width="1.44" height="0.24"/><rect x="231.12" y="98.73" width="1.44" height="0.24"/><rect x="231.6" y="98.97" width="1.44" height="0.24"/><rect x="231.84" y="99.21" width="1.44" height="0.24"/><rect x="232.32" y="99.45" width="1.2" height="0.24"/><rect x="232.8" y="99.69" width="0.96" height="0.24"/><rect x="233.04" y="99.93" width="0.96" height="0.24"/><rect x="233.28" y="100.17" width="0.96" height="0.24"/><rect x="233.52" y="100.41" width="0.96" height="0.24"/><rect x="233.76" y="100.65" width="0.96" height="0.24"/><rect x="234" y="100.89" width="0.96" height="0.24"/><rect x="234.24" y="101.13" width="0.96" height="0.24"/><rect x="234.48" y="101.37" width="0.72" height="0.24"/><rect x="234.48" y="101.61" width="0.96" height="0.24"/><rect x="234.72" y="101.85" width="0.96" height="0.24"/><rect x="234.96" y="102.09" width="0.96" height="0.24"/><rect x="235.2" y="102.33" width="0.72" height="0.24"/><rect x="235.2" y="102.57" width="0.96" height="0.24"/><rect x="235.44" y="102.81" width="0.96" height="0.24"/><rect x="235.68" y="103.05" width="0.72" height="0.24"/><rect x="235.68" y="103.29" width="0.96" height="0.24"/><rect x="235.92" y="103.53" width="0.72" height="0.24"/><rect x="235.92" y="103.77" width="0.96" height="0.24"/><rect x="236.16" y="104.01" width="0.72" height="0.24"/><rect x="236.16" y="104.25" width="0.96" height="0.24"/><rect x="236.4" y="104.49" width="0.96" height="0.24"/><rect x="236.64" y="104.73" width="0.72" height="0.24"/><rect x="236.64" y="104.97" width="0.96" height="0.24"/><rect x="236.88" y="105.21" width="0.72" height="0.24"/><rect x="236.88" y="105.45" width="0.96" height="0.24"/><rect x="237.12" y="105.69" width="0.72" height="0.24"/><rect x="237.12" y="105.93" width="0.96" height="0.24"/><rect x="237.36" y="106.17" width="0.72" height="0.24"/><rect x="237.36" y="106.41" width="0.72" height="0.24"/><polygon class="cls-6" points="234.24 107.73 241.2 113.01 241.44 104.37 234.24 107.73 234.24 107.73"/><rect x="165.36" y="402.33" width="0.72" height="0.24"/><rect x="165.36" y="402.57" width="0.72" height="0.24"/><rect x="165.36" y="402.81" width="0.96" height="0.24"/><rect x="165.6" y="403.05" width="0.72" height="0.24"/><rect x="165.6" y="403.29" width="0.72" height="0.24"/><rect x="165.6" y="403.53" width="0.72" height="0.24"/><rect x="165.6" y="403.77" width="0.96" height="0.24"/><rect x="165.84" y="404.01" width="0.72" height="0.24"/><rect x="165.84" y="404.25" width="0.72" height="0.24"/><rect x="165.84" y="404.49" width="0.72" height="0.24"/><rect x="165.84" y="404.73" width="0.96" height="0.24"/><rect x="166.08" y="404.97" width="0.72" height="0.24"/><rect x="166.08" y="405.21" width="0.72" height="0.24"/><rect x="166.08" y="405.45" width="0.72" height="0.24"/><rect x="166.08" y="405.69" width="0.96" height="0.24"/><rect x="166.32" y="405.93" width="0.72" height="0.24"/><rect x="166.32" y="406.17" width="0.72" height="0.24"/><rect x="166.32" y="406.41" width="0.96" height="0.24"/><rect x="166.56" y="406.65" width="0.72" height="0.24"/><rect x="166.56" y="406.89" width="0.96" height="0.24"/><rect x="166.8" y="407.13" width="0.72" height="0.24"/><rect x="166.8" y="407.37" width="0.72" height="0.24"/><rect x="166.8" y="407.61" width="0.96" height="0.24"/><rect x="167.04" y="407.85" width="0.72" height="0.24"/><rect x="167.04" y="408.09" width="0.96" height="0.24"/><rect x="167.28" y="408.33" width="0.72" height="0.24"/><rect x="167.28" y="408.57" width="0.72" height="0.24"/><rect x="167.28" y="408.81" width="0.96" height="0.24"/><rect x="167.52" y="409.05" width="0.72" height="0.24"/><rect x="167.52" y="409.29" width="0.96" height="0.24"/><rect x="167.76" y="409.53" width="0.72" height="0.24"/><rect x="167.76" y="409.77" width="0.96" height="0.24"/><rect x="168" y="410.01" width="0.72" height="0.24"/><rect x="168" y="410.25" width="0.96" height="0.24"/><rect x="168.24" y="410.49" width="0.72" height="0.24"/><rect x="168.24" y="410.73" width="0.96" height="0.24"/><rect x="168.48" y="410.97" width="0.72" height="0.24"/><rect x="168.48" y="411.21" width="0.96" height="0.24"/><rect x="168.72" y="411.45" width="0.72" height="0.24"/><rect x="168.72" y="411.69" width="0.96" height="0.24"/><rect x="168.96" y="411.93" width="0.72" height="0.24"/><rect x="168.96" y="412.17" width="0.96" height="0.24"/><rect x="169.2" y="412.41" width="0.72" height="0.24"/><rect x="169.2" y="412.65" width="0.96" height="0.24"/><rect x="169.44" y="412.89" width="0.72" height="0.24"/><rect x="169.44" y="413.13" width="0.96" height="0.24"/><rect x="169.68" y="413.37" width="0.72" height="0.24"/><rect x="169.68" y="413.61" width="0.96" height="0.24"/><rect x="169.92" y="413.85" width="0.96" height="0.24"/><rect x="170.16" y="414.09" width="0.72" height="0.24"/><rect x="170.16" y="414.33" width="0.96" height="0.24"/><rect x="170.4" y="414.57" width="0.96" height="0.24"/><rect x="170.64" y="414.81" width="0.72" height="0.24"/><rect x="170.64" y="415.05" width="0.96" height="0.24"/><rect x="170.88" y="415.29" width="0.96" height="0.24"/><rect x="171.12" y="415.53" width="0.72" height="0.24"/><rect x="171.12" y="415.77" width="0.96" height="0.24"/><rect x="171.36" y="416.01" width="0.96" height="0.24"/><rect x="171.6" y="416.25" width="0.96" height="0.24"/><rect x="171.84" y="416.49" width="0.96" height="0.24"/><rect x="172.08" y="416.73" width="0.72" height="0.24"/><rect x="172.08" y="416.97" width="0.96" height="0.24"/><rect x="172.32" y="417.21" width="0.96" height="0.24"/><rect x="172.56" y="417.45" width="0.96" height="0.24"/><rect x="172.8" y="417.69" width="1.2" height="0.24"/><rect x="173.04" y="417.93" width="1.2" height="0.24"/><rect x="173.28" y="418.17" width="1.2" height="0.24"/><rect x="173.76" y="418.41" width="1.2" height="0.24"/><rect x="174" y="418.65" width="1.2" height="0.24"/><rect x="174.24" y="418.89" width="1.2" height="0.24"/><rect x="174.72" y="419.13" width="1.2" height="0.24"/><rect x="174.96" y="419.37" width="1.44" height="0.24"/><rect x="175.2" y="419.61" width="1.68" height="0.24"/><rect x="175.68" y="419.85" width="1.68" height="0.24"/><rect x="176.16" y="420.09" width="1.68" height="0.24"/><rect x="176.64" y="420.33" width="1.68" height="0.24"/><rect x="177.12" y="420.57" width="1.68" height="0.24"/><rect x="177.6" y="420.81" width="1.68" height="0.24"/><rect x="178.08" y="421.05" width="1.68" height="0.24"/><rect x="178.56" y="421.29" width="1.44" height="0.24"/><rect x="179.04" y="421.53" width="1.44" height="0.24"/><rect x="179.52" y="421.77" width="1.44" height="0.24"/><rect x="178.76" y="422.01" width="1.68" height="0.24"/><rect x="179.24" y="422.25" width="1.68" height="0.24"/><rect x="179.72" y="422.49" width="1.44" height="0.24"/><rect x="180.2" y="422.73" width="1.92" height="0.24"/><rect x="180.68" y="422.97" width="2.16" height="0.24"/><rect x="180.92" y="423.21" width="2.4" height="0.24"/><rect x="181.88" y="423.45" width="1.92" height="0.24"/><rect x="182.6" y="423.69" width="1.68" height="0.24"/><rect x="183.08" y="423.93" width="1.68" height="0.24"/><rect x="183.56" y="424.17" width="1.44" height="0.24"/><rect x="184.04" y="424.41" width="1.44" height="0.24"/><rect x="184.52" y="424.65" width="1.44" height="0.24"/><rect x="184.76" y="424.89" width="1.68" height="0.24"/><rect x="185.24" y="425.13" width="1.2" height="0.24"/><rect x="185.72" y="425.37" width="0.48" height="0.24"/><polygon class="cls-6" points="169.68 400.77 163.2 395.01 162.24 403.65 169.68 400.77 169.68 400.77"/><text class="cls-8" transform="translate(148.8 186.69)">ω</text><text class="cls-7" transform="translate(147.36 346.77)">w</text><text class="cls-10" transform="translate(398.8 284.66)">z =<tspan class="cls-11" x="19.07" y="0">	</tspan><tspan x="48.92" y="0">0 m</tspan><tspan x="0" y="18">z =</tspan><tspan class="cls-12" x="19.07" y="18">	</tspan><tspan x="36.47" y="18">-50 m</tspan><tspan x="0" y="36.8">z = </tspan><tspan class="cls-13" x="22.96" y="36.8">	</tspan><tspan x="28.69" y="36.8">-100 m</tspan><tspan class="cls-14" x="72.26" y="36.8">	</tspan><tspan x="0" y="59.8">z = </tspan><tspan class="cls-13" x="22.96" y="59.8">	</tspan><tspan x="28.69" y="59.8">-175 m</tspan><tspan x="0" y="90.8">z = </tspan><tspan class="cls-13" x="22.96" y="90.8">	</tspan><tspan x="28.69" y="90.8">-275 m</tspan><tspan x="0" y="126.8">z = </tspan><tspan class="cls-13" x="22.96" y="126.8">	</tspan><tspan x="28.69" y="126.8">-400 m</tspan></text><text x="-66.2" y="-174.07"></text><text class="cls-10" transform="translate(398.47 122.99)">p =<tspan class="cls-15" x="19.85" y="0">	</tspan><tspan x="48.88" y="0">0 mb</tspan><tspan x="0" y="30">p =</tspan><tspan class="cls-16" x="19.85" y="30">	</tspan><tspan x="33.3" y="30">150 mb</tspan><tspan x="0" y="58">p = </tspan><tspan class="cls-17" x="23.74" y="58">	</tspan><tspan x="33.3" y="58">350 mb</tspan><tspan class="cls-18" x="80" y="58">	</tspan><tspan x="0" y="89">p = </tspan><tspan class="cls-17" x="23.74" y="89">	</tspan><tspan x="33.3" y="89">650 mb</tspan><tspan x="0" y="107">p = </tspan><tspan class="cls-17" x="23.74" y="107">	</tspan><tspan x="33.3" y="107">900 mb</tspan><tspan x="0" y="125">p = </tspan><tspan class="cls-19" x="23.74" y="125">	</tspan><tspan x="25.52" y="125">1000 mb</tspan></text><text class="cls-20" transform="translate(190.2 435.46)">w=0</text></svg>