<svg id="Layer_1" data-name="Layer 1" xmlns="http://www.w3.org/2000/svg" xmlns:xlink="http://www.w3.org/1999/xlink" viewBox="0 0 480.85 394.48"><defs><style>.cls-1,.cls-11,.cls-3,.cls-7,.cls-9{fill:none;}.cls-1{clip-rule:evenodd;}.cls-2{clip-path:url(#clip-path);}.cls-11,.cls-3,.cls-4,.cls-7,.cls-8,.cls-9{stroke:#000;stroke-miterlimit:10;}.cls-11,.cls-3,.cls-4{stroke-width:0.92px;}.cls-4,.cls-8{fill-rule:evenodd;}.cls-5{clip-path:url(#clip-path-2);}.cls-6{clip-path:url(#clip-path-3);}.cls-7,.cls-8,.cls-9{stroke-width:0.46px;}.cls-7{stroke-dasharray:3.67 1.84 0.92 1.84;}.cls-8{fill:#fff;}.cls-10{clip-path:url(#clip-path-4);}.cls-11{stroke-dasharray:5.51;}.cls-12{clip-path:url(#clip-path-5);}.cls-13{clip-path:url(#clip-path-6);}.cls-14{clip-path:url(#clip-path-7);}.cls-15{clip-path:url(#clip-path-8);}.cls-16{clip-path:url(#clip-path-9);}.cls-17{clip-path:url(#clip-path-10);}.cls-18{clip-path:url(#clip-path-11);}.cls-19{clip-path:url(#clip-path-12);}</style><clipPath id="clip-path" transform="translate(-40.32 -198.37)"><path class="cls-1" d="M39,196.78v397H522v-397ZM355.13,501.34l-3.86-6.24-15,9.24,14.44-4.59-10.59,10.83Z"/></clipPath><clipPath id="clip-path-2" transform="translate(-40.32 -198.37)"><path class="cls-1" d="M39,196.78v397H522v-397ZM428.57,331.51l-3.86-6.24-15,9.24,14.44-4.59-10.59,10.83Z"/></clipPath><clipPath id="clip-path-3" transform="translate(-40.32 -198.37)"><path class="cls-1" d="M39,196.78v397H522v-397ZM285.61,315.11l-3.24-1.71-5.26,10,5.94-7.22-2.69,8.94Z"/></clipPath><clipPath id="clip-path-4" transform="translate(-40.32 -198.37)"><path class="cls-1" d="M39,196.78v397H522v-397ZM481.88,227v-7.34H464.31L479,223.31,464.31,227Z"/></clipPath><clipPath id="clip-path-5" transform="translate(-40.32 -198.37)"><path class="cls-1" d="M39,196.78v397H522v-397ZM279.92,465.66v-7.34H262.35L277,462l-14.69,3.67Z"/></clipPath><clipPath id="clip-path-6" transform="translate(-40.32 -198.37)"><path class="cls-1" d="M39,196.78v397H522v-397ZM295.52,513.39h3.67v-9.3l-1.84,7.34-1.84-7.34Z"/></clipPath><clipPath id="clip-path-7" transform="translate(-40.32 -198.37)"><path class="cls-1" d="M39,196.78v397H522v-397Zm314.36,99.05v-7.34H335.79l14.69,3.67-14.69,3.67Z"/></clipPath><clipPath id="clip-path-8" transform="translate(-40.32 -198.37)"><path class="cls-1" d="M39,196.78v397H522v-397ZM442.4,389.46h3.67v-9.3l-1.84,7.34-1.84-7.34Z"/></clipPath><clipPath id="clip-path-9" transform="translate(-40.32 -198.37)"><path class="cls-1" d="M39,196.78v397H522v-397ZM369,343.56h3.67v-9.3l-1.84,7.34L369,334.26Z"/></clipPath><clipPath id="clip-path-10" transform="translate(-40.32 -198.37)"><path class="cls-1" d="M39,196.78v397H522v-397ZM369,563.88h3.67v-9.3l-1.84,7.34L369,554.58Z"/></clipPath><clipPath id="clip-path-11" transform="translate(-40.32 -198.37)"><path class="cls-1" d="M39,196.78v397H522v-397ZM295.52,440h3.67v-9.3L297.36,438l-1.84-7.34Z"/></clipPath><clipPath id="clip-path-12" transform="translate(-40.32 -198.37)"><path class="cls-1" d="M39,196.78v397H522v-397Zm256.52,188.1h3.67v-9.3l-1.84,7.34-1.84-7.34Z"/></clipPath></defs><title>adams-bashforth-staggered</title><path d="M365.79,539.54a2,2,0,0,0,1-.32,1.88,1.88,0,0,0,.52-1l2.25-8.23c.07-.23.12-.43.15-.59a2.07,2.07,0,0,0,0-.42q0-.47-.26-.59a3.92,3.92,0,0,0-1.08-.19v-.48h5.82v.48a3.48,3.48,0,0,0-1.29.3,1.7,1.7,0,0,0-.56,1L370,538.29c0,.1,0,.19-.06.27a1.66,1.66,0,0,0,0,.3.45.45,0,0,0,.27.44,1.75,1.75,0,0,0,.75.13,7.64,7.64,0,0,0,3.27-.65,5.8,5.8,0,0,0,2.43-2.41l.44.08L376,540H365.79Z" transform="translate(-40.32 -198.37)"/><path d="M375.83,522h7.42v1h-7.42Z" transform="translate(-40.32 -198.37)"/><path d="M388.05,516.44a.71.71,0,0,1,0,.08v8.63q0,.55.3.7a3,3,0,0,0,1.1.18v.2H385.4V526a2.36,2.36,0,0,0,1.13-.24q.27-.19.27-.84v-6.64a1.25,1.25,0,0,0-.09-.52.37.37,0,0,0-.37-.18,1.55,1.55,0,0,0-.48.1l-.56.22v-.2l2.63-1.34H388Z" transform="translate(-40.32 -198.37)"/><path d="M153,330.22a3.63,3.63,0,0,1-1.27,1l-.15-.32a2.75,2.75,0,0,0,1.07-.94,1.8,1.8,0,0,0,.29-.85.14.14,0,0,0-.07-.15.37.37,0,0,0-.15,0l-.54.06a1,1,0,0,1-.62-.22.77.77,0,0,1-.28-.64,1,1,0,0,1,.23-.63.9.9,0,0,1,.77-.31,1.26,1.26,0,0,1,.91.4,1.49,1.49,0,0,1,.4,1.11A2.32,2.32,0,0,1,153,330.22Z" transform="translate(-40.32 -198.37)"/><path d="M154.75,325.54a6,6,0,0,0,1,1.77,3.08,3.08,0,0,0,2.44,1.15,2,2,0,0,0,1.37-.5,1.75,1.75,0,0,0,.58-1.4,2,2,0,0,0-.58-1.4,10.23,10.23,0,0,0-1.59-1.14l-1.41-.88a5.06,5.06,0,0,1-1-.81,2.53,2.53,0,0,1-.7-1.73,2.82,2.82,0,0,1,.83-2.08,3,3,0,0,1,2.2-.83,4.24,4.24,0,0,1,1.36.28,5.79,5.79,0,0,0,.91.28.52.52,0,0,0,.42-.15,1,1,0,0,0,.18-.41h.34l.36,3.52H161a3.71,3.71,0,0,0-1.29-2.22,3.05,3.05,0,0,0-1.76-.63,1.85,1.85,0,0,0-1.18.4,1.34,1.34,0,0,0-.5,1.11,1.62,1.62,0,0,0,.39,1.09,5,5,0,0,0,1.2,1l1.45.9a7.54,7.54,0,0,1,1.92,1.54,2.66,2.66,0,0,1,.55,1.68,2.79,2.79,0,0,1-1,2.17,3.63,3.63,0,0,1-2.51.87,4.87,4.87,0,0,1-1.6-.29,6.1,6.1,0,0,0-1-.29.41.41,0,0,0-.39.18,1.11,1.11,0,0,0-.13.38h-.36l-.49-3.52Z" transform="translate(-40.32 -198.37)"/><path d="M145.63,317.75a2.93,2.93,0,0,1,2.61,1.41,7.46,7.46,0,0,1,.91,4,8.57,8.57,0,0,1-.9,4.35,2.86,2.86,0,0,1-2.6,1.51,3,3,0,0,1-2.69-1.44,8.22,8.22,0,0,1-.9-4.3,7.59,7.59,0,0,1,.94-4.11A3,3,0,0,1,145.63,317.75Zm1.9,5q0-.11,0-.31t0-.29a7.44,7.44,0,0,0-.46-3,1.52,1.52,0,0,0-1.45-1,1.57,1.57,0,0,0-1.5,1.08,9.7,9.7,0,0,0-.5,3.51Zm-3.9.58v.38a11.42,11.42,0,0,0,.45,3.85,1.55,1.55,0,0,0,1.51,1.1,1.52,1.52,0,0,0,1.51-1.08,13.79,13.79,0,0,0,.42-4.26Z" transform="translate(-40.32 -198.37)"/><path d="M299.9,330.22a3.63,3.63,0,0,1-1.27,1l-.15-.32a2.75,2.75,0,0,0,1.07-.94,1.8,1.8,0,0,0,.29-.85.14.14,0,0,0-.07-.15.37.37,0,0,0-.15,0l-.54.06a1,1,0,0,1-.62-.22.77.77,0,0,1-.28-.64,1,1,0,0,1,.23-.63.9.9,0,0,1,.77-.31,1.26,1.26,0,0,1,.91.4,1.49,1.49,0,0,1,.4,1.11A2.32,2.32,0,0,1,299.9,330.22Z" transform="translate(-40.32 -198.37)"/><path d="M301.64,325.54a6,6,0,0,0,1,1.77,3.08,3.08,0,0,0,2.44,1.15,2,2,0,0,0,1.37-.5,1.75,1.75,0,0,0,.58-1.4,2,2,0,0,0-.58-1.4,10.2,10.2,0,0,0-1.59-1.14l-1.41-.88a5.08,5.08,0,0,1-1-.81,2.53,2.53,0,0,1-.7-1.73,2.82,2.82,0,0,1,.83-2.08,3,3,0,0,1,2.2-.83,4.23,4.23,0,0,1,1.36.28,5.82,5.82,0,0,0,.91.28.52.52,0,0,0,.42-.15,1.06,1.06,0,0,0,.18-.41h.34l.36,3.52h-.4a3.71,3.71,0,0,0-1.29-2.22,3.05,3.05,0,0,0-1.76-.63,1.85,1.85,0,0,0-1.18.4,1.34,1.34,0,0,0-.5,1.11,1.62,1.62,0,0,0,.39,1.09,5,5,0,0,0,1.2,1l1.45.9a7.53,7.53,0,0,1,1.92,1.54,2.66,2.66,0,0,1,.55,1.68,2.78,2.78,0,0,1-1,2.17,3.63,3.63,0,0,1-2.5.87,4.87,4.87,0,0,1-1.6-.29,6.09,6.09,0,0,0-1-.29.41.41,0,0,0-.39.18,1.11,1.11,0,0,0-.13.38h-.36l-.49-3.52Z" transform="translate(-40.32 -198.37)"/><path d="M292.51,317.75a2.92,2.92,0,0,1,2.61,1.41,7.45,7.45,0,0,1,.91,4,8.58,8.58,0,0,1-.9,4.35,2.86,2.86,0,0,1-2.6,1.51,3,3,0,0,1-2.69-1.44,8.23,8.23,0,0,1-.9-4.3,7.6,7.6,0,0,1,.94-4.11A3,3,0,0,1,292.51,317.75Zm1.9,5q0-.11,0-.31c0-.13,0-.23,0-.29a7.44,7.44,0,0,0-.46-3,1.52,1.52,0,0,0-1.45-1,1.57,1.57,0,0,0-1.5,1.08,9.7,9.7,0,0,0-.5,3.51Zm-3.9.58v.38a11.45,11.45,0,0,0,.45,3.85,1.55,1.55,0,0,0,1.51,1.1,1.52,1.52,0,0,0,1.51-1.08,13.79,13.79,0,0,0,.42-4.26Z" transform="translate(-40.32 -198.37)"/><path d="M446.78,330.22a3.63,3.63,0,0,1-1.27,1l-.15-.32a2.75,2.75,0,0,0,1.07-.94,1.8,1.8,0,0,0,.29-.85.14.14,0,0,0-.07-.15.37.37,0,0,0-.15,0L446,329a1,1,0,0,1-.62-.22.77.77,0,0,1-.28-.64,1,1,0,0,1,.23-.63.9.9,0,0,1,.77-.31,1.26,1.26,0,0,1,.91.4,1.49,1.49,0,0,1,.4,1.11A2.32,2.32,0,0,1,446.78,330.22Z" transform="translate(-40.32 -198.37)"/><path d="M448.51,325.54a6,6,0,0,0,1,1.77,3.08,3.08,0,0,0,2.44,1.15,2,2,0,0,0,1.37-.5,1.75,1.75,0,0,0,.58-1.4,2,2,0,0,0-.58-1.4A10.2,10.2,0,0,0,451.7,324l-1.41-.88a5.08,5.08,0,0,1-1-.81,2.53,2.53,0,0,1-.7-1.73,2.82,2.82,0,0,1,.83-2.08,3,3,0,0,1,2.2-.83A4.23,4.23,0,0,1,453,318a5.82,5.82,0,0,0,.91.28.52.52,0,0,0,.42-.15,1.06,1.06,0,0,0,.18-.41h.34l.36,3.52h-.4a3.71,3.71,0,0,0-1.29-2.22,3.05,3.05,0,0,0-1.76-.63,1.85,1.85,0,0,0-1.18.4,1.34,1.34,0,0,0-.5,1.11,1.62,1.62,0,0,0,.39,1.09,5,5,0,0,0,1.2,1l1.45.9a7.53,7.53,0,0,1,1.92,1.54,2.66,2.66,0,0,1,.55,1.68,2.78,2.78,0,0,1-1,2.17,3.63,3.63,0,0,1-2.5.87,4.87,4.87,0,0,1-1.6-.29,6.09,6.09,0,0,0-1-.29.41.41,0,0,0-.39.18,1.11,1.11,0,0,0-.13.38h-.36l-.49-3.52Z" transform="translate(-40.32 -198.37)"/><path d="M439.39,317.75a2.92,2.92,0,0,1,2.61,1.41,7.45,7.45,0,0,1,.91,4,8.58,8.58,0,0,1-.9,4.35,2.86,2.86,0,0,1-2.6,1.51,3,3,0,0,1-2.69-1.44,8.23,8.23,0,0,1-.9-4.3,7.6,7.6,0,0,1,.94-4.11A3,3,0,0,1,439.39,317.75Zm1.9,5q0-.11,0-.31c0-.13,0-.23,0-.29a7.44,7.44,0,0,0-.46-3,1.52,1.52,0,0,0-1.45-1,1.57,1.57,0,0,0-1.5,1.08,9.7,9.7,0,0,0-.5,3.51Zm-3.9.58v.38a11.45,11.45,0,0,0,.45,3.85,1.55,1.55,0,0,0,1.51,1.1,1.52,1.52,0,0,0,1.51-1.08,13.79,13.79,0,0,0,.42-4.26Z" transform="translate(-40.32 -198.37)"/><path d="M439.23,369.71a2,2,0,0,0,1-.32,1.88,1.88,0,0,0,.52-1l2.25-8.23c.07-.23.12-.43.15-.59a2.06,2.06,0,0,0,0-.42q0-.47-.26-.59a3.9,3.9,0,0,0-1.08-.19v-.48h5.82v.48a3.47,3.47,0,0,0-1.29.3,1.7,1.7,0,0,0-.56,1l-2.39,8.76c0,.1,0,.19-.06.27a1.66,1.66,0,0,0,0,.3.45.45,0,0,0,.27.44,1.76,1.76,0,0,0,.75.13,7.64,7.64,0,0,0,3.27-.65,5.8,5.8,0,0,0,2.43-2.41l.44.08-1.08,3.57H439.23Z" transform="translate(-40.32 -198.37)"/><path d="M449.27,352.21h7.42v1h-7.42Z" transform="translate(-40.32 -198.37)"/><path d="M461.49,346.62a.68.68,0,0,1,0,.08v8.63q0,.55.3.7a3,3,0,0,0,1.1.18v.2h-4.05v-.22A2.37,2.37,0,0,0,460,356a1,1,0,0,0,.27-.84v-6.64a1.25,1.25,0,0,0-.09-.52.37.37,0,0,0-.37-.18,1.55,1.55,0,0,0-.48.1l-.56.22v-.2l2.63-1.34h.09Z" transform="translate(-40.32 -198.37)"/><path d="M158.92,296a2.6,2.6,0,0,1,2.32,1.25,6.63,6.63,0,0,1,.81,3.6,7.62,7.62,0,0,1-.8,3.87,2.54,2.54,0,0,1-2.31,1.34,2.64,2.64,0,0,1-2.39-1.28,7.31,7.31,0,0,1-.8-3.82,6.75,6.75,0,0,1,.84-3.65A2.64,2.64,0,0,1,158.92,296Zm1.69,4.43c0-.07,0-.16,0-.28s0-.2,0-.25a6.61,6.61,0,0,0-.41-2.7,1.35,1.35,0,0,0-1.29-.85,1.4,1.4,0,0,0-1.34,1,8.62,8.62,0,0,0-.44,3.12Zm-3.46.52v.34a10.17,10.17,0,0,0,.4,3.42,1.38,1.38,0,0,0,1.34,1,1.35,1.35,0,0,0,1.34-1,12.25,12.25,0,0,0,.38-3.78Z" transform="translate(-40.32 -198.37)"/><path d="M163.35,308.11a5.41,5.41,0,0,0,1.21-1,1.5,1.5,0,0,0,.42-.94.32.32,0,0,0-.06-.23.29.29,0,0,0-.2-.05l-.21,0-.28,0a.83.83,0,0,1-.58-.2.69.69,0,0,1-.21-.53.74.74,0,0,1,.26-.59,1,1,0,0,1,.7-.22,1.14,1.14,0,0,1,.89.35,1.39,1.39,0,0,1,.32,1,2.37,2.37,0,0,1-.52,1.48,4.12,4.12,0,0,1-1.52,1.15Z" transform="translate(-40.32 -198.37)"/><path d="M165.2,303a5.3,5.3,0,0,0,.87,1.58,2.74,2.74,0,0,0,2.17,1,1.79,1.79,0,0,0,1.21-.44,1.56,1.56,0,0,0,.51-1.24,1.73,1.73,0,0,0-.52-1.25,9.09,9.09,0,0,0-1.42-1l-1.25-.78a4.5,4.5,0,0,1-.9-.72,2.25,2.25,0,0,1-.62-1.53,2.51,2.51,0,0,1,.74-1.85,2.65,2.65,0,0,1,2-.74,3.77,3.77,0,0,1,1.21.25,5.18,5.18,0,0,0,.81.25.46.46,0,0,0,.38-.13.93.93,0,0,0,.16-.37h.3l.32,3.13h-.35a3.3,3.3,0,0,0-1.15-2,2.71,2.71,0,0,0-1.57-.56,1.64,1.64,0,0,0-1.05.35,1.19,1.19,0,0,0-.45,1,1.44,1.44,0,0,0,.34,1,4.41,4.41,0,0,0,1.07.85l1.29.8a6.72,6.72,0,0,1,1.71,1.37,2.36,2.36,0,0,1,.49,1.49,2.47,2.47,0,0,1-.87,1.93,3.23,3.23,0,0,1-2.23.77,4.33,4.33,0,0,1-1.42-.26,5.37,5.37,0,0,0-.85-.26.36.36,0,0,0-.35.16,1,1,0,0,0-.12.34h-.32l-.44-3.13Z" transform="translate(-40.32 -198.37)"/><path d="M374.66,296a2.6,2.6,0,0,1,2.32,1.25,6.63,6.63,0,0,1,.81,3.6,7.62,7.62,0,0,1-.8,3.87,2.54,2.54,0,0,1-2.31,1.34,2.64,2.64,0,0,1-2.39-1.28,7.31,7.31,0,0,1-.8-3.82,6.75,6.75,0,0,1,.84-3.65A2.63,2.63,0,0,1,374.66,296Zm1.69,4.43c0-.07,0-.16,0-.28s0-.2,0-.25a6.62,6.62,0,0,0-.41-2.7,1.35,1.35,0,0,0-1.29-.85,1.4,1.4,0,0,0-1.34,1,8.64,8.64,0,0,0-.44,3.12Zm-3.46.52v.34a10.15,10.15,0,0,0,.4,3.42,1.38,1.38,0,0,0,1.34,1,1.35,1.35,0,0,0,1.34-1,12.25,12.25,0,0,0,.38-3.78Z" transform="translate(-40.32 -198.37)"/><path d="M379.09,308.11a5.39,5.39,0,0,0,1.21-1,1.5,1.5,0,0,0,.42-.94.32.32,0,0,0-.06-.23.3.3,0,0,0-.2-.05l-.21,0-.28,0a.82.82,0,0,1-.58-.2.69.69,0,0,1-.22-.53.74.74,0,0,1,.26-.59,1,1,0,0,1,.7-.22,1.14,1.14,0,0,1,.89.35,1.39,1.39,0,0,1,.32,1,2.37,2.37,0,0,1-.52,1.48,4.11,4.11,0,0,1-1.52,1.15Z" transform="translate(-40.32 -198.37)"/><path d="M380.93,303a5.32,5.32,0,0,0,.87,1.58,2.74,2.74,0,0,0,2.17,1,1.79,1.79,0,0,0,1.21-.44,1.56,1.56,0,0,0,.51-1.24,1.74,1.74,0,0,0-.51-1.25,9.13,9.13,0,0,0-1.42-1l-1.25-.78a4.49,4.49,0,0,1-.9-.72,2.25,2.25,0,0,1-.62-1.53,2.51,2.51,0,0,1,.74-1.85,2.64,2.64,0,0,1,2-.74,3.76,3.76,0,0,1,1.21.25,5.19,5.19,0,0,0,.81.25.46.46,0,0,0,.38-.13.93.93,0,0,0,.16-.37h.3l.32,3.13h-.35a3.3,3.3,0,0,0-1.15-2,2.71,2.71,0,0,0-1.57-.56,1.64,1.64,0,0,0-1.05.35,1.19,1.19,0,0,0-.45,1,1.44,1.44,0,0,0,.34,1,4.4,4.4,0,0,0,1.07.85l1.29.8a6.71,6.71,0,0,1,1.71,1.37,2.36,2.36,0,0,1,.49,1.49,2.48,2.48,0,0,1-.87,1.93,3.22,3.22,0,0,1-2.23.77,4.34,4.34,0,0,1-1.42-.26,5.32,5.32,0,0,0-.85-.26.36.36,0,0,0-.35.16,1,1,0,0,0-.12.34H381l-.44-3.13Z" transform="translate(-40.32 -198.37)"/><path d="M457.27,364.89a2.6,2.6,0,0,1,2.32,1.25,6.63,6.63,0,0,1,.81,3.6,7.62,7.62,0,0,1-.8,3.87,2.54,2.54,0,0,1-2.31,1.34,2.64,2.64,0,0,1-2.39-1.28,7.31,7.31,0,0,1-.8-3.82,6.75,6.75,0,0,1,.84-3.65A2.63,2.63,0,0,1,457.27,364.89Zm1.69,4.43c0-.07,0-.16,0-.28s0-.2,0-.25a6.62,6.62,0,0,0-.41-2.7,1.35,1.35,0,0,0-1.29-.85,1.4,1.4,0,0,0-1.34,1,8.64,8.64,0,0,0-.44,3.12Zm-3.46.52v.34a10.15,10.15,0,0,0,.4,3.42,1.38,1.38,0,0,0,1.34,1,1.35,1.35,0,0,0,1.34-1,12.25,12.25,0,0,0,.38-3.78Z" transform="translate(-40.32 -198.37)"/><path d="M461.71,377a5.39,5.39,0,0,0,1.21-1,1.5,1.5,0,0,0,.42-.94.32.32,0,0,0-.06-.23.3.3,0,0,0-.2-.05l-.21,0-.28,0a.82.82,0,0,1-.58-.2.69.69,0,0,1-.22-.53.74.74,0,0,1,.26-.59,1,1,0,0,1,.7-.22,1.14,1.14,0,0,1,.89.35,1.39,1.39,0,0,1,.32,1,2.37,2.37,0,0,1-.52,1.48,4.11,4.11,0,0,1-1.52,1.15Z" transform="translate(-40.32 -198.37)"/><path d="M463.55,371.82a5.32,5.32,0,0,0,.87,1.58,2.74,2.74,0,0,0,2.17,1,1.79,1.79,0,0,0,1.21-.44,1.56,1.56,0,0,0,.51-1.24,1.74,1.74,0,0,0-.51-1.25,9.13,9.13,0,0,0-1.42-1l-1.25-.78a4.49,4.49,0,0,1-.9-.72,2.25,2.25,0,0,1-.62-1.53,2.51,2.51,0,0,1,.74-1.85,2.64,2.64,0,0,1,2-.74,3.76,3.76,0,0,1,1.21.25,5.19,5.19,0,0,0,.81.25.46.46,0,0,0,.38-.13.93.93,0,0,0,.16-.37h.3l.32,3.13h-.35a3.3,3.3,0,0,0-1.15-2,2.71,2.71,0,0,0-1.57-.56,1.64,1.64,0,0,0-1.05.35,1.19,1.19,0,0,0-.45,1,1.44,1.44,0,0,0,.34,1,4.4,4.4,0,0,0,1.07.85l1.29.8a6.71,6.71,0,0,1,1.71,1.37,2.36,2.36,0,0,1,.49,1.49,2.48,2.48,0,0,1-.87,1.93,3.22,3.22,0,0,1-2.23.77,4.34,4.34,0,0,1-1.42-.26,5.32,5.32,0,0,0-.85-.26.36.36,0,0,0-.35.16,1,1,0,0,0-.12.34h-.32l-.44-3.13Z" transform="translate(-40.32 -198.37)"/><path d="M446.78,403.67a3.64,3.64,0,0,1-1.27,1l-.15-.32a2.74,2.74,0,0,0,1.07-.94,1.8,1.8,0,0,0,.29-.85.14.14,0,0,0-.07-.15.37.37,0,0,0-.15,0l-.54.06a1,1,0,0,1-.62-.22.77.77,0,0,1-.28-.64,1,1,0,0,1,.23-.63.9.9,0,0,1,.77-.31,1.26,1.26,0,0,1,.91.4,1.49,1.49,0,0,1,.4,1.11A2.32,2.32,0,0,1,446.78,403.67Z" transform="translate(-40.32 -198.37)"/><path d="M448.51,399a6,6,0,0,0,1,1.78,3.08,3.08,0,0,0,2.44,1.15,2,2,0,0,0,1.37-.5,1.75,1.75,0,0,0,.58-1.4,2,2,0,0,0-.58-1.4,10.2,10.2,0,0,0-1.59-1.14l-1.41-.88a5.1,5.1,0,0,1-1-.82,2.53,2.53,0,0,1-.7-1.73,2.82,2.82,0,0,1,.83-2.08,3,3,0,0,1,2.2-.83,4.23,4.23,0,0,1,1.36.28,5.82,5.82,0,0,0,.91.28.52.52,0,0,0,.42-.15,1.06,1.06,0,0,0,.18-.41h.34l.36,3.52h-.4a3.71,3.71,0,0,0-1.29-2.22,3.05,3.05,0,0,0-1.76-.63,1.85,1.85,0,0,0-1.18.4,1.34,1.34,0,0,0-.5,1.11,1.62,1.62,0,0,0,.39,1.09,5,5,0,0,0,1.2,1l1.45.9a7.55,7.55,0,0,1,1.92,1.54,2.66,2.66,0,0,1,.55,1.68,2.78,2.78,0,0,1-1,2.17,3.63,3.63,0,0,1-2.5.87,4.88,4.88,0,0,1-1.6-.29,6,6,0,0,0-1-.29.41.41,0,0,0-.39.18,1.12,1.12,0,0,0-.13.38h-.36l-.49-3.52Z" transform="translate(-40.32 -198.37)"/><path d="M439.39,391.2a2.92,2.92,0,0,1,2.61,1.41,7.45,7.45,0,0,1,.91,4A8.58,8.58,0,0,1,442,401a2.86,2.86,0,0,1-2.6,1.51,3,3,0,0,1-2.69-1.44,8.23,8.23,0,0,1-.9-4.3,7.59,7.59,0,0,1,.94-4.11A3,3,0,0,1,439.39,391.2Zm1.9,5q0-.11,0-.31c0-.13,0-.23,0-.29a7.44,7.44,0,0,0-.46-3,1.52,1.52,0,0,0-1.45-1,1.57,1.57,0,0,0-1.5,1.08,9.7,9.7,0,0,0-.5,3.51Zm-3.9.58v.38a11.45,11.45,0,0,0,.45,3.85,1.55,1.55,0,0,0,1.51,1.1,1.52,1.52,0,0,0,1.51-1.08,13.79,13.79,0,0,0,.42-4.26Z" transform="translate(-40.32 -198.37)"/><path d="M297,400.92a2.14,2.14,0,0,0-1.31.3,1.42,1.42,0,0,0-.31,1.07v.09a6.26,6.26,0,0,1,3.59,1,3.06,3.06,0,0,1,1.29,2.59,3,3,0,0,1-1.3,2.5,6.66,6.66,0,0,1-3.57,1.13v.18a1.31,1.31,0,0,0,.34,1,2.12,2.12,0,0,0,1.28.3v.33h-5v-.33a2.12,2.12,0,0,0,1.3-.31,1.38,1.38,0,0,0,.34-1.08v-.13a6.69,6.69,0,0,1-3.59-1.13,3,3,0,0,1-1.3-2.5,3.06,3.06,0,0,1,1.29-2.59,6.29,6.29,0,0,1,3.6-1v-.09a1.42,1.42,0,0,0-.31-1.08,2.2,2.2,0,0,0-1.32-.29v-.33h5Zm-3.34,1.87a3.33,3.33,0,0,0-2.22,1,3.2,3.2,0,0,0,2.22,5.49Zm1.72,0v6.44a3.15,3.15,0,0,0,2.2-.91,3.24,3.24,0,0,0-2.2-5.53Z" transform="translate(-40.32 -198.37)"/><path d="M302.08,415.88a1.25,1.25,0,0,0,.77-.29,1.74,1.74,0,0,0,.18-1V407.7a1.28,1.28,0,0,0-.1-.59q-.1-.19-.5-.19h-.15l-.17,0v-.26l.78-.23.64-.19.69-.21v4.45a4.67,4.67,0,0,1,.8-.76,2.37,2.37,0,0,1,1.36-.43,1.57,1.57,0,0,1,1.58,1,3.37,3.37,0,0,1,.23,1.36v2.93a1.83,1.83,0,0,0,.18,1,1.06,1.06,0,0,0,.72.3v.2H306v-.2a1.34,1.34,0,0,0,.8-.29,1.75,1.75,0,0,0,.18-1v-2.9a2.35,2.35,0,0,0-.23-1.13.91.91,0,0,0-.88-.43,1.76,1.76,0,0,0-1.08.4c-.35.27-.52.44-.52.52v3.54a1.68,1.68,0,0,0,.19,1,1.39,1.39,0,0,0,.8.29v.2h-3.16Z" transform="translate(-40.32 -198.37)"/><path d="M305.8,296a2.6,2.6,0,0,1,2.32,1.25,6.63,6.63,0,0,1,.81,3.6,7.62,7.62,0,0,1-.8,3.87,2.54,2.54,0,0,1-2.31,1.34,2.64,2.64,0,0,1-2.39-1.28,7.31,7.31,0,0,1-.8-3.82,6.75,6.75,0,0,1,.84-3.65A2.63,2.63,0,0,1,305.8,296Zm1.69,4.43c0-.07,0-.16,0-.28s0-.2,0-.25a6.62,6.62,0,0,0-.41-2.7,1.35,1.35,0,0,0-1.29-.85,1.4,1.4,0,0,0-1.34,1,8.64,8.64,0,0,0-.44,3.12ZM304,301v.34a10.15,10.15,0,0,0,.4,3.42,1.38,1.38,0,0,0,1.34,1,1.35,1.35,0,0,0,1.34-1,12.25,12.25,0,0,0,.38-3.78Z" transform="translate(-40.32 -198.37)"/><path d="M310.24,308.11a5.39,5.39,0,0,0,1.21-1,1.5,1.5,0,0,0,.42-.94.32.32,0,0,0-.06-.23.3.3,0,0,0-.2-.05l-.21,0-.28,0a.82.82,0,0,1-.58-.2.69.69,0,0,1-.22-.53.74.74,0,0,1,.26-.59,1,1,0,0,1,.7-.22,1.14,1.14,0,0,1,.89.35,1.39,1.39,0,0,1,.32,1,2.37,2.37,0,0,1-.52,1.48,4.11,4.11,0,0,1-1.52,1.15Z" transform="translate(-40.32 -198.37)"/><path d="M312.08,303a5.32,5.32,0,0,0,.87,1.58,2.74,2.74,0,0,0,2.17,1,1.79,1.79,0,0,0,1.21-.44,1.56,1.56,0,0,0,.51-1.24,1.74,1.74,0,0,0-.51-1.25,9.13,9.13,0,0,0-1.42-1l-1.25-.78a4.49,4.49,0,0,1-.9-.72,2.25,2.25,0,0,1-.62-1.53,2.51,2.51,0,0,1,.74-1.85,2.64,2.64,0,0,1,2-.74,3.76,3.76,0,0,1,1.21.25,5.19,5.19,0,0,0,.81.25.46.46,0,0,0,.38-.13.93.93,0,0,0,.16-.37h.3l.32,3.13h-.35a3.3,3.3,0,0,0-1.15-2,2.71,2.71,0,0,0-1.57-.56,1.64,1.64,0,0,0-1.05.35,1.19,1.19,0,0,0-.45,1,1.44,1.44,0,0,0,.34,1,4.4,4.4,0,0,0,1.07.85l1.29.8a6.71,6.71,0,0,1,1.71,1.37,2.36,2.36,0,0,1,.49,1.49,2.48,2.48,0,0,1-.87,1.93,3.22,3.22,0,0,1-2.23.77,4.34,4.34,0,0,1-1.42-.26,5.32,5.32,0,0,0-.85-.26.36.36,0,0,0-.35.16,1,1,0,0,0-.12.34h-.32l-.44-3.13Z" transform="translate(-40.32 -198.37)"/><g class="cls-2"><path class="cls-3" d="M242.24,498.68a91.8,91.8,0,0,0,110.24,0" transform="translate(-40.32 -198.37)"/></g><polygon class="cls-4" points="299.82 312.2 310.41 301.37 295.96 305.96 299.82 312.2 299.82 312.2"/><g class="cls-5"><path class="cls-3" d="M315.68,328.85a91.8,91.8,0,0,0,110.24,0" transform="translate(-40.32 -198.37)"/></g><polygon class="cls-4" points="373.26 142.37 383.85 131.54 369.4 136.13 373.26 142.37 373.26 142.37"/><g class="cls-6"><path class="cls-7" d="M357,567.52a185.58,185.58,0,0,1-73.35-252.46" transform="translate(-40.32 -198.37)"/></g><polygon class="cls-8" points="240.03 126.77 242.72 117.83 236.78 125.05 239.29 124.32 240.03 126.77 240.03 126.77"/><path class="cls-9" d="M223.92,218.72v9.18m146.88-9.18v9.18" transform="translate(-40.32 -198.37)"/><g class="cls-10"><line class="cls-3" y1="24.93" x2="440.64" y2="24.93"/></g><polygon class="cls-4" points="423.99 28.6 438.68 24.93 423.99 21.26 423.99 28.6 423.99 28.6"/><path class="cls-3" d="M150.48,218.72v9.18m293.76-9.18v9.18m-146.88-9.18v9.18" transform="translate(-40.32 -198.37)"/><line class="cls-9" x1="36.72" y1="20.34" x2="36.72" y2="29.52"/><line class="cls-11" x1="68.85" y1="263.61" x2="165.24" y2="263.61"/><g class="cls-12"><line class="cls-11" x1="201.96" y1="263.61" x2="238.68" y2="263.61"/></g><polygon class="cls-4" points="222.03 267.28 236.72 263.61 222.03 259.94 222.03 267.28 222.03 267.28"/><line class="cls-9" x1="330.48" y1="309.51" x2="330.48" y2="318.69"/><g class="cls-13"><line class="cls-9" x1="257.04" y1="281.97" x2="257.04" y2="314.1"/></g><polyline class="cls-9" points="255.2 305.72 257.04 313.06 258.88 305.72"/><g class="cls-14"><line class="cls-11" x1="275.4" y1="93.78" x2="312.12" y2="93.78"/></g><polygon class="cls-4" points="295.47 97.45 310.16 93.78 295.47 90.11 295.47 97.45 295.47 97.45"/><g class="cls-15"><line class="cls-9" x1="403.92" y1="176.4" x2="403.92" y2="190.17"/></g><path class="cls-9" d="M442.4,380.16l1.84,7.34,1.84-7.34m-1.84-46.7v13.77" transform="translate(-40.32 -198.37)"/><line class="cls-11" x1="146.88" y1="93.78" x2="243.27" y2="93.78"/><g class="cls-16"><line class="cls-9" x1="330.48" y1="112.14" x2="330.48" y2="144.27"/></g><polyline class="cls-9" points="328.64 135.89 330.48 143.23 332.32 135.89"/><g class="cls-17"><line class="cls-9" x1="330.48" y1="350.82" x2="330.48" y2="364.59"/></g><polyline class="cls-9" points="328.64 356.21 330.48 363.55 332.32 356.21"/><g class="cls-18"><line class="cls-9" x1="257.04" y1="217.71" x2="257.04" y2="240.66"/></g><polyline class="cls-9" points="255.2 232.28 257.04 239.62 258.88 232.28"/><g class="cls-19"><line class="cls-9" x1="257.04" y1="153.45" x2="257.04" y2="185.58"/></g><polyline class="cls-9" points="255.2 177.2 257.04 184.54 258.88 177.2"/><path d="M256.7,209.54h-9.49l4.56-11.1h.36Zm-8.32-.74h6.16l-3.07-7.58Z" transform="translate(-40.32 -198.37)"/><path d="M336.51,200.46a8.3,8.3,0,0,1,2.44-2.09l.15.27a7.36,7.36,0,0,0-1.86,2,9.08,9.08,0,0,0-1,4.53,13.49,13.49,0,0,0,.37,3.46,6,6,0,0,0,2.46,3.57l-.21.27a6.89,6.89,0,0,1-2.15-1.86,8,8,0,0,1-1.91-5.23A7.72,7.72,0,0,1,336.51,200.46Z" transform="translate(-40.32 -198.37)"/><path d="M339.88,209.31a1.46,1.46,0,0,0,.8-.29,1.37,1.37,0,0,0,.23-1V204a1.88,1.88,0,0,0-.1-.72.63.63,0,0,0-.63-.3H340l-.19,0v-.28l1.56-.5.76-.25s.06,0,.07,0a.38.38,0,0,1,0,.11v1.19a8.3,8.3,0,0,1,1.16-1,2.42,2.42,0,0,1,1.3-.4,1.71,1.71,0,0,1,1,.31,2.49,2.49,0,0,1,.87,2.19v3.77a1.24,1.24,0,0,0,.23.84,1,1,0,0,0,.78.27v.23h-3.45v-.23A1.38,1.38,0,0,0,345,209a1.65,1.65,0,0,0,.23-1.07v-3.45a2.32,2.32,0,0,0-.26-1.15,1,1,0,0,0-.95-.46,1.74,1.74,0,0,0-1,.32,5.56,5.56,0,0,0-.71.61v4.52a.94.94,0,0,0,.26.78,1.41,1.41,0,0,0,.81.21v.23h-3.53Z" transform="translate(-40.32 -198.37)"/><path d="M351.94,201.2h1.13v3.61h3.61v1.13h-3.61v3.61h-1.13v-3.61h-3.61V204.8h3.61Z" transform="translate(-40.32 -198.37)"/><path d="M358.11,205.14a1.69,1.69,0,0,0,.79-.18.63.63,0,0,0,.22-.56v-4.55a1,1,0,0,0-.05-.35c0-.09-.12-.13-.26-.13a.92.92,0,0,0-.28.05l-.43.17v-.14l1.86-.92H360l0,0v5.84a.71.71,0,0,0,.18.56,1.61,1.61,0,0,0,.84.18v.14h-2.95Zm7.84-6.73h.77l-6.92,11.25H359Zm-2.26,11a36.79,36.79,0,0,0,2.7-2.78,2.56,2.56,0,0,0,.61-1.61,1.35,1.35,0,0,0-.46-1.08,1.47,1.47,0,0,0-1-.4,1.36,1.36,0,0,0-1,.34,3.1,3.1,0,0,0-.61,1l-.28-.08a3.1,3.1,0,0,1,.81-1.5,2,2,0,0,1,1.46-.52,2.14,2.14,0,0,1,1.39.48,1.59,1.59,0,0,1,.58,1.3,2.81,2.81,0,0,1-.46,1.5,9.65,9.65,0,0,1-1.67,1.83l-1,1h1.51a5.73,5.73,0,0,0,1.33-.08,1.46,1.46,0,0,0,.56-.6l.19.08-.54,1.36H363.7Z" transform="translate(-40.32 -198.37)"/><path d="M373.94,207.75a7.84,7.84,0,0,1-2.62,3.92,6.43,6.43,0,0,1-1.18.81l-.15-.27a6.83,6.83,0,0,0,1.82-1.93,9.1,9.1,0,0,0,1-4.61,12.74,12.74,0,0,0-.47-3.78,6.06,6.06,0,0,0-2.36-3.26l.21-.27a7.84,7.84,0,0,1,2.37,2.15,8,8,0,0,1,1.69,5A8.08,8.08,0,0,1,373.94,207.75Z" transform="translate(-40.32 -198.37)"/><path d="M395.79,202.1v.58h-1.65l0,4.65a3.1,3.1,0,0,0,.1.93.75.75,0,0,0,.76.56.91.91,0,0,0,.5-.14,2.67,2.67,0,0,0,.49-.44l.21.18-.18.24a2.59,2.59,0,0,1-.89.8,2,2,0,0,1-.9.23,1.27,1.27,0,0,1-1.29-.85,3.5,3.5,0,0,1-.19-1.27v-4.89h-.88l-.06,0a.1.1,0,0,1,0-.06.19.19,0,0,1,0-.12l.23-.21a7,7,0,0,0,.8-.75q.25-.29,1.16-1.51l.13,0s0,.05,0,.12v2Z" transform="translate(-40.32 -198.37)"/><path d="M389.81,209.54h-9.49l4.56-11.1h.36Zm-8.32-.74h6.16l-3.07-7.58Z" transform="translate(-40.32 -198.37)"/><path d="M203.41,200.46a8.3,8.3,0,0,1,2.44-2.09l.15.27a7.37,7.37,0,0,0-1.86,2,9.09,9.09,0,0,0-1,4.53,13.47,13.47,0,0,0,.37,3.46,6,6,0,0,0,2.46,3.57l-.21.27a6.9,6.9,0,0,1-2.15-1.86,8,8,0,0,1-1.91-5.23A7.72,7.72,0,0,1,203.41,200.46Z" transform="translate(-40.32 -198.37)"/><path d="M206.77,209.31a1.46,1.46,0,0,0,.8-.29,1.37,1.37,0,0,0,.23-1V204a1.88,1.88,0,0,0-.1-.72.64.64,0,0,0-.63-.3h-.15l-.19,0v-.28l1.57-.5.76-.25s.06,0,.07,0a.42.42,0,0,1,0,.11v1.19a8.3,8.3,0,0,1,1.16-1,2.41,2.41,0,0,1,1.3-.4,1.71,1.71,0,0,1,1,.31,2.5,2.5,0,0,1,.87,2.19v3.77a1.24,1.24,0,0,0,.23.84,1,1,0,0,0,.78.27v.23H211v-.23a1.38,1.38,0,0,0,.82-.33,1.66,1.66,0,0,0,.23-1.07v-3.45a2.32,2.32,0,0,0-.26-1.15,1,1,0,0,0-.95-.46,1.74,1.74,0,0,0-1,.32,5.5,5.5,0,0,0-.71.61v4.52a.94.94,0,0,0,.26.78,1.41,1.41,0,0,0,.81.21v.23h-3.53Z" transform="translate(-40.32 -198.37)"/><path d="M215.23,204.8h8.34v1.13h-8.34Z" transform="translate(-40.32 -198.37)"/><path d="M225,205.14a1.68,1.68,0,0,0,.79-.18.63.63,0,0,0,.22-.56v-4.55a1,1,0,0,0-.05-.35c0-.09-.12-.13-.26-.13a.93.93,0,0,0-.28.05l-.43.17v-.14l1.86-.92h.05l0,0v5.84a.71.71,0,0,0,.18.56,1.61,1.61,0,0,0,.84.18v.14H225Zm7.84-6.73h.77l-6.92,11.25h-.81Zm-2.26,11a36.55,36.55,0,0,0,2.69-2.78,2.55,2.55,0,0,0,.61-1.61,1.35,1.35,0,0,0-.46-1.08,1.47,1.47,0,0,0-1-.4,1.36,1.36,0,0,0-1,.34,3.11,3.11,0,0,0-.61,1l-.28-.08a3.11,3.11,0,0,1,.81-1.5,2,2,0,0,1,1.46-.52,2.14,2.14,0,0,1,1.39.48,1.58,1.58,0,0,1,.58,1.3,2.8,2.8,0,0,1-.46,1.5,9.64,9.64,0,0,1-1.67,1.83l-1,1h1.51a5.73,5.73,0,0,0,1.33-.08,1.46,1.46,0,0,0,.56-.6l.19.08-.54,1.36h-4.19Z" transform="translate(-40.32 -198.37)"/><path d="M240.83,207.75a7.85,7.85,0,0,1-2.62,3.92,6.45,6.45,0,0,1-1.18.81l-.15-.27a6.82,6.82,0,0,0,1.82-1.93,9.1,9.1,0,0,0,1-4.61,12.73,12.73,0,0,0-.47-3.78,6.06,6.06,0,0,0-2.36-3.26l.21-.27a7.84,7.84,0,0,1,2.37,2.15,8.2,8.2,0,0,1,1.37,7.23Z" transform="translate(-40.32 -198.37)"/><path d="M262.68,202.1v.58H261l0,4.65a3.11,3.11,0,0,0,.1.93.75.75,0,0,0,.76.56.91.91,0,0,0,.5-.14,2.66,2.66,0,0,0,.49-.44l.21.18-.18.24a2.59,2.59,0,0,1-.89.8,2,2,0,0,1-.9.23,1.27,1.27,0,0,1-1.29-.85,3.5,3.5,0,0,1-.19-1.27v-4.89h-.88l-.06,0a.1.1,0,0,1,0-.06.19.19,0,0,1,0-.12l.23-.21a7,7,0,0,0,.8-.75q.25-.29,1.16-1.51l.13,0s0,.05,0,.12v2Z" transform="translate(-40.32 -198.37)"/><path d="M463.25,250.85h-9.49l4.56-11.1h.36Zm-8.32-.74h6.16L458,242.52Z" transform="translate(-40.32 -198.37)"/><path d="M414.55,241.77a8.3,8.3,0,0,1,2.44-2.09l.15.27a7.36,7.36,0,0,0-1.86,2,9.08,9.08,0,0,0-1,4.53,13.49,13.49,0,0,0,.37,3.46,6,6,0,0,0,2.46,3.57l-.21.27a6.89,6.89,0,0,1-2.15-1.86,8,8,0,0,1-1.91-5.23A7.72,7.72,0,0,1,414.55,241.77Z" transform="translate(-40.32 -198.37)"/><path d="M417.91,250.62a1.46,1.46,0,0,0,.8-.29,1.37,1.37,0,0,0,.23-1v-4.1a1.88,1.88,0,0,0-.1-.72.63.63,0,0,0-.63-.3h-.15l-.19,0V244l1.56-.5.76-.25s.06,0,.07,0a.38.38,0,0,1,0,.11v1.19a8.3,8.3,0,0,1,1.16-1,2.42,2.42,0,0,1,1.3-.4,1.71,1.71,0,0,1,1,.31,2.49,2.49,0,0,1,.87,2.19v3.77a1.24,1.24,0,0,0,.23.84,1,1,0,0,0,.78.27v.23h-3.45v-.23a1.38,1.38,0,0,0,.82-.33,1.65,1.65,0,0,0,.23-1.07v-3.45a2.32,2.32,0,0,0-.26-1.15,1,1,0,0,0-.95-.46,1.74,1.74,0,0,0-1,.32,5.56,5.56,0,0,0-.71.61v4.52a.94.94,0,0,0,.26.78,1.41,1.41,0,0,0,.81.21v.23h-3.53Z" transform="translate(-40.32 -198.37)"/><path d="M430,242.5h1.13v3.61h3.61v1.13H431.1v3.61H430v-3.61h-3.61v-1.13H430Z" transform="translate(-40.32 -198.37)"/><path d="M440.12,239.82a.61.61,0,0,1,0,.09v9.71q0,.62.33.79a3.32,3.32,0,0,0,1.24.2v.23h-4.56v-.24a2.67,2.67,0,0,0,1.28-.27,1.14,1.14,0,0,0,.3-.94v-7.47a1.41,1.41,0,0,0-.1-.59.42.42,0,0,0-.42-.2,1.73,1.73,0,0,0-.54.12l-.63.25v-.23l3-1.51h.1Z" transform="translate(-40.32 -198.37)"/><path d="M447.84,249.05a7.84,7.84,0,0,1-2.62,3.92,6.43,6.43,0,0,1-1.18.81l-.15-.27a6.83,6.83,0,0,0,1.82-1.93,9.1,9.1,0,0,0,1-4.61,12.74,12.74,0,0,0-.47-3.78,6.06,6.06,0,0,0-2.36-3.26l.21-.27a7.84,7.84,0,0,1,2.37,2.15,8,8,0,0,1,1.69,5A8.08,8.08,0,0,1,447.84,249.05Z" transform="translate(-40.32 -198.37)"/><path d="M469.69,243.41V244H468l0,4.65a3.1,3.1,0,0,0,.1.93.75.75,0,0,0,.76.56.91.91,0,0,0,.5-.14,2.67,2.67,0,0,0,.49-.44l.21.18-.18.24a2.59,2.59,0,0,1-.89.8,2,2,0,0,1-.9.23,1.27,1.27,0,0,1-1.29-.85,3.5,3.5,0,0,1-.19-1.27V244h-.88l-.06,0a.1.1,0,0,1,0-.06.19.19,0,0,1,0-.12l.23-.21a7,7,0,0,0,.8-.75q.25-.29,1.16-1.51l.13,0s0,.05,0,.12v2Z" transform="translate(-40.32 -198.37)"/><path d="M169.49,250.85H160l4.56-11.1h.36Zm-8.32-.74h6.16l-3.07-7.58Z" transform="translate(-40.32 -198.37)"/><path d="M120.78,241.77a8.3,8.3,0,0,1,2.44-2.09l.15.27a7.37,7.37,0,0,0-1.86,2,9.09,9.09,0,0,0-1,4.53,13.47,13.47,0,0,0,.37,3.46,6,6,0,0,0,2.46,3.57l-.21.27a6.9,6.9,0,0,1-2.15-1.86,8,8,0,0,1-1.91-5.23A7.72,7.72,0,0,1,120.78,241.77Z" transform="translate(-40.32 -198.37)"/><path d="M124.14,250.62a1.46,1.46,0,0,0,.8-.29,1.37,1.37,0,0,0,.23-1v-4.1a1.88,1.88,0,0,0-.1-.72.64.64,0,0,0-.63-.3h-.15l-.19,0V244l1.57-.5.76-.25s.06,0,.07,0a.42.42,0,0,1,0,.11v1.19a8.3,8.3,0,0,1,1.16-1,2.41,2.41,0,0,1,1.3-.4,1.71,1.71,0,0,1,1,.31,2.5,2.5,0,0,1,.87,2.19v3.77a1.24,1.24,0,0,0,.23.84,1,1,0,0,0,.78.27v.23h-3.44v-.23a1.38,1.38,0,0,0,.82-.33,1.66,1.66,0,0,0,.23-1.07v-3.45a2.32,2.32,0,0,0-.26-1.15,1,1,0,0,0-.95-.46,1.74,1.74,0,0,0-1,.32,5.5,5.5,0,0,0-.71.61v4.52a.94.94,0,0,0,.26.78,1.41,1.41,0,0,0,.81.21v.23h-3.53Z" transform="translate(-40.32 -198.37)"/><path d="M132.6,246.11h8.34v1.13H132.6Z" transform="translate(-40.32 -198.37)"/><path d="M146.35,239.82a.68.68,0,0,1,0,.09v9.71q0,.62.33.79a3.33,3.33,0,0,0,1.24.2v.23h-4.56v-.24a2.67,2.67,0,0,0,1.27-.27q.3-.22.3-.94v-7.47a1.41,1.41,0,0,0-.1-.59.42.42,0,0,0-.42-.2,1.74,1.74,0,0,0-.54.12l-.63.25v-.23l3-1.51h.1Z" transform="translate(-40.32 -198.37)"/><path d="M154.08,249.05a7.85,7.85,0,0,1-2.62,3.92,6.45,6.45,0,0,1-1.18.81l-.15-.27a6.82,6.82,0,0,0,1.82-1.93,9.1,9.1,0,0,0,1-4.61,12.73,12.73,0,0,0-.47-3.78,6.06,6.06,0,0,0-2.36-3.26l.21-.27a7.84,7.84,0,0,1,2.37,2.15,8.2,8.2,0,0,1,1.37,7.23Z" transform="translate(-40.32 -198.37)"/><path d="M175.92,243.41V244h-1.65l0,4.65a3.11,3.11,0,0,0,.1.93.75.75,0,0,0,.76.56.91.91,0,0,0,.5-.14,2.66,2.66,0,0,0,.49-.44l.21.18-.18.24a2.59,2.59,0,0,1-.89.8,2,2,0,0,1-.9.23,1.27,1.27,0,0,1-1.29-.85,3.5,3.5,0,0,1-.19-1.27V244H172l-.06,0a.1.1,0,0,1,0-.06.19.19,0,0,1,0-.12l.23-.21a7,7,0,0,0,.8-.75q.25-.29,1.16-1.51l.13,0s0,.05,0,.12v2Z" transform="translate(-40.32 -198.37)"/><path d="M302.6,250.85h-9.49l4.56-11.1H298Zm-8.32-.74h6.16l-3.07-7.58Z" transform="translate(-40.32 -198.37)"/><path d="M490.83,227.14a1.08,1.08,0,0,1,0-.19l1.73-6.26h-1.36a.77.77,0,0,1,0-.31.38.38,0,0,1,.18-.13,7.52,7.52,0,0,0,1.41-.75,8.88,8.88,0,0,0,1.37-1.39l.14-.17.07-.06.08,0,.13,0a.36.36,0,0,1,0,.11.41.41,0,0,1,0,.1l-.53,2h1.48l-.11.61H494l-1.65,6a.43.43,0,0,0,0,.31.25.25,0,0,0,.24.15q.23,0,.66-.47.24-.25.82-1l.23.13-.13.19a7,7,0,0,1-1.36,1.61,1.87,1.87,0,0,1-1.12.45.83.83,0,0,1-.67-.24.82.82,0,0,1-.21-.55S490.83,227.21,490.83,227.14Z" transform="translate(-40.32 -198.37)"/><path d="M499.4,219.77a.07.07,0,0,1,0,.08l-1.81,6.4a4.28,4.28,0,0,0-.13.61.49.49,0,0,0,.05.23c0,.07.1.11.22.11s.47-.18.81-.53a10.23,10.23,0,0,0,.73-.9l.23.2-.09.13a9.62,9.62,0,0,1-1.11,1.35,2,2,0,0,1-1.34.65.78.78,0,0,1-.64-.32,1.19,1.19,0,0,1-.26-.76,2.55,2.55,0,0,1,0-.45q0-.19.13-.57l1.28-4.61,0-.2a.86.86,0,0,0,0-.18.37.37,0,0,0-.24-.4,3.68,3.68,0,0,0-.94-.08v-.3l1.06-.14.65-.1.81-.16A1.07,1.07,0,0,1,499.4,219.77Zm-.85-2.25a1,1,0,0,1-.26-.69,1,1,0,0,1,.26-.7.81.81,0,0,1,.63-.29.83.83,0,0,1,.63.29,1,1,0,0,1,.26.7,1,1,0,0,1-.26.69.84.84,0,0,1-.63.28A.81.81,0,0,1,498.56,217.53Z" transform="translate(-40.32 -198.37)"/><path d="M507.89,220a1.09,1.09,0,0,1,.43,1,3.44,3.44,0,0,1-.15.84q-.15.54-.53,1.74a19.82,19.82,0,0,1,1.72-2.32,3.5,3.5,0,0,1,2.3-1.44,1.2,1.2,0,0,1,.77.29,1.12,1.12,0,0,1,.35.92,6.23,6.23,0,0,1-.17,1l-1.41,4.89a.3.3,0,0,0,0,.24.24.24,0,0,0,.23.12.49.49,0,0,0,.28-.08,2.2,2.2,0,0,0,.31-.27l.29-.31.64-.78.28.22-.09.13a7.49,7.49,0,0,1-1.3,1.46,2,2,0,0,1-1.29.54.8.8,0,0,1-.48-.14.92.92,0,0,1-.31-.78,2,2,0,0,1,0-.29q0-.15.07-.34l1.39-5,0-.18a.79.79,0,0,0,0-.14.45.45,0,0,0-.11-.33.38.38,0,0,0-.29-.12,2.18,2.18,0,0,0-1.43.91,14.72,14.72,0,0,0-1.42,1.84,10,10,0,0,0-.77,1.59q-.22.64-.82,2.81h-1.39l1.79-6.38,0-.16a.92.92,0,0,0,0-.16.53.53,0,0,0-.1-.34.38.38,0,0,0-.32-.12q-.58,0-1.43.94a15.37,15.37,0,0,0-1.39,1.76,10.21,10.21,0,0,0-1,2.13q-.28.81-.75,2.32h-1.38l1.73-6.37,0-.19a1,1,0,0,0,0-.19c0-.24-.08-.38-.24-.43a3.4,3.4,0,0,0-.93,0v-.3q.9-.14,2.92-.59l.07.06-1,3.67a22.62,22.62,0,0,1,1.91-2.44,3.36,3.36,0,0,1,2.18-1.3A1.1,1.1,0,0,1,507.89,220Z" transform="translate(-40.32 -198.37)"/><path d="M516,221.67a5.11,5.11,0,0,1,3.67-1.86,1.76,1.76,0,0,1,1.11.32,1.14,1.14,0,0,1,.41,1,2.62,2.62,0,0,1-1.51,2.21,8,8,0,0,1-3.18,1.12l-.51.06c-.08.25-.13.44-.16.59a2.8,2.8,0,0,0,0,.55,1.53,1.53,0,0,0,.52,1.23,1.83,1.83,0,0,0,1.22.44,2.81,2.81,0,0,0,1.43-.45,11.8,11.8,0,0,0,1.25-.93l.23.21a5.63,5.63,0,0,1-1.16,1,4.57,4.57,0,0,1-2.68,1,2.36,2.36,0,0,1-1.67-.67,2.51,2.51,0,0,1-.72-1.93A5.55,5.55,0,0,1,516,221.67Zm2.9,1.2A2.63,2.63,0,0,0,520,221a.84.84,0,0,0-.16-.54.57.57,0,0,0-.47-.2,1.72,1.72,0,0,0-1.14.5,6.72,6.72,0,0,0-1,1.12,8.84,8.84,0,0,0-.75,1.4q-.15.36-.32.81A5.24,5.24,0,0,0,518.88,222.87Z" transform="translate(-40.32 -198.37)"/><path d="M283.88,250.62a1.46,1.46,0,0,0,.8-.29,1.37,1.37,0,0,0,.23-1v-4.1a1.88,1.88,0,0,0-.1-.72.63.63,0,0,0-.63-.3H284l-.19,0V244l1.56-.5.76-.25s.06,0,.07,0a.38.38,0,0,1,0,.11v1.19a8.3,8.3,0,0,1,1.16-1,2.42,2.42,0,0,1,1.3-.4,1.71,1.71,0,0,1,1,.31,2.49,2.49,0,0,1,.87,2.19v3.77a1.24,1.24,0,0,0,.23.84,1,1,0,0,0,.78.27v.23h-3.45v-.23a1.38,1.38,0,0,0,.82-.33,1.65,1.65,0,0,0,.23-1.07v-3.45a2.32,2.32,0,0,0-.26-1.15,1,1,0,0,0-.95-.46,1.74,1.74,0,0,0-1,.32,5.56,5.56,0,0,0-.71.61v4.52a.94.94,0,0,0,.26.78,1.41,1.41,0,0,0,.81.21v.23h-3.53Z" transform="translate(-40.32 -198.37)"/><path d="M308.45,243.41V244H306.8l0,4.65a3.1,3.1,0,0,0,.1.93.75.75,0,0,0,.76.56.91.91,0,0,0,.5-.14,2.67,2.67,0,0,0,.49-.44l.21.18-.18.24a2.59,2.59,0,0,1-.89.8,2,2,0,0,1-.9.23,1.27,1.27,0,0,1-1.29-.85,3.5,3.5,0,0,1-.19-1.27V244h-.88l-.06,0a.1.1,0,0,1,0-.06.19.19,0,0,1,0-.12l.23-.21a7,7,0,0,0,.8-.75q.25-.29,1.16-1.51l.13,0s0,.05,0,.12v2Z" transform="translate(-40.32 -198.37)"/><path d="M47.34,200.46a8.3,8.3,0,0,1,2.44-2.09l.15.27a7.37,7.37,0,0,0-1.86,2,9.09,9.09,0,0,0-1,4.53,13.47,13.47,0,0,0,.37,3.46,6,6,0,0,0,2.46,3.57l-.21.27a6.9,6.9,0,0,1-2.15-1.86,8,8,0,0,1-1.91-5.23A7.72,7.72,0,0,1,47.34,200.46Z" transform="translate(-40.32 -198.37)"/><path d="M50.71,209.31a1.46,1.46,0,0,0,.8-.29,1.37,1.37,0,0,0,.23-1V204a1.88,1.88,0,0,0-.1-.72.64.64,0,0,0-.63-.3h-.15l-.19,0v-.28l1.57-.5.76-.25s.06,0,.07,0a.42.42,0,0,1,0,.11v1.19a8.3,8.3,0,0,1,1.16-1,2.41,2.41,0,0,1,1.3-.4,1.71,1.71,0,0,1,1,.31,2.5,2.5,0,0,1,.87,2.19v3.77a1.24,1.24,0,0,0,.23.84,1,1,0,0,0,.78.27v.23H55v-.23a1.38,1.38,0,0,0,.82-.33,1.66,1.66,0,0,0,.23-1.07v-3.45a2.32,2.32,0,0,0-.26-1.15,1,1,0,0,0-.95-.46,1.74,1.74,0,0,0-1,.32,5.5,5.5,0,0,0-.71.61v4.52a.94.94,0,0,0,.26.78,1.41,1.41,0,0,0,.81.21v.23H50.71Z" transform="translate(-40.32 -198.37)"/><path d="M59.16,204.8h8.34v1.13H59.16Z" transform="translate(-40.32 -198.37)"/><path d="M72.92,198.52a.68.68,0,0,1,0,.09v9.71q0,.62.33.79a3.33,3.33,0,0,0,1.24.2v.23H69.93v-.24a2.67,2.67,0,0,0,1.27-.27q.3-.22.3-.94v-7.47a1.41,1.41,0,0,0-.1-.59.42.42,0,0,0-.42-.2,1.74,1.74,0,0,0-.54.12l-.63.25V200l3-1.51h.1Z" transform="translate(-40.32 -198.37)"/><path d="M77.2,205.14A1.68,1.68,0,0,0,78,205a.63.63,0,0,0,.22-.56v-4.55a1,1,0,0,0-.05-.35c0-.09-.12-.13-.26-.13a.93.93,0,0,0-.28.05l-.43.17v-.14l1.86-.92h.05l0,0v5.84a.71.71,0,0,0,.18.56,1.61,1.61,0,0,0,.84.18v.14H77.2ZM85,198.41h.77l-6.92,11.25h-.81Zm-2.26,11a36.55,36.55,0,0,0,2.69-2.78,2.55,2.55,0,0,0,.61-1.61,1.35,1.35,0,0,0-.46-1.08,1.47,1.47,0,0,0-1-.4,1.36,1.36,0,0,0-1,.34,3.11,3.11,0,0,0-.61,1l-.28-.08a3.11,3.11,0,0,1,.81-1.5A2,2,0,0,1,85,202.8a2.14,2.14,0,0,1,1.39.48,1.58,1.58,0,0,1,.58,1.3,2.8,2.8,0,0,1-.46,1.5,9.64,9.64,0,0,1-1.67,1.83l-1,1h1.51a5.73,5.73,0,0,0,1.33-.08,1.46,1.46,0,0,0,.56-.6l.19.08L87,209.62H82.79Z" transform="translate(-40.32 -198.37)"/><path d="M93,207.75a7.85,7.85,0,0,1-2.62,3.92,6.45,6.45,0,0,1-1.18.81l-.15-.27a6.82,6.82,0,0,0,1.82-1.93,9.1,9.1,0,0,0,1-4.61,12.73,12.73,0,0,0-.47-3.78,6.06,6.06,0,0,0-2.36-3.26l.21-.27a7.84,7.84,0,0,1,2.37,2.15A8.2,8.2,0,0,1,93,207.75Z" transform="translate(-40.32 -198.37)"/><path d="M119,202.1v.58h-1.65l0,4.65a3.11,3.11,0,0,0,.1.93.75.75,0,0,0,.76.56.91.91,0,0,0,.5-.14,2.66,2.66,0,0,0,.49-.44l.21.18-.18.24a2.59,2.59,0,0,1-.89.8,2,2,0,0,1-.9.23,1.27,1.27,0,0,1-1.29-.85,3.5,3.5,0,0,1-.19-1.27v-4.89h-.88l-.06,0a.1.1,0,0,1,0-.06.19.19,0,0,1,0-.12l.23-.21a7,7,0,0,0,.8-.75q.25-.29,1.16-1.51l.13,0s0,.05,0,.12v2Z" transform="translate(-40.32 -198.37)"/><path d="M109.82,209.54h-9.49l4.56-11.1h.36Zm-8.32-.74h6.16l-3.07-7.58Z" transform="translate(-40.32 -198.37)"/><path d="M386.26,487.82a5.29,5.29,0,0,0,1.71-.62,7,7,0,0,0-1.73-.64q-.7-.18-.71-.62a.49.49,0,0,1,.15-.38.51.51,0,0,1,.35-.14q.29,0,.76.54a4.88,4.88,0,0,0,1.27,1v-.19a3.88,3.88,0,0,0-.19-1.19,3.26,3.26,0,0,1-.19-.84.56.56,0,0,1,.15-.43.52.52,0,0,1,.37-.15.47.47,0,0,1,.38.16.63.63,0,0,1,.13.41,3.49,3.49,0,0,1-.2.77,4.38,4.38,0,0,0-.19,1.45l.72-.52a2.67,2.67,0,0,0,.31-.29,8,8,0,0,1,.64-.65.57.57,0,0,1,.35-.09.48.48,0,0,1,.36.16.52.52,0,0,1,.15.37c0,.3-.22.49-.65.58a5.28,5.28,0,0,0-1.78.67l.12.07a5.5,5.5,0,0,0,1.67.56q.63.13.63.62a.43.43,0,0,1-.19.39.66.66,0,0,1-.37.13q-.3,0-.82-.61a3.39,3.39,0,0,0-1.06-.88l-.1,0v.1a4.18,4.18,0,0,0,.2,1.41,3.18,3.18,0,0,1,.21.69.62.62,0,0,1-.16.42.53.53,0,0,1-.42.18.45.45,0,0,1-.37-.17.65.65,0,0,1-.14-.42s.08-.34.24-.9a2.83,2.83,0,0,0,.17-1.22l0-.1a4.31,4.31,0,0,0-1.14.94q-.53.6-.86.6a.47.47,0,0,1-.38-.15.5.5,0,0,1-.13-.32Q385.54,488,386.26,487.82Z" transform="translate(-40.32 -198.37)"/><path d="M70.42,491.23v5.16a2.12,2.12,0,0,0,.15.88,1.11,1.11,0,0,0,1.1.61,1.87,1.87,0,0,0,1.07-.36,3.17,3.17,0,0,0,.6-.56v-4.42a1,1,0,0,0-.24-.81,1.83,1.83,0,0,0-1-.23v-.27h2.61v5.68a1.09,1.09,0,0,0,.2.75,1.13,1.13,0,0,0,.83.18v.23l-.65.18-.7.22-.92.35a0,0,0,0,1,0,0,.4.4,0,0,1,0-.08v-1.3a5.49,5.49,0,0,1-1,1,2.47,2.47,0,0,1-1.45.48,2.07,2.07,0,0,1-1.32-.5A2,2,0,0,1,69,496.7v-4.19a1.06,1.06,0,0,0-.27-.86,1.67,1.67,0,0,0-.76-.19v-.23Z" transform="translate(-40.32 -198.37)"/><path d="M79.58,500.05a3.64,3.64,0,0,1-1.27,1l-.15-.32a2.75,2.75,0,0,0,1.07-.94,1.8,1.8,0,0,0,.29-.85.14.14,0,0,0-.07-.15.37.37,0,0,0-.15,0l-.54.06a1,1,0,0,1-.62-.22.77.77,0,0,1-.28-.64,1,1,0,0,1,.23-.63.9.9,0,0,1,.77-.31,1.27,1.27,0,0,1,.91.4,1.49,1.49,0,0,1,.4,1.11A2.32,2.32,0,0,1,79.58,500.05Z" transform="translate(-40.32 -198.37)"/><path d="M83.8,491.21v.25a2.13,2.13,0,0,0-.59.13.35.35,0,0,0-.17.35.83.83,0,0,0,0,.25c0,.08.07.19.13.34l1.69,4.05L86.33,493q.1-.27.2-.56a1.59,1.59,0,0,0,.09-.44.47.47,0,0,0-.3-.45,1.63,1.63,0,0,0-.48-.1v-.25h2.29v.25a.75.75,0,0,0-.57.26,5.54,5.54,0,0,0-.5,1.06l-2.33,5.81a1.19,1.19,0,0,1-.1.21.13.13,0,0,1-.11.06.16.16,0,0,1-.14-.09,2.41,2.41,0,0,1-.12-.23l-2.47-5.91a2.37,2.37,0,0,0-.64-1,1.29,1.29,0,0,0-.59-.19v-.25Z" transform="translate(-40.32 -198.37)"/><path d="M217.3,491.23v5.16a2.12,2.12,0,0,0,.15.88,1.11,1.11,0,0,0,1.1.61,1.87,1.87,0,0,0,1.07-.36,3.17,3.17,0,0,0,.6-.56v-4.42a1,1,0,0,0-.24-.81,1.83,1.83,0,0,0-1-.23v-.27h2.61v5.68a1.09,1.09,0,0,0,.2.75,1.13,1.13,0,0,0,.83.18v.23l-.65.18-.7.22-.92.35a0,0,0,0,1,0,0,.4.4,0,0,1,0-.08v-1.3a5.49,5.49,0,0,1-1,1,2.47,2.47,0,0,1-1.45.48,2.07,2.07,0,0,1-1.32-.5,2,2,0,0,1-.63-1.66v-4.19a1.06,1.06,0,0,0-.27-.86,1.67,1.67,0,0,0-.76-.19v-.23Z" transform="translate(-40.32 -198.37)"/><path d="M226.47,500.05a3.64,3.64,0,0,1-1.27,1l-.15-.32a2.75,2.75,0,0,0,1.07-.94,1.8,1.8,0,0,0,.29-.85.14.14,0,0,0-.07-.15.37.37,0,0,0-.15,0l-.54.06a1,1,0,0,1-.62-.22.77.77,0,0,1-.28-.64,1,1,0,0,1,.23-.63.9.9,0,0,1,.77-.31,1.27,1.27,0,0,1,.91.4,1.49,1.49,0,0,1,.4,1.11A2.32,2.32,0,0,1,226.47,500.05Z" transform="translate(-40.32 -198.37)"/><path d="M230.69,491.21v.25a2.13,2.13,0,0,0-.59.13.35.35,0,0,0-.17.35.83.83,0,0,0,0,.25c0,.08.07.19.13.34l1.69,4.05,1.44-3.58q.1-.27.2-.56a1.59,1.59,0,0,0,.09-.44.47.47,0,0,0-.3-.45,1.63,1.63,0,0,0-.48-.1v-.25H235v.25a.75.75,0,0,0-.57.26,5.54,5.54,0,0,0-.5,1.06l-2.33,5.81a1.19,1.19,0,0,1-.1.21.13.13,0,0,1-.11.06.16.16,0,0,1-.14-.09,2.41,2.41,0,0,1-.12-.23l-2.47-5.91a2.37,2.37,0,0,0-.64-1,1.29,1.29,0,0,0-.59-.19v-.25Z" transform="translate(-40.32 -198.37)"/><path d="M364.17,491.23v5.16a2.11,2.11,0,0,0,.15.88,1.11,1.11,0,0,0,1.1.61,1.87,1.87,0,0,0,1.07-.36,3.18,3.18,0,0,0,.6-.56v-4.42a1,1,0,0,0-.24-.81,1.83,1.83,0,0,0-1-.23v-.27h2.61v5.68a1.09,1.09,0,0,0,.2.75,1.13,1.13,0,0,0,.83.18v.23l-.65.18-.7.22-.92.35a0,0,0,0,1,0,0,.37.37,0,0,1,0-.08v-1.3a5.46,5.46,0,0,1-1,1,2.47,2.47,0,0,1-1.45.48,2.07,2.07,0,0,1-1.32-.5,2,2,0,0,1-.63-1.66v-4.19a1.05,1.05,0,0,0-.27-.86,1.67,1.67,0,0,0-.76-.19v-.23Z" transform="translate(-40.32 -198.37)"/><path d="M373.34,500.05a3.64,3.64,0,0,1-1.27,1l-.15-.32a2.74,2.74,0,0,0,1.07-.94,1.8,1.8,0,0,0,.29-.85.14.14,0,0,0-.07-.15.37.37,0,0,0-.15,0l-.54.06a1,1,0,0,1-.62-.22.77.77,0,0,1-.28-.64,1,1,0,0,1,.23-.63.9.9,0,0,1,.77-.31,1.26,1.26,0,0,1,.91.4,1.49,1.49,0,0,1,.4,1.11A2.32,2.32,0,0,1,373.34,500.05Z" transform="translate(-40.32 -198.37)"/><path d="M377.56,491.21v.25a2.13,2.13,0,0,0-.59.13.35.35,0,0,0-.17.35.81.81,0,0,0,0,.25c0,.08.07.19.13.34l1.69,4.05,1.44-3.58c.07-.18.14-.36.2-.56a1.61,1.61,0,0,0,.09-.44.47.47,0,0,0-.3-.45,1.63,1.63,0,0,0-.48-.1v-.25h2.29v.25a.75.75,0,0,0-.57.26,5.6,5.6,0,0,0-.5,1.06l-2.33,5.81a1.23,1.23,0,0,1-.1.21.13.13,0,0,1-.11.06.16.16,0,0,1-.14-.09,2.3,2.3,0,0,1-.12-.23l-2.47-5.91a2.37,2.37,0,0,0-.64-1,1.29,1.29,0,0,0-.59-.19v-.25Z" transform="translate(-40.32 -198.37)"/><path d="M83.91,469.12v4.59a1.88,1.88,0,0,0,.14.78,1,1,0,0,0,1,.54,1.66,1.66,0,0,0,1-.32,2.81,2.81,0,0,0,.54-.5v-3.93a.91.91,0,0,0-.22-.72,1.62,1.62,0,0,0-.86-.21v-.24h2.32v5a1,1,0,0,0,.18.67,1,1,0,0,0,.74.16v.2l-.58.16-.62.2-.82.31a0,0,0,0,1,0,0,.34.34,0,0,1,0-.08v-1.15a4.88,4.88,0,0,1-.89.86,2.2,2.2,0,0,1-1.29.43,1.84,1.84,0,0,1-1.18-.45,1.76,1.76,0,0,1-.56-1.47v-3.73a.94.94,0,0,0-.24-.76,1.47,1.47,0,0,0-.67-.17v-.2Z" transform="translate(-40.32 -198.37)"/><path d="M92.05,477a3.23,3.23,0,0,1-1.13.9l-.14-.29a2.44,2.44,0,0,0,1-.84A1.59,1.59,0,0,0,92,476a.13.13,0,0,0-.06-.13l-.14,0-.48,0a.87.87,0,0,1-.55-.2.68.68,0,0,1-.25-.57.91.91,0,0,1,.21-.56.8.8,0,0,1,.68-.27,1.13,1.13,0,0,1,.81.36,1.33,1.33,0,0,1,.36,1A2.06,2.06,0,0,1,92.05,477Z" transform="translate(-40.32 -198.37)"/><path d="M95.8,469.1v.22a1.87,1.87,0,0,0-.53.12.31.31,0,0,0-.15.32.74.74,0,0,0,0,.22c0,.07.06.17.11.3l1.51,3.6L98,470.7q.09-.24.18-.5a1.43,1.43,0,0,0,.08-.39.42.42,0,0,0-.27-.4,1.49,1.49,0,0,0-.43-.09v-.22h2v.22a.66.66,0,0,0-.51.23,4.89,4.89,0,0,0-.45.94l-2.07,5.16a1.06,1.06,0,0,1-.09.19.12.12,0,0,1-.1.05.14.14,0,0,1-.12-.08l-.11-.2L94,470.36a2.1,2.1,0,0,0-.57-.87,1.14,1.14,0,0,0-.52-.17v-.22Z" transform="translate(-40.32 -198.37)"/><path d="M75.86,460.31a7.75,7.75,0,0,0,1.06.27.74.74,0,0,0,.5-.14,1.09,1.09,0,0,0,.25-.4H78l.13,3.48H77.8a6.34,6.34,0,0,0-1-1.79,3.34,3.34,0,0,0-2.54-1,3.84,3.84,0,0,0-2.8,1.21,5.47,5.47,0,0,0-1.21,4,5,5,0,0,0,1.2,3.57,3.91,3.91,0,0,0,3,1.28,5.25,5.25,0,0,0,.7-.06,4.4,4.4,0,0,0,.77-.18,2.25,2.25,0,0,0,.73-.33.55.55,0,0,0,.15-.42v-2.63q0-1-.27-1.19a2.19,2.19,0,0,0-1.18-.29v-.31h4.21v.31a1.57,1.57,0,0,0-.81.2,1.29,1.29,0,0,0-.34,1.06v3.25q0,.29-1.42.77a8.52,8.52,0,0,1-2.74.48A6.09,6.09,0,0,1,70.09,470a5.21,5.21,0,0,1-1.83-4.18,5.75,5.75,0,0,1,1.46-4A5.41,5.41,0,0,1,74,460,6.84,6.84,0,0,1,75.86,460.31Z" transform="translate(-40.32 -198.37)"/><path d="M299.63,469.12v4.59a1.88,1.88,0,0,0,.14.78,1,1,0,0,0,1,.54,1.66,1.66,0,0,0,1-.32,2.81,2.81,0,0,0,.54-.5v-3.93a.92.92,0,0,0-.21-.72,1.62,1.62,0,0,0-.86-.21v-.24h2.32v5a1,1,0,0,0,.18.67,1,1,0,0,0,.74.16v.2l-.58.16-.62.2-.82.31a0,0,0,0,1,0,0,.35.35,0,0,1,0-.08v-1.15a4.85,4.85,0,0,1-.89.86,2.2,2.2,0,0,1-1.29.43,1.84,1.84,0,0,1-1.18-.45,1.76,1.76,0,0,1-.56-1.47v-3.73a.94.94,0,0,0-.24-.76,1.47,1.47,0,0,0-.67-.17v-.2Z" transform="translate(-40.32 -198.37)"/><path d="M307.78,477a3.23,3.23,0,0,1-1.13.9l-.14-.29a2.45,2.45,0,0,0,1-.84,1.59,1.59,0,0,0,.26-.75.13.13,0,0,0-.06-.13l-.14,0-.48,0a.87.87,0,0,1-.55-.2.68.68,0,0,1-.25-.57.91.91,0,0,1,.21-.56.8.8,0,0,1,.68-.27,1.12,1.12,0,0,1,.81.36,1.32,1.32,0,0,1,.36,1A2.06,2.06,0,0,1,307.78,477Z" transform="translate(-40.32 -198.37)"/><path d="M311.53,469.1v.22a1.87,1.87,0,0,0-.53.12.31.31,0,0,0-.15.32.74.74,0,0,0,0,.22q0,.1.11.3l1.51,3.6,1.28-3.18q.09-.24.18-.5a1.42,1.42,0,0,0,.08-.39.41.41,0,0,0-.26-.4,1.49,1.49,0,0,0-.43-.09v-.22h2v.22a.67.67,0,0,0-.51.23,5,5,0,0,0-.45.94l-2.07,5.16a1.09,1.09,0,0,1-.09.19.12.12,0,0,1-.1.05.15.15,0,0,1-.12-.08l-.11-.2-2.19-5.25a2.11,2.11,0,0,0-.57-.87,1.14,1.14,0,0,0-.52-.17v-.22Z" transform="translate(-40.32 -198.37)"/><path d="M291.59,460.31a7.77,7.77,0,0,0,1.06.27.74.74,0,0,0,.5-.14,1.09,1.09,0,0,0,.25-.4h.36l.13,3.48h-.38a6.34,6.34,0,0,0-1-1.79,3.34,3.34,0,0,0-2.54-1,3.84,3.84,0,0,0-2.8,1.21,5.47,5.47,0,0,0-1.21,4,5,5,0,0,0,1.2,3.57,3.91,3.91,0,0,0,3,1.28,5.24,5.24,0,0,0,.7-.06,4.37,4.37,0,0,0,.77-.18,2.25,2.25,0,0,0,.73-.33.55.55,0,0,0,.15-.42v-2.63q0-1-.27-1.19a2.19,2.19,0,0,0-1.18-.29v-.31h4.21v.31a1.58,1.58,0,0,0-.82.2,1.3,1.3,0,0,0-.34,1.06v3.25q0,.29-1.42.77a8.51,8.51,0,0,1-2.74.48,6.09,6.09,0,0,1-4.08-1.41,5.21,5.21,0,0,1-1.83-4.18,5.75,5.75,0,0,1,1.46-4A5.41,5.41,0,0,1,289.7,460,6.84,6.84,0,0,1,291.59,460.31Z" transform="translate(-40.32 -198.37)"/><path d="M217,469.12v4.59a1.88,1.88,0,0,0,.14.78,1,1,0,0,0,1,.54,1.66,1.66,0,0,0,1-.32,2.81,2.81,0,0,0,.54-.5v-3.93a.91.91,0,0,0-.22-.72,1.62,1.62,0,0,0-.86-.21v-.24h2.32v5a1,1,0,0,0,.18.67,1,1,0,0,0,.74.16v.2l-.58.16-.62.2-.82.31a0,0,0,0,1,0,0,.34.34,0,0,1,0-.08v-1.15a4.88,4.88,0,0,1-.89.86,2.2,2.2,0,0,1-1.29.43,1.84,1.84,0,0,1-1.18-.45,1.76,1.76,0,0,1-.56-1.47v-3.73a.94.94,0,0,0-.24-.76,1.47,1.47,0,0,0-.67-.17v-.2Z" transform="translate(-40.32 -198.37)"/><path d="M225.16,477a3.23,3.23,0,0,1-1.13.9l-.14-.29a2.44,2.44,0,0,0,1-.84,1.59,1.59,0,0,0,.26-.75.13.13,0,0,0-.06-.13l-.14,0-.48,0a.87.87,0,0,1-.55-.2.68.68,0,0,1-.25-.57.91.91,0,0,1,.21-.56.8.8,0,0,1,.68-.27,1.13,1.13,0,0,1,.81.36,1.33,1.33,0,0,1,.36,1A2.06,2.06,0,0,1,225.16,477Z" transform="translate(-40.32 -198.37)"/><path d="M228.91,469.1v.22a1.87,1.87,0,0,0-.53.12.31.31,0,0,0-.15.32.74.74,0,0,0,0,.22c0,.07.06.17.11.3l1.51,3.6,1.28-3.18q.09-.24.18-.5a1.43,1.43,0,0,0,.08-.39.42.42,0,0,0-.27-.4,1.49,1.49,0,0,0-.43-.09v-.22h2v.22a.66.66,0,0,0-.51.23,4.89,4.89,0,0,0-.45.94l-2.07,5.16a1.06,1.06,0,0,1-.09.19.12.12,0,0,1-.1.05.14.14,0,0,1-.12-.08l-.11-.2-2.19-5.25a2.1,2.1,0,0,0-.57-.87,1.14,1.14,0,0,0-.52-.17v-.22Z" transform="translate(-40.32 -198.37)"/><path d="M222.75,455.72a7.75,7.75,0,0,0,1.06.27.74.74,0,0,0,.5-.14,1.09,1.09,0,0,0,.25-.4h.36l.13,3.48h-.38a6.34,6.34,0,0,0-1-1.79,3.34,3.34,0,0,0-2.54-1,3.84,3.84,0,0,0-2.8,1.21,5.47,5.47,0,0,0-1.21,4,5,5,0,0,0,1.2,3.57,3.91,3.91,0,0,0,3,1.28,5.25,5.25,0,0,0,.7-.06,4.4,4.4,0,0,0,.77-.18,2.25,2.25,0,0,0,.73-.33.55.55,0,0,0,.15-.42v-2.63q0-1-.27-1.19a2.19,2.19,0,0,0-1.18-.29v-.31h4.21V461a1.57,1.57,0,0,0-.81.2,1.29,1.29,0,0,0-.34,1.06v3.25q0,.29-1.42.77a8.52,8.52,0,0,1-2.74.48A6.09,6.09,0,0,1,217,465.4a5.21,5.21,0,0,1-1.83-4.18,5.75,5.75,0,0,1,1.46-4,5.41,5.41,0,0,1,4.26-1.82A6.84,6.84,0,0,1,222.75,455.72Z" transform="translate(-40.32 -198.37)"/><path d="M459.7,313.4a5.31,5.31,0,0,0,1.71-.62,7,7,0,0,0-1.73-.64q-.7-.18-.71-.62a.49.49,0,0,1,.15-.38.5.5,0,0,1,.35-.14q.29,0,.76.54a4.89,4.89,0,0,0,1.27,1v-.19a3.89,3.89,0,0,0-.19-1.19,3.25,3.25,0,0,1-.19-.84.56.56,0,0,1,.15-.43.51.51,0,0,1,.37-.15.47.47,0,0,1,.38.16.63.63,0,0,1,.13.41,3.51,3.51,0,0,1-.2.77,4.38,4.38,0,0,0-.19,1.45l.72-.52a2.67,2.67,0,0,0,.31-.29,8.11,8.11,0,0,1,.64-.65.58.58,0,0,1,.35-.09.48.48,0,0,1,.36.15.52.52,0,0,1,.15.37q0,.44-.65.58a5.28,5.28,0,0,0-1.78.67l.12.07a5.52,5.52,0,0,0,1.67.56q.63.13.63.62a.43.43,0,0,1-.19.39.65.65,0,0,1-.37.13q-.3,0-.82-.61a3.4,3.4,0,0,0-1.06-.88l-.1,0v.1a4.19,4.19,0,0,0,.2,1.41,3.18,3.18,0,0,1,.21.69.62.62,0,0,1-.16.42.53.53,0,0,1-.42.18.45.45,0,0,1-.37-.17.65.65,0,0,1-.14-.42s.08-.34.24-.9a2.83,2.83,0,0,0,.17-1.22l0-.1a4.31,4.31,0,0,0-1.14.94q-.53.6-.86.6a.47.47,0,0,1-.38-.15.49.49,0,0,1-.13-.32Q459,313.56,459.7,313.4Z" transform="translate(-40.32 -198.37)"/><path d="M149.3,290.48a7.79,7.79,0,0,0,1.06.27.74.74,0,0,0,.5-.14,1.08,1.08,0,0,0,.25-.4h.36l.13,3.48h-.38a6.33,6.33,0,0,0-1-1.79,3.34,3.34,0,0,0-2.54-1,3.84,3.84,0,0,0-2.8,1.21,5.47,5.47,0,0,0-1.21,4,5,5,0,0,0,1.2,3.57,3.91,3.91,0,0,0,3,1.28,5.16,5.16,0,0,0,.7-.06,4.31,4.31,0,0,0,.77-.18,2.25,2.25,0,0,0,.73-.33.55.55,0,0,0,.15-.41v-2.63q0-1-.27-1.19a2.18,2.18,0,0,0-1.18-.29v-.31h4.21v.31a1.58,1.58,0,0,0-.81.2,1.3,1.3,0,0,0-.34,1.06v3.25q0,.29-1.42.77a8.5,8.5,0,0,1-2.74.48,6.09,6.09,0,0,1-4.08-1.41,5.2,5.2,0,0,1-1.83-4.18,5.75,5.75,0,0,1,1.46-4,5.41,5.41,0,0,1,4.26-1.82A6.81,6.81,0,0,1,149.3,290.48Z" transform="translate(-40.32 -198.37)"/><path d="M365,290.48a7.81,7.81,0,0,0,1.06.27.74.74,0,0,0,.5-.14,1.08,1.08,0,0,0,.25-.4h.36l.13,3.48H367a6.33,6.33,0,0,0-1-1.79,3.34,3.34,0,0,0-2.54-1,3.84,3.84,0,0,0-2.8,1.21,5.47,5.47,0,0,0-1.21,4,5,5,0,0,0,1.2,3.57,3.91,3.91,0,0,0,3,1.28,5.15,5.15,0,0,0,.7-.06,4.29,4.29,0,0,0,.77-.18,2.25,2.25,0,0,0,.73-.33.55.55,0,0,0,.15-.41v-2.63q0-1-.27-1.19a2.18,2.18,0,0,0-1.18-.29v-.31h4.21v.31a1.58,1.58,0,0,0-.82.2,1.3,1.3,0,0,0-.34,1.06v3.25q0,.29-1.42.77a8.5,8.5,0,0,1-2.74.48,6.09,6.09,0,0,1-4.08-1.41,5.21,5.21,0,0,1-1.83-4.18,5.75,5.75,0,0,1,1.46-4,5.41,5.41,0,0,1,4.26-1.82A6.81,6.81,0,0,1,365,290.48Z" transform="translate(-40.32 -198.37)"/><path d="M296.18,285.88a7.81,7.81,0,0,0,1.06.27.74.74,0,0,0,.5-.14,1.08,1.08,0,0,0,.25-.4h.36l.13,3.48h-.38a6.33,6.33,0,0,0-1-1.79,3.34,3.34,0,0,0-2.54-1,3.84,3.84,0,0,0-2.8,1.21,5.47,5.47,0,0,0-1.21,4,5,5,0,0,0,1.2,3.57,3.91,3.91,0,0,0,3,1.28,5.15,5.15,0,0,0,.7-.06,4.29,4.29,0,0,0,.77-.18,2.25,2.25,0,0,0,.73-.33.55.55,0,0,0,.15-.41v-2.63q0-1-.27-1.19a2.18,2.18,0,0,0-1.18-.29v-.31h4.21v.31a1.58,1.58,0,0,0-.82.2,1.3,1.3,0,0,0-.34,1.06v3.25q0,.29-1.42.77a8.5,8.5,0,0,1-2.74.48,6.09,6.09,0,0,1-4.08-1.41,5.21,5.21,0,0,1-1.83-4.18,5.75,5.75,0,0,1,1.46-4,5.41,5.41,0,0,1,4.26-1.82A6.81,6.81,0,0,1,296.18,285.88Z" transform="translate(-40.32 -198.37)"/><path d="M299.53,453.92a7.38,7.38,0,0,1,2.17-1.86l.14.24a6.57,6.57,0,0,0-1.65,1.79,8.08,8.08,0,0,0-.87,4,12,12,0,0,0,.33,3.08,5.31,5.31,0,0,0,2.19,3.18l-.19.24a6.14,6.14,0,0,1-1.91-1.66,7.07,7.07,0,0,1-1.7-4.65A6.86,6.86,0,0,1,299.53,453.92Z" transform="translate(-40.32 -198.37)"/><path d="M302.52,461.79a1.3,1.3,0,0,0,.71-.25,1.21,1.21,0,0,0,.21-.85V457a1.68,1.68,0,0,0-.09-.64.56.56,0,0,0-.56-.27h-.13l-.17,0v-.25l1.39-.44.67-.22s.05,0,.06,0a.38.38,0,0,1,0,.1v1.05a7.33,7.33,0,0,1,1-.85,2.15,2.15,0,0,1,1.16-.35,1.52,1.52,0,0,1,.89.28,2.22,2.22,0,0,1,.77,1.94v3.35a1.1,1.1,0,0,0,.21.75.91.91,0,0,0,.69.24v.2h-3.06v-.2a1.23,1.23,0,0,0,.73-.29,1.47,1.47,0,0,0,.21-1v-3.06a2.06,2.06,0,0,0-.23-1,.88.88,0,0,0-.84-.4,1.56,1.56,0,0,0-.86.29,5,5,0,0,0-.63.54v4a.84.84,0,0,0,.23.69,1.25,1.25,0,0,0,.72.19v.2h-3.13Z" transform="translate(-40.32 -198.37)"/><path d="M313.5,460.39a7,7,0,0,1-2.33,3.49,5.81,5.81,0,0,1-1,.72l-.14-.24a6.09,6.09,0,0,0,1.61-1.71,8.08,8.08,0,0,0,.9-4.09,11.31,11.31,0,0,0-.42-3.36,5.39,5.39,0,0,0-2.1-2.9l.19-.24a7,7,0,0,1,2.11,1.91,7.28,7.28,0,0,1,1.22,6.43Z" transform="translate(-40.32 -198.37)"/><path d="M377.56,279.5a7.38,7.38,0,0,1,2.17-1.86l.14.24a6.55,6.55,0,0,0-1.65,1.79,8.08,8.08,0,0,0-.87,4,12,12,0,0,0,.33,3.08,5.31,5.31,0,0,0,2.19,3.18l-.19.24a6.14,6.14,0,0,1-1.91-1.66,7.07,7.07,0,0,1-1.7-4.65A6.86,6.86,0,0,1,377.56,279.5Z" transform="translate(-40.32 -198.37)"/><path d="M380.55,287.36a1.29,1.29,0,0,0,.71-.25,1.21,1.21,0,0,0,.21-.85v-3.64a1.69,1.69,0,0,0-.09-.64.56.56,0,0,0-.56-.27h-.13l-.17,0v-.25l1.39-.44.67-.22s.05,0,.06,0a.38.38,0,0,1,0,.1V282a7.31,7.31,0,0,1,1-.85,2.15,2.15,0,0,1,1.16-.35,1.52,1.52,0,0,1,.89.28,2.22,2.22,0,0,1,.77,1.94v3.35a1.1,1.1,0,0,0,.21.75.91.91,0,0,0,.69.24v.2h-3.06v-.2a1.23,1.23,0,0,0,.73-.29,1.47,1.47,0,0,0,.21-1v-3.06a2.06,2.06,0,0,0-.23-1,.88.88,0,0,0-.84-.41,1.55,1.55,0,0,0-.86.29,4.87,4.87,0,0,0-.63.54v4a.84.84,0,0,0,.23.69,1.26,1.26,0,0,0,.72.19v.2h-3.13Z" transform="translate(-40.32 -198.37)"/><path d="M391.27,280.15h1v3.21h3.21v1h-3.21v3.21h-1v-3.21h-3.21v-1h3.21Z" transform="translate(-40.32 -198.37)"/><path d="M396.76,283.66a1.5,1.5,0,0,0,.71-.16.56.56,0,0,0,.2-.5v-4a.86.86,0,0,0,0-.32c0-.08-.11-.11-.23-.11a.83.83,0,0,0-.25,0l-.38.15v-.12l1.65-.82h0V283a.63.63,0,0,0,.16.5,1.44,1.44,0,0,0,.75.16v.12h-2.62Zm7-6h.68l-6.15,10h-.72Zm-2,9.81a32.7,32.7,0,0,0,2.4-2.47,2.27,2.27,0,0,0,.54-1.43,1.2,1.2,0,0,0-.41-1,1.3,1.3,0,0,0-.86-.35,1.21,1.21,0,0,0-.89.3,2.77,2.77,0,0,0-.54.87l-.25-.07a2.77,2.77,0,0,1,.72-1.34,1.81,1.81,0,0,1,1.3-.46A1.9,1.9,0,0,1,405,282a1.41,1.41,0,0,1,.52,1.15,2.49,2.49,0,0,1-.41,1.34,8.59,8.59,0,0,1-1.48,1.62l-.87.85h1.34a5.14,5.14,0,0,0,1.18-.08,1.3,1.3,0,0,0,.5-.53l.17.07-.48,1.21h-3.72Z" transform="translate(-40.32 -198.37)"/><path d="M410.83,286a7,7,0,0,1-2.33,3.49,5.72,5.72,0,0,1-1,.72l-.14-.24a6.08,6.08,0,0,0,1.61-1.71,8.08,8.08,0,0,0,.9-4.1,11.31,11.31,0,0,0-.42-3.36,5.39,5.39,0,0,0-2.1-2.9l.19-.24a7,7,0,0,1,2.11,1.91,7.28,7.28,0,0,1,1.22,6.43Z" transform="translate(-40.32 -198.37)"/><path d="M228.78,452.6a1.3,1.3,0,0,0,.71-.25,1.21,1.21,0,0,0,.2-.85v-3.64a1.66,1.66,0,0,0-.09-.64.56.56,0,0,0-.56-.27h-.13l-.17,0v-.25l1.39-.44.67-.22a.06.06,0,0,1,.06,0,.38.38,0,0,1,0,.1v1.05a7.36,7.36,0,0,1,1-.85,2.15,2.15,0,0,1,1.16-.35,1.52,1.52,0,0,1,.89.28,2.22,2.22,0,0,1,.77,1.94v3.35a1.1,1.1,0,0,0,.21.75.91.91,0,0,0,.69.24v.2h-3.06v-.2a1.23,1.23,0,0,0,.73-.29,1.48,1.48,0,0,0,.21-1v-3.06a2.06,2.06,0,0,0-.23-1,.88.88,0,0,0-.84-.4,1.56,1.56,0,0,0-.86.29,5,5,0,0,0-.63.54v4a.84.84,0,0,0,.23.69,1.25,1.25,0,0,0,.72.19v.2h-3.13Z" transform="translate(-40.32 -198.37)"/><path d="M236.3,448.59h7.42v1H236.3Z" transform="translate(-40.32 -198.37)"/><path d="M245,448.89a1.5,1.5,0,0,0,.71-.16.56.56,0,0,0,.2-.5v-4a.86.86,0,0,0,0-.32c0-.08-.11-.12-.23-.12a.82.82,0,0,0-.25,0l-.38.15v-.12l1.65-.82h0v5.22a.63.63,0,0,0,.16.5,1.43,1.43,0,0,0,.75.16V449H245Zm7-6h.68l-6.15,10h-.72Zm-2,9.81a32.39,32.39,0,0,0,2.4-2.47,2.27,2.27,0,0,0,.54-1.43,1.2,1.2,0,0,0-.41-1,1.3,1.3,0,0,0-.86-.35,1.21,1.21,0,0,0-.89.3,2.76,2.76,0,0,0-.54.87l-.25-.07a2.76,2.76,0,0,1,.72-1.34,1.81,1.81,0,0,1,1.3-.46,1.9,1.9,0,0,1,1.24.42,1.41,1.41,0,0,1,.52,1.15,2.5,2.5,0,0,1-.41,1.34,8.58,8.58,0,0,1-1.48,1.62l-.87.85h1.34a5.08,5.08,0,0,0,1.18-.08,1.29,1.29,0,0,0,.5-.53l.17.07-.48,1.2H250Z" transform="translate(-40.32 -198.37)"/><path d="M302.22,282.78a1.29,1.29,0,0,0,.71-.25,1.21,1.21,0,0,0,.21-.85V278a1.69,1.69,0,0,0-.09-.64.56.56,0,0,0-.56-.27h-.13l-.17,0v-.25l1.39-.44.67-.22s.05,0,.06,0a.38.38,0,0,1,0,.1v1.05a7.31,7.31,0,0,1,1-.85,2.15,2.15,0,0,1,1.16-.35,1.52,1.52,0,0,1,.89.28,2.22,2.22,0,0,1,.77,1.94v3.35a1.1,1.1,0,0,0,.21.75.91.91,0,0,0,.69.24v.2H306v-.2a1.23,1.23,0,0,0,.73-.29,1.47,1.47,0,0,0,.21-1v-3.06a2.06,2.06,0,0,0-.23-1,.88.88,0,0,0-.84-.41,1.55,1.55,0,0,0-.86.29,4.87,4.87,0,0,0-.63.54v4a.84.84,0,0,0,.23.69,1.26,1.26,0,0,0,.72.19v.2h-3.13Z" transform="translate(-40.32 -198.37)"/><path d="M81.9,457.18a1.3,1.3,0,0,0,.71-.25,1.21,1.21,0,0,0,.2-.85v-3.64a1.66,1.66,0,0,0-.09-.64.56.56,0,0,0-.56-.27H82l-.17,0v-.25l1.39-.44.67-.22a.06.06,0,0,1,.06,0,.38.38,0,0,1,0,.1v1.05a7.36,7.36,0,0,1,1-.85,2.15,2.15,0,0,1,1.16-.35,1.52,1.52,0,0,1,.89.28,2.22,2.22,0,0,1,.77,1.94v3.35a1.1,1.1,0,0,0,.21.75.91.91,0,0,0,.69.24v.2H85.69v-.2a1.23,1.23,0,0,0,.73-.29,1.48,1.48,0,0,0,.21-1v-3.06a2.06,2.06,0,0,0-.23-1,.88.88,0,0,0-.84-.4,1.56,1.56,0,0,0-.86.29,5,5,0,0,0-.63.54v4a.84.84,0,0,0,.23.69,1.25,1.25,0,0,0,.72.19v.2H81.9Z" transform="translate(-40.32 -198.37)"/><path d="M89.41,453.17h7.42v1H89.41Z" transform="translate(-40.32 -198.37)"/><path d="M101.64,447.58a.58.58,0,0,1,0,.08v8.63q0,.55.3.7a3,3,0,0,0,1.1.18v.2H99v-.21a2.37,2.37,0,0,0,1.13-.24q.27-.19.27-.84v-6.64a1.26,1.26,0,0,0-.09-.52.37.37,0,0,0-.37-.18,1.55,1.55,0,0,0-.48.1l-.56.22v-.2l2.63-1.34h.09Z" transform="translate(-40.32 -198.37)"/><path d="M105.45,453.48a1.5,1.5,0,0,0,.71-.16.56.56,0,0,0,.2-.5v-4a.86.86,0,0,0,0-.32c0-.08-.11-.12-.23-.12a.82.82,0,0,0-.25,0l-.38.15v-.12l1.65-.82h0v5.22a.63.63,0,0,0,.16.5,1.43,1.43,0,0,0,.75.16v.12h-2.62Zm7-6h.68l-6.15,10h-.72Zm-2,9.81a32.39,32.39,0,0,0,2.4-2.47,2.27,2.27,0,0,0,.54-1.43,1.2,1.2,0,0,0-.41-1,1.3,1.3,0,0,0-.86-.35,1.21,1.21,0,0,0-.89.3,2.76,2.76,0,0,0-.54.87l-.25-.07a2.76,2.76,0,0,1,.72-1.34,1.81,1.81,0,0,1,1.3-.46,1.9,1.9,0,0,1,1.24.42,1.41,1.41,0,0,1,.52,1.15,2.5,2.5,0,0,1-.41,1.34,8.58,8.58,0,0,1-1.48,1.62l-.87.85h1.34a5.08,5.08,0,0,0,1.18-.08,1.29,1.29,0,0,0,.5-.53l.17.07-.48,1.2h-3.72Z" transform="translate(-40.32 -198.37)"/><path d="M159.93,287.36a1.29,1.29,0,0,0,.71-.25,1.21,1.21,0,0,0,.2-.85v-3.64a1.66,1.66,0,0,0-.09-.64.56.56,0,0,0-.56-.27h-.13l-.17,0v-.25l1.39-.44.67-.22s.05,0,.06,0a.38.38,0,0,1,0,.1V282a7.34,7.34,0,0,1,1-.85,2.15,2.15,0,0,1,1.16-.35,1.52,1.52,0,0,1,.89.28,2.22,2.22,0,0,1,.77,1.94v3.35a1.1,1.1,0,0,0,.21.75.91.91,0,0,0,.69.24v.2h-3.06v-.2a1.23,1.23,0,0,0,.73-.29,1.48,1.48,0,0,0,.21-1v-3.06a2.06,2.06,0,0,0-.23-1,.88.88,0,0,0-.84-.41,1.55,1.55,0,0,0-.86.29,4.87,4.87,0,0,0-.63.54v4a.84.84,0,0,0,.23.69,1.26,1.26,0,0,0,.72.19v.2h-3.13Z" transform="translate(-40.32 -198.37)"/><path d="M167.45,283.35h7.42v1h-7.42Z" transform="translate(-40.32 -198.37)"/><path d="M179.67,277.76a.56.56,0,0,1,0,.08v8.63q0,.55.3.7a3,3,0,0,0,1.1.18v.2H177v-.22a2.37,2.37,0,0,0,1.13-.24,1,1,0,0,0,.27-.84v-6.64a1.25,1.25,0,0,0-.09-.52.37.37,0,0,0-.37-.18,1.55,1.55,0,0,0-.48.1l-.56.22v-.2l2.63-1.34h.09Z" transform="translate(-40.32 -198.37)"/><path d="M91.08,489.32a1.3,1.3,0,0,0,.71-.25,1.21,1.21,0,0,0,.2-.85v-3.64a1.66,1.66,0,0,0-.09-.64.56.56,0,0,0-.56-.27h-.13l-.17,0v-.25l1.39-.44.67-.22a.06.06,0,0,1,.06,0,.38.38,0,0,1,0,.1V484a7.36,7.36,0,0,1,1-.85,2.15,2.15,0,0,1,1.16-.35,1.52,1.52,0,0,1,.89.28A2.22,2.22,0,0,1,97,485v3.35a1.1,1.1,0,0,0,.21.75.91.91,0,0,0,.69.24v.2H94.87v-.2a1.23,1.23,0,0,0,.73-.29,1.48,1.48,0,0,0,.21-1V485a2.06,2.06,0,0,0-.23-1,.88.88,0,0,0-.84-.4,1.56,1.56,0,0,0-.86.29,5,5,0,0,0-.63.54v4a.84.84,0,0,0,.23.69,1.25,1.25,0,0,0,.72.19v.2H91.08Z" transform="translate(-40.32 -198.37)"/><path d="M98.59,485.32H106v1H98.59Z" transform="translate(-40.32 -198.37)"/><path d="M110.82,479.72a.58.58,0,0,1,0,.08v8.63q0,.55.3.7a3,3,0,0,0,1.1.18v.2h-4.05v-.21a2.37,2.37,0,0,0,1.13-.24q.27-.19.27-.84v-6.64a1.26,1.26,0,0,0-.09-.52.37.37,0,0,0-.37-.18,1.55,1.55,0,0,0-.48.1l-.56.22V481l2.63-1.34h.09Z" transform="translate(-40.32 -198.37)"/><path d="M114.63,485.62a1.5,1.5,0,0,0,.71-.16.56.56,0,0,0,.2-.5v-4a.86.86,0,0,0,0-.32c0-.08-.11-.12-.23-.12a.82.82,0,0,0-.25,0l-.38.15v-.12l1.65-.82h0V485a.63.63,0,0,0,.16.5,1.43,1.43,0,0,0,.75.16v.12h-2.62Zm7-6h.68l-6.15,10h-.72Zm-2,9.81A32.39,32.39,0,0,0,122,487a2.27,2.27,0,0,0,.54-1.43,1.2,1.2,0,0,0-.41-1,1.3,1.3,0,0,0-.86-.35,1.21,1.21,0,0,0-.89.3,2.76,2.76,0,0,0-.54.87l-.25-.07a2.76,2.76,0,0,1,.72-1.34,1.81,1.81,0,0,1,1.3-.46,1.9,1.9,0,0,1,1.24.42,1.41,1.41,0,0,1,.52,1.15,2.5,2.5,0,0,1-.41,1.34,8.58,8.58,0,0,1-1.48,1.62l-.87.85h1.34a5.08,5.08,0,0,0,1.18-.08,1.29,1.29,0,0,0,.5-.53l.17.07-.48,1.2h-3.72Z" transform="translate(-40.32 -198.37)"/><path d="M233.37,489.32a1.3,1.3,0,0,0,.71-.25,1.21,1.21,0,0,0,.2-.85v-3.64a1.66,1.66,0,0,0-.09-.64.56.56,0,0,0-.56-.27h-.13l-.17,0v-.25l1.39-.44.67-.22a.06.06,0,0,1,.06,0,.38.38,0,0,1,0,.1V484a7.36,7.36,0,0,1,1-.85,2.15,2.15,0,0,1,1.16-.35,1.52,1.52,0,0,1,.89.28,2.22,2.22,0,0,1,.77,1.94v3.35a1.1,1.1,0,0,0,.21.75.91.91,0,0,0,.69.24v.2h-3.06v-.2a1.23,1.23,0,0,0,.73-.29,1.48,1.48,0,0,0,.21-1V485a2.06,2.06,0,0,0-.23-1,.88.88,0,0,0-.84-.4,1.56,1.56,0,0,0-.86.29,5,5,0,0,0-.63.54v4a.84.84,0,0,0,.23.69,1.25,1.25,0,0,0,.72.19v.2h-3.13Z" transform="translate(-40.32 -198.37)"/><path d="M240.88,485.32h7.42v1h-7.42Z" transform="translate(-40.32 -198.37)"/><path d="M249.58,485.62a1.5,1.5,0,0,0,.71-.16.56.56,0,0,0,.2-.5v-4a.86.86,0,0,0,0-.32c0-.08-.11-.12-.23-.12a.82.82,0,0,0-.25,0l-.38.15v-.12l1.65-.82h0V485a.63.63,0,0,0,.16.5,1.43,1.43,0,0,0,.75.16v.12h-2.62Zm7-6h.68l-6.15,10h-.72Zm-2,9.81a32.39,32.39,0,0,0,2.4-2.47,2.27,2.27,0,0,0,.54-1.43,1.2,1.2,0,0,0-.41-1,1.3,1.3,0,0,0-.86-.35,1.21,1.21,0,0,0-.89.3,2.76,2.76,0,0,0-.54.87l-.25-.07a2.76,2.76,0,0,1,.72-1.34,1.81,1.81,0,0,1,1.3-.46,1.9,1.9,0,0,1,1.24.42,1.41,1.41,0,0,1,.52,1.15,2.5,2.5,0,0,1-.41,1.34,8.58,8.58,0,0,1-1.48,1.62l-.87.85h1.34a5.08,5.08,0,0,0,1.18-.08,1.29,1.29,0,0,0,.5-.53l.17.07-.48,1.2h-3.72Z" transform="translate(-40.32 -198.37)"/><path d="M382.26,538v4.59a1.88,1.88,0,0,0,.14.78,1,1,0,0,0,1,.54,1.66,1.66,0,0,0,1-.32,2.81,2.81,0,0,0,.54-.5v-3.93a.92.92,0,0,0-.21-.72,1.62,1.62,0,0,0-.86-.21V538h2.32v5a1,1,0,0,0,.18.67,1,1,0,0,0,.74.16v.2l-.58.16-.62.2-.82.31a0,0,0,0,1,0,0,.35.35,0,0,1,0-.08v-1.15a4.85,4.85,0,0,1-.89.86,2.2,2.2,0,0,1-1.29.43,1.84,1.84,0,0,1-1.18-.45,1.76,1.76,0,0,1-.56-1.47V539.1a.94.94,0,0,0-.24-.76,1.47,1.47,0,0,0-.67-.17V538Z" transform="translate(-40.32 -198.37)"/><path d="M390.41,545.8a3.23,3.23,0,0,1-1.13.9l-.14-.29a2.45,2.45,0,0,0,1-.84,1.59,1.59,0,0,0,.26-.75.13.13,0,0,0-.06-.13l-.14,0-.48,0a.87.87,0,0,1-.55-.2.68.68,0,0,1-.25-.57.91.91,0,0,1,.21-.56.8.8,0,0,1,.68-.27,1.12,1.12,0,0,1,.81.36,1.32,1.32,0,0,1,.36,1A2.06,2.06,0,0,1,390.41,545.8Z" transform="translate(-40.32 -198.37)"/><path d="M394.16,537.94v.22a1.87,1.87,0,0,0-.53.12.31.31,0,0,0-.15.32.74.74,0,0,0,0,.22q0,.1.11.3l1.51,3.6,1.28-3.18q.09-.24.18-.5a1.42,1.42,0,0,0,.08-.39.41.41,0,0,0-.26-.4,1.49,1.49,0,0,0-.43-.09v-.22h2v.22a.67.67,0,0,0-.51.23,5,5,0,0,0-.45.94L395,544.5a1.09,1.09,0,0,1-.09.19.12.12,0,0,1-.1.05.15.15,0,0,1-.12-.08l-.11-.2-2.19-5.25a2.11,2.11,0,0,0-.57-.87,1.14,1.14,0,0,0-.52-.17v-.22Z" transform="translate(-40.32 -198.37)"/><path d="M364.17,583v5.16a2.11,2.11,0,0,0,.15.88,1.11,1.11,0,0,0,1.1.61,1.87,1.87,0,0,0,1.07-.36,3.18,3.18,0,0,0,.6-.56v-4.42a1,1,0,0,0-.24-.81,1.83,1.83,0,0,0-1-.23V583h2.61v5.68a1.09,1.09,0,0,0,.2.75,1.13,1.13,0,0,0,.83.18v.23l-.65.18-.7.22-.92.35a0,0,0,0,1,0,0,.37.37,0,0,1,0-.08v-1.3a5.46,5.46,0,0,1-1,1,2.47,2.47,0,0,1-1.45.48,2.07,2.07,0,0,1-1.32-.5,2,2,0,0,1-.63-1.66v-4.19a1.05,1.05,0,0,0-.27-.86,1.67,1.67,0,0,0-.76-.19V583Z" transform="translate(-40.32 -198.37)"/><path d="M373.34,591.85a3.64,3.64,0,0,1-1.27,1l-.15-.32a2.74,2.74,0,0,0,1.07-.94,1.8,1.8,0,0,0,.29-.85.14.14,0,0,0-.07-.15.37.37,0,0,0-.15,0l-.54.06a1,1,0,0,1-.62-.22.77.77,0,0,1-.28-.64,1,1,0,0,1,.23-.63.9.9,0,0,1,.77-.31,1.26,1.26,0,0,1,.91.4,1.49,1.49,0,0,1,.4,1.11A2.32,2.32,0,0,1,373.34,591.85Z" transform="translate(-40.32 -198.37)"/><path d="M377.56,583v.25a2.13,2.13,0,0,0-.59.13.35.35,0,0,0-.17.35.81.81,0,0,0,0,.25c0,.08.07.19.13.34l1.69,4.05,1.44-3.58c.07-.18.14-.36.2-.56a1.61,1.61,0,0,0,.09-.44.47.47,0,0,0-.3-.45,1.63,1.63,0,0,0-.48-.1V583h2.29v.25a.75.75,0,0,0-.57.26,5.6,5.6,0,0,0-.5,1.06l-2.33,5.81a1.23,1.23,0,0,1-.1.21.13.13,0,0,1-.11.06.16.16,0,0,1-.14-.09,2.3,2.3,0,0,1-.12-.23l-2.47-5.91a2.37,2.37,0,0,0-.64-1,1.29,1.29,0,0,0-.59-.19V583Z" transform="translate(-40.32 -198.37)"/><path d="M377.56,568.67a7.38,7.38,0,0,1,2.17-1.86l.14.24a6.57,6.57,0,0,0-1.65,1.79,8.08,8.08,0,0,0-.87,4,12,12,0,0,0,.33,3.08,5.31,5.31,0,0,0,2.19,3.18l-.19.24a6.14,6.14,0,0,1-1.91-1.66,7.07,7.07,0,0,1-1.7-4.65A6.86,6.86,0,0,1,377.56,568.67Z" transform="translate(-40.32 -198.37)"/><path d="M380.55,576.54a1.3,1.3,0,0,0,.71-.25,1.21,1.21,0,0,0,.21-.85v-3.64a1.68,1.68,0,0,0-.09-.64.56.56,0,0,0-.56-.27h-.13l-.17,0v-.25l1.39-.44.67-.22s.05,0,.06,0a.38.38,0,0,1,0,.1v1.05a7.33,7.33,0,0,1,1-.85,2.15,2.15,0,0,1,1.16-.35,1.52,1.52,0,0,1,.89.28,2.22,2.22,0,0,1,.77,1.94v3.35a1.1,1.1,0,0,0,.21.75.91.91,0,0,0,.69.24v.2h-3.06v-.2a1.23,1.23,0,0,0,.73-.29,1.47,1.47,0,0,0,.21-1v-3.06a2.06,2.06,0,0,0-.23-1,.88.88,0,0,0-.84-.4,1.56,1.56,0,0,0-.86.29,5,5,0,0,0-.63.54v4a.84.84,0,0,0,.23.69,1.25,1.25,0,0,0,.72.19v.2h-3.13Z" transform="translate(-40.32 -198.37)"/><path d="M391.27,569.32h1v3.21h3.21v1h-3.21v3.21h-1v-3.21h-3.21v-1h3.21Z" transform="translate(-40.32 -198.37)"/><path d="M396.76,572.83a1.5,1.5,0,0,0,.71-.16.56.56,0,0,0,.2-.5v-4a.86.86,0,0,0,0-.32c0-.08-.11-.12-.23-.12a.83.83,0,0,0-.25,0l-.38.15v-.12l1.65-.82h0v5.22a.63.63,0,0,0,.16.5,1.44,1.44,0,0,0,.75.16v.12h-2.62Zm7-6h.68l-6.15,10h-.72Zm-2,9.81a32.7,32.7,0,0,0,2.4-2.47,2.27,2.27,0,0,0,.54-1.43,1.2,1.2,0,0,0-.41-1,1.3,1.3,0,0,0-.86-.35,1.21,1.21,0,0,0-.89.3,2.76,2.76,0,0,0-.54.87l-.25-.07a2.76,2.76,0,0,1,.72-1.34,1.81,1.81,0,0,1,1.3-.46,1.9,1.9,0,0,1,1.24.42,1.41,1.41,0,0,1,.52,1.15,2.49,2.49,0,0,1-.41,1.34,8.61,8.61,0,0,1-1.48,1.62l-.87.85h1.34a5.08,5.08,0,0,0,1.18-.08,1.29,1.29,0,0,0,.5-.53l.17.07-.48,1.2h-3.72Z" transform="translate(-40.32 -198.37)"/><path d="M410.83,575.14a7,7,0,0,1-2.33,3.49,5.81,5.81,0,0,1-1,.72l-.14-.24a6.09,6.09,0,0,0,1.61-1.71,8.08,8.08,0,0,0,.9-4.09,11.31,11.31,0,0,0-.42-3.36,5.39,5.39,0,0,0-2.1-2.9l.19-.24a7,7,0,0,1,2.11,1.91,7.28,7.28,0,0,1,1.22,6.43Z" transform="translate(-40.32 -198.37)"/><path d="M453.69,388.34a1.29,1.29,0,0,0,.71-.25,1.21,1.21,0,0,0,.21-.85v-3.64a1.69,1.69,0,0,0-.09-.64.56.56,0,0,0-.56-.27h-.13l-.17,0v-.25L455,382l.67-.22s.05,0,.06,0a.38.38,0,0,1,0,.1V383a7.31,7.31,0,0,1,1-.85,2.15,2.15,0,0,1,1.16-.35,1.52,1.52,0,0,1,.89.28,2.22,2.22,0,0,1,.77,1.94v3.35a1.1,1.1,0,0,0,.21.75.91.91,0,0,0,.69.24v.2h-3.06v-.2a1.23,1.23,0,0,0,.73-.29,1.47,1.47,0,0,0,.21-1V384a2.06,2.06,0,0,0-.23-1,.88.88,0,0,0-.84-.41,1.55,1.55,0,0,0-.86.29,4.87,4.87,0,0,0-.63.54v4a.84.84,0,0,0,.23.69,1.26,1.26,0,0,0,.72.19v.2h-3.13Z" transform="translate(-40.32 -198.37)"/><path d="M464.41,381.13h1v3.21h3.21v1h-3.21v3.21h-1v-3.21H461.2v-1h3.21Z" transform="translate(-40.32 -198.37)"/><path d="M473.43,378.74a.68.68,0,0,1,0,.08v8.63q0,.55.3.7a3,3,0,0,0,1.1.18v.2h-4.05v-.22a2.37,2.37,0,0,0,1.13-.24,1,1,0,0,0,.27-.84v-6.64a1.25,1.25,0,0,0-.09-.52.37.37,0,0,0-.37-.18,1.55,1.55,0,0,0-.48.1l-.56.22V380l2.63-1.34h.09Z" transform="translate(-40.32 -198.37)"/><path d="M159.93,314.9a1.29,1.29,0,0,0,.71-.25,1.21,1.21,0,0,0,.2-.85v-3.64a1.66,1.66,0,0,0-.09-.64.56.56,0,0,0-.56-.27h-.13l-.17,0V309l1.39-.44.67-.22s.05,0,.06,0a.38.38,0,0,1,0,.1v1.05a7.34,7.34,0,0,1,1-.85,2.15,2.15,0,0,1,1.16-.35,1.52,1.52,0,0,1,.89.28,2.22,2.22,0,0,1,.77,1.94v3.35a1.1,1.1,0,0,0,.21.75.91.91,0,0,0,.69.24v.2h-3.06v-.2a1.23,1.23,0,0,0,.73-.29,1.48,1.48,0,0,0,.21-1V310.6a2.06,2.06,0,0,0-.23-1,.88.88,0,0,0-.84-.41,1.55,1.55,0,0,0-.86.29,4.87,4.87,0,0,0-.63.54v4a.84.84,0,0,0,.23.69,1.26,1.26,0,0,0,.72.19v.2h-3.13Z" transform="translate(-40.32 -198.37)"/><path d="M167.45,310.89h7.42v1h-7.42Z" transform="translate(-40.32 -198.37)"/><path d="M179.67,305.3a.56.56,0,0,1,0,.08V314q0,.55.3.7a3,3,0,0,0,1.1.18v.2H177v-.22a2.37,2.37,0,0,0,1.13-.24,1,1,0,0,0,.27-.84v-6.64a1.25,1.25,0,0,0-.09-.52.37.37,0,0,0-.37-.18,1.55,1.55,0,0,0-.48.1l-.56.22v-.2l2.63-1.34h.09Z" transform="translate(-40.32 -198.37)"/><path d="M306.8,314.9a1.29,1.29,0,0,0,.71-.25,1.21,1.21,0,0,0,.21-.85v-3.64a1.69,1.69,0,0,0-.09-.64.56.56,0,0,0-.56-.27h-.13l-.17,0V309l1.39-.44.67-.22s.05,0,.06,0a.38.38,0,0,1,0,.1v1.05a7.31,7.31,0,0,1,1-.85,2.15,2.15,0,0,1,1.16-.35,1.52,1.52,0,0,1,.89.28,2.22,2.22,0,0,1,.77,1.94v3.35a1.1,1.1,0,0,0,.21.75.91.91,0,0,0,.69.24v.2H310.6v-.2a1.23,1.23,0,0,0,.73-.29,1.47,1.47,0,0,0,.21-1V310.6a2.06,2.06,0,0,0-.23-1,.88.88,0,0,0-.84-.41,1.55,1.55,0,0,0-.86.29,4.87,4.87,0,0,0-.63.54v4a.84.84,0,0,0,.23.69,1.26,1.26,0,0,0,.72.19v.2H306.8Z" transform="translate(-40.32 -198.37)"/></svg>