<svg id="Layer_1" data-name="Layer 1" xmlns="http://www.w3.org/2000/svg" xmlns:xlink="http://www.w3.org/1999/xlink" viewBox="0 0 424 321"><defs><style>.cls-1,.cls-11,.cls-14,.cls-4,.cls-9{fill:none;}.cls-1{clip-rule:evenodd;}.cls-2{fill:#fff;}.cls-3{clip-path:url(#clip-path);}.cls-10,.cls-11,.cls-14,.cls-4,.cls-5,.cls-9{stroke:#000;stroke-miterlimit:10;}.cls-11,.cls-4,.cls-5{stroke-width:0.9px;}.cls-10,.cls-5{fill-rule:evenodd;}.cls-6{clip-path:url(#clip-path-2);}.cls-7{clip-path:url(#clip-path-3);}.cls-8{clip-path:url(#clip-path-4);}.cls-9{stroke-dashoffset:2.7px;stroke-dasharray:0.9 2.7;}.cls-10,.cls-14,.cls-9{stroke-width:0.45px;}.cls-11{stroke-dasharray:5.4;}.cls-12{clip-path:url(#clip-path-5);}.cls-13{clip-path:url(#clip-path-6);}.cls-15{clip-path:url(#clip-path-7);}.cls-16{clip-path:url(#clip-path-8);}.cls-17{clip-path:url(#clip-path-9);}.cls-18{clip-path:url(#clip-path-10);}.cls-19{clip-path:url(#clip-path-11);}.cls-20{clip-path:url(#clip-path-12);}</style><clipPath id="clip-path" transform="translate(-59 -236)"><path class="cls-1" d="M59,236V557H483V236Zm372.9,22.1v-7.2H414.68l14.4,3.6-14.4,3.6Z"/></clipPath><clipPath id="clip-path-2" transform="translate(-59 -236)"><path class="cls-1" d="M59,236V557H483V236ZM379.64,342.52l-3.84-6.06-14.58,9.18L375.38,341,365.06,351.7Z"/></clipPath><clipPath id="clip-path-3" transform="translate(-59 -236)"><path class="cls-1" d="M59,236V557H483V236ZM379.64,477.52l-3.84-6.06-14.58,9.18L375.38,476,365.06,486.7Z"/></clipPath><clipPath id="clip-path-4" transform="translate(-59 -236)"><path class="cls-1" d="M59,236V557H483V236Zm180.3,82.28L237,315.52l-7,5.7,6.72-3.12L232.28,324Z"/></clipPath><clipPath id="clip-path-5" transform="translate(-59 -236)"><path class="cls-1" d="M59,236V557H483V236Zm246.9,71.6v-7.2H288.68l14.4,3.6-14.4,3.6Z"/></clipPath><clipPath id="clip-path-6" transform="translate(-59 -236)"><path class="cls-1" d="M59,236V557H483V236ZM321.2,354.4h3.6v-9.12l-1.8,7.2-1.8-7.2Z"/></clipPath><clipPath id="clip-path-7" transform="translate(-59 -236)"><path class="cls-1" d="M59,236V557H483V236ZM249.2,381.4h3.6v-9.12l-1.8,7.2-1.8-7.2Z"/></clipPath><clipPath id="clip-path-8" transform="translate(-59 -236)"><path class="cls-1" d="M59,236V557H483V236ZM393.2,399.4h3.6v-9.12l-1.8,7.2-1.8-7.2Z"/></clipPath><clipPath id="clip-path-9" transform="translate(-59 -236)"><path class="cls-1" d="M59,236V557H483V236ZM249.2,430.9h3.6v-9.12L251,429l-1.8-7.2Z"/></clipPath><clipPath id="clip-path-10" transform="translate(-59 -236)"><path class="cls-1" d="M59,236V557H483V236ZM305.9,442.6v-7.2H288.68l14.4,3.6-14.4,3.6Z"/></clipPath><clipPath id="clip-path-11" transform="translate(-59 -236)"><path class="cls-1" d="M59,236V557H483V236ZM321.2,489.4h3.6v-9.12l-1.8,7.2-1.8-7.2Z"/></clipPath><clipPath id="clip-path-12" transform="translate(-59 -236)"><path class="cls-1" d="M59,236V557H483V236ZM393.2,534.4h3.6v-9.12l-1.8,7.2-1.8-7.2Z"/></clipPath></defs><title>adams-bashforth-sync</title><rect class="cls-2" width="424" height="321"/><g class="cls-3"><line class="cls-4" x1="12" y1="18.5" x2="372" y2="18.5"/></g><polygon class="cls-5" points="355.68 22.1 370.08 18.5 355.68 14.9 355.68 22.1 355.68 22.1"/><path class="cls-4" d="M107,250v9m288-9v9m-144-9v9" transform="translate(-59 -236)"/><path d="M413.64,281.5h-9.3l4.47-10.88h.36Zm-8.16-.73h6l-3-7.44Z" transform="translate(-59 -236)"/><path d="M365.89,272.6a8.13,8.13,0,0,1,2.39-2l.15.26a7.23,7.23,0,0,0-1.82,2,8.91,8.91,0,0,0-1,4.45,13.18,13.18,0,0,0,.36,3.39,5.85,5.85,0,0,0,2.41,3.5l-.21.26a6.76,6.76,0,0,1-2.1-1.83,7.8,7.8,0,0,1-1.87-5.13A7.57,7.57,0,0,1,365.89,272.6Z" transform="translate(-59 -236)"/><path d="M369.19,281.28A1.43,1.43,0,0,0,370,281a1.34,1.34,0,0,0,.22-.94v-4a1.84,1.84,0,0,0-.09-.71.62.62,0,0,0-.62-.3h-.15l-.19,0v-.28l1.54-.49.74-.25s.06,0,.07,0a.41.41,0,0,1,0,.11v1.16a8.14,8.14,0,0,1,1.14-.93,2.37,2.37,0,0,1,1.28-.39,1.67,1.67,0,0,1,1,.31,2.45,2.45,0,0,1,.85,2.14v3.69a1.21,1.21,0,0,0,.23.82,1,1,0,0,0,.76.26v.22h-3.38v-.22a1.35,1.35,0,0,0,.81-.32,1.63,1.63,0,0,0,.23-1v-3.38a2.27,2.27,0,0,0-.25-1.13,1,1,0,0,0-.93-.45,1.71,1.71,0,0,0-.94.32,5.35,5.35,0,0,0-.69.6v4.43a.92.92,0,0,0,.25.76,1.39,1.39,0,0,0,.8.21v.22h-3.46Z" transform="translate(-59 -236)"/><path d="M381,273.32h1.11v3.54h3.54V278h-3.54v3.54H381V278h-3.54v-1.11H381Z" transform="translate(-59 -236)"/><path d="M391,270.69a.58.58,0,0,1,0,.09v9.52q0,.61.33.77a3.27,3.27,0,0,0,1.22.2v.22H388v-.24a2.61,2.61,0,0,0,1.25-.26q.29-.21.29-.93v-7.32a1.37,1.37,0,0,0-.1-.58.41.41,0,0,0-.41-.2,1.72,1.72,0,0,0-.53.11l-.61.24v-.22l2.9-1.48h.1Z" transform="translate(-59 -236)"/><path d="M398.53,279.74a7.73,7.73,0,0,1-.9,2,7.81,7.81,0,0,1-1.67,1.86,6.32,6.32,0,0,1-1.16.8l-.15-.26a6.7,6.7,0,0,0,1.78-1.89,8.92,8.92,0,0,0,1-4.52A12.48,12.48,0,0,0,397,274a5.94,5.94,0,0,0-2.32-3.2l.21-.26a7.69,7.69,0,0,1,2.33,2.1,8,8,0,0,1,1.34,7.09Z" transform="translate(-59 -236)"/><path d="M419.95,274.21v.57h-1.61l0,4.56a3,3,0,0,0,.1.91.73.73,0,0,0,.74.55.9.9,0,0,0,.49-.13,2.6,2.6,0,0,0,.48-.43l.21.17-.17.24a2.53,2.53,0,0,1-.87.78,2,2,0,0,1-.89.23,1.25,1.25,0,0,1-1.27-.83,3.42,3.42,0,0,1-.18-1.25v-4.79h-.86l-.06,0a.09.09,0,0,1,0-.06.19.19,0,0,1,0-.12l.23-.2a6.93,6.93,0,0,0,.79-.73q.24-.28,1.13-1.48l.12,0s0,.05,0,.12v1.95Z" transform="translate(-59 -236)"/><path d="M125.64,281.5h-9.3l4.47-10.88h.36Zm-8.16-.73h6l-3-7.44Z" transform="translate(-59 -236)"/><path d="M77.89,272.6a8.14,8.14,0,0,1,2.39-2l.15.26a7.22,7.22,0,0,0-1.82,2,8.91,8.91,0,0,0-1,4.45,13.2,13.2,0,0,0,.36,3.39,5.84,5.84,0,0,0,2.41,3.5l-.21.26a6.77,6.77,0,0,1-2.1-1.83,7.8,7.8,0,0,1-1.87-5.13A7.57,7.57,0,0,1,77.89,272.6Z" transform="translate(-59 -236)"/><path d="M81.19,281.28A1.43,1.43,0,0,0,82,281a1.34,1.34,0,0,0,.23-.94v-4a1.85,1.85,0,0,0-.09-.71.62.62,0,0,0-.62-.3h-.15l-.19,0v-.28l1.53-.49.74-.25s.06,0,.07,0a.41.41,0,0,1,0,.11v1.16a8.11,8.11,0,0,1,1.14-.93,2.37,2.37,0,0,1,1.28-.39,1.67,1.67,0,0,1,1,.31,2.45,2.45,0,0,1,.85,2.14v3.69A1.21,1.21,0,0,0,88,281a1,1,0,0,0,.76.26v.22H85.37v-.22a1.35,1.35,0,0,0,.81-.32,1.62,1.62,0,0,0,.23-1v-3.38a2.27,2.27,0,0,0-.25-1.13,1,1,0,0,0-.93-.45,1.71,1.71,0,0,0-.94.32,5.38,5.38,0,0,0-.69.6v4.43a.92.92,0,0,0,.25.76,1.38,1.38,0,0,0,.8.21v.22H81.19Z" transform="translate(-59 -236)"/><path d="M89.48,276.86h8.18V278H89.48Z" transform="translate(-59 -236)"/><path d="M103,270.69a.65.65,0,0,1,0,.09v9.52q0,.61.33.77a3.27,3.27,0,0,0,1.22.2v.22H100v-.24a2.61,2.61,0,0,0,1.25-.26q.29-.21.29-.93v-7.32a1.38,1.38,0,0,0-.09-.58.41.41,0,0,0-.41-.2,1.71,1.71,0,0,0-.53.11l-.61.24v-.22l2.9-1.48h.09Z" transform="translate(-59 -236)"/><path d="M110.53,279.74a7.69,7.69,0,0,1-2.57,3.84,6.34,6.34,0,0,1-1.15.8l-.15-.26a6.7,6.7,0,0,0,1.78-1.89,8.92,8.92,0,0,0,1-4.52A12.46,12.46,0,0,0,109,274a5.94,5.94,0,0,0-2.32-3.2l.21-.26a7.7,7.7,0,0,1,2.33,2.1,7.81,7.81,0,0,1,1.65,4.86A7.89,7.89,0,0,1,110.53,279.74Z" transform="translate(-59 -236)"/><path d="M131.95,274.21v.57h-1.61l0,4.56a3,3,0,0,0,.1.91.73.73,0,0,0,.74.55.9.9,0,0,0,.49-.13,2.61,2.61,0,0,0,.48-.43l.21.17-.17.24a2.53,2.53,0,0,1-.87.78,2,2,0,0,1-.89.23,1.25,1.25,0,0,1-1.27-.83,3.45,3.45,0,0,1-.18-1.25v-4.79h-.86l-.06,0a.1.1,0,0,1,0-.06.19.19,0,0,1,0-.12l.23-.2a6.83,6.83,0,0,0,.79-.73q.24-.28,1.14-1.48l.12,0s0,.05,0,.12v1.95Z" transform="translate(-59 -236)"/><path d="M256.14,281.5h-9.3l4.47-10.88h.36Zm-8.16-.73h6l-3-7.44Z" transform="translate(-59 -236)"/><path d="M440.68,258.26a1.12,1.12,0,0,1,0-.19l1.7-6.13h-1.34a.76.76,0,0,1,0-.3.38.38,0,0,1,.18-.12,7.37,7.37,0,0,0,1.38-.73,8.67,8.67,0,0,0,1.34-1.36l.14-.17.07-.06.08,0,.12,0a.37.37,0,0,1,0,.11.39.39,0,0,1,0,.1l-.52,1.92h1.45l-.11.6h-1.52l-1.62,5.91a.41.41,0,0,0,0,.3.24.24,0,0,0,.24.14q.23,0,.64-.46.24-.25.8-1l.23.13-.12.18a6.8,6.8,0,0,1-1.33,1.58,1.83,1.83,0,0,1-1.1.44.81.81,0,0,1-.65-.24.8.8,0,0,1-.2-.54S440.67,258.32,440.68,258.26Z" transform="translate(-59 -236)"/><path d="M449.08,251a.07.07,0,0,1,0,.07l-1.77,6.28a4.21,4.21,0,0,0-.12.6.47.47,0,0,0,.05.23q0,.11.22.11t.79-.52a9.92,9.92,0,0,0,.71-.88l.23.19-.09.12a9.45,9.45,0,0,1-1.09,1.33,2,2,0,0,1-1.32.63.77.77,0,0,1-.63-.32,1.17,1.17,0,0,1-.25-.75,2.46,2.46,0,0,1,0-.44q0-.19.13-.56l1.25-4.52,0-.19a.89.89,0,0,0,0-.18.36.36,0,0,0-.23-.39,3.61,3.61,0,0,0-.92-.07v-.29l1-.14.64-.1.79-.16A1.05,1.05,0,0,1,449.08,251Zm-.83-2.2a1,1,0,0,1-.25-.68,1,1,0,0,1,.25-.69.8.8,0,0,1,.62-.28.81.81,0,0,1,.62.28,1,1,0,0,1,.26.69,1,1,0,0,1-.26.68.82.82,0,0,1-.62.28A.8.8,0,0,1,448.25,248.83Z" transform="translate(-59 -236)"/><path d="M457.4,251.24a1.07,1.07,0,0,1,.42,1,3.38,3.38,0,0,1-.15.83q-.15.53-.52,1.71a19.44,19.44,0,0,1,1.68-2.27,3.43,3.43,0,0,1,2.26-1.41,1.17,1.17,0,0,1,.76.28,1.1,1.1,0,0,1,.34.9,6.1,6.1,0,0,1-.17.94l-1.38,4.8a.29.29,0,0,0,0,.23.23.23,0,0,0,.23.12.49.49,0,0,0,.28-.08,2.19,2.19,0,0,0,.3-.26l.29-.31.63-.77.27.21-.09.12a7.32,7.32,0,0,1-1.28,1.43,2,2,0,0,1-1.27.53.79.79,0,0,1-.47-.14.9.9,0,0,1-.3-.77,1.93,1.93,0,0,1,0-.28c0-.1,0-.21.07-.33l1.36-4.93,0-.18a.76.76,0,0,0,0-.14.45.45,0,0,0-.11-.33.38.38,0,0,0-.28-.11,2.14,2.14,0,0,0-1.4.89,14.56,14.56,0,0,0-1.39,1.8,9.71,9.71,0,0,0-.76,1.56q-.22.63-.8,2.76h-1.37l1.76-6.26,0-.15a.88.88,0,0,0,0-.15.51.51,0,0,0-.09-.33.37.37,0,0,0-.31-.12q-.57,0-1.4.92a15,15,0,0,0-1.36,1.73,10.09,10.09,0,0,0-1,2.09q-.28.79-.74,2.28h-1.35l1.69-6.25,0-.19a1,1,0,0,0,0-.19q0-.35-.24-.42a3.37,3.37,0,0,0-.91,0v-.29q.88-.14,2.86-.58l.07.06-1,3.6a22.25,22.25,0,0,1,1.87-2.39,3.29,3.29,0,0,1,2.14-1.27A1.08,1.08,0,0,1,457.4,251.24Z" transform="translate(-59 -236)"/><path d="M465.32,252.89a5,5,0,0,1,3.59-1.83,1.72,1.72,0,0,1,1.09.32,1.12,1.12,0,0,1,.4.94,2.56,2.56,0,0,1-1.48,2.16,7.79,7.79,0,0,1-3.12,1.1l-.5.06a6,6,0,0,0-.16.58,2.77,2.77,0,0,0,0,.54,1.49,1.49,0,0,0,.51,1.2,1.79,1.79,0,0,0,1.2.43,2.75,2.75,0,0,0,1.4-.44,11.59,11.59,0,0,0,1.22-.91l.23.2a5.54,5.54,0,0,1-1.13,1,4.48,4.48,0,0,1-2.63.94,2.32,2.32,0,0,1-1.63-.66,2.46,2.46,0,0,1-.7-1.89A5.45,5.45,0,0,1,465.32,252.89Zm2.85,1.18a2.58,2.58,0,0,0,1.05-1.85.83.83,0,0,0-.16-.53.56.56,0,0,0-.47-.2,1.68,1.68,0,0,0-1.12.49,6.54,6.54,0,0,0-1,1.1,8.63,8.63,0,0,0-.74,1.38q-.15.35-.32.8A5.14,5.14,0,0,0,468.17,254.07Z" transform="translate(-59 -236)"/><path d="M237.79,281.28a1.43,1.43,0,0,0,.79-.28,1.34,1.34,0,0,0,.23-.94v-4a1.85,1.85,0,0,0-.09-.71.62.62,0,0,0-.62-.3h-.15l-.19,0v-.28l1.53-.49.74-.25s.06,0,.07,0a.41.41,0,0,1,0,.11v1.16a8.11,8.11,0,0,1,1.14-.93,2.37,2.37,0,0,1,1.28-.39,1.67,1.67,0,0,1,1,.31,2.45,2.45,0,0,1,.85,2.14v3.69a1.21,1.21,0,0,0,.23.82,1,1,0,0,0,.76.26v.22H242v-.22a1.35,1.35,0,0,0,.81-.32,1.62,1.62,0,0,0,.23-1v-3.38a2.27,2.27,0,0,0-.25-1.13,1,1,0,0,0-.93-.45,1.71,1.71,0,0,0-.94.32,5.38,5.38,0,0,0-.69.6v4.43a.92.92,0,0,0,.25.76,1.38,1.38,0,0,0,.8.21v.22h-3.46Z" transform="translate(-59 -236)"/><path d="M261.87,274.21v.57h-1.61l0,4.56a3,3,0,0,0,.1.91.73.73,0,0,0,.74.55.9.9,0,0,0,.49-.13,2.61,2.61,0,0,0,.48-.43l.21.17-.17.24a2.53,2.53,0,0,1-.87.78,2,2,0,0,1-.89.23,1.25,1.25,0,0,1-1.27-.83,3.45,3.45,0,0,1-.18-1.25v-4.79H258l-.06,0a.1.1,0,0,1,0-.06.19.19,0,0,1,0-.12l.23-.2a6.83,6.83,0,0,0,.79-.73q.24-.28,1.14-1.48l.12,0s0,.05,0,.12v1.95Z" transform="translate(-59 -236)"/><path d="M109.49,341.32a3.56,3.56,0,0,1-1.24,1l-.15-.32a2.7,2.7,0,0,0,1-.93,1.76,1.76,0,0,0,.29-.83.14.14,0,0,0-.07-.14.37.37,0,0,0-.15,0l-.53.06a1,1,0,0,1-.61-.22.75.75,0,0,1-.28-.63,1,1,0,0,1,.23-.62.89.89,0,0,1,.75-.3,1.24,1.24,0,0,1,.89.39,1.46,1.46,0,0,1,.4,1.09A2.27,2.27,0,0,1,109.49,341.32Z" transform="translate(-59 -236)"/><path d="M111.19,336.74a5.85,5.85,0,0,0,1,1.74,3,3,0,0,0,2.39,1.13,2,2,0,0,0,1.34-.49,1.72,1.72,0,0,0,.56-1.37,1.91,1.91,0,0,0-.57-1.38,10.07,10.07,0,0,0-1.56-1.12l-1.38-.86a5,5,0,0,1-1-.8,2.48,2.48,0,0,1-.69-1.69,2.77,2.77,0,0,1,.81-2,2.92,2.92,0,0,1,2.16-.81,4.16,4.16,0,0,1,1.33.27,5.67,5.67,0,0,0,.89.27.51.51,0,0,0,.42-.14,1,1,0,0,0,.18-.4h.33l.36,3.45h-.39a3.64,3.64,0,0,0-1.27-2.18,3,3,0,0,0-1.73-.62,1.81,1.81,0,0,0-1.16.39,1.31,1.31,0,0,0-.49,1.09,1.59,1.59,0,0,0,.38,1.07,4.89,4.89,0,0,0,1.18.94l1.42.88a7.43,7.43,0,0,1,1.88,1.51,2.61,2.61,0,0,1,.54,1.65,2.73,2.73,0,0,1-1,2.13,3.56,3.56,0,0,1-2.46.85,4.77,4.77,0,0,1-1.57-.28,5.93,5.93,0,0,0-.94-.28.4.4,0,0,0-.38.17,1.1,1.1,0,0,0-.13.37h-.36l-.48-3.45Z" transform="translate(-59 -236)"/><path d="M102.25,329.1a2.87,2.87,0,0,1,2.56,1.38,7.31,7.31,0,0,1,.89,4,8.4,8.4,0,0,1-.89,4.27,2.81,2.81,0,0,1-2.55,1.48,2.91,2.91,0,0,1-2.64-1.41,8.07,8.07,0,0,1-.88-4.21,7.45,7.45,0,0,1,.93-4A2.91,2.91,0,0,1,102.25,329.1Zm1.86,4.89q0-.11,0-.3c0-.13,0-.22,0-.28a7.29,7.29,0,0,0-.45-3,1.49,1.49,0,0,0-1.42-.94,1.54,1.54,0,0,0-1.48,1.06,9.51,9.51,0,0,0-.49,3.44Zm-3.82.57v.37a11.2,11.2,0,0,0,.44,3.78,1.52,1.52,0,0,0,1.48,1.08,1.49,1.49,0,0,0,1.48-1.06,13.51,13.51,0,0,0,.42-4.17Z" transform="translate(-59 -236)"/><path d="M253.49,341.32a3.56,3.56,0,0,1-1.24,1l-.15-.32a2.7,2.7,0,0,0,1-.93,1.76,1.76,0,0,0,.29-.83.14.14,0,0,0-.07-.14.37.37,0,0,0-.15,0l-.53.06a1,1,0,0,1-.61-.22.75.75,0,0,1-.28-.63,1,1,0,0,1,.23-.62.89.89,0,0,1,.75-.3,1.24,1.24,0,0,1,.89.39,1.46,1.46,0,0,1,.4,1.09A2.27,2.27,0,0,1,253.49,341.32Z" transform="translate(-59 -236)"/><path d="M255.19,336.74a5.85,5.85,0,0,0,1,1.74,3,3,0,0,0,2.39,1.13,2,2,0,0,0,1.34-.49,1.72,1.72,0,0,0,.56-1.37,1.91,1.91,0,0,0-.57-1.38,10.07,10.07,0,0,0-1.56-1.12l-1.38-.86a5,5,0,0,1-1-.8,2.48,2.48,0,0,1-.69-1.69,2.77,2.77,0,0,1,.81-2,2.92,2.92,0,0,1,2.16-.81,4.16,4.16,0,0,1,1.33.27,5.67,5.67,0,0,0,.89.27.51.51,0,0,0,.42-.14,1,1,0,0,0,.18-.4h.33l.36,3.45h-.39a3.64,3.64,0,0,0-1.27-2.18,3,3,0,0,0-1.73-.62,1.81,1.81,0,0,0-1.16.39,1.31,1.31,0,0,0-.49,1.09,1.59,1.59,0,0,0,.38,1.07,4.89,4.89,0,0,0,1.18.94l1.42.88a7.43,7.43,0,0,1,1.88,1.51,2.61,2.61,0,0,1,.54,1.65,2.73,2.73,0,0,1-1,2.13,3.56,3.56,0,0,1-2.46.85,4.77,4.77,0,0,1-1.57-.28,5.93,5.93,0,0,0-.94-.28.4.4,0,0,0-.38.17,1.1,1.1,0,0,0-.13.37h-.36l-.48-3.45Z" transform="translate(-59 -236)"/><path d="M246.25,329.1a2.87,2.87,0,0,1,2.56,1.38,7.31,7.31,0,0,1,.89,4,8.4,8.4,0,0,1-.89,4.27,2.81,2.81,0,0,1-2.55,1.48,2.91,2.91,0,0,1-2.64-1.41,8.07,8.07,0,0,1-.88-4.21,7.45,7.45,0,0,1,.93-4A2.91,2.91,0,0,1,246.25,329.1Zm1.86,4.89q0-.11,0-.3c0-.13,0-.22,0-.28a7.29,7.29,0,0,0-.45-3,1.49,1.49,0,0,0-1.42-.94,1.54,1.54,0,0,0-1.48,1.06,9.51,9.51,0,0,0-.49,3.44Zm-3.82.57v.37a11.2,11.2,0,0,0,.44,3.78,1.52,1.52,0,0,0,1.48,1.08,1.49,1.49,0,0,0,1.48-1.06,13.51,13.51,0,0,0,.42-4.17Z" transform="translate(-59 -236)"/><path d="M397.49,341.32a3.55,3.55,0,0,1-1.24,1l-.15-.32a2.7,2.7,0,0,0,1-.93,1.76,1.76,0,0,0,.29-.83.14.14,0,0,0-.07-.14.37.37,0,0,0-.15,0l-.53.06a1,1,0,0,1-.61-.22.75.75,0,0,1-.28-.63,1,1,0,0,1,.23-.62.89.89,0,0,1,.75-.3,1.24,1.24,0,0,1,.89.39,1.46,1.46,0,0,1,.4,1.09A2.27,2.27,0,0,1,397.49,341.32Z" transform="translate(-59 -236)"/><path d="M399.19,336.74a5.85,5.85,0,0,0,1,1.74,3,3,0,0,0,2.39,1.13,2,2,0,0,0,1.34-.49,1.72,1.72,0,0,0,.57-1.37,1.91,1.91,0,0,0-.57-1.38,10.09,10.09,0,0,0-1.56-1.12l-1.38-.86a4.93,4.93,0,0,1-1-.8,2.48,2.48,0,0,1-.69-1.69,2.77,2.77,0,0,1,.81-2,2.92,2.92,0,0,1,2.16-.81,4.15,4.15,0,0,1,1.33.27,5.65,5.65,0,0,0,.89.27.51.51,0,0,0,.42-.14,1,1,0,0,0,.18-.4h.33l.36,3.45h-.39a3.64,3.64,0,0,0-1.27-2.18,3,3,0,0,0-1.73-.62,1.81,1.81,0,0,0-1.16.39,1.31,1.31,0,0,0-.49,1.09,1.59,1.59,0,0,0,.38,1.07,4.89,4.89,0,0,0,1.18.94l1.42.88a7.42,7.42,0,0,1,1.88,1.51,2.6,2.6,0,0,1,.54,1.65,2.73,2.73,0,0,1-1,2.13,3.56,3.56,0,0,1-2.46.85,4.77,4.77,0,0,1-1.57-.28,5.9,5.9,0,0,0-.94-.28.4.4,0,0,0-.38.17,1.1,1.1,0,0,0-.13.37h-.36l-.48-3.45Z" transform="translate(-59 -236)"/><path d="M390.25,329.1a2.87,2.87,0,0,1,2.55,1.38,7.31,7.31,0,0,1,.89,4,8.4,8.4,0,0,1-.89,4.27,2.81,2.81,0,0,1-2.55,1.48,2.91,2.91,0,0,1-2.64-1.41,8.05,8.05,0,0,1-.88-4.21,7.44,7.44,0,0,1,.93-4A2.91,2.91,0,0,1,390.25,329.1Zm1.86,4.89c0-.07,0-.18,0-.3s0-.22,0-.28a7.31,7.31,0,0,0-.45-3,1.49,1.49,0,0,0-1.42-.94,1.54,1.54,0,0,0-1.48,1.06,9.51,9.51,0,0,0-.49,3.44Zm-3.82.57v.37a11.23,11.23,0,0,0,.44,3.78,1.52,1.52,0,0,0,1.48,1.08,1.49,1.49,0,0,0,1.48-1.06,13.53,13.53,0,0,0,.42-4.17Z" transform="translate(-59 -236)"/><path d="M397.49,413.32a3.56,3.56,0,0,1-1.24,1l-.15-.32a2.69,2.69,0,0,0,1-.93,1.76,1.76,0,0,0,.29-.83.14.14,0,0,0-.07-.14.37.37,0,0,0-.15,0l-.53.05a1,1,0,0,1-.61-.22.75.75,0,0,1-.28-.63,1,1,0,0,1,.23-.62.89.89,0,0,1,.75-.3,1.24,1.24,0,0,1,.89.39,1.46,1.46,0,0,1,.4,1.09A2.27,2.27,0,0,1,397.49,413.32Z" transform="translate(-59 -236)"/><path d="M399.19,408.74a5.85,5.85,0,0,0,1,1.74,3,3,0,0,0,2.39,1.13,2,2,0,0,0,1.34-.49,1.72,1.72,0,0,0,.57-1.37,1.91,1.91,0,0,0-.57-1.38,10.09,10.09,0,0,0-1.56-1.12l-1.38-.86a4.91,4.91,0,0,1-1-.8,2.48,2.48,0,0,1-.69-1.69,2.77,2.77,0,0,1,.81-2,2.92,2.92,0,0,1,2.16-.81,4.15,4.15,0,0,1,1.33.27,5.75,5.75,0,0,0,.89.27.51.51,0,0,0,.42-.14,1,1,0,0,0,.18-.4h.33l.36,3.45h-.39a3.64,3.64,0,0,0-1.27-2.17,3,3,0,0,0-1.73-.62,1.81,1.81,0,0,0-1.16.39,1.31,1.31,0,0,0-.49,1.09,1.59,1.59,0,0,0,.38,1.07,4.89,4.89,0,0,0,1.18.94l1.42.88a7.41,7.41,0,0,1,1.88,1.51,2.6,2.6,0,0,1,.54,1.65,2.73,2.73,0,0,1-1,2.13,3.56,3.56,0,0,1-2.46.85,4.79,4.79,0,0,1-1.57-.29,5.93,5.93,0,0,0-.94-.28.4.4,0,0,0-.38.17,1.09,1.09,0,0,0-.13.37h-.36l-.48-3.45Z" transform="translate(-59 -236)"/><path d="M390.25,401.1a2.87,2.87,0,0,1,2.55,1.38,7.31,7.31,0,0,1,.89,4,8.4,8.4,0,0,1-.89,4.27,2.81,2.81,0,0,1-2.55,1.48,2.91,2.91,0,0,1-2.64-1.41,8.06,8.06,0,0,1-.88-4.21,7.44,7.44,0,0,1,.93-4A2.91,2.91,0,0,1,390.25,401.1Zm1.86,4.89c0-.07,0-.17,0-.3s0-.22,0-.28a7.31,7.31,0,0,0-.45-3,1.49,1.49,0,0,0-1.42-.94,1.54,1.54,0,0,0-1.48,1.06,9.5,9.5,0,0,0-.49,3.44Zm-3.82.57v.37a11.23,11.23,0,0,0,.44,3.78,1.52,1.52,0,0,0,1.48,1.08,1.49,1.49,0,0,0,1.48-1.06,13.53,13.53,0,0,0,.42-4.17Z" transform="translate(-59 -236)"/><path d="M408.76,402.8a1.27,1.27,0,0,0,.7-.25,1.19,1.19,0,0,0,.2-.83v-3.57a1.65,1.65,0,0,0-.08-.63.55.55,0,0,0-.55-.26h-.13l-.17,0V397l1.36-.44.66-.22s.05,0,.06,0a.33.33,0,0,1,0,.1v1a7.24,7.24,0,0,1,1-.83,2.12,2.12,0,0,1,1.14-.34,1.49,1.49,0,0,1,.87.27,2.18,2.18,0,0,1,.76,1.91v3.28a1.08,1.08,0,0,0,.2.73.89.89,0,0,0,.68.23v.2h-3v-.2a1.21,1.21,0,0,0,.72-.28,1.45,1.45,0,0,0,.2-.93v-3a2,2,0,0,0-.22-1,.86.86,0,0,0-.83-.4,1.52,1.52,0,0,0-.84.28,4.77,4.77,0,0,0-.62.53v3.94a.82.82,0,0,0,.23.68,1.23,1.23,0,0,0,.71.19v.2h-3.07Z" transform="translate(-59 -236)"/><path d="M419.27,395.73h1v3.14h3.14v1h-3.14V403h-1v-3.14h-3.14v-1h3.14Z" transform="translate(-59 -236)"/><path d="M428.11,393.39a.66.66,0,0,1,0,.08v8.47c0,.36.1.59.29.69a2.9,2.9,0,0,0,1.08.18v.2h-4v-.21a2.32,2.32,0,0,0,1.11-.23q.26-.19.26-.82v-6.51a1.24,1.24,0,0,0-.08-.51.37.37,0,0,0-.37-.18,1.53,1.53,0,0,0-.47.1l-.54.21v-.2l2.58-1.31h.08Z" transform="translate(-59 -236)"/><path d="M390.09,380a2,2,0,0,0,.95-.32,1.84,1.84,0,0,0,.51-1l2.21-8.07c.06-.23.11-.42.14-.58a2,2,0,0,0,0-.41q0-.46-.25-.58a3.8,3.8,0,0,0-1.06-.19v-.47h5.7v.47a3.42,3.42,0,0,0-1.27.29,1.67,1.67,0,0,0-.54,1l-2.34,8.59c0,.09,0,.18-.06.27a1.69,1.69,0,0,0,0,.29.44.44,0,0,0,.26.43,1.72,1.72,0,0,0,.74.13,7.5,7.5,0,0,0,3.21-.63,5.69,5.69,0,0,0,2.38-2.36l.43.08-1.05,3.5h-10Z" transform="translate(-59 -236)"/><path d="M399.93,362.87h7.27v1h-7.27Z" transform="translate(-59 -236)"/><path d="M411.91,357.39a.66.66,0,0,1,0,.08v8.47q0,.54.29.69a2.91,2.91,0,0,0,1.08.18v.2h-4v-.21a2.33,2.33,0,0,0,1.11-.23,1,1,0,0,0,.26-.82v-6.51a1.24,1.24,0,0,0-.08-.51.37.37,0,0,0-.37-.18,1.53,1.53,0,0,0-.47.1l-.54.21v-.2l2.58-1.31h.08Z" transform="translate(-59 -236)"/><path d="M115.28,307.81a2.55,2.55,0,0,1,2.27,1.23,6.5,6.5,0,0,1,.79,3.53,7.47,7.47,0,0,1-.79,3.79,2.49,2.49,0,0,1-2.26,1.32,2.59,2.59,0,0,1-2.35-1.25,7.17,7.17,0,0,1-.78-3.74,6.62,6.62,0,0,1,.82-3.58A2.58,2.58,0,0,1,115.28,307.81Zm1.65,4.35c0-.07,0-.16,0-.27s0-.2,0-.25a6.49,6.49,0,0,0-.4-2.64,1.33,1.33,0,0,0-1.27-.84,1.37,1.37,0,0,0-1.31.94,8.46,8.46,0,0,0-.43,3.06Zm-3.4.51V313a10,10,0,0,0,.39,3.36,1.35,1.35,0,0,0,1.32,1,1.33,1.33,0,0,0,1.32-.94,12,12,0,0,0,.37-3.71Z" transform="translate(-59 -236)"/><path d="M119.62,319.64a5.29,5.29,0,0,0,1.19-1,1.48,1.48,0,0,0,.41-.92.31.31,0,0,0-.06-.22.29.29,0,0,0-.2-.05l-.21,0-.27,0a.81.81,0,0,1-.57-.19.68.68,0,0,1-.21-.52.72.72,0,0,1,.25-.58,1,1,0,0,1,.68-.21,1.11,1.11,0,0,1,.87.34,1.36,1.36,0,0,1,.31.95,2.33,2.33,0,0,1-.51,1.45,4,4,0,0,1-1.49,1.13Z" transform="translate(-59 -236)"/><path d="M121.43,314.6a5.19,5.19,0,0,0,.86,1.55,2.68,2.68,0,0,0,2.13,1,1.76,1.76,0,0,0,1.19-.44,1.53,1.53,0,0,0,.5-1.22,1.7,1.7,0,0,0-.51-1.22,8.94,8.94,0,0,0-1.39-1l-1.23-.77a4.4,4.4,0,0,1-.88-.71,2.2,2.2,0,0,1-.61-1.5,2.46,2.46,0,0,1,.72-1.81,2.59,2.59,0,0,1,1.92-.72,3.7,3.7,0,0,1,1.19.24,5.05,5.05,0,0,0,.79.24.45.45,0,0,0,.37-.13.92.92,0,0,0,.16-.36h.3l.32,3.07h-.34a3.24,3.24,0,0,0-1.13-1.93,2.66,2.66,0,0,0-1.54-.55,1.61,1.61,0,0,0-1,.35,1.17,1.17,0,0,0-.44,1,1.41,1.41,0,0,0,.34.95,4.32,4.32,0,0,0,1,.84l1.26.78a6.6,6.6,0,0,1,1.67,1.34,2.32,2.32,0,0,1,.48,1.46,2.43,2.43,0,0,1-.85,1.89,3.16,3.16,0,0,1-2.18.76,4.24,4.24,0,0,1-1.4-.25,5.31,5.31,0,0,0-.83-.25.36.36,0,0,0-.34.15,1,1,0,0,0-.12.33h-.32l-.43-3.07Z" transform="translate(-59 -236)"/><path d="M259.28,307.81a2.55,2.55,0,0,1,2.27,1.23,6.5,6.5,0,0,1,.79,3.53,7.47,7.47,0,0,1-.79,3.79,2.49,2.49,0,0,1-2.26,1.32,2.59,2.59,0,0,1-2.35-1.25,7.17,7.17,0,0,1-.78-3.74,6.62,6.62,0,0,1,.82-3.58A2.58,2.58,0,0,1,259.28,307.81Zm1.65,4.35c0-.07,0-.16,0-.27s0-.2,0-.25a6.49,6.49,0,0,0-.4-2.64,1.33,1.33,0,0,0-1.27-.84,1.37,1.37,0,0,0-1.31.94,8.46,8.46,0,0,0-.43,3.06Zm-3.4.51V313a10,10,0,0,0,.39,3.36,1.35,1.35,0,0,0,1.32,1,1.33,1.33,0,0,0,1.32-.94,12,12,0,0,0,.37-3.71Z" transform="translate(-59 -236)"/><path d="M263.62,319.64a5.29,5.29,0,0,0,1.19-1,1.48,1.48,0,0,0,.41-.92.31.31,0,0,0-.06-.22.29.29,0,0,0-.2-.05l-.21,0-.27,0a.81.81,0,0,1-.57-.19.68.68,0,0,1-.21-.52.72.72,0,0,1,.25-.58,1,1,0,0,1,.68-.21,1.11,1.11,0,0,1,.87.34,1.36,1.36,0,0,1,.31.95,2.33,2.33,0,0,1-.51,1.45,4,4,0,0,1-1.49,1.13Z" transform="translate(-59 -236)"/><path d="M265.43,314.6a5.19,5.19,0,0,0,.86,1.55,2.68,2.68,0,0,0,2.13,1,1.76,1.76,0,0,0,1.19-.44,1.53,1.53,0,0,0,.5-1.22,1.7,1.7,0,0,0-.51-1.22,8.94,8.94,0,0,0-1.39-1l-1.23-.77a4.4,4.4,0,0,1-.88-.71,2.2,2.2,0,0,1-.61-1.5,2.46,2.46,0,0,1,.72-1.81,2.59,2.59,0,0,1,1.92-.72,3.7,3.7,0,0,1,1.19.24,5.05,5.05,0,0,0,.79.24.45.45,0,0,0,.37-.13.92.92,0,0,0,.16-.36h.3l.32,3.07h-.34a3.24,3.24,0,0,0-1.13-1.93,2.66,2.66,0,0,0-1.54-.55,1.61,1.61,0,0,0-1,.35,1.17,1.17,0,0,0-.44,1,1.41,1.41,0,0,0,.34.95,4.32,4.32,0,0,0,1,.84l1.26.78a6.59,6.59,0,0,1,1.67,1.34,2.31,2.31,0,0,1,.48,1.46,2.43,2.43,0,0,1-.85,1.89,3.16,3.16,0,0,1-2.18.76,4.24,4.24,0,0,1-1.4-.25,5.31,5.31,0,0,0-.83-.25.36.36,0,0,0-.34.15,1,1,0,0,0-.12.33h-.32l-.43-3.07Z" transform="translate(-59 -236)"/><path d="M326.78,307.81A2.55,2.55,0,0,1,329,309a6.5,6.5,0,0,1,.79,3.53,7.47,7.47,0,0,1-.79,3.79,2.49,2.49,0,0,1-2.26,1.32,2.58,2.58,0,0,1-2.34-1.25,7.16,7.16,0,0,1-.78-3.74,6.62,6.62,0,0,1,.82-3.58A2.58,2.58,0,0,1,326.78,307.81Zm1.65,4.35c0-.07,0-.16,0-.27s0-.2,0-.25A6.48,6.48,0,0,0,328,309a1.32,1.32,0,0,0-1.27-.84,1.37,1.37,0,0,0-1.31.94,8.45,8.45,0,0,0-.43,3.06Zm-3.4.51V313a10,10,0,0,0,.39,3.36,1.35,1.35,0,0,0,1.32,1,1.33,1.33,0,0,0,1.32-.94,12,12,0,0,0,.37-3.71Z" transform="translate(-59 -236)"/><path d="M331.12,319.64a5.29,5.29,0,0,0,1.19-1,1.47,1.47,0,0,0,.41-.92.31.31,0,0,0-.06-.22.28.28,0,0,0-.2-.05l-.21,0-.27,0a.81.81,0,0,1-.57-.19.68.68,0,0,1-.21-.52.72.72,0,0,1,.25-.58,1,1,0,0,1,.68-.21,1.11,1.11,0,0,1,.87.34,1.36,1.36,0,0,1,.31.95,2.33,2.33,0,0,1-.51,1.45,4,4,0,0,1-1.49,1.13Z" transform="translate(-59 -236)"/><path d="M332.93,314.6a5.22,5.22,0,0,0,.86,1.55,2.68,2.68,0,0,0,2.13,1,1.75,1.75,0,0,0,1.19-.44,1.53,1.53,0,0,0,.5-1.22,1.7,1.7,0,0,0-.5-1.22,8.92,8.92,0,0,0-1.39-1l-1.23-.77a4.41,4.41,0,0,1-.89-.71,2.21,2.21,0,0,1-.61-1.5,2.46,2.46,0,0,1,.72-1.81,2.59,2.59,0,0,1,1.92-.72,3.69,3.69,0,0,1,1.18.24,5.09,5.09,0,0,0,.79.24.45.45,0,0,0,.37-.13.9.9,0,0,0,.16-.36h.3l.32,3.07h-.34a3.23,3.23,0,0,0-1.13-1.93,2.66,2.66,0,0,0-1.54-.55,1.61,1.61,0,0,0-1,.35,1.17,1.17,0,0,0-.44,1,1.41,1.41,0,0,0,.34.95,4.32,4.32,0,0,0,1,.84l1.26.78a6.59,6.59,0,0,1,1.67,1.34,2.31,2.31,0,0,1,.48,1.46,2.43,2.43,0,0,1-.85,1.89,3.16,3.16,0,0,1-2.18.76,4.25,4.25,0,0,1-1.4-.25,5.28,5.28,0,0,0-.83-.25.36.36,0,0,0-.34.15,1,1,0,0,0-.12.33H333l-.43-3.07Z" transform="translate(-59 -236)"/><path d="M407.78,375.31a2.55,2.55,0,0,1,2.27,1.23,6.5,6.5,0,0,1,.79,3.53,7.47,7.47,0,0,1-.79,3.79,2.49,2.49,0,0,1-2.26,1.32,2.58,2.58,0,0,1-2.34-1.25,7.16,7.16,0,0,1-.78-3.74,6.62,6.62,0,0,1,.82-3.58A2.58,2.58,0,0,1,407.78,375.31Zm1.65,4.35c0-.07,0-.16,0-.27s0-.2,0-.25a6.48,6.48,0,0,0-.4-2.64,1.32,1.32,0,0,0-1.27-.84,1.37,1.37,0,0,0-1.31.94,8.45,8.45,0,0,0-.43,3.06Zm-3.4.51v.33a10,10,0,0,0,.39,3.36,1.35,1.35,0,0,0,1.32,1,1.33,1.33,0,0,0,1.32-.94,12,12,0,0,0,.37-3.71Z" transform="translate(-59 -236)"/><path d="M412.12,387.14a5.29,5.29,0,0,0,1.19-1,1.47,1.47,0,0,0,.41-.92.31.31,0,0,0-.06-.22.28.28,0,0,0-.2-.05l-.21,0-.27,0a.81.81,0,0,1-.57-.19.68.68,0,0,1-.21-.52.72.72,0,0,1,.25-.58,1,1,0,0,1,.68-.21,1.11,1.11,0,0,1,.87.34,1.36,1.36,0,0,1,.31.95,2.33,2.33,0,0,1-.51,1.45,4,4,0,0,1-1.49,1.13Z" transform="translate(-59 -236)"/><path d="M413.93,382.1a5.22,5.22,0,0,0,.86,1.55,2.68,2.68,0,0,0,2.13,1,1.75,1.75,0,0,0,1.19-.44,1.53,1.53,0,0,0,.5-1.22,1.7,1.7,0,0,0-.5-1.22,8.92,8.92,0,0,0-1.39-1l-1.23-.77a4.41,4.41,0,0,1-.89-.71,2.21,2.21,0,0,1-.61-1.5,2.46,2.46,0,0,1,.72-1.81,2.59,2.59,0,0,1,1.92-.72,3.69,3.69,0,0,1,1.18.24,5.09,5.09,0,0,0,.79.24.45.45,0,0,0,.37-.13.9.9,0,0,0,.16-.36h.3l.32,3.07h-.34a3.23,3.23,0,0,0-1.13-1.93,2.66,2.66,0,0,0-1.54-.55,1.61,1.61,0,0,0-1,.35,1.17,1.17,0,0,0-.44,1,1.41,1.41,0,0,0,.34.95,4.32,4.32,0,0,0,1,.84l1.26.78a6.59,6.59,0,0,1,1.67,1.34,2.31,2.31,0,0,1,.48,1.46,2.43,2.43,0,0,1-.85,1.89,3.16,3.16,0,0,1-2.18.76,4.25,4.25,0,0,1-1.4-.25,5.28,5.28,0,0,0-.83-.25.36.36,0,0,0-.34.15,1,1,0,0,0-.12.33H414l-.43-3.07Z" transform="translate(-59 -236)"/><path d="M255.12,388.14a2.1,2.1,0,0,0-1.28.29,1.39,1.39,0,0,0-.31,1.05v.09a6.15,6.15,0,0,1,3.52,1,3,3,0,0,1,1.26,2.54,2.94,2.94,0,0,1-1.27,2.46,6.53,6.53,0,0,1-3.5,1.11v.17a1.28,1.28,0,0,0,.33,1,2.09,2.09,0,0,0,1.26.3v.32h-4.88v-.32a2.08,2.08,0,0,0,1.27-.3,1.36,1.36,0,0,0,.33-1.06v-.13a6.57,6.57,0,0,1-3.52-1.11,2.94,2.94,0,0,1-1.28-2.46,3,3,0,0,1,1.27-2.54,6.16,6.16,0,0,1,3.53-1v-.09a1.39,1.39,0,0,0-.31-1.06,2.16,2.16,0,0,0-1.3-.29v-.32h4.88ZM251.85,390a3.27,3.27,0,0,0-2.18.93,3.14,3.14,0,0,0,2.18,5.38Zm1.69,0v6.31a3.1,3.1,0,0,0,2.16-.89,3.17,3.17,0,0,0-2.16-5.42Z" transform="translate(-59 -236)"/><path d="M260.13,402.8a1.23,1.23,0,0,0,.76-.28,1.71,1.71,0,0,0,.18-1v-6.75a1.26,1.26,0,0,0-.1-.58q-.1-.19-.5-.19h-.15l-.17,0v-.25l.76-.22.63-.19.67-.21v4.37a4.57,4.57,0,0,1,.79-.75,2.32,2.32,0,0,1,1.34-.42,1.54,1.54,0,0,1,1.55,1,3.31,3.31,0,0,1,.23,1.33v2.87a1.79,1.79,0,0,0,.17,1,1,1,0,0,0,.71.29v.2h-3v-.2a1.31,1.31,0,0,0,.79-.29,1.71,1.71,0,0,0,.18-1v-2.85a2.31,2.31,0,0,0-.23-1.1.89.89,0,0,0-.86-.42,1.72,1.72,0,0,0-1.06.39q-.51.39-.51.51v3.47a1.65,1.65,0,0,0,.18,1,1.36,1.36,0,0,0,.78.28v.2h-3.1Z" transform="translate(-59 -236)"/><path d="M390.09,515a2,2,0,0,0,.95-.32,1.83,1.83,0,0,0,.51-1l2.21-8.07c.06-.23.11-.42.14-.58a2,2,0,0,0,0-.41c0-.3-.08-.5-.25-.58a3.84,3.84,0,0,0-1.06-.19v-.47h5.7v.47a3.41,3.41,0,0,0-1.27.29,1.67,1.67,0,0,0-.54,1l-2.34,8.59c0,.09,0,.18-.06.27a1.69,1.69,0,0,0,0,.29.44.44,0,0,0,.26.43,1.74,1.74,0,0,0,.74.13,7.5,7.5,0,0,0,3.21-.63,5.69,5.69,0,0,0,2.38-2.36l.43.08-1.05,3.5h-10Z" transform="translate(-59 -236)"/><path d="M399.93,497.87h7.27v1h-7.27Z" transform="translate(-59 -236)"/><path d="M411.91,492.39a.66.66,0,0,1,0,.08v8.47c0,.36.1.59.29.69a2.9,2.9,0,0,0,1.08.18v.2h-4v-.21a2.32,2.32,0,0,0,1.11-.23q.26-.19.26-.82v-6.51a1.24,1.24,0,0,0-.08-.51.37.37,0,0,0-.37-.18,1.52,1.52,0,0,0-.47.1l-.54.21v-.2l2.58-1.32h.08Z" transform="translate(-59 -236)"/><path d="M388.51,539.67v5.06a2.06,2.06,0,0,0,.15.86,1.09,1.09,0,0,0,1.08.6,1.83,1.83,0,0,0,1.05-.36,3.09,3.09,0,0,0,.59-.54V541a1,1,0,0,0-.24-.8,1.79,1.79,0,0,0-.95-.23v-.26h2.55v5.57a1.07,1.07,0,0,0,.19.74,1.11,1.11,0,0,0,.82.18v.22l-.64.18-.69.22-.9.34a0,0,0,0,1,0,0,.41.41,0,0,1,0-.08v-1.27a5.38,5.38,0,0,1-1,.95,2.43,2.43,0,0,1-1.42.47,2,2,0,0,1-1.3-.49,1.94,1.94,0,0,1-.62-1.62v-4.11a1,1,0,0,0-.27-.84,1.63,1.63,0,0,0-.74-.19v-.22Z" transform="translate(-59 -236)"/><path d="M397.49,548.32a3.56,3.56,0,0,1-1.24,1l-.15-.32a2.69,2.69,0,0,0,1-.93,1.76,1.76,0,0,0,.29-.83.14.14,0,0,0-.07-.14.37.37,0,0,0-.15,0l-.53.05a1,1,0,0,1-.61-.22.75.75,0,0,1-.28-.63,1,1,0,0,1,.23-.62.89.89,0,0,1,.75-.3,1.24,1.24,0,0,1,.89.39,1.46,1.46,0,0,1,.4,1.09A2.27,2.27,0,0,1,397.49,548.32Z" transform="translate(-59 -236)"/><path d="M401.63,539.65v.25a2.1,2.1,0,0,0-.58.13.34.34,0,0,0-.17.35.81.81,0,0,0,0,.24c0,.08.06.19.12.34l1.66,4,1.41-3.51c.07-.17.13-.36.19-.54a1.57,1.57,0,0,0,.09-.44.46.46,0,0,0-.29-.44,1.64,1.64,0,0,0-.47-.09v-.25h2.25v.25a.74.74,0,0,0-.56.26,5.42,5.42,0,0,0-.5,1l-2.29,5.7a1.2,1.2,0,0,1-.1.21.13.13,0,0,1-.11.06.16.16,0,0,1-.13-.09l-.12-.23L399.65,541a2.31,2.31,0,0,0-.62-1,1.26,1.26,0,0,0-.58-.19v-.25Z" transform="translate(-59 -236)"/><path d="M408.76,537.8a1.27,1.27,0,0,0,.7-.25,1.19,1.19,0,0,0,.2-.83v-3.57a1.65,1.65,0,0,0-.08-.63.55.55,0,0,0-.55-.26h-.13l-.17,0V532l1.36-.44.66-.22s.05,0,.06,0a.33.33,0,0,1,0,.1v1a7.24,7.24,0,0,1,1-.83,2.11,2.11,0,0,1,1.14-.34,1.49,1.49,0,0,1,.87.27,2.18,2.18,0,0,1,.76,1.91v3.28a1.08,1.08,0,0,0,.2.73.89.89,0,0,0,.68.23v.2h-3v-.2a1.21,1.21,0,0,0,.72-.28,1.45,1.45,0,0,0,.2-.93v-3a2,2,0,0,0-.22-1,.86.86,0,0,0-.83-.4,1.52,1.52,0,0,0-.84.28,4.77,4.77,0,0,0-.62.53v3.94a.82.82,0,0,0,.23.68,1.23,1.23,0,0,0,.71.19v.2h-3.07Z" transform="translate(-59 -236)"/><path d="M419.27,530.73h1v3.14h3.14v1h-3.14V538h-1v-3.14h-3.14v-1h3.14Z" transform="translate(-59 -236)"/><path d="M428.11,528.39a.66.66,0,0,1,0,.08v8.47c0,.36.1.59.29.69a2.9,2.9,0,0,0,1.08.18v.2h-4v-.21a2.32,2.32,0,0,0,1.11-.23q.26-.19.26-.82v-6.51a1.24,1.24,0,0,0-.08-.51.37.37,0,0,0-.37-.18,1.52,1.52,0,0,0-.47.1l-.54.21v-.2l2.58-1.32h.08Z" transform="translate(-59 -236)"/><g class="cls-6"><path class="cls-4" d="M269,340A90,90,0,0,0,377,340" transform="translate(-59 -236)"/></g><polygon class="cls-5" points="306.06 115.7 316.38 105.02 302.22 109.64 306.06 115.7 306.06 115.7"/><g class="cls-7"><path class="cls-4" d="M269,475A90,90,0,0,0,377,475" transform="translate(-59 -236)"/></g><polygon class="cls-5" points="306.06 250.7 316.38 240.02 302.22 244.64 306.06 250.7 306.06 250.7"/><g class="cls-8"><path class="cls-9" d="M237.46,461.47a90,90,0,0,1,0-143.94" transform="translate(-59 -236)"/></g><polygon class="cls-10" points="173.28 88.04 177.72 82.1 171 85.22 173.28 88.04 173.28 88.04"/><line class="cls-11" x1="79.5" y1="68" x2="174" y2="68"/><g class="cls-12"><line class="cls-11" x1="210" y1="68" x2="246" y2="68"/></g><polygon class="cls-5" points="229.68 71.6 244.08 68 229.68 64.4 229.68 71.6 229.68 71.6"/><g class="cls-13"><line class="cls-14" x1="264" y1="86" x2="264" y2="117.5"/></g><polyline class="cls-14" points="262.2 109.28 264 116.48 265.8 109.28"/><g class="cls-15"><line class="cls-14" x1="192" y1="108.5" x2="192" y2="144.5"/></g><polyline class="cls-14" points="190.2 136.28 192 143.48 193.8 136.28"/><g class="cls-16"><line class="cls-14" x1="336" y1="149" x2="336" y2="162.5"/></g><path class="cls-14" d="M393.2,390.28l1.8,7.2,1.8-7.2M395,344.5V358" transform="translate(-59 -236)"/><g class="cls-17"><line class="cls-14" x1="192" y1="167" x2="192" y2="194"/></g><polyline class="cls-14" points="190.2 185.78 192 192.98 193.8 185.78"/><line class="cls-11" x1="79.5" y1="203" x2="174" y2="203"/><g class="cls-18"><line class="cls-11" x1="210" y1="203" x2="246" y2="203"/></g><polygon class="cls-5" points="229.68 206.6 244.08 203 229.68 199.4 229.68 206.6 229.68 206.6"/><line class="cls-14" x1="336" y1="248" x2="336" y2="257"/><g class="cls-19"><line class="cls-14" x1="264" y1="221" x2="264" y2="252.5"/></g><polyline class="cls-14" points="262.2 244.28 264 251.48 265.8 244.28"/><g class="cls-20"><line class="cls-14" x1="336" y1="284" x2="336" y2="297.5"/></g><polyline class="cls-14" points="334.2 289.28 336 296.48 337.8 289.28"/><path d="M120.76,330.8a1.28,1.28,0,0,0,.7-.25,1.19,1.19,0,0,0,.2-.83v-3.57a1.64,1.64,0,0,0-.08-.63.55.55,0,0,0-.55-.27h-.13l-.17,0V325l1.36-.44.66-.22s.05,0,.06,0a.37.37,0,0,1,0,.1v1a7.2,7.2,0,0,1,1-.83,2.11,2.11,0,0,1,1.14-.34,1.49,1.49,0,0,1,.87.27,2.17,2.17,0,0,1,.76,1.91v3.28a1.08,1.08,0,0,0,.2.73.89.89,0,0,0,.68.23v.2h-3v-.2a1.2,1.2,0,0,0,.72-.28,1.44,1.44,0,0,0,.2-.93v-3a2,2,0,0,0-.22-1,.86.86,0,0,0-.82-.4,1.52,1.52,0,0,0-.84.28,4.82,4.82,0,0,0-.62.53v3.94a.82.82,0,0,0,.23.68,1.23,1.23,0,0,0,.71.19v.2h-3.07Z" transform="translate(-59 -236)"/><path d="M128.13,326.87h7.27v1h-7.27Z" transform="translate(-59 -236)"/><path d="M140.11,321.39a.55.55,0,0,1,0,.08v8.47q0,.54.29.69a2.91,2.91,0,0,0,1.08.18v.2h-4v-.21a2.33,2.33,0,0,0,1.11-.23q.26-.19.26-.82v-6.51a1.23,1.23,0,0,0-.08-.51.37.37,0,0,0-.37-.18,1.52,1.52,0,0,0-.47.1l-.54.21v-.2l2.58-1.31h.08Z" transform="translate(-59 -236)"/><path d="M264.76,330.8a1.28,1.28,0,0,0,.7-.25,1.19,1.19,0,0,0,.2-.83v-3.57a1.64,1.64,0,0,0-.08-.63.55.55,0,0,0-.55-.27h-.13l-.17,0V325l1.36-.44.66-.22s.05,0,.06,0a.37.37,0,0,1,0,.1v1a7.2,7.2,0,0,1,1-.83,2.11,2.11,0,0,1,1.14-.34,1.49,1.49,0,0,1,.87.27,2.17,2.17,0,0,1,.76,1.91v3.28a1.08,1.08,0,0,0,.2.73.9.9,0,0,0,.68.23v.2h-3v-.2a1.2,1.2,0,0,0,.72-.28,1.44,1.44,0,0,0,.2-.93v-3a2,2,0,0,0-.22-1,.86.86,0,0,0-.82-.4,1.52,1.52,0,0,0-.84.28,4.82,4.82,0,0,0-.62.53v3.94a.82.82,0,0,0,.23.68,1.23,1.23,0,0,0,.71.19v.2h-3.07Z" transform="translate(-59 -236)"/><path d="M410.16,324.83a5.2,5.2,0,0,0,1.68-.6,6.84,6.84,0,0,0-1.7-.63q-.69-.18-.69-.6a.48.48,0,0,1,.15-.37.5.5,0,0,1,.34-.13q.29,0,.75.53a4.8,4.8,0,0,0,1.25,1v-.18a3.83,3.83,0,0,0-.19-1.17,3.22,3.22,0,0,1-.19-.82.55.55,0,0,1,.15-.42.51.51,0,0,1,.36-.14.46.46,0,0,1,.38.16.61.61,0,0,1,.13.4,3.4,3.4,0,0,1-.2.75,4.32,4.32,0,0,0-.18,1.42l.71-.51a2.69,2.69,0,0,0,.3-.29,7.79,7.79,0,0,1,.63-.63.56.56,0,0,1,.34-.09.47.47,0,0,1,.36.15.51.51,0,0,1,.14.37q0,.43-.64.57a5.19,5.19,0,0,0-1.74.65l.12.07a5.42,5.42,0,0,0,1.64.55q.62.13.62.61a.43.43,0,0,1-.18.38.65.65,0,0,1-.36.12q-.29,0-.8-.6a3.32,3.32,0,0,0-1-.86l-.1,0v.1a4.11,4.11,0,0,0,.2,1.38,3.14,3.14,0,0,1,.2.68.6.6,0,0,1-.16.41.52.52,0,0,1-.41.18.44.44,0,0,1-.37-.17.64.64,0,0,1-.13-.41s.08-.34.24-.88a2.79,2.79,0,0,0,.16-1.19l0-.1a4.22,4.22,0,0,0-1.12.92q-.52.59-.84.59a.46.46,0,0,1-.38-.15.48.48,0,0,1-.12-.32Q409.45,325,410.16,324.83Z" transform="translate(-59 -236)"/><path d="M105.85,302.35a7.61,7.61,0,0,0,1,.26.72.72,0,0,0,.49-.13,1.06,1.06,0,0,0,.25-.39H108l.13,3.41h-.37a6.19,6.19,0,0,0-1-1.76,3.27,3.27,0,0,0-2.49-1,3.76,3.76,0,0,0-2.74,1.18,5.36,5.36,0,0,0-1.18,3.9,4.91,4.91,0,0,0,1.18,3.5,3.83,3.83,0,0,0,2.91,1.26,5.1,5.1,0,0,0,.69-.06,4.24,4.24,0,0,0,.75-.17,2.2,2.2,0,0,0,.72-.33.54.54,0,0,0,.14-.41V309q0-.94-.27-1.17a2.14,2.14,0,0,0-1.16-.29v-.3h4.13v.3a1.55,1.55,0,0,0-.8.2,1.27,1.27,0,0,0-.33,1V312q0,.28-1.4.76a8.33,8.33,0,0,1-2.69.47,6,6,0,0,1-4-1.38,5.1,5.1,0,0,1-1.8-4.1,5.64,5.64,0,0,1,1.43-3.88,5.3,5.3,0,0,1,4.18-1.78A6.67,6.67,0,0,1,105.85,302.35Z" transform="translate(-59 -236)"/><path d="M111.76,303.8a1.28,1.28,0,0,0,.7-.25,1.19,1.19,0,0,0,.2-.83v-3.57a1.64,1.64,0,0,0-.08-.63.55.55,0,0,0-.55-.27h-.13l-.17,0V298l1.36-.44.66-.22s.05,0,.06,0a.37.37,0,0,1,0,.1v1a7.2,7.2,0,0,1,1-.83,2.11,2.11,0,0,1,1.14-.34,1.49,1.49,0,0,1,.87.27,2.17,2.17,0,0,1,.76,1.91v3.28a1.08,1.08,0,0,0,.2.73.89.89,0,0,0,.68.23v.2h-3v-.2a1.2,1.2,0,0,0,.72-.28,1.44,1.44,0,0,0,.2-.93v-3a2,2,0,0,0-.22-1,.86.86,0,0,0-.82-.4,1.52,1.52,0,0,0-.84.28,4.82,4.82,0,0,0-.62.53v3.94a.82.82,0,0,0,.23.68,1.23,1.23,0,0,0,.71.19v.2h-3.07Z" transform="translate(-59 -236)"/><path d="M119.13,299.87h7.27v1h-7.27Z" transform="translate(-59 -236)"/><path d="M131.11,294.39a.55.55,0,0,1,0,.08v8.47q0,.54.29.69a2.91,2.91,0,0,0,1.08.18v.2h-4v-.21a2.33,2.33,0,0,0,1.11-.23q.26-.19.26-.82v-6.51a1.23,1.23,0,0,0-.08-.51.37.37,0,0,0-.37-.18,1.52,1.52,0,0,0-.47.1l-.54.21v-.2l2.58-1.31h.08Z" transform="translate(-59 -236)"/><path d="M317.35,302.35a7.65,7.65,0,0,0,1,.26.73.73,0,0,0,.5-.13,1.06,1.06,0,0,0,.25-.39h.36l.13,3.41h-.37a6.19,6.19,0,0,0-1-1.76,3.27,3.27,0,0,0-2.49-1,3.76,3.76,0,0,0-2.74,1.18,5.37,5.37,0,0,0-1.18,3.9,4.91,4.91,0,0,0,1.18,3.5,3.83,3.83,0,0,0,2.91,1.26,5.08,5.08,0,0,0,.69-.06,4.25,4.25,0,0,0,.75-.17,2.2,2.2,0,0,0,.72-.33.54.54,0,0,0,.14-.41V309q0-.94-.26-1.17a2.14,2.14,0,0,0-1.16-.29v-.3h4.13v.3a1.55,1.55,0,0,0-.8.2,1.27,1.27,0,0,0-.33,1V312q0,.28-1.4.76a8.33,8.33,0,0,1-2.69.47,6,6,0,0,1-4-1.38,5.1,5.1,0,0,1-1.8-4.1,5.64,5.64,0,0,1,1.43-3.88,5.3,5.3,0,0,1,4.18-1.78A6.67,6.67,0,0,1,317.35,302.35Z" transform="translate(-59 -236)"/><path d="M249.85,302.35a7.61,7.61,0,0,0,1,.26.72.72,0,0,0,.49-.13,1.06,1.06,0,0,0,.25-.39H252l.13,3.41h-.37a6.19,6.19,0,0,0-1-1.76,3.27,3.27,0,0,0-2.49-1,3.76,3.76,0,0,0-2.74,1.18,5.36,5.36,0,0,0-1.18,3.9,4.91,4.91,0,0,0,1.18,3.5,3.83,3.83,0,0,0,2.91,1.26,5.1,5.1,0,0,0,.69-.06,4.24,4.24,0,0,0,.75-.17,2.2,2.2,0,0,0,.72-.33.54.54,0,0,0,.14-.41V309q0-.94-.27-1.17a2.14,2.14,0,0,0-1.16-.29v-.3h4.13v.3a1.55,1.55,0,0,0-.8.2,1.27,1.27,0,0,0-.33,1V312q0,.28-1.4.76a8.33,8.33,0,0,1-2.69.47,6,6,0,0,1-4-1.38,5.1,5.1,0,0,1-1.8-4.1,5.64,5.64,0,0,1,1.43-3.88,5.3,5.3,0,0,1,4.18-1.78A6.67,6.67,0,0,1,249.85,302.35Z" transform="translate(-59 -236)"/><path d="M255.76,303.8a1.28,1.28,0,0,0,.7-.25,1.19,1.19,0,0,0,.2-.83v-3.57a1.64,1.64,0,0,0-.08-.63.55.55,0,0,0-.55-.27h-.13l-.17,0V298l1.36-.44.66-.22s.05,0,.06,0a.37.37,0,0,1,0,.1v1a7.2,7.2,0,0,1,1-.83,2.11,2.11,0,0,1,1.14-.34,1.49,1.49,0,0,1,.87.27,2.17,2.17,0,0,1,.76,1.91v3.28a1.08,1.08,0,0,0,.2.73.89.89,0,0,0,.68.23v.2h-3v-.2a1.2,1.2,0,0,0,.72-.28,1.44,1.44,0,0,0,.2-.93v-3a2,2,0,0,0-.22-1,.86.86,0,0,0-.82-.4,1.52,1.52,0,0,0-.84.28,4.82,4.82,0,0,0-.62.53v3.94a.82.82,0,0,0,.23.68,1.23,1.23,0,0,0,.71.19v.2h-3.07Z" transform="translate(-59 -236)"/><path d="M325.12,296.09a7.23,7.23,0,0,1,2.12-1.82l.13.23a6.42,6.42,0,0,0-1.62,1.75,7.92,7.92,0,0,0-.85,4,11.73,11.73,0,0,0,.32,3,5.19,5.19,0,0,0,2.14,3.11l-.18.23a6,6,0,0,1-1.87-1.62,6.93,6.93,0,0,1-1.67-4.56A6.73,6.73,0,0,1,325.12,296.09Z" transform="translate(-59 -236)"/><path d="M328.05,303.8a1.28,1.28,0,0,0,.7-.25,1.19,1.19,0,0,0,.2-.83v-3.57a1.65,1.65,0,0,0-.08-.63.55.55,0,0,0-.55-.27h-.13l-.17,0V298l1.36-.44.66-.22s.05,0,.06,0a.33.33,0,0,1,0,.1v1a7.2,7.2,0,0,1,1-.83,2.11,2.11,0,0,1,1.14-.34,1.48,1.48,0,0,1,.87.27,2.17,2.17,0,0,1,.76,1.91v3.28a1.08,1.08,0,0,0,.2.73.89.89,0,0,0,.68.23v.2h-3v-.2a1.21,1.21,0,0,0,.72-.28,1.45,1.45,0,0,0,.2-.93v-3a2,2,0,0,0-.22-1,.86.86,0,0,0-.83-.4,1.52,1.52,0,0,0-.84.28,4.86,4.86,0,0,0-.62.53v3.94a.82.82,0,0,0,.23.68,1.23,1.23,0,0,0,.71.19v.2h-3.07Z" transform="translate(-59 -236)"/><path d="M338.57,296.73h1v3.14h3.14v1h-3.14V304h-1v-3.14h-3.14v-1h3.14Z" transform="translate(-59 -236)"/><path d="M343.95,300.17a1.47,1.47,0,0,0,.69-.16.55.55,0,0,0,.19-.49v-4a.85.85,0,0,0,0-.31c0-.07-.11-.11-.22-.11a.83.83,0,0,0-.25,0l-.37.14v-.12l1.62-.8h0v5.12a.62.62,0,0,0,.16.49,1.4,1.4,0,0,0,.73.16v.12h-2.57Zm6.83-5.86h.67l-6,9.8h-.7Zm-2,9.62a32.1,32.1,0,0,0,2.35-2.42,2.22,2.22,0,0,0,.53-1.4,1.18,1.18,0,0,0-.4-.94,1.28,1.28,0,0,0-.84-.34,1.18,1.18,0,0,0-.87.3,2.7,2.7,0,0,0-.53.85l-.25-.07a2.7,2.7,0,0,1,.7-1.31,1.77,1.77,0,0,1,1.27-.45,1.86,1.86,0,0,1,1.21.41,1.38,1.38,0,0,1,.51,1.13,2.45,2.45,0,0,1-.4,1.31,8.41,8.41,0,0,1-1.45,1.59l-.85.83h1.32a5,5,0,0,0,1.16-.07,1.27,1.27,0,0,0,.49-.52l.17.07-.47,1.18h-3.65Z" transform="translate(-59 -236)"/><path d="M357.74,302.44a6.88,6.88,0,0,1-.8,1.77,7,7,0,0,1-1.48,1.65,5.65,5.65,0,0,1-1,.71l-.13-.23a6,6,0,0,0,1.58-1.68,7.92,7.92,0,0,0,.89-4,11.07,11.07,0,0,0-.41-3.3,5.28,5.28,0,0,0-2.06-2.84l.18-.23a6.84,6.84,0,0,1,2.07,1.87,6.94,6.94,0,0,1,1.47,4.32A7,7,0,0,1,357.74,302.44Z" transform="translate(-59 -236)"/><path d="M120.76,470.3a1.27,1.27,0,0,0,.7-.25,1.19,1.19,0,0,0,.2-.83v-3.57a1.64,1.64,0,0,0-.08-.63.55.55,0,0,0-.55-.26h-.13l-.17,0v-.25l1.36-.44.66-.22s.05,0,.06,0a.37.37,0,0,1,0,.1v1a7.24,7.24,0,0,1,1-.83,2.11,2.11,0,0,1,1.14-.34,1.49,1.49,0,0,1,.87.27,2.18,2.18,0,0,1,.76,1.91v3.28a1.08,1.08,0,0,0,.2.73.89.89,0,0,0,.68.23v.2h-3v-.2a1.21,1.21,0,0,0,.72-.28,1.44,1.44,0,0,0,.2-.93v-3a2,2,0,0,0-.22-1,.86.86,0,0,0-.82-.4,1.52,1.52,0,0,0-.84.28,4.73,4.73,0,0,0-.62.53v3.94a.82.82,0,0,0,.23.68,1.23,1.23,0,0,0,.71.19v.2h-3.07Z" transform="translate(-59 -236)"/><path d="M128.13,466.37h7.27v1h-7.27Z" transform="translate(-59 -236)"/><path d="M140.11,460.89a.55.55,0,0,1,0,.08v8.47c0,.36.1.59.29.69a2.9,2.9,0,0,0,1.08.18v.2h-4v-.21a2.32,2.32,0,0,0,1.11-.23q.26-.19.26-.82v-6.51a1.23,1.23,0,0,0-.08-.51.36.36,0,0,0-.37-.18,1.51,1.51,0,0,0-.47.1l-.54.21v-.2l2.58-1.32h.08Z" transform="translate(-59 -236)"/><path d="M264.76,470.3a1.27,1.27,0,0,0,.7-.25,1.19,1.19,0,0,0,.2-.83v-3.57a1.64,1.64,0,0,0-.08-.63.55.55,0,0,0-.55-.26h-.13l-.17,0v-.25l1.36-.44.66-.22s.05,0,.06,0a.37.37,0,0,1,0,.1v1a7.24,7.24,0,0,1,1-.83,2.11,2.11,0,0,1,1.14-.34,1.49,1.49,0,0,1,.87.27,2.18,2.18,0,0,1,.76,1.91v3.28a1.08,1.08,0,0,0,.2.73.89.89,0,0,0,.68.23v.2h-3v-.2a1.21,1.21,0,0,0,.72-.28,1.44,1.44,0,0,0,.2-.93v-3a2,2,0,0,0-.22-1,.86.86,0,0,0-.82-.4,1.52,1.52,0,0,0-.84.28,4.73,4.73,0,0,0-.62.53v3.94a.82.82,0,0,0,.23.68,1.23,1.23,0,0,0,.71.19v.2h-3.07Z" transform="translate(-59 -236)"/><path d="M410.16,464.33a5.2,5.2,0,0,0,1.68-.6,6.88,6.88,0,0,0-1.7-.63q-.69-.18-.69-.6a.47.47,0,0,1,.15-.37.5.5,0,0,1,.34-.13q.29,0,.75.53a4.79,4.79,0,0,0,1.25,1v-.18a3.82,3.82,0,0,0-.19-1.17,3.24,3.24,0,0,1-.19-.82.55.55,0,0,1,.15-.42.5.5,0,0,1,.36-.14.46.46,0,0,1,.38.16.61.61,0,0,1,.13.4,3.39,3.39,0,0,1-.2.75,4.33,4.33,0,0,0-.18,1.42l.71-.5a2.74,2.74,0,0,0,.3-.29,7.53,7.53,0,0,1,.63-.63.56.56,0,0,1,.34-.09.47.47,0,0,1,.36.15.51.51,0,0,1,.14.37c0,.29-.21.48-.64.57a5.18,5.18,0,0,0-1.74.65l.12.07a5.4,5.4,0,0,0,1.64.55q.62.13.62.61a.43.43,0,0,1-.18.38.64.64,0,0,1-.36.12q-.29,0-.8-.6a3.33,3.33,0,0,0-1-.86l-.1,0v.1a4.11,4.11,0,0,0,.2,1.38,3.13,3.13,0,0,1,.2.68.6.6,0,0,1-.16.41.53.53,0,0,1-.41.18.44.44,0,0,1-.37-.17.64.64,0,0,1-.13-.41s.08-.34.24-.88a2.79,2.79,0,0,0,.16-1.19l0-.1a4.22,4.22,0,0,0-1.12.92q-.52.59-.84.59a.46.46,0,0,1-.38-.15.49.49,0,0,1-.12-.32Q409.45,464.48,410.16,464.33Z" transform="translate(-59 -236)"/><path d="M100.51,467.67v5.06a2.07,2.07,0,0,0,.15.86,1.09,1.09,0,0,0,1.08.6,1.83,1.83,0,0,0,1.05-.36,3.12,3.12,0,0,0,.59-.54V469a1,1,0,0,0-.24-.8,1.79,1.79,0,0,0-.95-.23v-.26h2.56v5.57a1.07,1.07,0,0,0,.19.74,1.11,1.11,0,0,0,.82.18v.22l-.64.18-.69.22-.9.34a0,0,0,0,1,0,0,.38.38,0,0,1,0-.08v-1.27a5.38,5.38,0,0,1-1,.95,2.43,2.43,0,0,1-1.42.47,2,2,0,0,1-1.3-.49,1.94,1.94,0,0,1-.62-1.62v-4.11a1,1,0,0,0-.27-.84,1.63,1.63,0,0,0-.74-.19v-.22Z" transform="translate(-59 -236)"/><path d="M109.49,476.32a3.56,3.56,0,0,1-1.24,1l-.15-.32a2.68,2.68,0,0,0,1-.93,1.76,1.76,0,0,0,.29-.83.14.14,0,0,0-.07-.14.38.38,0,0,0-.15,0l-.53.05a1,1,0,0,1-.61-.22.75.75,0,0,1-.28-.63,1,1,0,0,1,.23-.62.89.89,0,0,1,.75-.3,1.24,1.24,0,0,1,.89.39,1.46,1.46,0,0,1,.4,1.09A2.27,2.27,0,0,1,109.49,476.32Z" transform="translate(-59 -236)"/><path d="M113.63,467.65v.25a2.1,2.1,0,0,0-.58.13.34.34,0,0,0-.17.35.8.8,0,0,0,0,.24c0,.08.06.19.12.34l1.66,4,1.41-3.51q.1-.26.19-.54a1.56,1.56,0,0,0,.09-.44.46.46,0,0,0-.29-.44,1.64,1.64,0,0,0-.47-.09v-.25h2.25v.25a.74.74,0,0,0-.56.26,5.44,5.44,0,0,0-.49,1l-2.29,5.7a1.23,1.23,0,0,1-.1.21.13.13,0,0,1-.11.06.16.16,0,0,1-.13-.09,2.31,2.31,0,0,1-.12-.23L111.65,469a2.31,2.31,0,0,0-.62-1,1.26,1.26,0,0,0-.58-.19v-.25Z" transform="translate(-59 -236)"/><path d="M244.51,467.67v5.06a2.07,2.07,0,0,0,.15.86,1.09,1.09,0,0,0,1.08.6,1.83,1.83,0,0,0,1.05-.36,3.12,3.12,0,0,0,.59-.54V469a1,1,0,0,0-.24-.8,1.79,1.79,0,0,0-.95-.23v-.26h2.56v5.57a1.07,1.07,0,0,0,.19.74,1.11,1.11,0,0,0,.82.18v.22l-.64.18-.69.22-.9.34a0,0,0,0,1,0,0,.38.38,0,0,1,0-.08v-1.27a5.38,5.38,0,0,1-1,.95,2.43,2.43,0,0,1-1.42.47,2,2,0,0,1-1.3-.49,1.94,1.94,0,0,1-.62-1.62v-4.11a1,1,0,0,0-.27-.84,1.63,1.63,0,0,0-.74-.19v-.22Z" transform="translate(-59 -236)"/><path d="M253.49,476.32a3.56,3.56,0,0,1-1.24,1l-.15-.32a2.68,2.68,0,0,0,1-.93,1.76,1.76,0,0,0,.29-.83.14.14,0,0,0-.07-.14.38.38,0,0,0-.15,0l-.53.05a1,1,0,0,1-.61-.22.75.75,0,0,1-.28-.63,1,1,0,0,1,.23-.62.89.89,0,0,1,.75-.3,1.24,1.24,0,0,1,.89.39,1.46,1.46,0,0,1,.4,1.09A2.27,2.27,0,0,1,253.49,476.32Z" transform="translate(-59 -236)"/><path d="M257.63,467.65v.25a2.1,2.1,0,0,0-.58.13.34.34,0,0,0-.17.35.8.8,0,0,0,0,.24c0,.08.06.19.12.34l1.66,4,1.41-3.51q.1-.26.19-.54a1.56,1.56,0,0,0,.09-.44.46.46,0,0,0-.29-.44,1.64,1.64,0,0,0-.47-.09v-.25h2.25v.25a.74.74,0,0,0-.56.26,5.44,5.44,0,0,0-.49,1l-2.29,5.7a1.23,1.23,0,0,1-.1.21.13.13,0,0,1-.11.06.16.16,0,0,1-.13-.09,2.31,2.31,0,0,1-.12-.23L255.65,469a2.31,2.31,0,0,0-.62-1,1.26,1.26,0,0,0-.58-.19v-.25Z" transform="translate(-59 -236)"/><path d="M388.51,467.67v5.06a2.06,2.06,0,0,0,.15.86,1.09,1.09,0,0,0,1.08.6,1.83,1.83,0,0,0,1.05-.36,3.09,3.09,0,0,0,.59-.54V469a1,1,0,0,0-.24-.8,1.79,1.79,0,0,0-.95-.23v-.26h2.55v5.57a1.07,1.07,0,0,0,.19.74,1.11,1.11,0,0,0,.82.18v.22l-.64.18-.69.22-.9.34a0,0,0,0,1,0,0,.41.41,0,0,1,0-.08v-1.27a5.38,5.38,0,0,1-1,.95,2.43,2.43,0,0,1-1.42.47,2,2,0,0,1-1.3-.49,1.94,1.94,0,0,1-.62-1.62v-4.11a1,1,0,0,0-.27-.84,1.63,1.63,0,0,0-.74-.19v-.22Z" transform="translate(-59 -236)"/><path d="M397.49,476.32a3.56,3.56,0,0,1-1.24,1l-.15-.32a2.69,2.69,0,0,0,1-.93,1.76,1.76,0,0,0,.29-.83.14.14,0,0,0-.07-.14.37.37,0,0,0-.15,0l-.53.05a1,1,0,0,1-.61-.22.75.75,0,0,1-.28-.63,1,1,0,0,1,.23-.62.89.89,0,0,1,.75-.3,1.24,1.24,0,0,1,.89.39,1.46,1.46,0,0,1,.4,1.09A2.27,2.27,0,0,1,397.49,476.32Z" transform="translate(-59 -236)"/><path d="M401.63,467.65v.25a2.1,2.1,0,0,0-.58.13.34.34,0,0,0-.17.35.81.81,0,0,0,0,.24c0,.08.06.19.12.34l1.66,4,1.41-3.51c.07-.17.13-.36.19-.54a1.57,1.57,0,0,0,.09-.44.46.46,0,0,0-.29-.44,1.64,1.64,0,0,0-.47-.09v-.25h2.25v.25a.74.74,0,0,0-.56.26,5.42,5.42,0,0,0-.5,1l-2.29,5.7a1.2,1.2,0,0,1-.1.21.13.13,0,0,1-.11.06.16.16,0,0,1-.13-.09l-.12-.23L399.65,469a2.31,2.31,0,0,0-.62-1,1.26,1.26,0,0,0-.58-.19v-.25Z" transform="translate(-59 -236)"/><path d="M113.73,446v4.5a1.85,1.85,0,0,0,.13.77,1,1,0,0,0,1,.53,1.63,1.63,0,0,0,.94-.32,2.76,2.76,0,0,0,.53-.49v-3.85a.9.9,0,0,0-.21-.71,1.6,1.6,0,0,0-.84-.2V446h2.27v5a1,1,0,0,0,.17.66,1,1,0,0,0,.73.16v.2l-.57.16-.61.19-.8.3a0,0,0,0,1,0,0,.37.37,0,0,1,0-.07v-1.13a4.74,4.74,0,0,1-.87.84,2.16,2.16,0,0,1-1.27.42,1.81,1.81,0,0,1-1.15-.44,1.73,1.73,0,0,1-.55-1.44V447.1a.92.92,0,0,0-.24-.75,1.45,1.45,0,0,0-.66-.17V446Z" transform="translate(-59 -236)"/><path d="M121.72,453.67a3.16,3.16,0,0,1-1.1.88l-.13-.28a2.39,2.39,0,0,0,.93-.82,1.56,1.56,0,0,0,.26-.74.12.12,0,0,0-.06-.13l-.13,0-.47,0a.86.86,0,0,1-.54-.19.67.67,0,0,1-.25-.56.89.89,0,0,1,.2-.55.79.79,0,0,1,.67-.27,1.1,1.1,0,0,1,.79.35,1.3,1.3,0,0,1,.35,1A2,2,0,0,1,121.72,453.67Z" transform="translate(-59 -236)"/><path d="M125.39,446v.22a1.85,1.85,0,0,0-.52.11.3.3,0,0,0-.15.31.73.73,0,0,0,0,.21q0,.1.11.3l1.48,3.53,1.25-3.12c.06-.16.12-.32.17-.49a1.41,1.41,0,0,0,.08-.39.41.41,0,0,0-.26-.39,1.47,1.47,0,0,0-.42-.08V446h2v.22a.66.66,0,0,0-.5.23,4.9,4.9,0,0,0-.44.92l-2,5.06a1,1,0,0,1-.09.18.11.11,0,0,1-.1,0,.14.14,0,0,1-.12-.08l-.11-.2-2.15-5.15a2.07,2.07,0,0,0-.56-.85,1.12,1.12,0,0,0-.51-.17V446Z" transform="translate(-59 -236)"/><path d="M105.85,437.35a7.54,7.54,0,0,0,1,.26.72.72,0,0,0,.49-.13,1.06,1.06,0,0,0,.25-.39H108l.13,3.41h-.37a6.2,6.2,0,0,0-1-1.76,3.27,3.27,0,0,0-2.49-1,3.76,3.76,0,0,0-2.74,1.18,5.36,5.36,0,0,0-1.18,3.9,4.92,4.92,0,0,0,1.18,3.5,3.83,3.83,0,0,0,2.91,1.26,5,5,0,0,0,.69-.06,4.24,4.24,0,0,0,.75-.17,2.2,2.2,0,0,0,.72-.33.54.54,0,0,0,.14-.41V444q0-.94-.27-1.17a2.13,2.13,0,0,0-1.16-.29v-.3h4.13v.3a1.55,1.55,0,0,0-.8.2,1.27,1.27,0,0,0-.33,1V447q0,.29-1.4.76a8.33,8.33,0,0,1-2.69.47,6,6,0,0,1-4-1.38,5.1,5.1,0,0,1-1.8-4.1,5.64,5.64,0,0,1,1.43-3.88,5.3,5.3,0,0,1,4.18-1.78A6.68,6.68,0,0,1,105.85,437.35Z" transform="translate(-59 -236)"/><path d="M111.76,438.8a1.27,1.27,0,0,0,.7-.25,1.19,1.19,0,0,0,.2-.83v-3.57a1.64,1.64,0,0,0-.08-.63.55.55,0,0,0-.55-.26h-.13l-.17,0V433l1.36-.44.66-.22s.05,0,.06,0a.37.37,0,0,1,0,.1v1a7.24,7.24,0,0,1,1-.83,2.11,2.11,0,0,1,1.14-.34,1.49,1.49,0,0,1,.87.27,2.18,2.18,0,0,1,.76,1.91v3.28a1.08,1.08,0,0,0,.2.73.89.89,0,0,0,.68.23v.2h-3v-.2a1.21,1.21,0,0,0,.72-.28,1.44,1.44,0,0,0,.2-.93v-3a2,2,0,0,0-.22-1,.86.86,0,0,0-.82-.4,1.52,1.52,0,0,0-.84.28,4.73,4.73,0,0,0-.62.53v3.94a.82.82,0,0,0,.23.68,1.23,1.23,0,0,0,.71.19v.2h-3.07Z" transform="translate(-59 -236)"/><path d="M119.13,434.87h7.27v1h-7.27Z" transform="translate(-59 -236)"/><path d="M131.11,429.39a.55.55,0,0,1,0,.08v8.47c0,.36.1.59.29.69a2.9,2.9,0,0,0,1.08.18v.2h-4v-.21a2.32,2.32,0,0,0,1.11-.23q.26-.19.26-.82v-6.51a1.23,1.23,0,0,0-.08-.51.36.36,0,0,0-.37-.18,1.51,1.51,0,0,0-.47.1l-.54.21v-.2l2.58-1.32h.08Z" transform="translate(-59 -236)"/><path d="M406.23,513.49V518a1.85,1.85,0,0,0,.13.77,1,1,0,0,0,1,.53,1.63,1.63,0,0,0,.94-.32,2.73,2.73,0,0,0,.53-.49v-3.85a.9.9,0,0,0-.21-.71,1.6,1.6,0,0,0-.84-.2v-.23H410v5a1,1,0,0,0,.17.66,1,1,0,0,0,.73.16v.2l-.57.16-.61.19-.8.3a0,0,0,0,1,0,0,.33.33,0,0,1,0-.07v-1.13a4.75,4.75,0,0,1-.87.84,2.16,2.16,0,0,1-1.27.42,1.81,1.81,0,0,1-1.15-.44,1.72,1.72,0,0,1-.55-1.44V514.6a.92.92,0,0,0-.24-.75,1.45,1.45,0,0,0-.66-.17v-.2Z" transform="translate(-59 -236)"/><path d="M414.22,521.17a3.16,3.16,0,0,1-1.1.88l-.13-.28a2.41,2.41,0,0,0,.93-.82,1.56,1.56,0,0,0,.26-.74.12.12,0,0,0-.06-.13l-.13,0-.47,0a.86.86,0,0,1-.54-.19.67.67,0,0,1-.25-.56.9.9,0,0,1,.2-.55.79.79,0,0,1,.67-.27,1.1,1.1,0,0,1,.79.35,1.3,1.3,0,0,1,.35,1A2,2,0,0,1,414.22,521.17Z" transform="translate(-59 -236)"/><path d="M417.89,513.47v.22a1.85,1.85,0,0,0-.52.11.3.3,0,0,0-.15.31.74.74,0,0,0,0,.21c0,.07.06.17.11.3l1.48,3.53,1.25-3.12c.06-.16.12-.32.17-.49a1.41,1.41,0,0,0,.08-.39.41.41,0,0,0-.26-.39,1.46,1.46,0,0,0-.42-.08v-.22h2v.22a.66.66,0,0,0-.5.23,4.78,4.78,0,0,0-.44.92l-2,5.06a1.08,1.08,0,0,1-.09.18.11.11,0,0,1-.1,0,.14.14,0,0,1-.12-.08l-.11-.2-2.15-5.15a2.06,2.06,0,0,0-.56-.85,1.12,1.12,0,0,0-.51-.17v-.22Z" transform="translate(-59 -236)"/><path d="M257.73,446v4.5a1.85,1.85,0,0,0,.13.77,1,1,0,0,0,1,.53,1.63,1.63,0,0,0,.94-.32,2.76,2.76,0,0,0,.53-.49v-3.85a.9.9,0,0,0-.21-.71,1.6,1.6,0,0,0-.84-.2V446h2.27v5a1,1,0,0,0,.17.66,1,1,0,0,0,.73.16v.2l-.57.16-.61.19-.8.3a0,0,0,0,1,0,0,.37.37,0,0,1,0-.07v-1.13a4.74,4.74,0,0,1-.87.84,2.16,2.16,0,0,1-1.27.42,1.81,1.81,0,0,1-1.15-.44,1.73,1.73,0,0,1-.55-1.44V447.1a.92.92,0,0,0-.24-.75,1.45,1.45,0,0,0-.66-.17V446Z" transform="translate(-59 -236)"/><path d="M265.72,453.67a3.16,3.16,0,0,1-1.1.88l-.13-.28a2.39,2.39,0,0,0,.93-.82,1.56,1.56,0,0,0,.26-.74.12.12,0,0,0-.06-.13l-.13,0-.47,0a.86.86,0,0,1-.54-.19.67.67,0,0,1-.25-.56.89.89,0,0,1,.2-.55.79.79,0,0,1,.67-.27,1.1,1.1,0,0,1,.79.35,1.3,1.3,0,0,1,.35,1A2,2,0,0,1,265.72,453.67Z" transform="translate(-59 -236)"/><path d="M269.39,446v.22a1.85,1.85,0,0,0-.52.11.3.3,0,0,0-.15.31.73.73,0,0,0,0,.21q0,.1.11.3l1.48,3.53,1.25-3.12c.06-.16.12-.32.17-.49a1.41,1.41,0,0,0,.08-.39.41.41,0,0,0-.26-.39,1.46,1.46,0,0,0-.42-.08V446h2v.22a.66.66,0,0,0-.5.23,4.78,4.78,0,0,0-.44.92l-2,5.06a1,1,0,0,1-.09.18.11.11,0,0,1-.1,0,.14.14,0,0,1-.12-.08l-.11-.2-2.15-5.15a2.07,2.07,0,0,0-.56-.85,1.12,1.12,0,0,0-.51-.17V446Z" transform="translate(-59 -236)"/><path d="M325.23,446v4.5a1.85,1.85,0,0,0,.13.77,1,1,0,0,0,1,.53,1.63,1.63,0,0,0,.94-.32,2.73,2.73,0,0,0,.53-.49v-3.85a.9.9,0,0,0-.21-.71,1.6,1.6,0,0,0-.84-.2V446H329v5a1,1,0,0,0,.17.66,1,1,0,0,0,.73.16v.2l-.57.16-.61.19-.8.3a0,0,0,0,1,0,0,.33.33,0,0,1,0-.07v-1.13a4.75,4.75,0,0,1-.87.84,2.16,2.16,0,0,1-1.27.42,1.81,1.81,0,0,1-1.15-.44,1.72,1.72,0,0,1-.55-1.44V447.1a.92.92,0,0,0-.24-.75,1.45,1.45,0,0,0-.66-.17V446Z" transform="translate(-59 -236)"/><path d="M333.22,453.67a3.16,3.16,0,0,1-1.1.88l-.13-.28a2.41,2.41,0,0,0,.93-.82,1.56,1.56,0,0,0,.26-.74.12.12,0,0,0-.06-.13l-.13,0-.47,0a.86.86,0,0,1-.54-.19.67.67,0,0,1-.25-.56.9.9,0,0,1,.2-.55.79.79,0,0,1,.67-.27,1.1,1.1,0,0,1,.79.35,1.3,1.3,0,0,1,.35,1A2,2,0,0,1,333.22,453.67Z" transform="translate(-59 -236)"/><path d="M336.89,446v.22a1.85,1.85,0,0,0-.52.11.3.3,0,0,0-.15.31.74.74,0,0,0,0,.21c0,.07.06.17.11.3l1.48,3.53,1.25-3.12c.06-.16.12-.32.17-.49a1.41,1.41,0,0,0,.08-.39.41.41,0,0,0-.26-.39,1.46,1.46,0,0,0-.42-.08V446h2v.22a.66.66,0,0,0-.5.23,4.78,4.78,0,0,0-.44.92l-2,5.06a1.08,1.08,0,0,1-.09.18.11.11,0,0,1-.1,0,.14.14,0,0,1-.12-.08l-.11-.2-2.15-5.15a2.06,2.06,0,0,0-.56-.85,1.12,1.12,0,0,0-.51-.17V446Z" transform="translate(-59 -236)"/><path d="M317.35,437.35a7.57,7.57,0,0,0,1,.26.73.73,0,0,0,.5-.13,1.06,1.06,0,0,0,.25-.39h.36l.13,3.41h-.37a6.2,6.2,0,0,0-1-1.76,3.27,3.27,0,0,0-2.49-1,3.76,3.76,0,0,0-2.74,1.18,5.36,5.36,0,0,0-1.18,3.9,4.91,4.91,0,0,0,1.18,3.5,3.83,3.83,0,0,0,2.91,1.26,5,5,0,0,0,.69-.06,4.25,4.25,0,0,0,.75-.17,2.2,2.2,0,0,0,.72-.33.54.54,0,0,0,.14-.41V444q0-.94-.26-1.17a2.14,2.14,0,0,0-1.16-.29v-.3h4.13v.3a1.55,1.55,0,0,0-.8.2,1.27,1.27,0,0,0-.33,1V447q0,.29-1.4.76a8.33,8.33,0,0,1-2.69.47,6,6,0,0,1-4-1.38,5.1,5.1,0,0,1-1.8-4.1,5.64,5.64,0,0,1,1.43-3.88,5.3,5.3,0,0,1,4.18-1.78A6.69,6.69,0,0,1,317.35,437.35Z" transform="translate(-59 -236)"/><path d="M325.12,431.09a7.24,7.24,0,0,1,2.12-1.82l.13.23a6.41,6.41,0,0,0-1.62,1.75,7.92,7.92,0,0,0-.85,4,11.73,11.73,0,0,0,.32,3,5.19,5.19,0,0,0,2.14,3.11l-.18.23a6,6,0,0,1-1.87-1.62,6.93,6.93,0,0,1-1.67-4.56A6.73,6.73,0,0,1,325.12,431.09Z" transform="translate(-59 -236)"/><path d="M328.05,438.8a1.27,1.27,0,0,0,.7-.25,1.19,1.19,0,0,0,.2-.83v-3.57a1.65,1.65,0,0,0-.08-.63.55.55,0,0,0-.55-.26h-.13l-.17,0V433l1.36-.44.66-.22s.05,0,.06,0a.33.33,0,0,1,0,.1v1a7.24,7.24,0,0,1,1-.83,2.11,2.11,0,0,1,1.14-.34,1.49,1.49,0,0,1,.87.27,2.18,2.18,0,0,1,.76,1.91v3.28a1.08,1.08,0,0,0,.2.73.89.89,0,0,0,.68.23v.2h-3v-.2a1.21,1.21,0,0,0,.72-.28,1.45,1.45,0,0,0,.2-.93v-3a2,2,0,0,0-.22-1,.86.86,0,0,0-.83-.4,1.52,1.52,0,0,0-.84.28,4.77,4.77,0,0,0-.62.53v3.94a.82.82,0,0,0,.23.68,1.23,1.23,0,0,0,.71.19v.2h-3.07Z" transform="translate(-59 -236)"/><path d="M338.57,431.73h1v3.14h3.14v1h-3.14V439h-1v-3.14h-3.14v-1h3.14Z" transform="translate(-59 -236)"/><path d="M343.95,435.17a1.47,1.47,0,0,0,.69-.16.55.55,0,0,0,.19-.49v-4a.85.85,0,0,0,0-.31c0-.08-.11-.11-.22-.11a.8.8,0,0,0-.25,0l-.37.14v-.12l1.62-.8h0v5.12a.62.62,0,0,0,.16.49,1.4,1.4,0,0,0,.73.16v.12h-2.57Zm6.83-5.86h.67l-6,9.8h-.7Zm-2,9.62a31.89,31.89,0,0,0,2.35-2.42,2.22,2.22,0,0,0,.53-1.4,1.18,1.18,0,0,0-.4-.94,1.28,1.28,0,0,0-.84-.34,1.18,1.18,0,0,0-.87.3,2.7,2.7,0,0,0-.53.85l-.25-.07a2.7,2.7,0,0,1,.7-1.31,1.77,1.77,0,0,1,1.27-.45,1.86,1.86,0,0,1,1.21.42,1.38,1.38,0,0,1,.51,1.13,2.45,2.45,0,0,1-.4,1.31,8.4,8.4,0,0,1-1.45,1.59l-.85.83h1.32a5,5,0,0,0,1.16-.07,1.27,1.27,0,0,0,.49-.52l.17.07-.47,1.18h-3.65Z" transform="translate(-59 -236)"/><path d="M357.74,437.44a6.84,6.84,0,0,1-2.29,3.42,5.65,5.65,0,0,1-1,.71l-.13-.23a6,6,0,0,0,1.58-1.68,7.93,7.93,0,0,0,.89-4,11.06,11.06,0,0,0-.41-3.3,5.28,5.28,0,0,0-2.06-2.84l.18-.23a6.85,6.85,0,0,1,2.07,1.87,7,7,0,0,1,1.47,4.32A7,7,0,0,1,357.74,437.44Z" transform="translate(-59 -236)"/><path d="M249.85,437.35a7.54,7.54,0,0,0,1,.26.72.72,0,0,0,.49-.13,1.06,1.06,0,0,0,.25-.39H252l.13,3.41h-.37a6.2,6.2,0,0,0-1-1.76,3.27,3.27,0,0,0-2.49-1,3.76,3.76,0,0,0-2.74,1.18,5.36,5.36,0,0,0-1.18,3.9,4.92,4.92,0,0,0,1.18,3.5,3.83,3.83,0,0,0,2.91,1.26,5,5,0,0,0,.69-.06,4.24,4.24,0,0,0,.75-.17,2.2,2.2,0,0,0,.72-.33.54.54,0,0,0,.14-.41V444q0-.94-.27-1.17a2.13,2.13,0,0,0-1.16-.29v-.3h4.13v.3a1.55,1.55,0,0,0-.8.2,1.27,1.27,0,0,0-.33,1V447q0,.29-1.4.76a8.33,8.33,0,0,1-2.69.47,6,6,0,0,1-4-1.38,5.1,5.1,0,0,1-1.8-4.1,5.64,5.64,0,0,1,1.43-3.88,5.3,5.3,0,0,1,4.18-1.78A6.68,6.68,0,0,1,249.85,437.35Z" transform="translate(-59 -236)"/><path d="M255.76,438.8a1.27,1.27,0,0,0,.7-.25,1.19,1.19,0,0,0,.2-.83v-3.57a1.64,1.64,0,0,0-.08-.63.55.55,0,0,0-.55-.26h-.13l-.17,0V433l1.36-.44.66-.22s.05,0,.06,0a.37.37,0,0,1,0,.1v1a7.24,7.24,0,0,1,1-.83,2.11,2.11,0,0,1,1.14-.34,1.49,1.49,0,0,1,.87.27,2.18,2.18,0,0,1,.76,1.91v3.28a1.08,1.08,0,0,0,.2.73.89.89,0,0,0,.68.23v.2h-3v-.2a1.21,1.21,0,0,0,.72-.28,1.44,1.44,0,0,0,.2-.93v-3a2,2,0,0,0-.22-1,.86.86,0,0,0-.82-.4,1.52,1.52,0,0,0-.84.28,4.73,4.73,0,0,0-.62.53v3.94a.82.82,0,0,0,.23.68,1.23,1.23,0,0,0,.71.19v.2h-3.07Z" transform="translate(-59 -236)"/></svg>