<svg id="Layer_1" data-name="Layer 1" xmlns="http://www.w3.org/2000/svg" xmlns:xlink="http://www.w3.org/1999/xlink" viewBox="0 0 428.36 397.2"><defs><style>.cls-1,.cls-2,.cls-5,.cls-8,.cls-9{fill:none;}.cls-1{clip-rule:evenodd;}.cls-3{fill:#bfbfbf;fill-rule:evenodd;}.cls-19,.cls-3,.cls-5,.cls-8,.cls-9{stroke:#000;stroke-miterlimit:10;}.cls-3,.cls-5{stroke-width:0.9px;}.cls-4{clip-path:url(#clip-path);}.cls-6{clip-path:url(#clip-path-2);}.cls-7{clip-path:url(#clip-path-3);}.cls-8,.cls-9{stroke-width:0.45px;}.cls-8{stroke-dasharray:3.6;}.cls-10{clip-path:url(#clip-path-4);}.cls-11{clip-path:url(#clip-path-5);}.cls-12{clip-path:url(#clip-path-6);}.cls-13{clip-path:url(#clip-path-7);}.cls-14{clip-path:url(#clip-path-8);}.cls-15{clip-path:url(#clip-path-9);}.cls-16{clip-path:url(#clip-path-10);}.cls-17{clip-path:url(#clip-path-11);}.cls-18{clip-path:url(#clip-path-12);}.cls-19{stroke-width:0.5px;}</style><clipPath id="clip-path" transform="translate(-98.02 -169.15)"><path class="cls-1" d="M117.25,385.5v181h180.5v-181ZM243.35,468l.27-3.6-4.56-.36,3.45,2.1-3.75,1.5ZM171,464.6l.27,3.6,4.59-.36-3.72-1.5,3.42-2.1Z"/></clipPath><clipPath id="clip-path-2" transform="translate(-98.02 -169.15)"><path class="cls-1" d="M117.25,385.5v181h180.5v-181ZM245.81,462l3.6,0,.06-4.59-1.83,3.6-1.77-3.63Zm-2.46-57.69-3.51.78,1,4.47,1-3.9,2.55,3.09Z"/></clipPath><clipPath id="clip-path-3" transform="translate(-98.02 -169.15)"><rect class="cls-2" x="117.25" y="385.5" width="180.5" height="181"/></clipPath><clipPath id="clip-path-4" transform="translate(-98.02 -169.15)"><path class="cls-1" d="M345.25,385.5v181h180.5v-181Zm152.29,47.3.69-3.54-4.5-.84,3.21,2.46-3.9,1.05Zm-62.16-7.5.24,3.57,4.56-.3L436.49,427l3.45-2Z"/></clipPath><clipPath id="clip-path-5" transform="translate(-98.02 -169.15)"><path class="cls-1" d="M345.25,385.5v181h180.5v-181Zm87.55,44.9h-3.6V435l1.8-3.6,1.8,3.6Zm-3.6,75.15h3.6V501l-1.8,3.6-1.8-3.6Z"/></clipPath><clipPath id="clip-path-6" transform="translate(-98.02 -169.15)"><rect class="cls-2" x="345.25" y="385.5" width="180.5" height="181"/></clipPath><clipPath id="clip-path-7" transform="translate(-98.02 -169.15)"><path class="cls-1" d="M117.25,168.5v181h180.5v-181Zm161,85.85.39-3.57-4.56-.51,3.39,2.19-3.78,1.38Zm-71.13-9.06-.15,3.6,4.59.21L208,247.15l3.66-1.65Z"/></clipPath><clipPath id="clip-path-8" transform="translate(-98.02 -169.15)"><path class="cls-1" d="M117.25,168.5v181h180.5v-181Zm87.55,18.2h-3.6v4.59l1.8-3.6,1.8,3.6Zm-3.6,57.15h3.6v-4.59l-1.8,3.6-1.8-3.6Z"/></clipPath><clipPath id="clip-path-9" transform="translate(-98.02 -169.15)"><rect class="cls-2" x="117.25" y="168.5" width="180.5" height="181"/></clipPath><clipPath id="clip-path-10" transform="translate(-98.02 -169.15)"><path class="cls-1" d="M346.25,168.5v181h180.5v-181Zm124.21,43.85.45-3.57-4.56-.57,3.36,2.25-3.81,1.32Zm-68.4-3.57.45,3.57,4.56-.57-3.78-1.32,3.33-2.25Z"/></clipPath><clipPath id="clip-path-11" transform="translate(-98.02 -169.15)"><path class="cls-1" d="M346.25,168.5v181h180.5v-181ZM477.87,288.25l3.57.27.33-4.59-2,3.48-1.53-3.75Zm-1-75.36-3.51.69.87,4.5,1.08-3.87,2.46,3.18Z"/></clipPath><clipPath id="clip-path-12" transform="translate(-98.02 -169.15)"><rect class="cls-2" x="346.25" y="168.5" width="180.5" height="181"/></clipPath></defs><title>hgrid-abcd</title><path d="M255.79,437.9H248l3.72-9.07h.3Zm-6.8-.61h5l-2.51-6.2Z" transform="translate(-98.02 -169.15)"/><path d="M256.27,438.89a1,1,0,0,1,.63-.2.77.77,0,0,1,.53.18.54.54,0,0,1,.21.42l0,.28a.21.21,0,0,0,.06.15.22.22,0,0,0,.16.07q.33,0,.61-.51A9.92,9.92,0,0,0,259,438l-1.49-3.69-.31-.74c-.1-.23-.21-.45-.32-.67a1.62,1.62,0,0,0-.27-.42.63.63,0,0,0-.36-.11v-.3h3.15v.3a1.69,1.69,0,0,0-.48.07.25.25,0,0,0-.19.26.43.43,0,0,0,0,.12s0,.14.1.27l1,2.48h.06l.83-2.21.1-.32a.91.91,0,0,0,0-.24.32.32,0,0,0-.18-.34,1.54,1.54,0,0,0-.52-.08v-.3h1.91v.3a.76.76,0,0,0-.4.13,1.27,1.27,0,0,0-.32.55l-1.88,5a8.18,8.18,0,0,1-.95,1.89,1.49,1.49,0,0,1-1.24.5,1.31,1.31,0,0,1-.93-.3.91.91,0,0,1-.32-.67A.75.75,0,0,1,256.27,438.89Z" transform="translate(-98.02 -169.15)"/><path d="M207.54,476.15h-7.75l3.72-9.07h.3Zm-6.8-.61h5l-2.51-6.2Z" transform="translate(-98.02 -169.15)"/><path d="M207.93,475.86a1.3,1.3,0,0,0,.54-.2,4.23,4.23,0,0,0,.69-.71l.5-.65.52-.68-1.62-2.48a1.36,1.36,0,0,0-.31-.38.87.87,0,0,0-.34-.1v-.3h3.15v.3a3.79,3.79,0,0,0-.51.09s-.07.07-.07.14a1.86,1.86,0,0,0,.32.64q.32.5.56.83.65-.82.8-1a.7.7,0,0,0,.15-.37.22.22,0,0,0-.15-.23,2,2,0,0,0-.49-.06v-.3h2.11v.3a2.1,2.1,0,0,0-.39.1,1.26,1.26,0,0,0-.48.38l-1.3,1.61,1.88,2.86a.51.51,0,0,0,.15.16l.22.11v.29h-3v-.29a1.69,1.69,0,0,0,.42-.06.2.2,0,0,0,.15-.21.84.84,0,0,0-.13-.34q-.07-.14-.24-.4l-.26-.4-.31-.47q-.4.52-.6.8a2,2,0,0,0-.41.75.25.25,0,0,0,.16.26,1.51,1.51,0,0,0,.47.07v.29h-2.13Z" transform="translate(-98.02 -169.15)"/><polygon class="cls-3" points="74.56 291.97 75.25 276.91 76.36 262.06 79.06 247.66 82.66 235.51 95.5 235.06 109.9 234.82 123.85 234.82 138.91 235.72 141.16 246.97 143.65 262.06 144.76 276.22 145.45 292.21 128.35 291.31 109.9 290.86 92.56 291.31 74.56 291.97"/><g class="cls-4"><path class="cls-5" d="M171.45,466.39q18.33-1.67,36.75-1.67,17.34,0,34.63,1.48" transform="translate(-98.02 -169.15)"/></g><path class="cls-5" d="M238.76,467.69l3.75-1.5-3.45-2.1m-63.45.15-3.42,2.1,3.72,1.5" transform="translate(-98.02 -169.15)"/><g class="cls-6"><path class="cls-5" d="M241.72,405.24a223,223,0,0,1,6,51.3q0,2.53-.06,5.06" transform="translate(-98.02 -169.15)"/></g><path class="cls-5" d="M245.87,457.43l1.77,3.63,1.83-3.6m-5.1-48.69-2.55-3.09-1,3.9" transform="translate(-98.02 -169.15)"/><path d="M210.34,430.86h1.27l.73,3.45.75-3.45h1.31L213,435.65h-1.29l-.75-3.49-.76,3.49h-1.3l-1.34-4.79h1.34l.75,3.44Z" transform="translate(-98.02 -169.15)"/><path d="M263.82,436.86l.26,0v1l-.35,0a.41.41,0,0,0-.34.11.39.39,0,0,0-.09.26v.4h.82v.88h-.82v3.86H262v-3.86h-.7v-.88H262v-.31a1.62,1.62,0,0,1,.26-1.06q.27-.43,1.31-.43Z" transform="translate(-98.02 -169.15)"/><path d="M217.79,475.86h1.34l-1.73,4.79h-1.32l-1.72-4.79h1.41l1,3.53Z" transform="translate(-98.02 -169.15)"/><g class="cls-7"><path class="cls-8" d="M135.52,566.32a316.71,316.71,0,0,1,26.9-180m117,180a316.71,316.71,0,0,0,3.24-45.17A316.71,316.71,0,0,0,252.57,386.3M117.66,413.12a454.5,454.5,0,0,1,179.67,0m-179.81,135q44.39-2.25,88.85-2.25t88.85,2.25M117.66,469.37a454.5,454.5,0,0,1,179.67,0" transform="translate(-98.02 -169.15)"/><path class="cls-9" d="M171.52,505.42a2.25,2.25,0,1,1-2.25-2.25,2.25,2.25,0,0,1,2.25,2.25Zm76.5,0a2.25,2.25,0,1,1-2.25-2.25,2.25,2.25,0,0,1,2.25,2.25Zm-4.5-74.28a2.25,2.25,0,1,1-2.25-2.25,2.25,2.25,0,0,1,2.25,2.25Zm-67.5,0a2.25,2.25,0,1,1-2.25-2.25,2.25,2.25,0,0,1,2.25,2.25Z" transform="translate(-98.02 -169.15)"/><line class="cls-8" x1="109.48" y1="217" x2="109.48" y2="397"/></g><path d="M171.95,543.7h1.88l-2.42,6.71h-1.85l-2.41-6.71h2l1.4,4.95Z" transform="translate(-98.02 -169.15)"/><path d="M246.2,543.7h1.88l-2.42,6.71h-1.85l-2.4-6.71h2l1.4,4.95Z" transform="translate(-98.02 -169.15)"/><path d="M180.95,401.94h1.88l-2.42,6.71h-1.85l-2.41-6.71h2l1.4,4.95Z" transform="translate(-98.02 -169.15)"/><path d="M237.2,401.94h1.88l-2.42,6.71h-1.85l-2.4-6.71h2l1.4,4.95Z" transform="translate(-98.02 -169.15)"/><path d="M273.07,431.2v4a2.13,2.13,0,0,0,.13.86.93.93,0,0,0,.94.51,1.22,1.22,0,0,0,1.22-.73,2.64,2.64,0,0,0,.17-1V431.2h1.78v6.71h-1.7V437l-.12.18a1.24,1.24,0,0,1-.23.27,2.43,2.43,0,0,1-.79.5,2.68,2.68,0,0,1-.9.14,2,2,0,0,1-2-1.07,4.1,4.1,0,0,1-.29-1.74v-4Z" transform="translate(-98.02 -169.15)"/><path d="M144.82,431.2v4a2.13,2.13,0,0,0,.13.86.93.93,0,0,0,.94.51,1.22,1.22,0,0,0,1.22-.73,2.64,2.64,0,0,0,.17-1V431.2h1.78v6.71h-1.7V437l-.12.18a1.23,1.23,0,0,1-.23.27,2.42,2.42,0,0,1-.79.5,2.68,2.68,0,0,1-.9.14,2,2,0,0,1-2-1.07,4.11,4.11,0,0,1-.29-1.74v-4Z" transform="translate(-98.02 -169.15)"/><path d="M133.57,503.19v4a2.12,2.12,0,0,0,.13.86.93.93,0,0,0,.94.51,1.22,1.22,0,0,0,1.22-.73,2.64,2.64,0,0,0,.17-1v-3.65h1.78v6.71h-1.7V509l-.12.18a1.23,1.23,0,0,1-.23.27,2.44,2.44,0,0,1-.79.5,2.71,2.71,0,0,1-.9.13,2,2,0,0,1-2-1.07,4.11,4.11,0,0,1-.29-1.74v-4Z" transform="translate(-98.02 -169.15)"/><path d="M207.82,500.94v4a2.12,2.12,0,0,0,.13.86.93.93,0,0,0,.94.51,1.22,1.22,0,0,0,1.22-.73,2.64,2.64,0,0,0,.17-1v-3.65h1.78v6.71h-1.7v-.95l-.12.18a1.23,1.23,0,0,1-.23.27,2.44,2.44,0,0,1-.79.5,2.71,2.71,0,0,1-.9.13,2,2,0,0,1-2-1.07A4.11,4.11,0,0,1,206,505v-4Z" transform="translate(-98.02 -169.15)"/><path d="M284.32,503.19v4a2.12,2.12,0,0,0,.13.86.93.93,0,0,0,.94.51,1.22,1.22,0,0,0,1.22-.73,2.64,2.64,0,0,0,.17-1v-3.65h1.78v6.71h-1.7V509l-.12.18a1.24,1.24,0,0,1-.23.27,2.45,2.45,0,0,1-.79.5,2.71,2.71,0,0,1-.9.13,2,2,0,0,1-2-1.07,4.1,4.1,0,0,1-.29-1.74v-4Z" transform="translate(-98.02 -169.15)"/><path d="M174.2,458.19h1.88l-2.42,6.71h-1.85l-2.41-6.71h2l1.4,4.95Z" transform="translate(-98.02 -169.15)"/><path d="M244,458.19h1.88l-2.42,6.71h-1.85l-2.4-6.71h2l1.4,4.95Z" transform="translate(-98.02 -169.15)"/><path d="M196.74,429.81a1,1,0,0,0,.78-.44,6.2,6.2,0,0,0,.55-1.13l3-7.39h.38l3,7.09a9.62,9.62,0,0,0,.76,1.54.8.8,0,0,0,.71.33v.34h-4.37v-.34a3.06,3.06,0,0,0,.87-.11q.21-.08.21-.43a1.74,1.74,0,0,0-.11-.48c0-.13-.1-.28-.18-.46l-.34-.82h-3l-.38,1a2.7,2.7,0,0,0-.18.76q0,.29.39.42a2.59,2.59,0,0,0,.69.08v.34h-2.75Zm5.07-2.84-1.3-3.12h-.11L199.18,427Z" transform="translate(-98.02 -169.15)"/><path d="M418.34,472.9h-7.75l3.72-9.07h.3Zm-6.8-.61h5l-2.51-6.2Z" transform="translate(-98.02 -169.15)"/><path d="M418.83,473.89a1,1,0,0,1,.63-.2.77.77,0,0,1,.53.18.55.55,0,0,1,.21.42l0,.28a.21.21,0,0,0,.06.15.22.22,0,0,0,.16.07c.22,0,.42-.17.61-.51a10,10,0,0,0,.51-1.24L420,469.34l-.31-.74c-.1-.23-.21-.45-.32-.67a1.65,1.65,0,0,0-.27-.42.64.64,0,0,0-.36-.11v-.3h3.15v.3a1.69,1.69,0,0,0-.48.07.25.25,0,0,0-.19.26.43.43,0,0,0,0,.12s0,.14.1.27l1,2.48h.06l.83-2.21.1-.32a.88.88,0,0,0,0-.24.32.32,0,0,0-.18-.34,1.54,1.54,0,0,0-.52-.08v-.3h1.91v.3a.77.77,0,0,0-.4.13,1.26,1.26,0,0,0-.32.55l-1.88,5a8.18,8.18,0,0,1-.95,1.89,1.48,1.48,0,0,1-1.24.5,1.31,1.31,0,0,1-.94-.3.91.91,0,0,1-.32-.67A.75.75,0,0,1,418.83,473.89Z" transform="translate(-98.02 -169.15)"/><path d="M473.79,421.15H466l3.72-9.07h.3Zm-6.8-.61h5l-2.51-6.2Z" transform="translate(-98.02 -169.15)"/><path d="M474.18,420.86a1.3,1.3,0,0,0,.54-.2,4.25,4.25,0,0,0,.69-.71l.5-.65.52-.68-1.62-2.48a1.37,1.37,0,0,0-.31-.38.87.87,0,0,0-.34-.1v-.3h3.15v.3a3.82,3.82,0,0,0-.51.09s-.07.07-.07.14a1.84,1.84,0,0,0,.32.64q.32.5.56.83.65-.82.8-1a.7.7,0,0,0,.15-.37.22.22,0,0,0-.15-.23,2,2,0,0,0-.5-.06v-.3H480v.3a2.11,2.11,0,0,0-.39.1,1.27,1.27,0,0,0-.48.38l-1.3,1.61,1.88,2.86a.5.5,0,0,0,.15.16l.22.11v.29h-3v-.29a1.69,1.69,0,0,0,.42-.06.2.2,0,0,0,.15-.21.85.85,0,0,0-.13-.34q-.07-.14-.24-.4l-.26-.4-.31-.47q-.4.52-.6.8a2,2,0,0,0-.41.75.25.25,0,0,0,.16.26,1.52,1.52,0,0,0,.47.07v.29h-2.13Z" transform="translate(-98.02 -169.15)"/><polygon class="cls-3" points="338.23 336.25 338.41 262 355.03 261.61 372.16 262 387.43 263.65 401.38 266.11 405.43 280.51 408.58 296.5 411.73 319 413.08 337.66 395.74 337.15 376.18 336.49 357.73 336.25 338.23 336.25"/><g class="cls-10"><path class="cls-5" d="M436.13,427.06q8.22-.6,16.47-.6A224.91,224.91,0,0,1,497.44,431" transform="translate(-98.02 -169.15)"/></g><path class="cls-5" d="M493,431.93l3.9-1.05-3.21-2.46M439.94,425l-3.45,2,3.69,1.53" transform="translate(-98.02 -169.15)"/><g class="cls-11"><line class="cls-5" x1="332.98" y1="335.95" x2="332.98" y2="261.7"/></g><path class="cls-5" d="M429.2,501l1.8,3.6,1.8-3.6m0-66-1.8-3.6-1.8,3.6" transform="translate(-98.02 -169.15)"/><path d="M425.08,473.61v2.89a1.53,1.53,0,0,0,.1.62.67.67,0,0,0,.67.36.88.88,0,0,0,.88-.52,1.9,1.9,0,0,0,.12-.74v-2.61h1.27v4.79H426.9v-.68l-.09.13a.91.91,0,0,1-.17.19,1.75,1.75,0,0,1-.57.36,1.93,1.93,0,0,1-.64.1,1.43,1.43,0,0,1-1.43-.76,2.91,2.91,0,0,1-.21-1.24v-2.89Z" transform="translate(-98.02 -169.15)"/><path d="M483.07,420.12l.26,0v1l-.35,0a.41.41,0,0,0-.34.11.39.39,0,0,0-.09.26v.4h.82v.88h-.82v3.86h-1.24v-3.86h-.7v-.88h.69v-.31a1.62,1.62,0,0,1,.26-1.06q.27-.43,1.31-.43Z" transform="translate(-98.02 -169.15)"/><path d="M477.56,467.87a.84.84,0,0,0,.17.47,1.17,1.17,0,0,0,.87.25,1.32,1.32,0,0,0,.59-.11.37.37,0,0,0,0-.65,7.22,7.22,0,0,0-1.31-.38,2.74,2.74,0,0,1-1.15-.5,1.1,1.1,0,0,1-.33-.86,1.49,1.49,0,0,1,.52-1.14,2.1,2.1,0,0,1,1.47-.48,2.71,2.71,0,0,1,1.46.36,1.53,1.53,0,0,1,.65,1.24h-1.25a.75.75,0,0,0-.14-.38.86.86,0,0,0-.71-.26,1,1,0,0,0-.58.13.37.37,0,0,0-.17.3.33.33,0,0,0,.18.31,7.89,7.89,0,0,0,1.31.35,2.41,2.41,0,0,1,1.12.53,1.21,1.21,0,0,1,.37.9,1.45,1.45,0,0,1-.53,1.16,2.5,2.5,0,0,1-1.64.45,2.47,2.47,0,0,1-1.67-.48,1.55,1.55,0,0,1-.54-1.21Z" transform="translate(-98.02 -169.15)"/><g class="cls-12"><path class="cls-8" d="M363.52,566.32a316.71,316.71,0,0,1,26.9-180m117,180a316.71,316.71,0,0,0-26.9-180M345.66,413.12a454.5,454.5,0,0,1,179.67,0m-179.81,135q44.39-2.25,88.85-2.25t88.85,2.25M345.66,469.37a454.5,454.5,0,0,1,179.67,0" transform="translate(-98.02 -169.15)"/><path class="cls-9" d="M399.52,505.42a2.25,2.25,0,1,1-2.25-2.25,2.25,2.25,0,0,1,2.25,2.25Zm76.5,0a2.25,2.25,0,1,1-2.25-2.25,2.25,2.25,0,0,1,2.25,2.25Zm-4.5-74.28a2.25,2.25,0,1,1-2.25-2.25,2.25,2.25,0,0,1,2.25,2.25Zm-67.5,0a2.25,2.25,0,1,1-2.25-2.25,2.25,2.25,0,0,1,2.25,2.25Z" transform="translate(-98.02 -169.15)"/><line class="cls-8" x1="337.48" y1="217" x2="337.48" y2="397"/></g><path d="M402.2,541.44h1.88l-2.42,6.71h-1.85l-2.41-6.71h2l1.4,4.95Z" transform="translate(-98.02 -169.15)"/><path d="M361.57,500.94v4a2.12,2.12,0,0,0,.13.86.93.93,0,0,0,.94.51,1.22,1.22,0,0,0,1.22-.73,2.64,2.64,0,0,0,.17-1v-3.65h1.78v6.71h-1.7v-.95l-.12.18a1.25,1.25,0,0,1-.23.27,2.44,2.44,0,0,1-.79.5,2.71,2.71,0,0,1-.9.13,2,2,0,0,1-2-1.07,4.12,4.12,0,0,1-.29-1.74v-4Z" transform="translate(-98.02 -169.15)"/><path d="M435.82,500.94v4a2.12,2.12,0,0,0,.13.86.93.93,0,0,0,.94.51,1.22,1.22,0,0,0,1.22-.73,2.64,2.64,0,0,0,.17-1v-3.65h1.78v6.71h-1.7v-.95l-.12.18a1.24,1.24,0,0,1-.23.27,2.45,2.45,0,0,1-.79.5,2.71,2.71,0,0,1-.9.13,2,2,0,0,1-2-1.07A4.12,4.12,0,0,1,434,505v-4Z" transform="translate(-98.02 -169.15)"/><path d="M510.07,503.19v4a2.12,2.12,0,0,0,.13.86.93.93,0,0,0,.94.51,1.22,1.22,0,0,0,1.22-.73,2.64,2.64,0,0,0,.17-1v-3.65h1.78v6.71h-1.7V509l-.12.18a1.24,1.24,0,0,1-.23.27,2.45,2.45,0,0,1-.79.5,2.71,2.71,0,0,1-.9.13,2,2,0,0,1-2-1.07,4.1,4.1,0,0,1-.29-1.74v-4Z" transform="translate(-98.02 -169.15)"/><path d="M372.82,431.2v4a2.13,2.13,0,0,0,.13.86.93.93,0,0,0,.94.51,1.22,1.22,0,0,0,1.22-.73,2.64,2.64,0,0,0,.17-1V431.2h1.78v6.71h-1.7V437l-.12.18a1.25,1.25,0,0,1-.23.27,2.41,2.41,0,0,1-.79.5,2.69,2.69,0,0,1-.9.14,2,2,0,0,1-2-1.07,4.12,4.12,0,0,1-.29-1.74v-4Z" transform="translate(-98.02 -169.15)"/><path d="M435.82,428.94v4a2.13,2.13,0,0,0,.13.86.93.93,0,0,0,.94.51,1.22,1.22,0,0,0,1.22-.73,2.64,2.64,0,0,0,.17-1v-3.65h1.78v6.71h-1.7v-.95l-.12.18a1.24,1.24,0,0,1-.23.27,2.43,2.43,0,0,1-.79.5,2.68,2.68,0,0,1-.9.14,2,2,0,0,1-2-1.07A4.12,4.12,0,0,1,434,433v-4Z" transform="translate(-98.02 -169.15)"/><path d="M498.82,431.2v4a2.13,2.13,0,0,0,.13.86.93.93,0,0,0,.94.51,1.22,1.22,0,0,0,1.22-.73,2.64,2.64,0,0,0,.17-1V431.2h1.78v6.71h-1.7V437l-.12.18a1.24,1.24,0,0,1-.23.27,2.43,2.43,0,0,1-.79.5,2.68,2.68,0,0,1-.9.14,2,2,0,0,1-2-1.07,4.1,4.1,0,0,1-.29-1.74v-4Z" transform="translate(-98.02 -169.15)"/><path d="M474.2,541.44h1.88l-2.42,6.71h-1.85l-2.4-6.71h2l1.4,4.95Z" transform="translate(-98.02 -169.15)"/><path d="M402.2,458.19h1.88l-2.42,6.71h-1.85l-2.41-6.71h2l1.4,4.95Z" transform="translate(-98.02 -169.15)"/><path d="M408.95,401.94h1.88l-2.42,6.71h-1.85l-2.41-6.71h2l1.4,4.95Z" transform="translate(-98.02 -169.15)"/><path d="M465.2,401.94h1.88l-2.42,6.71h-1.85l-2.4-6.71h2l1.4,4.95Z" transform="translate(-98.02 -169.15)"/><path d="M467.24,462.56a1,1,0,0,0,.78-.44,6.24,6.24,0,0,0,.55-1.13l3-7.39H472l3,7.09a9.58,9.58,0,0,0,.76,1.54.8.8,0,0,0,.71.33v.34h-4.37v-.34a3.06,3.06,0,0,0,.87-.11q.21-.08.21-.43a1.74,1.74,0,0,0-.11-.48c0-.13-.1-.28-.18-.46l-.34-.82h-3l-.38,1a2.71,2.71,0,0,0-.18.76q0,.29.39.42a2.6,2.6,0,0,0,.69.08v.34h-2.75Zm5.07-2.84-1.3-3.12h-.11l-1.22,3.13Z" transform="translate(-98.02 -169.15)"/><path d="M241.84,260.95h-7.75l3.72-9.07h.3Zm-6.8-.61h5l-2.51-6.2Z" transform="translate(-98.02 -169.15)"/><path d="M242.23,260.66a1.3,1.3,0,0,0,.54-.2,4.19,4.19,0,0,0,.69-.71l.5-.65.52-.68-1.62-2.48a1.35,1.35,0,0,0-.31-.38.88.88,0,0,0-.34-.1v-.3h3.15v.3l-.51.09s-.07.07-.07.14a1.85,1.85,0,0,0,.32.64q.32.5.56.83.65-.82.8-1a.71.71,0,0,0,.15-.37.22.22,0,0,0-.15-.23,2,2,0,0,0-.49-.06v-.3h2.11v.3a2.06,2.06,0,0,0-.39.1,1.26,1.26,0,0,0-.48.38l-1.3,1.61,1.88,2.86a.52.52,0,0,0,.15.16l.22.11v.29h-3v-.29a1.65,1.65,0,0,0,.42-.06.2.2,0,0,0,.15-.21.84.84,0,0,0-.13-.34q-.07-.14-.24-.4l-.26-.4-.31-.47q-.4.52-.6.8a2,2,0,0,0-.41.75.25.25,0,0,0,.16.26,1.51,1.51,0,0,0,.47.07v.29h-2.13Z" transform="translate(-98.02 -169.15)"/><path d="M188.79,216.4H181l3.72-9.07h.3Zm-6.8-.61h5l-2.51-6.2Z" transform="translate(-98.02 -169.15)"/><path d="M189.27,217.39a1,1,0,0,1,.63-.2.78.78,0,0,1,.53.18.55.55,0,0,1,.21.42l0,.28a.21.21,0,0,0,.06.15.22.22,0,0,0,.16.07q.33,0,.61-.51a9.87,9.87,0,0,0,.51-1.24l-1.49-3.69-.31-.74q-.15-.35-.32-.67a1.65,1.65,0,0,0-.27-.42.65.65,0,0,0-.36-.11v-.3h3.15v.3a1.69,1.69,0,0,0-.48.07.25.25,0,0,0-.19.27.43.43,0,0,0,0,.12l.1.27,1,2.48h.06l.83-2.21.1-.32a.88.88,0,0,0,0-.24q0-.27-.18-.34a1.54,1.54,0,0,0-.52-.08v-.3h1.91v.3a.77.77,0,0,0-.4.13,1.27,1.27,0,0,0-.32.55l-1.88,5a8.19,8.19,0,0,1-.94,1.89,1.49,1.49,0,0,1-1.24.5,1.31,1.31,0,0,1-.94-.3A.91.91,0,0,1,189,218,.75.75,0,0,1,189.27,217.39Z" transform="translate(-98.02 -169.15)"/><polygon class="cls-3" points="109.48 74.25 109.48 18 122.98 18 133.96 18.51 147.25 19.41 163.66 21.21 167.98 33.75 171.91 46.26 175.81 61.41 180.01 79.71 161.86 77.25 145.45 75.45 127.66 74.31 109.48 74.25"/><g class="cls-13"><path class="cls-5" d="M208.25,247.15q34.91,1.4,69.66,5.36" transform="translate(-98.02 -169.15)"/></g><path class="cls-5" d="M273.68,253.84l3.78-1.38-3.39-2.19M211.7,245.5,208,247.15l3.51,1.95" transform="translate(-98.02 -169.15)"/><g class="cls-14"><line class="cls-5" x1="104.98" y1="74.25" x2="104.98" y2="18"/></g><path class="cls-5" d="M201.2,239.26l1.8,3.6,1.8-3.6m0-48-1.8-3.6-1.8,3.6" transform="translate(-98.02 -169.15)"/><path d="M251,261.11a1.51,1.51,0,0,1,.74.7v-.69h1.22v4.54a2.54,2.54,0,0,1-.31,1.4,2.3,2.3,0,0,1-2.06.81,2.8,2.8,0,0,1-1.5-.36,1.33,1.33,0,0,1-.64-1.08h1.36a.57.57,0,0,0,.17.32,1.06,1.06,0,0,0,.68.17.92.92,0,0,0,.91-.45,2.3,2.3,0,0,0,.15-1v-.31a1.52,1.52,0,0,1-.39.46,1.55,1.55,0,0,1-1,.29,1.84,1.84,0,0,1-1.47-.65,2.62,2.62,0,0,1-.55-1.76,3,3,0,0,1,.53-1.79,1.75,1.75,0,0,1,1.51-.73A1.67,1.67,0,0,1,251,261.11Zm.43,3.43a1.54,1.54,0,0,0,.3-1.06,1.62,1.62,0,0,0-.29-1,.94.94,0,0,0-.77-.36.91.91,0,0,0-.91.62,2.21,2.21,0,0,0-.13.81,1.85,1.85,0,0,0,.14.74.91.91,0,0,0,.91.61A1,1,0,0,0,251.38,264.54Z" transform="translate(-98.02 -169.15)"/><path d="M197.2,216.11a1.5,1.5,0,0,1,.74.69v-.69h1.22v4.54a2.54,2.54,0,0,1-.31,1.4,2.3,2.3,0,0,1-2.06.81,2.8,2.8,0,0,1-1.5-.36,1.33,1.33,0,0,1-.64-1.08H196a.56.56,0,0,0,.17.32,1.06,1.06,0,0,0,.68.17.92.92,0,0,0,.91-.45,2.29,2.29,0,0,0,.15-1v-.31a1.53,1.53,0,0,1-.39.46,1.56,1.56,0,0,1-1,.29,1.84,1.84,0,0,1-1.47-.65,2.62,2.62,0,0,1-.55-1.76,3,3,0,0,1,.53-1.79,1.75,1.75,0,0,1,1.51-.73A1.65,1.65,0,0,1,197.2,216.11Zm.43,3.43a1.54,1.54,0,0,0,.3-1.06,1.62,1.62,0,0,0-.29-1,.94.94,0,0,0-.77-.36.9.9,0,0,0-.91.62,2.21,2.21,0,0,0-.13.81,1.86,1.86,0,0,0,.14.74.91.91,0,0,0,.91.61A1,1,0,0,0,197.63,219.54Z" transform="translate(-98.02 -169.15)"/><path d="M238.95,217.83a1.11,1.11,0,0,0-.18-.48.76.76,0,0,0-.66-.29.86.86,0,0,0-.87.63,2.6,2.6,0,0,0-.12.89,2.39,2.39,0,0,0,.12.85.84.84,0,0,0,.85.6.75.75,0,0,0,.63-.24,1.18,1.18,0,0,0,.22-.62h1.28a2.09,2.09,0,0,1-.41,1.08,2,2,0,0,1-1.75.82,2,2,0,0,1-1.7-.69,2.77,2.77,0,0,1-.55-1.78,2.81,2.81,0,0,1,.6-1.92,2.1,2.1,0,0,1,1.66-.69,2.51,2.51,0,0,1,1.48.4,1.88,1.88,0,0,1,.68,1.43Z" transform="translate(-98.02 -169.15)"/><g class="cls-15"><path class="cls-8" d="M135.52,349.32a316.71,316.71,0,0,1,26.9-180m117,180a316.71,316.71,0,0,0,3.24-45.17A316.71,316.71,0,0,0,252.57,169.3M117.66,196.12a454.5,454.5,0,0,1,179.67,0m-179.81,135q44.39-2.25,88.85-2.25t88.85,2.25M117.66,252.37a454.5,454.5,0,0,1,179.67,0" transform="translate(-98.02 -169.15)"/><path class="cls-9" d="M171.52,288.42a2.25,2.25,0,1,1-2.25-2.25,2.25,2.25,0,0,1,2.25,2.25Zm76.5,0a2.25,2.25,0,1,1-2.25-2.25,2.25,2.25,0,0,1,2.25,2.25Zm-72-74.28a2.25,2.25,0,1,1-2.25-2.25,2.25,2.25,0,0,1,2.25,2.25Z" transform="translate(-98.02 -169.15)"/><line class="cls-8" x1="109.48" x2="109.48" y2="180"/></g><path d="M133.57,283.94v4a2.12,2.12,0,0,0,.13.86.93.93,0,0,0,.94.51,1.22,1.22,0,0,0,1.22-.73,2.64,2.64,0,0,0,.17-1v-3.65h1.78v6.71h-1.7v-.95l-.12.18a1.23,1.23,0,0,1-.23.27,2.44,2.44,0,0,1-.79.5,2.71,2.71,0,0,1-.9.13,2,2,0,0,1-2-1.07,4.11,4.11,0,0,1-.29-1.74v-4Z" transform="translate(-98.02 -169.15)"/><path d="M174.2,324.44h1.88l-2.42,6.71h-1.85l-2.41-6.71h2l1.4,4.95Z" transform="translate(-98.02 -169.15)"/><path d="M248.45,324.44h1.88l-2.42,6.71h-1.85l-2.41-6.71h2l1.4,4.95Z" transform="translate(-98.02 -169.15)"/><path d="M144.82,214.2v4a2.12,2.12,0,0,0,.13.86.93.93,0,0,0,.94.51,1.22,1.22,0,0,0,1.22-.73,2.64,2.64,0,0,0,.17-1V214.2h1.78v6.71h-1.7V220l-.12.18a1.22,1.22,0,0,1-.23.27,2.42,2.42,0,0,1-.79.5,2.7,2.7,0,0,1-.9.14,2,2,0,0,1-2-1.07,4.11,4.11,0,0,1-.29-1.74v-4Z" transform="translate(-98.02 -169.15)"/><path d="M176.45,241.19h1.88l-2.42,6.71h-1.85l-2.41-6.71h2l1.4,4.95Z" transform="translate(-98.02 -169.15)"/><path d="M207.82,283.94v4a2.12,2.12,0,0,0,.13.86.93.93,0,0,0,.94.51,1.22,1.22,0,0,0,1.22-.73,2.64,2.64,0,0,0,.17-1v-3.65h1.78v6.71h-1.7v-.95l-.12.18a1.23,1.23,0,0,1-.23.27,2.44,2.44,0,0,1-.79.5,2.71,2.71,0,0,1-.9.13,2,2,0,0,1-2-1.07A4.11,4.11,0,0,1,206,288v-4Z" transform="translate(-98.02 -169.15)"/><path d="M282.07,283.94v4a2.12,2.12,0,0,0,.13.86.93.93,0,0,0,.94.51,1.22,1.22,0,0,0,1.22-.73,2.64,2.64,0,0,0,.17-1v-3.65h1.78v6.71h-1.7v-.95l-.12.18a1.24,1.24,0,0,1-.23.27,2.45,2.45,0,0,1-.79.5,2.71,2.71,0,0,1-.9.13,2,2,0,0,1-2-1.07,4.1,4.1,0,0,1-.29-1.74v-4Z" transform="translate(-98.02 -169.15)"/><path d="M183.2,182.69h1.88l-2.42,6.71h-1.85l-2.41-6.71h2l1.4,4.95Z" transform="translate(-98.02 -169.15)"/><path d="M207.82,209.69v4a2.12,2.12,0,0,0,.13.86.93.93,0,0,0,.94.51,1.22,1.22,0,0,0,1.22-.73,2.64,2.64,0,0,0,.17-1v-3.65h1.78v6.71h-1.7v-.95l-.12.18a1.22,1.22,0,0,1-.23.27,2.42,2.42,0,0,1-.79.5,2.7,2.7,0,0,1-.9.14,2,2,0,0,1-2-1.07,4.11,4.11,0,0,1-.29-1.74v-4Z" transform="translate(-98.02 -169.15)"/><path d="M237.2,180.45h1.88l-2.42,6.71h-1.85l-2.41-6.71h2l1.4,4.95Z" transform="translate(-98.02 -169.15)"/><path d="M273.07,211.94v4a2.12,2.12,0,0,0,.13.86.93.93,0,0,0,.94.51,1.22,1.22,0,0,0,1.22-.73,2.64,2.64,0,0,0,.17-1v-3.65h1.78v6.71h-1.7v-.95l-.12.18a1.23,1.23,0,0,1-.23.27,2.43,2.43,0,0,1-.79.5,2.7,2.7,0,0,1-.9.14,2,2,0,0,1-2-1.07,4.1,4.1,0,0,1-.29-1.74v-4Z" transform="translate(-98.02 -169.15)"/><path d="M243.95,238.94h1.88l-2.42,6.71h-1.85l-2.41-6.71h2l1.4,4.95Z" transform="translate(-98.02 -169.15)"/><path d="M227.24,215.06a1,1,0,0,0,.78-.44,6.18,6.18,0,0,0,.55-1.13l3-7.39H232l3,7.09a9.6,9.6,0,0,0,.76,1.54.8.8,0,0,0,.71.33v.34h-4.37v-.34a3.06,3.06,0,0,0,.87-.11q.21-.08.21-.43A1.74,1.74,0,0,0,233,214q-.07-.19-.18-.46l-.34-.82h-3l-.38,1a2.7,2.7,0,0,0-.18.76q0,.29.39.42a2.59,2.59,0,0,0,.69.08v.34h-2.75Zm5.07-2.84-1.3-3.12h-.11l-1.22,3.13Z" transform="translate(-98.02 -169.15)"/><path d="M489.52,260.14a1,1,0,0,1,.63-.2.77.77,0,0,1,.53.18.55.55,0,0,1,.21.42l0,.28a.21.21,0,0,0,.06.15.21.21,0,0,0,.16.07c.22,0,.42-.17.61-.51a10,10,0,0,0,.51-1.24l-1.49-3.69-.31-.74q-.15-.35-.32-.67a1.67,1.67,0,0,0-.27-.42.65.65,0,0,0-.36-.11v-.3h3.15v.3a1.69,1.69,0,0,0-.48.07.25.25,0,0,0-.19.27.43.43,0,0,0,0,.12s0,.14.1.27l1,2.48h.06l.83-2.21.1-.32a.87.87,0,0,0,0-.24q0-.27-.18-.34a1.54,1.54,0,0,0-.52-.08v-.3h1.91v.3a.77.77,0,0,0-.4.13,1.26,1.26,0,0,0-.32.55l-1.88,5a8.2,8.2,0,0,1-.95,1.89,1.49,1.49,0,0,1-1.24.5,1.31,1.31,0,0,1-.94-.3.91.91,0,0,1-.32-.67A.75.75,0,0,1,489.52,260.14Z" transform="translate(-98.02 -169.15)"/><path d="M489.54,258.9h-7.75l3.72-9.07h.3Zm-6.8-.61h5l-2.51-6.2Z" transform="translate(-98.02 -169.15)"/><path d="M438.92,202.61a1.3,1.3,0,0,0,.54-.2,4.23,4.23,0,0,0,.69-.71l.5-.65.52-.68-1.62-2.48a1.36,1.36,0,0,0-.31-.38.88.88,0,0,0-.34-.1v-.3H442v.3l-.51.09s-.07.07-.07.14a1.85,1.85,0,0,0,.32.64q.32.5.56.83.65-.82.8-1a.71.71,0,0,0,.15-.37.22.22,0,0,0-.15-.23,2,2,0,0,0-.5-.06v-.3h2.11v.3a2,2,0,0,0-.39.1,1.25,1.25,0,0,0-.48.38l-1.3,1.61,1.88,2.86a.51.51,0,0,0,.15.16l.22.11v.29h-3v-.29a1.69,1.69,0,0,0,.42-.06.2.2,0,0,0,.15-.21.85.85,0,0,0-.13-.34q-.07-.14-.24-.4l-.26-.4-.31-.47q-.4.52-.6.8a2,2,0,0,0-.41.75.25.25,0,0,0,.16.26,1.5,1.5,0,0,0,.47.07v.29h-2.13Z" transform="translate(-98.02 -169.15)"/><path d="M437.79,202.9H430l3.72-9.07h.3Zm-6.8-.61h5l-2.51-6.2Z" transform="translate(-98.02 -169.15)"/><polygon class="cls-3" points="300.23 119.25 299.63 98.97 300.23 76.17 301.88 60.57 304.73 45 320.78 42.87 338.63 42.27 356.33 42.72 372.23 45 375.08 59.52 376.88 76.17 377.78 99.42 376.73 119.25 358.91 119.1 338.9 118.65 318.2 118.86 300.23 119.25"/><g class="cls-16"><path class="cls-5" d="M402.87,210.5a254.25,254.25,0,0,1,67.25,0" transform="translate(-98.02 -169.15)"/></g><path class="cls-5" d="M465.9,211.78l3.81-1.32-3.36-2.25m-59.73,0-3.33,2.25,3.78,1.32" transform="translate(-98.02 -169.15)"/><g class="cls-17"><path class="cls-5" d="M475.2,213.69a263,263,0,0,1,5.37,52.88q0,10.79-.88,21.55" transform="translate(-98.02 -169.15)"/></g><path class="cls-5" d="M478.2,283.66l1.53,3.75,2-3.48m-4-66.54-2.46-3.18-1.08,3.87" transform="translate(-98.02 -169.15)"/><path d="M497.2,260.58a1.11,1.11,0,0,0-.18-.48.76.76,0,0,0-.66-.29.86.86,0,0,0-.87.63,2.59,2.59,0,0,0-.12.89,2.38,2.38,0,0,0,.12.85.84.84,0,0,0,.85.6.75.75,0,0,0,.63-.24,1.19,1.19,0,0,0,.22-.62h1.28a2.1,2.1,0,0,1-.41,1.08,2,2,0,0,1-1.75.82,2,2,0,0,1-1.7-.69,2.77,2.77,0,0,1-.54-1.78,2.81,2.81,0,0,1,.6-1.92,2.1,2.1,0,0,1,1.66-.69,2.5,2.5,0,0,1,1.47.4,1.88,1.88,0,0,1,.68,1.43Z" transform="translate(-98.02 -169.15)"/><path d="M448.95,204.33a1.11,1.11,0,0,0-.18-.48.76.76,0,0,0-.66-.29.86.86,0,0,0-.87.63,2.59,2.59,0,0,0-.12.89,2.38,2.38,0,0,0,.12.85.84.84,0,0,0,.85.6.75.75,0,0,0,.63-.24,1.19,1.19,0,0,0,.22-.62h1.28a2.1,2.1,0,0,1-.41,1.08,2,2,0,0,1-1.75.82,2,2,0,0,1-1.7-.69,2.77,2.77,0,0,1-.54-1.78,2.81,2.81,0,0,1,.6-1.92,2.1,2.1,0,0,1,1.66-.69,2.5,2.5,0,0,1,1.47.4,1.88,1.88,0,0,1,.68,1.43Z" transform="translate(-98.02 -169.15)"/><g class="cls-18"><path class="cls-8" d="M364.52,349.32a316.71,316.71,0,0,1,26.9-180m117,180a316.71,316.71,0,0,0-26.9-180M346.66,196.12a454.5,454.5,0,0,1,179.67,0m-179.81,135q44.39-2.25,88.85-2.25t88.85,2.25M346.66,252.37a454.5,454.5,0,0,1,179.67,0" transform="translate(-98.02 -169.15)"/><path class="cls-9" d="M400.52,288.42a2.25,2.25,0,1,1-2.25-2.25,2.25,2.25,0,0,1,2.25,2.25Zm76.5,0a2.25,2.25,0,1,1-2.25-2.25,2.25,2.25,0,0,1,2.25,2.25Zm-72-74.28a2.25,2.25,0,1,1-2.25-2.25,2.25,2.25,0,0,1,2.25,2.25Zm67.5,0a2.25,2.25,0,1,1-2.25-2.25,2.25,2.25,0,0,1,2.25,2.25Z" transform="translate(-98.02 -169.15)"/><line class="cls-8" x1="338.48" x2="338.48" y2="180"/></g><path d="M360.22,286.43v3.9a2.06,2.06,0,0,0,.13.83.9.9,0,0,0,.9.49,1.18,1.18,0,0,0,1.18-.7,2.54,2.54,0,0,0,.17-1v-3.52h1.71v6.47h-1.64V292l-.12.18a1.2,1.2,0,0,1-.22.26,2.34,2.34,0,0,1-.77.49,2.6,2.6,0,0,1-.87.13,1.93,1.93,0,0,1-1.93-1,4,4,0,0,1-.28-1.68v-3.9Z" transform="translate(-98.02 -169.15)"/><path d="M373.72,214.44v3.9a2.06,2.06,0,0,0,.13.83.9.9,0,0,0,.9.49,1.18,1.18,0,0,0,1.18-.7,2.54,2.54,0,0,0,.17-1v-3.52h1.71v6.47h-1.64V220l-.12.18a1.19,1.19,0,0,1-.22.26,2.34,2.34,0,0,1-.77.49,2.6,2.6,0,0,1-.87.13,1.93,1.93,0,0,1-1.93-1,4,4,0,0,1-.28-1.68v-3.9Z" transform="translate(-98.02 -169.15)"/><path d="M499.72,214.44v3.9a2,2,0,0,0,.13.83.9.9,0,0,0,.9.49,1.18,1.18,0,0,0,1.18-.7,2.56,2.56,0,0,0,.17-1v-3.52h1.71v6.47h-1.64V220l-.12.18a1.14,1.14,0,0,1-.22.26,2.34,2.34,0,0,1-.77.49,2.6,2.6,0,0,1-.87.13,1.93,1.93,0,0,1-1.93-1,4,4,0,0,1-.28-1.68v-3.9Z" transform="translate(-98.02 -169.15)"/><path d="M511,286.43v3.9a2.06,2.06,0,0,0,.13.83.9.9,0,0,0,.9.49,1.18,1.18,0,0,0,1.18-.7,2.54,2.54,0,0,0,.17-1v-3.52h1.71v6.47h-1.64V292l-.12.18a1.2,1.2,0,0,1-.22.26,2.34,2.34,0,0,1-.77.49,2.6,2.6,0,0,1-.87.13,1.93,1.93,0,0,1-1.93-1,4,4,0,0,1-.28-1.68v-3.9Z" transform="translate(-98.02 -169.15)"/><path d="M436.72,286.43v3.9a2.06,2.06,0,0,0,.13.83.9.9,0,0,0,.9.49,1.18,1.18,0,0,0,1.18-.7,2.54,2.54,0,0,0,.17-1v-3.52h1.71v6.47h-1.64V292l-.12.18a1.2,1.2,0,0,1-.22.26,2.34,2.34,0,0,1-.77.49,2.6,2.6,0,0,1-.87.13,1.93,1.93,0,0,1-1.93-1,4,4,0,0,1-.28-1.68v-3.9Z" transform="translate(-98.02 -169.15)"/><path d="M400.95,326.7h1.88l-2.42,6.71h-1.85l-2.41-6.71h2l1.4,4.95Z" transform="translate(-98.02 -169.15)"/><path d="M475.2,326.7h1.88l-2.42,6.71h-1.85l-2.41-6.71h2l1.4,4.95Z" transform="translate(-98.02 -169.15)"/><path d="M477.45,241.19h1.88l-2.42,6.71h-1.85l-2.41-6.71h2l1.4,4.95Z" transform="translate(-98.02 -169.15)"/><path d="M466.2,184.94h1.88l-2.42,6.71h-1.85l-2.41-6.71h2l1.4,4.95Z" transform="translate(-98.02 -169.15)"/><path d="M409.95,184.94h1.88l-2.42,6.71h-1.85l-2.41-6.71h2l1.4,4.95Z" transform="translate(-98.02 -169.15)"/><path d="M403.2,241.19h1.88l-2.42,6.71h-1.85l-2.41-6.71h2l1.4,4.95Z" transform="translate(-98.02 -169.15)"/><path d="M434.47,209.93v3.9a2.06,2.06,0,0,0,.13.83.9.9,0,0,0,.9.49,1.18,1.18,0,0,0,1.18-.7,2.54,2.54,0,0,0,.17-1v-3.52h1.71v6.47h-1.64v-.91l-.12.18a1.19,1.19,0,0,1-.22.26,2.34,2.34,0,0,1-.77.49,2.6,2.6,0,0,1-.87.13,1.93,1.93,0,0,1-1.93-1,4,4,0,0,1-.28-1.68v-3.9Z" transform="translate(-98.02 -169.15)"/><path d="M429,246.06a1,1,0,0,0,.78-.44,6.15,6.15,0,0,0,.55-1.13l3-7.39h.38l3,7.09a9.55,9.55,0,0,0,.76,1.54.8.8,0,0,0,.71.33v.34h-4.37v-.34a3.06,3.06,0,0,0,.87-.11c.14-.06.21-.2.21-.43a1.74,1.74,0,0,0-.11-.48q-.07-.19-.18-.46l-.34-.82h-3l-.38,1a2.71,2.71,0,0,0-.18.76q0,.29.39.42a2.6,2.6,0,0,0,.69.08v.34H429Zm5.07-2.84-1.3-3.12h-.11l-1.22,3.13Z" transform="translate(-98.02 -169.15)"/><path class="cls-19" d="M440.73,246.54a3.89,3.89,0,0,1,.87-.5,2.21,2.21,0,0,1,.8-.16,1.06,1.06,0,0,1,.5.09.31.31,0,0,1,.17.28q0,.28-.39.44a2.84,2.84,0,0,1-1.07.16h-.42l-.38,0A3.1,3.1,0,0,0,440,248a4,4,0,0,0-.29,1.52,1.58,1.58,0,0,0,.37,1.18,1.71,1.71,0,0,0,1.22.36l.42,0,.43,0a1.83,1.83,0,0,1,1.08.25.92.92,0,0,1,.34.8,1.31,1.31,0,0,1-.59,1.15,2.94,2.94,0,0,1-1.67.41,1.08,1.08,0,0,1-.5-.09.28.28,0,0,1-.17-.26.27.27,0,0,1,.11-.24.55.55,0,0,1,.33-.08,2.29,2.29,0,0,1,.51.1,2.42,2.42,0,0,0,.62.1,1.23,1.23,0,0,0,.74-.21.64.64,0,0,0,.3-.53.42.42,0,0,0-.24-.4,1.81,1.81,0,0,0-.78-.12h-1.06a1.92,1.92,0,0,1-1.47-.51,2.26,2.26,0,0,1-.47-1.58,4.19,4.19,0,0,1,.32-1.64,4.47,4.47,0,0,1,1-1.4,3.25,3.25,0,0,1-1.17-.44.79.79,0,0,1-.4-.64.66.66,0,0,1,.38-.6,2.23,2.23,0,0,1,1.07-.21h.23l.16,0v.25h-.26a1.15,1.15,0,0,0-.64.15.49.49,0,0,0-.21.43.62.62,0,0,0,.27.5A1.9,1.9,0,0,0,440.73,246.54Z" transform="translate(-98.02 -169.15)"/><path d="M103.71,206.75a.86.86,0,0,0,.73-.46,1.4,1.4,0,0,0,.11-.61,1.29,1.29,0,0,0-.57-1.18,3.07,3.07,0,0,0-1.64-.37,2.08,2.08,0,0,0-1.75.67,2.22,2.22,0,0,0-.38,1.1H98.71a2.73,2.73,0,0,1,1.13-2.43,4.62,4.62,0,0,1,2.52-.68,5.11,5.11,0,0,1,2.7.63,2.15,2.15,0,0,1,1,2v5.42a.69.69,0,0,0,.1.4.49.49,0,0,0,.43.15h.24l.28,0v1.17a4.41,4.41,0,0,1-.56.13,4.11,4.11,0,0,1-.53,0,1.3,1.3,0,0,1-1.19-.58,2.24,2.24,0,0,1-.27-.87,4,4,0,0,1-1.39,1.1,4.3,4.3,0,0,1-2,.47,3,3,0,0,1-2.14-.79,2.64,2.64,0,0,1-.83-2,2.56,2.56,0,0,1,.82-2,3.9,3.9,0,0,1,2.14-.89ZM100.37,211a1.86,1.86,0,0,0,1.19.39,3.61,3.61,0,0,0,1.62-.39,2.17,2.17,0,0,0,1.32-2.1v-1.27a2.68,2.68,0,0,1-.75.31,6.27,6.27,0,0,1-.89.18l-1,.12a3.69,3.69,0,0,0-1.29.36,1.4,1.4,0,0,0-.73,1.32A1.3,1.3,0,0,0,100.37,211Z" transform="translate(-98.02 -169.15)"/><path d="M108.13,216.12a31,31,0,0,0,1.8-4,15.88,15.88,0,0,0-.1-9.08,28.13,28.13,0,0,0-1.73-3.74h1.06q1.35,2.16,1.64,2.67a10.31,10.31,0,0,1,.62,1.39,11.26,11.26,0,0,1,.6,2.17,12.47,12.47,0,0,1,.18,2.07,12.27,12.27,0,0,1-.83,4.64,25.49,25.49,0,0,1-2.15,3.86Z" transform="translate(-98.02 -169.15)"/><path d="M328.53,199.49h1.54v4.68a3.47,3.47,0,0,1,2.81-1.39,3.69,3.69,0,0,1,2.86,1.21,5.13,5.13,0,0,1,1.1,3.56,6.1,6.1,0,0,1-1.08,3.71,3.53,3.53,0,0,1-3,1.48,3.09,3.09,0,0,1-1.82-.52,4.36,4.36,0,0,1-.94-1v1.2h-1.46Zm6,10.84a5,5,0,0,0,.64-2.69,4.4,4.4,0,0,0-.64-2.46,2.11,2.11,0,0,0-1.88-1,2.63,2.63,0,0,0-1.9.8,3.58,3.58,0,0,0-.82,2.64,5.81,5.81,0,0,0,.33,2.15,2.31,2.31,0,0,0,2.34,1.56A2.12,2.12,0,0,0,334.58,210.32Z" transform="translate(-98.02 -169.15)"/><path d="M338.13,216.12a31,31,0,0,0,1.8-4,15.88,15.88,0,0,0-.1-9.08,28.13,28.13,0,0,0-1.73-3.74h1.06q1.35,2.16,1.64,2.67a10.18,10.18,0,0,1,.62,1.39,11.33,11.33,0,0,1,.6,2.17,12.57,12.57,0,0,1,.18,2.07,12.27,12.27,0,0,1-.83,4.64,25.49,25.49,0,0,1-2.15,3.86Z" transform="translate(-98.02 -169.15)"/><path d="M104.88,419.53a3.71,3.71,0,0,1,1.2,2.66h-1.54a2.84,2.84,0,0,0-.64-1.45,2,2,0,0,0-1.61-.58,2.22,2.22,0,0,0-2.16,1.47,5.85,5.85,0,0,0-.42,2.36,4.44,4.44,0,0,0,.6,2.38,2.32,2.32,0,0,0,3.44.37,3.29,3.29,0,0,0,.8-1.64h1.54a3.72,3.72,0,0,1-4,3.6,3.6,3.6,0,0,1-2.94-1.35A5.17,5.17,0,0,1,98,424a5.68,5.68,0,0,1,1.2-3.86,3.89,3.89,0,0,1,3.07-1.38A4.1,4.1,0,0,1,104.88,419.53Z" transform="translate(-98.02 -169.15)"/><path d="M107.12,432.12a31,31,0,0,0,1.8-4,15.88,15.88,0,0,0-.1-9.08,28.13,28.13,0,0,0-1.73-3.74h1.06q1.35,2.16,1.64,2.67a10.32,10.32,0,0,1,.62,1.39,11.25,11.25,0,0,1,.6,2.17,12.48,12.48,0,0,1,.18,2.07,12.27,12.27,0,0,1-.83,4.64,25.49,25.49,0,0,1-2.15,3.86Z" transform="translate(-98.02 -169.15)"/><path d="M333.83,419.32a4.28,4.28,0,0,1,1,.92v-4.76h1.52v13h-1.42v-1.31a3.41,3.41,0,0,1-1.3,1.26,3.72,3.72,0,0,1-1.72.39,3.49,3.49,0,0,1-2.71-1.32,5.19,5.19,0,0,1-1.15-3.52,6.09,6.09,0,0,1,1-3.56,3.42,3.42,0,0,1,3-1.51A3.33,3.33,0,0,1,333.83,419.32Zm-3.53,7.06a2.23,2.23,0,0,0,2,1,2.15,2.15,0,0,0,1.8-.95,4.47,4.47,0,0,0,.7-2.71,4,4,0,0,0-.73-2.64,2.26,2.26,0,0,0-1.79-.86,2.36,2.36,0,0,0-1.93.91,4.2,4.2,0,0,0-.74,2.69A4.68,4.68,0,0,0,330.3,426.38Z" transform="translate(-98.02 -169.15)"/><path d="M338.13,432.12a31,31,0,0,0,1.8-4,15.88,15.88,0,0,0-.1-9.08,28.13,28.13,0,0,0-1.73-3.74h1.06q1.35,2.16,1.64,2.67a10.19,10.19,0,0,1,.62,1.39,11.32,11.32,0,0,1,.6,2.17,12.58,12.58,0,0,1,.18,2.07,12.27,12.27,0,0,1-.83,4.64,25.49,25.49,0,0,1-2.15,3.86Z" transform="translate(-98.02 -169.15)"/></svg>