<svg id="Layer_1" data-name="Layer 1" xmlns="http://www.w3.org/2000/svg" xmlns:xlink="http://www.w3.org/1999/xlink" viewBox="0 0 308 213"><defs><style>.cls-1,.cls-4,.cls-7{fill:none;}.cls-1{clip-rule:evenodd;}.cls-2{fill:#fff;}.cls-3{clip-path:url(#clip-path);}.cls-4,.cls-7,.cls-8{stroke:#000;stroke-miterlimit:10;}.cls-4{stroke-width:0.45px;}.cls-5{clip-path:url(#clip-path-2);}.cls-6{clip-path:url(#clip-path-3);}.cls-7,.cls-8{stroke-width:0.9px;}.cls-8{fill-rule:evenodd;}.cls-9{clip-path:url(#clip-path-4);}.cls-10{clip-path:url(#clip-path-5);}</style><clipPath id="clip-path" transform="translate(-131 -290)"><path class="cls-1" d="M131,290V503H439V290ZM321.2,480.4h3.6v-9.12l-1.8,7.2-1.8-7.2Z"/></clipPath><clipPath id="clip-path-2" transform="translate(-131 -290)"><path class="cls-1" d="M131,290V503H439V290ZM321.2,426.4h3.6v-9.12l-1.8,7.2-1.8-7.2Z"/></clipPath><clipPath id="clip-path-3" transform="translate(-131 -290)"><path class="cls-1" d="M131,290V503H439V290ZM307.64,401,303.8,395l-14.58,9.18,14.16-4.62L293.06,410.2Z"/></clipPath><clipPath id="clip-path-4" transform="translate(-131 -290)"><path class="cls-1" d="M131,290V503H439V290Zm228.9,22.1v-7.2H342.68l14.4,3.6-14.4,3.6Z"/></clipPath><clipPath id="clip-path-5" transform="translate(-131 -290)"><path class="cls-1" d="M131,290V503H439V290ZM249.2,412.9h3.6v-9.12L251,411l-1.8-7.2Z"/></clipPath></defs><title>pressure-method-rigid-lid</title><rect class="cls-2" width="308" height="213"/><path d="M394.48,433.17a13.56,13.56,0,0,1,4-3.41l.25.44a12,12,0,0,0-3,3.28,14.84,14.84,0,0,0-1.6,7.41,22,22,0,0,0,.61,5.66,9.75,9.75,0,0,0,4,5.84l-.34.44a11.28,11.28,0,0,1-3.51-3,13,13,0,0,1-3.12-8.54A12.61,12.61,0,0,1,394.48,433.17Z" transform="translate(-131 -290)"/><path d="M426.91,445.07a12.81,12.81,0,0,1-4.29,6.41,10.59,10.59,0,0,1-1.92,1.33l-.25-.44a11.16,11.16,0,0,0,3-3.15,14.86,14.86,0,0,0,1.66-7.53,20.79,20.79,0,0,0-.77-6.18,9.89,9.89,0,0,0-3.86-5.33l.34-.44a12.81,12.81,0,0,1,3.88,3.51,13,13,0,0,1,2.75,8.09A13.15,13.15,0,0,1,426.91,445.07Z" transform="translate(-131 -290)"/><path d="M253.23,365v4.5a1.84,1.84,0,0,0,.13.77,1,1,0,0,0,1,.53,1.63,1.63,0,0,0,.94-.32,2.74,2.74,0,0,0,.53-.49v-3.85a.9.9,0,0,0-.21-.71,1.6,1.6,0,0,0-.84-.2V365H257v4.95a1,1,0,0,0,.17.66,1,1,0,0,0,.73.16v.2l-.57.16-.61.19-.8.3a0,0,0,0,1,0,0,.36.36,0,0,1,0-.07v-1.13a4.77,4.77,0,0,1-.87.84,2.16,2.16,0,0,1-1.27.42,1.81,1.81,0,0,1-1.15-.44,1.73,1.73,0,0,1-.55-1.44V366.1a.92.92,0,0,0-.24-.75,1.45,1.45,0,0,0-.66-.17V365Z" transform="translate(-131 -290)"/><path d="M261.22,372.67a3.17,3.17,0,0,1-1.1.88l-.13-.28a2.39,2.39,0,0,0,.93-.82,1.57,1.57,0,0,0,.26-.74.12.12,0,0,0-.06-.13.32.32,0,0,0-.13,0l-.47,0a.86.86,0,0,1-.54-.19.67.67,0,0,1-.25-.56.89.89,0,0,1,.2-.55.79.79,0,0,1,.67-.27,1.1,1.1,0,0,1,.79.35,1.3,1.3,0,0,1,.35,1A2,2,0,0,1,261.22,372.67Z" transform="translate(-131 -290)"/><path d="M264.89,365v.22a1.84,1.84,0,0,0-.52.11.31.31,0,0,0-.15.31.72.72,0,0,0,0,.21q0,.1.11.3l1.48,3.53,1.25-3.12q.09-.23.17-.49a1.41,1.41,0,0,0,.08-.39.41.41,0,0,0-.26-.39,1.44,1.44,0,0,0-.42-.08V365h2v.22a.65.65,0,0,0-.5.23,4.87,4.87,0,0,0-.44.92l-2,5.06a1.05,1.05,0,0,1-.09.18.11.11,0,0,1-.1,0,.14.14,0,0,1-.12-.08l-.11-.2-2.15-5.15a2.07,2.07,0,0,0-.56-.85,1.12,1.12,0,0,0-.51-.17V365Z" transform="translate(-131 -290)"/><path d="M245.35,356.35a7.61,7.61,0,0,0,1,.26.72.72,0,0,0,.49-.13,1.06,1.06,0,0,0,.25-.39h.36l.13,3.41h-.37a6.19,6.19,0,0,0-1-1.76,3.27,3.27,0,0,0-2.49-1,3.76,3.76,0,0,0-2.74,1.18,5.36,5.36,0,0,0-1.18,3.9,4.91,4.91,0,0,0,1.18,3.5,3.83,3.83,0,0,0,2.91,1.26,5.1,5.1,0,0,0,.69-.06,4.24,4.24,0,0,0,.75-.17,2.2,2.2,0,0,0,.72-.33.54.54,0,0,0,.14-.41V363q0-.94-.27-1.17a2.14,2.14,0,0,0-1.16-.29v-.3h4.13v.3a1.55,1.55,0,0,0-.8.2,1.27,1.27,0,0,0-.33,1V366q0,.28-1.4.76a8.33,8.33,0,0,1-2.69.47,6,6,0,0,1-4-1.38,5.1,5.1,0,0,1-1.8-4.1,5.64,5.64,0,0,1,1.43-3.88,5.3,5.3,0,0,1,4.18-1.78A6.67,6.67,0,0,1,245.35,356.35Z" transform="translate(-131 -290)"/><path d="M253.12,350.09a7.22,7.22,0,0,1,2.12-1.82l.13.23a6.43,6.43,0,0,0-1.62,1.75,7.93,7.93,0,0,0-.85,4,11.76,11.76,0,0,0,.32,3,5.2,5.2,0,0,0,2.14,3.11l-.18.23a6,6,0,0,1-1.87-1.62,6.93,6.93,0,0,1-1.67-4.56A6.73,6.73,0,0,1,253.12,350.09Z" transform="translate(-131 -290)"/><path d="M256.06,357.8a1.28,1.28,0,0,0,.7-.25,1.19,1.19,0,0,0,.2-.83v-3.57a1.64,1.64,0,0,0-.08-.63.55.55,0,0,0-.55-.27h-.13l-.17,0V352l1.36-.44.66-.22s.05,0,.06,0a.37.37,0,0,1,0,.1v1a7.2,7.2,0,0,1,1-.83,2.11,2.11,0,0,1,1.14-.34,1.49,1.49,0,0,1,.87.27,2.17,2.17,0,0,1,.76,1.91v3.28a1.08,1.08,0,0,0,.2.73.89.89,0,0,0,.68.23v.2h-3v-.2a1.2,1.2,0,0,0,.72-.28,1.44,1.44,0,0,0,.2-.93v-3a2,2,0,0,0-.22-1,.86.86,0,0,0-.82-.4,1.52,1.52,0,0,0-.84.28,4.82,4.82,0,0,0-.62.53v3.94a.82.82,0,0,0,.23.68,1.23,1.23,0,0,0,.71.19v.2h-3.07Z" transform="translate(-131 -290)"/><path d="M266.57,350.73h1v3.14h3.14v1h-3.14V358h-1v-3.14h-3.14v-1h3.14Z" transform="translate(-131 -290)"/><path d="M271.95,354.17a1.47,1.47,0,0,0,.69-.16.55.55,0,0,0,.19-.49v-4a.85.85,0,0,0,0-.31c0-.07-.11-.11-.22-.11a.82.82,0,0,0-.25,0l-.37.14v-.12l1.62-.8h0v5.12a.62.62,0,0,0,.15.49,1.4,1.4,0,0,0,.73.16v.12h-2.57Zm6.83-5.86h.67l-6,9.8h-.7Zm-2,9.62a32,32,0,0,0,2.35-2.42,2.23,2.23,0,0,0,.53-1.4,1.18,1.18,0,0,0-.4-.94,1.28,1.28,0,0,0-.84-.34,1.18,1.18,0,0,0-.87.3,2.7,2.7,0,0,0-.53.85l-.25-.07a2.71,2.71,0,0,1,.7-1.31,1.77,1.77,0,0,1,1.27-.45,1.86,1.86,0,0,1,1.21.41,1.38,1.38,0,0,1,.51,1.13,2.45,2.45,0,0,1-.4,1.31,8.41,8.41,0,0,1-1.45,1.59l-.85.83h1.31a5,5,0,0,0,1.16-.07,1.28,1.28,0,0,0,.49-.52l.17.07-.47,1.18h-3.65Z" transform="translate(-131 -290)"/><path d="M285.74,356.44a6.85,6.85,0,0,1-2.29,3.42,5.64,5.64,0,0,1-1,.71l-.13-.23a6,6,0,0,0,1.58-1.68,7.93,7.93,0,0,0,.89-4,11.11,11.11,0,0,0-.41-3.3,5.28,5.28,0,0,0-2.06-2.84l.18-.23a6.83,6.83,0,0,1,2.07,1.87,7,7,0,0,1,1.47,4.32A7.05,7.05,0,0,1,285.74,356.44Z" transform="translate(-131 -290)"/><path d="M316.51,485.67v5.06a2.06,2.06,0,0,0,.15.86,1.09,1.09,0,0,0,1.08.6,1.83,1.83,0,0,0,1.05-.36,3.09,3.09,0,0,0,.59-.54V487a1,1,0,0,0-.24-.8,1.79,1.79,0,0,0-.95-.23v-.26h2.55v5.57a1.07,1.07,0,0,0,.19.74,1.11,1.11,0,0,0,.82.18v.22l-.64.18-.69.22-.9.34a0,0,0,0,1,0,0,.41.41,0,0,1,0-.08v-1.27a5.38,5.38,0,0,1-1,.95,2.43,2.43,0,0,1-1.42.47,2,2,0,0,1-1.3-.49,1.94,1.94,0,0,1-.62-1.62v-4.11a1,1,0,0,0-.27-.84,1.63,1.63,0,0,0-.74-.19v-.22Z" transform="translate(-131 -290)"/><path d="M325.49,494.32a3.56,3.56,0,0,1-1.24,1l-.15-.32a2.69,2.69,0,0,0,1-.93,1.76,1.76,0,0,0,.29-.83.14.14,0,0,0-.07-.14.37.37,0,0,0-.15,0l-.53.05a1,1,0,0,1-.61-.22.75.75,0,0,1-.28-.63,1,1,0,0,1,.23-.62.89.89,0,0,1,.75-.3,1.24,1.24,0,0,1,.89.39,1.46,1.46,0,0,1,.4,1.09A2.27,2.27,0,0,1,325.49,494.32Z" transform="translate(-131 -290)"/><path d="M329.63,485.65v.25a2.1,2.1,0,0,0-.58.13.34.34,0,0,0-.17.35.81.81,0,0,0,0,.24c0,.08.06.19.12.34l1.66,4,1.41-3.51c.07-.17.13-.36.19-.54a1.57,1.57,0,0,0,.09-.44.46.46,0,0,0-.29-.44,1.64,1.64,0,0,0-.47-.09v-.25h2.25v.25a.74.74,0,0,0-.56.26,5.42,5.42,0,0,0-.5,1l-2.29,5.7a1.2,1.2,0,0,1-.1.21.13.13,0,0,1-.11.06.16.16,0,0,1-.13-.09l-.12-.23L327.65,487a2.31,2.31,0,0,0-.62-1,1.26,1.26,0,0,0-.58-.19v-.25Z" transform="translate(-131 -290)"/><path d="M336.76,483.8a1.27,1.27,0,0,0,.7-.25,1.19,1.19,0,0,0,.2-.83v-3.57a1.65,1.65,0,0,0-.08-.63.55.55,0,0,0-.55-.26h-.13l-.17,0V478l1.36-.44.66-.22s.05,0,.06,0a.33.33,0,0,1,0,.1v1a7.24,7.24,0,0,1,1-.83,2.11,2.11,0,0,1,1.14-.34,1.49,1.49,0,0,1,.87.27,2.18,2.18,0,0,1,.76,1.91v3.28a1.08,1.08,0,0,0,.2.73.89.89,0,0,0,.68.23v.2h-3v-.2a1.21,1.21,0,0,0,.72-.28,1.45,1.45,0,0,0,.2-.93v-3a2,2,0,0,0-.22-1,.86.86,0,0,0-.83-.4,1.52,1.52,0,0,0-.84.28,4.77,4.77,0,0,0-.62.53v3.94a.82.82,0,0,0,.23.68,1.23,1.23,0,0,0,.71.19v.2h-3.07Z" transform="translate(-131 -290)"/><path d="M347.27,476.73h1v3.14h3.14v1h-3.14V484h-1v-3.14h-3.14v-1h3.14Z" transform="translate(-131 -290)"/><path d="M356.11,474.39a.66.66,0,0,1,0,.08v8.47c0,.36.1.59.29.69a2.9,2.9,0,0,0,1.08.18v.2h-4v-.21a2.32,2.32,0,0,0,1.11-.23q.26-.19.26-.82v-6.51a1.24,1.24,0,0,0-.08-.51.37.37,0,0,0-.37-.18,1.52,1.52,0,0,0-.47.1l-.54.21v-.2l2.58-1.32h.08Z" transform="translate(-131 -290)"/><g class="cls-3"><line class="cls-4" x1="192" y1="162.5" x2="192" y2="189.5"/></g><polyline class="cls-4" points="190.2 181.28 192 188.48 193.8 181.28"/><g class="cls-5"><line class="cls-4" x1="192" y1="117.5" x2="192" y2="135.5"/></g><polyline class="cls-4" points="190.2 127.28 192 134.48 193.8 127.28"/><path d="M313.36,434.5h9.3l-4.47,10.88h-.36Zm8.16.73h-6l3,7.44Z" transform="translate(-131 -290)"/><path d="M327.93,438.84a45.8,45.8,0,0,0,3.5-3.92,4.14,4.14,0,0,0,.92-2.44,2.1,2.1,0,0,0-.56-1.58,1.86,1.86,0,0,0-1.34-.54,2,2,0,0,0-1.56.7,4.11,4.11,0,0,0-.63,1.19l-.3-.06a3.67,3.67,0,0,1,1.19-2.25,3,3,0,0,1,1.8-.63,2.58,2.58,0,0,1,1.92.75,2.51,2.51,0,0,1,.73,1.83,3.67,3.67,0,0,1-.79,2.22,47.74,47.74,0,0,1-3.45,3.8h3.23a2,2,0,0,0,.95-.16,2.1,2.1,0,0,0,.62-.79l.18.08-.78,2h-5.62Z" transform="translate(-131 -290)"/><path d="M343.4,446.94v-8.23a3.2,3.2,0,0,0-.25-1.52,1,1,0,0,0-.88-.41q-1,0-1.66,1.3a7.31,7.31,0,0,0-.66,3.31v2.12h-1.52v-5.32a2.56,2.56,0,0,0-.17-1.07.54.54,0,0,0-.51-.34.62.62,0,0,0-.57.33,2,2,0,0,0-.19,1v.23h-.32s0-.09,0-.13,0-.12,0-.21a2.21,2.21,0,0,1,.4-1.42,1.37,1.37,0,0,1,1.13-.49,1.43,1.43,0,0,1,1.31.72,4.36,4.36,0,0,1,.44,2.19,5,5,0,0,1,1.08-2.2,2.29,2.29,0,0,1,1.72-.7,1.85,1.85,0,0,1,1.68.79,5.13,5.13,0,0,1,.51,2.66v7.42Z" transform="translate(-131 -290)"/><path d="M359.62,436.52v1.23h-9.08v-1.23Zm0,3.63v1.23h-9.08v-1.23Z" transform="translate(-131 -290)"/><path d="M367.36,434.5h9.3l-4.47,10.88h-.36Zm8.16.73h-6l3,7.44Z" transform="translate(-131 -290)"/><path d="M383.72,443.42a1,1,0,0,1-.29-.71,1,1,0,0,1,.29-.7,1,1,0,0,1,.71-.29,1,1,0,0,1,1,1,1,1,0,0,1-.29.71,1,1,0,0,1-.71.29A1,1,0,0,1,383.72,443.42Z" transform="translate(-131 -290)"/><path d="M402,431.67v5.06a2.06,2.06,0,0,0,.15.86,1.09,1.09,0,0,0,1.08.6,1.83,1.83,0,0,0,1.05-.36,3.09,3.09,0,0,0,.59-.54V433a1,1,0,0,0-.24-.8,1.79,1.79,0,0,0-.95-.23v-.26h2.55v5.57a1.07,1.07,0,0,0,.19.74,1.11,1.11,0,0,0,.82.18v.22l-.64.18-.69.22-.9.34a0,0,0,0,1,0,0,.41.41,0,0,1,0-.08v-1.27a5.38,5.38,0,0,1-1,.95,2.43,2.43,0,0,1-1.42.47,2,2,0,0,1-1.3-.49,1.94,1.94,0,0,1-.62-1.62v-4.11a1,1,0,0,0-.27-.84,1.63,1.63,0,0,0-.74-.19v-.22Z" transform="translate(-131 -290)"/><path d="M403,445.15v.25a2.1,2.1,0,0,0-.58.13.34.34,0,0,0-.17.35.81.81,0,0,0,0,.24c0,.08.06.19.12.34l1.66,4,1.41-3.51c.07-.17.13-.36.19-.54a1.57,1.57,0,0,0,.09-.44.46.46,0,0,0-.29-.44,1.64,1.64,0,0,0-.47-.09v-.25h2.25v.25a.74.74,0,0,0-.56.26,5.42,5.42,0,0,0-.5,1l-2.29,5.7a1.2,1.2,0,0,1-.1.21.13.13,0,0,1-.11.06.16.16,0,0,1-.13-.09l-.12-.23L401,446.54a2.31,2.31,0,0,0-.62-1,1.26,1.26,0,0,0-.58-.19v-.25Z" transform="translate(-131 -290)"/><path d="M410.16,428.33a5.2,5.2,0,0,0,1.68-.6,6.88,6.88,0,0,0-1.7-.63q-.69-.18-.69-.6a.47.47,0,0,1,.15-.37.5.5,0,0,1,.34-.13q.29,0,.75.53a4.79,4.79,0,0,0,1.25,1v-.18a3.82,3.82,0,0,0-.19-1.17,3.24,3.24,0,0,1-.19-.82.55.55,0,0,1,.15-.42.5.5,0,0,1,.36-.14.46.46,0,0,1,.38.16.61.61,0,0,1,.13.4,3.39,3.39,0,0,1-.2.75,4.33,4.33,0,0,0-.18,1.42l.71-.5a2.74,2.74,0,0,0,.3-.29,7.53,7.53,0,0,1,.63-.63.56.56,0,0,1,.34-.09.47.47,0,0,1,.36.15.51.51,0,0,1,.14.37c0,.29-.21.48-.64.57a5.18,5.18,0,0,0-1.74.65l.12.07a5.4,5.4,0,0,0,1.64.55q.62.13.62.61a.43.43,0,0,1-.18.38.64.64,0,0,1-.36.12q-.29,0-.8-.6a3.33,3.33,0,0,0-1-.86l-.1,0v.1a4.11,4.11,0,0,0,.2,1.38,3.13,3.13,0,0,1,.2.68.6.6,0,0,1-.16.41.53.53,0,0,1-.41.18.44.44,0,0,1-.37-.17.64.64,0,0,1-.13-.41s.08-.34.24-.88a2.79,2.79,0,0,0,.16-1.19l0-.1a4.22,4.22,0,0,0-1.12.92q-.52.59-.84.59a.46.46,0,0,1-.38-.15.49.49,0,0,1-.12-.32Q409.45,428.48,410.16,428.33Z" transform="translate(-131 -290)"/><path d="M410.16,441.83a5.2,5.2,0,0,0,1.68-.6,6.88,6.88,0,0,0-1.7-.63q-.69-.18-.69-.6a.47.47,0,0,1,.15-.37.5.5,0,0,1,.34-.13q.29,0,.75.53a4.79,4.79,0,0,0,1.25,1v-.18a3.82,3.82,0,0,0-.19-1.17,3.24,3.24,0,0,1-.19-.82.55.55,0,0,1,.15-.42.5.5,0,0,1,.36-.14.46.46,0,0,1,.38.16.61.61,0,0,1,.13.4,3.39,3.39,0,0,1-.2.75,4.33,4.33,0,0,0-.18,1.42l.71-.5a2.74,2.74,0,0,0,.3-.29,7.53,7.53,0,0,1,.63-.63.56.56,0,0,1,.34-.09.47.47,0,0,1,.36.15.51.51,0,0,1,.14.37c0,.29-.21.48-.64.57a5.18,5.18,0,0,0-1.74.65l.12.07a5.4,5.4,0,0,0,1.64.55q.62.13.62.61a.43.43,0,0,1-.18.38.64.64,0,0,1-.36.12q-.29,0-.8-.6a3.33,3.33,0,0,0-1-.86l-.1,0v.1a4.11,4.11,0,0,0,.2,1.38,3.13,3.13,0,0,1,.2.68.6.6,0,0,1-.16.41.53.53,0,0,1-.41.18.44.44,0,0,1-.37-.17.64.64,0,0,1-.13-.41s.08-.34.24-.88a2.79,2.79,0,0,0,.16-1.19l0-.1a4.22,4.22,0,0,0-1.12.92q-.52.59-.84.59a.46.46,0,0,1-.38-.15.49.49,0,0,1-.12-.32Q409.45,442,410.16,441.83Z" transform="translate(-131 -290)"/><g class="cls-6"><path class="cls-7" d="M197,398.47a90,90,0,0,0,108.08,0" transform="translate(-131 -290)"/></g><polygon class="cls-8" points="162.06 120.2 172.38 109.52 158.22 114.14 162.06 120.2 162.06 120.2"/><g class="cls-9"><line class="cls-7" x1="12" y1="18.5" x2="228" y2="18.5"/></g><polygon class="cls-8" points="211.68 22.1 226.08 18.5 211.68 14.9 211.68 22.1 211.68 22.1"/><path class="cls-7" d="M323,304v9m-144-9v9" transform="translate(-131 -290)"/><g class="cls-10"><line class="cls-4" x1="120" y1="86" x2="120" y2="122"/></g><polyline class="cls-4" points="118.2 113.78 120 120.98 121.8 113.78"/><path d="M341.64,335.5h-9.3l4.47-10.88h.36Zm-8.16-.73h6l-3-7.44Z" transform="translate(-131 -290)"/><path d="M293.89,326.6a8.13,8.13,0,0,1,2.39-2l.15.26a7.23,7.23,0,0,0-1.82,2,8.91,8.91,0,0,0-1,4.45,13.18,13.18,0,0,0,.36,3.39,5.85,5.85,0,0,0,2.41,3.5l-.21.26a6.76,6.76,0,0,1-2.1-1.83,7.8,7.8,0,0,1-1.87-5.13A7.57,7.57,0,0,1,293.89,326.6Z" transform="translate(-131 -290)"/><path d="M297.19,335.28A1.43,1.43,0,0,0,298,335a1.34,1.34,0,0,0,.22-.94v-4a1.84,1.84,0,0,0-.09-.71.62.62,0,0,0-.62-.3h-.15l-.19,0v-.28l1.54-.49.74-.25s.06,0,.07,0a.41.41,0,0,1,0,.11v1.16a8.14,8.14,0,0,1,1.14-.93,2.37,2.37,0,0,1,1.28-.39,1.67,1.67,0,0,1,1,.31,2.45,2.45,0,0,1,.85,2.14v3.69a1.21,1.21,0,0,0,.23.82,1,1,0,0,0,.76.26v.22h-3.38v-.22a1.35,1.35,0,0,0,.81-.32,1.63,1.63,0,0,0,.23-1v-3.38a2.27,2.27,0,0,0-.25-1.13,1,1,0,0,0-.93-.45,1.71,1.71,0,0,0-.94.32,5.35,5.35,0,0,0-.69.6v4.43a.92.92,0,0,0,.25.76,1.39,1.39,0,0,0,.8.21v.22h-3.46Z" transform="translate(-131 -290)"/><path d="M309,327.32h1.11v3.54h3.54V332h-3.54v3.54H309V332h-3.54v-1.11H309Z" transform="translate(-131 -290)"/><path d="M319,324.69a.58.58,0,0,1,0,.09v9.52q0,.61.33.77a3.27,3.27,0,0,0,1.22.2v.22H316v-.24a2.61,2.61,0,0,0,1.25-.26q.29-.21.29-.93v-7.32a1.37,1.37,0,0,0-.1-.58.41.41,0,0,0-.41-.2,1.72,1.72,0,0,0-.53.11l-.61.24v-.22l2.9-1.48h.1Z" transform="translate(-131 -290)"/><path d="M326.53,333.74a7.73,7.73,0,0,1-.9,2,7.81,7.81,0,0,1-1.67,1.86,6.32,6.32,0,0,1-1.16.8l-.15-.26a6.7,6.7,0,0,0,1.78-1.89,8.92,8.92,0,0,0,1-4.52A12.48,12.48,0,0,0,325,328a5.94,5.94,0,0,0-2.32-3.2l.21-.26a7.69,7.69,0,0,1,2.33,2.1,8,8,0,0,1,1.34,7.09Z" transform="translate(-131 -290)"/><path d="M347.95,328.21v.57h-1.61l0,4.56a3,3,0,0,0,.1.91.73.73,0,0,0,.74.55.9.9,0,0,0,.49-.13,2.6,2.6,0,0,0,.48-.43l.21.17-.17.24a2.53,2.53,0,0,1-.87.78,2,2,0,0,1-.89.23,1.25,1.25,0,0,1-1.27-.83,3.42,3.42,0,0,1-.18-1.25v-4.79h-.86l-.06,0a.09.09,0,0,1,0-.06.19.19,0,0,1,0-.12l.23-.2a6.93,6.93,0,0,0,.79-.73q.24-.28,1.13-1.48l.12,0s0,.05,0,.12v1.95Z" transform="translate(-131 -290)"/><path d="M184.14,335.5h-9.3l4.47-10.88h.36Zm-8.16-.73h6l-3-7.44Z" transform="translate(-131 -290)"/><path d="M368.68,312.26a1.12,1.12,0,0,1,0-.19l1.7-6.13h-1.34a.76.76,0,0,1,0-.3.38.38,0,0,1,.18-.12,7.37,7.37,0,0,0,1.38-.73,8.67,8.67,0,0,0,1.34-1.36l.14-.17.07-.06.08,0,.12,0a.37.37,0,0,1,0,.11.39.39,0,0,1,0,.1l-.52,1.92h1.45l-.11.6h-1.52l-1.62,5.91a.41.41,0,0,0,0,.3.24.24,0,0,0,.24.14q.23,0,.64-.46.24-.25.8-1l.23.13-.12.18a6.8,6.8,0,0,1-1.33,1.58,1.83,1.83,0,0,1-1.1.44.81.81,0,0,1-.65-.24.8.8,0,0,1-.2-.54S368.67,312.32,368.68,312.26Z" transform="translate(-131 -290)"/><path d="M377.08,305a.07.07,0,0,1,0,.07l-1.77,6.28a4.21,4.21,0,0,0-.12.6.47.47,0,0,0,.05.23q0,.11.22.11t.79-.52a9.92,9.92,0,0,0,.71-.88l.23.19-.09.12a9.45,9.45,0,0,1-1.09,1.33,2,2,0,0,1-1.32.63.77.77,0,0,1-.63-.32,1.17,1.17,0,0,1-.25-.75,2.46,2.46,0,0,1,0-.44q0-.19.13-.56l1.25-4.52,0-.19a.89.89,0,0,0,0-.18.36.36,0,0,0-.23-.39,3.61,3.61,0,0,0-.92-.07v-.29l1-.14.64-.1.79-.16A1.05,1.05,0,0,1,377.08,305Zm-.83-2.2a1,1,0,0,1-.25-.68,1,1,0,0,1,.25-.69.8.8,0,0,1,.62-.28.81.81,0,0,1,.62.28,1,1,0,0,1,.26.69,1,1,0,0,1-.26.68.82.82,0,0,1-.62.28A.8.8,0,0,1,376.25,302.83Z" transform="translate(-131 -290)"/><path d="M385.4,305.24a1.07,1.07,0,0,1,.42,1,3.38,3.38,0,0,1-.15.83q-.15.53-.52,1.71a19.44,19.44,0,0,1,1.68-2.27,3.43,3.43,0,0,1,2.26-1.41,1.17,1.17,0,0,1,.76.28,1.1,1.1,0,0,1,.34.9,6.1,6.1,0,0,1-.17.94l-1.38,4.8a.29.29,0,0,0,0,.23.23.23,0,0,0,.23.12.49.49,0,0,0,.28-.08,2.19,2.19,0,0,0,.3-.26l.29-.31.63-.77.27.21-.09.12a7.32,7.32,0,0,1-1.28,1.43,2,2,0,0,1-1.27.53.79.79,0,0,1-.47-.14.9.9,0,0,1-.3-.77,1.93,1.93,0,0,1,0-.28c0-.1,0-.21.07-.33l1.36-4.93,0-.18a.76.76,0,0,0,0-.14.45.45,0,0,0-.11-.33.38.38,0,0,0-.28-.11,2.14,2.14,0,0,0-1.4.89,14.56,14.56,0,0,0-1.39,1.8,9.71,9.71,0,0,0-.76,1.56q-.22.63-.8,2.76h-1.37l1.76-6.26,0-.15a.88.88,0,0,0,0-.15.51.51,0,0,0-.09-.33.37.37,0,0,0-.31-.12q-.57,0-1.4.92a15,15,0,0,0-1.36,1.73,10.09,10.09,0,0,0-1,2.09q-.28.79-.74,2.28h-1.35l1.69-6.25,0-.19a1,1,0,0,0,0-.19q0-.35-.24-.42a3.37,3.37,0,0,0-.91,0v-.29q.88-.14,2.86-.58l.07.06-1,3.6a22.25,22.25,0,0,1,1.87-2.39,3.29,3.29,0,0,1,2.14-1.27A1.08,1.08,0,0,1,385.4,305.24Z" transform="translate(-131 -290)"/><path d="M393.32,306.89a5,5,0,0,1,3.59-1.83,1.72,1.72,0,0,1,1.09.32,1.12,1.12,0,0,1,.4.94,2.56,2.56,0,0,1-1.48,2.16,7.79,7.79,0,0,1-3.12,1.1l-.5.06a6,6,0,0,0-.16.58,2.77,2.77,0,0,0,0,.54,1.49,1.49,0,0,0,.51,1.2,1.79,1.79,0,0,0,1.2.43,2.75,2.75,0,0,0,1.4-.44,11.59,11.59,0,0,0,1.22-.91l.23.2a5.54,5.54,0,0,1-1.13,1,4.48,4.48,0,0,1-2.63.94,2.32,2.32,0,0,1-1.63-.66,2.46,2.46,0,0,1-.7-1.89A5.45,5.45,0,0,1,393.32,306.89Zm2.85,1.18a2.58,2.58,0,0,0,1.05-1.85.83.83,0,0,0-.16-.53.56.56,0,0,0-.47-.2,1.68,1.68,0,0,0-1.12.49,6.54,6.54,0,0,0-1,1.1,8.63,8.63,0,0,0-.74,1.38q-.15.35-.32.8A5.14,5.14,0,0,0,396.17,308.07Z" transform="translate(-131 -290)"/><path d="M165.79,335.28a1.43,1.43,0,0,0,.79-.28,1.34,1.34,0,0,0,.23-.94v-4a1.85,1.85,0,0,0-.09-.71.62.62,0,0,0-.62-.3h-.15l-.19,0v-.28l1.53-.49.74-.25s.06,0,.07,0a.41.41,0,0,1,0,.11v1.16a8.11,8.11,0,0,1,1.14-.93,2.37,2.37,0,0,1,1.28-.39,1.67,1.67,0,0,1,1,.31,2.45,2.45,0,0,1,.85,2.14v3.69a1.21,1.21,0,0,0,.23.82,1,1,0,0,0,.76.26v.22H170v-.22a1.35,1.35,0,0,0,.81-.32,1.62,1.62,0,0,0,.23-1v-3.38a2.27,2.27,0,0,0-.25-1.13,1,1,0,0,0-.93-.45,1.71,1.71,0,0,0-.94.32,5.38,5.38,0,0,0-.69.6v4.43a.92.92,0,0,0,.25.76,1.38,1.38,0,0,0,.8.21v.22h-3.46Z" transform="translate(-131 -290)"/><path d="M189.87,328.21v.57h-1.61l0,4.56a3,3,0,0,0,.1.91.73.73,0,0,0,.74.55.9.9,0,0,0,.49-.13,2.61,2.61,0,0,0,.48-.43l.21.17-.17.24a2.53,2.53,0,0,1-.87.78,2,2,0,0,1-.89.23,1.25,1.25,0,0,1-1.27-.83,3.45,3.45,0,0,1-.18-1.25v-4.79H186l-.06,0a.1.1,0,0,1,0-.06.19.19,0,0,1,0-.12l.23-.2a6.83,6.83,0,0,0,.79-.73q.24-.28,1.14-1.48l.12,0s0,.05,0,.12v1.95Z" transform="translate(-131 -290)"/><path d="M192.76,393.8a1.28,1.28,0,0,0,.7-.25,1.19,1.19,0,0,0,.2-.83v-3.57a1.64,1.64,0,0,0-.08-.63.55.55,0,0,0-.55-.27h-.13l-.17,0V388l1.36-.44.66-.22s.05,0,.06,0a.37.37,0,0,1,0,.1v1a7.2,7.2,0,0,1,1-.83,2.11,2.11,0,0,1,1.14-.34,1.49,1.49,0,0,1,.87.27,2.17,2.17,0,0,1,.76,1.91v3.28a1.08,1.08,0,0,0,.2.73.89.89,0,0,0,.68.23v.2h-3v-.2a1.2,1.2,0,0,0,.72-.28,1.44,1.44,0,0,0,.2-.93v-3a2,2,0,0,0-.22-1,.86.86,0,0,0-.82-.4,1.52,1.52,0,0,0-.84.28,4.82,4.82,0,0,0-.62.53v3.94a.82.82,0,0,0,.23.68,1.23,1.23,0,0,0,.71.19v.2h-3.07Z" transform="translate(-131 -290)"/><path d="M338.16,387.83a5.2,5.2,0,0,0,1.68-.6,6.84,6.84,0,0,0-1.7-.63q-.69-.18-.69-.6a.48.48,0,0,1,.15-.37.5.5,0,0,1,.34-.13q.29,0,.75.53a4.8,4.8,0,0,0,1.25,1v-.18a3.83,3.83,0,0,0-.19-1.17,3.22,3.22,0,0,1-.19-.82.55.55,0,0,1,.15-.42.51.51,0,0,1,.36-.14.46.46,0,0,1,.38.16.61.61,0,0,1,.13.4,3.4,3.4,0,0,1-.2.75,4.32,4.32,0,0,0-.18,1.42l.71-.51a2.69,2.69,0,0,0,.3-.29,7.79,7.79,0,0,1,.63-.63.56.56,0,0,1,.34-.09.47.47,0,0,1,.36.15.51.51,0,0,1,.14.37q0,.43-.64.57a5.19,5.19,0,0,0-1.74.65l.12.07a5.42,5.42,0,0,0,1.64.55q.62.13.62.61a.43.43,0,0,1-.18.38.65.65,0,0,1-.36.12q-.29,0-.8-.6a3.32,3.32,0,0,0-1-.86l-.1,0v.1a4.11,4.11,0,0,0,.2,1.38,3.14,3.14,0,0,1,.2.68.6.6,0,0,1-.16.41.52.52,0,0,1-.41.18.44.44,0,0,1-.37-.17.64.64,0,0,1-.13-.41s.08-.34.24-.88a2.79,2.79,0,0,0,.16-1.19l0-.1a4.22,4.22,0,0,0-1.12.92q-.52.59-.84.59a.46.46,0,0,1-.38-.15.48.48,0,0,1-.12-.32Q337.45,388,338.16,387.83Z" transform="translate(-131 -290)"/><path d="M172.51,391.18v5.06a2.07,2.07,0,0,0,.15.86,1.09,1.09,0,0,0,1.08.6,1.83,1.83,0,0,0,1.05-.36,3.12,3.12,0,0,0,.59-.54v-4.34a1,1,0,0,0-.24-.8,1.8,1.8,0,0,0-.95-.23v-.26h2.56v5.57a1.07,1.07,0,0,0,.19.74,1.11,1.11,0,0,0,.82.18v.22l-.64.18-.69.22-.9.34a0,0,0,0,1,0,0,.38.38,0,0,1,0-.08v-1.27a5.38,5.38,0,0,1-1,.95,2.43,2.43,0,0,1-1.42.47,2,2,0,0,1-1.3-.49,1.94,1.94,0,0,1-.62-1.62v-4.11a1,1,0,0,0-.27-.84,1.63,1.63,0,0,0-.74-.19v-.22Z" transform="translate(-131 -290)"/><path d="M181.49,399.83a3.56,3.56,0,0,1-1.24,1l-.15-.32a2.68,2.68,0,0,0,1-.93,1.76,1.76,0,0,0,.29-.83.14.14,0,0,0-.07-.14.38.38,0,0,0-.15,0l-.53.05a1,1,0,0,1-.61-.22.75.75,0,0,1-.28-.63,1,1,0,0,1,.23-.62.89.89,0,0,1,.75-.3,1.24,1.24,0,0,1,.89.39,1.46,1.46,0,0,1,.4,1.09A2.27,2.27,0,0,1,181.49,399.83Z" transform="translate(-131 -290)"/><path d="M185.63,391.16v.25a2.08,2.08,0,0,0-.58.13.34.34,0,0,0-.17.35.81.81,0,0,0,0,.24c0,.08.06.19.12.34l1.66,4,1.41-3.51q.1-.26.19-.55a1.56,1.56,0,0,0,.09-.44.46.46,0,0,0-.29-.44,1.64,1.64,0,0,0-.47-.1v-.25h2.25v.25a.73.73,0,0,0-.56.26,5.45,5.45,0,0,0-.49,1l-2.29,5.7a1.23,1.23,0,0,1-.1.21.13.13,0,0,1-.11.06.16.16,0,0,1-.13-.09,2.31,2.31,0,0,1-.12-.23l-2.42-5.79a2.32,2.32,0,0,0-.62-1,1.26,1.26,0,0,0-.58-.19v-.25Z" transform="translate(-131 -290)"/><path d="M316.51,391.18v5.06a2.06,2.06,0,0,0,.15.86,1.09,1.09,0,0,0,1.08.6,1.83,1.83,0,0,0,1.05-.36,3.09,3.09,0,0,0,.59-.54v-4.34a1,1,0,0,0-.24-.8,1.8,1.8,0,0,0-.95-.23v-.26h2.55v5.57a1.07,1.07,0,0,0,.19.74,1.11,1.11,0,0,0,.82.18v.22l-.64.18-.69.22-.9.34a0,0,0,0,1,0,0,.41.41,0,0,1,0-.08v-1.27a5.38,5.38,0,0,1-1,.95,2.43,2.43,0,0,1-1.42.47,2,2,0,0,1-1.3-.49,1.94,1.94,0,0,1-.62-1.62v-4.11a1,1,0,0,0-.27-.84,1.63,1.63,0,0,0-.74-.19v-.22Z" transform="translate(-131 -290)"/><path d="M325.49,399.83a3.56,3.56,0,0,1-1.24,1l-.15-.32a2.69,2.69,0,0,0,1-.93,1.76,1.76,0,0,0,.29-.83.14.14,0,0,0-.07-.14.37.37,0,0,0-.15,0l-.53.05a1,1,0,0,1-.61-.22.75.75,0,0,1-.28-.63,1,1,0,0,1,.23-.62.89.89,0,0,1,.75-.3,1.24,1.24,0,0,1,.89.39,1.46,1.46,0,0,1,.4,1.09A2.27,2.27,0,0,1,325.49,399.83Z" transform="translate(-131 -290)"/><path d="M329.63,391.16v.25a2.08,2.08,0,0,0-.58.13.34.34,0,0,0-.17.35.82.82,0,0,0,0,.24c0,.08.06.19.12.34l1.66,4,1.41-3.51c.07-.17.13-.36.19-.55a1.57,1.57,0,0,0,.09-.44.46.46,0,0,0-.29-.44,1.64,1.64,0,0,0-.47-.1v-.25h2.25v.25a.73.73,0,0,0-.56.26,5.43,5.43,0,0,0-.5,1l-2.29,5.7a1.2,1.2,0,0,1-.1.21.13.13,0,0,1-.11.06.16.16,0,0,1-.13-.09l-.12-.23-2.42-5.79a2.32,2.32,0,0,0-.62-1,1.26,1.26,0,0,0-.58-.19v-.25Z" transform="translate(-131 -290)"/></svg>