<?xml version="1.0" encoding="utf-8"?>
<!-- Generator: Adobe Illustrator 22.1.0, SVG Export Plug-In . SVG Version: 6.00 Build 0)  -->
<svg version="1.1" id="Layer_1" xmlns="http://www.w3.org/2000/svg" xmlns:xlink="http://www.w3.org/1999/xlink" x="0px" y="0px"
	 viewBox="0 0 517 595" style="enable-background:new 0 0 517 595;" xml:space="preserve">
<style type="text/css">
	.st0{clip-path:url(#SVGID_2_);fill:#FFFFFF;}
	.st1{fill-rule:evenodd;clip-rule:evenodd;fill:#FFFFFF;}
	.st2{fill:none;stroke:#FFFFFF;stroke-width:0.5;stroke-linejoin:round;stroke-miterlimit:10;}
	.st3{fill:none;stroke:#000000;stroke-width:0.3333;stroke-linejoin:round;stroke-miterlimit:10;stroke-dasharray:0.5,4;}
	.st4{fill:none;stroke:#000000;stroke-width:0.5;stroke-linejoin:round;stroke-miterlimit:10;}
	.st5{font-family:'Helvetica';}
	.st6{font-size:10px;}
	.st7{fill:none;stroke:#000000;stroke-width:0.5;stroke-linejoin:round;stroke-miterlimit:10;stroke-dasharray:6;}
	.st8{fill:#F7EC13;}
	.st9{fill:none;stroke:#F7EC13;stroke-width:0.5;stroke-linejoin:round;stroke-miterlimit:10;}
	.st10{fill:none;stroke:#ED2024;stroke-width:0.5;stroke-linejoin:round;stroke-miterlimit:10;}
	.st11{fill:none;stroke:#3953A4;stroke-width:0.5;stroke-linejoin:round;stroke-miterlimit:10;}
	.st12{font-family:'Symbol';}
	.st13{font-size:8px;}
	.st14{fill:none;stroke:#6ABD45;stroke-width:0.5;stroke-linejoin:round;stroke-miterlimit:10;}
	.st15{clip-path:url(#SVGID_4_);fill:none;stroke:#3953A4;stroke-width:0.5;stroke-linejoin:round;stroke-miterlimit:10;}
	.st16{font-size:11px;}
</style>
<g>
	<g>
		<defs>
			<rect id="SVGID_1_" x="19" y="11" width="463.8" height="562.8"/>
		</defs>
		<clipPath id="SVGID_2_">
			<use xlink:href="#SVGID_1_"  style="overflow:visible;"/>
		</clipPath>
		<rect x="-31.7" y="11.2" class="st0" width="564" height="616.1"/>
	</g>
	<rect x="41.6" y="57.3" class="st1" width="184.4" height="211.9"/>
	<polyline class="st2" points="41.6,269.2 41.6,57.3 226,57.3 226,269.2 41.6,269.2 	"/>
	<path class="st3" d="M81.1,269.2V57.3 M81.1,57.3L81.1,57.3 M146.9,269.2V57.3 M146.9,57.3L146.9,57.3 M212.8,269.2V57.3
		 M212.8,57.3L212.8,57.3 M41.6,256.8H226 M226,256.8L226,256.8 M41.6,231.8H226 M226,231.8L226,231.8 M41.6,206.9H226 M226,206.9
		L226,206.9 M41.6,181.9H226 M226,181.9L226,181.9 M41.6,157H226 M226,157L226,157 M41.6,132.1H226 M226,132.1L226,132.1
		 M41.6,107.2H226 M226,107.2L226,107.2 M41.6,82.2H226 M226,82.2L226,82.2"/>
	<path class="st4" d="M41.6,269.2H226 M41.6,57.3H226 M41.6,269.2V57.3 M226,269.2V57.3 M41.6,269.2H226 M41.6,269.2V57.3
		 M81.1,269.2v-2.2 M81.1,57.3v2.1"/>
	<text transform="matrix(1 0 0 1 78.3281 281.3307)" class="st5 st6">0</text>
	<path class="st4" d="M146.9,269.2v-2.2 M146.9,57.3v2.1"/>
	<text transform="matrix(1 0 0 1 140 281.3307)" class="st5 st6">0.</text>
	<text transform="matrix(1 0 0 1 148.3438 281.3307)" class="st5 st6">5</text>
	<path class="st4" d="M212.8,269.2v-2.2 M212.8,57.3v2.1"/>
	<text transform="matrix(1 0 0 1 210 281.3307)" class="st5 st6">1</text>
	<path class="st4" d="M41.6,256.8h2.1 M226,256.8h-2.2"/>
	<text transform="matrix(1 0 0 1 19 260.4167)" class="st5 st6">−0.</text>
	<text transform="matrix(1 0 0 1 33.1797 260.4167)" class="st5 st6">2</text>
	<path class="st4" d="M41.6,231.8h2.1 M226,231.8h-2.2"/>
	<text transform="matrix(1 0 0 1 33.1641 235.5026)" class="st5 st6">0</text>
	<path class="st4" d="M41.6,206.9h2.1 M226,206.9h-2.2"/>
	<text transform="matrix(1 0 0 1 24.836 210.5807)" class="st5 st6">0.</text>
	<text transform="matrix(1 0 0 1 33.1719 210.5807)" class="st5 st6">2</text>
	<path class="st4" d="M41.6,181.9h2.1 M226,181.9h-2.2"/>
	<text transform="matrix(1 0 0 1 24.836 185.5807)" class="st5 st6">0.</text>
	<text transform="matrix(1 0 0 1 33.1719 185.5807)" class="st5 st6">4</text>
	<path class="st4" d="M41.6,157h2.1 M226,157h-2.2"/>
	<text transform="matrix(1 0 0 1 24.836 160.6667)" class="st5 st6">0.</text>
	<text transform="matrix(1 0 0 1 33.1719 160.6667)" class="st5 st6">6</text>
	<path class="st4" d="M41.6,132.1h2.1 M226,132.1h-2.2"/>
	<text transform="matrix(1 0 0 1 24.836 135.7448)" class="st5 st6">0.</text>
	<text transform="matrix(1 0 0 1 33.1719 135.7448)" class="st5 st6">8</text>
	<path class="st4" d="M41.6,107.2h2.1 M226,107.2h-2.2"/>
	<text transform="matrix(1 0 0 1 33.1641 110.8386)" class="st5 st6">1</text>
	<path class="st4" d="M41.6,82.2h2.1 M226,82.2h-2.2"/>
	<text transform="matrix(1 0 0 1 24.836 85.9167)" class="st5 st6">1.</text>
	<text transform="matrix(1 0 0 1 33.1719 85.9167)" class="st5 st6">2</text>
	<path class="st4" d="M41.6,269.2H226 M41.6,57.3H226 M41.6,269.2V57.3 M226,269.2V57.3"/>
	<path class="st7" d="M81.1,231.8l131.7-124.7 M208.2,199l-0.2-0.5l-0.2-0.5l-0.2-0.6l-0.2-0.5l-0.2-0.5l-0.2-0.5l-0.2-0.6l-0.2-0.5
		l-0.2-0.5l-0.2-0.5l-0.2-0.6l-0.2-0.5l-0.2-0.5l-0.2-0.5l-0.2-0.5l-0.2-0.5l-0.2-0.6l-0.2-0.5l-0.2-0.5l-0.2-0.5l-0.2-0.5l-0.2-0.5
		l-0.3-0.5l-0.2-0.5l-0.2-0.6l-0.2-0.5l-0.2-0.5l-0.2-0.5l-0.3-0.5l-0.2-0.5l-0.2-0.5l-0.2-0.5l-0.2-0.5l-0.2-0.5l-0.3-0.5l-0.2-0.5
		l-0.3-0.5l-0.2-0.5l-0.2-0.4l-0.2-0.5l-0.3-0.5l-0.2-0.5l-0.3-0.5l-0.2-0.5l-0.2-0.5l-0.2-0.5l-0.2-0.4l-0.2-0.5l-0.2-0.5l-0.2-0.5
		l-0.3-0.5l-0.3-0.4l-0.2-0.5l-0.2-0.5l-0.3-0.4l-0.2-0.5l-0.3-0.5l-0.2-0.5l-0.2-0.4l-0.3-0.5l-0.2-0.4l-0.3-0.5l-0.2-0.5l-0.3-0.4
		l-0.3-0.5l-0.2-0.4l-0.3-0.5l-0.2-0.4l-0.3-0.5l-0.3-0.4l-0.3-0.5l-0.2-0.4l-0.3-0.5l-0.3-0.4l-0.3-0.5l-0.3-0.4l-0.3-0.5l-0.2-0.4
		l-0.3-0.4l-0.3-0.5l-0.3-0.4L188,159l-0.3-0.5l-0.4-0.4l-0.3-0.4l-0.3-0.4l-0.3-0.5l-0.3-0.4l-0.3-0.4l-0.3-0.4l-0.4-0.4l-0.3-0.4
		l-0.3-0.4l-0.4-0.5l-0.3-0.4l-0.3-0.4l-0.4-0.4l-0.3-0.4l-0.3-0.4l-0.4-0.4l-0.3-0.4l-0.4-0.4l-0.3-0.4l-0.4-0.4l-0.3-0.3l-0.4-0.4
		l-0.4-0.4l-0.3-0.4l-0.4-0.4l-0.4-0.4l-0.3-0.3l-0.4-0.4l-0.4-0.4l-0.3-0.4l-0.4-0.3l-0.4-0.4l-0.4-0.4l-0.4-0.3l-0.4-0.4l-0.3-0.4
		l-0.4-0.3l-0.4-0.4l-0.4-0.3l-0.4-0.4l-0.4-0.3l-0.4-0.4l-0.4-0.3l-0.4-0.4l-0.4-0.3l-0.4-0.4l-0.5-0.3l-0.4-0.3l-0.4-0.4l-0.4-0.3
		l-0.4-0.3l-0.4-0.3l-0.5-0.4l-0.4-0.3l-0.4-0.3l-0.5-0.3l-0.4-0.4l-0.4-0.3l-0.5-0.3l-0.4-0.3l-0.4-0.3l-0.5-0.3l-0.4-0.3l-0.5-0.3
		l-0.4-0.3l-0.4-0.3l-0.5-0.3l-0.5-0.3l-0.4-0.3l-0.5-0.3l-0.4-0.2l-0.5-0.3l-0.4-0.3l-0.5-0.3l-0.5-0.3l-0.4-0.2l-0.5-0.3l-0.5-0.3
		l-0.4-0.2l-0.5-0.3l-0.5-0.3l-0.5-0.2l-0.4-0.3l-0.5-0.2l-0.5-0.3l-0.5-0.2l-0.5-0.3l-0.4-0.2l-0.5-0.3l-0.5-0.2l-0.5-0.3l-0.5-0.3
		l-0.5-0.2l-0.5-0.2l-0.5-0.3l-0.5-0.2l-0.5-0.3l-0.5-0.2l-0.5-0.3l-0.5-0.2l-0.5-0.2l-0.5-0.2l-0.5-0.2l-0.5-0.2l-0.5-0.3l-0.6-0.2
		l-0.5-0.2l-0.5-0.2l-0.5-0.2l-0.5-0.2l-0.5-0.2l-0.6-0.2l-0.5-0.2l-0.5-0.2l-0.5-0.2l-0.6-0.2l-0.5-0.2l-0.5-0.2l-0.5-0.2l-0.6-0.2
		l-0.5-0.2l-0.5-0.2l-0.6-0.2l-0.5-0.2l-0.5-0.2l-0.6-0.2l-0.5-0.2l-0.6-0.2l-0.5-0.2l-0.5-0.2l-0.6-0.2l-0.5-0.2l-0.6-0.2l-0.5-0.2
		l-0.6-0.2l-0.5-0.2l-0.6-0.2l-0.5-0.2l-0.6-0.2l-0.5-0.2l-0.6-0.2l-0.5-0.2l-0.6-0.2l-0.5-0.2l-0.6-0.2l-0.6-0.2l-0.5-0.2l-0.6-0.2
		l-0.5-0.2l-0.6-0.1l-0.6-0.2l-0.5-0.2l-0.6-0.2l-0.6-0.1l-0.5-0.2l-0.6-0.2l-0.6-0.1l-0.5-0.2l-0.6-0.2l-0.6-0.1l-0.5-0.2l-0.6-0.1
		l-0.6-0.2l-0.5-0.1l-0.6-0.2L109,110l-0.6-0.1l-0.5-0.2l-0.6-0.1l-0.6-0.1l-0.6-0.2l-0.5-0.1l-0.6-0.1l-0.6-0.1l-0.6-0.1l-0.6-0.2
		l-0.5-0.1l-0.6-0.1l-0.6-0.1l-0.6-0.1l-0.6-0.1l-0.5-0.1l-0.6-0.1h-0.6l-0.6-0.1l-0.6-0.1l-0.6-0.1l-0.5-0.1l-0.6-0.1h-0.6
		l-0.6-0.1l-0.6-0.1h-0.6l-0.6-0.1h-0.6l-0.5-0.1l-0.6-0.1h-0.6l-0.6-0.1h-0.6h-0.6l-0.6-0.1h-0.6h-0.5l-0.6-0.1h-0.6h-0.6h-0.6
		l-0.6-0.1h-0.6h-0.6h-0.6h-0.5h-0.6h-0.6 M212.8,231.8V228l-0.1-0.5v-1.7l-0.1-0.6v-0.5l-0.1-0.6v-1.1l-0.1-0.5V222l-0.1-0.5
		l-0.1-0.6v-0.5l-0.1-0.6l-0.1-0.5v-0.6l-0.1-0.5l-0.1-0.6l-0.1-0.5v-0.6l-0.1-0.5l-0.1-0.6l-0.1-0.5l-0.1-0.5l-0.1-0.6l-0.1-0.5
		l-0.1-0.6l-0.1-0.5l-0.1-0.6l-0.1-0.5l-0.1-0.6l-0.2-0.5l-0.1-0.5l-0.1-0.6l-0.1-0.5l-0.2-0.6l-0.1-0.5l-0.1-0.5l-0.2-0.6l-0.1-0.5
		l-0.2-0.6l-0.1-0.5l-0.2-0.5l-0.1-0.6l-0.2-0.5l-0.1-0.5l-0.2-0.6l-0.2-0.5l-0.1-0.5l-0.2-0.6l-0.2-0.5l-0.1-0.5l-0.2-0.6"/>
	<path class="st8" d="M212.9,231.9c0,0.1-0.1,0.2-0.2,0.2s-0.2-0.1-0.2-0.2s0.1-0.2,0.2-0.2S212.9,231.7,212.9,231.9"/>
	<path class="st4" d="M215.8,231.8c0,1.7-1.3,3-3,3s-3-1.3-3-3s1.3-3,3-3S215.8,230.1,215.8,231.8"/>
	<text transform="matrix(1 0 0 1 212.75 235.3386)" class="st5 st6">0</text>
	<line class="st9" x1="212.2" y1="219.3" x2="212" y2="219.3"/>
	<path class="st4" d="M215.1,219.3c0,1.7-1.3,3-3,3s-3-1.3-3-3s1.3-3,3-3S215.1,217.6,215.1,219.3"/>
	<line class="st9" x1="210.2" y1="207.1" x2="209.6" y2="206.6"/>
	<path class="st4" d="M213.2,207c0,1.7-1.3,3-3,3c-1.7,0-3-1.3-3-3c0-1.7,1.3-3,3-3C211.8,204,213.2,205.4,213.2,207"/>
	<line class="st9" x1="206.9" y1="195" x2="205.4" y2="193.5"/>
	<path class="st4" d="M209.8,195c0,1.7-1.3,3-3,3s-3-1.3-3-3s1.3-3,3-3S209.8,193.4,209.8,195"/>
	<text transform="matrix(1 0 0 1 205.4141 196.9948)" class="st5 st6">3</text>
	<line class="st9" x1="202.4" y1="183.2" x2="199.2" y2="179.3"/>
	<path class="st4" d="M205.5,183.3c0,1.7-1.3,3-3,3s-3-1.3-3-3s1.3-3,3-3S205.5,181.6,205.5,183.3"/>
	<line class="st9" x1="196.7" y1="172.1" x2="191.1" y2="163.3"/>
	<path class="st4" d="M199.7,172c0,1.7-1.3,3-3,3c-1.7,0-3-1.3-3-3s1.3-3,3-3C198.4,169,199.7,170.4,199.7,172"/>
	<line class="st9" x1="189.8" y1="161.4" x2="181.9" y2="143.8"/>
	<path class="st4" d="M192.8,161.4c0,1.7-1.3,3-3,3c-1.7,0-3-1.3-3-3s1.3-3,3-3C191.4,158.4,192.8,159.8,192.8,161.4"/>
	<text transform="matrix(1 0 0 1 181.9141 147.3386)" class="st5 st6">6</text>
	<line class="st9" x1="181.8" y1="151.5" x2="174.9" y2="120.9"/>
	<path class="st4" d="M184.9,151.6c0,1.7-1.3,3-3,3c-1.7,0-3-1.3-3-3s1.3-3,3-3C183.5,148.6,184.9,150,184.9,151.6"/>
	<line class="st9" x1="172.8" y1="142.4" x2="170.9" y2="97.3"/>
	<path class="st4" d="M175.7,142.5c0,1.7-1.3,3-3,3s-3-1.3-3-3s1.3-3,3-3S175.7,140.8,175.7,142.5"/>
	<line class="st9" x1="162.9" y1="134.2" x2="168.8" y2="74.2"/>
	<path class="st4" d="M165.9,134.1c0,1.7-1.3,3-3,3s-3-1.3-3-3s1.3-3,3-3S165.9,132.4,165.9,134.1"/>
	<text transform="matrix(1 0 0 1 168.75 77.7448)" class="st5 st6">9</text>
	<path class="st10" d="M212.8,231.8l-0.8-12.5l-2.4-12.8l-4.2-13.1l-6.2-14.2l-8.2-16l-9.2-19.5l-7-22.9l-3-16.1l-0.1-0.5l-0.9-7
		l-2.2-23.1 M209.8,231.8h6 M212.8,228.8v6 M209,219.3h6 M212,216.3v6 M206.6,206.6h6 M209.6,203.6v6 M202.4,193.5h6 M205.4,190.5v6
		 M196.2,179.3h6 M199.2,176.3v6 M188.1,163.3h6 M191.1,160.3v6 M178.9,143.8h6 M181.9,140.8v6 M171.9,120.9h6 M174.9,117.9v6
		 M168.9,104.8h6 M171.9,101.8v6 M168.8,104.3h6 M171.8,101.3v6 M167.9,97.3h6 M170.9,94.3v6 M165.8,74.2h6 M168.8,71.2v6"/>
	<path class="st11" d="M81.1,231.8l0.8-7.5l2.4-7.2l4.2-6.8l6.1-5.8l8.2-3.9l9.2-0.4l7,2.9l3,2.6h0.1l0.9,1.1l2.2,3.1 M79,229.8
		l4.2,4.2 M83.2,229.8l-4.2,4.2 M79.8,222.2l4.2,4.2 M83.9,222.2l-4.2,4.2 M82.2,215l4.2,4.2 M86.3,215l-4.2,4.2 M86.4,208.3
		l4.2,4.2 M90.6,208.3l-4.2,4.2 M92.5,202.4l4.2,4.2 M96.7,202.4l-4.2,4.2 M100.7,198.5l4.2,4.2 M104.8,198.5l-4.2,4.2 M109.8,198.1
		l4.2,4.2 M114,198.1l-4.2,4.2 M116.8,201l4.2,4.2 M121,201l-4.2,4.2 M119.8,203.6l4.2,4.2 M124,203.6l-4.2,4.2 M119.9,203.6
		l4.2,4.2 M124.1,203.6l-4.2,4.2 M120.8,204.7l4.2,4.2 M125,204.7l-4.2,4.2 M123,207.8l4.2,4.2 M127.2,207.8l-4.2,4.2"/>
	<text transform="matrix(1 0 0 1 71.9141 44.8386)" class="st12 st6">α</text>
	<text transform="matrix(1 0 0 1 78.1641 44.8386)" class="st5 st6">,</text>
	<text transform="matrix(1 0 0 1 80.9219 44.8386)" class="st12 st6">β</text>
	<text transform="matrix(1 0 0 1 86.336 44.8386)" class="st5 st6">= 0.60,0.000 ; f</text>
	<text transform="matrix(1 0 0 1 152.8281 49.8307)" class="st5 st13">c</text>
	<text transform="matrix(1 0 0 1 156.836 44.8386)" class="st5 st6">= 0.5025</text>
	<rect x="294.2" y="57.3" class="st1" width="184.4" height="211.9"/>
	<polyline class="st2" points="294.2,269.2 294.2,57.3 478.6,57.3 478.6,269.2 294.2,269.2 	"/>
	<path class="st3" d="M333.7,269.2V57.3 M333.7,57.3L333.7,57.3 M399.5,269.2V57.3 M399.5,57.3L399.5,57.3 M465.3,269.2V57.3
		 M465.3,57.3L465.3,57.3 M294.2,256.8h184.4 M478.6,256.8L478.6,256.8 M294.2,231.8h184.4 M478.6,231.8L478.6,231.8 M294.2,206.9
		h184.4 M478.6,206.9L478.6,206.9 M294.2,181.9h184.4 M478.6,181.9L478.6,181.9 M294.2,157h184.4 M478.6,157L478.6,157 M294.2,132.1
		h184.4 M478.6,132.1L478.6,132.1 M294.2,107.2h184.4 M478.6,107.2L478.6,107.2 M294.2,82.2h184.4 M478.6,82.2L478.6,82.2"/>
	<path class="st4" d="M294.2,269.2h184.4 M294.2,57.3h184.4 M294.2,269.2V57.3 M478.6,269.2V57.3 M294.2,269.2h184.4 M294.2,269.2
		V57.3 M333.7,269.2v-2.2 M333.7,57.3v2.1"/>
	<text transform="matrix(1 0 0 1 330.9219 281.3307)" class="st5 st6">0</text>
	<path class="st4" d="M399.5,269.2v-2.2 M399.5,57.3v2.1"/>
	<text transform="matrix(1 0 0 1 392.5859 281.3307)" class="st5 st6">0.</text>
	<text transform="matrix(1 0 0 1 400.9219 281.3307)" class="st5 st6">5</text>
	<path class="st4" d="M465.3,269.2v-2.2 M465.3,57.3v2.1"/>
	<text transform="matrix(1 0 0 1 462.5859 281.3307)" class="st5 st6">1</text>
	<path class="st4" d="M294.2,256.8h2.1 M478.6,256.8h-2.2"/>
	<text transform="matrix(1 0 0 1 271.5859 260.4167)" class="st5 st6">−0.</text>
	<text transform="matrix(1 0 0 1 285.7656 260.4167)" class="st5 st6">2</text>
	<path class="st4" d="M294.2,231.8h2.1 M478.6,231.8h-2.2"/>
	<text transform="matrix(1 0 0 1 285.75 235.5026)" class="st5 st6">0</text>
	<path class="st4" d="M294.2,206.9h2.1 M478.6,206.9h-2.2"/>
	<text transform="matrix(1 0 0 1 277.4219 210.5807)" class="st5 st6">0.</text>
	<text transform="matrix(1 0 0 1 285.7578 210.5807)" class="st5 st6">2</text>
	<path class="st4" d="M294.2,181.9h2.1 M478.6,181.9h-2.2"/>
	<text transform="matrix(1 0 0 1 277.4219 185.5807)" class="st5 st6">0.</text>
	<text transform="matrix(1 0 0 1 285.7578 185.5807)" class="st5 st6">4</text>
	<path class="st4" d="M294.2,157h2.1 M478.6,157h-2.2"/>
	<text transform="matrix(1 0 0 1 277.4219 160.6667)" class="st5 st6">0.</text>
	<text transform="matrix(1 0 0 1 285.7578 160.6667)" class="st5 st6">6</text>
	<path class="st4" d="M294.2,132.1h2.1 M478.6,132.1h-2.2"/>
	<text transform="matrix(1 0 0 1 277.4219 135.7448)" class="st5 st6">0.</text>
	<text transform="matrix(1 0 0 1 285.7578 135.7448)" class="st5 st6">8</text>
	<path class="st4" d="M294.2,107.2h2.1 M478.6,107.2h-2.2"/>
	<text transform="matrix(1 0 0 1 285.75 110.8386)" class="st5 st6">1</text>
	<path class="st4" d="M294.2,82.2h2.1 M478.6,82.2h-2.2"/>
	<text transform="matrix(1 0 0 1 277.4219 85.9167)" class="st5 st6">1.</text>
	<text transform="matrix(1 0 0 1 285.7578 85.9167)" class="st5 st6">2</text>
	<path class="st4" d="M294.2,269.2h184.4 M294.2,57.3h184.4 M294.2,269.2V57.3 M478.6,269.2V57.3"/>
	<path class="st7" d="M333.7,231.8l131.7-124.7 M460.8,199l-0.2-0.5l-0.2-0.5l-0.2-0.6l-0.2-0.5l-0.2-0.5l-0.2-0.5l-0.2-0.6
		l-0.2-0.5l-0.2-0.5l-0.2-0.5l-0.2-0.6l-0.2-0.5l-0.2-0.5l-0.2-0.5l-0.2-0.5l-0.2-0.5l-0.2-0.6l-0.2-0.5l-0.2-0.5l-0.2-0.5l-0.3-0.5
		l-0.2-0.5l-0.2-0.5l-0.2-0.5l-0.2-0.6l-0.2-0.5l-0.2-0.5l-0.2-0.5l-0.2-0.5l-0.3-0.5l-0.2-0.5l-0.2-0.5l-0.2-0.5l-0.2-0.5l-0.2-0.5
		l-0.2-0.5l-0.2-0.5l-0.2-0.5l-0.3-0.4l-0.2-0.5l-0.2-0.5l-0.2-0.5l-0.2-0.5l-0.2-0.5l-0.2-0.5l-0.2-0.5l-0.2-0.4l-0.2-0.5l-0.2-0.5
		l-0.2-0.5l-0.3-0.5l-0.2-0.4l-0.2-0.5l-0.2-0.5l-0.3-0.4l-0.2-0.5l-0.3-0.5l-0.2-0.5l-0.2-0.4l-0.3-0.5l-0.2-0.4l-0.3-0.5l-0.2-0.5
		l-0.3-0.4l-0.3-0.5l-0.2-0.4l-0.3-0.5l-0.2-0.4l-0.3-0.5l-0.3-0.4l-0.3-0.5l-0.2-0.4l-0.3-0.5l-0.3-0.4l-0.3-0.5l-0.3-0.4l-0.3-0.5
		l-0.2-0.4l-0.3-0.4l-0.3-0.5l-0.3-0.4l-0.3-0.4l-0.3-0.5l-0.4-0.4l-0.3-0.4l-0.3-0.4l-0.3-0.5l-0.3-0.4l-0.3-0.4l-0.3-0.4l-0.4-0.4
		l-0.3-0.4l-0.3-0.4l-0.4-0.5l-0.3-0.4l-0.3-0.4l-0.4-0.4l-0.3-0.4l-0.3-0.4l-0.4-0.4l-0.3-0.4l-0.4-0.4l-0.3-0.4l-0.4-0.4l-0.3-0.3
		l-0.4-0.4l-0.4-0.4l-0.3-0.4l-0.4-0.4l-0.4-0.4l-0.3-0.3l-0.4-0.4l-0.4-0.4l-0.3-0.4l-0.4-0.3l-0.4-0.4l-0.4-0.4l-0.4-0.3l-0.4-0.4
		l-0.3-0.4l-0.4-0.3l-0.4-0.4l-0.4-0.3l-0.4-0.4l-0.4-0.3l-0.4-0.4l-0.4-0.3l-0.4-0.4l-0.4-0.3l-0.4-0.4l-0.5-0.3l-0.4-0.3l-0.4-0.4
		l-0.4-0.3l-0.4-0.3l-0.4-0.3l-0.5-0.4l-0.4-0.3l-0.4-0.3l-0.5-0.3l-0.4-0.4l-0.4-0.3l-0.5-0.3l-0.4-0.3l-0.4-0.3l-0.5-0.3l-0.4-0.3
		l-0.5-0.3l-0.4-0.3l-0.4-0.3l-0.5-0.3l-0.5-0.3l-0.4-0.3l-0.5-0.3l-0.4-0.2l-0.5-0.3l-0.4-0.3l-0.5-0.3l-0.5-0.3l-0.4-0.2l-0.5-0.3
		l-0.5-0.3l-0.4-0.2l-0.5-0.3l-0.5-0.3l-0.5-0.2l-0.4-0.3l-0.5-0.2l-0.5-0.3l-0.5-0.2l-0.5-0.3l-0.4-0.2l-0.5-0.3l-0.5-0.2l-0.5-0.3
		l-0.5-0.3l-0.5-0.2l-0.5-0.2l-0.5-0.3l-0.5-0.2l-0.5-0.3l-0.5-0.2l-0.5-0.3l-0.5-0.2l-0.5-0.2L396,122l-0.5-0.2l-0.5-0.2l-0.5-0.3
		l-0.6-0.2l-0.5-0.2l-0.5-0.2l-0.5-0.2l-0.5-0.2l-0.5-0.2l-0.6-0.2l-0.5-0.2l-0.5-0.2l-0.5-0.2l-0.6-0.2l-0.5-0.2l-0.5-0.2l-0.5-0.2
		l-0.6-0.2l-0.5-0.2l-0.5-0.2l-0.6-0.2l-0.5-0.2l-0.5-0.2l-0.6-0.2l-0.5-0.2l-0.6-0.2l-0.5-0.2l-0.5-0.2l-0.6-0.2l-0.5-0.2l-0.6-0.2
		l-0.5-0.2l-0.6-0.2l-0.5-0.2l-0.6-0.2l-0.5-0.2l-0.6-0.2l-0.5-0.2l-0.6-0.2l-0.5-0.2l-0.6-0.2l-0.5-0.2l-0.6-0.2l-0.6-0.2l-0.5-0.2
		l-0.6-0.2l-0.5-0.2l-0.6-0.1l-0.6-0.2l-0.5-0.2l-0.6-0.2l-0.6-0.1l-0.5-0.2l-0.6-0.2l-0.6-0.1l-0.5-0.2l-0.6-0.2l-0.6-0.1l-0.5-0.2
		l-0.6-0.1l-0.6-0.2l-0.5-0.1l-0.6-0.2l-0.6-0.1l-0.6-0.1l-0.5-0.2l-0.6-0.1l-0.6-0.1l-0.6-0.2l-0.5-0.1l-0.6-0.1l-0.6-0.1l-0.6-0.1
		l-0.6-0.2l-0.5-0.1l-0.6-0.1l-0.6-0.1l-0.6-0.1l-0.6-0.1l-0.5-0.1l-0.6-0.1h-0.6l-0.6-0.1l-0.6-0.1l-0.6-0.1l-0.5-0.1l-0.6-0.1H348
		l-0.6-0.1l-0.6-0.1h-0.6l-0.6-0.1h-0.6l-0.5-0.1l-0.6-0.1h-0.6l-0.6-0.1h-0.6h-0.6l-0.6-0.1h-0.6H340l-0.6-0.1h-0.6h-0.6h-0.6
		l-0.6-0.1h-0.6h-0.6h-0.6h-0.5h-0.6h-0.6 M465.3,231.8V228l-0.1-0.5v-1.7l-0.1-0.6v-0.5l-0.1-0.6v-1.1l-0.1-0.5V222l-0.1-0.5
		l-0.1-0.6v-0.5l-0.1-0.6l-0.1-0.5v-0.6l-0.1-0.5l-0.1-0.6l-0.1-0.5v-0.6l-0.1-0.5l-0.1-0.6l-0.1-0.5l-0.1-0.5l-0.1-0.6l-0.1-0.5
		l-0.1-0.6l-0.1-0.5l-0.1-0.6l-0.1-0.5l-0.1-0.6l-0.2-0.5l-0.1-0.5l-0.1-0.6l-0.1-0.5l-0.2-0.6l-0.1-0.5l-0.1-0.5l-0.2-0.6l-0.1-0.5
		l-0.2-0.6l-0.1-0.5l-0.2-0.5l-0.1-0.6l-0.2-0.5l-0.1-0.5l-0.2-0.6l-0.2-0.5l-0.1-0.5l-0.2-0.6l-0.2-0.5l-0.1-0.5l-0.2-0.6"/>
	<path class="st8" d="M465.7,231.9c0,0.1-0.1,0.2-0.2,0.2c-0.1,0-0.2-0.1-0.2-0.2s0.1-0.2,0.2-0.2
		C465.5,231.6,465.7,231.7,465.7,231.9"/>
	<path class="st4" d="M468.3,231.8c0,1.7-1.3,3-3,3s-3-1.3-3-3s1.3-3,3-3S468.3,230.1,468.3,231.8"/>
	<text transform="matrix(1 0 0 1 465.3359 235.3386)" class="st5 st6">0</text>
	<line class="st9" x1="464.8" y1="219.3" x2="464.7" y2="219.3"/>
	<path class="st4" d="M467.8,219.3c0,1.7-1.3,3-3,3s-3-1.3-3-3s1.3-3,3-3S467.8,217.6,467.8,219.3"/>
	<line class="st9" x1="462.8" y1="207.1" x2="462.7" y2="206.9"/>
	<path class="st4" d="M465.7,207c0,1.7-1.3,3-3,3s-3-1.3-3-3c0-1.7,1.3-3,3-3S465.7,205.4,465.7,207"/>
	<line class="st9" x1="459.5" y1="195" x2="459.2" y2="194.4"/>
	<path class="st4" d="M462.5,195c0,1.7-1.3,3-3,3s-3-1.3-3-3s1.3-3,3-3S462.5,193.4,462.5,195"/>
	<text transform="matrix(1 0 0 1 459.1641 197.9167)" class="st5 st6">3</text>
	<line class="st9" x1="455" y1="183.2" x2="453.9" y2="181.8"/>
	<path class="st4" d="M458,183.3c0,1.7-1.3,3-3,3c-1.7,0-3-1.3-3-3s1.3-3,3-3C456.6,180.3,458,181.6,458,183.3"/>
	<line class="st9" x1="449.2" y1="172.1" x2="446.3" y2="169.2"/>
	<path class="st4" d="M452.2,172c0,1.7-1.3,3-3,3s-3-1.3-3-3s1.3-3,3-3S452.2,170.4,452.2,172"/>
	<line class="st9" x1="442.3" y1="161.4" x2="435.6" y2="156.2"/>
	<path class="st4" d="M445.2,161.4c0,1.7-1.3,3-3,3s-3-1.3-3-3s1.3-3,3-3S445.2,159.8,445.2,161.4"/>
	<text transform="matrix(1 0 0 1 435.5859 159.6667)" class="st5 st6">6</text>
	<line class="st9" x1="434.4" y1="151.5" x2="418.8" y2="141.6"/>
	<path class="st4" d="M437.3,151.6c0,1.7-1.3,3-3,3s-3-1.3-3-3s1.3-3,3-3S437.3,150,437.3,151.6"/>
	<line class="st9" x1="425.4" y1="142.4" x2="394.7" y2="110.8"/>
	<path class="st4" d="M428.5,142.5c0,1.7-1.3,3-3,3s-3-1.3-3-3s1.3-3,3-3S428.5,140.8,428.5,142.5"/>
	<line class="st9" x1="415.5" y1="134.2" x2="391.5" y2="76"/>
	<path class="st4" d="M418.6,134.1c0,1.7-1.3,3-3,3s-3-1.3-3-3s1.3-3,3-3S418.6,132.4,418.6,134.1"/>
	<text transform="matrix(1 0 0 1 391.5 79.4948)" class="st5 st6">9</text>
	<path class="st10" d="M465.3,231.8l-0.7-12.5l-2-12.4l-3.5-12.5l-5.2-12.6l-7.6-12.7l-10.8-13l-16.8-14.6l-18.8-17l-0.6-0.8
		l-4.8-13L391.5,76 M462.3,231.8h6 M465.3,228.8v6 M461.7,219.3h6 M464.7,216.3v6 M459.7,206.9h6 M462.7,203.9v6 M456.2,194.4h6
		 M459.2,191.4v6 M450.9,181.8h6 M453.9,178.8v6 M443.3,169.2h6 M446.3,166.2v6 M432.6,156.2h6 M435.6,153.2v6 M415.8,141.6h6
		 M418.8,138.6v6 M397,124.6h6 M400,121.6v6 M396.4,123.8h6 M399.4,120.8v6 M391.7,110.8h6 M394.7,107.8v6 M388.5,76h6 M391.5,73v6"
		/>
	<path class="st11" d="M333.7,231.8l-13.2-19.7l-2.8-12.2l0.4-11.2l3-10.8l5.8-10.3l9.3-9.8l15.7-8.2l18.2,1.7l0.5,0.4l4.5,6.2
		l2.4,12.2 M331.6,229.8l4.2,4.2 M335.8,229.8l-4.2,4.2 M318.3,210.1l4.2,4.2 M322.5,210.1l-4.2,4.2 M315.6,197.8l4.2,4.2
		 M319.8,197.8l-4.2,4.2 M316,186.6l4.2,4.2 M320.2,186.6l-4.2,4.2 M319,175.8l4.2,4.2 M323.2,175.8l-4.2,4.2 M324.8,165.4l4.2,4.2
		 M328.9,165.4l-4.2,4.2 M334.1,155.6l4.2,4.2 M338.2,155.6l-4.2,4.2 M349.8,147.4l4.2,4.2 M353.9,147.4l-4.2,4.2 M368,149.1
		l4.2,4.2 M372.2,149.1l-4.2,4.2 M368.5,149.5l4.2,4.2 M372.7,149.5l-4.2,4.2 M373,155.8l4.2,4.2 M377.2,155.8l-4.2,4.2
		 M375.4,167.9l4.2,4.2 M379.6,167.9l-4.2,4.2"/>
	<path class="st14" d="M333.7,231.8l13.8,10.2l4.8,2.9l3.2,1.9l2.3,1.5l1.8,1.2l1.3,1l1.2,0.9l0.7,0.6l0.2,0.2l0.8,0.7 M331.6,229.8
		l4.2,4.2 M335.8,229.8l-4.2,4.2 M345.4,240l4.2,4.2 M349.6,240l-4.2,4.2 M350.2,242.9l4.2,4.2 M354.3,242.9l-4.2,4.2 M353.3,244.8
		l4.2,4.2 M357.5,244.8l-4.2,4.2 M355.7,246.3l4.2,4.2 M359.8,246.3l-4.2,4.2 M357.4,247.6l4.2,4.2 M361.6,247.6l-4.2,4.2
		 M358.8,248.6l4.2,4.2 M362.9,248.6l-4.2,4.2 M359.9,249.5l4.2,4.2 M364.1,249.5l-4.2,4.2 M360.6,250.1l4.2,4.2 M364.8,250.1
		l-4.2,4.2 M360.8,250.3l4.2,4.2 M365,250.3l-4.2,4.2 M361.6,250.9l4.2,4.2 M365.8,250.9l-4.2,4.2"/>
	<text transform="matrix(1 0 0 1 324.5 44.8386)" class="st12 st6">α</text>
	<text transform="matrix(1 0 0 1 330.75 44.8386)" class="st5 st6">,</text>
	<text transform="matrix(1 0 0 1 333.5 44.8386)" class="st12 st6">β</text>
	<text transform="matrix(1 0 0 1 338.9219 44.8386)" class="st5 st6">= 0.50,0.250 ; f</text>
	<text transform="matrix(1 0 0 1 405.4141 49.8307)" class="st5 st13">c</text>
	<text transform="matrix(1 0 0 1 409.4141 44.8386)" class="st5 st6">= 0.7698</text>
	<rect x="41.6" y="347.6" class="st1" width="184.4" height="211.8"/>
	<polyline class="st2" points="41.6,559.4 41.6,347.6 226,347.6 226,559.4 41.6,559.4 	"/>
	<path class="st3" d="M81.1,559.4V347.6 M81.1,347.6L81.1,347.6 M146.9,559.4V347.6 M146.9,347.6L146.9,347.6 M212.8,559.4V347.6
		 M212.8,347.6L212.8,347.6 M41.6,546.9H226 M226,546.9L226,546.9 M41.6,522H226 M226,522L226,522 M41.6,497.1H226 M226,497.1
		L226,497.1 M41.6,472.2H226 M226,472.2L226,472.2 M41.6,447.2H226 M226,447.2L226,447.2 M41.6,422.3H226 M226,422.3L226,422.3
		 M41.6,397.4H226 M226,397.4L226,397.4 M41.6,372.5H226 M226,372.5L226,372.5"/>
	<path class="st4" d="M41.6,559.4H226 M41.6,347.6H226 M41.6,559.4V347.6 M226,559.4V347.6 M41.6,559.4H226 M41.6,559.4V347.6
		 M81.1,559.4v-2.2 M81.1,347.6v2.1"/>
	<text transform="matrix(1 0 0 1 78.3281 571.4948)" class="st5 st6">0</text>
	<path class="st4" d="M146.9,559.4v-2.2 M146.9,347.6v2.1"/>
	<text transform="matrix(1 0 0 1 140 571.4948)" class="st5 st6">0.</text>
	<text transform="matrix(1 0 0 1 148.3438 571.4948)" class="st5 st6">5</text>
	<path class="st4" d="M212.8,559.4v-2.2 M212.8,347.6v2.1"/>
	<text transform="matrix(1 0 0 1 210 571.4948)" class="st5 st6">1</text>
	<path class="st4" d="M41.6,546.9h2.1 M226,546.9h-2.2"/>
	<text transform="matrix(1 0 0 1 19 550.5807)" class="st5 st6">−0.</text>
	<text transform="matrix(1 0 0 1 33.1797 550.5807)" class="st5 st6">2</text>
	<path class="st4" d="M41.6,522h2.1 M226,522h-2.2"/>
	<text transform="matrix(1 0 0 1 33.1641 525.6667)" class="st5 st6">0</text>
	<path class="st4" d="M41.6,497.1h2.1 M226,497.1h-2.2"/>
	<text transform="matrix(1 0 0 1 24.836 500.7448)" class="st5 st6">0.</text>
	<text transform="matrix(1 0 0 1 33.1719 500.7448)" class="st5 st6">2</text>
	<path class="st4" d="M41.6,472.2h2.1 M226,472.2h-2.2"/>
	<text transform="matrix(1 0 0 1 24.836 475.8386)" class="st5 st6">0.</text>
	<text transform="matrix(1 0 0 1 33.1719 475.8386)" class="st5 st6">4</text>
	<path class="st4" d="M41.6,447.2h2.1 M226,447.2h-2.2"/>
	<text transform="matrix(1 0 0 1 24.836 450.9167)" class="st5 st6">0.</text>
	<text transform="matrix(1 0 0 1 33.1719 450.9167)" class="st5 st6">6</text>
	<path class="st4" d="M41.6,422.3h2.1 M226,422.3h-2.2"/>
	<text transform="matrix(1 0 0 1 24.836 426.0026)" class="st5 st6">0.</text>
	<text transform="matrix(1 0 0 1 33.1719 426.0026)" class="st5 st6">8</text>
	<path class="st4" d="M41.6,397.4h2.1 M226,397.4h-2.2"/>
	<text transform="matrix(1 0 0 1 33.1641 401.0886)" class="st5 st6">1</text>
	<path class="st4" d="M41.6,372.5h2.1 M226,372.5h-2.2"/>
	<text transform="matrix(1 0 0 1 24.836 376.1667)" class="st5 st6">1.</text>
	<text transform="matrix(1 0 0 1 33.1719 376.1667)" class="st5 st6">2</text>
	<path class="st4" d="M41.6,559.4H226 M41.6,347.6H226 M41.6,559.4V347.6 M226,559.4V347.6"/>
	<path class="st7" d="M81.1,522l131.7-124.6 M208.2,489.2l-0.2-0.6l-0.2-0.5l-0.2-0.5l-0.2-0.6l-0.2-0.5l-0.2-0.5l-0.2-0.5l-0.2-0.6
		l-0.2-0.5l-0.2-0.5l-0.2-0.5l-0.2-0.5l-0.2-0.6l-0.2-0.5l-0.2-0.5l-0.2-0.5l-0.2-0.5l-0.2-0.5l-0.2-0.6l-0.2-0.5l-0.2-0.5l-0.2-0.5
		l-0.3-0.5l-0.2-0.5l-0.2-0.5l-0.2-0.5l-0.2-0.5l-0.2-0.5l-0.3-0.5l-0.2-0.5l-0.2-0.5l-0.2-0.5l-0.2-0.5l-0.2-0.5l-0.3-0.5l-0.2-0.5
		l-0.3-0.5l-0.2-0.5l-0.2-0.5l-0.2-0.5l-0.3-0.5l-0.2-0.5l-0.3-0.5l-0.2-0.4l-0.2-0.5l-0.2-0.5l-0.2-0.5l-0.2-0.5l-0.2-0.5l-0.2-0.4
		l-0.3-0.5l-0.3-0.5l-0.2-0.5l-0.2-0.4l-0.3-0.5l-0.2-0.5l-0.3-0.4l-0.2-0.5l-0.2-0.5l-0.3-0.4l-0.2-0.5l-0.3-0.5l-0.2-0.4l-0.3-0.5
		l-0.3-0.4l-0.2-0.5l-0.3-0.4l-0.2-0.5l-0.3-0.5l-0.3-0.4l-0.3-0.4l-0.2-0.5l-0.3-0.4l-0.3-0.5l-0.3-0.4l-0.3-0.5l-0.3-0.4l-0.2-0.4
		l-0.3-0.5l-0.3-0.4l-0.3-0.4l-0.3-0.5l-0.3-0.4l-0.4-0.4l-0.3-0.5l-0.3-0.4l-0.3-0.4l-0.3-0.4l-0.3-0.4l-0.3-0.5l-0.4-0.4l-0.3-0.4
		l-0.3-0.4l-0.4-0.4l-0.3-0.4l-0.3-0.4l-0.4-0.4l-0.3-0.4l-0.3-0.4l-0.4-0.4l-0.3-0.4l-0.4-0.4l-0.3-0.4l-0.4-0.4l-0.3-0.4l-0.4-0.4
		l-0.4-0.4l-0.3-0.3l-0.4-0.4l-0.4-0.4l-0.3-0.4l-0.4-0.4l-0.4-0.3l-0.3-0.4l-0.4-0.4l-0.4-0.3l-0.4-0.4l-0.4-0.4l-0.4-0.3l-0.3-0.4
		l-0.4-0.4l-0.4-0.3l-0.4-0.4l-0.4-0.3l-0.4-0.4l-0.4-0.3l-0.4-0.4l-0.4-0.3l-0.4-0.4l-0.4-0.3l-0.5-0.3l-0.4-0.4l-0.4-0.3l-0.4-0.3
		l-0.4-0.4l-0.4-0.3l-0.5-0.3l-0.4-0.3l-0.4-0.4l-0.5-0.3l-0.4-0.3l-0.4-0.3l-0.5-0.3l-0.4-0.3l-0.4-0.3l-0.5-0.3l-0.4-0.3l-0.5-0.3
		l-0.4-0.3l-0.4-0.3l-0.5-0.3l-0.5-0.3l-0.4-0.3l-0.5-0.3l-0.4-0.3l-0.5-0.3l-0.4-0.2l-0.5-0.3l-0.5-0.3l-0.4-0.3l-0.5-0.2l-0.5-0.3
		l-0.4-0.3l-0.5-0.2l-0.5-0.3l-0.5-0.3l-0.4-0.2l-0.5-0.3l-0.5-0.2l-0.5-0.3l-0.5-0.2l-0.4-0.3l-0.5-0.2l-0.5-0.2l-0.5-0.3l-0.5-0.2
		l-0.5-0.2l-0.5-0.3l-0.5-0.2l-0.5-0.2l-0.5-0.3l-0.5-0.2l-0.5-0.2l-0.5-0.2l-0.5-0.2l-0.5-0.2l-0.5-0.2l-0.5-0.2l-0.5-0.2l-0.6-0.2
		l-0.5-0.2l-0.5-0.2l-0.5-0.2l-0.5-0.2l-0.5-0.2l-0.6-0.2l-0.5-0.2l-0.5-0.2l-0.5-0.2l-0.6-0.2l-0.5-0.2l-0.5-0.2l-0.5-0.2l-0.6-0.2
		l-0.5-0.2l-0.5-0.2l-0.6-0.2l-0.5-0.2l-0.5-0.2l-0.6-0.2l-0.5-0.2l-0.6-0.2l-0.5-0.2l-0.5-0.2l-0.6-0.2l-0.5-0.2l-0.6-0.2l-0.5-0.2
		l-0.6-0.2l-0.5-0.2l-0.6-0.2l-0.5-0.2l-0.6-0.2l-0.5-0.2l-0.6-0.2l-0.5-0.2l-0.6-0.2l-0.5-0.2l-0.6-0.2l-0.6-0.2l-0.5-0.2l-0.6-0.2
		l-0.5-0.2l-0.6-0.2l-0.6-0.1l-0.5-0.2l-0.6-0.2l-0.6-0.2l-0.5-0.1l-0.6-0.2l-0.6-0.2l-0.5-0.1l-0.6-0.2l-0.6-0.2l-0.5-0.1l-0.6-0.2
		l-0.6-0.1l-0.5-0.2l-0.6-0.1l-0.6-0.1l-0.6-0.2l-0.5-0.1l-0.6-0.1l-0.6-0.2l-0.6-0.1l-0.5-0.1l-0.6-0.1l-0.6-0.2l-0.6-0.1l-0.6-0.1
		l-0.5-0.1l-0.6-0.1l-0.6-0.1l-0.6-0.1l-0.6-0.1l-0.5-0.1l-0.6-0.1l-0.6-0.1l-0.6-0.1h-0.6l-0.6-0.1l-0.5-0.1l-0.6-0.1h-0.6
		l-0.6-0.1l-0.6-0.1h-0.6l-0.6-0.1l-0.6-0.1H92l-0.6-0.1h-0.6l-0.6-0.1h-0.6l-0.6-0.1h-0.6h-0.6l-0.5-0.1h-0.6h-0.6h-0.6l-0.6-0.1
		h-0.6h-0.6h-0.6h-0.6h-0.5h-0.6h-0.6 M212.8,522v-3.8l-0.1-0.5V516l-0.1-0.5v-0.6l-0.1-0.5v-1.1l-0.1-0.6v-0.5l-0.1-0.6l-0.1-0.5
		v-0.6l-0.1-0.5l-0.1-0.6V509l-0.1-0.6l-0.1-0.5l-0.1-0.6v-0.5l-0.1-0.6l-0.1-0.5l-0.1-0.6l-0.1-0.5l-0.1-0.6l-0.1-0.5l-0.1-0.6
		l-0.1-0.5l-0.1-0.5l-0.1-0.6l-0.1-0.5l-0.2-0.6l-0.1-0.5l-0.1-0.6l-0.1-0.5l-0.2-0.5l-0.1-0.6l-0.1-0.5l-0.2-0.6l-0.1-0.5l-0.2-0.5
		l-0.1-0.6l-0.2-0.5l-0.1-0.5l-0.2-0.6l-0.1-0.5l-0.2-0.5l-0.2-0.6l-0.1-0.5l-0.2-0.5l-0.2-0.6l-0.1-0.5l-0.2-0.5"/>
	<path class="st8" d="M212.9,522c0,0.1-0.1,0.3-0.2,0.3s-0.2-0.1-0.2-0.3c0-0.1,0.1-0.2,0.2-0.2S212.9,521.9,212.9,522"/>
	<path class="st4" d="M215.8,521.9c0,1.7-1.3,3-3,3s-3-1.3-3-3s1.3-3,3-3S215.8,520.3,215.8,521.9"/>
	<text transform="matrix(1 0 0 1 212.75 525.5026)" class="st5 st6">0</text>
	<line class="st9" x1="212.2" y1="509.6" x2="212.1" y2="509.6"/>
	<path class="st4" d="M215.1,509.7c0,1.7-1.3,3-3,3s-3-1.3-3-3s1.3-3,3-3S215.1,508,215.1,509.7"/>
	<line class="st9" x1="210.2" y1="497.3" x2="210.1" y2="497.3"/>
	<path class="st4" d="M213.2,497.2c0,1.7-1.3,3-3,3c-1.7,0-3-1.3-3-3s1.3-3,3-3C211.8,494.2,213.2,495.6,213.2,497.2"/>
	<line class="st9" x1="206.9" y1="485.2" x2="206.5" y2="485.2"/>
	<path class="st4" d="M209.8,485.2c0,1.7-1.3,3-3,3s-3-1.3-3-3s1.3-3,3-3S209.8,483.6,209.8,485.2"/>
	<text transform="matrix(1 0 0 1 206.5 488.6667)" class="st5 st6">3</text>
	<line class="st9" x1="202.4" y1="473.5" x2="201.1" y2="473.5"/>
	<path class="st4" d="M205.5,473.4c0,1.7-1.3,3-3,3s-3-1.3-3-3s1.3-3,3-3S205.5,471.8,205.5,473.4"/>
	<line class="st9" x1="196.7" y1="462.2" x2="193.4" y2="462.5"/>
	<path class="st4" d="M199.7,462.2c0,1.7-1.3,3-3,3c-1.7,0-3-1.3-3-3s1.3-3,3-3C198.4,459.2,199.7,460.5,199.7,462.2"/>
	<line class="st9" x1="189.8" y1="451.7" x2="182.7" y2="452.9"/>
	<path class="st4" d="M192.8,451.6c0,1.7-1.3,3-3,3c-1.7,0-3-1.3-3-3s1.3-3,3-3C191.4,448.6,192.8,450,192.8,451.6"/>
	<text transform="matrix(1 0 0 1 182.6719 456.4167)" class="st5 st6">6</text>
	<line class="st9" x1="181.8" y1="441.8" x2="167.8" y2="446.8"/>
	<path class="st4" d="M184.9,441.8c0,1.7-1.3,3-3,3c-1.7,0-3-1.3-3-3s1.3-3,3-3C183.5,438.8,184.9,440.1,184.9,441.8"/>
	<line class="st9" x1="172.8" y1="432.6" x2="152.5" y2="449.2"/>
	<path class="st4" d="M175.7,432.6c0,1.7-1.3,3-3,3s-3-1.3-3-3s1.3-3,3-3S175.7,431,175.7,432.6"/>
	<line class="st9" x1="162.9" y1="424.4" x2="144.6" y2="455.4"/>
	<path class="st4" d="M165.9,424.5c0,1.7-1.3,3-3,3s-3-1.3-3-3s1.3-3,3-3S165.9,422.8,165.9,424.5"/>
	<text transform="matrix(1 0 0 1 144.5781 458.9167)" class="st5 st6">9</text>
	<path class="st10" d="M212.8,522l-0.7-12.4l-2-12.3l-3.6-12.1l-5.4-11.7l-7.7-11l-10.8-9.6l-14.8-6.1l-11.1,0.7l-0.2,0.1l-4,1.6
		l-7.9,6.2 M209.8,522h6 M212.8,519v6 M209.1,509.6h6 M212.1,506.6v6 M207.1,497.3h6 M210.1,494.2v6 M203.5,485.2h6 M206.5,482.2v6
		 M198.1,473.5h6 M201.1,470.5v6 M190.4,462.5h6 M193.4,459.5v6 M179.7,452.9h6 M182.7,449.9v6 M164.8,446.8h6 M167.8,443.8v6
		 M153.8,447.5h6 M156.8,444.5v6 M153.5,447.6h6 M156.5,444.6v6 M149.5,449.2h6 M152.5,446.2v6 M141.6,455.4h6 M144.6,452.4v6"/>
	<g>
		<defs>
			<rect id="SVGID_3_" x="41.6" y="347.6" width="184.5" height="211.9"/>
		</defs>
		<clipPath id="SVGID_4_">
			<use xlink:href="#SVGID_3_"  style="overflow:visible;"/>
		</clipPath>
		<polyline class="st15" points="81.1,522 63.8,497 59.8,481.4 59.5,466.9 62.2,452.7 67.8,438.2 77,422.5 90.5,403.6 100.8,386 
			101.2,385.4 104.8,376.4 111.4,347.6 		"/>
	</g>
	<path class="st11" d="M79,519.9l4.2,4.2 M83.2,519.9l-4.2,4.2 M61.8,494.9l4.2,4.2 M65.9,494.9l-4.2,4.2 M57.8,479.3l4.2,4.2
		 M61.9,479.3l-4.2,4.2 M57.4,464.8l4.2,4.2 M61.6,464.8l-4.2,4.2 M60.1,450.6l4.2,4.2 M64.3,450.6l-4.2,4.2 M65.8,436.1l4.2,4.2
		 M69.9,436.1l-4.2,4.2 M74.9,420.4l4.2,4.2 M79.1,420.4l-4.2,4.2 M88.4,401.5l4.2,4.2 M92.6,401.5l-4.2,4.2 M98.8,383.9l4.2,4.2
		 M102.9,383.9l-4.2,4.2 M99.1,383.3l4.2,4.2 M103.3,383.3l-4.2,4.2 M102.7,374.3l4.2,4.2 M106.8,374.3l-4.2,4.2"/>
	<path class="st14" d="M81.1,522l17.8,13.6l6.1,3.9l3.8,2.7l2.8,2.1l2,1.7l1.7,1.3l1.2,1.1l0.7,0.7l0.1,0.1l0.2,0.2l0.8,0.8
		 M79,519.9l4.2,4.2 M83.2,519.9l-4.2,4.2 M96.8,533.5l4.2,4.2 M101,533.5l-4.2,4.2 M102.9,537.4l4.2,4.2 M107.1,537.4l-4.2,4.2
		 M106.8,540.1l4.2,4.2 M110.9,540.1l-4.2,4.2 M109.6,542.2l4.2,4.2 M113.8,542.2l-4.2,4.2 M111.6,543.8l4.2,4.2 M115.8,543.8
		l-4.2,4.2 M113.2,545.2l4.2,4.2 M117.4,545.2l-4.2,4.2 M114.5,546.3l4.2,4.2 M118.7,546.3l-4.2,4.2 M115.2,546.9l4.2,4.2
		 M119.3,546.9l-4.2,4.2 M115.3,547l4.2,4.2 M119.4,547l-4.2,4.2 M115.5,547.2l4.2,4.2 M119.7,547.2l-4.2,4.2 M116.3,548.1l4.2,4.2
		 M120.5,548.1l-4.2,4.2"/>
	<text transform="matrix(1 0 0 1 53.586 335.1667)" class="st12 st6">α</text>
	<text transform="matrix(1 0 0 1 59.836 335.1667)" class="st5 st6">,</text>
	<text transform="matrix(1 0 0 1 62.586 335.1667)" class="st12 st6">β</text>
	<text transform="matrix(1 0 0 1 68 335.1667)" class="st5 st6">= 0.50,0.417 ; f</text>
	<text transform="matrix(1 0 0 1 134.5 340.1667)" class="st5 st13">c</text>
	<text transform="matrix(1 0 0 1 138.5 335.1667)" class="st5 st6">= 0.7236(0.6760)</text>
	<rect x="294.2" y="347.6" class="st1" width="184.4" height="211.8"/>
	<polyline class="st2" points="294.2,559.4 294.2,347.6 478.6,347.6 478.6,559.4 294.2,559.4 	"/>
	<path class="st3" d="M333.7,559.4V347.6 M333.7,347.6L333.7,347.6 M399.5,559.4V347.6 M399.5,347.6L399.5,347.6 M465.3,559.4V347.6
		 M465.3,347.6L465.3,347.6 M294.2,546.9h184.4 M478.6,546.9L478.6,546.9 M294.2,522h184.4 M478.6,522L478.6,522 M294.2,497.1h184.4
		 M478.6,497.1L478.6,497.1 M294.2,472.2h184.4 M478.6,472.2L478.6,472.2 M294.2,447.2h184.4 M478.6,447.2L478.6,447.2 M294.2,422.3
		h184.4 M478.6,422.3L478.6,422.3 M294.2,397.4h184.4 M478.6,397.4L478.6,397.4 M294.2,372.5h184.4 M478.6,372.5L478.6,372.5"/>
	<path class="st4" d="M294.2,559.4h184.4 M294.2,347.6h184.4 M294.2,559.4V347.6 M478.6,559.4V347.6 M294.2,559.4h184.4
		 M294.2,559.4V347.6 M333.7,559.4v-2.2 M333.7,347.6v2.1"/>
	<text transform="matrix(1 0 0 1 330.9219 571.4948)" class="st5 st6">0</text>
	<path class="st4" d="M399.5,559.4v-2.2 M399.5,347.6v2.1"/>
	<text transform="matrix(1 0 0 1 392.5859 571.4948)" class="st5 st6">0.</text>
	<text transform="matrix(1 0 0 1 400.9219 571.4948)" class="st5 st6">5</text>
	<path class="st4" d="M465.3,559.4v-2.2 M465.3,347.6v2.1"/>
	<text transform="matrix(1 0 0 1 462.5859 571.4948)" class="st5 st6">1</text>
	<path class="st4" d="M294.2,546.9h2.1 M478.6,546.9h-2.2"/>
	<text transform="matrix(1 0 0 1 271.5859 550.5807)" class="st5 st6">−0.</text>
	<text transform="matrix(1 0 0 1 285.7656 550.5807)" class="st5 st6">2</text>
	<path class="st4" d="M294.2,522h2.1 M478.6,522h-2.2"/>
	<text transform="matrix(1 0 0 1 285.75 525.6667)" class="st5 st6">0</text>
	<path class="st4" d="M294.2,497.1h2.1 M478.6,497.1h-2.2"/>
	<text transform="matrix(1 0 0 1 277.4219 500.7448)" class="st5 st6">0.</text>
	<text transform="matrix(1 0 0 1 285.7578 500.7448)" class="st5 st6">2</text>
	<path class="st4" d="M294.2,472.2h2.1 M478.6,472.2h-2.2"/>
	<text transform="matrix(1 0 0 1 277.4219 475.8386)" class="st5 st6">0.</text>
	<text transform="matrix(1 0 0 1 285.7578 475.8386)" class="st5 st6">4</text>
	<path class="st4" d="M294.2,447.2h2.1 M478.6,447.2h-2.2"/>
	<text transform="matrix(1 0 0 1 277.4219 450.9167)" class="st5 st6">0.</text>
	<text transform="matrix(1 0 0 1 285.7578 450.9167)" class="st5 st6">6</text>
	<path class="st4" d="M294.2,422.3h2.1 M478.6,422.3h-2.2"/>
	<text transform="matrix(1 0 0 1 277.4219 426.0026)" class="st5 st6">0.</text>
	<text transform="matrix(1 0 0 1 285.7578 426.0026)" class="st5 st6">8</text>
	<path class="st4" d="M294.2,397.4h2.1 M478.6,397.4h-2.2"/>
	<text transform="matrix(1 0 0 1 285.75 401.0886)" class="st5 st6">1</text>
	<path class="st4" d="M294.2,372.5h2.1 M478.6,372.5h-2.2"/>
	<text transform="matrix(1 0 0 1 277.4219 376.1667)" class="st5 st6">1.</text>
	<text transform="matrix(1 0 0 1 285.7578 376.1667)" class="st5 st6">2</text>
	<path class="st4" d="M294.2,559.4h184.4 M294.2,347.6h184.4 M294.2,559.4V347.6 M478.6,559.4V347.6"/>
	<path class="st7" d="M333.7,522l131.7-124.6 M460.8,489.2l-0.2-0.6l-0.2-0.5l-0.2-0.5l-0.2-0.6l-0.2-0.5l-0.2-0.5l-0.2-0.5
		l-0.2-0.6l-0.2-0.5l-0.2-0.5l-0.2-0.5l-0.2-0.5l-0.2-0.6l-0.2-0.5l-0.2-0.5l-0.2-0.5l-0.2-0.5l-0.2-0.5l-0.2-0.6l-0.2-0.5l-0.3-0.5
		l-0.2-0.5l-0.2-0.5l-0.2-0.5l-0.2-0.5l-0.2-0.5l-0.2-0.5l-0.2-0.5l-0.2-0.5l-0.3-0.5l-0.2-0.5l-0.2-0.5l-0.2-0.5l-0.2-0.5l-0.2-0.5
		l-0.2-0.5l-0.2-0.5l-0.2-0.5l-0.3-0.5l-0.2-0.5l-0.2-0.5l-0.2-0.5l-0.2-0.5l-0.2-0.4l-0.2-0.5l-0.2-0.5l-0.2-0.5l-0.2-0.5l-0.2-0.5
		l-0.2-0.4l-0.3-0.5l-0.2-0.5l-0.2-0.5l-0.2-0.4l-0.3-0.5l-0.2-0.5l-0.3-0.4l-0.2-0.5l-0.2-0.5l-0.3-0.4l-0.2-0.5l-0.3-0.5l-0.2-0.4
		l-0.3-0.5l-0.3-0.4l-0.2-0.5l-0.3-0.4l-0.2-0.5l-0.3-0.5l-0.3-0.4l-0.3-0.4l-0.2-0.5l-0.3-0.4l-0.3-0.5l-0.3-0.4l-0.3-0.5l-0.3-0.4
		l-0.2-0.4l-0.3-0.5l-0.3-0.4l-0.3-0.4l-0.3-0.5l-0.3-0.4l-0.4-0.4l-0.3-0.5l-0.3-0.4l-0.3-0.4l-0.3-0.4l-0.3-0.4l-0.3-0.5l-0.4-0.4
		l-0.3-0.4l-0.3-0.4l-0.4-0.4l-0.3-0.4l-0.3-0.4l-0.4-0.4l-0.3-0.4l-0.3-0.4l-0.4-0.4l-0.3-0.4l-0.4-0.4l-0.3-0.4l-0.4-0.4l-0.3-0.4
		l-0.4-0.4l-0.4-0.4l-0.3-0.3l-0.4-0.4l-0.4-0.4L430,437l-0.4-0.4l-0.4-0.3l-0.3-0.4l-0.4-0.4l-0.4-0.3l-0.4-0.4l-0.4-0.4l-0.4-0.3
		l-0.3-0.4l-0.4-0.4l-0.4-0.3l-0.4-0.4l-0.4-0.3l-0.4-0.4l-0.4-0.3l-0.4-0.4l-0.4-0.3l-0.4-0.4l-0.4-0.3l-0.5-0.3l-0.4-0.4l-0.4-0.3
		l-0.4-0.3l-0.4-0.4l-0.4-0.3l-0.5-0.3l-0.4-0.3l-0.4-0.4l-0.5-0.3l-0.4-0.3l-0.4-0.3l-0.5-0.3l-0.4-0.3l-0.4-0.3l-0.5-0.3l-0.4-0.3
		l-0.5-0.3l-0.4-0.3l-0.4-0.3l-0.5-0.3l-0.5-0.3l-0.4-0.3l-0.5-0.3l-0.4-0.3l-0.5-0.3l-0.4-0.2l-0.5-0.3l-0.5-0.3l-0.4-0.3l-0.5-0.2
		l-0.5-0.3l-0.4-0.3l-0.5-0.2l-0.5-0.3l-0.5-0.3l-0.4-0.2l-0.5-0.3l-0.5-0.2l-0.5-0.3l-0.5-0.2L403,416l-0.5-0.2l-0.5-0.2l-0.5-0.3
		l-0.5-0.2l-0.5-0.2l-0.5-0.3l-0.5-0.2l-0.5-0.2l-0.5-0.3l-0.5-0.2l-0.5-0.2l-0.5-0.2l-0.5-0.2l-0.5-0.2l-0.5-0.2l-0.5-0.2l-0.5-0.2
		l-0.6-0.2l-0.5-0.2l-0.5-0.2l-0.5-0.2l-0.5-0.2l-0.5-0.2l-0.6-0.2l-0.5-0.2l-0.5-0.2l-0.5-0.2l-0.6-0.2l-0.5-0.2l-0.5-0.2l-0.5-0.2
		l-0.6-0.2l-0.5-0.2l-0.5-0.2l-0.6-0.2l-0.5-0.2l-0.5-0.2l-0.6-0.2l-0.5-0.2l-0.6-0.2l-0.5-0.2l-0.5-0.2l-0.6-0.2l-0.5-0.2l-0.6-0.2
		l-0.5-0.2l-0.6-0.2l-0.5-0.2l-0.6-0.2l-0.5-0.2l-0.6-0.2L376,404l-0.6-0.2l-0.5-0.2l-0.6-0.2l-0.5-0.2l-0.6-0.2l-0.6-0.2l-0.5-0.2
		l-0.6-0.2l-0.5-0.2l-0.6-0.2l-0.6-0.1l-0.5-0.2l-0.6-0.2l-0.6-0.2l-0.5-0.1l-0.6-0.2l-0.6-0.2l-0.5-0.1l-0.6-0.2l-0.6-0.2l-0.5-0.1
		l-0.6-0.2l-0.6-0.1l-0.5-0.2l-0.6-0.1l-0.6-0.1l-0.6-0.2l-0.5-0.1l-0.6-0.1l-0.6-0.2l-0.6-0.1l-0.5-0.1l-0.6-0.1l-0.6-0.2l-0.6-0.1
		l-0.6-0.1l-0.5-0.1l-0.6-0.1l-0.6-0.1l-0.6-0.1l-0.6-0.1l-0.5-0.1l-0.6-0.1l-0.6-0.1l-0.6-0.1h-0.6l-0.6-0.1l-0.5-0.1l-0.6-0.1H348
		l-0.6-0.1l-0.6-0.1h-0.6l-0.6-0.1l-0.6-0.1h-0.5l-0.6-0.1h-0.6l-0.6-0.1h-0.6l-0.6-0.1h-0.6h-0.6l-0.5-0.1h-0.6h-0.6h-0.6l-0.6-0.1
		h-0.6h-0.6h-0.6h-0.6h-0.5h-0.6h-0.6 M465.3,522v-3.8l-0.1-0.5V516l-0.1-0.5v-0.6l-0.1-0.5v-1.1l-0.1-0.6v-0.5l-0.1-0.6l-0.1-0.5
		v-0.6l-0.1-0.5l-0.1-0.6V509l-0.1-0.6l-0.1-0.5l-0.1-0.6v-0.5l-0.1-0.6l-0.1-0.5l-0.1-0.6l-0.1-0.5l-0.1-0.6l-0.1-0.5l-0.1-0.6
		l-0.1-0.5l-0.1-0.5l-0.1-0.6l-0.1-0.5l-0.2-0.6l-0.1-0.5l-0.1-0.6l-0.1-0.5l-0.2-0.5l-0.1-0.6l-0.1-0.5l-0.2-0.6l-0.1-0.5l-0.2-0.5
		l-0.1-0.6l-0.2-0.5L462,494l-0.2-0.6l-0.1-0.5l-0.2-0.5l-0.2-0.6l-0.1-0.5l-0.2-0.5l-0.2-0.6l-0.1-0.5l-0.2-0.5"/>
	<path class="st8" d="M465.7,522c0,0.1-0.1,0.3-0.2,0.3c-0.1,0-0.2-0.1-0.2-0.3c0-0.1,0.1-0.2,0.2-0.2
		C465.5,521.8,465.7,521.9,465.7,522"/>
	<path class="st4" d="M468.3,521.9c0,1.7-1.3,3-3,3s-3-1.3-3-3s1.3-3,3-3S468.3,520.3,468.3,521.9"/>
	<text transform="matrix(1 0 0 1 465.3359 525.5026)" class="st5 st6">0</text>
	<line class="st9" x1="464.8" y1="509.6" x2="464.7" y2="509.5"/>
	<path class="st4" d="M467.8,509.7c0,1.7-1.3,3-3,3s-3-1.3-3-3s1.3-3,3-3S467.8,508,467.8,509.7"/>
	<line class="st9" x1="462.8" y1="497.3" x2="462.7" y2="497.1"/>
	<path class="st4" d="M465.7,497.2c0,1.7-1.3,3-3,3s-3-1.3-3-3s1.3-3,3-3S465.7,495.6,465.7,497.2"/>
	<line class="st9" x1="459.5" y1="485.2" x2="459.2" y2="484.7"/>
	<path class="st4" d="M462.5,485.2c0,1.7-1.3,3-3,3s-3-1.3-3-3s1.3-3,3-3S462.5,483.6,462.5,485.2"/>
	<text transform="matrix(1 0 0 1 459.1641 488.1667)" class="st5 st6">3</text>
	<line class="st9" x1="455" y1="473.5" x2="453.8" y2="472.3"/>
	<path class="st4" d="M458,473.4c0,1.7-1.3,3-3,3c-1.7,0-3-1.3-3-3s1.3-3,3-3C456.6,470.4,458,471.8,458,473.4"/>
	<line class="st9" x1="449.2" y1="462.2" x2="446.2" y2="460"/>
	<path class="st4" d="M452.2,462.2c0,1.7-1.3,3-3,3s-3-1.3-3-3s1.3-3,3-3S452.2,460.5,452.2,462.2"/>
	<line class="st9" x1="442.3" y1="451.7" x2="435.3" y2="447.7"/>
	<path class="st4" d="M445.2,451.6c0,1.7-1.3,3-3,3s-3-1.3-3-3s1.3-3,3-3S445.2,450,445.2,451.6"/>
	<text transform="matrix(1 0 0 1 435.3359 451.1667)" class="st5 st6">6</text>
	<line class="st9" x1="434.4" y1="441.8" x2="418" y2="435.2"/>
	<path class="st4" d="M437.3,441.8c0,1.7-1.3,3-3,3s-3-1.3-3-3s1.3-3,3-3S437.3,440.1,437.3,441.8"/>
	<line class="st9" x1="425.4" y1="432.6" x2="383.1" y2="444.4"/>
	<path class="st4" d="M428.5,432.6c0,1.7-1.3,3-3,3s-3-1.3-3-3s1.3-3,3-3S428.5,431,428.5,432.6"/>
	<line class="st9" x1="415.5" y1="424.4" x2="381.7" y2="458"/>
	<path class="st4" d="M418.6,424.5c0,1.7-1.3,3-3,3s-3-1.3-3-3s1.3-3,3-3S418.6,422.8,418.6,424.5"/>
	<text transform="matrix(1 0 0 1 381.6641 461.4948)" class="st5 st6">9</text>
	<path class="st10" d="M465.3,522l-0.7-12.5l-2-12.4l-3.5-12.4l-5.3-12.3l-7.6-12.3l-10.9-12.3L418,435.2l-30.4-9.1l-3.5,4.2
		l-1,14.2l-1.4,13.6 M462.3,522h6 M465.3,519v6 M461.7,509.5h6 M464.7,506.5v6 M459.7,497.1h6 M462.7,494.1v6 M456.2,484.7h6
		 M459.2,481.7v6 M450.8,472.3h6 M453.8,469.3v6 M443.2,460h6 M446.2,457v6 M432.3,447.7h6 M435.3,444.7v6 M415,435.2h6 M418,432.2
		v6 M384.6,426.1h6 M387.6,423.1v6 M381.1,430.3h6 M384.1,427.3v6 M380.1,444.4h6 M383.1,441.4v6 M378.7,458h6 M381.7,455v6"/>
	<path class="st11" d="M333.7,522l-14.1-20.7l-3-12.9l0.2-11.9l2.9-11.4l5.8-11.2l9.4-11l16.2-10.7l29.8-6.6l3.5-4.6l0.8-21.1
		l0.6-36.5 M331.6,519.9l4.2,4.2 M335.8,519.9l-4.2,4.2 M317.5,499.2l4.2,4.2 M321.7,499.2l-4.2,4.2 M314.5,486.2l4.2,4.2
		 M318.7,486.2l-4.2,4.2 M314.8,474.3l4.2,4.2 M318.9,474.3l-4.2,4.2 M317.7,462.9l4.2,4.2 M321.8,462.9l-4.2,4.2 M323.4,451.8
		l4.2,4.2 M327.6,451.8l-4.2,4.2 M332.8,440.8l4.2,4.2 M337,440.8l-4.2,4.2 M349,430.1l4.2,4.2 M353.2,430.1l-4.2,4.2 M378.8,423.5
		l4.2,4.2 M383,423.5l-4.2,4.2 M382.3,418.9l4.2,4.2 M386.5,418.9l-4.2,4.2 M383.1,397.8l4.2,4.2 M387.2,397.8l-4.2,4.2
		 M383.7,361.3l4.2,4.2 M387.8,361.3l-4.2,4.2"/>
	<path class="st14" d="M333.7,522l14.7,11l5,3.2l3.3,2.1l2.4,1.6l1.8,1.3l1.4,1.2l1.2,0.9l0.7,0.6l0.2,0.2l0.8,0.7 M331.6,519.9
		l4.2,4.2 M335.8,519.9l-4.2,4.2 M346.2,530.9l4.2,4.2 M350.4,530.9l-4.2,4.2 M351.2,534.1l4.2,4.2 M355.4,534.1l-4.2,4.2
		 M354.6,536.2l4.2,4.2 M358.8,536.2l-4.2,4.2 M357,537.8l4.2,4.2 M361.2,537.8l-4.2,4.2 M358.8,539.1l4.2,4.2 M363,539.1l-4.2,4.2
		 M360.2,540.3l4.2,4.2 M364.4,540.3l-4.2,4.2 M361.4,541.2l4.2,4.2 M365.6,541.2l-4.2,4.2 M362.1,541.8l4.2,4.2 M366.2,541.8
		l-4.2,4.2 M362.3,542l4.2,4.2 M366.5,542l-4.2,4.2 M363.2,542.7l4.2,4.2 M367.3,542.7l-4.2,4.2"/>
	<text transform="matrix(1 0 0 1 306.1719 335.1667)" class="st12 st6">α</text>
	<text transform="matrix(1 0 0 1 312.4219 335.1667)" class="st5 st6">,</text>
	<text transform="matrix(1 0 0 1 315.1719 335.1667)" class="st12 st6">β</text>
	<text transform="matrix(1 0 0 1 320.5859 335.1667)" class="st5 st6">= 0.50,0.281 ; f</text>
	<text transform="matrix(1 0 0 1 387.0781 340.1667)" class="st5 st13">c</text>
	<text transform="matrix(1 0 0 1 391.0859 335.1667)" class="st5 st6">= 0.7861(0.7686)</text>
	<text transform="matrix(1 0 0 1 112.836 27.2526)" class="st5 st16">Oscil. response of AB−3 : CFL (f*dt)= 0.0 −&gt; 0.9 every 0.1</text>
</g>
</svg>
