<?xml version="1.0" encoding="utf-8"?>
<!-- Generator: Adobe Illustrator 22.1.0, SVG Export Plug-In . SVG Version: 6.00 Build 0)  -->
<svg version="1.1" id="Layer_1" xmlns="http://www.w3.org/2000/svg" xmlns:xlink="http://www.w3.org/1999/xlink" x="0px" y="0px"
	 viewBox="0 0 518 596" style="enable-background:new 0 0 518 596;" xml:space="preserve">
<style type="text/css">
	.st0{clip-path:url(#SVGID_2_);fill:#FFFFFF;}
	.st1{fill-rule:evenodd;clip-rule:evenodd;fill:#FFFFFF;}
	.st2{fill:none;stroke:#FFFFFF;stroke-width:0.5;stroke-linejoin:round;stroke-miterlimit:10;}
	.st3{fill:none;stroke:#000000;stroke-width:0.3333;stroke-linejoin:round;stroke-miterlimit:10;stroke-dasharray:0.5,4;}
	.st4{fill:none;stroke:#000000;stroke-width:0.5;stroke-linejoin:round;stroke-miterlimit:10;}
	.st5{font-family:'Helvetica';}
	.st6{font-size:10px;}
	.st7{clip-path:url(#SVGID_4_);fill:none;stroke:#000000;stroke-width:0.5;stroke-linejoin:round;stroke-miterlimit:10;}
	.st8{clip-path:url(#SVGID_6_);fill:none;stroke:#3953A4;stroke-width:0.5;stroke-linejoin:round;stroke-miterlimit:10;}
	.st9{fill:none;stroke:#3953A4;stroke-width:0.5;stroke-linejoin:round;stroke-miterlimit:10;}
	.st10{clip-path:url(#SVGID_8_);fill:none;stroke:#ED2024;stroke-width:0.5;stroke-linejoin:round;stroke-miterlimit:10;}
	.st11{fill:none;stroke:#ED2024;stroke-width:0.5;stroke-linejoin:round;stroke-miterlimit:10;}
	.st12{font-family:'Symbol';}
	.st13{font-size:8px;}
	.st14{clip-path:url(#SVGID_10_);fill:none;stroke:#000000;stroke-width:0.5;stroke-linejoin:round;stroke-miterlimit:10;}
	.st15{clip-path:url(#SVGID_12_);fill:none;stroke:#3953A4;stroke-width:0.5;stroke-linejoin:round;stroke-miterlimit:10;}
	.st16{clip-path:url(#SVGID_14_);fill:none;stroke:#ED2024;stroke-width:0.5;stroke-linejoin:round;stroke-miterlimit:10;}
	.st17{clip-path:url(#SVGID_16_);fill:none;stroke:#000000;stroke-width:0.5;stroke-linejoin:round;stroke-miterlimit:10;}
	.st18{clip-path:url(#SVGID_18_);fill:none;stroke:#6ABD45;stroke-width:0.5;stroke-linejoin:round;stroke-miterlimit:10;}
	.st19{fill:none;stroke:#6ABD45;stroke-width:0.5;stroke-linejoin:round;stroke-miterlimit:10;}
	.st20{clip-path:url(#SVGID_20_);fill:none;stroke:#3953A4;stroke-width:0.5;stroke-linejoin:round;stroke-miterlimit:10;}
	.st21{clip-path:url(#SVGID_22_);fill:none;stroke:#ED2024;stroke-width:0.5;stroke-linejoin:round;stroke-miterlimit:10;}
	.st22{clip-path:url(#SVGID_24_);fill:none;stroke:#000000;stroke-width:0.5;stroke-linejoin:round;stroke-miterlimit:10;}
	.st23{clip-path:url(#SVGID_26_);fill:none;stroke:#6ABD45;stroke-width:0.5;stroke-linejoin:round;stroke-miterlimit:10;}
	.st24{clip-path:url(#SVGID_28_);fill:none;stroke:#3953A4;stroke-width:0.5;stroke-linejoin:round;stroke-miterlimit:10;}
	.st25{clip-path:url(#SVGID_30_);fill:none;stroke:#ED2024;stroke-width:0.5;stroke-linejoin:round;stroke-miterlimit:10;}
	.st26{font-size:11px;}
</style>
<g>
	<g>
		<defs>
			<rect id="SVGID_1_" x="20" y="11" width="463.8" height="563.7"/>
		</defs>
		<clipPath id="SVGID_2_">
			<use xlink:href="#SVGID_1_"  style="overflow:visible;"/>
		</clipPath>
		<rect x="-30.7" y="12" class="st0" width="564" height="616.1"/>
	</g>
	<rect x="42.6" y="58.2" class="st1" width="184.4" height="211.9"/>
	<polyline class="st2" points="42.6,270.1 42.6,58.2 227,58.2 227,270.1 42.6,270.1 	"/>
	<path class="st3" d="M42.6,270.1V58.2 M42.6,58.2L42.6,58.2 M118.8,270.1V58.2 M118.8,58.2L118.8,58.2 M194.9,270.1V58.2
		 M194.9,58.2L194.9,58.2 M42.6,270.1H227 M227,270.1L227,270.1 M42.6,227.7H227 M227,227.7L227,227.7 M42.6,185.2H227 M227,185.2
		L227,185.2 M42.6,142.9H227 M227,142.9L227,142.9 M42.6,100.5H227 M227,100.5L227,100.5 M42.6,58.2H227 M227,58.2L227,58.2"/>
	<path class="st4" d="M42.6,270.1H227 M42.6,58.2H227 M42.6,270.1V58.2 M227,270.1V58.2 M42.6,270.1H227 M42.6,270.1V58.2
		 M42.6,270.1v-2.2 M42.6,58.2v2.1"/>
	<text transform="matrix(1 0 0 1 39.836 282.1641)" class="st5 st6">0</text>
	<path class="st4" d="M118.8,270.1v-2.2 M118.8,58.2v2.1"/>
	<text transform="matrix(1 0 0 1 111.8281 282.1641)" class="st5 st6">0.</text>
	<text transform="matrix(1 0 0 1 120.1797 282.1641)" class="st5 st6">5</text>
	<path class="st4" d="M194.9,270.1v-2.2 M194.9,58.2v2.1"/>
	<text transform="matrix(1 0 0 1 192.1719 282.1641)" class="st5 st6">1</text>
	<path class="st4" d="M42.6,270.1h2.1 M227,270.1h-2.2"/>
	<text transform="matrix(1 0 0 1 20 273.75)" class="st5 st6">−1.</text>
	<text transform="matrix(1 0 0 1 34.1797 273.75)" class="st5 st6">5</text>
	<path class="st4" d="M42.6,227.7h2.1 M227,227.7h-2.2"/>
	<text transform="matrix(1 0 0 1 28.336 231.3359)" class="st5 st6">−1</text>
	<path class="st4" d="M42.6,185.2h2.1 M227,185.2h-2.2"/>
	<text transform="matrix(1 0 0 1 20 188.9219)" class="st5 st6">−0.</text>
	<text transform="matrix(1 0 0 1 34.1797 188.9219)" class="st5 st6">5</text>
	<path class="st4" d="M42.6,142.9h2.1 M227,142.9h-2.2"/>
	<text transform="matrix(1 0 0 1 34.1641 146.5859)" class="st5 st6">0</text>
	<path class="st4" d="M42.6,100.5h2.1 M227,100.5h-2.2"/>
	<text transform="matrix(1 0 0 1 25.836 104.1641)" class="st5 st6">0.</text>
	<text transform="matrix(1 0 0 1 34.1719 104.1641)" class="st5 st6">5</text>
	<path class="st4" d="M42.6,58.2h2.1 M227,58.2h-2.2"/>
	<text transform="matrix(1 0 0 1 34.1641 61.8281)" class="st5 st6">1</text>
	<path class="st4" d="M42.6,270.1H227 M42.6,58.2H227 M42.6,270.1V58.2 M227,270.1V58.2"/>
	<g>
		<defs>
			<rect id="SVGID_3_" x="42.6" y="58.2" width="184.5" height="212"/>
		</defs>
		<clipPath id="SVGID_4_">
			<use xlink:href="#SVGID_3_"  style="overflow:visible;"/>
		</clipPath>
		<polyline class="st7" points="42.6,58.2 57.8,66.2 73,73.5 88.3,80.1 103.5,86.1 118.8,91.5 134,96.3 149.3,100.8 164.5,104.8 
			179.8,108.4 194.9,111.7 210.2,114.7 		"/>
	</g>
	<path class="st4" d="M45.7,58.1c0,1.7-1.3,3-3,3s-3-1.3-3-3s1.3-3,3-3S45.7,56.5,45.7,58.1 M60.8,66.3c0,1.7-1.3,3-3,3s-3-1.3-3-3
		s1.3-3,3-3S60.8,64.6,60.8,66.3 M75.9,73.5c0,1.7-1.3,3-3,3s-3-1.3-3-3s1.3-3,3-3S75.9,71.8,75.9,73.5 M91.3,80.2c0,1.7-1.3,3-3,3
		s-3-1.3-3-3s1.3-3,3-3S91.3,78.5,91.3,80.2 M106.4,86.2c0,1.7-1.3,3-3,3s-3-1.3-3-3s1.3-3,3-3S106.4,84.5,106.4,86.2 M121.8,91.5
		c0,1.7-1.3,3-3,3s-3-1.3-3-3s1.3-3,3-3S121.8,89.8,121.8,91.5 M136.9,96.3c0,1.7-1.3,3-3,3c-1.7,0-3-1.3-3-3s1.3-3,3-3
		C135.5,93.3,136.9,94.6,136.9,96.3 M152.3,100.8c0,1.7-1.3,3-3,3s-3-1.3-3-3s1.3-3,3-3S152.3,99.2,152.3,100.8 M167.6,104.9
		c0,1.7-1.3,3-3,3c-1.7,0-3-1.3-3-3s1.3-3,3-3C166.3,101.9,167.6,103.3,167.6,104.9 M182.7,108.5c0,1.7-1.3,3-3,3s-3-1.3-3-3
		s1.3-3,3-3S182.7,106.9,182.7,108.5 M197.9,111.6c0,1.7-1.3,3-3,3c-1.7,0-3-1.3-3-3s1.3-3,3-3C196.5,108.6,197.9,110,197.9,111.6
		 M213.2,114.8c0,1.7-1.3,3-3,3c-1.7,0-3-1.3-3-3s1.3-3,3-3C211.9,111.8,213.2,113.1,213.2,114.8"/>
	<g>
		<defs>
			<rect id="SVGID_5_" x="42.6" y="58.2" width="184.5" height="212"/>
		</defs>
		<clipPath id="SVGID_6_">
			<use xlink:href="#SVGID_5_"  style="overflow:visible;"/>
		</clipPath>
		<polyline class="st8" points="42.6,142.9 57.8,147.6 73,153.2 88.3,159.8 103.5,167.5 118.8,176 134,185.2 149.3,195.2 
			164.5,205.7 179.8,216.5 194.9,227.7 210.2,239.1 		"/>
	</g>
	<path class="st9" d="M39.6,142.9h6 M42.6,139.9v6 M54.8,147.6h6 M57.8,144.6v6 M70,153.2h6 M73,150.2v6 M85.2,159.8h6 M88.2,156.8
		v6 M100.5,167.5h6 M103.5,164.5v6 M115.8,176h6 M118.8,173v6 M131,185.2h6 M134,182.2v6 M146.3,195.2h6 M149.3,192.2v6
		 M161.5,205.7h6 M164.5,202.7v6 M176.8,216.5h6 M179.8,213.5v6 M191.9,227.7h6 M194.9,224.7v6 M207.2,239.1h6 M210.2,236.1v6"/>
	<g>
		<defs>
			<rect id="SVGID_7_" x="42.6" y="58.2" width="184.5" height="212"/>
		</defs>
		<clipPath id="SVGID_8_">
			<use xlink:href="#SVGID_7_"  style="overflow:visible;"/>
		</clipPath>
		<polyline class="st10" points="42.6,58.2 57.8,66.2 73,73.2 88.3,79.3 103.5,84.4 118.8,88.6 134,92 149.3,94.8 164.5,97.1 
			179.8,99 194.9,100.5 210.2,101.8 		"/>
	</g>
	<path class="st11" d="M40.5,56.1l4.2,4.2 M44.7,56.1l-4.2,4.2 M55.7,64.1l4.2,4.2 M59.8,64.1l-4.2,4.2 M70.9,71.2l4.2,4.2
		 M75.1,71.2l-4.2,4.2 M86.2,77.2l4.2,4.2 M90.3,77.2l-4.2,4.2 M101.4,82.3l4.2,4.2 M105.6,82.3l-4.2,4.2 M116.7,86.5l4.2,4.2
		 M120.8,86.5l-4.2,4.2 M131.9,89.9l4.2,4.2 M136.1,89.9l-4.2,4.2 M147.2,92.8l4.2,4.2 M151.3,92.8l-4.2,4.2 M162.4,95l4.2,4.2
		 M166.6,95l-4.2,4.2 M177.7,96.9l4.2,4.2 M181.8,96.9l-4.2,4.2 M192.8,98.4l4.2,4.2 M197,98.4l-4.2,4.2 M208.1,99.8l4.2,4.2
		 M212.3,99.8l-4.2,4.2"/>
	<text transform="matrix(1 0 0 1 71.4141 45.75)" class="st12 st6">α</text>
	<text transform="matrix(1 0 0 1 77.6641 45.75)" class="st5 st6">,</text>
	<text transform="matrix(1 0 0 1 80.4141 45.75)" class="st12 st6">β</text>
	<text transform="matrix(1 0 0 1 85.836 45.75)" class="st5 st6">= 0.50,0.000 ; </text>
	<text transform="matrix(1 0 0 1 149.5 45.75)" class="st12 st6">μ</text>
	<text transform="matrix(1 0 0 1 155.25 50.75)" class="st5 st13">c</text>
	<text transform="matrix(1 0 0 1 159.25 45.75)" class="st5 st6">= 1.0000</text>
	<rect x="295.2" y="58.2" class="st1" width="184.4" height="211.9"/>
	<polyline class="st2" points="295.2,270.1 295.2,58.2 479.6,58.2 479.6,270.1 295.2,270.1 	"/>
	<path class="st3" d="M295.2,270.1V58.2 M295.2,58.2L295.2,58.2 M371.3,270.1V58.2 M371.3,58.2L371.3,58.2 M447.5,270.1V58.2
		 M447.5,58.2L447.5,58.2 M295.2,270.1h184.4 M479.6,270.1L479.6,270.1 M295.2,227.7h184.4 M479.6,227.7L479.6,227.7 M295.2,185.2
		h184.4 M479.6,185.2L479.6,185.2 M295.2,142.9h184.4 M479.6,142.9L479.6,142.9 M295.2,100.5h184.4 M479.6,100.5L479.6,100.5
		 M295.2,58.2h184.4 M479.6,58.2L479.6,58.2"/>
	<path class="st4" d="M295.2,270.1h184.4 M295.2,58.2h184.4 M295.2,270.1V58.2 M479.6,270.1V58.2 M295.2,270.1h184.4 M295.2,270.1
		V58.2 M295.2,270.1v-2.2 M295.2,58.2v2.1"/>
	<text transform="matrix(1 0 0 1 292.4219 282.1641)" class="st5 st6">0</text>
	<path class="st4" d="M371.3,270.1v-2.2 M371.3,58.2v2.1"/>
	<text transform="matrix(1 0 0 1 364.4219 282.1641)" class="st5 st6">0.</text>
	<text transform="matrix(1 0 0 1 372.7578 282.1641)" class="st5 st6">5</text>
	<path class="st4" d="M447.5,270.1v-2.2 M447.5,58.2v2.1"/>
	<text transform="matrix(1 0 0 1 444.75 282.1641)" class="st5 st6">1</text>
	<path class="st4" d="M295.2,270.1h2.1 M479.6,270.1h-2.2"/>
	<text transform="matrix(1 0 0 1 272.5859 273.75)" class="st5 st6">−1.</text>
	<text transform="matrix(1 0 0 1 286.7656 273.75)" class="st5 st6">5</text>
	<path class="st4" d="M295.2,227.7h2.1 M479.6,227.7h-2.2"/>
	<text transform="matrix(1 0 0 1 280.9219 231.3359)" class="st5 st6">−1</text>
	<path class="st4" d="M295.2,185.2h2.1 M479.6,185.2h-2.2"/>
	<text transform="matrix(1 0 0 1 272.5859 188.9219)" class="st5 st6">−0.</text>
	<text transform="matrix(1 0 0 1 286.7656 188.9219)" class="st5 st6">5</text>
	<path class="st4" d="M295.2,142.9h2.1 M479.6,142.9h-2.2"/>
	<text transform="matrix(1 0 0 1 286.75 146.5859)" class="st5 st6">0</text>
	<path class="st4" d="M295.2,100.5h2.1 M479.6,100.5h-2.2"/>
	<text transform="matrix(1 0 0 1 278.4219 104.1641)" class="st5 st6">0.</text>
	<text transform="matrix(1 0 0 1 286.7578 104.1641)" class="st5 st6">5</text>
	<path class="st4" d="M295.2,58.2h2.1 M479.6,58.2h-2.2"/>
	<text transform="matrix(1 0 0 1 286.75 61.8281)" class="st5 st6">1</text>
	<path class="st4" d="M295.2,270.1h184.4 M295.2,58.2h184.4 M295.2,270.1V58.2 M479.6,270.1V58.2"/>
	<g>
		<defs>
			<rect id="SVGID_9_" x="295.2" y="58.2" width="184.5" height="212"/>
		</defs>
		<clipPath id="SVGID_10_">
			<use xlink:href="#SVGID_9_"  style="overflow:visible;"/>
		</clipPath>
		<polyline class="st14" points="295.2,58.2 310.3,66.2 325.6,73.5 340.8,80.1 356.1,86.1 371.3,91.5 386.6,96.3 401.8,100.8 
			417.1,104.8 432.3,108.4 447.5,111.7 462.8,114.7 		"/>
	</g>
	<path class="st4" d="M298.2,58.1c0,1.7-1.3,3-3,3c-1.7,0-3-1.3-3-3s1.3-3,3-3C296.8,55.1,298.2,56.5,298.2,58.1 M313.3,66.3
		c0,1.7-1.3,3-3,3c-1.7,0-3-1.3-3-3s1.3-3,3-3C311.9,63.3,313.3,64.6,313.3,66.3 M328.7,73.5c0,1.7-1.3,3-3,3s-3-1.3-3-3s1.3-3,3-3
		S328.7,71.8,328.7,73.5 M343.8,80.2c0,1.7-1.3,3-3,3s-3-1.3-3-3s1.3-3,3-3S343.8,78.5,343.8,80.2 M359.1,86.2c0,1.7-1.3,3-3,3
		s-3-1.3-3-3s1.3-3,3-3S359.1,84.5,359.1,86.2 M374.2,91.5c0,1.7-1.3,3-3,3s-3-1.3-3-3s1.3-3,3-3S374.2,89.8,374.2,91.5 M389.6,96.3
		c0,1.7-1.3,3-3,3s-3-1.3-3-3s1.3-3,3-3S389.6,94.6,389.6,96.3 M404.7,100.8c0,1.7-1.3,3-3,3s-3-1.3-3-3s1.3-3,3-3
		S404.7,99.2,404.7,100.8 M420.1,104.9c0,1.7-1.3,3-3,3s-3-1.3-3-3s1.3-3,3-3S420.1,103.3,420.1,104.9 M435.5,108.5c0,1.7-1.3,3-3,3
		s-3-1.3-3-3s1.3-3,3-3S435.5,106.9,435.5,108.5 M450.6,111.6c0,1.7-1.3,3-3,3s-3-1.3-3-3s1.3-3,3-3S450.6,110,450.6,111.6
		 M465.7,114.8c0,1.7-1.3,3-3,3s-3-1.3-3-3s1.3-3,3-3S465.7,113.1,465.7,114.8"/>
	<g>
		<defs>
			<rect id="SVGID_11_" x="295.2" y="58.2" width="184.5" height="212"/>
		</defs>
		<clipPath id="SVGID_12_">
			<use xlink:href="#SVGID_11_"  style="overflow:visible;"/>
		</clipPath>
		<polyline class="st15" points="295.2,142.9 310.3,148.5 325.6,155.2 340.8,163 356.1,171.9 371.3,181.6 386.6,192.1 401.8,203.2 
			417.1,214.7 432.3,226.6 447.5,238.8 462.8,251.2 		"/>
	</g>
	<path class="st9" d="M292.2,142.9h6 M295.2,139.9v6 M307.3,148.5h6 M310.3,145.5v6 M322.6,155.2h6 M325.6,152.2v6 M337.8,163h6
		 M340.8,160v6 M353.1,171.9h6 M356.1,168.9v6 M368.3,181.6h6 M371.3,178.6v6 M383.6,192.1h6 M386.6,189.1v6 M398.8,203.2h6
		 M401.8,200.2v6 M414.1,214.7h6 M417.1,211.7v6 M429.3,226.6h6 M432.3,223.6v6 M444.5,238.8h6 M447.5,235.8v6 M459.8,251.2h6
		 M462.8,248.2v6"/>
	<g>
		<defs>
			<rect id="SVGID_13_" x="295.2" y="58.2" width="184.5" height="212"/>
		</defs>
		<clipPath id="SVGID_14_">
			<use xlink:href="#SVGID_13_"  style="overflow:visible;"/>
		</clipPath>
		<polyline class="st16" points="295.2,58.2 310.3,66.1 325.6,72.9 340.8,78.7 356.1,83.4 371.3,87.2 386.6,90.3 401.8,92.8 
			417.1,94.8 432.3,96.5 447.5,97.9 462.8,99.1 		"/>
	</g>
	<path class="st11" d="M293.1,56.1l4.2,4.2 M297.2,56.1l-4.2,4.2 M308.2,64l4.2,4.2 M312.4,64l-4.2,4.2 M323.5,70.8l4.2,4.2
		 M327.7,70.8l-4.2,4.2 M338.8,76.6l4.2,4.2 M342.9,76.6l-4.2,4.2 M354,81.3l4.2,4.2 M358.2,81.3l-4.2,4.2 M369.2,85.2l4.2,4.2
		 M373.4,85.2l-4.2,4.2 M384.5,88.2l4.2,4.2 M388.7,88.2l-4.2,4.2 M399.8,90.8l4.2,4.2 M403.9,90.8l-4.2,4.2 M415,92.8l4.2,4.2
		 M419.2,92.8l-4.2,4.2 M430.2,94.4l4.2,4.2 M434.4,94.4l-4.2,4.2 M445.4,95.8l4.2,4.2 M449.6,95.8l-4.2,4.2 M460.7,97l4.2,4.2
		 M464.8,97l-4.2,4.2"/>
	<text transform="matrix(1 0 0 1 324 45.75)" class="st12 st6">α</text>
	<text transform="matrix(1 0 0 1 330.25 45.75)" class="st5 st6">,</text>
	<text transform="matrix(1 0 0 1 333 45.75)" class="st12 st6">β</text>
	<text transform="matrix(1 0 0 1 338.4219 45.75)" class="st5 st6">= 0.60,0.000 ; </text>
	<text transform="matrix(1 0 0 1 402.0859 45.75)" class="st12 st6">μ</text>
	<text transform="matrix(1 0 0 1 407.8359 50.75)" class="st5 st13">c</text>
	<text transform="matrix(1 0 0 1 411.8281 45.75)" class="st5 st6">= 0.9091</text>
	<rect x="42.6" y="348.4" class="st1" width="184.4" height="211.8"/>
	<polyline class="st2" points="42.6,560.2 42.6,348.4 227,348.4 227,560.2 42.6,560.2 	"/>
	<path class="st3" d="M42.6,560.2V348.4 M42.6,348.4L42.6,348.4 M118.8,560.2V348.4 M118.8,348.4L118.8,348.4 M194.9,560.2V348.4
		 M194.9,348.4L194.9,348.4 M42.6,560.2H227 M227,560.2L227,560.2 M42.6,517.8H227 M227,517.8L227,517.8 M42.6,475.5H227 M227,475.5
		L227,475.5 M42.6,433.1H227 M227,433.1L227,433.1 M42.6,390.8H227 M227,390.8L227,390.8 M42.6,348.4H227 M227,348.4L227,348.4"/>
	<path class="st4" d="M42.6,560.2H227 M42.6,348.4H227 M42.6,560.2V348.4 M227,560.2V348.4 M42.6,560.2H227 M42.6,560.2V348.4
		 M42.6,560.2v-2.2 M42.6,348.4v2.1"/>
	<text transform="matrix(1 0 0 1 39.836 572.3281)" class="st5 st6">0</text>
	<path class="st4" d="M118.8,560.2v-2.2 M118.8,348.4v2.1"/>
	<text transform="matrix(1 0 0 1 111.8281 572.3281)" class="st5 st6">0.</text>
	<text transform="matrix(1 0 0 1 120.1797 572.3281)" class="st5 st6">5</text>
	<path class="st4" d="M194.9,560.2v-2.2 M194.9,348.4v2.1"/>
	<text transform="matrix(1 0 0 1 192.1719 572.3281)" class="st5 st6">1</text>
	<path class="st4" d="M42.6,560.2h2.1 M227,560.2h-2.2"/>
	<text transform="matrix(1 0 0 1 20 563.9219)" class="st5 st6">−1.</text>
	<text transform="matrix(1 0 0 1 34.1797 563.9219)" class="st5 st6">5</text>
	<path class="st4" d="M42.6,517.8h2.1 M227,517.8h-2.2"/>
	<text transform="matrix(1 0 0 1 28.336 521.5)" class="st5 st6">−1</text>
	<path class="st4" d="M42.6,475.5h2.1 M227,475.5h-2.2"/>
	<text transform="matrix(1 0 0 1 20 479.1641)" class="st5 st6">−0.</text>
	<text transform="matrix(1 0 0 1 34.1797 479.1641)" class="st5 st6">5</text>
	<path class="st4" d="M42.6,433.1h2.1 M227,433.1h-2.2"/>
	<text transform="matrix(1 0 0 1 34.1641 436.75)" class="st5 st6">0</text>
	<path class="st4" d="M42.6,390.8h2.1 M227,390.8h-2.2"/>
	<text transform="matrix(1 0 0 1 25.836 394.4219)" class="st5 st6">0.</text>
	<text transform="matrix(1 0 0 1 34.1719 394.4219)" class="st5 st6">5</text>
	<path class="st4" d="M42.6,348.4h2.1 M227,348.4h-2.2"/>
	<text transform="matrix(1 0 0 1 34.1641 352.0859)" class="st5 st6">1</text>
	<path class="st4" d="M42.6,560.2H227 M42.6,348.4H227 M42.6,560.2V348.4 M227,560.2V348.4"/>
	<g>
		<defs>
			<rect id="SVGID_15_" x="42.6" y="348.4" width="184.5" height="211.9"/>
		</defs>
		<clipPath id="SVGID_16_">
			<use xlink:href="#SVGID_15_"  style="overflow:visible;"/>
		</clipPath>
		<polyline class="st17" points="42.6,348.4 57.8,356.4 73,363.8 88.3,370.3 103.5,376.3 118.8,381.8 134,386.6 149.3,391 
			164.5,395 179.8,398.7 194.9,401.9 210.2,404.9 		"/>
	</g>
	<path class="st4" d="M45.7,348.5c0,1.7-1.3,3-3,3s-3-1.3-3-3c0-1.7,1.3-3,3-3S45.7,346.9,45.7,348.5 M60.8,356.4c0,1.7-1.3,3-3,3
		s-3-1.3-3-3s1.3-3,3-3S60.8,354.8,60.8,356.4 M75.9,363.6c0,1.7-1.3,3-3,3s-3-1.3-3-3c0-1.7,1.3-3,3-3S75.9,362,75.9,363.6
		 M91.3,370.4c0,1.7-1.3,3-3,3s-3-1.3-3-3c0-1.7,1.3-3,3-3S91.3,368.7,91.3,370.4 M106.4,376.4c0,1.7-1.3,3-3,3s-3-1.3-3-3
		c0-1.7,1.3-3,3-3S106.4,374.7,106.4,376.4 M121.8,381.6c0,1.7-1.3,3-3,3s-3-1.3-3-3c0-1.7,1.3-3,3-3S121.8,380,121.8,381.6
		 M136.9,386.7c0,1.7-1.3,3-3,3c-1.7,0-3-1.3-3-3c0-1.7,1.3-3,3-3C135.5,383.7,136.9,385,136.9,386.7 M152.3,391c0,1.7-1.3,3-3,3
		s-3-1.3-3-3s1.3-3,3-3S152.3,389.3,152.3,391 M167.6,395.1c0,1.7-1.3,3-3,3c-1.7,0-3-1.3-3-3c0-1.7,1.3-3,3-3
		C166.3,392.1,167.6,393.4,167.6,395.1 M182.7,398.7c0,1.7-1.3,3-3,3s-3-1.3-3-3c0-1.7,1.3-3,3-3S182.7,397,182.7,398.7
		 M197.9,401.8c0,1.7-1.3,3-3,3c-1.7,0-3-1.3-3-3c0-1.7,1.3-3,3-3C196.5,398.8,197.9,400.1,197.9,401.8 M213.2,404.9
		c0,1.7-1.3,3-3,3c-1.7,0-3-1.3-3-3s1.3-3,3-3C211.9,401.9,213.2,403.3,213.2,404.9"/>
	<g>
		<defs>
			<rect id="SVGID_17_" x="42.6" y="348.4" width="184.5" height="211.9"/>
		</defs>
		<clipPath id="SVGID_18_">
			<use xlink:href="#SVGID_17_"  style="overflow:visible;"/>
		</clipPath>
		<polyline class="st18" points="42.6,433.1 57.8,418.6 73,413.2 88.3,409 103.5,404.8 118.8,399.6 134,393.2 149.3,394.1 
			164.5,394.8 179.8,395.5 194.9,396.1 210.2,396.6 		"/>
	</g>
	<path class="st19" d="M40.5,431l4.2,4.2 M44.7,431l-4.2,4.2 M55.7,416.5l4.2,4.2 M59.8,416.5l-4.2,4.2 M70.9,411.2l4.2,4.2
		 M75.1,411.2l-4.2,4.2 M86.2,406.9l4.2,4.2 M90.3,406.9l-4.2,4.2 M101.4,402.8l4.2,4.2 M105.6,402.8l-4.2,4.2 M116.7,397.5l4.2,4.2
		 M120.8,397.5l-4.2,4.2 M131.9,391.1l4.2,4.2 M136.1,391.1l-4.2,4.2 M147.2,392l4.2,4.2 M151.3,392l-4.2,4.2 M162.4,392.8l4.2,4.2
		 M166.6,392.8l-4.2,4.2 M177.7,393.4l4.2,4.2 M181.8,393.4l-4.2,4.2 M192.8,394l4.2,4.2 M197,394l-4.2,4.2 M208.1,394.5l4.2,4.2
		 M212.3,394.5l-4.2,4.2"/>
	<g>
		<defs>
			<rect id="SVGID_19_" x="42.6" y="348.4" width="184.5" height="211.9"/>
		</defs>
		<clipPath id="SVGID_20_">
			<use xlink:href="#SVGID_19_"  style="overflow:visible;"/>
		</clipPath>
		<polyline class="st20" points="42.6,433.1 57.8,455.8 73,470 88.3,483.7 103.5,497.4 118.8,511.4 134,525.7 149.3,540.2 
			164.5,554.8 170,560.3 		"/>
	</g>
	<path class="st9" d="M39.6,433.1h6 M42.6,430.1v6 M54.8,455.8h6 M57.8,452.8v6 M70,470h6 M73,467v6 M85.2,483.7h6 M88.2,480.7v6
		 M100.5,497.4h6 M103.5,494.4v6 M115.8,511.4h6 M118.8,508.4v6 M131,525.7h6 M134,522.7v6 M146.3,540.2h6 M149.3,537.2v6
		 M161.5,554.8h6 M164.5,551.8v6"/>
	<g>
		<defs>
			<rect id="SVGID_21_" x="42.6" y="348.4" width="184.5" height="211.9"/>
		</defs>
		<clipPath id="SVGID_22_">
			<use xlink:href="#SVGID_21_"  style="overflow:visible;"/>
		</clipPath>
		<polyline class="st21" points="42.6,348.4 57.8,356.4 73,363.8 88.3,370.6 103.5,377.2 118.8,384.8 134,393.2 149.3,394.1 
			164.5,394.8 179.8,395.5 194.9,396.1 210.2,396.6 		"/>
	</g>
	<path class="st11" d="M40.5,346.3l4.2,4.2 M44.7,346.3l-4.2,4.2 M55.7,354.3l4.2,4.2 M59.8,354.3l-4.2,4.2 M70.9,361.7l4.2,4.2
		 M75.1,361.7l-4.2,4.2 M86.2,368.5l4.2,4.2 M90.3,368.5l-4.2,4.2 M101.4,375.2l4.2,4.2 M105.6,375.2l-4.2,4.2 M116.7,382.8l4.2,4.2
		 M120.8,382.8l-4.2,4.2 M131.9,391.1l4.2,4.2 M136.1,391.1l-4.2,4.2 M147.2,392l4.2,4.2 M151.3,392l-4.2,4.2 M162.4,392.8l4.2,4.2
		 M166.6,392.8l-4.2,4.2 M177.7,393.4l4.2,4.2 M181.8,393.4l-4.2,4.2 M192.8,394l4.2,4.2 M197,394l-4.2,4.2 M208.1,394.5l4.2,4.2
		 M212.3,394.5l-4.2,4.2"/>
	<text transform="matrix(1 0 0 1 71.4141 336)" class="st12 st6">α</text>
	<text transform="matrix(1 0 0 1 77.6641 336)" class="st5 st6">,</text>
	<text transform="matrix(1 0 0 1 80.4141 336)" class="st12 st6">β</text>
	<text transform="matrix(1 0 0 1 85.836 336)" class="st5 st6">= 0.50,0.417 ; </text>
	<text transform="matrix(1 0 0 1 149.5 336)" class="st12 st6">μ</text>
	<text transform="matrix(1 0 0 1 155.25 341)" class="st5 st13">c</text>
	<text transform="matrix(1 0 0 1 159.25 336)" class="st5 st6">= 0.5455</text>
	<rect x="295.2" y="348.4" class="st1" width="184.4" height="211.8"/>
	<polyline class="st2" points="295.2,560.2 295.2,348.4 479.6,348.4 479.6,560.2 295.2,560.2 	"/>
	<path class="st3" d="M295.2,560.2V348.4 M295.2,348.4L295.2,348.4 M371.3,560.2V348.4 M371.3,348.4L371.3,348.4 M447.5,560.2V348.4
		 M447.5,348.4L447.5,348.4 M295.2,560.2h184.4 M479.6,560.2L479.6,560.2 M295.2,517.8h184.4 M479.6,517.8L479.6,517.8 M295.2,475.5
		h184.4 M479.6,475.5L479.6,475.5 M295.2,433.1h184.4 M479.6,433.1L479.6,433.1 M295.2,390.8h184.4 M479.6,390.8L479.6,390.8
		 M295.2,348.4h184.4 M479.6,348.4L479.6,348.4"/>
	<path class="st4" d="M295.2,560.2h184.4 M295.2,348.4h184.4 M295.2,560.2V348.4 M479.6,560.2V348.4 M295.2,560.2h184.4
		 M295.2,560.2V348.4 M295.2,560.2v-2.2 M295.2,348.4v2.1"/>
	<text transform="matrix(1 0 0 1 292.4219 572.3281)" class="st5 st6">0</text>
	<path class="st4" d="M371.3,560.2v-2.2 M371.3,348.4v2.1"/>
	<text transform="matrix(1 0 0 1 364.4219 572.3281)" class="st5 st6">0.</text>
	<text transform="matrix(1 0 0 1 372.7578 572.3281)" class="st5 st6">5</text>
	<path class="st4" d="M447.5,560.2v-2.2 M447.5,348.4v2.1"/>
	<text transform="matrix(1 0 0 1 444.75 572.3281)" class="st5 st6">1</text>
	<path class="st4" d="M295.2,560.2h2.1 M479.6,560.2h-2.2"/>
	<text transform="matrix(1 0 0 1 272.5859 563.9219)" class="st5 st6">−1.</text>
	<text transform="matrix(1 0 0 1 286.7656 563.9219)" class="st5 st6">5</text>
	<path class="st4" d="M295.2,517.8h2.1 M479.6,517.8h-2.2"/>
	<text transform="matrix(1 0 0 1 280.9219 521.5)" class="st5 st6">−1</text>
	<path class="st4" d="M295.2,475.5h2.1 M479.6,475.5h-2.2"/>
	<text transform="matrix(1 0 0 1 272.5859 479.1641)" class="st5 st6">−0.</text>
	<text transform="matrix(1 0 0 1 286.7656 479.1641)" class="st5 st6">5</text>
	<path class="st4" d="M295.2,433.1h2.1 M479.6,433.1h-2.2"/>
	<text transform="matrix(1 0 0 1 286.75 436.75)" class="st5 st6">0</text>
	<path class="st4" d="M295.2,390.8h2.1 M479.6,390.8h-2.2"/>
	<text transform="matrix(1 0 0 1 278.4219 394.4219)" class="st5 st6">0.</text>
	<text transform="matrix(1 0 0 1 286.7578 394.4219)" class="st5 st6">5</text>
	<path class="st4" d="M295.2,348.4h2.1 M479.6,348.4h-2.2"/>
	<text transform="matrix(1 0 0 1 286.75 352.0859)" class="st5 st6">1</text>
	<path class="st4" d="M295.2,560.2h184.4 M295.2,348.4h184.4 M295.2,560.2V348.4 M479.6,560.2V348.4"/>
	<g>
		<defs>
			<rect id="SVGID_23_" x="295.2" y="348.4" width="184.5" height="211.9"/>
		</defs>
		<clipPath id="SVGID_24_">
			<use xlink:href="#SVGID_23_"  style="overflow:visible;"/>
		</clipPath>
		<polyline class="st22" points="295.2,348.4 310.3,356.4 325.6,363.8 340.8,370.3 356.1,376.3 371.3,381.8 386.6,386.6 401.8,391 
			417.1,395 432.3,398.7 447.5,401.9 462.8,404.9 		"/>
	</g>
	<path class="st4" d="M298.2,348.5c0,1.7-1.3,3-3,3c-1.7,0-3-1.3-3-3c0-1.7,1.3-3,3-3C296.8,345.5,298.2,346.9,298.2,348.5
		 M313.3,356.4c0,1.7-1.3,3-3,3c-1.7,0-3-1.3-3-3s1.3-3,3-3C311.9,353.4,313.3,354.8,313.3,356.4 M328.7,363.6c0,1.7-1.3,3-3,3
		s-3-1.3-3-3c0-1.7,1.3-3,3-3S328.7,362,328.7,363.6 M343.8,370.4c0,1.7-1.3,3-3,3s-3-1.3-3-3c0-1.7,1.3-3,3-3
		S343.8,368.7,343.8,370.4 M359.1,376.4c0,1.7-1.3,3-3,3s-3-1.3-3-3c0-1.7,1.3-3,3-3S359.1,374.7,359.1,376.4 M374.2,381.6
		c0,1.7-1.3,3-3,3s-3-1.3-3-3c0-1.7,1.3-3,3-3S374.2,380,374.2,381.6 M389.6,386.7c0,1.7-1.3,3-3,3s-3-1.3-3-3c0-1.7,1.3-3,3-3
		S389.6,385,389.6,386.7 M404.7,391c0,1.7-1.3,3-3,3s-3-1.3-3-3s1.3-3,3-3S404.7,389.3,404.7,391 M420.1,395.1c0,1.7-1.3,3-3,3
		s-3-1.3-3-3c0-1.7,1.3-3,3-3S420.1,393.4,420.1,395.1 M435.5,398.7c0,1.7-1.3,3-3,3s-3-1.3-3-3c0-1.7,1.3-3,3-3
		S435.5,397,435.5,398.7 M450.6,401.8c0,1.7-1.3,3-3,3s-3-1.3-3-3c0-1.7,1.3-3,3-3S450.6,400.1,450.6,401.8 M465.7,404.9
		c0,1.7-1.3,3-3,3s-3-1.3-3-3s1.3-3,3-3S465.7,403.3,465.7,404.9"/>
	<g>
		<defs>
			<rect id="SVGID_25_" x="295.2" y="348.4" width="184.5" height="211.9"/>
		</defs>
		<clipPath id="SVGID_26_">
			<use xlink:href="#SVGID_25_"  style="overflow:visible;"/>
		</clipPath>
		<polyline class="st23" points="295.2,433.1 310.3,421.2 325.6,417.2 340.8,413.9 356.1,411.1 371.3,408.1 386.6,404.6 
			401.8,397.2 417.1,398.2 432.3,399 447.5,399.7 462.8,400.2 		"/>
	</g>
	<path class="st19" d="M293.1,431l4.2,4.2 M297.2,431l-4.2,4.2 M308.2,419.2l4.2,4.2 M312.4,419.2l-4.2,4.2 M323.5,415.1l4.2,4.2
		 M327.7,415.1l-4.2,4.2 M338.8,411.8l4.2,4.2 M342.9,411.8l-4.2,4.2 M354,409l4.2,4.2 M358.2,409l-4.2,4.2 M369.2,406l4.2,4.2
		 M373.4,406l-4.2,4.2 M384.5,402.5l4.2,4.2 M388.7,402.5l-4.2,4.2 M399.8,395.2l4.2,4.2 M403.9,395.2l-4.2,4.2 M415,396.1l4.2,4.2
		 M419.2,396.1l-4.2,4.2 M430.2,396.9l4.2,4.2 M434.4,396.9l-4.2,4.2 M445.4,397.6l4.2,4.2 M449.6,397.6l-4.2,4.2 M460.7,398.2
		l4.2,4.2 M464.8,398.2l-4.2,4.2"/>
	<g>
		<defs>
			<rect id="SVGID_27_" x="295.2" y="348.4" width="184.5" height="211.9"/>
		</defs>
		<clipPath id="SVGID_28_">
			<use xlink:href="#SVGID_27_"  style="overflow:visible;"/>
		</clipPath>
		<polyline class="st24" points="295.2,433.1 310.3,452 325.6,463.9 340.8,475.7 356.1,487.7 371.3,500 386.6,512.7 401.8,525.7 
			417.1,539 432.3,552.5 440.9,560.3 		"/>
	</g>
	<path class="st9" d="M292.2,433.1h6 M295.2,430.1v6 M307.3,452h6 M310.3,449v6 M322.6,463.9h6 M325.6,460.9v6 M337.8,475.7h6
		 M340.8,472.7v6 M353.1,487.7h6 M356.1,484.7v6 M368.3,500h6 M371.3,497v6 M383.6,512.7h6 M386.6,509.7v6 M398.8,525.7h6
		 M401.8,522.7v6 M414.1,539h6 M417.1,536v6 M429.3,552.5h6 M432.3,549.5v6"/>
	<g>
		<defs>
			<rect id="SVGID_29_" x="295.2" y="348.4" width="184.5" height="211.9"/>
		</defs>
		<clipPath id="SVGID_30_">
			<use xlink:href="#SVGID_29_"  style="overflow:visible;"/>
		</clipPath>
		<polyline class="st25" points="295.2,348.4 310.3,356.4 325.6,363.7 340.8,370.2 356.1,376.2 371.3,382 386.6,387.9 401.8,397.2 
			417.1,398.2 432.3,399 447.5,399.7 462.8,400.2 		"/>
	</g>
	<path class="st11" d="M293.1,346.3l4.2,4.2 M297.2,346.3l-4.2,4.2 M308.2,354.3l4.2,4.2 M312.4,354.3l-4.2,4.2 M323.5,361.6
		l4.2,4.2 M327.7,361.6l-4.2,4.2 M338.8,368.2l4.2,4.2 M342.9,368.2l-4.2,4.2 M354,374.2l4.2,4.2 M358.2,374.2l-4.2,4.2
		 M369.2,379.9l4.2,4.2 M373.4,379.9l-4.2,4.2 M384.5,385.8l4.2,4.2 M388.7,385.8l-4.2,4.2 M399.8,395.2l4.2,4.2 M403.9,395.2
		l-4.2,4.2 M415,396.1l4.2,4.2 M419.2,396.1l-4.2,4.2 M430.2,396.9l4.2,4.2 M434.4,396.9l-4.2,4.2 M445.4,397.6l4.2,4.2
		 M449.6,397.6l-4.2,4.2 M460.7,398.2l4.2,4.2 M464.8,398.2l-4.2,4.2"/>
	<text transform="matrix(1 0 0 1 324 336)" class="st12 st6">α</text>
	<text transform="matrix(1 0 0 1 330.25 336)" class="st5 st6">,</text>
	<text transform="matrix(1 0 0 1 333 336)" class="st12 st6">β</text>
	<text transform="matrix(1 0 0 1 338.4219 336)" class="st5 st6">= 0.50,0.281 ; </text>
	<text transform="matrix(1 0 0 1 402.0859 336)" class="st12 st6">μ</text>
	<text transform="matrix(1 0 0 1 407.8359 341)" class="st5 st13">c</text>
	<text transform="matrix(1 0 0 1 411.8281 336)" class="st5 st6">= 0.6401</text>
	<text transform="matrix(1 0 0 1 98.25 28.1719)" class="st5 st26">Damping response of AB−3 :</text>
	<text transform="matrix(1 0 0 1 239.1953 28.1719)" class="st5 st26"> </text>
	<text transform="matrix(1 0 0 1 241.6641 28.1719)" class="st12 st26">λ</text>
	<text transform="matrix(1 0 0 1 247.6641 28.1719)" class="st5 st26"> = 1.0 ; </text>
	<text transform="matrix(1 0 0 1 284.0859 28.1719)" class="st12 st26">λ</text>
	<text transform="matrix(1 0 0 1 290.0859 28.1719)" class="st5 st26">*dt= 0.0 −&gt; 1.1 every 0.1</text>
</g>
</svg>
