<svg id="Layer_1" data-name="Layer 1" xmlns="http://www.w3.org/2000/svg" xmlns:xlink="http://www.w3.org/1999/xlink" viewBox="0 0 400.77 427"><defs><style>.cls-1,.cls-3,.cls-5,.cls-7{fill:none;}.cls-1{clip-rule:evenodd;}.cls-2{fill:#fff;}.cls-3,.cls-5,.cls-7{stroke:#000;stroke-miterlimit:10;}.cls-3,.cls-7{stroke-width:0.45px;}.cls-4{clip-path:url(#clip-path);}.cls-5{stroke-width:0.9px;}.cls-6{clip-path:url(#clip-path-2);}.cls-7{stroke-dasharray:3.6;}.cls-8{clip-path:url(#clip-path-3);}.cls-9{clip-path:url(#clip-path-4);}</style><clipPath id="clip-path" transform="translate(-106.23 -182)"><path class="cls-1" d="M307,183V609H507V183ZM435.9,288.9h7.2v-9.18l-3.6,7.2-3.6-7.2Zm7.2-91.8h-7.2v9.18l3.6-7.2,3.6,7.2Z"/></clipPath><clipPath id="clip-path-2" transform="translate(-106.23 -182)"><path class="cls-1" d="M307,183V609H507V183ZM467.4,342.9h7.2v-9.18l-3.6,7.2-3.6-7.2Zm7.2-109.8h-7.2v9.18l3.6-7.2,3.6,7.2Z"/></clipPath><clipPath id="clip-path-3" transform="translate(-106.23 -182)"><path class="cls-1" d="M109,182V608H314V182Zm133.9,87.9h7.2v-9.18l-3.6,7.2-3.6-7.2Zm7.2-73.8h-7.2v9.18l3.6-7.2,3.6,7.2Z"/></clipPath><clipPath id="clip-path-4" transform="translate(-106.23 -182)"><path class="cls-1" d="M109,182V608H314V182ZM274.4,341.9h7.2v-9.18l-3.6,7.2-3.6-7.2Zm7.2-109.8h-7.2v9.18l3.6-7.2,3.6,7.2Z"/></clipPath></defs><title>vgrid-accur-center</title><rect class="cls-2" x="200.77" y="1" width="200" height="426"/><path class="cls-3" d="M376.54,504a4.5,4.5,0,1,1-4.5-4.5,4.5,4.5,0,0,1,4.5,4.5Zm0-162a4.5,4.5,0,1,1-4.5-4.5,4.5,4.5,0,0,1,4.5,4.5Zm0-108a4.5,4.5,0,1,1-4.5-4.5,4.5,4.5,0,0,1,4.5,4.5ZM318,198H426" transform="translate(-106.23 -182)"/><g class="cls-4"><line class="cls-3" x1="333.27" y1="16" x2="333.27" y2="106"/></g><path class="cls-5" d="M443.1,206.28l-3.6-7.2-3.6,7.2m0,73.44,3.6,7.2,3.6-7.2" transform="translate(-106.23 -182)"/><g class="cls-6"><line class="cls-3" x1="364.77" y1="52" x2="364.77" y2="160"/></g><path class="cls-5" d="M474.6,242.28l-3.6-7.2-3.6,7.2m0,91.44,3.6,7.2,3.6-7.2" transform="translate(-106.23 -182)"/><line class="cls-3" x1="211.77" y1="412" x2="319.77" y2="412"/><path class="cls-7" d="M336,504h72M336,342h72M336,234h72" transform="translate(-106.23 -182)"/><path class="cls-3" d="M318,423H426M318,288H426" transform="translate(-106.23 -182)"/><path d="M375.87,194.58a2.8,2.8,0,0,0-.78.18.46.46,0,0,0-.26.46,1.37,1.37,0,0,0,.06.39c0,.13.09.29.15.47l1.6,4.16,1.56-3.8a6.68,6.68,0,0,0,.23-.65,2.27,2.27,0,0,0,.12-.6.46.46,0,0,0-.2-.44,1.69,1.69,0,0,0-.59-.17v-.25H380v.25a.61.61,0,0,0-.36.21,3.58,3.58,0,0,0-.4.79l-2.81,6.93-.06.11a.09.09,0,0,1-.08,0,.3.3,0,0,1-.12-.1L374,197.26l-2.15,5.3a.23.23,0,0,1,0,.07.1.1,0,0,1-.08,0,.29.29,0,0,1-.12-.09L369,196.1a8.67,8.67,0,0,0-.57-1.27.81.81,0,0,0-.55-.25v-.25h3.26v.25a1.72,1.72,0,0,0-.62.15.48.48,0,0,0-.22.47,5.47,5.47,0,0,0,.36,1.26q.21.56.54,1.37l1,2.46,1.55-3.33,0-.1a2.28,2.28,0,0,0-.19-.66q-.19-.48-.36-.86a1.3,1.3,0,0,0-.4-.56,1.28,1.28,0,0,0-.63-.19v-.25h3.67Z" transform="translate(-106.23 -182)"/><path d="M375.87,590.58a2.79,2.79,0,0,0-.78.18.46.46,0,0,0-.26.46,1.38,1.38,0,0,0,.06.39c0,.13.09.29.15.47l1.6,4.16,1.56-3.8a6.61,6.61,0,0,0,.23-.65,2.26,2.26,0,0,0,.12-.6.46.46,0,0,0-.2-.44,1.69,1.69,0,0,0-.59-.17v-.25H380v.25a.61.61,0,0,0-.36.21,3.58,3.58,0,0,0-.4.79l-2.81,6.93-.06.11a.09.09,0,0,1-.08,0,.3.3,0,0,1-.12-.09L374,593.26l-2.15,5.3a.25.25,0,0,1,0,.08.11.11,0,0,1-.08,0,.29.29,0,0,1-.12-.09L369,592.1a8.74,8.74,0,0,0-.57-1.27.81.81,0,0,0-.55-.25v-.25h3.26v.25a1.72,1.72,0,0,0-.62.15.48.48,0,0,0-.22.47,5.46,5.46,0,0,0,.36,1.26q.21.56.54,1.37l1,2.46,1.55-3.33,0-.1a2.29,2.29,0,0,0-.19-.66q-.19-.48-.36-.86a1.3,1.3,0,0,0-.4-.56,1.29,1.29,0,0,0-.63-.19v-.25h3.67Z" transform="translate(-106.23 -182)"/><path d="M375.87,419.58a2.79,2.79,0,0,0-.78.18.46.46,0,0,0-.26.46,1.38,1.38,0,0,0,.06.39c0,.13.09.29.15.47l1.6,4.16,1.56-3.8a6.61,6.61,0,0,0,.23-.65,2.26,2.26,0,0,0,.12-.6.46.46,0,0,0-.2-.44,1.69,1.69,0,0,0-.59-.17v-.25H380v.25a.61.61,0,0,0-.36.21,3.58,3.58,0,0,0-.4.79l-2.81,6.93-.06.11a.09.09,0,0,1-.08,0,.3.3,0,0,1-.12-.09L374,422.26l-2.15,5.3a.25.25,0,0,1,0,.08.11.11,0,0,1-.08,0,.29.29,0,0,1-.12-.09L369,421.1a8.74,8.74,0,0,0-.57-1.27.81.81,0,0,0-.55-.25v-.25h3.26v.25a1.72,1.72,0,0,0-.62.15.48.48,0,0,0-.22.47,5.46,5.46,0,0,0,.36,1.26q.21.56.54,1.37l1,2.46,1.55-3.33,0-.1a2.29,2.29,0,0,0-.19-.66q-.19-.48-.36-.86a1.3,1.3,0,0,0-.4-.56,1.29,1.29,0,0,0-.63-.19v-.25h3.67Z" transform="translate(-106.23 -182)"/><path d="M375.87,284.58a2.8,2.8,0,0,0-.78.18.46.46,0,0,0-.26.46,1.37,1.37,0,0,0,.06.39c0,.13.09.29.15.47l1.6,4.16,1.56-3.8a6.68,6.68,0,0,0,.23-.65,2.27,2.27,0,0,0,.12-.6.46.46,0,0,0-.2-.44,1.69,1.69,0,0,0-.59-.17v-.25H380v.25a.61.61,0,0,0-.36.21,3.58,3.58,0,0,0-.4.79l-2.81,6.93-.06.11a.09.09,0,0,1-.08,0,.3.3,0,0,1-.12-.1L374,287.26l-2.15,5.3a.23.23,0,0,1,0,.07.1.1,0,0,1-.08,0,.29.29,0,0,1-.12-.09L369,286.1a8.67,8.67,0,0,0-.57-1.27.81.81,0,0,0-.55-.25v-.25h3.26v.25a1.72,1.72,0,0,0-.62.15.48.48,0,0,0-.22.47,5.47,5.47,0,0,0,.36,1.26q.21.56.54,1.37l1,2.46,1.55-3.33,0-.1a2.28,2.28,0,0,0-.19-.66q-.19-.48-.36-.86a1.3,1.3,0,0,0-.4-.56,1.28,1.28,0,0,0-.63-.19v-.25h3.67Z" transform="translate(-106.23 -182)"/><rect class="cls-2" x="2.77" width="205" height="426"/><path d="M260.09,236.5H249.75l5-12.09h.4Zm-9.06-.81h6.71l-3.35-8.26Z" transform="translate(-106.23 -182)"/><path d="M260.47,236.21a2.13,2.13,0,0,0,1.07-.29,1.18,1.18,0,0,0,.26-.92v-4a3.39,3.39,0,0,0-.16-1.24.59.59,0,0,0-.59-.37l-.23,0-.3.06v-.29l1-.36.73-.26q.44-.17.9-.38s.07,0,.07,0a.74.74,0,0,1,0,.18v1.44a6.72,6.72,0,0,1,1.09-1.22,1.68,1.68,0,0,1,1.09-.44,1,1,0,0,1,.73.27,1,1,0,0,1,.07,1.28.69.69,0,0,1-.54.25,1,1,0,0,1-.67-.31,1,1,0,0,0-.53-.31q-.31,0-.76.5a1.52,1.52,0,0,0-.45,1v4a1.31,1.31,0,0,0,.35,1.05,1.77,1.77,0,0,0,1.17.28v.29h-4.33Z" transform="translate(-106.23 -182)"/><path d="M266.59,242.35a1.1,1.1,0,0,0,.71-.2,1.13,1.13,0,0,0,.17-.75v-3.29h-.88v-.34h.88a3.73,3.73,0,0,1,.22-1.37,1.54,1.54,0,0,1,1.54-1.07,1.78,1.78,0,0,1,.81.18.54.54,0,0,1,.36.48.44.44,0,0,1-.12.3.39.39,0,0,1-.3.13.38.38,0,0,1-.25-.09,1.49,1.49,0,0,1-.25-.31l-.09-.13a.75.75,0,0,0-.17-.18.44.44,0,0,0-.27-.07.52.52,0,0,0-.53.38,1.57,1.57,0,0,0-.08.54v1.21h1.28v.34h-1.28v3.29a1.15,1.15,0,0,0,.16.74,1.43,1.43,0,0,0,.82.21v.14h-2.74Z" transform="translate(-106.23 -182)"/><path class="cls-3" d="M183.46,341a4.5,4.5,0,1,1-4.5-4.5,4.5,4.5,0,0,1,4.5,4.5Zm0-108a4.5,4.5,0,1,1-4.5-4.5,4.5,4.5,0,0,1,4.5,4.5Zm0,270a4.5,4.5,0,1,1-4.5-4.5,4.5,4.5,0,0,1,4.5,4.5ZM125,197H233" transform="translate(-106.23 -182)"/><g class="cls-8"><line class="cls-3" x1="140.27" y1="15" x2="140.27" y2="87"/></g><path class="cls-5" d="M250.1,205.28l-3.6-7.2-3.6,7.2m0,55.44,3.6,7.2,3.6-7.2" transform="translate(-106.23 -182)"/><g class="cls-9"><line class="cls-3" x1="171.77" y1="51" x2="171.77" y2="159"/></g><path class="cls-5" d="M281.6,241.28l-3.6-7.2-3.6,7.2m0,91.44,3.6,7.2,3.6-7.2" transform="translate(-106.23 -182)"/><line class="cls-3" x1="18.77" y1="87" x2="126.77" y2="87"/><line class="cls-7" x1="36.77" y1="159" x2="108.77" y2="159"/><line class="cls-3" x1="18.77" y1="231" x2="126.77" y2="231"/><path class="cls-7" d="M143,233h72M143,503h72" transform="translate(-106.23 -182)"/><line class="cls-3" x1="14.27" y1="411" x2="122.27" y2="411"/><path d="M182.87,193.58a2.8,2.8,0,0,0-.78.18.46.46,0,0,0-.26.46,1.39,1.39,0,0,0,.06.39q.06.2.15.47l1.6,4.16,1.56-3.8a6.68,6.68,0,0,0,.23-.65,2.27,2.27,0,0,0,.12-.6.46.46,0,0,0-.2-.44,1.69,1.69,0,0,0-.59-.17v-.25H187v.25a.61.61,0,0,0-.36.21,3.58,3.58,0,0,0-.4.79l-2.81,6.93-.06.11a.09.09,0,0,1-.08,0,.3.3,0,0,1-.12-.1L181,196.26l-2.15,5.3a.22.22,0,0,1,0,.07.1.1,0,0,1-.07,0,.29.29,0,0,1-.12-.09L176,195.1a8.67,8.67,0,0,0-.57-1.27.81.81,0,0,0-.55-.25v-.25h3.26v.25a1.72,1.72,0,0,0-.62.15.48.48,0,0,0-.22.47,5.5,5.5,0,0,0,.36,1.26q.21.56.54,1.37l1,2.46,1.55-3.33,0-.1a2.28,2.28,0,0,0-.19-.66q-.19-.48-.36-.86a1.31,1.31,0,0,0-.4-.56,1.29,1.29,0,0,0-.63-.19v-.25h3.67Z" transform="translate(-106.23 -182)"/><path d="M182.87,409.58a2.79,2.79,0,0,0-.78.18.46.46,0,0,0-.26.46,1.39,1.39,0,0,0,.06.39q.06.2.15.47l1.6,4.16,1.56-3.8a6.61,6.61,0,0,0,.23-.65,2.26,2.26,0,0,0,.12-.6.46.46,0,0,0-.2-.44,1.69,1.69,0,0,0-.59-.17v-.25H187v.25a.61.61,0,0,0-.36.21,3.58,3.58,0,0,0-.4.79l-2.81,6.93-.06.11a.09.09,0,0,1-.08,0,.3.3,0,0,1-.12-.09L181,412.26l-2.15,5.3a.23.23,0,0,1,0,.08.11.11,0,0,1-.07,0,.29.29,0,0,1-.12-.09L176,411.1a8.74,8.74,0,0,0-.57-1.27.81.81,0,0,0-.55-.25v-.25h3.26v.25a1.72,1.72,0,0,0-.62.15.48.48,0,0,0-.22.47,5.49,5.49,0,0,0,.36,1.26q.21.56.54,1.37l1,2.46,1.55-3.33,0-.1a2.29,2.29,0,0,0-.19-.66q-.19-.48-.36-.86a1.31,1.31,0,0,0-.4-.56,1.3,1.3,0,0,0-.63-.19v-.25h3.67Z" transform="translate(-106.23 -182)"/><path d="M182.87,265.58a2.8,2.8,0,0,0-.78.18.46.46,0,0,0-.26.46,1.39,1.39,0,0,0,.06.39q.06.2.15.47l1.6,4.16,1.56-3.8a6.68,6.68,0,0,0,.23-.65,2.27,2.27,0,0,0,.12-.6.46.46,0,0,0-.2-.44,1.69,1.69,0,0,0-.59-.17v-.25H187v.25a.61.61,0,0,0-.36.21,3.58,3.58,0,0,0-.4.79l-2.81,6.93-.06.11a.09.09,0,0,1-.08,0,.3.3,0,0,1-.12-.1L181,268.26l-2.15,5.3a.22.22,0,0,1,0,.07.1.1,0,0,1-.07,0,.29.29,0,0,1-.12-.09L176,267.1a8.67,8.67,0,0,0-.57-1.27.81.81,0,0,0-.55-.25v-.25h3.26v.25a1.72,1.72,0,0,0-.62.15.48.48,0,0,0-.22.47,5.5,5.5,0,0,0,.36,1.26q.21.56.54,1.37l1,2.46,1.55-3.33,0-.1a2.28,2.28,0,0,0-.19-.66q-.19-.48-.36-.86a1.31,1.31,0,0,0-.4-.56,1.29,1.29,0,0,0-.63-.19v-.25h3.67Z" transform="translate(-106.23 -182)"/><path d="M182.87,589.58a2.79,2.79,0,0,0-.78.18.46.46,0,0,0-.26.46,1.39,1.39,0,0,0,.06.39q.06.2.15.47l1.6,4.16,1.56-3.8a6.61,6.61,0,0,0,.23-.65,2.26,2.26,0,0,0,.12-.6.46.46,0,0,0-.2-.44,1.69,1.69,0,0,0-.59-.17v-.25H187v.25a.61.61,0,0,0-.36.21,3.58,3.58,0,0,0-.4.79l-2.81,6.93-.06.11a.09.09,0,0,1-.08,0,.3.3,0,0,1-.12-.09L181,592.26l-2.15,5.3a.23.23,0,0,1,0,.08.11.11,0,0,1-.07,0,.29.29,0,0,1-.12-.09L176,591.1a8.74,8.74,0,0,0-.57-1.27.81.81,0,0,0-.55-.25v-.25h3.26v.25a1.72,1.72,0,0,0-.62.15.48.48,0,0,0-.22.47,5.49,5.49,0,0,0,.36,1.26q.21.56.54,1.37l1,2.46,1.55-3.33,0-.1a2.29,2.29,0,0,0-.19-.66q-.19-.48-.36-.86a1.31,1.31,0,0,0-.4-.56,1.3,1.3,0,0,0-.63-.19v-.25h3.67Z" transform="translate(-106.23 -182)"/><path d="M454.09,240.17H443.75l5-12.09h.4Zm-9.06-.81h6.71l-3.35-8.26Z" transform="translate(-106.23 -182)"/><path d="M454.47,239.88a2.13,2.13,0,0,0,1.07-.29,1.18,1.18,0,0,0,.26-.92v-4a3.39,3.39,0,0,0-.16-1.24.59.59,0,0,0-.59-.37l-.23,0-.3.06v-.29l1-.36.73-.26q.44-.17.9-.38s.07,0,.07,0a.74.74,0,0,1,0,.18v1.44a6.72,6.72,0,0,1,1.09-1.22,1.68,1.68,0,0,1,1.09-.44,1,1,0,0,1,.73.27,1,1,0,0,1,.07,1.28.69.69,0,0,1-.54.25,1,1,0,0,1-.67-.31,1,1,0,0,0-.53-.31q-.31,0-.76.5a1.52,1.52,0,0,0-.45,1v4a1.31,1.31,0,0,0,.35,1.05,1.77,1.77,0,0,0,1.17.28v.29h-4.33Z" transform="translate(-106.23 -182)"/><path d="M460.59,246a1.1,1.1,0,0,0,.71-.2,1.13,1.13,0,0,0,.17-.75v-3.29h-.88v-.34h.88a3.73,3.73,0,0,1,.22-1.37,1.54,1.54,0,0,1,1.54-1.07,1.78,1.78,0,0,1,.81.18.54.54,0,0,1,.36.48.44.44,0,0,1-.12.3.39.39,0,0,1-.3.13.38.38,0,0,1-.25-.09,1.49,1.49,0,0,1-.25-.31l-.09-.13a.75.75,0,0,0-.17-.18.44.44,0,0,0-.27-.07.52.52,0,0,0-.53.38,1.57,1.57,0,0,0-.08.54v1.21h1.28v.34h-1.28v3.29a1.15,1.15,0,0,0,.16.74,1.43,1.43,0,0,0,.82.21v.14h-2.74Z" transform="translate(-106.23 -182)"/><path d="M292.76,294.83H282.42l5-12.09h.4Zm-9.06-.81h6.71l-3.35-8.26Z" transform="translate(-106.23 -182)"/><path d="M293.13,294.54a2.13,2.13,0,0,0,1.07-.29,1.18,1.18,0,0,0,.26-.92v-4a3.39,3.39,0,0,0-.16-1.24.59.59,0,0,0-.59-.37l-.23,0-.3.06v-.29l1-.36.73-.26q.44-.17.9-.38s.07,0,.07,0a.74.74,0,0,1,0,.18v1.44A6.72,6.72,0,0,1,297,287a1.68,1.68,0,0,1,1.09-.44,1,1,0,0,1,.73.27,1,1,0,0,1,.07,1.28.69.69,0,0,1-.54.25,1,1,0,0,1-.67-.31,1,1,0,0,0-.53-.31q-.31,0-.76.5a1.52,1.52,0,0,0-.45,1v4a1.31,1.31,0,0,0,.35,1.05,1.77,1.77,0,0,0,1.17.28v.29h-4.33Z" transform="translate(-106.23 -182)"/><path d="M302.76,296.33a.91.91,0,0,1,.46.72.49.49,0,0,1-.12.31.44.44,0,0,1-.36.15.46.46,0,0,1-.32-.12.72.72,0,0,1-.2-.36l-.06-.25a.62.62,0,0,0-.23-.38.82.82,0,0,0-.45-.11,1.21,1.21,0,0,0-1,.51,2.13,2.13,0,0,0-.4,1.36,2.32,2.32,0,0,0,.44,1.39,1.4,1.4,0,0,0,1.2.62,1.43,1.43,0,0,0,.95-.35,3.28,3.28,0,0,0,.53-.64l.14.09a4.08,4.08,0,0,1-.61,1,1.88,1.88,0,0,1-1.44.69,1.92,1.92,0,0,1-1.41-.63,2.34,2.34,0,0,1-.61-1.71,2.67,2.67,0,0,1,.67-1.82,2.16,2.16,0,0,1,1.7-.76A1.85,1.85,0,0,1,302.76,296.33Z" transform="translate(-106.23 -182)"/><path d="M486.09,294.17H475.75l5-12.09h.4Zm-9.06-.81h6.71l-3.35-8.26Z" transform="translate(-106.23 -182)"/><path d="M486.47,293.88a2.13,2.13,0,0,0,1.07-.29,1.18,1.18,0,0,0,.26-.92v-4a3.39,3.39,0,0,0-.16-1.24.59.59,0,0,0-.59-.37l-.23,0-.3.06v-.29l1-.36.73-.26q.44-.17.9-.38s.07,0,.07,0a.74.74,0,0,1,0,.18v1.44a6.72,6.72,0,0,1,1.09-1.22,1.68,1.68,0,0,1,1.09-.44,1,1,0,0,1,.73.27,1,1,0,0,1,.07,1.28.69.69,0,0,1-.54.25,1,1,0,0,1-.67-.31,1,1,0,0,0-.53-.31q-.31,0-.76.5a1.52,1.52,0,0,0-.45,1v4a1.31,1.31,0,0,0,.35,1.05,1.77,1.77,0,0,0,1.17.28v.29h-4.33Z" transform="translate(-106.23 -182)"/><path d="M496.09,295.66a.91.91,0,0,1,.46.72.49.49,0,0,1-.12.31.44.44,0,0,1-.36.15.46.46,0,0,1-.32-.12.72.72,0,0,1-.2-.36l-.06-.25a.62.62,0,0,0-.23-.38.82.82,0,0,0-.45-.11,1.21,1.21,0,0,0-1,.51,2.13,2.13,0,0,0-.4,1.36,2.32,2.32,0,0,0,.44,1.39,1.4,1.4,0,0,0,1.2.62,1.43,1.43,0,0,0,.95-.35,3.28,3.28,0,0,0,.53-.64l.14.09a4.08,4.08,0,0,1-.61,1,1.88,1.88,0,0,1-1.44.69,1.92,1.92,0,0,1-1.41-.63,2.34,2.34,0,0,1-.61-1.71,2.67,2.67,0,0,1,.67-1.82,2.16,2.16,0,0,1,1.7-.76A1.85,1.85,0,0,1,496.09,295.66Z" transform="translate(-106.23 -182)"/><path d="M110.49,195.9a.67.67,0,0,0,.57-.35,1.09,1.09,0,0,0,.08-.47,1,1,0,0,0-.45-.92,2.39,2.39,0,0,0-1.28-.28,1.62,1.62,0,0,0-1.36.52,1.73,1.73,0,0,0-.29.86h-1.15a2.12,2.12,0,0,1,.88-1.89,3.59,3.59,0,0,1,2-.53,4,4,0,0,1,2.09.49,1.67,1.67,0,0,1,.8,1.53v4.22a.54.54,0,0,0,.08.31.38.38,0,0,0,.33.12h.18l.22,0v.91l-.44.1-.41,0a1,1,0,0,1-.92-.45,1.75,1.75,0,0,1-.21-.68,3.14,3.14,0,0,1-1.08.85,3.34,3.34,0,0,1-1.55.36,2.31,2.31,0,0,1-1.66-.62,2,2,0,0,1-.65-1.55,2,2,0,0,1,.64-1.58,3,3,0,0,1,1.67-.69Zm-2.59,3.32a1.45,1.45,0,0,0,.92.31,2.81,2.81,0,0,0,1.26-.3,1.69,1.69,0,0,0,1-1.63v-1a2.09,2.09,0,0,1-.58.24,4.9,4.9,0,0,1-.7.14l-.74.1a2.87,2.87,0,0,0-1,.28,1.09,1.09,0,0,0-.57,1A1,1,0,0,0,107.9,199.22Z" transform="translate(-106.23 -182)"/><path d="M113.93,203.18a24.06,24.06,0,0,0,1.4-3.09,12.35,12.35,0,0,0-.08-7.06,21.85,21.85,0,0,0-1.35-2.91h.83q1.05,1.68,1.27,2.07a8,8,0,0,1,.48,1.08A8.74,8.74,0,0,1,117,195a9.7,9.7,0,0,1,.14,1.61,9.54,9.54,0,0,1-.64,3.61,19.81,19.81,0,0,1-1.67,3Z" transform="translate(-106.23 -182)"/><path d="M110.49,195.9a.67.67,0,0,0,.57-.35,1.09,1.09,0,0,0,.08-.47,1,1,0,0,0-.45-.92,2.39,2.39,0,0,0-1.28-.28,1.62,1.62,0,0,0-1.36.52,1.73,1.73,0,0,0-.29.86h-1.15a2.12,2.12,0,0,1,.88-1.89,3.59,3.59,0,0,1,2-.53,4,4,0,0,1,2.09.49,1.67,1.67,0,0,1,.8,1.53v4.22a.54.54,0,0,0,.08.31.38.38,0,0,0,.33.12h.18l.22,0v.91l-.44.1-.41,0a1,1,0,0,1-.92-.45,1.75,1.75,0,0,1-.21-.68,3.14,3.14,0,0,1-1.08.85,3.34,3.34,0,0,1-1.55.36,2.31,2.31,0,0,1-1.66-.62,2,2,0,0,1-.65-1.55,2,2,0,0,1,.64-1.58,3,3,0,0,1,1.67-.69Zm-2.59,3.32a1.45,1.45,0,0,0,.92.31,2.81,2.81,0,0,0,1.26-.3,1.69,1.69,0,0,0,1-1.63v-1a2.09,2.09,0,0,1-.58.24,4.9,4.9,0,0,1-.7.14l-.74.1a2.87,2.87,0,0,0-1,.28,1.09,1.09,0,0,0-.57,1A1,1,0,0,0,107.9,199.22Z" transform="translate(-106.23 -182)"/><path d="M113.93,203.18a24.06,24.06,0,0,0,1.4-3.09,12.35,12.35,0,0,0-.08-7.06,21.85,21.85,0,0,0-1.35-2.91h.83q1.05,1.68,1.27,2.07a8,8,0,0,1,.48,1.08A8.74,8.74,0,0,1,117,195a9.7,9.7,0,0,1,.14,1.61,9.54,9.54,0,0,1-.64,3.61,19.81,19.81,0,0,1-1.67,3Z" transform="translate(-106.23 -182)"/><path d="M301.13,191.26h1.2v3.64a2.69,2.69,0,0,1,2.19-1.08,2.87,2.87,0,0,1,2.23.94,4,4,0,0,1,.85,2.77,4.74,4.74,0,0,1-.84,2.88,2.74,2.74,0,0,1-2.34,1.15,2.4,2.4,0,0,1-1.41-.4,3.39,3.39,0,0,1-.73-.77v.94h-1.13Zm4.7,8.42a3.89,3.89,0,0,0,.5-2.09,3.42,3.42,0,0,0-.5-1.91,1.64,1.64,0,0,0-1.46-.76,2,2,0,0,0-1.48.62,2.79,2.79,0,0,0-.63,2,4.51,4.51,0,0,0,.26,1.67,1.8,1.8,0,0,0,1.82,1.21A1.65,1.65,0,0,0,305.83,199.68Z" transform="translate(-106.23 -182)"/><path d="M308.6,204.18a24.16,24.16,0,0,0,1.4-3.09,12.36,12.36,0,0,0-.08-7.06,21.93,21.93,0,0,0-1.35-2.91h.83q1.05,1.68,1.27,2.07a8,8,0,0,1,.48,1.08,8.7,8.7,0,0,1,.47,1.69,9.65,9.65,0,0,1,.14,1.61,9.55,9.55,0,0,1-.64,3.61,19.86,19.86,0,0,1-1.67,3Z" transform="translate(-106.23 -182)"/></svg>